<svg xmlns="http://www.w3.org/2000/svg" width="32" height="32" viewBox="0 0 32 32"><title>add edge</title><g fill="#212121" class="nc-icon-wrapper"><g fill="#212121"><path transform="scale(1,-1) translate(0,-32)" d="M 4 20 C 1.8 20 0 18.2 0 16 S 1.8 12 4 12 C 5.48 12 6.76 12.8 7.48 14 H 23.2 V 18 H 7.48 C 6.76 19.2 5.48 20 4 20 z M 4 13.6 C 2.68 13.6 1.6 14.68 1.6 16 C 1.6 17.32 2.68 18.4 4 18.4 C 5.32 18.4 6.4 17.32 6.4 16 C 6.4 14.68 5.32 13.6 4 13.6 z M 29.4 17.4 V 20 H 26.6 V 17.4 H 24 V 14.6 H 26.6 V 12 H 29.4 V 14.6 H 32 V 17.4 H 29.4 z"></path></g></g></svg>