<svg xmlns="http://www.w3.org/2000/svg" width="32" height="32" viewBox="0 0 32 32"><title>advanced pie</title><g fill="#212121" class="nc-icon-wrapper"><g fill="#212121"><path transform="scale(1,-1) translate(0,-32)" d="M 14.3 20.814 C 12.955 22.359 10.967 23.26 8.85 23.26 A 7.123 7.123 0 0 1 3.591 20.941 L 2.31 22.102 C 3.976 23.969 6.349 25 8.849 25 C 11.479 25 13.916 23.905 15.583 21.908 L 14.301 20.814 z M 10.325 7.352 L 10.068 9.027 C 13.531 9.607 16.032 12.634 16.032 16.112 C 16.032 17.272 15.776 18.302 15.262 19.332 L 16.802 20.105 C 17.442 18.817 17.764 17.529 17.764 16.112 A 8.85 8.85 0 0 0 10.324 7.352 z M 7.824 7.288 C 3.399 7.803 0 11.603 0 16.112 C 0 17.336 0.257 18.495 0.705 19.59 L 2.309 18.946 A 7.224 7.224 0 0 1 1.731 16.112 C 1.731 12.505 4.425 9.414 8.016 9.027 L 7.824 7.288 z M 2.309 18.946 L 0.705 19.59 C 0.834 19.847 0.898 20.04 1.026 20.234 L 2.566 19.461 C 2.436 19.268 2.373 19.075 2.309 18.946 z M 26.036 6 L 23.792 10.25 L 18.982 8.19 L 18.277 9.736 L 24.497 12.506 L 26.741 8.383 L 31.16600000000001 10.895 L 32.000000000000014 9.414 L 26.036 6 z M 23.471 24.807 L 25.202 24.678 L 24.497 16.048 L 22.83 16.176 L 23.47 24.806 z M 21.227 23.067 L 30.461 23.003 V 21.264 L 21.227 21.329 V 23.068 z M 27.19 24.614 L 28.858 24.484 L 28.216 15.79 L 26.485 15.919 L 27.19 24.614 z M 21.227 19.59 L 30.461 19.461 V 17.722 L 21.227 17.851 V 19.59 z"></path></g></g></svg>