<svg xmlns="http://www.w3.org/2000/svg" width="32" height="32" viewBox="0 0 32 32"><title>application</title><g fill="#212121" class="nc-icon-wrapper"><g fill="#212121"><path transform="scale(1,-1) translate(0,-32)" d="M 30.2 32 H 1.3 C 0.6 32 0 31.4 0 30.7 V 1.4 C 0 0.7 0.6 0.1 1.3 0.1 H 30.2 C 30.9 0.1 31.5 0.7 31.5 1.4 V 30.7 C 31.6 31.4 31 32 30.2 32 z M 10.4 2.3 H 2.3 V 23.8 H 10.4 V 2.3 z M 29.2 2.3 H 12.1 V 23.8 H 29.2 V 2.3 z M 29.2 25.6 H 2.3 V 29.7 H 29.2 V 25.6 z M 7.7 20.8 H 4.5 V 4.8 H 7.7 V 20.8 z M 27.1 8.8 H 14.5 V 4.8 H 27.1 V 8.8 z M 27.1 20.8 H 14.5 V 16.8 H 27.1 V 20.8 z M 27.1 14.9 H 14.5 V 10.9 H 27.1 V 14.9 z"></path></g></g></svg>