<svg xmlns="http://www.w3.org/2000/svg" viewBox="0 0 24 24" enable-background="new 0 0 24 24" width="24" height="24">
    <path style="text-indent:0;text-align:start;line-height:normal;text-transform:none;block-progression:tb;-inkscape-font-specification:Bitstream Vera Sans" d="M 16.84375 3.875 C 15.498845 3.88619 14.159834 4.4010389 13.125 5.375 L 13.09375 5.375 L 13.09375 5.40625 L 7.09375 11.40625 C 5.881271 12.618729 5.881271 14.600021 7.09375 15.8125 C 8.306229 17.024979 10.287521 17.024979 11.5 15.8125 L 16.71875 10.59375 L 15.28125 9.1875 L 10.09375 14.40625 C 9.706229 14.793771 8.887521 14.793771 8.5 14.40625 C 8.112479 14.018729 8.112479 13.200021 8.5 12.8125 L 14.5 6.84375 C 15.830333 5.5916721 17.860724 5.5043631 19.0625 6.78125 C 20.300326 8.0964397 20.296002 10.203998 19.09375 11.40625 L 13.09375 17.40625 C 11.087396 19.496202 7.7193414 19.415568 5.59375 17.375 C 3.494187 15.35942 3.4708736 12.029126 5.59375 9.90625 L 9.3125 6.21875 L 7.90625 4.78125 L 4.1875 8.5 C 1.3103764 11.377124 1.318313 16.02808 4.21875 18.8125 C 7.0824208 21.561624 11.703054 21.689115 14.5 18.8125 C 14.51049 18.80171 14.52081 18.79212 14.53125 18.78125 L 20.5 12.8125 C 22.497748 10.814752 22.493424 7.4910603 20.53125 5.40625 C 19.532138 4.3446934 18.188655 3.8638099 16.84375 3.875 z" color="#000" overflow="visible" enable-background="accumulate" font-family="Bitstream Vera Sans"/>
</svg>