<svg xmlns="http://www.w3.org/2000/svg" width="32" height="32" viewBox="0 0 32 32"><title>branch node</title><g fill="#212121" class="nc-icon-wrapper"><g fill="#212121"><path transform="scale(1,-1) translate(0,-32)" d="M 15.897 22.013 H 24.567 C 25.29 20.774 26.529 20.052 28.077 20.052 C 30.245 19.948 32 21.806 32 23.974 S 30.245 28 28.077 28 C 26.632 28 25.29 27.174 24.567 26.039 H 11.562 C 13.317 25.109 14.762 23.665 15.898 22.013 z M 28.077 26.348 C 29.419 26.348 30.452 25.316 30.452 23.974 S 29.419 21.6 28.077 21.6 S 25.703 22.632 25.703 23.974 C 25.6 25.316 26.735 26.348 28.077 26.348 z M 27.974 11.897 C 26.529 11.897 25.187 11.071 24.568 9.936 H 24.052 C 21.884 9.936 20.439 11.794 18.787 14.993 C 18.684 15.097 18.064 16.335 17.858 16.748 C 17.445 17.678 15.793 20.465 15.793 20.465 C 15.587 20.775 15.277 21.29 15.174 21.394 C 13.626 23.974 11.354 25.935 8.052 25.935 H 7.432 C 6.812 27.175 5.471 28 4.026 28 C 1.755 28 0 26.245 0 23.974 C 0 21.704 1.755 19.948 4.026 19.948 C 5.471 19.948 6.71 20.774 7.432 21.91 H 8.052 C 9.806 21.91 11.045 20.774 12.284 18.71 C 12.387 18.503 12.49 18.4 12.594 18.194 C 13.11 17.264 13.626 16.232 14.245 14.994 C 15.484 12.619 16.723 10.039 18.581 8.181 L 18.787 7.974 C 20.129 6.632 21.884 5.806 24.052 5.806 H 24.568 C 25.29 4.568 26.529 3.846 27.974 3.846 C 30.142 3.845 32 5.6 32 7.87 C 32 10.14 30.245 11.896 27.974 11.896 z M 4.026 21.6 C 2.684 21.6 1.652 22.632 1.652 23.974 S 2.684 26.348 4.026 26.348 S 6.4 25.316 6.4 23.974 S 5.368 21.6 4.026 21.6 z M 27.974 5.497 C 26.632 5.497 25.6 6.529 25.6 7.871 S 26.632 10.245 27.974 10.245 S 30.348 9.213 30.348 7.871 S 29.316 5.497 27.974 5.497 z"></path></g></g></svg>