<svg xmlns="http://www.w3.org/2000/svg" enable-background="new 0 0 32 32" height="32" width="32" viewBox="0 0 32 32"><title>button push outline small</title><g fill="#212121" class="nc-icon-wrapper"><path class="st0" d="M29.3 4H2.7C1.2 4 0 5.2 0 6.8V21c0 1.5 1.2 2.8 2.8 2.8h7.9l1.2 3.6 1.6 4.7 2.2-4.4 1.9-3.7 7.9 7.9 2.5-2.5-7.9-7.9 3.7-1.9 4.4-2.2-4.7-1.6-13.2-4.4L6 10l1.4 4.2 2 6.1H3.5V7.5h25.1V22H32V6.8C32 5.2 30.8 4 29.3 4zM18.9 18l-2.2 1.1-1 .5-.5 1-1.2 2.3-2.4-7.3 7.3 2.4z" fill-rule="evenodd" clip-rule="evenodd"></path></g></svg>