<svg xmlns="http://www.w3.org/2000/svg" enable-background="new 0 0 32 32" height="32" width="32" viewBox="0 0 32 32"><title>button push outline large</title><g fill="#212121" class="nc-icon-wrapper"><path class="st0" d="M1.8 5.5c-.1 0-.2.1-.2.2V21c0 .1.1.2.2.2h7.4L6.1 12l-.5-1.4 1.4.5 18.3 6.1 1.7.6-1.6.8-7.2 3.6 8.4 8.4-1.1 1.1-8.4-8.4-3.6 7.2-.8 1.6-.6-1.7-2.5-7.6H1.8C.8 22.8 0 22 0 21V5.7C0 4.8.8 4 1.8 4h28.5c1 0 1.8.8 1.8 1.8V21c0 1-.8 1.8-1.8 1.8h-4.1v-1.5h4.1c.1 0 .2-.1.2-.2V5.7c0-.1-.1-.2-.2-.2H1.8zm11.3 22.7L8 13l15.1 5-6.5 3.3-.2.1-.1.2-3.2 6.6z" fill-rule="evenodd" clip-rule="evenodd"></path></g></svg>