<svg height="32" width="32" xmlns="http://www.w3.org/2000/svg" viewBox="0 0 32 32"><title>button push outline</title><g fill="none" class="nc-icon-wrapper"><path clip-rule="evenodd" d="M2.45 5.45v14.847h6.734l-3.023-9.6-.736-2.338 2.313.816 17.297 6.105 2.635.93-2.47 1.307-6.517 3.45 7.828 7.829-1.732 1.732-7.62-7.62-2.956 6.26-1.336 2.83-.94-2.985-1.972-6.266h-7.73A2.225 2.225 0 0 1 0 20.522V5.225C0 3.996.996 3 2.225 3h27.507c1.229 0 2.225.996 2.225 2.225v15.297a2.225 2.225 0 0 1-2.225 2.225h-3.918v-2.45h3.693V5.45zm10.874 19.842l-4.09-12.99 12.35 4.358-5.218 2.762-.36.191-.174.369z" fill="#212121" fill-rule="evenodd"></path></g></svg>