<svg xmlns="http://www.w3.org/2000/svg" height="32" width="32" viewBox="0 0 32 32"><title>chart spider</title><g fill="#212121" class="nc-icon-wrapper"><path d="M24 2.1H8L0 16l8 13.9h16L32 16 24 2.1zm4.9 12.8h-6.4l-2.3-4.1 3.2-5.6 5.5 9.7zM20.6 16l-2.3 4h-4.6l-2.3-4 2.3-4h4.6l2.3 4zm.9-11.7l-3.2 5.6h-4.6l-3.2-5.6h11zm-12.8 1l3.2 5.6L9.6 15H3.1l5.6-9.7zM3.1 17.1h6.4l2.3 4.1-3.2 5.6-5.5-9.7zm7.4 10.6l3.2-5.6h4.6l3.2 5.6h-11zm12.9-1l-3.2-5.6 2.3-4.1h6.4l-5.5 9.7z" fill-rule="evenodd" clip-rule="evenodd"></path></g></svg>