<svg xmlns="http://www.w3.org/2000/svg" width="32" height="32" viewBox="0 0 32 32"><title>cloud upload</title><g fill="#212121" class="nc-icon-wrapper"><g fill="#212121"><path transform="scale(1,-1) translate(0,-32)" d="M 16.06 28 C 12.045 28 8.565 25.867 6.692 22.521 C 2.944 21.852 0 18.631 0 14.617 C 0 10.2 3.614 6.587 8.03 6.587 H 12.045 V 9.263 H 8.03 C 5.086 9.263 2.677 11.673 2.677 14.617 C 2.677 17.293000000000013 4.567 19.443000000000012 7.11 19.844000000000012 L 8.281 20.095000000000013 L 8.951 21.183 C 10.422 23.726 13.116 25.323 16.061 25.323 C 19.807 25.323 23.036 22.789 23.839 19.175 L 24.216 17.419 L 25.972 17.168000000000013 C 27.98 16.900000000000013 29.318 15.152 29.318 13.278000000000013 C 29.318 11.003000000000013 27.578 9.263 25.303 9.263 H 19.95 V 6.587 H 25.303 C 29.05 6.587 31.995 9.531 31.995 13.278 C 32.129 16.624 29.728 19.443 26.515 19.845 C 25.312 24.529 21.146 28 16.06 28 z M 16.06 20.388 L 10.707 13.278 H 14.722 V 3.91 H 17.398 V 13.278 H 21.413 L 16.06 20.388 z"></path></g></g></svg>