<svg xmlns="http://www.w3.org/2000/svg" enable-background="new 0 0 32 32" height="32" width="32" viewBox="0 0 32 32"><title>component</title><g fill="#212121" class="nc-icon-wrapper"><path d="M30.1 0H19.7c-1.1 0-1.9.9-1.9 1.9v10.4c0 1.1.9 1.9 1.9 1.9h10.4c1.1 0 1.9-.9 1.9-1.9V1.9c0-1-.9-1.9-1.9-1.9zm-.6 11.8h-9.3V2.5h9.3v9.3zm-5.5 6h-9.8V8.3c0-1.1-.9-1.9-1.9-1.9H1.9c-1 0-1.9.9-1.9 1.9V30c0 1.1.9 2 1.9 2H24c1.1 0 1.9-.9 1.9-1.9V19.7c0-1.1-.8-1.9-1.9-1.9zM11.7 29.5H2.5v-8.9h9.2v8.9zm.1-11.7H2.5v-9h9.3v9zm11.7 11.7h-9.2v-9.3h9.2v9.3z"></path></g></svg>