<svg width="32" height="32" xmlns="http://www.w3.org/2000/svg" viewBox="0 0 32 32"><title>condition</title><g fill="none" class="nc-icon-wrapper"><path d="M9.617 14.865h13.235c3.609 0 6.617-3.152 6.617-6.933C29.469 4.151 26.46 1 22.852 1H9.617C6.007 1 3 4.151 3 7.932c0 3.781 3.008 6.933 6.617 6.933zm0-11.344c2.286 0 4.211 2.016 4.211 4.411 0 2.395-1.925 4.412-4.21 4.412-2.287 0-4.212-2.017-4.212-4.412s1.925-4.411 4.211-4.411zm13.235 13.864H9.617C6.007 17.385 3 20.536 3 24.318c0 3.781 3.008 6.932 6.617 6.932h13.235c3.609 0 6.617-3.151 6.617-6.932 0-3.782-3.008-6.933-6.617-6.933zm0 11.344c-2.286 0-4.211-2.017-4.211-4.411 0-2.395 1.925-4.412 4.21-4.412 2.287 0 4.212 2.017 4.212 4.412 0 2.394-1.925 4.411-4.211 4.411z" fill="#212121"></path></g></svg>