<svg xmlns="http://www.w3.org/2000/svg" width="32" height="32" viewBox="0 0 32 32"><title>dashboard outline</title><g fill="#212121" class="nc-icon-wrapper"><g fill="#212121"><path transform="scale(1,-1) translate(0,-32)" d="M 7.8 12.3 H 7.7 C 7.6 12.3 7.5 12.2 7.3 12.1 L 6.2 11.5 C 5.8 11.4 5.6 11 5.6 10.6 S 5.8 9.8 6.1 9.7 C 6.4 9.5 6.9 9.6 7.2 9.8 L 8.3 10.400000000000013 C 8.7 10.6 8.9 11.1 8.8 11.6 S 8.3 12.400000000000013 7.8 12.3 z M 20.7 23.1 C 21.1 23.1 21.4 23.3 21.6 23.6 L 22.2 24.7 C 22.4 25 22.4 25.5 22.2 25.8 S 21.6 26.3 21.2 26.2 C 20.9 26.1 20.7 26 20.5 25.7 L 19.9 24.6 C 19.7 24.3 19.7 23.9 19.8 23.6 S 20.3 23.1 20.7 23.1 z M 8.4 21.5 L 7.3 22.2 C 7.1 22.3 6.9 22.3 6.8 22.3 H 6.7 C 6.3 22.2 5.9 21.9 5.9 21.5 C 5.8 21.1 6 20.7 6.4 20.5 L 7.5 19.9 C 7.8 19.7 8.2 19.7 8.5 19.8 C 8.8 20 9 20.3 9 20.7 C 8.9 21 8.7 21.4 8.4 21.5 z M 16 24.4 C 16.6 24.4 17 24.9 17 25.4 V 26.6 C 17 26.9 16.9 27.2 16.7 27.4 S 16.2 27.7 15.9 27.6 H 15.8 C 15.3 27.5 15 27.1 15 26.6 V 25.4 C 15 24.8 15.4 24.4 16 24.4 z M 7.6 16 C 7.6 16.6 7.1 17 6.6 17 H 5.1 C 4.5 16.9 4.2 16.4 4.3 15.8 S 4.9 14.9 5.5 15 H 6.7 C 7.2 15 7.6 15.4 7.6 16 z M 26.6 17 H 25.1 C 24.5 16.9 24.2 16.4 24.3 15.8 S 24.9 14.9 25.5 15 H 26.7 C 27.3 15 27.7 15.5 27.7 16 S 27.2 17 26.6 17 z M 16 32 C 7.2 32 0 24.8 0 16 S 7.2 0 16 0 S 32 7.2 32 16 S 24.8 32 16 32 z M 16 2.5 C 8.5 2.5 2.5 8.5 2.5 16 S 8.5 29.5 16 29.5 S 29.5 23.5 29.5 16 S 23.5 2.5 16 2.5 z M 25.7 11.6 L 24.6 12.2 C 24.4 12.3 24.2 12.4 24 12.4 H 23.9 C 23.5 12.3 23.1 12 23.1 11.6 C 23 11.2 23.2 10.8 23.6 10.6 L 24.7 10 C 25 9.8 25.4 9.7 25.8 9.9 C 26.1 10.1 26.4 10.5 26.3 10.8 C 26.3 11.1 26 11.4 25.7 11.6 z M 11.6 25.7 C 11.4 26 11 26.2 10.7 26.2 H 10.5 C 10.2 26.1 9.9 25.9 9.8 25.6 C 9.6 25.3 9.7 25 9.8 24.7 L 10.4 23.6 C 10.6 23.3 10.9 23.1 11.3 23.1 S 12 23.3 12.2 23.6 S 12.4 24.3 12.1 24.6 z M 26.4 22.2 L 16.8 18.1 C 16.5 18.2 16.2 18.3 15.9 18.3 C 14.7 18.3 13.6 17.3 13.6 16 S 14.6 13.7 15.9 13.7 C 17.1 13.7 18 14.6 18.1 15.7 L 26.4 21.9 z"></path></g></g></svg>