<svg xmlns="http://www.w3.org/2000/svg" enable-background="new 0 0 32 32" height="32" width="32" viewBox="0 0 32 32"><title>debug</title><g fill="#212121" class="nc-icon-wrapper"><path d="M30.6 26.1l-2.9-2.9c-.5-.5-1.2-.5-1.7 0l-.8.8-1-1c2.4-2.5 3.7-5.9 3.7-9.3C27.8 6.1 21.7 0 14.1 0 6.5 0 .4 6.2.4 13.7c0 7.6 6.1 13.7 13.7 13.7 3.1 0 5.9-1 8.2-2.7l1.1 1.1-.6.6c-.5.5-.5 1.2 0 1.7l2.9 2.9c1.3 1.4 3.5 1.4 4.9 0 1.3-1.3 1.3-3.5 0-4.9zM14.1 25C7.9 25 2.8 19.9 2.8 13.7c0-6.2 5.1-11.3 11.3-11.3 6.2 0 11.3 5.1 11.3 11.3 0 6.2-5.1 11.3-11.3 11.3zm14.7 4.2c-.4.4-1 .4-1.4 0l-2-2 1.4-1.4 2 2c.4.4.4 1 0 1.4zM21 9.3h-1.4c-.5 0-.9.2-1.2.5-.3-.3-.7-.6-1.1-.9 0-.2.1-.3.1-.5 0-1.4-1.4-3.2-3.2-3.2S11 7 11 8.4c0 .2 0 .3.1.5-.4.2-.8.5-1.1.9-.4-.3-.9-.5-1.3-.5H7.3c-.7 0-1.2.5-1.2 1.2s.5 1.2 1.2 1.2h1.1l.5.6v1.1H7.7c-.7 0-1.2.5-1.2 1.2s.5 1.2 1.2 1.2h1.7c.1.5.3 1 .5 1.5l-.2.2H8.6c-.7 0-1.2.5-1.2 1.2s.5 1.2 1.2 1.2H10c.3 0 .7-.1.9-.3.8 1.4 1.9 2.4 3.2 2.4 1.3 0 2.4-1 3.2-2.4.3.2.6.3 1 .3h1.4c.7 0 1.2-.5 1.2-1.2s-.5-1.2-1.2-1.2h-1.1l-.2-.2c.2-.5.3-1 .5-1.5h1.7c.7 0 1.2-.5 1.2-1.2s-.5-1.2-1.2-1.2h-1.3v-.8-.3l.5-.6H21c.7 0 1.2-.5 1.2-1.2s-.5-1.2-1.2-1.2zM13.7 8c.2-.2.4-.3.5-.3.1 0 .2 0 .5.3.1.1.2.3.3.4 0 0-.1 0-.1.1-.1 0-.3.1-.5.1-.4 0-.6-.1-.7-.2-.2-.2-.1-.3 0-.4zm2.1 9.4c-.4.9-.8 1.6-1.2 2-.1.1-.3.2-.4.3h-.1-.1c-.2-.1-.3-.2-.4-.3-.4-.4-.8-1.1-1.2-2-.8-1.8-1.1-3.9-1.1-4.7 0-.8.2-1 .4-1.2.2-.2.4-.3.7-.5.6.3 1.2.4 1.8.4s1.3-.1 1.8-.4c.3.2.5.3.7.5.2.2.4.4.4 1.2-.1.8-.5 2.8-1.3 4.7z"></path></g></svg>