<svg fill="#000000" height="512" width="512" id="icon-devil" viewBox="0 0 512 512">
  <path d="m503 115c19 37 8 81-20 108c-28 27-60 33-60 33c2 32 16 59-41 102c-43 32 2 90 2 90c10 14 23 19 32 32l-272 0c0 13 15-14-7-32c0 0-20-17-18-29c2-12 6-13 9-15c3-2 0-7 0-7l-19-19c0 0-13 13-44 13c-38 0-65-39-65-39l46 0c0 0-6 8-7 13c-1 4 1 5 1 5c0 0 11 6 22 6c17 0 33-12 33-12l-24-22l-15 4l-16-37l39 10l-1 15l28 18c0 0 9-9 7-27c-2-18-9-26-9-26c0 0-4 0-9 4c-5 4-6 6-6 6l-10-44c0 0 43 19 50 63c3 20-6 35-6 35l17 10c0 0 6-5 17-7c11-2 23-2 29 8c6 10 5 12 4 19c-1 7 0 9 6 11c6 2 6 6 11 8c5 2 15 6 21 2c6-4 8-11 8-18l0-16c0 0-9-8-32-20c-23-12-54-22-66-40c-12-18-12-44 0-57c9-10 23-25 26-35c4-14 4-42 4-42c0 0-10-16-8-40c2-30 22-84 96-114c0 0-40 55-20 80c0 0 37-11 77-9c31 2 56 12 73 28c17 16 25 23 47 17c22-6 28-17 28-33c0-19-16-51-16-51c0 0 36 7 58 51z m-308 88c14-4 21 11 21 11c14-25 30-60 22-64c-8-4-64 25-66 88c0 0 6-31 23-35z m37 15c5-7 34-8 37 17c4 35-24 57-24 57c0 0 7 2 23-2c17-4 43-29 43-70c0-41-21-66-41-62c-20 4-38 60-38 60z"/>
</svg>