<svg xmlns="http://www.w3.org/2000/svg" width="32" height="32" viewBox="0 0 32 32"><title>download outline large</title><g fill="#212121" class="nc-icon-wrapper"><g fill="#212121"><path transform="scale(1,-1) translate(0,-32)" d="M 16.3 32 C 10.1 32 5 27 5 20.8 C 5 17 6.9 13.7 9.9 11.6 C 10.2 11.4 10.6 11.5 10.7 11.8 S 10.8 12.5 10.5 12.6 C 7.9 14.4 6.2 17.4 6.2 20.8 C 6.2 26.3 10.7 30.7 16.3 30.7 S 26.4 26.2 26.4 20.8 C 26.4 17.4 24.7 14.4 22.1 12.6 C 21.8 12.4 21.8 12 21.9 11.8 S 22.5 11.5 22.7 11.6 C 25.6 13.6 27.6 17 27.6 20.8 C 27.6 27 22.6 32 16.3 32 z M 17.1 2.3 V 23.1 H 21.7 V 24.4 H 10.9 V 23.1 H 15.5 V 2.3 L 10.6 6.6 L 9.8 5.7 L 16.3 0 L 22.8 5.7 L 22 6.6 z"></path></g></g></svg>