<svg height="32" width="32" xmlns="http://www.w3.org/2000/svg" viewBox="0 0 32 32"><title>edit outline</title><g fill="none" class="nc-icon-wrapper"><path clip-rule="evenodd" d="M23.496.354a1.208 1.208 0 0 1 1.709 0l6.441 6.441a1.208 1.208 0 0 1 0 1.709L11.513 28.639a1.207 1.207 0 0 1-.488.297l-9.45 3.007a1.208 1.208 0 0 1-1.518-1.518l3.009-9.452c.058-.184.16-.352.297-.488zM20.955 6.31l4.88 4.587 3.249-3.248-4.734-4.734zm3.171 6.297l-4.88-4.587-13.32 13.318 4.733 4.738zM8.402 27.236l-3.636-3.639-1.698 5.336z" fill="#212121" fill-rule="evenodd"></path></g></svg>