<svg xmlns="http://www.w3.org/2000/svg" enable-background="new 0 0 32 32" height="32" width="32" viewBox="0 0 32 32"><title>edit outline small</title><g fill="#212121" class="nc-icon-wrapper"><path class="st0" d="M31.5 6.7L25.3.5c-.7-.7-1.8-.7-2.5 0L3.4 19.9c-.2.2-.3.4-.4.7L.1 29.7c-.2.6 0 1.3.4 1.8.5.5 1.2.6 1.8.4l9.1-2.9c.3-.1.5-.2.7-.4L31.5 9.2c.7-.7.7-1.8 0-2.5zM4.4 27.6l1-3.1 2.1 2.1-3.1 1zm6.5-2.7l-3.7-3.7 12-12 3.8 3.6-12.1 12.1zm14.6-14.6l-3.8-3.6L24 4.2 27.8 8l-2.3 2.3z" fill-rule="evenodd" clip-rule="evenodd"></path></g></svg>