<svg height="32" width="32" xmlns="http://www.w3.org/2000/svg" viewBox="0 0 32 32"><title>edit outline large</title><g fill="none" class="nc-icon-wrapper"><path clip-rule="evenodd" d="M24.064.223a.762.762 0 0 1 1.077 0l6.636 6.636a.762.762 0 0 1 0 1.077L11.037 28.68a.763.763 0 0 1-.309.188L.994 31.964a.762.762 0 0 1-.957-.957l3.1-9.738a.762.762 0 0 1 .187-.308zM20.41 6.03l5.731 5.387 4.019-4.02-5.559-5.558zm4.653 6.465l-5.73-5.387L4.938 21.5l5.559 5.563zm-15.99 15.3l-4.866-4.87-2.273 7.14z" fill="#212121" fill-rule="evenodd"></path></g></svg>