<svg xmlns="http://www.w3.org/2000/svg" width="32" height="32" viewBox="0 0 32 32"><title>eye disabled</title><g fill="#212121" class="nc-icon-wrapper"><g fill="#212121"><path transform="scale(1,-1) translate(0,-32)" d="M 27.6 22.9 L 23 18.3 C 23.1 17.7 23.2 17.1 23.2 16.5 C 23.2 12.5 19.9 9.2 15.9 9.2 C 15.3 9.2 14.8 9.3 14.2 9.4 L 11.1 6.2 C 12.6 5.8 14.2 5.5 15.9 5.5 C 23.2 5.5 29.4 10.1 31.9 16.5 C 31 18.9 29.5 21.1 27.6 22.9 z M 27.1 29 L 23.8 25.6 C 21.5 26.8 18.8 27.5 16 27.5 C 8.7 27.5 2.5 22.9 0 16.5 C 1.3 13.1 3.7 10.2 6.7 8.2 L 3.1 4.5 L 4.7 3 L 28.7 27.5 L 27.1 29 z M 18.4 20.1 C 17.7 20.6 16.9 20.8 16 20.8 C 13.6 20.8 11.6 18.8 11.6 16.4 C 11.6 15.5 11.9 14.6 12.4 13.9 L 10.3 11.8 C 9.3 13.1 8.7 14.7 8.7 16.4 C 8.7 20.4 12 23.7 16 23.7 C 17.7 23.7 19.3 23.1 20.5 22.1 L 18.4 20.1 z"></path></g></g></svg>