<svg xmlns="http://www.w3.org/2000/svg" width="20" height="19" viewBox="0 0 20 19">
  <g fill="#FFF" transform="translate(0 1)">
    <path d="M16.6667,1.66667 L14.1667,1.66667 L14.1667,0 L12.5,0 L12.5,5 L14.1667,5 L14.1667,3.33333 L16.6667,3.33333 L16.6667,15.8333 L1.66667,15.8333 L1.66667,3.33333 L3.33333,3.33333 L3.33333,1.66667 L1.66667,1.66667 C0.746667,1.66667 0,2.4125 0,3.33333 L0,15.8333 C0,16.7533 0.746667,17.5 1.66667,17.5 L16.6667,17.5 C17.5867,17.5 18.3333,16.7533 18.3333,15.8333 L18.3333,3.33333 C18.3333,2.4125 17.5867,1.66667 16.6667,1.66667 Z" transform="translate(.83)"/>
    <polygon points="1.667 3.333 7.5 3.333 7.5 1.667 1.667 1.667 1.667 0 0 0 0 5 1.667 5" transform="translate(4.83)"/>
    <polygon points="0 0 3.333 0 3.333 3.333 0 3.333" transform="translate(3.5 6.67)"/>
    <polygon points="0 0 3.333 0 3.333 3.333 0 3.333" transform="translate(7.5 6.67)"/>
    <polygon points="0 0 3.333 0 3.333 3.333 0 3.333" transform="translate(11.5 6.67)"/>
    <polygon points="0 0 3.333 0 3.333 3.333 0 3.333" transform="translate(3.5 10.67)"/>
    <polygon points="0 0 3.333 0 3.333 3.333 0 3.333" transform="translate(7.5 10.67)"/>
  </g>
</svg>
