<svg xmlns="http://www.w3.org/2000/svg" width="32" height="32" viewBox="0 0 32 32"><title>field double select</title><g fill="#212121" class="nc-icon-wrapper"><g fill="#212121"><path transform="scale(1,-1) translate(0,-32)" d="M 30.4 8 H 1.6 C 0.7 8 0 7.3 0 6.4 V 1.6 C 0 0.7 0.7 0 1.6 0 H 30.4 C 31.3 0 32 0.7 32 1.6 V 6.4 C 32 7.3 31.3 8 30.4 8 z M 30 2 H 2 V 6 H 30 V 2 z M 30.4 20 H 1.6 C 0.7 20 0 19.3 0 18.4 V 13.6 C 0 12.7 0.7 12 1.6 12 H 30.4 C 31.3 12 32 12.7 32 13.6 V 18.4 C 32 19.3 31.3 20 30.4 20 z M 30.4 32 H 1.6 C 0.7 32 0 31.3 0 30.4 V 25.6 C 0 24.7 0.7 24 1.6 24 H 30.4 C 31.3 24 32 24.7 32 25.6 V 30.4 C 32 31.3 31.3 32 30.4 32 z"></path></g></g></svg>