<svg xmlns="http://www.w3.org/2000/svg" width="32" height="32" viewBox="0 0 32 32"><title>field edited by</title><g fill="#212121" class="nc-icon-wrapper"><g fill="#212121"><path transform="scale(1,-1) translate(0,-32)" d="M 11.060999999999925 10.694000000000013 C 4.547999999999925 10.694000000000013 -7.5e-14 7.283000000000013 -7.5e-14 2.3980000000000126 V 1.0150000000000126 H 22.122999999999927 V 2.3980000000000126 C 22.122999999999927 7.283000000000013 17.572999999999926 10.694000000000013 11.060999999999925 10.694000000000013 z M 11.137999999999925 23.13100000000001 C 11.111999999999925 23.13100000000001 11.083999999999925 23.139000000000014 11.055999999999925 23.139000000000014 A 5.537 5.537 0 0 1 5.525999999999925 17.609000000000012 C 5.525999999999925 14.559000000000012 8.005999999999926 12.078000000000012 11.055999999999925 12.078000000000012 C 13.065999999999924 12.078000000000012 14.809999999999924 13.166000000000025 15.779999999999925 14.772000000000013 A 12.434 12.434 0 0 0 11.137999999999925 23.13100000000001 z M 19.3599999999999 22.923 L 22.7719999999999 19.57 L 17.7049999999999 17.842 L 19.3599999999999 22.923 z M 31.2929999999999 27.95400000000001 A 2.34 2.34 0 0 1 31.2929999999999 31.30600000000001 A 2.445 2.445 0 0 1 27.878999999999888 31.30600000000001 L 21.6219999999999 25.16000000000001 L 25.0359999999999 21.807000000000013 L 31.2929999999999 27.95400000000001 z"></path></g></g></svg>