<svg xmlns="http://www.w3.org/2000/svg" width="20" height="19" viewBox="0 0 20 19">
  <g>
    <path d="M6.666 13.17C2.74056 13.17 0 15.22563 0 18.1695L0 19.00275 13.332 19.00275 13.332 18.1695C13.332 15.22563 10.5906 13.17 6.666 13.17zM6.71216 5.67499911C6.69633 5.67499911 6.67966 5.66999997 6.663 5.66999997 4.82485 5.66999997 3.33 7.16568 3.33 9.003 3.33 10.84031 4.82485 12.336 6.663 12.336 7.87371 12.336 8.92527 11.68023 9.50938 10.71199 7.9837 9.50045 6.94047 7.71313 6.71216 5.67499911z"/>
    <polygon points="11.667 5.8 13.723 7.821 10.67 8.862"/>
    <path d="M18.85826,2.76833 C19.42645,2.21124 19.42645,1.306568 18.85826,0.748529 C18.29008,0.19049 17.36896,0.19049 16.80077,0.748529 L13.0300002,4.45197 L15.08749,6.47272 L18.85826,2.76833 Z"/>
  </g>
</svg>
