<svg xmlns="http://www.w3.org/2000/svg" width="32" height="32" viewBox="0 0 32 32"><title>folder</title><g fill="#212121" class="nc-icon-wrapper"><g fill="#212121"><path transform="scale(1,-1) translate(0,-32)" d="M 30.479 21.012 C 31.165 21.012 31.602 20.887 31.789 20.637 C 31.977 20.387 32.039 19.951 31.977 19.451 L 30.604 5.035 C 30.604 4.535 30.479 4.099 30.229 3.849 C 30.042 3.537 29.605 3.413 28.919 3.413 H 3.144 C 2.02 3.413 1.459 3.974 1.396 5.035 L 0.023 19.451 C -0.039 19.951 0.023 20.388 0.211 20.637 C 0.398 20.887 0.835 21.012 1.521 21.012 H 30.48 z M 29.418 24.507 L 29.73 23.258 H 2.707 L 3.144 27.44 C 3.269 27.877 3.456 28.251 3.768 28.563 C 4.142 28.813 4.517 29 4.954 29 H 10.196 C 11.319 29 12.193 28.626 12.942 27.877 L 13.878 26.941 C 14.565 26.191 15.501 25.817 16.624 25.817 H 27.484 C 27.92 25.817 28.357 25.692 28.731 25.38 C 29.106 25.13 29.355 24.881 29.418 24.507 z"></path></g></g></svg>