<svg xmlns="http://www.w3.org/2000/svg" width="32" height="32" viewBox="0 0 32 32"><title>formula</title><g fill="#212121" class="nc-icon-wrapper"><g fill="#212121"><path transform="scale(1,-1) translate(0,-32)" d="M 31.824 1.75 C 31.991000000000014 1.417 32.074 0.917 31.824 0.583 C 31.574 0.25 31.158 0 30.741000000000014 0 H 1.158 C 0.741 0 0.408 0.25 0.158 0.583 C -0.092 0.917 -0.009 1.417 0.158 1.75 L 9.99 18.333 V 30.833 C 9.991 31.5 10.491 32 11.158 32 C 11.824 32 12.408 31.5 12.408 30.833 V 24.167 C 12.741 24.417 13.241 24.583 13.741 24.583 C 14.991 24.583 15.991 23.583 15.991 22.333 S 14.991 20.167 13.741 20.167 C 13.241 20.167 12.741 20.333 12.408 20.583 V 18 C 12.408 17.833 12.324 17.667 12.241 17.5 L 9.324 12.583 H 15.324 C 14.074 13.083 13.158 14.25 13.158 15.667 C 13.158 17.583 14.741 19.167 16.741 19.167 C 17.991 19.167 18.991 18.5 19.658 17.583 C 19.574 17.75 19.574 17.833 19.574 18 V 30.833 C 19.574 31.5 20.074 32 20.741 32 S 21.991 31.5 21.991 30.833 V 18.333 L 31.824000000000012 1.75 z M 18.158 12.583 H 22.574 L 19.991 17.083 C 20.158 16.667 20.241 16.167 20.241 15.667 A 3.27 3.27 0 0 0 18.158 12.583 z M 16.741 26.583 C 15.741 26.583 14.908 27.333 14.908 28.333 S 15.741 30.083 16.741 30.083 S 18.574 29.333 18.574 28.333 S 17.741 26.583 16.741 26.583 z"></path></g></g></svg>