<svg fill="#000000" height="512" width="512" id="icon-formula" viewBox="0 0 512 512">
  <path d="m446 427c2 4 3 10 0 14c-3 4-8 7-13 7l-355 0c-5 0-9-3-12-7c-3-4-2-10 0-14l118-199l0-150c0-8 6-14 14-14c8 0 15 6 15 14l0 80c4-3 10-5 16-5c15 0 27 12 27 27c0 15-12 26-27 26c-6 0-12-2-16-5l0 31c0 2-1 4-2 6l-35 59l72 0c-15-6-26-20-26-37c0-23 19-42 43-42c15 0 27 8 35 19c-1-2-1-3-1-5l0-154c0-8 6-14 14-14c8 0 15 6 15 14l0 150z m-164-130l53 0l-31-54c2 5 3 11 3 17c0 17-10 31-25 37z m-17-168c-12 0-22-9-22-21c0-12 10-21 22-21c12 0 22 9 22 21c0 12-10 21-22 21z"/>
</svg>