<svg xmlns="http://www.w3.org/2000/svg" width="14" height="12" viewBox="0 0 14 12">
  <path d="M8,0 C4.68667,0 2,2.68667 2,6 L0,6 L2.59333,8.59333 L2.64,8.68667 L5.33333,6 L3.33333,6 C3.33333,3.42 5.42,1.33333 8,1.33333 C10.58,1.33333 12.6667,3.42 12.6667,6 C12.6667,8.58 10.58,10.6667 8,10.6667 C6.71333,10.6667 5.54667,10.14 4.70667,9.29333 L3.76,10.24 C4.84667,11.3267 6.34,12 8,12 C11.3133,12 14,9.31333 14,6 C14,2.68667 11.3133,0 8,0 Z M7.33333,3.33333 L7.33333,6.66667 L10.1867,8.36 L10.6667,7.55333 L8.33333,6.16667 L8.33333,3.33333 L7.33333,3.33333 Z"/>
</svg>
