<svg xmlns="http://www.w3.org/2000/svg" width="32" height="32" viewBox="0 0 32 32"><title>horz bar graph grouped</title><g fill="#212121" class="nc-icon-wrapper"><g fill="#212121"><path transform="scale(1,-1) translate(0,-32)" d="M 31.377 27.073 H 0.685 A 0.699 0.699 0 0 0 0 27.773 V 29.3 C 0 29.682 0.311 30 0.685 30 H 31.377 C 31.751 30 32 29.682 32 29.3 V 27.773 C 32 27.391 31.751 27.073 31.377 27.073 z M 0.685 23 H 18.24 C 18.614 23 18.863 22.682 18.863 22.3 V 20.71 C 18.863 20.327 18.613 20.073 18.24 20.073 H 0.685 C 0.311 20.073 0 20.327 0 20.709 V 22.3 C 0 22.682 0.311 23 0.685 23 z M 0.685 11.736 H 22.039 C 22.412 11.736 22.661 11.418 22.661 11.1 V 9.51 C 22.661 9.127 22.413 8.81 22.039 8.81 H 0.685 A 0.699 0.699 0 0 0 0 9.51 V 11.1 C 0 11.418 0.311 11.736 0.685 11.736 z M 0.685 4.927 H 15.253 C 15.626 4.927 15.876 4.609 15.876 4.227 V 2.7 C 15.876 2.318 15.626 2 15.253 2 H 0.685 A 0.699 0.699 0 0 0 0 2.7 V 4.227 C 0 4.609 0.311 4.927 0.685 4.927 z"></path></g></g></svg>