<svg xmlns="http://www.w3.org/2000/svg" width="32" height="32" viewBox="0 0 32 32"><title>horz stacked bar</title><g fill="#212121" class="nc-icon-wrapper"><g fill="#212121"><path transform="scale(1,-1) translate(0,-32)" d="M 0 4.625 V 6.986 C 0 7.333 0.335 7.681 0.603 7.681 H 11.983 C 12.251 7.681 12.586 7.333 12.586 6.986 V 4.625 C 12.586 4.347 12.251 4 11.983 4 H 0.603 C 0.335 4 0 4.347 0 4.625 z M 0 11.708 V 14.07 C 0 14.348 0.335 14.695 0.603 14.695 H 4.35 C 4.618 14.695 4.953 14.348 4.953 14.07 V 11.71 C 4.953 11.362 4.618 11.015 4.35 11.015 H 0.603 C 0.335 11.153 0 11.5 0 11.708 z M 0 18.792 V 21.292 C 0 21.639 0.335 21.986 0.603 21.986 H 9.038 C 9.372 21.986 9.708 21.639 9.708 21.292 V 18.722 C 9.708 18.444 9.439 18.306 9.305 18.306 H 0.603 C 0.335 18.306 0 18.444 0 18.792 z M 0 26.014 V 28.375 C 0 28.653 0.335 29 0.603 29 H 4.285 C 4.552 29 4.887 28.653 4.887 28.375 V 26.014 C 4.887 25.667 4.552 25.319 4.285 25.319 H 0.603 C 0.335 25.25 0 25.597 0 26.014 z M 14.393 4.625 V 6.986 C 14.393 7.333 14.728 7.681 14.996 7.681 H 26.443 C 26.711 7.681 27.046 7.333 27.046 6.986 V 4.625 C 27.046 4.347 26.711 4 26.444 4 H 14.995 C 14.727 4 14.392 4.347 14.392 4.625 z M 6.695 11.708 V 14.07 C 6.695 14.348 7.029 14.695 7.297 14.695 H 18.745 C 19.079 14.695 19.347 14.348 19.347 14.07 V 11.71 C 19.347 11.362 19.079 11.015 18.745 11.015 H 7.297 C 6.828 11.154 6.695 11.501 6.695 11.709 z M 11.515 18.792 V 21.152 C 11.515 21.5 11.782 21.778 12.117 21.778 H 18.677 C 18.946 21.778 19.28 21.5 19.28 21.153 V 18.792 C 19.28 18.444 18.946 18.167 18.678 18.167 H 12.118 C 11.648 18.306 11.515 18.444 11.515 18.792 z M 6.695 26.014 V 28.375 C 6.695 28.653 7.029 29 7.297 29 H 12.586 C 12.854 29 13.188 28.653 13.188 28.375 V 26.014 C 13.188 25.667 12.854 25.319 12.586 25.319 H 7.297 C 6.828 25.25 6.695 25.597 6.695 26.014 z M 20.619 11.708 V 14.07 C 20.619 14.348 20.954 14.695 21.289 14.695 H 26.644 C 26.979 14.695 27.247 14.348 27.247 14.07 V 11.71 C 27.247 11.362 26.979 11.015 26.644 11.015 H 21.29 C 20.955 11.154 20.62 11.501 20.62 11.709 z M 28.787 4.625 V 6.986 C 28.787 7.333 29.121 7.681 29.389 7.681 H 31.398 C 31.665 7.681 32 7.333 32 6.986 V 4.625 C 32 4.347 31.665 4 31.398 4 H 29.389 C 29.121 4 28.787 4.347 28.787 4.625 z"></path></g></g></svg>