<svg width="14" height="12" viewBox="0 0 14 12" version="1.1" xmlns="http://www.w3.org/2000/svg" xmlns:xlink="http://www.w3.org/1999/xlink">
    <path id="path0_fill" d="M 8.42513 0C 8.24025 0 8.04381 0.123255 7.98218 0.308137L 4.53491 10.6692C 4.47328 10.9157 4.65816 11.0929 4.84304 11.0929L 5.40154 11.0929C 5.58642 11.0929 5.7636 10.9697 5.82523 10.7848L 9.27251 0.423688C 9.33414 0.177179 9.14925 0 8.96437 0L 8.42513 0ZM 3.10833 1.84882C 3.02359 1.86423 2.93885 1.90274 2.87723 1.96437L 0.0462205 5.35388C -0.0154068 5.47713 -0.0154068 5.61579 0.0462205 5.73905L 2.87723 9.12855C 3.00048 9.25181 3.19307 9.30958 3.37795 9.18633L 3.74386 8.87819C 3.86712 8.75494 3.92489 8.50072 3.80164 8.37747L 1.41358 5.54646L 3.74386 2.71546C 3.86712 2.5922 3.87097 2.33799 3.68609 2.21473L 3.37795 1.9066C 3.28551 1.84497 3.19307 1.83341 3.10833 1.84882ZM 10.7569 1.84882C 10.7116 1.85845 10.6683 1.87578 10.6221 1.9066L 10.2561 2.21473C 10.1329 2.33799 10.0751 2.5922 10.1984 2.71546L 12.5286 5.54646L 10.1984 8.37747C 10.0751 8.50072 10.0713 8.75494 10.2561 8.87819L 10.6221 9.18633C 10.7453 9.30958 10.9995 9.31343 11.1228 9.12855L 13.9538 5.73905C 14.0154 5.61579 14.0154 5.47713 13.9538 5.35388L 11.1228 1.96437C 11.0303 1.87193 10.8926 1.81993 10.7569 1.84882Z"/>
</svg>
