<svg xmlns="http://www.w3.org/2000/svg" width="32" height="32" viewBox="0 0 32 32"><title>html code</title><g fill="#212121" class="nc-icon-wrapper"><g fill="#212121"><path transform="scale(1,-1) translate(0,-32)" d="M 19.257 29 C 18.835 29 18.386 28.718 18.245 28.296 L 10.365 4.613 C 10.225 4.05 10.647 3.645 11.07 3.645 H 12.346 C 12.769 3.645 13.174 3.926 13.315 4.349 L 21.195 28.032 C 21.335 28.595 20.913 29 20.49 29 H 19.257 z M 7.105 24.774 A 1.006 1.006 0 0 1 6.577 24.51 L 0.106 16.763 A 0.97 0.97 0 0 1 0.106 15.883 L 6.576 8.135 C 6.858 7.853 7.298 7.721 7.721 8.003 L 8.557 8.707 C 8.839 8.989 8.971 9.57 8.689 9.851 L 3.231 16.322 L 8.557 22.793 A 0.762 0.762 0 0 1 8.425 23.938 L 7.721 24.642 A 0.814 0.814 0 0 1 7.105 24.774 z M 24.587 24.774 A 0.864 0.864 0 0 1 24.279 24.642 L 23.442 23.938 C 23.161 23.656 23.029 23.075 23.311 22.793 L 28.637 16.323 L 23.311 9.852 A 0.762 0.762 0 0 1 23.442 8.707 L 24.279 8.003 A 0.762 0.762 0 0 1 25.424 8.135 L 31.894 15.882 A 0.97 0.97 0 0 1 31.894 16.762 L 25.424 24.51 A 0.927 0.927 0 0 1 24.587 24.774 z"></path></g></g></svg>