<svg xmlns="http://www.w3.org/2000/svg" enable-background="new 0 0 32 32" height="32" width="32" viewBox="0 0 32 32"><title>key outline</title><g fill="#212121" class="nc-icon-wrapper"><path class="st0" d="M2.9 2.9c3.8-3.8 10-3.8 13.8 0 2.2 2.2 3.2 5.5 2.7 8.6l12.2 11.9c.3.3.4.6.4 1v6.2c0 .8-.6 1.4-1.4 1.4H25c-.4 0-.7-.2-1-.4l-2.1-2.1c-.3-.3-.4-.6-.4-1l.3-3-3 .3c-.8 0-1.4-.6-1.4-1.4l.3-3-3 .3c-.3 0-.7-.1-1-.4l-2.2-1.9c-3.1.6-6.4-.4-8.6-2.7C1 14.8 0 12.3 0 9.8s1-5 2.9-6.9zm12.7 1C12.4.7 7.1.7 3.9 3.9 2.3 5.5 1.5 7.6 1.5 9.8c0 2.1.8 4.2 2.4 5.8 2 2 4.9 2.8 7.6 2.2l.4-.1 2.7 2.4 4.8-.5-.5 4.7 4.7-.5-.6 4.7 2 2h5.5v-6.2L17.7 11.9l.1-.4c.6-2.7-.2-5.6-2.2-7.6zm-6 4c-.9 0-1.7.8-1.7 1.7 0 .9.8 1.7 1.7 1.7.9 0 1.7-.8 1.7-1.7 0-.9-.8-1.7-1.7-1.7zM6.4 9.6c0-1.8 1.4-3.2 3.2-3.2s3.2 1.4 3.2 3.2-1.4 3.2-3.2 3.2-3.2-1.4-3.2-3.2z" fill-rule="evenodd" clip-rule="evenodd"></path></g></svg>