<svg xmlns="http://www.w3.org/2000/svg" enable-background="new 0 0 32 32" height="32" width="32" viewBox="0 0 32 32"><title>key outline small</title><g fill="#212121" class="nc-icon-wrapper"><path d="M31.4 22.7L19.8 11.4c.4-3.1-.6-6.2-2.8-8.4C13.1-.9 6.8-.9 3 3c-2 1.9-3 4.4-3 7 0 2.5 1 5 3 7 2.2 2.2 5.4 3.3 8.6 2.8l1.9 1.7c.3.3.8.5 1.2.5h.1l2.4-.3-.4 2.3c0 1 .8 1.9 1.9 1.9h.1l2.4-.3-.4 2.4v.1c0 .5.2 1 .5 1.3l2 2c.4.4.8.5 1.3.5H30c1 0 1.9-.8 1.9-1.9v-6c.1-.5-.2-.9-.5-1.3zm-1.9 6.8h-4.6l-1.7-1.7.6-5-4.5.5.5-4.5-5 .6-2.6-2.3-.6.1c-2.5.6-5.1-.2-7-2-1.5-1.5-2.2-3.4-2.2-5.3S3.1 6 4.6 4.6c2.9-2.9 7.7-2.9 10.6 0 1.8 1.8 2.6 4.4 2 6.9l-.1.7 12.4 12v5.3zM9.8 6.2c-2 0-3.6 1.6-3.6 3.6s1.6 3.6 3.6 3.6 3.6-1.6 3.6-3.6-1.6-3.6-3.6-3.6zm0 4.8c-.6 0-1.2-.5-1.2-1.2 0-.6.5-1.2 1.2-1.2.6 0 1.2.5 1.2 1.2S10.5 11 9.8 11z"></path></g></svg>