<svg xmlns="http://www.w3.org/2000/svg" width="32" height="32" viewBox="0 0 32 32"><title>library</title><g fill="none" class="nc-icon-wrapper"><path fill="#212121" d="M8.174 3.119l6.183 3.091c.524.262.854.797.854 1.382V24.23a1.545 1.545 0 0 1-2.236 1.383l-6.183-3.091a1.546 1.546 0 0 1-.855-1.383V4.501a1.546 1.546 0 0 1 2.237-1.382z"></path><path fill="#212121" d="M.075 9.729a4.316 4.316 0 0 1 4.316-4.317h.086v2.45H4.39c-1.03 0-1.866.836-1.866 1.867v15.457c0 1.03.836 1.866 1.866 1.866h23.186c1.03 0 1.866-.836 1.866-1.866V9.729a1.866 1.866 0 0 0-1.866-1.867h-.41v-2.45h.41a4.316 4.316 0 0 1 4.316 4.317v15.457a4.316 4.316 0 0 1-4.316 4.316H4.391a4.316 4.316 0 0 1-4.316-4.316V9.729z"></path><path fill="#212121" d="M17.612 6.21l6.183-3.091A1.546 1.546 0 0 1 26.03 4.5v16.64c0 .585-.33 1.12-.854 1.383l-6.183 3.09a1.546 1.546 0 0 1-2.237-1.382V7.592c0-.585.331-1.12.855-1.382z"></path></g></svg>