<svg xmlns="http://www.w3.org/2000/svg" width="32" height="32" viewBox="0 0 32 32"><title>line graph</title><g fill="#212121" class="nc-icon-wrapper"><g fill="#212121"><path transform="scale(1,-1) translate(0,-32)" d="M 28.175 27 C 26.072 27 24.351 25.288 24.351 23.196 C 24.351 22.182 24.797 21.231 25.434 20.596 L 23.012 17.49 C 22.438 17.744 21.864 17.997 21.227 17.997 C 19.761 17.997 18.55 17.173 17.912 15.968 L 15.682 17.046 C 15.682 19.138 13.96 20.85 11.857 20.85 C 9.753 20.85 8.032 19.138 8.032 17.046 C 8.032 16.159 8.287 15.461 8.733 14.827 L 6.12 11.847 C 5.482 12.355 4.717 12.672 3.825 12.672 C 1.72 12.672 0 10.896 0 8.804 C 0 6.712 1.721 5 3.825 5 C 5.928 5 7.649 6.712 7.649 8.804 C 7.649 9.564 7.459 10.199 7.076 10.77 L 9.753 13.813 C 10.327 13.433 11.092 13.243 11.793 13.243 C 13.387 13.243 14.789 14.257 15.363 15.588 L 17.403 14.574 C 17.403 14.447 17.275 14.32 17.275 14.194 C 17.275 12.101 19.06 10.326 21.163 10.326 C 23.267 10.326 24.988 12.101 24.988 14.193 C 24.988 15.081 24.606 15.905 24.096 16.603 L 26.582 19.773 C 27.092 19.583 27.602 19.455 28.175 19.455 C 30.28 19.455 32 21.167 32 23.26 C 32 25.352 30.279 27 28.175 27 z M 3.825 6.395 C 2.486 6.395 1.402 7.473 1.402 8.741 A 2.415 2.415 0 0 0 3.825 11.15 C 5.1 11.15 6.183 10.072 6.183 8.74 C 6.183 7.473 5.1 6.395 3.825 6.395 z M 11.793 14.573 C 10.518 14.573 9.371 15.651 9.371 16.983 C 9.371 18.251 10.518 19.329 11.793 19.329 C 13.068 19.329 14.215 18.251 14.215 16.983 C 14.215 15.651 13.068 14.573 11.793 14.573 z M 21.163 11.72 C 19.825 11.72 18.741 12.798 18.741 14.066 A 2.415 2.415 0 0 0 21.163 16.476 C 22.438 16.476 23.522 15.398 23.522 14.066 C 23.522 12.798 22.438 11.721 21.163 11.721 z M 28.175 20.787 C 26.9 20.787 25.817 21.865 25.817 23.196 C 25.817 24.464 26.9 25.542 28.175 25.542 C 29.514 25.542 30.598 24.464 30.598 23.196 A 2.415 2.415 0 0 0 28.175 20.786 z"></path></g></g></svg>