<svg xmlns="http://www.w3.org/2000/svg" width="32" height="32" viewBox="0 0 32 32"><title>link</title><g fill="#212121" class="nc-icon-wrapper"><g fill="#212121"><path transform="scale(1,-1) translate(0,-32)" d="M 29.799 29.674 L 29.674 29.799 C 26.74 32.734 21.932 32.734 18.997 29.799 L 12.13 22.993 C 9.195 20.059 9.195 15.251 12.13 12.253 L 12.255 12.129 C 12.505 11.941 12.817 11.692 13.066 11.504 L 15.564 14.002 C 15.252 14.127 15.002 14.377 14.752 14.626 L 14.627 14.751 A 3.997 3.997 0 0 0 14.627 20.496 L 21.432 27.3 A 3.997 3.997 0 0 0 27.177 27.3 L 27.302 27.176 A 3.997 3.997 0 0 0 27.302 21.431 L 24.242 18.309 A 9.304 9.304 0 0 0 24.992 14.189 L 29.799 18.996 C 32.734 21.931 32.734 26.739 29.799 29.673 z M 19.746 19.871 C 19.496 20.059 19.184 20.308 18.935 20.496 L 16.437 17.998 C 16.749 17.873 16.999 17.623 17.249 17.374 L 17.374 17.249 A 3.997 3.997 0 0 0 17.374 11.504 L 10.568 4.698 A 3.997 3.997 0 0 0 4.823 4.698 L 4.699 4.823 A 3.997 3.997 0 0 0 4.699 10.568 L 7.758 13.69 A 9.304 9.304 0 0 0 7.008 17.81 L 2.201 13.003 C -0.734 10.068 -0.734 5.261 2.201 2.326 L 2.326 2.201 C 5.26 -0.734 10.068 -0.734 13.003 2.201 L 19.871 9.007 C 22.806 11.941 22.806 16.749 19.871 19.747 L 19.746 19.871 z"></path></g></g></svg>