<svg xmlns="http://www.w3.org/2000/svg" width="32" height="32" viewBox="0 0 32 32"><title>location</title><g fill="#212121" class="nc-icon-wrapper"><g fill="#212121"><path transform="scale(1,-1) translate(0,-32)" d="M 16 21.787 A 5.782 5.782 0 0 1 10.213 16 C 10.213 12.8 12.8 10.213 16 10.213 C 19.2 10.213 21.787 12.8 21.787 16 C 21.787 19.2 19.2 21.787 16 21.787 z M 29.004 17.43 C 28.324 23.49 23.49 28.323 17.43 29.004 V 32 H 14.57 V 29.004 C 8.51 28.324 3.677 23.49 2.996 17.43 H 0 V 14.57 H 2.996 C 3.676 8.51 8.511 3.677 14.57 2.996 V 0 H 17.43 V 2.996 C 23.49 3.676 28.323 8.511 29.004 14.57 H 32 V 17.43 H 29.004 z M 16 5.855 A 10.083 10.083 0 0 0 5.855 16 A 10.083 10.083 0 0 0 16 26.145 A 10.083 10.083 0 0 0 26.145 16 A 10.083 10.083 0 0 0 16 5.855 z"></path></g></g></svg>