<svg xmlns="http://www.w3.org/2000/svg" width="32" height="32" viewBox="0 0 32 32"><title>marketplace</title><g fill="#212121" class="nc-icon-wrapper"><g fill="#212121"><path transform="scale(1,-1) translate(0,-32)" d="M 2.6 29.4 C 2.9 30.5 4 31.2 5.1 31.2 H 26.3 C 27.4 31.2 28.4 30.5 28.8 29.5 L 31.4 23 C 31.7 22.1 31.6 21 30.9 20.3 C 30.4 19.8 29.8 19.4 29.2 19 V 3.8 C 29.2 2 27.8 0.6 26 0.6 H 6 C 4.2 0.6 2.8 2 2.8 3.8 V 19 C 2.1 19.3 1.5 19.8 1 20.3 C 0.2 21 0.1 22.1 0.4 22.9 L 2.6 29.4 z M 5.1 28.8 C 5 28.8 4.9 28.7 4.9 28.6 L 2.7 22.1 V 22 C 3.2 21.5 3.8 21.1 4.5 21 C 5.1 20.9 5.8 20.9 6.6 21.5 C 7.8 22.3 9.5 22.4 10.7 21.6 C 11.7 21 12.8 20.7 14 21.5 C 15.2 22.3 16.9 22.4 18.1 21.6 C 19.1 21 20.2 20.7 21.4 21.5 C 22.6 22.3 24.3 22.4 25.5 21.6 C 26.1 21.2 26.7 21 27.3 21 C 27.9 21 28.6 21.2 29.4 22.1 V 22.2 L 26.8 28.7 C 26.8 28.8 26.7 28.9 26.6 28.9 C 26.4 28.8 5.1 28.8 5.1 28.8 z M 5.2 18.5 V 3.8 C 5.2 3.4 5.6 3 6 3 H 11.5 V 12.4 H 20.3 V 3 H 26 C 26.4 3 26.8 3.3 26.8 3.8 V 18.5 C 25.7 18.6 24.7 19 24 19.5 C 23.6 19.7 23.1 19.7 22.7 19.5 C 20.4 17.9 18.2 18.5 16.7 19.5 C 16.3 19.7 15.8 19.7 15.4 19.5 C 13.1 17.9 10.9 18.5 9.4 19.5 C 9 19.7 8.5 19.7 8.1 19.5 C 7.1 18.8 6.1 18.5 5.2 18.5 z"></path></g></g></svg>