<svg xmlns="http://www.w3.org/2000/svg" enable-background="new 0 0 32 32" height="32" width="32" viewBox="0 0 32 32"><title>marketplace</title><g fill="#212121" class="nc-icon-wrapper"><path class="st0" d="M2.6 2.6C2.9 1.5 4 .8 5.1.8h21.2c1.1 0 2.1.7 2.5 1.7L31.4 9c.3.9.2 2-.5 2.7-.5.5-1.1.9-1.7 1.3v15.2c0 1.8-1.4 3.2-3.2 3.2H6c-1.8 0-3.2-1.4-3.2-3.2V13c-.7-.3-1.3-.8-1.8-1.3C.2 11 .1 9.9.4 9.1l2.2-6.5zm2.5.6c-.1 0-.2.1-.2.2L2.7 9.9v.1c.5.5 1.1.9 1.8 1 .6.1 1.3.1 2.1-.5 1.2-.8 2.9-.9 4.1-.1 1 .6 2.1.9 3.3.1 1.2-.8 2.9-.9 4.1-.1 1 .6 2.1.9 3.3.1 1.2-.8 2.9-.9 4.1-.1.6.4 1.2.6 1.8.6.6 0 1.3-.2 2.1-1.1v-.1l-2.6-6.5c0-.1-.1-.2-.2-.2-.2.1-21.5.1-21.5.1zm.1 10.3v14.7c0 .4.4.8.8.8h5.5v-9.4h8.8V29H26c.4 0 .8-.3.8-.8V13.5c-1.1-.1-2.1-.5-2.8-1-.4-.2-.9-.2-1.3 0-2.3 1.6-4.5 1-6 0-.4-.2-.9-.2-1.3 0-2.3 1.6-4.5 1-6 0-.4-.2-.9-.2-1.3 0-1 .7-2 1-2.9 1z" fill-rule="evenodd" clip-rule="evenodd"></path></g></svg>