<svg xmlns="http://www.w3.org/2000/svg" width="32" height="32" viewBox="0 0 32 32"><title>money</title><g fill="#212121" class="nc-icon-wrapper"><g fill="#212121"><path transform="scale(1,-1) translate(0,-32)" d="M 16.742 17.956 C 12.707 19.004 11.409 20.089 11.409 21.778 C 11.409 23.716 13.204 25.067 16.209 25.067 C 19.373 25.067 20.547 23.556 20.653 21.333 H 24.583 C 24.458 24.391 22.591 27.2 18.876 28.107 V 32 H 13.542 V 28.16 C 10.093 27.413 7.32 25.173 7.32 21.742 C 7.32 17.636 10.716 15.592 15.676 14.4 C 20.12 13.333 21.009 11.769 21.009 10.116 C 21.009 8.889 20.138 6.933 16.209 6.933 C 12.547 6.933 11.107 8.569 10.911 10.667 H 7 C 7.213 6.773 10.129 4.587 13.542 3.857 V 0 H 18.876 V 3.822 C 22.342 4.48 25.098 6.489 25.098 10.133 C 25.098 15.183 20.778 16.907 16.742 17.956 z"></path></g></g></svg>