<svg xmlns="http://www.w3.org/2000/svg" width="32" height="32" viewBox="0 0 32 32"><title>new app</title><g fill="#212121" class="nc-icon-wrapper"><g fill="#212121"><path transform="scale(1,-1) translate(0,-32)" d="M 23.333000000000087 17.332999999999974 C 18.55500000000009 17.332999999999974 14.667000000000087 13.444999999999975 14.667000000000087 8.666999999999975 C 14.667000000000087 3.887999999999975 18.55500000000009 -2.5e-14 23.333000000000087 -2.5e-14 C 28.11300000000009 -2.5e-14 32.000000000000085 3.887999999999975 32.000000000000085 8.666999999999975 C 32.000000000000085 13.444999999999975 28.112000000000087 17.332999999999974 23.333000000000087 17.332999999999974 z M 26.97100000000009 7.999999999999975 H 24.001000000000086 V 5.029999999999975 A 0.667 0.667 0 0 0 22.667000000000087 5.029999999999975 V 8 H 19.697000000000088 A 0.667 0.667 0 0 0 19.697000000000088 9.333 H 22.667000000000087 V 12.303 A 0.667 0.667 0 0 0 24.00000000000009 12.303 V 9.333 H 26.970000000000088 A 0.667 0.667 0 0 0 26.970000000000088 8 z M 28 28.667000000000037 A 3.337 3.337 0 0 1 24.667 32.000000000000036 H 3.333 A 3.336 3.336 0 0 1 0 28.667000000000037 V 26.667000000000037 H 28 V 28.667000000000037 z M 4.667 28.000000000000025 A 0.666 0.666 0 1 0 4.665 29.332000000000036 A 0.666 0.666 0 0 0 4.667 28.000000000000025 z M 7.333 28.000000000000025 A 0.666 0.666 0 1 0 7.333 29.332000000000036 A 0.666 0.666 0 0 0 7.333 28.000000000000025 z M 10 28.000000000000025 A 0.666 0.666 0 1 0 9.999 29.332000000000036 A 0.666 0.666 0 0 0 10 28 z M 28 17.505 V 25.333 H 0 V 12.667 A 3.336 3.336 0 0 1 3.333 9.333 H 13.367 C 13.844 16.528 21.603 20.893 28 17.505 z"></path></g></g></svg>