<?xml version="1.0" encoding="UTF-8"?>
<svg width="35px" height="35px" viewBox="0 0 35 35" version="1.1" xmlns="http://www.w3.org/2000/svg" xmlns:xlink="http://www.w3.org/1999/xlink">
    <defs></defs>
    <g id="Page-1" stroke="none" stroke-width="1" fill="none" fill-rule="evenodd">
        <g id="new-app" fill-rule="nonzero" fill="#5B6882">
            <g id="Page-1">
                <g id="Applications-&gt;-New-App-&gt;-General">
                    <g id="##new-app">
                        <g id="app-add">
                            <g id="Group">
                                <g id="Filled_Icon">
                                    <g id="Group">
                                        <path d="M25.5208333,16.0416667 C20.2941667,16.0416667 16.0416667,20.2941667 16.0416667,25.5208333 C16.0416667,30.7475 20.2941667,35 25.5208333,35 C30.7475,35 35,30.7475 35,25.5208333 C35,20.2941667 30.7475,16.0416667 25.5208333,16.0416667 Z M29.4991667,26.25 L26.25,26.25 L26.25,29.4991667 C26.25,29.9016667 25.9233333,30.2283333 25.5208333,30.2283333 C25.1183333,30.2283333 24.7916667,29.9016667 24.7916667,29.4991667 L24.7916667,26.25 L21.5439583,26.25 C21.1414583,26.25 20.8147917,25.9233333 20.8147917,25.5208333 C20.8147917,25.1183333 21.1414583,24.7916667 21.5439583,24.7916667 L24.7916667,24.7916667 L24.7916667,21.5439583 C24.7916667,21.1414583 25.1183333,20.8147917 25.5208333,20.8147917 C25.9233333,20.8147917 26.25,21.1414583 26.25,21.5439583 L26.25,24.7916667 L29.4991667,24.7916667 C29.9016667,24.7916667 30.2283333,25.1183333 30.2283333,25.5208333 C30.2283333,25.9233333 29.9016667,26.25 29.4991667,26.25 Z" id="Shape"></path>
                                        <g id="Shape">
                                            <path d="M30.625,3.64583333 C30.625,1.63479167 28.98875,0 26.9791667,0 L3.64583333,0 C1.63479167,0 0,1.63479167 0,3.64583333 L0,5.83333333 L30.625,5.83333333 L30.625,3.64583333 Z M5.10416667,4.375 C4.70020833,4.375 4.375,4.04833333 4.375,3.64583333 C4.375,3.24333333 4.70020833,2.91666667 5.10416667,2.91666667 C5.50520833,2.91666667 5.83333333,3.24333333 5.83333333,3.64583333 C5.83333333,4.04833333 5.50520833,4.375 5.10416667,4.375 Z M8.02083333,4.375 C7.616875,4.375 7.29166667,4.04833333 7.29166667,3.64583333 C7.29166667,3.24333333 7.616875,2.91666667 8.02083333,2.91666667 C8.421875,2.91666667 8.75,3.24333333 8.75,3.64583333 C8.75,4.04833333 8.421875,4.375 8.02083333,4.375 Z M10.9375,4.375 C10.5335417,4.375 10.2083333,4.04833333 10.2083333,3.64583333 C10.2083333,3.24333333 10.5335417,2.91666667 10.9375,2.91666667 C11.3385417,2.91666667 11.6666667,3.24333333 11.6666667,3.64583333 C11.6666667,4.04833333 11.3385417,4.375 10.9375,4.375 Z"></path>
                                            <path d="M30.625,15.8535417 L30.625,7.29166667 L0,7.29166667 L0,21.1458333 C0,23.156875 1.63479167,24.7916667 3.64583333,24.7916667 L14.6197917,24.7916667 C15.141875,16.9225 23.6279167,12.149375 30.625,15.8535417 Z"></path>
                                        </g>
                                    </g>
                                </g>
                            </g>
                        </g>
                    </g>
                </g>
            </g>
        </g>
    </g>
</svg>