<svg enable-background="new 0 0 32 32" viewBox="0 0 32 32" xmlns="http://www.w3.org/2000/svg"><path d="m31.2 22.9c-1.8 0-3.6-.7-4.8-2-1.3-1.3-2-3-2-4.8 0-.2-.1-.4-.2-.5s-.3-.2-.5-.2-.4.1-.5.2-.2.3-.2.5c0 1.8-.7 3.6-2 4.8-1.3 1.3-3 2-4.8 2-.2 0-.4.1-.5.2s-.2.3-.2.5.1.4.2.5.3.2.5.2c1.8 0 3.6.7 4.8 2 1.3 1.3 2 3 2 4.8 0 .2.1.4.2.5s.3.2.5.2.4-.1.5-.2.2-.3.2-.5c0-1.8.7-3.6 2-4.8 1.3-1.3 3-2 4.8-2 .2 0 .4-.1.5-.2s.2-.3.2-.5-.1-.4-.2-.5c-.1-.2-.3-.2-.5-.2zm-9.1-16.8c1 0 2 .4 2.7 1.1s1.1 1.7 1.1 2.7c0 .2.1.4.2.5s.3.2.5.2.4-.1.5-.2.2-.3.2-.5c0-1 .4-2 1.1-2.7s1.7-1.1 2.7-1.1c.2 0 .4-.1.5-.2.3-.2.4-.4.4-.6s-.1-.4-.2-.5-.3-.2-.5-.2c-1 0-2-.4-2.7-1.1s-1.1-1.7-1.1-2.7c0-.2-.1-.4-.2-.5-.2-.2-.4-.3-.6-.3s-.4.1-.5.2-.2.3-.2.5c0 1-.4 2-1.1 2.7s-1.7 1.1-2.7 1.1c-.2 0-.4.1-.5.2s-.2.3-.2.5.1.4.2.5c0 .3.2.4.4.4zm-12.2 19.8c-1 0-2-.4-2.7-1.1s-1.1-1.7-1.1-2.7c0-.2-.1-.4-.2-.5s-.3-.2-.5-.2-.4.1-.5.2-.2.3-.2.5c0 1-.4 2-1.1 2.7s-1.7 1.1-2.7 1.1c-.2 0-.4.1-.5.2s-.4.4-.4.6.1.4.2.5.3.2.5.2c1 0 2 .4 2.7 1.1s1.1 1.7 1.1 2.7c0 .2.1.4.2.5.2.2.4.3.6.3s.4-.1.5-.2.2-.3.2-.5c0-1 .4-2 1.1-2.7s1.7-1.1 2.7-1.1c.2 0 .4-.1.5-.2s.2-.3.2-.5-.1-.4-.2-.5c0-.3-.2-.4-.4-.4zm6.6-17c.1-.1.2-.3.2-.5s0-.4-.2-.6-.3-.2-.5-.2c-1.8 0-3.6-.7-4.8-2-1.3-1.3-2-3-2-4.8 0-.2-.1-.4-.2-.5s-.4-.3-.6-.3-.4.1-.6.2-.2.4-.2.6c0 1.8-.7 3.6-2 4.8-1.3 1.3-3 2-4.8 2-.2 0-.4.1-.5.2s-.3.4-.3.6.1.4.2.5.3.2.5.2c1.8 0 3.6.7 4.8 2 1.3 1.3 2 3 2 4.8 0 .2.1.4.2.5s.3.2.5.2.4-.1.5-.2.2-.3.2-.5c0-1.8.7-3.6 2-4.8 1.3-1.3 3-2 4.8-2 .5 0 .7 0 .8-.2z"/></svg>