<?xml version="1.0" encoding="utf-8"?>
<!-- Generator: Adobe Illustrator 26.1.0, SVG Export Plug-In . SVG Version: 6.00 Build 0)  -->
<svg version="1.1" id="Layer_1" xmlns="http://www.w3.org/2000/svg" xmlns:xlink="http://www.w3.org/1999/xlink" x="0px" y="0px"
	 viewBox="0 0 32 32" style="enable-background:new 0 0 32 32;" xml:space="preserve">
<style type="text/css">
	.st0{fill-rule:evenodd;clip-rule:evenodd;fill:#212121;}
</style>
<path class="st0" d="M29.6,7.7L16.4,0.1c-0.3-0.1-0.6-0.1-0.8,0L2.4,7.8C2.1,7.9,2,8.1,2,8.4v15.2c0,0.3,0.1,0.5,0.4,0.7l13.2,7.5
	c0.1,0.1,0.3,0.1,0.5,0.1c0.1,0,0.2-0.1,0.3-0.1l13.2-7.6c0.3-0.1,0.4-0.3,0.4-0.6V8.3C30,8.1,29.8,7.8,29.6,7.7z M16,1.6l12,6.9
	l-5.4,3.1L10.9,4.5L16,1.6z M15.2,30L3.5,23.2V10.4l11.7,6.8V30z M15.7,15.8l-12.1-7l5.9-3.4c0.1,0.1,0.1,0.2,0.3,0.3l11.4,6.9
	L15.7,15.8z M28.4,23.2L16.7,30V16.8L28.4,10V23.2z"/>
</svg>
