<?xml version="1.0" encoding="UTF-8"?>
<svg width="25px" height="25px" viewBox="0 0 25 25" version="1.1" xmlns="http://www.w3.org/2000/svg" xmlns:xlink="http://www.w3.org/1999/xlink">
    <defs></defs>
    <g id="Page-1" stroke="none" stroke-width="1" fill="none" fill-rule="evenodd" opacity="0.400000006">
        <g id="Login-B" transform="translate(-899.000000, -369.000000)" fill-rule="nonzero" fill="#F0F1F6">
            <g id="login-content" transform="translate(349.500000, 280.500000)">
                <g id="Group-3" transform="translate(550.000000, 65.000000)">
                    <g id="user-icon" transform="translate(0.000000, 24.000000)">
                        <path d="M12,0 C5.37826848,0 0,5.27281224 0,11.7647059 C0,15.5198776 1.80619666,18.8598936 4.605,21.0147059 C4.7419657,21.1201562 4.88334192,21.2238824 5.025,21.3235294 C5.06558352,21.3526696 5.10384576,21.3830574 5.145,21.4117647 C5.20484496,21.4527515 5.26436544,21.4894739 5.325,21.5294118 C5.45313216,21.615128 5.58185424,21.6979826 5.715,21.7794118 C5.74583664,21.7980527 5.77397952,21.8198607 5.805,21.8382353 C5.86056192,21.8715167 5.91362352,21.908664 5.97,21.9411765 C6.0715872,21.9991779 6.18155088,22.0478085 6.285,22.1029412 C6.45274272,22.1933144 6.62099568,22.2842391 6.795,22.3676471 C6.97213392,22.4525548 7.1518752,22.5256452 7.335,22.6029412 C8.83511904,23.236136 10.5228134,23.6176471 12.27,23.6176471 C13.1810885,23.6176471 14.1124613,23.4365421 15,23.1617647 C16.7990597,22.7073835 18.4306181,21.8418362 19.8,20.6911765 C19.8567336,20.6473313 19.9002643,20.6149901 19.95,20.5735294 C19.9793338,20.5480748 20.010923,20.5257304 20.04,20.5 C20.0512574,20.4900701 20.0591741,20.4803854 20.07,20.4705882 C20.1278165,20.419064 20.1782203,20.3614296 20.235,20.3088235 C22.550723,18.1633016 24,15.1309864 24,11.7647059 C24,5.27281224 18.6217315,0 12,0 Z M12,0.941176471 C18.1029091,0.941176471 23.04,5.78146165 23.04,11.7647059 C23.04,14.7339266 21.8308166,17.4279464 19.86,19.3823529 C18.9254429,18.6902127 17.8091587,18.3149191 16.86,17.9411765 C15.8198083,17.5315887 15.0792667,17.1282856 14.85,16.5882353 C14.7990034,15.9759901 14.8017648,15.4924344 14.805,14.9117647 C14.8674106,14.8451864 14.9567549,14.7992353 15.015,14.7205882 C15.1465469,14.5429638 15.2727456,14.3244621 15.39,14.0882353 C15.5945304,13.6761769 15.7418827,13.1819722 15.825,12.6911765 C15.975911,12.6148188 16.1359968,12.5962042 16.26,12.4411765 C16.4915506,12.1516932 16.6542864,11.7401864 16.725,11.1617647 C16.7882702,10.6468748 16.6130621,10.3070993 16.395,10.0441176 C16.6293557,9.29787718 16.9287053,8.09116141 16.83,6.85294118 C16.7761262,6.17711718 16.5988685,5.50222918 16.185,4.94117647 C15.805751,4.42705496 15.1908859,4.05124894 14.415,3.89705882 C13.9111526,3.25615275 13.0024114,3.01470588 11.955,3.01470588 L11.94,3.01470588 C9.69757824,3.05517882 8.26579392,3.94389482 7.65,5.32352941 C7.06353744,6.63744988 7.19489712,8.29790494 7.62,10.0147059 C7.39089888,10.2769746 7.21015824,10.6303718 7.275,11.1617647 C7.34596848,11.7400899 7.50856464,12.1517285 7.74,12.4411765 C7.86711312,12.6001525 8.03501472,12.6148461 8.19,12.6911765 C8.27508288,13.1833313 8.41494816,13.6770979 8.625,14.0882353 C8.745732,14.3245459 8.881032,14.5436264 9.015,14.7205882 C9.07431744,14.7989421 9.16213104,14.8457751 9.225,14.9117647 C9.228168,15.4922866 9.2310432,15.9758376 9.18,16.5882353 C8.9516088,17.1255755 8.2092192,17.5184 7.17,17.9264706 C6.21246768,18.3024654 5.08294176,18.6844805 4.14,19.3823529 C2.1691836,17.4279464 0.96,14.7339266 0.96,11.7647059 C0.96,5.78146165 5.89709088,0.941176471 12,0.941176471 Z M11.955,3.95588235 C11.9610432,3.95588235 11.9639856,3.95586089 11.97,3.95588235 C12.9364176,3.95933176 13.5618005,4.23726649 13.74,4.54411765 L13.86,4.73529412 L14.085,4.76470588 C14.752657,4.85566824 15.1351085,5.11942071 15.405,5.48529412 C15.6748915,5.85116753 15.8249938,6.36188282 15.87,6.92647059 C15.960013,8.05564565 15.6287952,9.369656 15.42,9.98529412 L15.3,10.3529412 L15.63,10.5441176 C15.6093024,10.5318024 15.8130293,10.6679633 15.765,11.0588235 C15.7085136,11.5208725 15.5963294,11.7597186 15.51,11.8676471 C15.4236706,11.9755755 15.3786691,11.9702936 15.375,11.9705882 L14.97,12 L14.925,12.3823529 C14.8805088,12.7895506 14.7135317,13.2865713 14.52,13.6764706 C14.4232344,13.8714202 14.3230382,14.0428889 14.235,14.1617647 C14.1469618,14.2806405 14.0539934,14.3471939 14.1,14.3235294 L13.845,14.4558824 L13.845,14.7352941 C13.845,15.4165435 13.8171168,15.9757633 13.89,16.7647059 L13.89,16.8235294 L13.92,16.8823529 C14.3154173,17.9257341 15.4069891,18.3784376 16.5,18.8088235 C17.3968003,19.1619492 18.3013171,19.537032 19.05,20.0294118 C18.8926013,20.1531021 18.8346994,20.2258249 18.6,20.3823529 C18.1257998,20.6986113 17.5057824,21.0691007 16.815,21.4117647 C16.1416426,21.7457845 15.3986698,22.0505398 14.64,22.2794118 C14.620367,22.2853346 14.5996493,22.2883031 14.58,22.2941176 C13.7515944,22.4883722 12.8896334,22.5882353 12,22.5882353 C10.9485437,22.5882353 9.93295968,22.4449115 8.97,22.1764706 C7.4278416,21.708904 6.03500544,20.9470146 4.965,20.0294118 C5.71904592,19.537328 6.62977008,19.1623172 7.53,18.8088235 C8.622804,18.379712 9.71517552,17.9229642 10.11,16.8823529 L10.125,16.8235294 L10.14,16.7647059 C10.2128664,15.9759553 10.185,15.4167562 10.185,14.7352941 L10.185,14.4558824 L9.93,14.3235294 C9.9737856,14.3459906 9.870552,14.2813788 9.78,14.1617647 C9.689448,14.0421529 9.579588,13.8713953 9.48,13.6764706 C9.28082448,13.2866212 9.11885184,12.7853064 9.075,12.3823529 L9.03,12 L8.625,11.9705882 C8.621352,11.9702955 8.57632464,11.9756094 8.49,11.8676471 C8.40367536,11.7596833 8.29171152,11.5209689 8.235,11.0588235 C8.18729472,10.6678678 8.39070096,10.5317642 8.37,10.5441176 L8.685,10.3529412 L8.595,10.0147059 C8.1431016,8.30966165 8.06491392,6.75907153 8.535,5.70588235 C9.00376464,4.65565445 9.95907072,3.99556551 11.955,3.95588235 Z" id="Shape"></path>
                    </g>
                </g>
            </g>
        </g>
    </g>
</svg>