<svg xmlns="http://www.w3.org/2000/svg" width="32" height="32" viewBox="0 0 32 32"><title>radio button</title><g fill="#212121" class="nc-icon-wrapper"><g fill="#212121"><path transform="scale(1,-1) translate(0,-32)" d="M 16 0 C 7.179 0 0 7.177 0 16 S 7.179 32 16 32 S 32 24.823 32 16 S 24.821 0 16 0 z M 16 28.444 C 9.138 28.444 3.556 22.862 3.556 16 C 3.556 9.138 9.138 3.555 16 3.555 C 22.862 3.555 28.445 9.138 28.445 16 S 22.862 28.444 16 28.444 z M 23.461000000000013 16.005 A 7.467 7.467 0 1 0 8.528000000000013 16.005 A 7.467 7.467 0 0 0 23.461000000000013 16.005 z"></path></g></g></svg>