<svg xmlns="http://www.w3.org/2000/svg" width="32" height="32" viewBox="0 0 32 32"><title>reference tree</title><g fill="#212121" class="nc-icon-wrapper"><g fill="#212121"><path transform="scale(1,-1) translate(0,-32)" d="M 10 8 H 4 V 20 H 10 V 24 H 4 V 30 A 2 2 0 0 1 0 30 V 6 A 2 2 0 0 1 2 4 H 10 V 8 z M 30 12 H 14 A 2 2 0 0 1 12 10 V 2 A 2 2 0 0 1 14 0 H 30 A 2 2 0 0 1 32 2 V 10 A 2 2 0 0 1 30 12 z M 14 28 H 30 A 2 2 0 0 0 32 26 V 18 A 2 2 0 0 0 30 16 H 14 A 2 2 0 0 0 12 18 V 26 A 2 2 0 0 0 14 28 z"></path></g></g></svg>