<svg xmlns="http://www.w3.org/2000/svg" width="32" height="32" viewBox="0 0 32 32"><title>reference single</title><g fill="#212121" class="nc-icon-wrapper"><g fill="#212121"><path transform="scale(1,-1) translate(0,-32)" d="M 30.4000000000001 32 L 26.400000000000087 28.012 C 23.600000000000087 30.417 19.98000000000009 31.9 16.0000000000001 31.9 C 7.182000000000087 31.9 8.75e-14 24.74 8.75e-14 15.95 S 7.181999999999787 0 16 0 S 32 7.16 32 15.95 H 28.8 C 28.8 8.883 23.09 3.19 16 3.19 C 8.91 3.19 3.2 8.883 3.2 15.95 S 8.91 28.71 16 28.71 C 19.11 28.71 21.942 27.6 24.15 25.77 L 20.7 22.33 H 30.4 V 32 z M 8.5329999999999 17.067 H 23.4669999999999 V 14.293 H 8.5329999999999 V 17.067 z"></path></g></g></svg>