<svg xmlns="http://www.w3.org/2000/svg" width="32" height="32" viewBox="0 0 32 32"><title>remove users</title><g fill="#212121" class="nc-icon-wrapper"><g fill="#212121"><path transform="scale(1,-1) translate(0,-32)" d="M 15.89 26 C 13.4 26 11.497 24.096 11.497 21.606 S 13.4 17.213 15.89 17.213 C 18.38 17.213 20.284 19.117 20.284 21.606 C 20.284 24.096 18.38 26 15.89 26 z M 25.41 26 A 3.661 3.661 0 1 1 25.41 18.677 A 3.661 3.661 0 0 1 25.41 26 z M 2.71 18.677 H 0 V 15.748 H 8.348 V 18.678 H 2.709 z M 25.41 15.748 C 23.652 15.748 22.316 15.291 21.29 14.558 C 24.659 12.948 26.005 10.183 26.005 9.89 V 9.753 H 32 V 11.629 C 32 11.776 30.39 15.749 25.41 15.749 z M 15.89 14.284 C 9.153 14.284 7.103 9.433 7.103 9.433 V 6.961 H 24.677 V 9.433 S 22.627 14.283 15.89 14.283 z"></path></g></g></svg>