<svg height="32" width="32" xmlns="http://www.w3.org/2000/svg" viewBox="0 0 32 32"><title>remove</title><g fill="none" class="nc-icon-wrapper"><path clip-rule="evenodd" d="M23.531 8.469a1.6 1.6 0 0 1 0 2.262L18.263 16l5.725 5.725a1.6 1.6 0 0 1-2.263 2.263L16 18.263l-5.269 5.268A1.6 1.6 0 0 1 8.47 21.27L13.737 16l-5.726-5.726a1.6 1.6 0 1 1 2.263-2.263L16 13.737l5.269-5.268a1.6 1.6 0 0 1 2.262 0zM16 28.8c7.07 0 12.8-5.73 12.8-12.8S23.07 3.2 16 3.2 3.2 8.93 3.2 16 8.93 28.8 16 28.8zm0 3.2c8.837 0 16-7.163 16-16S24.837 0 16 0 0 7.163 0 16s7.163 16 16 16z" fill="#212121" fill-rule="evenodd"></path></g></svg>