<svg height="32" width="32" xmlns="http://www.w3.org/2000/svg" viewBox="0 0 32 32"><title>replace</title><g fill="none" class="nc-icon-wrapper"><path d="M9.6 1a3.195 3.195 0 0 0-3.2 3.191v11.17a3.195 3.195 0 0 0 3.2 3.19h4.8v4.787c0 1.744 1.451 3.191 3.2 3.191h11.2c1.749 0 3.2-1.447 3.2-3.191V12.169c0-1.744-1.451-3.191-3.2-3.191H24V4.19A3.195 3.195 0 0 0 20.8 1zM24 12.169h4.8v11.169H17.6v-4.787h3.2c1.768 0 3.2-1.428 3.2-3.19zM0 18.551v6.383c0 1.744 1.451 3.19 3.2 3.19H8v3.192l4.8-4.787L8 21.742v3.191H3.2v-6.382z" fill="#212121"></path></g></svg>