<svg xmlns="http://www.w3.org/2000/svg" width="32" height="32" viewBox="0 0 32 32"><title>rotate</title><g fill="#212121" class="nc-icon-wrapper"><g fill="#212121"><path transform="scale(1,-1) translate(0,-32)" d="M 19 24 H 27 V 32 L 19 24 z M 16 4 C 9.375 4 4 9.375 4 16 S 9.375 28 16 28 C 18.438 28 20.75 27.25 22.625 26 L 24.875 29.313 C 22.312 31 19.312 32 16 32 C 7.187 32 0 24.812 0 16 C 0 7.187 7.188 0 16 0 C 24.813 0 32 7.188 32 16 H 28 C 28 9.375 22.625 4 16 4 z M 16 22 C 12.687 22 10 19.312 10 16 C 10 12.687 12.688 10 16 10 C 19.313 10 22 12.688 22 16 C 22 19.313 19.312 22 16 22 z M 16 12 C 13.812 12 12 13.813 12 16 C 12 18.188 13.813 20 16 20 C 18.188 20 20 18.187 20 16 C 20 13.812 18.187 12 16 12 z"></path></g></g></svg>