<svg xmlns="http://www.w3.org/2000/svg" width="32" height="32" viewBox="0 0 32 32"><title>runner</title><g fill="#212121" class="nc-icon-wrapper"><g fill="#212121"><path transform="scale(1,-1) translate(0,-32)" d="M 23.4 25.6 C 24.3 25.6 25.1 25.9 25.7 26.5 C 26.3 27.1 26.7 27.9 26.7 28.8 S 26.4 30.5 25.7 31.1 C 25.1 31.7 24.3 32 23.4 32 C 22.5 32 21.7 31.7 21.1 31.1 C 20.5 30.5 20.1 29.7 20.1 28.8 S 20.4 27.1 21.1 26.5 C 21.7 25.9 22.5 25.6 23.4 25.6 z M 24.7 19.2 L 21.3 24 C 21.1 24.4 20.8 24.7 20.4 25 C 20 25.3 19.6 25.4 19.2 25.5 L 13 27.3 L 6 23.8 L 7.5 21 L 13.3 23.9 L 15.3 23.3 L 12.3 17.6 C 12 17.1 11.9 16.6 11.9 16 C 11.9 15.5 12 15.1 12.2 14.6 C 12.4 14.2 12.7 13.8 13.1 13.5 L 18.2 8.9 L 15.2 1.1 L 18.3 0 L 21.900000000000013 9.5 L 18.3 15.1 L 20.5 19.3 L 23 16 H 30 V 19.2 H 24.7 z M 10 11.2 H 2 V 8 H 11.5 L 13.4 10 L 11 12.2 L 10 11.2 z"></path></g></g></svg>