<svg height="32" width="32" xmlns="http://www.w3.org/2000/svg" viewBox="0 0 32 32"><title>save outline large</title><g fill="none" class="nc-icon-wrapper"><path clip-rule="evenodd" d="M16.81 0v22.193l4.961-4.96.53-.53 1.061 1.06-.53.53-6.241 6.241-.53.53-.53-.53-6.242-6.24-.53-.531 1.06-1.06.531.53 4.96 4.96V0zM6.44 11.812a1.75 1.75 0 0 0-1.698 1.326L1.082 27.78a1.75 1.75 0 0 0 1.697 2.174h26.563a1.75 1.75 0 0 0 1.698-2.174l-3.66-14.642a1.75 1.75 0 0 0-1.699-1.326h-5.17v1.5h5.17a.25.25 0 0 1 .243.19l3.66 14.642a.25.25 0 0 1-.242.31H2.779a.25.25 0 0 1-.242-.31L6.197 13.5a.25.25 0 0 1 .243-.189h5.17v-1.5h-.75z" fill="#212121" fill-rule="evenodd"></path></g></svg>