<svg xmlns="http://www.w3.org/2000/svg" enable-background="new 0 0 32 32" height="32" width="32" viewBox="0 0 32 32"><title>save outline</title><g fill="#212121" class="nc-icon-wrapper"><path class="st0" d="M17.2 0v21.5l4.2-4.2.9-.9 1.7 1.7-.9.9-6.2 6.2-.9 1-.9-.9-6.2-6.2-.9-.8 1.7-1.7.9.9 4.1 4.1V.1l2.5-.1zM6.4 11.8c-1 0-1.9.7-2.2 1.7L.6 28.2c-.4 1.4.7 2.8 2.2 2.8h26.6c1.4 0 2.5-1.4 2.2-2.8l-3.7-14.6c-.2-1-1.1-1.7-2.2-1.7H20v2.4h5.4L29 28.5H3l3.5-14.2H12v-2.4h-1.2l-4.4-.1z" fill-rule="evenodd" clip-rule="evenodd"></path></g></svg>