<svg xmlns="http://www.w3.org/2000/svg" width="32" height="32" viewBox="0 0 32 32"><title>save</title><g fill="#212121" class="nc-icon-wrapper"><g fill="#212121"><path transform="scale(1,-1) translate(0,-32)" d="M 17.27 30.358 H 21.757 V 21.046 H 17.27 V 30.358 z M 31.661 29.428 L 29.461 31.628 C 29.291 31.882 28.952 31.967 28.698 31.967 H 24.72 C 24.635 31.967 24.466 31.967 24.381 31.882 C 24.296 31.712 24.211 31.628 24.211 31.544 V 20.538 C 24.211 19.946 23.788 19.522 23.196 19.522 H 8.296 C 7.704 19.607 7.28 20.03 7.28 20.538 V 31.544 C 7.196 31.628 7.196 31.713 7.111 31.797 C 6.941 31.967 6.772 32.051 6.603 31.967 H 1.016 C 0.423 31.967 0 31.544 0 30.95 V 1.151 C 0 0.558 0.423 0.135 1.016 0.135 H 4.317 V 14.443 C 4.317 14.866 4.657 15.289 5.079 15.374 H 26.751 A 0.94 0.94 0 0 0 27.682 14.443 V 0.136 H 30.984 C 31.577 0.136 32 0.559 32 1.152 V 28.665 C 32 28.919 31.915 29.173 31.661 29.427 z"></path></g></g></svg>