<svg xmlns="http://www.w3.org/2000/svg" viewBox="0 0 24 24" enable-background="new 0 0 24 24" width="24" height="24">
    <path style="text-indent:0;text-align:start;line-height:normal;text-transform:none;block-progression:tb;-inkscape-font-specification:Bitstream Vera Sans" d="M 5 3 C 4.4777778 3 3.9395305 3.1854695 3.5625 3.5625 C 3.1854695 3.9395305 3 4.4777778 3 5 L 3 19 C 3 19.522222 3.1854695 20.060469 3.5625 20.4375 C 3.9395305 20.814531 4.4777778 21 5 21 L 19 21 C 19.522222 21 20.060469 20.814531 20.4375 20.4375 C 20.814531 20.060469 21 19.522222 21 19 L 21 5 C 21 4.4777778 20.814531 3.9395305 20.4375 3.5625 C 20.060469 3.1854695 19.522222 3 19 3 L 5 3 z M 5 5 L 19 5 L 19 19 L 5 19 L 5 5 z M 8 7 C 7.4 7 7 7.4 7 8 L 7 10 C 7 10.6 7.4 11 8 11 L 10 11 C 10.6 11 11 10.6 11 10 L 11 8 C 11 7.4 10.6 7 10 7 L 8 7 z M 14 7 C 13.4 7 13 7.4 13 8 L 13 10 C 13 10.6 13.4 11 14 11 L 16 11 C 16.6 11 17 10.6 17 10 L 17 8 C 17 7.4 16.6 7 16 7 L 14 7 z M 8 13 C 7.4 13 7 13.4 7 14 L 7 16 C 7 16.6 7.4 17 8 17 L 10 17 C 10.6 17 11 16.6 11 16 L 11 14 C 11 13.4 10.6 13 10 13 L 8 13 z M 14 13 C 13.4 13 13 13.4 13 14 L 13 16 C 13 16.6 13.4 17 14 17 L 16 17 C 16.6 17 17 16.6 17 16 L 17 14 C 17 13.4 16.6 13 16 13 L 14 13 z" color="#000" overflow="visible" enable-background="accumulate" font-family="Bitstream Vera Sans"/>
</svg>