<svg xmlns="http://www.w3.org/2000/svg" width="32" height="32" viewBox="0 0 32 32"><title>sliders</title><g fill="#212121" class="nc-icon-wrapper"><g fill="#212121"><path transform="scale(1,-1) translate(0,-32)" d="M 1.2 24.8 H 17.9 C 18.4 22.9 20.2 21.5 22.2 21.5 S 26 22.9 26.5 24.8 H 30.7 C 31.4 24.8 32 25.3 32 26 S 31.5 27.2 30.8 27.2 H 26.6 C 26.1 29.1 24.3 30.5 22.3 30.5 S 18.5 29.1 18 27.2 H 1.2 C 0.6 27.2 0 26.7 0 26 S 0.6 24.8 1.2 24.8 z M 22.2 28 C 22.3 28 22.3 28 22.2 28 C 23.3 28 24.3 27.1 24.3 25.9 C 24.3 24.8 23.4 23.9 22.2 23.9 C 21.1 23.9 20.2 24.8 20.2 25.9 C 20.2 27.1 21.1 28 22.2 28 z M 30.8 17.2 H 14.1 C 13.6 19.1 11.8 20.5 9.8 20.5 S 6 19.1 5.4 17.2 H 1.2 C 0.6 17.2 0 16.7 0 16 S 0.5 14.8 1.2 14.8 H 5.4 C 5.9 12.9 7.7 11.5 9.7 11.5 S 13.5 12.9 14 14.8 H 30.7 C 31.4 14.8 31.9 15.3 31.9 16 C 32 16.7 31.4 17.2 30.8 17.2 z M 9.8 14 C 8.7 14 7.8 14.9 7.8 16 S 8.7 18 9.8 18 S 11.8 17.1 11.8 16 S 10.9 14 9.8 14 z M 30.8 7.2 H 24.6 C 24.1 9.1 22.3 10.5 20.3 10.5 S 16.5 9.1 16 7.2 H 1.2 C 0.6 7.2 0 6.7 0 6 S 0.5 4.8 1.2 4.8 H 15.9 C 16.4 2.9 18.2 1.5 20.2 1.5 S 24 2.9 24.5 4.8 H 30.7 C 31.4 4.8 31.9 5.3 31.9 6 S 31.4 7.2 30.8 7.2 z M 20.2 4 C 19.1 4 18.2 4.9 18.2 6 S 19.1 8 20.2 8 S 22.2 7.1 22.2 6 S 21.4 4 20.2 4 z"></path></g></g></svg>