<svg xmlns="http://www.w3.org/2000/svg" enable-background="new 0 0 32 32" height="32" width="32" viewBox="0 0 32 32"><title>sliders</title><g fill="#212121" class="nc-icon-wrapper"><path d="M1.2 7.2h16.7c.5 1.9 2.3 3.3 4.3 3.3s3.8-1.4 4.3-3.3h4.2c.7 0 1.3-.5 1.3-1.2s-.5-1.2-1.2-1.2h-4.2c-.5-1.9-2.3-3.3-4.3-3.3S18.5 2.9 18 4.8H1.2C.6 4.8 0 5.3 0 6s.6 1.2 1.2 1.2zm21-3.2c.1 0 .1 0 0 0 1.1 0 2.1.9 2.1 2.1 0 1.1-.9 2-2.1 2-1.1 0-2-.9-2-2 0-1.2.9-2.1 2-2.1zm8.6 10.8H14.1c-.5-1.9-2.3-3.3-4.3-3.3S6 12.9 5.4 14.8H1.2c-.6 0-1.2.5-1.2 1.2s.5 1.2 1.2 1.2h4.2c.5 1.9 2.3 3.3 4.3 3.3s3.8-1.4 4.3-3.3h16.7c.7 0 1.2-.5 1.2-1.2.1-.7-.5-1.2-1.1-1.2zM9.8 18c-1.1 0-2-.9-2-2s.9-2 2-2 2 .9 2 2-.9 2-2 2zm21 6.8h-6.2c-.5-1.9-2.3-3.3-4.3-3.3s-3.8 1.4-4.3 3.3H1.2c-.6 0-1.2.5-1.2 1.2s.5 1.2 1.2 1.2h14.7c.5 1.9 2.3 3.3 4.3 3.3s3.8-1.4 4.3-3.3h6.2c.7 0 1.2-.5 1.2-1.2s-.5-1.2-1.1-1.2zM20.2 28c-1.1 0-2-.9-2-2s.9-2 2-2 2 .9 2 2-.8 2-2 2z"></path></g></svg>