<svg xmlns="http://www.w3.org/2000/svg" width="32" height="32" viewBox="0 0 32 32"><title>slide left</title><g fill="#212121" class="nc-icon-wrapper"><g fill="#212121"><path transform="scale(1,-1) translate(0,-32)" d="M 30.7 6.7 H 14.7 C 14 6.7 13.4 6.1 13.4 5.4 C 13.4 4.7 14 4.1 14.7 4 H 30.7 C 31.4 4 32 4.6 32 5.3 C 32 6 31.4 6.6 30.7 6.7 z M 14.7 25.3 H 30.7 C 31.4 25.3 32 25.9 32 26.6 C 32 27.4 31.4 28 30.7 28 H 14.7 C 14 28 13.4 27.4 13.4 26.7 C 13.3 26 13.9 25.4 14.7 25.3 z M 32 16 C 32 16.7 31.4 17.3 30.7 17.3 H 9.3 V 24 L 0 16 L 9.3 8 V 14.7 H 30.6 C 31.4 14.7 32 15.3 32 16 z"></path></g></g></svg>