<svg xmlns="http://www.w3.org/2000/svg" width="32" height="32" viewBox="0 0 32 32"><title>snapshot</title><g fill="#212121" class="nc-icon-wrapper"><g fill="#212121"><path transform="scale(1,-1) translate(0,-32)" d="M 28.313 3.375 H 3.688 C 1.688 3.375 0 5 0 7 V 23.5 C 0 25.5 1.688 27.188 3.688 27.188 H 4.75 A 1.58 1.58 0 0 1 6.188 28.125 V 28.25 L 6.5 29 C 6.688 29.563 7.313 30 7.938 30 H 12 C 12.625 30 13.25 29.562 13.438 29 L 13.75 28.187 C 14 27.625 14.563 27.187 15.25 27.187 H 28.313 C 30.313 27.187 32 25.5 32 23.5 V 7 C 32 5 30.312 3.375 28.312 3.375 z M 16.688 22.813 C 12.313 22.813 8.75 19.313 8.75 15 S 12.313 7.187 16.688 7.187 S 24.625 10.687 24.625 15 S 21.062 22.813 16.687 22.813 z M 27.438 24.5 C 26.5 24.5 25.688 23.75 25.688 22.75 C 25.688 21.812 26.5 21 27.438 21 C 28.438 21 29.25 21.813 29.25 22.75 C 29.25 23.75 28.437 24.5 27.437 24.5 z M 16.688 10.062 C 13.938 10.062 11.688 12.312 11.688 15 C 11.688 17.75 13.938 19.938 16.688 19.938 S 21.688 17.75 21.688 15 C 21.688 12.312 19.438 10.062 16.688 10.062 z"></path></g></g></svg>