<svg xmlns="http://www.w3.org/2000/svg" enable-background="new 0 0 32 32" height="32" width="32" viewBox="0 0 32 32"><title>solution</title><g fill="#212121" class="nc-icon-wrapper"><path d="M16.4.3c-.7-.4-1.5-.3-2.2 0L3.1 6.4c-1.5.8-1.6 3.1-.1 4L14.1 17c.7.4 1.6.4 2.3 0l11.7-6.7c1.6-.9 1.5-3.2-.1-4L16.4.3z"></path><path d="M2.5 12.2c-.6-.3-1.3-.1-1.7.4s-.2 1.4.4 1.8l12.6 7.3c.9.5 2 .5 2.8 0L28.3 15c.2-.1.4 0 .6.2 0 .1.1.1.1.2v1.2c0 .1-.1.3-.2.4l-13.2 7.6c-.1.1-.3.1-.4 0l-10.3-6C3 17.5.6 18.9.6 21.1v1.2c0 1 .5 2 1.4 2.5l11.8 6.8c.9.5 2 .5 2.8 0l14.1-8c.6-.3.8-1.1.5-1.7-.3-.6-1.1-.8-1.7-.5l-14.1 8c-.1.1-.3.1-.4 0L3.3 22.6c-.1-.1-.2-.2-.2-.4V21c0-.3.3-.5.6-.4l10.2 5.9c.9.5 2 .5 2.8 0L30 19.1c.9-.5 1.4-1.5 1.4-2.5v-1.2c0-2.2-2.4-3.6-4.3-2.5l-11.6 6.6c-.1.1-.3.1-.4 0L2.5 12.2z"></path></g></svg>