<svg height="32" width="32" xmlns="http://www.w3.org/2000/svg" viewBox="0 0 32 32"><title>spaces list</title><g fill="none" class="nc-icon-wrapper"><g fill="#212121"><path d="M1 1.875C1 .839 1.84 0 2.875 0h26.25C30.161 0 31 .84 31 1.875V7.5c0 1.036-.84 1.875-1.875 1.875H2.875A1.875 1.875 0 0 1 1 7.5z"></path><path d="M1 24.375c0-1.036.84-1.875 1.875-1.875h26.25c1.036 0 1.875.84 1.875 1.875V30c0 1.036-.84 1.875-1.875 1.875H2.875A1.875 1.875 0 0 1 1 30z"></path><path d="M2.875 11.25C1.839 11.25 1 12.09 1 13.125v5.625c0 1.036.84 1.875 1.875 1.875h26.25c1.036 0 1.875-.84 1.875-1.875v-5.625c0-1.036-.84-1.875-1.875-1.875z"></path></g></g></svg>