<svg width="32" height="32" xmlns="http://www.w3.org/2000/svg" viewBox="0 0 32 32"><title>speedometer</title><g fill="none" class="nc-icon-wrapper"><g fill="#212121"><path d="M14.667 0H16c8.823 0 16 7.177 16 16s-7.177 16-16 16S0 24.823 0 16v-1.333h2.667V16c0 7.352 5.981 13.333 13.333 13.333S29.333 23.352 29.333 16c0-6.901-5.272-12.596-12-13.267v3.934h-2.666V0z"></path><path d="M16 20a3.976 3.976 0 0 1-2.83-1.172c-1.075-1.075-5.477-8.41-6.8-10.63L3.675 3.675l4.522 2.693c2.221 1.324 9.553 5.726 10.63 6.802A3.976 3.976 0 0 1 20 16a3.976 3.976 0 0 1-1.172 2.83A3.975 3.975 0 0 1 16 20z"></path></g></g></svg>