<svg xmlns="http://www.w3.org/2000/svg" width="20" height="24" viewBox="0 0 20 24">
  <g>
    <path d="M12.54889,17.55445 L9.215556,14.22111 C9.006667,14.01222 8.89,13.73 8.89,13.43556 L8.89,7.88 L11.11222,7.88 L11.11222,12.97556 L14.12,15.98333 L12.54889,17.55445 Z"/>
    <polygon points="7.78 2.222 7.78 0 12.224 0 12.224 2.222"/>
    <path d="M10,23.44 C4.48667,23.44 0,18.9544 0,13.44 C0,7.92556 4.48667,3.44 10,3.44 C15.5133,3.44 20,7.92556 20,13.44 C20,18.9544 15.5133,23.44 10,23.44 Z M10,5.66222 C5.71111,5.66222 2.22222,9.15111 2.22222,13.44 C2.22222,17.7289 5.71111,21.2178 10,21.2178 C14.2889,21.2178 17.7778,17.7289 17.7778,13.44 C17.7778,9.15111 14.2889,5.66222 10,5.66222 Z"/>
  </g>
</svg>
