<svg xmlns="http://www.w3.org/2000/svg" width="32" height="32" viewBox="0 0 32 32"><title>stopwatch</title><g fill="#212121" class="nc-icon-wrapper"><g fill="#212121"><path transform="scale(1,-1) translate(0,-32)" d="M 19.13099999999986 8.034999999999975 L 14.580999999999863 12.584999999999974 A 1.515 1.515 0 0 0 14.135999999999862 13.657999999999975 V 21.241999999999976 H 17.169999999999863 V 14.285999999999975 L 21.27599999999985 10.179999999999975 L 19.13099999999985 8.034999999999975 z M 12.6210000000001 28.966999999999988 V 32 H 18.6880000000001 V 28.967 H 12.6210000000001 z M 15.65200000000005 0 C 8.125000000000037 0 2.00000000000005 6.124 2.00000000000005 13.652 S 8.12500000000005 27.304 15.65200000000005 27.304 C 23.17900000000005 27.304 29.30400000000005 21.18 29.30400000000005 13.652 S 23.179000000000087 0 15.65200000000005 0 z M 15.65200000000005 24.27 C 9.79700000000005 24.27 5.034000000000037 19.507 5.034000000000037 13.652 S 9.79700000000005 3.034 15.65200000000005 3.034 S 26.27000000000005 7.797 26.27000000000005 13.652 S 21.50700000000005 24.27 15.65200000000005 24.27 z"></path></g></g></svg>