<svg fill="#000000" height="512" width="512" id="icon-superscript" viewBox="0 0 512 512">
  <path d="m293 391l0 48l-71 0l-45-72l-7-12c-2-2-3-4-3-6l-1 0l-3 6c-2 4-4 8-7 12l-44 72l-74 0l0-48l37 0l56-83l-53-78l-39 0l0-48l79 0l39 65c1 1 3 5 7 12c2 2 3 4 3 6l1 0c1-1 2-3 3-6l7-12l40-65l74 0l0 48l-36 0l-53 77l59 84z m182-194l0 59l-147 0l-1-8c-1-5-1-9-1-13c0-12 2-23 7-33c5-10 12-19 19-25c7-6 15-13 24-19c9-6 17-11 24-15c7-5 14-10 19-16c5-5 7-12 7-18c0-7-3-13-8-18c-6-4-13-7-21-7c-9 0-19 4-27 11c-3 3-6 6-11 11l-30-26c5-7 11-13 18-19c16-12 34-18 54-18c21 0 38 5 51 17c13 11 19 26 19 45c0 11-2 20-7 29c-4 9-10 17-17 22c-7 6-15 11-24 17c-8 5-16 10-23 14c-7 4-13 9-19 15c-5 6-8 12-8 18l66 0l0-23z"/>
</svg>