<svg xmlns="http://www.w3.org/2000/svg" width="32" height="32" viewBox="0 0 32 32"><title>switch</title><g fill="#212121" class="nc-icon-wrapper"><g fill="#212121"><path transform="scale(1,-1) translate(0,-32)" d="M 31.875 12.714 C 31.938 12.526 32 12.337 32 12.149 C 32 11.961 31.937 11.772 31.875 11.584 A 1.368 1.368 0 0 0 31.562 11.081 L 25.625 5.179 C 25.375 4.865 25 4.739 24.625 4.739 A 1.46 1.46 0 0 0 23.562 5.179 A 1.483 1.483 0 0 0 23.562 7.251 L 26.937 10.641 H 14.75 C 13.937 10.641 13.312 11.333 13.312 12.149 C 13.312 12.964999999999987 13.938 13.656 14.75 13.656 H 26.938 L 23.563 17.047 A 1.483 1.483 0 0 0 23.563 19.119 A 1.466 1.466 0 0 0 25.625 19.119 L 31.563 13.217 C 31.688 13.028 31.813 12.903 31.875000000000014 12.714 z M 17.25 18.052 H 5.062 L 8.437 14.661 A 1.483 1.483 0 0 0 8.437 12.589 A 1.46 1.46 0 0 0 7.375 12.149 A 1.46 1.46 0 0 0 6.312 12.589 L 0.438 18.49 C 0.314 18.679 0.188 18.804 0.126 18.993 C 0.062 19.182 0 19.37 0 19.559 C 0 19.747 0.063 19.936 0.125 20.124 C 0.188 20.312 0.313 20.501 0.438 20.626 L 6.313 26.53 C 6.938 27.158 7.875 27.158 8.438 26.53 A 1.483 1.483 0 0 0 8.438 24.458 L 5.062 21.067 H 17.25 C 18.063 21.067 18.688 20.377 18.688 19.56 S 18.063 18.053 17.25 18.053 z"></path></g></g></svg>