<svg xmlns="http://www.w3.org/2000/svg" width="32" height="32" viewBox="0 0 32 32"><title>tag filled</title><g fill="#212121" class="nc-icon-wrapper"><g fill="#212121"><path transform="scale(1,-1) translate(0,-32)" d="M 28 17.2 L 16.2 29 H 3 V 15.8 L 14.8 4 C 15.2 3.6 15.6 3.4 16.1 3.2 S 17.1 2.9 17.6 2.9 S 18.6 3 19.1 3.2 S 20 3.7 20.4 4 L 28.1 11.7 C 28.8 12.4 29.2 13.4 29.2 14.4 S 28.80000000000001 16.4 28 17.2 z M 12 18 C 10.9 18 10 18.9 10 20 S 10.9 22 12 22 S 14 21.1 14 20 S 13.1 18 12 18 z"></path></g></g></svg>