<svg xmlns="http://www.w3.org/2000/svg" height="32" width="32" viewBox="0 0 32 32"><title>thumb up outline large</title><g fill="#212121" class="nc-icon-wrapper"><path d="M0 29.4h6.9V13.9H0zm1.5-14h3.9v12.5H1.5zm27.1-3h-6v-3c0-1.2-.4-2.6-1-3.8s-1.6-2.4-2.7-3c-.7-.3-1.4-.2-2 .1s-1.1 1-1.1 1.8v4.8l-6.7 7.6v9.7l3.5 1.6c1.6.8 3.5 1.2 5.3 1.2h9.4c1.8 0 3.4-1.4 3.4-3.2L32 15.8c0-1.9-1.6-3.4-3.4-3.4zm.6 13.4c0 1-.8 1.8-1.9 1.8h-9.4c-1.6 0-3.3-.4-4.6-1.1l-2.7-1.2v-8.1l6.7-7.6V4.3c0-.2.1-.3.3-.4s.4-.1.7 0c.8.5 1.6 1.4 2.1 2.4.5 1.1.8 2.2.8 3.2v4.6h7.5c1.1 0 1.9.8 1.9 1.7z"></path></g></svg>