<svg height="32" width="32" xmlns="http://www.w3.org/2000/svg" viewBox="0 0 32 32"><title>thumb up outline</title><g fill="none" class="nc-icon-wrapper"><path clip-rule="evenodd" d="M18.086 5.457v5.18l-6.302 7.138v7.073l2.207.996.028.014c1.191.614 2.633.935 4.102.935h8.823c.777 0 1.296-.588 1.296-1.154v-.08l1.258-9.502c-.038-.546-.546-1.09-1.294-1.09h-7.527v-4.794c0-.782-.251-1.78-.73-2.71-.46-.895-1.07-1.608-1.713-2.003a.356.356 0 0 0-.148-.003zm-1.187-2.15c.699-.373 1.552-.407 2.312-.1l.074.031.07.04c1.217.688 2.148 1.856 2.77 3.062.624 1.212 1.002 2.593 1.002 3.833v2.344h5.077c1.996 0 3.746 1.554 3.746 3.604v.081l-1.261 9.526c-.05 2.007-1.779 3.515-3.745 3.515H18.12c-1.796 0-3.62-.387-5.195-1.191L9.334 26.43v-9.582l6.302-7.138V5.414c0-.964.534-1.718 1.263-2.107zM0 13.913h7.491V29.45H0zm2.45 2.45V27h2.591V16.363z" fill="#212121" fill-rule="evenodd"></path></g></svg>