<svg height="32" width="32" xmlns="http://www.w3.org/2000/svg" viewBox="0 0 32 32"><title>thumb down outline</title><g fill="none" class="nc-icon-wrapper"><path clip-rule="evenodd" d="M18.086 26.993v-5.18l-6.302-7.138V7.602l2.207-.996.028-.015c1.191-.613 2.633-.934 4.102-.934h8.823c.777 0 1.296.587 1.296 1.154v.08l1.258 9.502c-.038.545-.546 1.09-1.294 1.09h-7.527v4.794c0 .782-.251 1.78-.73 2.71-.46.895-1.07 1.608-1.713 2.002a.352.352 0 0 1-.148.004zm-1.187 2.15c.699.372 1.552.407 2.312.1l.074-.031.07-.04c1.217-.689 2.148-1.856 2.77-3.063.624-1.21 1.002-2.592 1.002-3.832v-2.344h5.077c1.996 0 3.746-1.554 3.746-3.605v-.08l-1.261-9.526c-.05-2.007-1.779-3.515-3.745-3.515H18.12c-1.796 0-3.62.387-5.195 1.191L9.334 6.02v9.582l6.302 7.138v4.296c0 .964.534 1.718 1.263 2.107zM0 18.537h7.491V3H0zm2.45-2.45V5.45h2.591v10.637z" fill="#212121" fill-rule="evenodd"></path></g></svg>