<svg xmlns="http://www.w3.org/2000/svg" width="32" height="32" viewBox="0 0 32 32"><title>thumb up outline</title><g fill="#212121" class="nc-icon-wrapper"><g fill="#212121"><path transform="scale(1,-1) translate(0,-32)" d="M 18.086 26.543 V 21.363 L 11.784 14.225 V 7.152 L 13.991 6.156 L 14.019 6.142 C 15.21 5.528 16.652 5.207 18.121 5.207 H 26.944 C 27.721 5.207 28.24 5.795 28.24 6.361 V 6.441 L 29.498 15.943000000000012 C 29.46 16.489 28.952 17.033000000000012 28.204 17.033000000000012 H 20.677 V 21.827000000000012 C 20.677 22.609000000000012 20.426 23.607000000000014 19.947 24.537000000000013 C 19.487 25.432000000000013 18.877 26.145 18.234 26.540000000000013 A 0.356 0.356 0 0 1 18.086 26.543000000000013 z M 16.899 28.693 C 17.598 29.066 18.451 29.1 19.211 28.793 L 19.285 28.762 L 19.355 28.722 C 20.572 28.034 21.503 26.866 22.125 25.66 C 22.749 24.448 23.127 23.067 23.127 21.827 V 19.483 H 28.204 C 30.2 19.483 31.95 17.929 31.95 15.879 V 15.798 L 30.689 6.272 C 30.639 4.265 28.91 2.757 26.944 2.757 H 18.12 C 16.324 2.757 14.5 3.144 12.925 3.948 L 9.334 5.57 V 15.152 L 15.636 22.29 V 26.586 C 15.636 27.55 16.17 28.304 16.899 28.693 z M 0 18.087 H 7.491 V 2.55 H 0 z M 2.45 15.637 V 5 H 5.041 V 15.637 z"></path></g></g></svg>