<svg xmlns="http://www.w3.org/2000/svg" enable-background="new 0 0 32 32" height="32" width="32" viewBox="0 0 32 32"><title>thumb down outline large</title><g fill="#212121" class="nc-icon-wrapper"><path class="st0" d="M17.4 28.4c-.2-.1-.3-.2-.3-.4v-5.4L10.4 15V6.8l2.7-1.2c1.4-.7 3-1.1 4.6-1.1h9.4c1.1 0 1.9.8 1.9 1.8l1.3 10.2c0 .9-.9 1.7-1.9 1.7h-7.5v4.6c0 .9-.3 2.1-.8 3.2-.5 1-1.3 1.9-2.1 2.4-.1.1-.4.1-.6 0zm-.7 1.3c.6.3 1.3.4 2 .1 1.2-.7 2.1-1.8 2.7-3 .6-1.2 1-2.6 1-3.8v-3.1h6c1.9 0 3.4-1.4 3.4-3.3L30.7 6.3c0-1.8-1.6-3.2-3.4-3.2h-9.4c-1.8 0-3.7.4-5.3 1.2L8.9 5.9v9.7l6.7 7.6V28c.1.8.5 1.4 1.1 1.7zM0 18.3h6.9V2.8H0v15.5zm1.5-1.5V4.3h3.9v12.5H1.5z" fill-rule="evenodd" clip-rule="evenodd"></path></g></svg>