<svg xmlns="http://www.w3.org/2000/svg" height="32" width="32" viewBox="0 0 32 32"><title>unlink</title><g fill="#212121" class="nc-icon-wrapper"><path d="M10.6 27.3c-1.6 1.6-4.2 1.6-5.7 0l-.1-.1c-1.6-1.6-1.6-4.2 0-5.7l5-5L7.2 14l-5 5c-2.9 2.9-2.9 7.7 0 10.7l.1.1c2.9 2.9 7.7 2.9 10.7 0l5-5-2.4-2.5zM3.4 6.6l22 22 2.8-2.8-22-22zm26.4-4.3l-.1-.1C26.8-.7 22-.7 19 2.2l-5.4 5.4 2.5 2.5 5.4-5.4c1.6-1.6 4.2-1.6 5.7 0l.1.1c1.6 1.6 1.6 4.2 0 5.7l-5.4 5.4 2.5 2.5 5.4-5.4c2.9-2.9 2.9-7.7 0-10.7z"></path></g></svg>