<?xml version="1.0" encoding="UTF-8"?>
<svg width="35px" height="35px" viewBox="0 0 35 35" version="1.1" xmlns="http://www.w3.org/2000/svg" xmlns:xlink="http://www.w3.org/1999/xlink">
    <defs></defs>
    <g id="Page-1" stroke="none" stroke-width="1" fill="none" fill-rule="evenodd">
        <g id="upload-app" fill-rule="nonzero" fill="#5B6882">
            <path d="M30.625,3.64583333 C30.625,1.63479167 28.98875,0 26.9791667,0 L3.64583333,0 C1.63479167,0 0,1.63479167 0,3.64583333 L0,5.83333333 L30.625,5.83333333 L30.625,3.64583333 Z M5.10416667,4.375 C4.70020833,4.375 4.375,4.04833333 4.375,3.64583333 C4.375,3.24333333 4.70020833,2.91666667 5.10416667,2.91666667 C5.50520833,2.91666667 5.83333333,3.24333333 5.83333333,3.64583333 C5.83333333,4.04833333 5.50520833,4.375 5.10416667,4.375 Z M8.02083333,4.375 C7.616875,4.375 7.29166667,4.04833333 7.29166667,3.64583333 C7.29166667,3.24333333 7.616875,2.91666667 8.02083333,2.91666667 C8.421875,2.91666667 8.75,3.24333333 8.75,3.64583333 C8.75,4.04833333 8.421875,4.375 8.02083333,4.375 Z M10.9375,4.375 C10.5335417,4.375 10.2083333,4.04833333 10.2083333,3.64583333 C10.2083333,3.24333333 10.5335417,2.91666667 10.9375,2.91666667 C11.3385417,2.91666667 11.6666667,3.24333333 11.6666667,3.64583333 C11.6666667,4.04833333 11.3385417,4.375 10.9375,4.375 Z" id="Shape"></path>
            <path d="M30.625,15.8535417 L30.625,7.29166667 L0,7.29166667 L0,21.1458333 C0,23.156875 1.63479167,24.7916667 3.64583333,24.7916667 L14.6197917,24.7916667 C15.141875,16.9225 23.6279167,12.149375 30.625,15.8535417 Z" id="Shape"></path>
            <path d="M25.5208333,16.0416667 C30.7475,16.0416667 35,20.2941667 35,25.5208333 C35,30.7475 30.7475,35 25.5208333,35 C20.2941667,35 16.0416667,30.7475 16.0416667,25.5208333 C16.0416667,20.2941667 20.2941667,16.0416667 25.5208333,16.0416667 Z M25.7504208,19.697257 C25.635959,19.5827952 25.4449238,19.5882509 25.3359177,19.697257 L25.2408756,19.7922992 C25.1264137,19.906761 24.9447817,20.0883931 24.8284644,20.2047104 L20.985189,24.0479858 C20.8718824,24.1612923 20.8740762,24.3451479 20.9961522,24.46457 L21.5829968,25.0386572 C21.7023582,25.1554238 21.9001035,25.149098 22.0173978,25.0318036 L24.6159587,22.4332428 C24.7365104,22.3126911 24.8342368,22.3453433 24.8342368,22.5218289 L24.8342368,31.1310579 C24.8342368,31.3005343 24.9650847,31.4379222 25.1349295,31.4379222 L25.9514091,31.4379222 C26.117477,31.4379222 26.2521017,31.3075435 26.2521017,31.1310579 L26.2521017,22.5218289 C26.2521017,22.3523525 26.3530855,22.3159484 26.4703799,22.4332428 L29.0689407,25.0318036 C29.1894924,25.1523553 29.3812658,25.1580793 29.5033417,25.0386572 L30.0901864,24.46457 C30.2095478,24.3478035 30.2174669,24.1643031 30.1011495,24.0479858 L26.2578742,20.2047104 C26.1445676,20.0914038 25.954469,19.9013053 25.8454629,19.7922992 L25.7504208,19.697257 Z" id="Combined-Shape"></path>
        </g>
    </g>
</svg>