<svg xmlns="http://www.w3.org/2000/svg" width="32" height="32" viewBox="0 0 32 32"><title>user groups</title><g fill="#212121" class="nc-icon-wrapper"><g fill="#212121"><path transform="scale(1,-1) translate(0,-32)" d="M 17.423999999999975 32 C 18.404999999999987 31.914 19.380999999999975 31.734 20.326999999999973 31.469 L 19.608999999999973 28.903 A 13.377 13.377 0 0 1 17.190999999999974 29.343 L 17.423999999999975 32 z M 8.82500000000005 30.36900000000004 L 10.02500000000005 27.984000000000037 A 13.24 13.24 0 0 1 7.93800000000005 26.683000000000025 L 6.32300000000005 28.80500000000004 A 16.12 16.12 0 0 0 8.82500000000005 30.36900000000004 z M 29.5730000000001 24.538999999999987 A 16.089 16.089 0 0 1 27.7850000000001 26.883999999999986 L 25.8210000000001 25.079999999999988 A 13.31 13.31 0 0 0 27.3110000000001 23.122999999999987 L 29.574000000000087 24.538999999999987 z M 13.334000000000062 17.396999999999988 A 4 4 0 1 1 13.334000000000062 25.396999999999988 A 4 4 0 0 1 13.334000000000062 17.396999999999988 z M 21.333000000000087 18.731 A 5.28 5.28 0 0 1 18.085000000000086 17.6 A 10.738 10.738 0 0 0 22.557000000000087 13.398 H 26.667000000000087 A 5.334 5.334 0 0 1 21.333000000000087 18.731 z M 13.334000000000062 16.064000000000025 A 8 8 0 0 0 21.334000000000064 8.064000000000025 H 8.970000000000063 A 10.67 10.67 0 0 0 6.245000000000062 11.764000000000024 A 7.994 7.994 0 0 0 13.334000000000062 16.064000000000025 z M 21.333000000000087 20.064000000000025 A 2.667 2.667 0 1 1 21.333000000000087 25.398000000000025 A 2.667 2.667 0 0 1 21.333000000000087 20.064000000000025 z M 31.71900000000005 19.06700000000001 L 29.09900000000005 18.56700000000001 L 29.05600000000005 18.783000000000012 L 28.98200000000005 19.116000000000014 A 12.99 12.99 0 0 1 28.41700000000005 20.929000000000013 L 30.90200000000005 21.901000000000014 C 31.02200000000005 21.592000000000013 31.13500000000005 21.27700000000001 31.23600000000005 20.959000000000014 L 31.36300000000005 20.54100000000001 L 31.46300000000005 20.186000000000014 L 31.55600000000005 19.82300000000001 L 31.64000000000005 19.452000000000012 L 31.71900000000005 19.06700000000001 z M 6.124000000000025 25.01999999999999 L 4.150000000000025 26.813999999999986 A 16.15 16.15 0 0 1 3.048000000000025 25.457999999999988 L 2.821000000000025 25.137999999999987 C 2.666000000000025 24.913999999999987 2.518000000000025 24.685999999999986 2.375000000000025 24.454999999999988 L 4.645000000000025 23.05499999999999 C 5.077000000000025 23.752999999999986 5.573000000000025 24.41499999999999 6.125000000000025 25.01999999999999 z M 25.599999999999913 28.863999999999976 A 16.152 16.152 0 0 1 23.08399999999991 30.413999999999977 L 21.901999999999912 28.023999999999976 C 22.634999999999913 27.660999999999976 23.33999999999991 27.227999999999977 23.995999999999913 26.733999999999973 L 25.59899999999991 28.863999999999976 z M 14.476000000000113 31.990000000000013 L 14.726000000000113 29.336000000000013 A 13.15 13.15 0 0 1 12.313000000000113 28.880000000000013 L 11.576000000000112 31.44200000000001 A 15.726 15.726 0 0 0 14.476000000000113 31.991000000000014 z M 19.662000000000038 3.2359999999999873 L 20.39200000000004 0.6749999999999875 C 21.33700000000004 0.9439999999999875 22.263000000000037 1.3049999999999875 23.144000000000037 1.7439999999999876 L 21.954000000000036 4.1299999999999875 C 21.219000000000037 3.7599999999999874 20.449000000000037 3.4619999999999873 19.662000000000038 3.2359999999999873 z M 25.650000000000087 3.3000000000000127 L 24.04100000000009 5.427000000000013 A 13.436 13.436 0 0 1 25.857000000000088 7.086000000000013 L 27.830000000000087 5.289000000000012 A 16.368 16.368 0 0 0 25.650000000000087 3.3000000000000127 z M 27.3409999999999 9.047000000000025 L 29.6079999999999 7.644000000000025 C 30.1269999999999 8.480000000000025 30.5699999999999 9.369000000000025 30.9239999999999 10.286000000000024 L 28.4389999999999 11.248000000000024 A 13.508 13.508 0 0 0 27.3409999999999 9.047000000000025 z M 29.1099999999999 13.612000000000025 A 13.833 13.833 0 0 1 29.3339999999999 16.064000000000025 L 31.9999999999999 16.124000000000024 V 16.064000000000025 C 31.9999999999999 15.075000000000024 31.9099999999999 14.087000000000025 31.7319999999999 13.126000000000024 L 29.1089999999999 13.612000000000025 z M 14.7829999999999 2.7830000000000124 L 14.5429999999999 0.1260000000000125 A 16.661 16.661 0 0 1 17.4899999999999 0.1300000000000125 L 17.2449999999999 2.7860000000000125 C 16.8559999999999 2.7480000000000127 16.4599999999999 2.7300000000000124 16.0639999999999 2.7280000000000126 C 15.6339999999999 2.7270000000000123 15.2039999999999 2.7450000000000125 14.7829999999999 2.7830000000000124 z M 11.6400000000001 0.6639999999999875 A 16.016 16.016 0 0 0 8.8850000000001 1.7299999999999875 L 10.0720000000001 4.116999999999988 C 10.8040000000001 3.7509999999999875 11.5760000000001 3.4529999999999874 12.3650000000001 3.2309999999999874 L 11.6400000000001 0.6639999999999875 z M 3.5730000000000874 11.223000000000013 L 1.0880000000000876 10.255000000000013 C 1.4450000000000875 9.339000000000013 1.8900000000000876 8.453000000000012 2.4090000000000873 7.615000000000013 L 4.673000000000087 9.025000000000013 A 12.943 12.943 0 0 0 3.5730000000000874 11.223000000000013 z M 0 16.029999999999976 L 2.666 16.035999999999976 A 13.891 13.891 0 0 1 2.896 13.583999999999975 L 0.276 13.093999999999975 L 0.217 13.426999999999975 L 0.159 13.806999999999976 A 16.263 16.263 0 0 0 0 16.029999999999976 z M 3.5519999999999126 20.850000000000026 L 1.0619999999999126 21.810000000000024 A 15.83 15.83 0 0 1 0.2619999999999125 18.967000000000024 L 2.8849999999999123 18.487000000000027 C 3.0329999999999124 19.292000000000026 3.2569999999999126 20.087000000000025 3.5519999999999126 20.850000000000026 z M 6.375999999999975 3.281 A 16.016 16.016 0 0 0 4.192999999999975 5.266 L 6.158999999999975 7.067 A 13.616 13.616 0 0 1 7.980999999999975 5.411 L 6.375999999999975 3.281 z"></path></g></g></svg>