<svg xmlns="http://www.w3.org/2000/svg" width="32" height="32" viewBox="0 0 32 32"><title>user add</title><g fill="#212121" class="nc-icon-wrapper"><g fill="#212121"><path transform="scale(1,-1) translate(0,-32)" d="M 10.96 29 C 7.754 29 5.057 26.303 5.057 23.1 C 5.057 19.895 7.754 17.198 10.958 17.198 C 14.161 17.198 16.858 19.895 16.858 23.1 C 16.858 26.303 14.161 29 10.958 29 z M 10.958 13.826 C 2.698 13.826 0 7.08 0 7.08 V 3.708 H 21.918 V 7.08 S 19.22 13.825 10.958 13.825 z M 32 19.269 H 28.06 V 23.536 H 25.06 V 19.269 H 21.11 V 16.421 H 25.06 V 11.969 H 28.06 V 16.42 H 32 V 19.27 z"></path></g></g></svg>