<svg xmlns="http://www.w3.org/2000/svg" width="32" height="32" viewBox="0 0 32 32"><title>vert full stack bar</title><g fill="#212121" class="nc-icon-wrapper"><g fill="#212121"><path transform="scale(1,-1) translate(0,-32)" d="M 28.394 0 H 25.902 A 0.599 0.599 0 0 0 25.295 0.596 V 11.926 C 25.295 12.191 25.565 12.522 25.902 12.522 H 28.394 C 28.731 12.522 29 12.191 29 11.926 V 0.663 C 29 0.331 28.73 0 28.394 0 z M 20.917 0 H 18.357 C 18.088 0 17.751 0.265 17.751 0.596 V 4.373 C 17.751 4.638 18.088 4.969 18.357 4.969 H 20.917 C 21.187 4.969 21.523 4.638 21.523 4.373 V 0.596 C 21.591 0.331 21.187 0 20.917 0 z M 13.642 0 H 11.016 A 0.599 0.599 0 0 0 10.409 0.596 V 9.01 C 10.409 9.342 10.679 9.607 11.016 9.607 H 13.71 C 13.912 9.607 14.114 9.407 14.114 9.275 V 0.663 C 14.249 0.331 13.912 0 13.643 0 z M 6.098 0 H 3.606 A 0.599 0.599 0 0 0 3 0.596 V 4.24 C 3 4.505 3.27 4.836 3.606 4.836 H 6.098 C 6.435 4.836 6.705 4.506 6.705 4.24 V 0.596 C 6.772 0.331 6.503 0 6.098 0 z M 28.394 14.377 H 25.902 C 25.565 14.377 25.295 14.708 25.295 14.973 V 26.37 C 25.295 26.7 25.565 26.966 25.902 26.966 H 28.394 C 28.731 26.966 29 26.701 29 26.37 V 15.04 C 29 14.775 28.73 14.378 28.394 14.378 z M 20.917 6.692 H 18.357 C 18.088 6.692 17.751 7.022 17.751 7.288 V 18.683 C 17.751 19.015 18.088 19.28 18.357 19.28 H 20.917 C 21.187 19.28 21.523 19.015 21.523 18.683 V 7.354 C 21.591 6.89 21.187 6.692 20.917 6.692 z M 13.642 11.528000000000013 H 11.082 C 10.813 11.528000000000013 10.477 11.793000000000012 10.477 12.124000000000013 V 23.454 C 10.477 23.718 10.813 24.05 11.083 24.05 H 13.643 C 13.912 24.05 14.249 23.718 14.249 23.453 V 12.191 C 14.249 11.661 13.912 11.528 13.642 11.528 z M 6.098 6.692000000000013 H 3.606 C 3.269 6.692000000000013 3 7.022 3 7.288000000000013 V 18.286 C 3 18.617 3.27 18.882 3.606 18.882 H 6.098 C 6.435 18.882 6.705 18.617 6.705 18.286 V 7.354 C 6.772 6.89 6.503 6.692 6.098 6.692 z M 20.918 20.671000000000014 H 18.358 C 18.088 20.671000000000014 17.751 20.936000000000014 17.751 21.267000000000014 V 31.404 C 17.751 31.735 18.088 32 18.357 32 H 20.917 C 21.187 32 21.523 31.735 21.523 31.404 V 21.267 C 21.591 21.002 21.187000000000012 20.671 20.917 20.671 z M 13.643 25.375000000000014 H 11.083 C 10.813 25.375000000000014 10.477 25.706000000000014 10.477 25.97100000000001 V 31.337 C 10.477 31.669 10.813 31.934 11.083 31.934 H 13.643 C 13.912 31.934 14.249 31.669 14.249 31.337 V 25.971 C 14.249 25.772 13.912 25.375 13.642 25.375 z M 6.098 20.67 H 3.606 A 0.599 0.599 0 0 0 3 21.267 V 31.404 C 3 31.735 3.27 32 3.606 32 H 6.098 C 6.435 32 6.705 31.735 6.705 31.404 V 21.4 C 6.772 21.002 6.503 20.67 6.098 20.67 z M 28.394 28.753 H 25.902 C 25.565 28.753 25.295 29.083 25.295 29.415 V 31.404 C 25.295 31.735 25.565 32 25.902 32 H 28.394 C 28.731 32 29 31.735 29 31.404 V 29.416 C 29 29.151 28.73 28.754 28.394 28.754 z"></path></g></g></svg>