<svg xmlns="http://www.w3.org/2000/svg" enable-background="new 0 0 32 32" height="32" width="32" viewBox="0 0 32 32"><title>webhook outline large</title><g fill="#212121" class="nc-icon-wrapper"><path d="M9.1 18.7c-.2.4-.7.6-1.1.6-1.9 0-3.4 1.5-3.4 3.4s1.5 3.4 3.4 3.4 3.4-1.5 3.4-3.4c0-.6-.2-1.2-.5-1.7-.4-.6-.6-1.4-.2-2.1l2.1-3.8c.2-.3.1-.8-.2-1C11 13 9.9 11.1 9.9 9c0-3.4 2.8-6.2 6.2-6.2 3.4 0 6.2 2.8 6.2 6.2v.6c0 .4.2.8.6.9.4.1.8-.2.9-.6 0-.3.1-.6.1-.9 0-4.3-3.5-7.7-7.7-7.7-4.3 0-7.7 3.5-7.7 7.7 0 2 .7 3.7 1.9 5.1.5.5.6 1.3.3 2l-1.6 2.6zM8 24.6c-1.1 0-1.9-.9-1.9-1.9 0-1.1.9-1.9 1.9-1.9s1.9.9 1.9 1.9c0 1.1-.8 1.9-1.9 1.9zm13.1 0c.6.9 1.7 1.6 2.9 1.6 1.9 0 3.4-1.5 3.4-3.4s-1.5-3.4-3.4-3.4c-1.2 0-2.3.6-2.9 1.6-.4.6-1 1.1-1.7 1.1H15c-.4 0-.8.3-.8.8s-.1.9-.1 1.4C13.5 26.9 11 29 8 29c-1.3 0-2.5-.4-3.5-1.1-1.6-1.1-2.7-3-2.7-5.2 0-2.6 1.6-4.8 3.8-5.8.4-.2.6-.6.5-1-.1-.4-.5-.6-.9-.5C2.3 16.5.3 19.3.3 22.6c0 2.7 1.3 5 3.4 6.4 1.2 1 2.7 1.5 4.3 1.5 3.7 0 6.8-2.6 7.6-6.1.1-.5.6-.9 1.1-.9h2.8c.7 0 1.3.5 1.6 1.1zm2.9-3.8c1.1 0 1.9.9 1.9 1.9 0 1.1-.9 1.9-1.9 1.9-1.1 0-1.9-.9-1.9-1.9 0-1 .8-1.9 1.9-1.9zm0-5.8c-.6 0-1.3.1-1.9.2-.7.2-1.5-.1-1.9-.7L19 12.6c-.4-.6-.2-1.4.1-2 .2-.5.4-1 .4-1.6 0-1.9-1.5-3.4-3.4-3.4S12.7 7.1 12.7 9s1.5 3.4 3.4 3.4c.6 0 1.2.2 1.5.7L20 17c.2.3.7.5 1 .3.9-.5 1.9-.8 3-.8 3.4 0 6.2 2.8 6.2 6.2 0 .5-.1.9-.1 1.4C29.5 26.9 27 29 24 29c-1.3 0-2.5-.4-3.5-1.1-.3-.2-.8-.2-1 .1-.3.3-.2.8.1 1l.1.1c1.2.8 2.7 1.3 4.4 1.3 3.7 0 6.8-2.6 7.6-6.1.1-.5.2-1.1.2-1.7-.1-4.2-3.6-7.6-7.9-7.6zm-7.9-4.1c-1.1 0-1.9-.9-1.9-1.9 0-1.1.9-1.9 1.9-1.9 1.1 0 1.9.8 1.9 1.9 0 1.1-.8 1.9-1.9 1.9z"></path></g></svg>