<svg xmlns="http://www.w3.org/2000/svg" enable-background="new 0 0 34 32" height="32" width="34" viewBox="0 0 34 32"><title>webhook outline</title><g fill="#212121" class="nc-icon-wrapper"><path d="M11 16.1l-1.3 2.3c-.1.3-.4.4-.8.4-2.2 0-3.9 1.7-3.9 3.9s1.7 3.9 3.9 3.9 3.9-1.7 3.9-3.9c0-.7-.2-1.3-.5-1.9-.3-.6-.5-1.3-.1-1.9l2-3.6c.3-.6.1-1.3-.4-1.6-1.5-1-2.5-2.8-2.5-4.8 0-3.2 2.6-5.8 5.8-5.8 3.2 0 5.8 2.6 5.8 5.8 0 .7.4 1.3 1.1 1.5.7.1 1.3-.3 1.4-.9v-.6c0-4.5-3.7-8.2-8.2-8.2C12.7.7 9 4.4 9 8.9c0 2 .7 3.8 1.9 5.2.3.7.5 1.4.1 2zm-2 8.1c-.8 0-1.4-.6-1.4-1.4 0-.8.6-1.4 1.4-1.4s1.4.6 1.4 1.4c0 .7-.6 1.4-1.4 1.4zm16-9.7c-.6 0-1.2.1-1.7.2-.7.2-1.5-.1-1.8-.7l-.8-1.4c-.3-.6-.2-1.3 0-1.9.2-.5.3-1.1.3-1.7 0-2.2-1.7-3.9-3.9-3.9S13.2 6.8 13.2 9s1.7 3.9 3.9 3.9c.4 0 .9.2 1.1.6l2.3 3.8c.3.6 1.1.8 1.6.4.9-.5 1.9-.7 2.9-.7 3.2 0 5.8 2.6 5.8 5.8 0 .4 0 .9-.1 1.3-.6 2.6-2.9 4.5-5.6 4.5-1.2 0-2.3-.4-3.2-1-.3-.2-.7-.2-1 .1l-.6.6c-.3.4-.3 1 .1 1.3 1.3.9 2.9 1.4 4.6 1.4 3.9 0 7.2-2.7 8-6.4.1-.6.2-1.2.2-1.8 0-4.6-3.7-8.3-8.2-8.3zm-7.9-4.1c-.8 0-1.4-.6-1.4-1.4s.6-1.4 1.4-1.4c.8 0 1.4.6 1.4 1.4s-.6 1.4-1.4 1.4zm4.7 14.5c.7 1 1.9 1.7 3.2 1.7 2.2 0 3.9-1.7 3.9-3.9s-1.7-3.9-3.9-3.9c-1.3 0-2.5.7-3.2 1.7-.4.5-.9 1-1.6 1H16c-.7 0-1.2.5-1.2 1.2 0 .4 0 .9-.1 1.3-.6 2.6-2.9 4.5-5.6 4.5-1.2 0-2.3-.4-3.2-1-1.5-1-2.5-2.8-2.5-4.8 0-2.2 1.2-4.1 3.1-5.1.6-.3 1-1 .8-1.6-.2-.7-.9-1-1.5-.8C3 16.5 1 19.4 1 22.7c0 2.8 1.4 5.3 3.6 6.8 1.3.9 2.9 1.4 4.6 1.4 3.9 0 7.2-2.7 8-6.4.1-.3.4-.6.7-.6h2.5c.5 0 1 .5 1.4 1zm3.2-3.6c.8 0 1.4.6 1.4 1.4 0 .8-.6 1.4-1.4 1.4-.8 0-1.4-.6-1.4-1.4 0-.8.6-1.4 1.4-1.4z"></path></g></svg>