<svg xmlns="http://www.w3.org/2000/svg" width="32" height="32" viewBox="0 0 32 32"><title>worker</title><g fill="#212121" class="nc-icon-wrapper"><g fill="#212121"><path transform="scale(1,-1) translate(0,-32)" d="M 32 17.6 H 29.3 V 21.7 C 29.3 22.5 28.7 23.1 28 23.1 H 26.7 V 25.8 C 26.7 26.6 26.1 27.2 25.4 27.2 H 24 C 23.3 27.2 22.7 26.6 22.7 25.8 V 18.9 H 9.3 V 25.8 C 9.3 26.6 8.7 27.2 8 27.2 H 6.7 C 6 27.2 5.4 26.6 5.4 25.8 V 23 H 4 C 3.3 23 2.7 22.4 2.7 21.6 V 17.5 H 0 V 14.8 H 2.7 V 10.7 C 2.7 9.9 3.3 9.3 4 9.3 H 5.3 V 6.5 C 5.3 5.7 5.9 5.1 6.6 5.1 H 8 C 8.7 5.1 9.3 5.700000000000013 9.3 6.5 V 13.400000000000013 H 22.6 V 6.500000000000012 C 22.6 5.700000000000013 23.2 5.100000000000012 23.9 5.100000000000012 H 25.2 C 25.9 5.100000000000012 26.5 5.700000000000013 26.5 6.500000000000012 V 9.300000000000013 H 28 C 28.7 9.300000000000013 29.3 9.900000000000013 29.3 10.700000000000012 V 14.8 H 32 V 17.600000000000012 z"></path></g></g></svg>