<svg xmlns="http://www.w3.org/2000/svg" enable-background="new 0 0 32 32" height="32" width="32" viewBox="0 0 32 32"><title>workflow alternate small</title><g fill="#212121" class="nc-icon-wrapper"><path class="st0" d="M15.6 10.7h-2.1c-.6 2.4-2.5 4.3-4.9 4.9v2.6h5.1V32H0V18.3h5.1v-2.6C2.2 14.8 0 12.2 0 9c0-3.8 3.1-6.9 6.9-6.9 3.2 0 5.9 2.2 6.6 5.1h2.2L23 0l9 9-7.3 7.3v2.2c2.9.8 5.1 3.5 5.1 6.6 0 3.8-3.1 6.9-6.9 6.9-3.8 0-6.9-3-6.9-6.8 0-3.2 2.2-5.9 5.1-6.6v-2.2l-5.5-5.7zm7.4 2.4L18.9 9 23 4.9 27 9l-4 4.1zM6.9 5.6C5 5.6 3.5 7.1 3.5 9s1.5 3.4 3.4 3.4 3.4-1.5 3.4-3.4c-.1-1.9-1.6-3.4-3.4-3.4zM3.5 21.8v6.7h6.7v-6.7H3.5zm19.4 0c-1.9 0-3.4 1.5-3.4 3.4s1.5 3.4 3.4 3.4 3.4-1.5 3.4-3.4c-.1-1.9-1.6-3.4-3.4-3.4z" fill-rule="evenodd" clip-rule="evenodd"></path></g></svg>