<svg xmlns="http://www.w3.org/2000/svg" enable-background="new 0 0 32 32" height="32" width="32" viewBox="0 0 32 32"><title>workflow alternate large</title><g fill="#212121" class="nc-icon-wrapper"><path class="st0" d="M16.3 8.9h-3.7c-.3 2.9-2.6 5.2-5.5 5.5v5h5.6V32H0V19.4h5.6v-5C2.4 14 0 11.4 0 8.1c0-3.5 2.8-6.3 6.3-6.3 3.2 0 5.9 2.4 6.3 5.6h3.8L23.8 0 32 8.2l-7.5 7.5v3.8c3.1.4 5.5 3 5.5 6.3 0 3.5-2.8 6.3-6.3 6.3s-6.3-2.8-6.3-6.3c0-3.2 2.4-5.9 5.6-6.3v-3.9l-6.7-6.7zm7.5 5.4l-6.1-6.1 6.1-6.1 6.1 6.1-6.1 6.1zM6.3 3.3c-2.7 0-4.8 2.2-4.8 4.8 0 2.7 2.2 4.8 4.8 4.8 2.7 0 4.8-2.2 4.8-4.8 0-2.6-2.1-4.8-4.8-4.8zM1.5 20.9v9.6h9.6v-9.6H1.5zm22.2 0c-2.7 0-4.8 2.2-4.8 4.8s2.2 4.8 4.8 4.8 4.8-2.2 4.8-4.8-2.1-4.8-4.8-4.8z" fill-rule="evenodd" clip-rule="evenodd"></path></g></svg>