<svg xmlns="http://www.w3.org/2000/svg" width="32" height="32" viewBox="0 0 32 32"><title>workstation</title><g fill="#212121" class="nc-icon-wrapper"><g fill="#212121"><path transform="scale(1,-1) translate(0,-32)" d="M 3.2 32 A 3.2 3.2 0 0 1 0 28.8 V 3.2 A 3.2 3.2 0 0 1 3.2 0 H 8 A 3.2 3.2 0 0 1 11.2 3.2 V 28.8 A 3.2 3.2 0 0 1 8 32 H 3.2 z M 12.8 28.8 V 25.6 H 28.8 V 9.6 H 12.8 V 6.4 H 28.8 C 29.632 6.4 30.492 6.708 31.1 7.3 C 31.692 7.908 32 8.768 32 9.6 V 25.6 C 32 26.432 31.692 27.292 31.1 27.9 C 30.492 28.492 29.632 28.8 28.8 28.8 H 12.8 z M 5.6 9.6 A 2.4 2.4 0 1 0 5.598 4.798 A 2.4 2.4 0 0 0 5.6 9.6 z M 14.4 4.8 V 3.2 H 12.8 V 0 H 25.6 V 3.2 H 20.8 V 4.8 H 14.4 z"></path></g></g></svg>