<svg xmlns="http://www.w3.org/2000/svg" x="0" y="0" viewBox="0 0 32 32" enable-background="new 0 0 32 32" width="32" height="32"><title>applets</title><g class="nc-icon-wrapper" fill="#111111"><path d="M14.4 25.6h3.2v-3.2h-3.2v3.2zM4.8 11.2h6.4V4.8H4.8v6.4zm8 8h6.4v-6.4h-6.4v6.4zm-8 0h6.4v-6.4H4.8v6.4zm0 8h6.4v-6.4H4.8v6.4zm8-16h6.4V4.8h-6.4v6.4zM28.8 0H3.2C1.4 0 0 1.4 0 3.2v25.6C0 30.6 1.4 32 3.2 32h25.6c1.8 0 3.2-1.4 3.2-3.2V3.2C32 1.4 30.6 0 28.8 0zm.8 28.8c0 .4-.4.8-.8.8H3.2c-.4 0-.8-.4-.8-.8V3.2c0-.4.4-.8.8-.8h25.6c.4 0 .8.4.8.8v25.6zm-8.8-17.6h6.4V4.8h-6.4v6.4zm1.6 6.4h3.2v-3.2h-3.2v3.2zm0 8h3.2v-3.2h-3.2v3.2z"/></g></svg>