<svg width="32" height="32" viewBox="0 0 32 32" xmlns="http://www.w3.org/2000/svg"><g class="nc-icon-wrapper" fill="#444444"><path d="M8.714 9.143c.143-1.429.715-2.5 2-2.857l.072-.072c.857-.214 1.5-.5 1.5-1.428v-1.5C12.286 1.429 13.714 0 15.57 0c1.858 0 3.286 1.429 3.286 3.286v1.5c0 .928.643 1.285 1.5 1.5h.072c1.285.357 1.857 1.428 2 2.857H8.714zm6.857-6.857c-.571 0-1 .428-1 1 0 .571.429 1 1 1 .572 0 1-.429 1-1 0-.572-.428-1-1-1zm10.643-.072c1.072 0 1.929.929 1.929 2.072V30c0 1.143-.857 2-1.929 2H4.93C3.857 32 3 31.143 3 30V4.286c0-1.143.857-2.072 1.929-2.072h5.285v1.072c0 .785-.643 1.285-1.357 1.285H6.214c-.5 0-.928.358-.928.858v23.428c0 .429.428.857.857.857H25c.429 0 .857-.428.857-.857V5.43c0-.5-.428-.858-.928-.858h-2.643c-.715 0-1.357-.5-1.357-1.285V2.214h5.285zM7.571 12.571V11.43h8v1.142h-8zm0 6.858v-1.143H19v1.143H7.571zm0 6.857v-1.143h9.215v1.143H7.57zm0-3.429v-1.143h12.572v1.143H7.57zm0-6.857v-1.143H22.43V16H7.57z"></path></g></svg>