<svg width="32" height="32" viewBox="0 0 32 32" xmlns="http://www.w3.org/2000/svg"><g class="nc-icon-wrapper" fill="#444444"><path d="M16 2.006c-7.543-.218-9.226 5.818-9.226 5.818S.122 8.612 0 15.096c-.075 4.008 3.263 7.272 7.273 7.272h4.363V19.46H7.274c-2.406 0-4.412-1.957-4.364-4.363.09-4.5 5.727-4.636 5.727-4.636S10.187 4.692 16 4.915c7.136.273 7.727 8.363 7.727 8.363s5.318-.137 5.363 3.272c.022 1.605-1.304 2.91-2.909 2.91h-5.817v2.908h5.817c3.207 0 5.872-2.61 5.818-5.818-.091-5.454-5.909-5.863-5.909-5.863S25.454 2.279 16 2.006zM14.546 13.64v10.182h-4.364L16 31.095l5.818-7.272h-4.363V13.64h-2.91z"></path></g></svg>