<svg width="32" height="32" viewBox="0 0 32 32" xmlns="http://www.w3.org/2000/svg"><g class="nc-icon-wrapper" fill="#444444"><path fill-rule="evenodd" d="M17.243 7.267c-.051-1.41-1.215-2.522-2.665-2.522H12.8V3h1.778a4.48 4.48 0 0 1 3.555 1.773A4.481 4.481 0 0 1 21.69 3h1.778v1.745h-1.778c-1.45 0-2.614 1.112-2.665 2.522H30.4a1.6 1.6 0 0 1 1.6 1.6v13.867a1.6 1.6 0 0 1-1.6 1.6H19.024c.052 1.41 1.215 2.52 2.665 2.52h1.778V28.6h-1.778a4.48 4.48 0 0 1-3.556-1.773 4.48 4.48 0 0 1-3.555 1.773H12.8v-1.745h1.778c1.45 0 2.613-1.11 2.665-2.521H1.6a1.6 1.6 0 0 1-1.6-1.6V8.867a1.6 1.6 0 0 1 1.6-1.6h15.643zm0 0l.002.097v16.872l-.002.098h1.781a2.635 2.635 0 0 1-.002-.098V7.364c0-.033 0-.065.002-.097h-1.781z"></path></g></svg>