<svg width="32" height="32" viewBox="0 0 32 32" xmlns="http://www.w3.org/2000/svg"><g class="nc-icon-wrapper" fill="#444444"><path d="M4.15.95C4.63.31 5.6 0 6.4 0h19.2c.8 0 1.77.31 2.25.95.64.48.95 1.45.95 2.25v6.4c1.76 0 3.2 1.44 3.2 3.2v8c0 1.76-1.44 3.2-3.2 3.2v4.8c0 .8-.31 1.61-.95 2.25-.48.64-1.45.95-2.25.95H6.4c-.8 0-1.77-.31-2.25-.95-.64-.48-.95-1.45-.95-2.25V24A3.21 3.21 0 0 1 0 20.8v-8a3.21 3.21 0 0 1 3.2-3.2V3.2c0-.8.31-1.77.95-2.25zM25.6 3.2H6.4v6.4h19.2V3.2zM12.739 18.913c0 .69-.326 1.033-.977 1.033-.47 0-.809-.119-1.016-.361-.208-.242-.311-.629-.311-1.162H8.562c0 .623.136 1.162.412 1.619.279.457.664.809 1.155 1.055a3.615 3.615 0 0 0 1.632.367c.88 0 1.576-.227 2.088-.68.511-.453.768-1.08.768-1.885 0-.732-.206-1.335-.616-1.808-.406-.475-1.06-.875-1.961-1.201-.517-.22-.876-.43-1.08-.633-.202-.21-.304-.44-.304-.693 0-.327.091-.585.273-.774.181-.195.435-.293.761-.293.347 0 .612.115.794.344.186.224.28.553.28.982h1.859c0-.553-.12-1.049-.361-1.484a2.462 2.462 0 0 0-1.023-1.01 3.138 3.138 0 0 0-1.516-.361c-.85 0-1.554.236-2.108.71-.55.47-.825 1.094-.825 1.874 0 .642.203 1.2.61 1.675.406.47 1.072.88 1.998 1.231.508.207.858.408 1.048.604.195.19.292.474.292.851zm-6.846-6.818v6.31c0 1.006-.27 1.51-.813 1.51-.537 0-.806-.436-.806-1.307H2.4c0 .897.235 1.596.705 2.1s1.127.756 1.974.756c.787 0 1.43-.272 1.93-.813.499-.54.749-1.261.749-2.158v-6.398H5.892zm15.197 8.342c.588-.688.882-1.649.882-2.89v-1.58c-.008-1.265-.309-2.247-.902-2.945-.591-.703-1.402-1.054-2.43-1.054-1.046 0-1.863.357-2.45 1.072-.59.711-.883 1.701-.883 2.97v1.583c.009 1.222.31 2.174.901 2.855.593.678 1.407 1.016 2.444 1.016 1.041 0 1.854-.344 2.438-1.027zm-1.346-6.297c.237.406.356 1.025.356 1.859v1.605c-.005.788-.125 1.37-.363 1.747-.236.37-.598.558-1.085.558-.503 0-.876-.191-1.117-.572-.241-.385-.362-.98-.362-1.79v-1.644c.009-.799.132-1.394.368-1.783.237-.394.604-.59 1.099-.59.499 0 .867.203 1.104.61zm9.639 7.197v-9.242h-1.86v6.068l-2.736-6.068H22.92v9.242h1.866v-6.063l2.73 6.063h1.866zM25.6 24H6.4v4.8h19.2V24z"></path></g></svg>