<svg width="32" height="32" viewBox="0 0 32 32" xmlns="http://www.w3.org/2000/svg"><g class="nc-icon-wrapper" fill="#444444"><path d="M0 27.375v-2.361c0-.347.335-.695.603-.695h11.38c.268 0 .603.348.603.695v2.361c0 .278-.335.625-.603.625H.603C.335 28 0 27.653 0 27.375zm0-7.083V17.93c0-.278.335-.625.603-.625H4.35c.268 0 .603.347.603.625v2.36c0 .348-.335.695-.603.695H.603C.335 20.847 0 20.5 0 20.292zm0-7.084v-2.5c0-.347.335-.694.603-.694h8.435c.334 0 .67.347.67.694v2.57c0 .278-.269.416-.403.416H.603c-.268 0-.603-.138-.603-.486zm0-7.222V3.625C0 3.347.335 3 .603 3h3.682c.267 0 .602.347.602.625v2.361c0 .347-.335.695-.602.695H.603C.335 6.75 0 6.403 0 5.986zm14.393 21.389v-2.361c0-.347.335-.695.603-.695h11.447c.268 0 .603.348.603.695v2.361c0 .278-.335.625-.602.625H14.995c-.268 0-.603-.347-.603-.625zm-7.698-7.083V17.93c0-.278.334-.625.602-.625h11.448c.334 0 .602.347.602.625v2.36c0 .348-.268.695-.602.695H7.297c-.469-.139-.602-.486-.602-.694zm4.82-7.084v-2.36c0-.348.267-.626.602-.626h6.56c.269 0 .603.278.603.625v2.361c0 .348-.334.625-.602.625h-6.56c-.47-.139-.603-.277-.603-.625zm-4.82-7.222V3.625c0-.278.334-.625.602-.625h5.289c.268 0 .602.347.602.625v2.361c0 .347-.334.695-.602.695H7.297c-.469.069-.602-.278-.602-.695zm13.924 14.306V17.93c0-.278.335-.625.67-.625h5.355c.335 0 .603.347.603.625v2.36c0 .348-.268.695-.603.695H21.29c-.335-.139-.67-.486-.67-.694zm8.168 7.083v-2.361c0-.347.334-.695.602-.695h2.009c.267 0 .602.348.602.695v2.361c0 .278-.335.625-.602.625h-2.009c-.268 0-.602-.347-.602-.625z"></path></g></svg>