<svg width="32" height="32" viewBox="0 0 32 32" xmlns="http://www.w3.org/2000/svg"><g class="nc-icon-wrapper" fill="#444444"><path d="M1.075 18.17c-.874-.254-1.249-.826-.999-1.844.187-.89.75-1.272 1.686-1.018l3.123.764-1.624 2.607-2.186-.508zm28.419.382c.25-.254.624-.381.999-.381.437.063.75.19 1 .508.686.7.686 1.4-.063 2.1l-7.995 7.313c-.312.254-.624.382-1 .382-.311 0-.561-.128-.873-.318l-9.12-7.123-1.748-.51 1.624-2.543 1.124.254c.25.064.437.127.5.255l8.431 6.614 7.12-6.55zM13.817 11.43L2.699 29.237c-.25.509-.687.763-1.249.763-.25 0-.5-.127-.75-.318a1.314 1.314 0 0 1-.624-.89c-.062-.446 0-.764.187-1.082l11.93-19.08c.187-.381.437-.572.874-.699.375-.127.75-.064 1.187.19l7.807 5.089 7.183-10.558c.25-.381.562-.572.937-.636.374-.063.75.064 1.061.318.812.509.937 1.145.375 1.972l-7.994 11.766c-.563.763-1.187.89-2 .381l-7.806-5.024z"></path></g></svg>