<svg width="32" height="32" viewBox="0 0 32 32" xmlns="http://www.w3.org/2000/svg"><g class="nc-icon-wrapper" fill="#000000"><path fill-rule="evenodd" d="M0 16C0 7.2 7.2 0 16 0s16 7.2 16 16-7.2 16-16 16S0 24.8 0 16zm14.272.17c-.303.74-.455 1.736-.455 2.986h3.428l.054-.817c.098-.875.487-1.638 1.165-2.29l1.085-1.031c.848-.822 1.442-1.567 1.781-2.237.34-.678.51-1.397.51-2.156 0-1.67-.523-2.96-1.568-3.87-1.044-.92-2.513-1.38-4.406-1.38-1.875 0-3.357.482-4.446 1.446-1.08.965-1.63 2.3-1.648 4.005h3.884c.018-.714.223-1.272.616-1.674.402-.41.933-.616 1.594-.616 1.393 0 2.09.754 2.09 2.263 0 .5-.135.978-.402 1.433-.268.447-.808 1.031-1.621 1.755-.803.714-1.357 1.442-1.66 2.183zm-.24 5.625c-.402.384-.603.875-.603 1.473 0 .59.196 1.076.589 1.46.402.384.928.576 1.58.576s1.174-.192 1.567-.576c.402-.384.603-.87.603-1.46 0-.598-.206-1.09-.616-1.473-.402-.393-.92-.59-1.554-.59s-1.156.197-1.567.59z"></path></g></svg>