<svg width="32" height="32" viewBox="0 0 32 32" xmlns="http://www.w3.org/2000/svg"><g class="nc-icon-wrapper" fill="#444444"><path d="M6.8 0C4.168 0 2 2.168 2 4.8c0 2.067 1.35 3.83 3.2 4.5v11.5c0 4.4 3.6 8 8 8h1.6V32l4.8-4.8-4.8-4.8v3.2h-1.6c-2.67 0-4.8-2.13-4.8-4.8V9.3c1.85-.67 3.2-2.433 3.2-4.5C11.6 2.168 9.432 0 6.8 0zM18 0l-4.8 4.8L18 9.6V6.4h1.6c2.67 0 4.8 2.13 4.8 4.8v11.5c-1.85.67-3.2 2.433-3.2 4.5 0 2.632 2.168 4.8 4.8 4.8 2.632 0 4.8-2.168 4.8-4.8 0-2.067-1.35-3.83-3.2-4.5V11.2c0-4.4-3.6-8-8-8H18V0zM6.8 3.2c.903 0 1.6.697 1.6 1.6 0 .903-.697 1.6-1.6 1.6-.903 0-1.6-.697-1.6-1.6 0-.903.697-1.6 1.6-1.6zM26 25.6c.903 0 1.6.697 1.6 1.6 0 .903-.697 1.6-1.6 1.6-.903 0-1.6-.697-1.6-1.6 0-.903.697-1.6 1.6-1.6z"></path></g></svg>