<svg width="32" height="32" viewBox="0 0 32 32" xmlns="http://www.w3.org/2000/svg"><g class="nc-icon-wrapper" fill="#444444"><path d="M8.2 0c-.836 0-1.697.297-2.3.9-.603.603-.9 1.464-.9 2.3v25.6c0 .836.297 1.697.9 2.3.603.603 1.464.9 2.3.9h16c.836 0 1.697-.297 2.3-.9.603-.603.9-1.464.9-2.3V3.2c0-.836-.297-1.697-.9-2.3-.603-.603-1.464-.9-2.3-.9h-16zm0 3.2h16v11.2h-16V3.2zm1.6 1.6V8h12.8V4.8H9.8zm0 4.8v3.2h12.8V9.6H9.8zm6.4 12c1.28 0 2.4 1.12 2.4 2.4 0 1.28-1.12 2.4-2.4 2.4-1.28 0-2.4-1.12-2.4-2.4 0-1.28 1.12-2.4 2.4-2.4z"></path></g></svg>