<?xml version="1.0" standalone="no"?>
<!DOCTYPE svg PUBLIC "-//W3C//DTD SVG 1.1//EN" "http://www.w3.org/Graphics/SVG/1.1/DTD/svg11.dtd" >
<svg xmlns="http://www.w3.org/2000/svg">
<defs>
  <font id="ngx-icon" horiz-adv-x="1000">
    <font-face font-family="ngx-icon"
      units-per-em="1000" ascent="1000"
      descent="0" />
    <missing-glyph horiz-adv-x="0" />
    <glyph glyph-name="3d-rotate"
      unicode="&#xEA01;"
      horiz-adv-x="1000" d="M313.4375 105A436.96875 436.96875 0 0 0 64.6875 458.34375H2.1875C23.4375 201.65625 238.03125 0 500.09375 0L527.59375 1.25L368.84375 160L313.4375 105zM350.53125 376.65625C342.59375 376.65625 335.09375 377.90625 328.84375 380A44.5625 44.5625 0 0 0 312.1875 390A41.28125 41.28125 0 0 0 301.34375 405.40625C298.84375 411.25 297.59375 417.9062499999999 297.59375 425H243.4375C243.4375 409.9999999999999 246.34375 396.6562499999999 252.1875 385.40625C258.03125 374.15625 265.9375 364.59375 275.53125 356.65625C285.53125 349.15625 296.78125 343.3437500000001 309.6875 339.59375C322.1875 335.40625 335.53125 333.34375 349.6875 333.34375C365.09375 333.34375 379.6875 335.40625 392.59375 339.59375C405.9375 343.7499999999996 417.59375 349.9999999999997 427.1875 357.9062499999997C436.78125 365.84375 444.6875 375.84375 450.09375 387.90625C455.53125 400 458.4375 413.34375 458.4375 428.34375C458.4375 436.25 457.59375 444.15625 455.53125 451.65625A69.5625 69.5625 0 0 1 445.9375 472.9062499999997C441.78125 479.5937499999995 435.9375 485.4062499999995 429.28125 490.84375A85.75 85.75 0 0 1 403.84375 503.7500000000001A87.4375 87.4375 0 0 1 440.9375 535C445.09375 541.25 448.03125 547.5 450.09375 554.15625C452.1875 560.84375 453.03125 567.5 453.03125 574.15625C453.03125 589.15625 450.53125 602.5 445.53125 614.1562499999995A74.1875 74.1875 0 0 1 424.28125 642.90625C415.9375 650.8437499999995 404.6875 656.6562499999995 392.1875 660.8437499999995A151.875 151.875 0 0 1 349.6875 666.6562499999995C334.6875 666.6562499999995 320.9375 664.59375 308.03125 660C295.53125 655.4062499999997 284.28125 649.15625 275.09375 641.25C266.34375 633.34375 259.28125 624.1562499999997 253.84375 613.34375C248.84375 602.5 246.34375 590.84375 246.34375 577.90625H300.53125C300.53125 584.9999999999997 301.78125 591.25 304.28125 596.65625C306.78125 602.09375 310.09375 607.09375 314.6875 610.84375C319.28125 614.59375 324.28125 617.90625 330.53125 620C336.78125 622.09375 343.03125 623.3437499999997 350.53125 623.3437499999997C367.1875 623.3437499999997 379.6875 619.1562499999997 387.59375 610.40625C395.53125 602.09375 399.6875 589.9999999999997 399.6875 574.59375C399.6875 567.0937499999995 398.4375 560.40625 396.34375 554.15625C394.28125 547.90625 390.53125 542.90625 385.9375 538.75C381.34375 534.59375 375.53125 531.25 368.84375 528.75C362.1875 526.25 353.84375 525 344.6875 525H312.59375V482.09375H344.6875C353.84375 482.09375 362.1875 481.2499999999997 369.6875 479.1562499999997C377.1875 477.09375 383.4375 473.75 388.4375 469.5937499999995C393.4375 464.9999999999997 397.59375 459.5937499999995 400.53125 452.9062499999997C403.4375 446.2499999999996 404.6875 438.3437499999996 404.6875 429.1562499999997C404.6875 412.0937499999996 399.6875 399.1562499999997 390.09375 390.4062499999997C380.53125 380.8437499999996 367.1875 376.6562499999996 350.53125 376.6562499999996zM706.78125 623.34375A138.78125 138.78125 0 0 1 659.28125 655.40625C641.34375 662.90625 620.9375 666.65625 598.4375 666.65625H500.09375V333.34375H595.9375C618.84375 333.34375 640.09375 337.09375 658.84375 344.59375C677.59375 352.0937499999997 693.84375 362.5 707.1875 376.2499999999996A140.625 140.625 0 0 1 738.03125 425.8437499999997A190.625 190.625 0 0 1 748.84375 491.2499999999997V507.90625C748.84375 532.0937499999995 745.09375 553.7499999999997 738.03125 573.3437499999995A145.625 145.625 0 0 1 706.78125 623.3437499999997zM690.53125 491.65625C690.53125 474.15625 688.4375 458.75 684.6875 444.59375C680.53125 430.84375 674.6875 418.75 666.78125 409.15625A77.9375 77.9375 0 0 0 637.1875 387.09375C625.09375 382.09375 611.34375 379.59375 595.9375 379.59375H558.03125V620H598.4375C628.4375 620 651.34375 610.40625 666.78125 591.25C682.59375 572.09375 690.53125 544.59375 690.53125 508.34375V491.65625zM500.09375 1000L472.59375 998.75L631.34375 840L686.78125 895.40625C823.03125 830.84375 920.53125 698.75 935.09375 542.09375H997.59375C976.78125 798.34375 762.1875 1000 500.09375 1000z" />
    <glyph glyph-name="action"
      unicode="&#xEA02;"
      horiz-adv-x="1000" d="M468.34375 354.6875L1000 900.46875L925.875 976.5625L468.375 506.8749999999999L301.96875 677.65625L227.84375 601.59375L468.34375 354.71875zM687.125 954.28125H0V35.375H895.09375V570H790.3125V143.03125H104.8125V846.6875H687.125V954.28125z" />
    <glyph glyph-name="action-close"
      unicode="&#xEA03;"
      horiz-adv-x="1000" d="M665.625 718.75L500 553.125L334.375 718.75L281.25 665.625L446.875 500L281.25 334.375L334.375 281.25L500 446.875L665.625 281.25L718.75 334.375L553.125 500L718.75 665.625L665.625 718.75zM500 1000C225 1000 0 775 0 500S225 0 500 0S1000 225 1000 500S775 1000 500 1000zM500 78.125C265.625 78.125 78.125 265.625 78.125 500S265.625 921.875 500 921.875S921.875 734.375 921.875 500S734.375 78.125 500 78.125z" />
    <glyph glyph-name="action-maximize"
      unicode="&#xEA04;"
      horiz-adv-x="1000" d="M500 1000C225 1000 0 775 0 500S225 0 500 0S1000 225 1000 500S775 1000 500 1000zM500 78.125C265.625 78.125 78.125 265.625 78.125 500S265.625 921.875 500 921.875S921.875 734.375 921.875 500S734.375 78.125 500 78.125zM306.25 306.25H612.5L306.25 612.5V306.25zM693.75 384.375V693.75H387.5L693.75 384.375z" />
    <glyph glyph-name="action-maximize-inverse"
      unicode="&#xEA05;"
      horiz-adv-x="1000" d="M192.3125 500H500V807.6875L807.6875 500H500V192.3125L192.3125 500zM500 1000C225 1000 0 775 0 500S225 0 500 0S1000 225 1000 500S775 1000 500 1000zM500 78.125C265.625 78.125 78.125 265.625 78.125 500S265.625 921.875 500 921.875S921.875 734.375 921.875 500S734.375 78.125 500 78.125z" />
    <glyph glyph-name="action-minimize"
      unicode="&#xEA06;"
      horiz-adv-x="1000" d="M231.25 462.5H768.75V540.625H231.25V462.5zM500 1000C225 1000 0 775 0 500S225 0 500 0S1000 225 1000 500S775 1000 500 1000zM500 78.125C265.625 78.125 78.125 265.625 78.125 500S265.625 921.875 500 921.875S921.875 734.375 921.875 500S734.375 78.125 500 78.125z" />
    <glyph glyph-name="action-outline"
      unicode="&#xEA07;"
      horiz-adv-x="1000" d="M968.75 904.0625L936.125 937.5L474.25 463.96875L306.25 636.15625L273.65625 602.71875L474.21875 397.09375L968.75 904.0625zM31.25 927.71875V62.5H875.21875V540.28125H829.0625V109.7812499999999H77.40625V880.40625H665.28125V927.71875H31.25z" />
    <glyph glyph-name="action-outline-small"
      unicode="&#xEA08;"
      horiz-adv-x="1000" d="M968.75 885.03125L917.40625 937.5L472.25 482.75L310.375 648.125L259.03125 595.65625L472.25 377.84375L968.75 885.03125zM31.25 922.125V62.5H872.78125V550.0625H800.15625V136.6875H103.875V847.9375H670.4375V922.15625H31.25z" />
    <glyph glyph-name="add-circle"
      unicode="&#xEA09;"
      horiz-adv-x="1000" d="M500 1000C224.3125 1000 0 775.6875 0 500S224.3125 0 500 0S1000 224.3125 1000 500S775.6875 1000 500 1000zM500 100C279.4375 100 100 279.4375 100 500C100 720.5625 279.4375 900 500 900C720.5625 900 900 720.5625 900 500C900 279.4375 720.5625 100 500 100zM549.9999999999973 750H449.9999999999973V550H249.9999999999973V450H449.9999999999973V250H549.9999999999973V450H749.9999999999973V550H549.9999999999973V750z" />
    <glyph glyph-name="add-circle-filled"
      unicode="&#xEA0A;"
      horiz-adv-x="1000" d="M507.46875 512.34375V767.3125A9.90625 9.90625 0 1 1 487.65625 767.3125V512.3125H232.6875A9.90625 9.90625 0 1 1 232.6875 492.53125H487.6875V232.65625A9.90625 9.90625 0 1 1 507.46875 232.65625V492.53125H767.34375A9.90625 9.90625 0 1 1 767.34375 512.34375H507.46875zM500 1000C776.03125 1000 1000 776.03125 1000 500S776.03125 0 500 0S0 223.96875 0 500S223.96875 1000 500 1000z" />
    <glyph glyph-name="add-circle-medium"
      unicode="&#xEA0B;"
      horiz-adv-x="1000" d="M537.5 771.875H459.375V537.5H228.125V459.375H462.5V225H540.625V459.375H775V537.5H540.625V771.875zM500 1000C225 1000 0 775 0 500S225 0 500 0S1000 225 1000 500S775 1000 500 1000zM500 78.125C265.625 78.125 78.125 265.625 78.125 500S265.625 921.875 500 921.875S921.875 731.25 921.875 500S734.375 78.125 500 78.125z" />
    <glyph glyph-name="add-circle-thin"
      unicode="&#xEA0C;"
      horiz-adv-x="1000" d="M762.5 525H521.875V759.375C521.875 771.875 512.5 781.25 500 781.25C487.5 781.25 478.125 771.875 478.125 759.375V521.875H237.5C225 521.875 215.625 512.5 215.625 500C215.625 487.5 225 478.125 237.5 478.125H475V237.5C475 225 484.375 215.625 496.875 215.625C509.375 215.625 518.75 225 518.75 237.5V478.125H759.375C771.875 478.125 781.25 487.5 781.25 500C781.25 515.625 771.875 525 762.5 525zM500 1000C225 1000 0 775 0 500S225 0 500 0S1000 225 1000 500S775 1000 500 1000zM500 43.75C246.875 43.75 43.75 246.875 43.75 500S246.875 956.25 500 956.25S956.25 753.125 956.25 500S753.125 43.75 500 43.75z" />
    <glyph glyph-name="add-edge"
      unicode="&#xEA0D;"
      horiz-adv-x="1000" d="M125 625C56.25 625 0 568.75 0 500S56.25 375 125 375C171.25 375 211.25 400 233.75 437.5H725V562.5H233.75C211.25 600 171.25 625 125 625zM125 425C83.75 425 50 458.75 50 500C50 541.25 83.75 575 125 575C166.25 575 200 541.25 200 500C200 458.75 166.25 425 125 425zM918.75 543.75V625H831.25V543.75H750V456.25H831.25V375H918.75V456.25H1000V543.75H918.75z" />
    <glyph glyph-name="add-new"
      unicode="&#xEA0E;"
      horiz-adv-x="1000" d="M945.3125 31.25H54.6875C25.375 31.25 0 57.28125 0 89.28125V941.96875C0 973.96875 25.40625 1000 54.6875 1000H945.3125C974.625 1000 1000 973.96875 1000 941.96875V89.28125C1000 57.28125 974.59375 31.25 945.3125 31.25zM722.65625 543.65625H527.34375V743.8125C527.34375 759.8125 515.625 771.8125 500 771.8125S472.65625 759.8125 472.65625 743.8125V543.65625H277.34375C261.71875 543.65625 250 531.625 250 515.625S261.71875 487.59375 277.34375 487.59375H472.65625V287.4375C472.65625 271.4375 484.375 259.4375 500 259.4375S527.34375 271.4375 527.34375 287.4375V487.59375H722.65625C738.28125 487.59375 750 499.625 750 515.625S738.28125 543.65625 722.65625 543.65625z" />
    <glyph glyph-name="add-node"
      unicode="&#xEA0F;"
      horiz-adv-x="1000" d="M480 693.1875H743.03125A121.5625 121.5625 0 0 1 969.6875 753.8125A121.5625 121.5625 0 0 1 848.46875 875C803.625 875 764.84375 850.75 743.03125 814.375H350.3125C403.625 788.9375 446.0625 744.0625 480 693.1875zM848.46875 826.5A72.9375 72.9375 0 0 0 921.21875 753.78125A72.9375 72.9375 0 0 0 848.46875 681.0625A72.9375 72.9375 0 0 0 775.75 753.78125A72.9375 72.9375 0 0 0 848.46875 826.5zM684.84375 339.25C631.53125 363.46875 591.53125 435 539.40625 539.25C473.9375 667.71875 401.21875 814.40625 242.4375 814.40625H226.65625A121.5625 121.5625 0 0 1 0 753.75A121.5625 121.5625 0 0 1 121.21875 632.53125C166.0625 632.53125 204.84375 656.78125 226.65625 693.15625H242.4375C320 693.15625 366.0625 614.375 430.3125 484.65625C490.9375 364.65625 558.78125 228.90625 695.75 210.7187500000001L753.9375 268.90625L684.875 339.21875zM121.25 681.0625A72.9375 72.9375 0 0 0 48.5 753.75A72.9375 72.9375 0 0 0 121.21875 826.46875A72.9375 72.9375 0 0 0 193.9375 753.75A72.9375 72.9375 0 0 0 121.21875 681.03125zM1000 359.84375L940.625 419.21875L848.46875 328.3437499999999L757.5625 419.25L698.1875000000005 359.875L789.0937500000003 268.9375L698.15625 178.03125L757.5625 118.65625L848.5 209.5625L939.4062500000005 118.625L998.78125 178.03125L907.8750000000005 268.96875L1000 359.8125z" />
    <glyph glyph-name="advanced-pie"
      unicode="&#xEA10;"
      horiz-adv-x="1000" d="M446.875 650.4375C404.84375 698.71875 342.71875 726.875 276.5625 726.875A222.59375 222.59375 0 0 1 112.21875 654.40625L72.1875 690.6875C124.25 749.03125 198.40625 781.25 276.53125 781.25C358.71875 781.25 434.875 747.03125 486.96875 684.625L446.90625 650.4375zM322.65625 229.75L314.625 282.09375C422.84375 300.21875 501 394.8125 501 503.4999999999999C501 539.75 493 571.9375 476.9375 604.125L525.0625 628.28125C545.0625 588.03125 555.125 547.78125 555.125 503.4999999999999A276.5625 276.5625 0 0 0 322.625 229.75zM244.5 227.75C106.21875 243.84375 0 362.59375 0 503.4999999999999C0 541.75 8.03125 577.96875 22.03125 612.1875L72.15625 592.0625A225.7500000000001 225.7500000000001 0 0 1 54.09375 503.4999999999999C54.09375 390.7812500000001 138.28125 294.1875 250.5 282.09375L244.5 227.75zM72.15625 592.0625L22.03125 612.1875C26.0625 620.21875 28.0625 626.25 32.0625 632.3125L80.1875 608.15625C76.125 602.125 74.15625 596.09375 72.15625 592.0625zM813.625 187.5L743.5 320.3125L593.1875 255.9374999999999L571.15625 304.25L765.53125 390.8125L835.65625 261.96875L973.9375000000005 340.46875L1000.0000000000005 294.1875L813.625 187.5zM733.46875 775.21875L787.5625 771.1875L765.53125 501.4999999999999L713.4375 505.4999999999999L733.4375 775.1875zM663.34375 720.84375L951.90625 718.84375V664.5L663.34375 666.53125V720.875zM849.6875 769.1875L901.8125 765.125L881.75 493.4375L827.65625 497.46875L849.6875 769.1875zM663.34375 612.1875L951.90625 608.15625V553.8125L663.34375 557.84375V612.1875z" />
    <glyph glyph-name="ai-agent"
      unicode="&#xEA11;"
      horiz-adv-x="1000" d="M366.7659090909091 831.1431818181818C410.0363636363637 828.9479545454545 444.4454545454546 793.1711363636364 444.4477272727273 749.3568181818182V444.4477272727273H737.5477272727273L741.7659090909091 444.3363636363637C785.0340909090909 442.1409090909091 819.4454545454545 406.3613636363636 819.4477272727273 362.5477272727274V81.8977272727271L819.3363636363638 77.6818181818181C817.2113636363636 35.8090909090909 783.6386363636364 2.2340909090909 741.7659090909091 0.1113636363635L737.5477272727273 0H81.8981818181818L77.6811363636364 0.1113636363635C35.8072727272727 2.2340909090909 2.2354681818182 35.8068181818181 0.1109729545455 77.6818181818181L0 81.8977272727271V749.3568181818182C0.0004255340909 793.1720454545455 34.4102272727273 828.949090909091 77.6811363636364 831.1431818181818L81.8981818181818 831.2540909090909H362.5477272727273L366.7659090909091 831.1431818181818zM62.5 81.8977272727271C62.5004545454546 71.1863636363636 71.1859090909091 62.5 81.8981818181818 62.5H375V381.9477272727273H62.5V81.8977272727271zM444.4477272727273 62.5H737.5477272727273C748.2613636363636 62.5 756.9454545454545 71.1863636363636 756.9477272727273 81.8977272727271V362.5477272727274C756.9454545454545 373.2590909090909 748.2590909090909 381.9454545454545 737.5477272727273 381.9477272727273H444.4477272727273V62.5zM81.8981818181818 768.7545454545455C71.1859090909091 768.7545454545455 62.5004545454546 760.0681818181818 62.5 749.3568181818182V449.3068181818182H381.9477272727273V749.3568181818182C381.9454545454546 760.0681818181818 373.2613636363637 768.7545454545455 362.5477272727273 768.7545454545455H81.8981818181818zM778.315909090909 991.9845681818182C779.3159090909091 994.71875 783.184090909091 994.71875 784.184090909091 991.9845454545454L809.9636363636363 921.5727272727272C828.9318181818181 869.7597727272728 869.7590909090909 828.9320454545455 921.5727272727274 809.9627272727273L991.984090909091 784.1845454545455C994.7181818181818 783.1834090909091 994.7181818181818 779.3165909090909 991.984090909091 778.3154545454545L921.5727272727274 752.5363636363636C869.7590909090909 733.5681818181818 828.9318181818181 692.7409090909091 809.9636363636363 640.9272727272727L784.184090909091 570.515909090909C783.184090909091 567.7818181818182 779.3159090909091 567.7818181818182 778.315909090909 570.515909090909L752.5363636363637 640.9272727272727C733.5681818181819 692.7409090909091 692.7409090909091 733.5681818181818 640.9272727272728 752.5363636363636L570.5159090909091 778.3154545454545C567.7818181818182 779.3165909090909 567.7818181818182 783.1834090909091 570.5159090909091 784.1845454545455L640.9272727272728 809.9627272727273C692.7409090909091 828.9320454545455 733.5681818181819 869.7597727272728 752.5363636363637 921.5729545454546L778.315909090909 991.9845681818182z" />
    <glyph glyph-name="alert"
      unicode="&#xEA12;"
      horiz-adv-x="1000" d="M994.78125 82.71875L540.21875 946.34375C524.5 976.21875 475.53125 976.21875 459.78125 946.34375L5.21875 82.71875A45.46875 45.46875 0 0 1 45.4375 16.09375H954.5625A45.5 45.5 0 0 1 994.78125 82.71875zM500 152.4375A45.46875 45.46875 0 1 0 500.0312500000001 243.375A45.46875 45.46875 0 0 0 500.0312500000001 152.4375zM545.46875 334.2499999999999H454.53125V652.4375H545.46875V334.2499999999999z" />
    <glyph glyph-name="app-store"
      unicode="&#xEA13;"
      horiz-adv-x="1000" d="M0 384.7499999999999V521.71875C0 532.59375 8.6875 543.4375 21.75 543.4375H263.03125L156.5625 363.03125H21.75C8.6875 363.03125 0 371.71875 0 384.7499999999999zM169.5625 106.5L93.46875 54.3125C82.59375 47.8125 76.09375 52.125 78.25 65.1875L86.96875 154.3125C89.15625 165.1875 100 171.71875 110.875 165.1875L169.5625 130.40625C180.4375 123.875 180.4375 113.03125 169.5625 106.5zM189.125 156.5L128.25 191.25C117.40625 197.78125 115.21875 210.8125000000001 121.75 221.6875L395.625 697.8125C402.15625 708.65625 415.1875 713.03125 426.0625 706.5L486.9375 671.71875C497.78125 665.1875 499.96875 652.15625 493.4375 641.28125L219.5625 165.1875C213.03125 154.3125 200 149.96875 189.125 156.5zM397.8125 363.03125L502.1875 543.4375H563.03125L647.8125 363.03125H397.8125zM739.125 308.6562500000005C715.21875 319.53125 595.65625 591.2812500000005 565.21875 663.0312500000005C534.78125 734.7500000000003 443.46875 921.7187500000005 473.90625 936.9375000000005C495.65625 947.8125000000005 569.5625 799.9687500000003 628.28125 710.8437500000005C684.78125 621.7187500000005 802.1875 391.2812500000005 817.40625 365.2187499999999C830.4375 339.0937500000005 802.1875 317.3750000000005 786.96875 310.8437500000005C771.75 302.1562500000004 763.03125 295.6250000000005 739.15625 308.6562500000005zM815.21875 182.5937500000004L780.4375 239.0937500000004C773.90625 252.1562500000005 776.0625 265.1875000000004 789.125 271.7187500000005L823.90625 289.0937500000004C834.78125 295.6562500000005 850 291.2812500000004 856.53125 278.2500000000004L884.78125 223.8750000000004C891.3125 213.0312500000005 886.96875 195.6250000000004 873.90625 189.0937500000004L850 176.0625000000005C839.125 167.3750000000004 823.90625 171.6875000000005 815.21875 182.5937500000004zM947.8125 36.9375000000005C939.125 60.8437500000005 882.625 60.8437500000005 856.53125 97.8125000000005C832.625 132.5937500000005 852.15625 152.1562500000005 863.03125 160.8437500000004C965.21875 217.3750000000005 947.8125 36.9375000000005 947.8125 36.9375000000005zM1000 384.7499999999999C1000 371.71875 991.3125 363.03125 978.25 363.03125H858.6875C856.5 369.53125 854.34375 376.0625 850 382.5937500000001C847.8125 389.09375 839.125 404.3125000000001 828.25 423.875C813.03125 454.3125 789.125 497.8125 765.21875 543.4375H978.25C991.3125 543.4375 1000 532.5937500000005 1000 521.71875V384.7499999999999z" />
    <glyph glyph-name="app-workspaces"
      unicode="&#xEA14;"
      horiz-adv-x="1000" d="M400 450H200C171.875 450 150 428.125 150 400V200C150 171.875 171.875 150 200 150H400C428.125 150 450 171.875 450 200V400C450 428.125 428.125 450 400 450zM400 200H200V400H400V200zM800 450H600C571.875 450 550 428.125 550 400V200C550 171.875 571.875 150 600 150H800C828.125 150 850 171.875 850 200V400C850 428.125 828.125 450 800 450zM800 200H600V400H800V200zM900 1000H100C43.75 1000 0 956.25 0 900V100C0 43.75 43.75 0 100 0H900C956.25 0 1000 43.75 1000 100V900C1000 956.25 956.25 1000 900 1000zM925 100C925 87.5 912.5 75 900 75H100C87.5 75 75 87.5 75 100V900C75 912.5 87.5 925 100 925H900C912.5 925 925 912.5 925 900V100zM800 850H600C571.875 850 550 828.125 550 800V600C550 571.875 571.875 550 600 550H800C828.125 550 850 571.875 850 600V800C850 828.125 828.125 850 800 850zM800 600H600V800H800V600zM400 850H200C171.875 850 150 828.125 150 800V600C150 571.875 171.875 550 200 550H400C428.125 550 450 571.875 450 600V800C450 828.125 428.125 850 400 850zM400 600H200V800H400V600z" />
    <glyph glyph-name="applet"
      unicode="&#xEA15;"
      horiz-adv-x="1000" d="M846.875 803.125H137.5V678.125H846.875V803.125zM846.875 571.875H137.5V446.875H846.875V571.875zM846.875 321.875H137.5V196.875H846.875V321.875zM943.75 1000H40.625C18.75 1000 0 981.25 0 959.375V43.75C0 21.875 18.75 3.125 40.625 3.125H943.75C965.625 3.125 984.375 21.875 984.375 43.75V959.375C987.5 981.25 968.75 1000 943.75 1000zM912.5 71.875H71.875V925H912.5V71.875z" />
    <glyph glyph-name="applets"
      unicode="&#xEA16;"
      horiz-adv-x="1000" d="M450 200H550V300H450V200zM150 650H350V850H150V650zM400 400H600V600H400V400zM150 400H350V600H150V400zM150 150H350V350H150V150zM400 650H600V850H400V650zM900 1000H100C43.75 1000 0 956.25 0 900V100C0 43.75 43.75 0 100 0H900C956.25 0 1000 43.75 1000 100V900C1000 956.25 956.25 1000 900 1000zM925 100C925 87.5 912.5 75 900 75H100C87.5 75 75 87.5 75 100V900C75 912.5 87.5 925 100 925H900C912.5 925 925 912.5 925 900V100zM650 650H850V850H650V650zM700 450H800V550H700V450zM700 200H800V300H700V200z" />
    <glyph glyph-name="application"
      unicode="&#xEA17;"
      horiz-adv-x="1000" d="M943.75 1000H40.625C18.75 1000 0 981.25 0 959.375V43.75C0 21.875 18.75 3.125 40.625 3.125H943.75C965.625 3.125 984.375 21.875 984.375 43.75V959.375C987.5 981.25 968.75 1000 943.75 1000zM325 71.875H71.875V743.75H325V71.875zM912.5 71.875H378.125V743.75H912.5V71.875zM912.5 800H71.875V928.125H912.5V800zM240.625 650H140.625V150H240.625V650zM846.875 275H453.125V150H846.875V275zM846.875 650H453.125V525H846.875V650zM846.875 465.625H453.125V340.625H846.875V465.625z" />
    <glyph glyph-name="apps"
      unicode="&#xEA18;"
      horiz-adv-x="1000" d="M978.53125 0H271.5A21.6875 21.6875 0 0 0 250 21.5V209H771.5C783.21875 209 791.03125 216.8125 791.03125 228.53125V750H978.53125C990.25 750 1000 740.21875 1000 728.5V21.5A21.6875 21.6875 0 0 0 978.5 0zM21.5 250A21.6875 21.6875 0 0 0 0 271.5000000000001V978.5C0 990.21875 9.78125 1000 21.5 1000H728.53125C740.25 1000 750 990.21875 750 978.5V250H21.46875z" />
    <glyph glyph-name="area-chart"
      unicode="&#xEA19;"
      horiz-adv-x="1000" d="M984.0625 896.75C994.03125 910.9375 1000 908.9375 1000 892.6875V93.75H15.15625C7.1875 93.75 3.1875 97.8125 1.1875 101.8749999999999S-0.8125 112 5.1875 120.125L240.4375 418.1874999999999C254.3750000000001 434.4375 268.34375 434.4375 280.3125 420.21875L356.0625 351.28125C364.03125 347.21875 370 343.15625 378 345.1875C385.96875 345.1875 391.9375 349.2500000000001 395.9375 355.3437500000001L557.40625 602.71875C567.40625 620.96875 581.34375 623.0312500000003 595.28125 606.78125L708.9375 499.28125C722.875 485.125 736.84375 487.15625 748.8125 503.3437500000004L984.0625 896.78125z" />
    <glyph glyph-name="arrow-bold-circle-left"
      unicode="&#xEA1A;"
      horiz-adv-x="1000" d="M500 1000C225 1000 0 775 0 500S225 0 500 0S1000 225 1000 500S775 1000 500 1000zM665.625 465.625H418.75L481.25 390.625L418.75 343.75L290.625 500L418.75 656.25L478.125 609.375L415.625 534.375H662.5V465.625z" />
    <glyph glyph-name="arrow-bold-circle-right"
      unicode="&#xEA1B;"
      horiz-adv-x="1000" d="M500 1000C225 1000 0 775 0 500S225 0 500 0S1000 225 1000 500S775 1000 500 1000zM581.25 343.75L521.875 390.625L584.375 465.625H337.5V531.25H584.375L521.875 606.25L581.25 653.125L709.375 496.8749999999999L581.25 343.75z" />
    <glyph glyph-name="arrow-bold-down"
      unicode="&#xEA1C;"
      horiz-adv-x="1000" d="M418.75 306.25V1000H590.625V306.25L796.875 481.25L906.25 340.625L506.25 0L106.25 337.5L215.625 478.125L418.75 306.25z" />
    <glyph glyph-name="arrow-bold-left"
      unicode="&#xEA1D;"
      horiz-adv-x="1000" d="M306.25 581.25H1000V409.375H306.25L481.25 203.125L340.625 93.75L3.125 493.75L340.625 893.75L481.25 784.375L306.25 581.25z" />
    <glyph glyph-name="arrow-bold-right"
      unicode="&#xEA1E;"
      horiz-adv-x="1000" d="M693.75 418.75H0V590.625H693.75L518.75 796.875L659.375 906.25L996.875 506.25L659.375 106.25L518.75 215.625L693.75 418.75z" />
    <glyph glyph-name="arrow-bold-up"
      unicode="&#xEA1F;"
      horiz-adv-x="1000" d="M581.25 693.75V0H406.25V693.75L200 518.75L90.625 659.375L490.625 996.875L890.625 659.375L781.25 518.75L581.25 693.75z" />
    <glyph glyph-name="arrow-down"
      unicode="&#xEA20;"
      horiz-adv-x="1000" d="M73.96875 781.25L0 707.28125L463.03125 244.28125L500 208.90625L536.96875 244.28125L1000 707.28125L926.03125 781.25L500 355.21875L73.96875 781.25z" />
    <glyph glyph-name="arrow-input"
      unicode="&#xEA21;"
      horiz-adv-x="1000" d="M375 278.125L606.25 509.375L375 737.5V565.625H31.25V450H375V278.125zM893.75 968.75H87.5C56.25 968.75 31.25 943.75 31.25 912.5V681.25H146.875V853.125H837.5V162.5H146.875V334.375H31.25V103.125C31.25 71.875 56.25 46.875 87.5 46.875H893.75C925 46.875 950 71.875 950 103.125V909.375C953.1250000000005 943.75 925 968.75 893.75 968.75z" />
    <glyph glyph-name="arrow-left"
      unicode="&#xEA22;"
      horiz-adv-x="1000" d="M717.15625 1000L254.125 536.96875L218.75 500L254.125 463.03125L717.15625 0L791.09375 73.96875L365.0625 500L791.09375 926.03125L717.1875 1000z" />
    <glyph glyph-name="arrow-output"
      unicode="&#xEA23;"
      horiz-adv-x="1000" d="M1000 509.375L768.75 740.625V568.75H425V453.125H768.75V281.25L1000 509.375zM806.25 162.5H115.625V853.125H806.25V790.625H921.875V909.375C921.875 940.625 896.875 965.625 865.625 965.625H56.25C25 965.625 0 940.625 0 909.375V103.125C0 71.875 25 46.875 56.25 46.875H862.5C893.75 46.875 918.75 71.875 918.75 103.125V234.375H803.125V162.5z" />
    <glyph glyph-name="arrow-right"
      unicode="&#xEA24;"
      horiz-adv-x="1000" d="M292.71875 1000L218.75 926.03125L644.78125 500L218.75 73.96875L292.71875 0L755.71875 463.03125L791.09375 500L755.71875 536.96875L292.71875 1000z" />
    <glyph glyph-name="arrow-right-down-medium"
      unicode="&#xEA25;"
      horiz-adv-x="1000" d="M0 937.5V308.4374999999999H816.125L641.0625 96.4375L726.5 28.09375L1000 363.09375L726.5 698.1875L641.0625 629.84375L816.125 417.8437500000001H109.40625V937.5z" />
    <glyph glyph-name="arrow-right-medium"
      unicode="&#xEA26;"
      horiz-adv-x="1000" d="M0 446.1875H816.125L641.0625 234.21875L726.5 165.875L1000 500.8749999999999L726.5 835.9375L641.0625 767.59375L816.125 555.59375H0z" />
    <glyph glyph-name="arrow-tail-left"
      unicode="&#xEA27;"
      horiz-adv-x="1000" d="M206.25 646.875L153.125 687.5L0 500L153.125 312.5L206.25 353.125L112.5 465.625H690.625V531.25H115.625L206.25 646.875zM931.25 534.375V468.75H1000V534.375H931.25zM759.375 465.625H862.5V531.25H759.375V465.625z" />
    <glyph glyph-name="arrow-tail-right"
      unicode="&#xEA28;"
      horiz-adv-x="1000" d="M0 465.625H68.75V531.25H0V465.625zM137.5 465.625H240.625V531.25H137.5V465.625zM846.875 687.5L793.75 646.875L887.5 534.375H306.25V468.75H884.375L790.625 356.25L843.75 315.625L996.875 503.1250000000001L846.875 687.5z" />
    <glyph glyph-name="arrow-tail-solid-left"
      unicode="&#xEA29;"
      horiz-adv-x="1000" d="M88.1875 463.90625L233.125 318.96875L200.5625 286.375L0 486.9375L200.5625 687.5L233.125 654.9375L88.1875 509.9687499999999H1000V463.90625H88.1875z" />
    <glyph glyph-name="arrow-tail-solid-right"
      unicode="&#xEA2A;"
      horiz-adv-x="1000" d="M911.8125 510L766.875 654.9375L799.4375 687.5L1000 486.9375L799.4375 286.375L766.875 318.96875L911.8125 463.90625H0V509.9687499999999H911.8125z" />
    <glyph glyph-name="arrow-tail-subright"
      unicode="&#xEA2B;"
      horiz-adv-x="1000" d="M93.75 875H31.25V812.5H93.75V875zM806.25 487.5L756.25 450L840.625 343.75H93.75V593.75H31.25V281.25H840.625L756.25 175L806.25 137.5L946.875 312.5000000000005L806.25 487.5000000000003zM93.75 750H31.25V656.25H93.75V750z" />
    <glyph glyph-name="arrow-up"
      unicode="&#xEA2C;"
      horiz-adv-x="1000" d="M500 781.25L463.03125 745.875L0 282.8437500000001L73.96875 208.90625L500 634.9375L926.03125 208.90625L1000 282.8125L536.96875 745.875L500 781.25z" />
    <glyph glyph-name="asset-outline"
      unicode="&#xEA2D;"
      horiz-adv-x="1000" d="M500 65.625L359.375 206.25L325 171.875L500 0L671.875 171.875L637.5 206.25zM828.125 671.875L793.75 637.5L934.375 496.8749999999999L793.75 356.25L828.125 321.875L1000 500zM171.875 671.875L0 500L171.875 328.125L206.25 362.5L65.625 500L206.25 640.625zM328.125 828.125L362.5 793.75L500 934.375L640.625 793.75L675 828.125L500 1000zM500 337.5C590.625 337.5 662.5 409.375 662.5 500S590.625 662.5 500 662.5S337.5 590.625 337.5 500S409.375 337.5 500 337.5zM500 615.625C565.625 615.625 615.625 562.5 615.625 500S562.5 384.375 500 384.375S384.375 437.5 384.375 500S434.375 615.625 500 615.625z" />
    <glyph glyph-name="asset-outline-small"
      unicode="&#xEA2E;"
      horiz-adv-x="1000" d="M500 103.125L365.625 237.5L312.5 187.5L500 0L687.5 187.5L634.375 240.625zM812.5 687.5L759.375 634.375L893.75 500L759.375 365.625L812.5 312.5L1000 500zM187.5 687.5L0 500L187.5 312.5L240.625 365.625L103.125 500L237.5 634.375zM500 328.125C593.75 328.125 671.875 406.25 671.875 500S593.75 671.875 500 671.875S328.125 593.75 328.125 500S406.25 328.125 500 328.125zM500 596.875C553.125 596.875 596.875 553.125 596.875 500S553.125 403.125 500 403.125S403.125 446.875 403.125 500S446.875 596.875 500 596.875zM312.5 812.5L365.625 759.375L500 896.875L634.375 762.5L687.5 812.5L500 1000z" />
    <glyph glyph-name="assets"
      unicode="&#xEA2F;"
      horiz-adv-x="1000" d="M986.34375 428.21875L507.8125 217.28125C505.8437500000001 215.34375 503.90625 215.34375 500 215.34375C498.03125 215.34375 494.125 215.34375 492.1875 217.28125L13.65625 428.21875C1.96875 434.09375 -1.96875 445.8125 1.96875 457.53125C7.8125 467.28125 19.53125 473.15625 29.3125 467.28125L500 258.3125L970.71875 467.28125C980.4687500000005 473.15625 994.15625 467.28125 998.0625 457.53125C1001.9687500000002 445.8125 998.0625 434.09375 986.34375 428.21875zM986.34375 557.125L507.8125 344.25C505.8437500000001 342.28125 503.90625 342.28125 500 342.28125C498.03125 342.28125 494.125 342.28125 492.1875 344.25L13.65625 557.125C1.96875 561.03125 -1.96875 572.75 1.96875 584.46875C7.8125 596.1875 19.53125 600.09375 29.3125 596.1875L500 387.21875L970.71875 596.1875C980.4687500000005 600.09375 994.15625 596.1875 998.0625 584.46875S998.0625 561.03125 986.34375 557.125zM507.8125 471.1875C505.8437500000001 471.1875 503.90625 469.25 500 469.25C498.03125 469.25 494.125 471.1875 492.1875 471.1875L13.65625 684.09375C5.875 688 0 695.8125 0 703.625S5.875 719.25 13.6875 723.15625L492.1875 936.03125C498.0625 938 503.90625 938 507.8125 936.03125L986.34375 723.15625C994.15625 719.25 1000 711.4375 1000 703.625S994.125 688 986.3125 684.09375L507.8125 471.1875zM29.28125 340.34375L500 131.34375L970.71875 340.34375C980.4687500000005 344.25 994.15625 340.34375 998.0625 328.625C1001.9687500000002 318.84375 998.0625 307.125 986.34375 301.28125L507.8125 88.375C505.8437500000001 88.375 503.90625 86.4375 500 86.4375C498.03125 86.4375 494.125 88.375 492.1875 88.375L13.65625 301.28125C1.96875 307.125 -1.96875 318.84375 1.96875 328.625C7.8125 340.34375 19.53125 344.25 29.3125 340.34375z" />
    <glyph glyph-name="attachment"
      unicode="&#xEA30;"
      horiz-adv-x="1000" d="M741.6875 937.5A275.53125 275.53125 0 0 1 555.4375 862.34375H553.875V860.78125L253.3125 560.25A156.46875 156.46875 0 0 1 253.3125 339.5312500000001A156.46875 156.46875 0 0 1 474.03125 339.5312500000001L735.4375 600.9375L663.4375 671.375L403.59375 409.96875C384.1875 390.5937500000001 343.15625 390.5937500000001 323.75 409.96875C304.34375 429.40625 304.34375 470.40625 323.75 489.8125L624.28125 788.78125C690.9375 851.5 792.625 855.875 852.84375 791.90625C914.8437500000005 726.03125 914.6250000000005 620.46875 854.40625 560.25L553.8437500000005 259.71875C453.3750000000004 155.03125 284.65625 159.09375 178.1875 261.28125C73 362.21875 71.84375 529.0625 178.1875 635.375L364.4375000000004 820.0625L294.0000000000004 892.09375L107.7500000000004 705.84375C-36.3749999999996 561.71875 -35.9999999999996 328.75 109.3125000000004 189.2812500000001C252.7500000000004 51.5625 484.1875000000004 45.1875 624.3125000000003 189.2812500000001L625.8750000000005 190.84375L924.8437500000005 489.8125C1024.9062500000005 589.8750000000005 1024.6875000000005 756.375 926.4062500000005 860.78125C876.34375 913.96875 809.0625 938.0625 741.71875 937.5z" />
    <glyph glyph-name="automation"
      unicode="&#xEA31;"
      horiz-adv-x="1000" d="M612.5 734.375L706.25 546.875L1000 606.25L984.375 681.25L746.875 634.375L678.125 775L746.875 915.625L984.375 868.75L996.875 937.5L703.125 996.875L609.375 809.375H296.875C284.375 878.125 225 928.125 150 928.125C68.75 928.125 0 862.5 0 778.125S68.75 628.125 150 628.125C162.5 628.125 175 628.125 184.375 631.25L350 256.25H100C43.75 256.25 0 212.5 0 156.25V0H803.125V156.25C803.125 212.5 759.375 256.25 703.125 256.25H434.375L253.125 665.625C271.875 684.375 287.5 706.25 296.875 734.375zM703.125 181.25C715.625 181.25 728.125 168.75 728.125 156.25V75H75V156.25C75 168.75 87.5 181.25 100 181.25zM150 703.125C109.375 703.125 75 737.5 75 778.125S109.375 853.125 150 853.125S225 818.75 225 778.125S193.75 703.125 150 703.125z" />
    <glyph glyph-name="automation-alternate"
      unicode="&#xEA32;"
      horiz-adv-x="1000" d="M950 703.125L987.5 765.625L731.25 918.75L578.125 775L303.125 853.125C300 934.375 234.375 1000 150 1000C68.75 1000 0 931.25 0 850S68.75 700 150 700H162.5L337.5 256.25H100C43.75 256.25 0 212.5 0 156.25V0H803.125V156.25C803.125 212.5 759.375 256.25 703.125 256.25H421.875L234.375 725C256.25 737.5 271.875 759.375 284.375 781.25L556.25 706.25L581.25 503.1250000000001L875 459.375L887.5 534.375L650 568.75L631.25 718.75L743.75 825zM703.125 181.25C715.625 181.25 728.125 168.75 728.125 156.25V75H75V156.25C75 168.75 87.5 181.25 100 181.25zM150 775C109.375 775 75 809.375 75 850S109.375 925 150 925S225 890.625 225 850S193.75 775 150 775z" />
    <glyph glyph-name="back-arrow"
      unicode="&#xEA33;"
      horiz-adv-x="1000" d="M317.7187499999973 536.9375000000005H810.1874999999973V457.5625000000008H318.1874999999973L491.6249999999977 276.6875000000005L434.2812499999973 221.8750000000004L169.8437499999973 497.7187500000005L434.2812499999973 772.6562500000003L491.6249999999977 717.7812500000005L317.7187499999973 536.9062500000003zM500 1000C223.875 1000 0 776.125 0 500S223.875 0 500 0S1000 223.875 1000 500S776.125 1000 500 1000zM47.625 500C47.625 749.875 250.1562500000001 952.375 500 952.375C749.84375 952.375 952.375 749.875 952.375 500S749.84375 47.625 500 47.625C250.1562500000001 47.625 47.625 250.1249999999999 47.625 500z" />
    <glyph glyph-name="back-arrow-filled"
      unicode="&#xEA34;"
      horiz-adv-x="1000" d="M1000 500C1000 223.84375 776.15625 0 500 0S0 223.84375 0 500S223.84375 1000 500 1000S1000 776.15625 1000 500zM308.59375 538.8125H825.6875V455.5H309.0625L491.1875 265.625L430.96875 208L153.28125 497.6875000000001L430.96875 786.34375L491.1875 728.71875L308.5625 538.8125z" />
    <glyph glyph-name="bars"
      unicode="&#xEA35;"
      horiz-adv-x="1000" d="M752.09375 0V1000H968.75V0H752.09375zM391.6875 1000H608.3125V0H391.6875V1000zM31.25 1000H247.90625V0H31.25V1000z" />
    <glyph glyph-name="bell"
      unicode="&#xEA36;"
      horiz-adv-x="1000" d="M806.25 306.25V562.5C806.25 718.75 721.875 853.125 578.125 887.5V921.875C575 965.625 540.625 1000 500 1000S425 965.625 425 921.875V887.5C278.125 853.125 193.75 721.875 193.75 565.625V309.375L93.75 206.25V156.25H906.25V206.25L806.25 306.25zM500 0C506.25 0 512.5 0 521.875 3.125C556.25 9.375 581.25 34.375 593.75 62.5C600 75 600 87.5 600 103.125H396.875C400 46.875 443.75 0 500 0z" />
    <glyph glyph-name="bell-alarm"
      unicode="&#xEA37;"
      horiz-adv-x="1000" d="M278.125 918.75L206.25 993.75C87.5 900 6.25 753.125 0 590.625H100C109.375 725 175 843.75 278.125 918.75zM900 590.625H1000C993.75 756.25 912.5 900 793.75 993.75L721.875 921.875C825 843.75 890.625 725 900 590.625zM800 565.625C800 721.875 718.75 856.25 575 890.625V921.875C575 965.625 540.625 1000 500 1000C459.375 1000 425 965.625 425 921.875V887.5C281.25 853.125 200 721.875 200 565.625V309.375L100 206.25V156.25H903.125V206.25L803.125 309.375V565.625zM500 0C506.25 0 512.5 0 518.75 3.125C550 9.375 578.125 34.375 590.625 62.5C596.875 75 596.875 87.5 596.875 103.125H396.875C400 46.875 443.75 0 500 0z" />
    <glyph glyph-name="bold"
      unicode="&#xEA38;"
      horiz-adv-x="1000" d="M732.15625 531.25C774.5625 580.34375 799.09375 645.09375 799.09375 714.28125A284.84375 284.84375 0 0 1 513.4375 1000H156.25V0H584.8125A284.84375 284.84375 0 0 1 870.53125 285.71875C870.53125 388.4062500000001 814.71875 479.90625 732.15625 531.25zM370.53125 857.15625H484.375C546.875 857.15625 598.21875 792.40625 598.21875 714.28125S546.875 571.4375 484.375 571.4375H370.53125V857.15625zM549.09375 142.8437499999999H370.53125V428.5625H549.09375C613.84375 428.5625 667.40625 363.84375 667.40625 285.71875C667.40625 207.59375 613.84375 142.8437499999999 549.09375 142.8437499999999z" />
    <glyph glyph-name="bolt"
      unicode="&#xEA39;"
      horiz-adv-x="1000" d="M635.40625 1000L557.28125 583.34375H807.28125L390.625 0L468.75 416.65625H218.75L635.40625 1000z" />
    <glyph glyph-name="branch-node"
      unicode="&#xEA3A;"
      horiz-adv-x="1000" d="M496.78125 687.90625H767.71875C790.3125 649.1875 829.03125 626.625 877.40625 626.625C945.15625 623.375 1000 681.4375 1000 749.1875S945.15625 875 877.40625 875C832.25 875 790.3125 849.1875 767.71875 813.71875H361.3125C416.15625 784.65625 461.3125 739.53125 496.8125 687.90625zM877.40625 823.375C919.34375 823.375 951.625 791.125 951.625 749.1875S919.34375 675 877.40625 675S803.21875 707.25 803.21875 749.1875C800 791.125 835.46875 823.375 877.40625 823.375zM874.1875 371.78125C829.03125 371.78125 787.09375 345.9687499999999 767.75 310.5H751.625C683.875 310.5 638.71875 368.5625 587.09375 468.5312500000001C583.875 471.78125 564.5 510.46875 558.0625 523.375C545.15625 552.4375 493.53125 639.53125 493.53125 639.53125C487.09375 649.21875 477.40625 665.3125 474.1875 668.5625C425.8125 749.1875 354.8125 810.46875 251.625 810.46875H232.25C212.875 849.21875 170.96875 875 125.8125 875C54.84375 875 0 820.15625 0 749.1875C0 678.25 54.84375 623.375 125.8125 623.375C170.96875 623.375 209.6875 649.1875 232.25 684.6875H251.625C306.4375 684.6875 345.15625 649.1875 383.875 584.6875C387.09375 578.21875 390.3125 575 393.5625 568.5625C409.6875 539.5 425.8125 507.25 445.15625 468.5625C483.875 394.34375 522.59375 313.71875 580.65625 255.6562499999999L587.09375 249.1875C629.03125 207.2499999999999 683.875 181.4375 751.625 181.4375H767.75C790.3125 142.7499999999999 829.03125 120.1875 874.1875 120.1875C941.9375 120.15625 1000 175 1000 245.9375C1000 316.875 945.15625 371.75 874.1875 371.75zM125.8125 675C83.875 675 51.625 707.25 51.625 749.1875S83.875 823.375 125.8125 823.375S200 791.125 200 749.1875S167.75 675 125.8125 675zM874.1875 171.78125C832.25 171.78125 800 204.03125 800 245.9687500000001S832.25 320.1562499999999 874.1875 320.1562499999999S948.375 287.90625 948.375 245.9687500000001S916.125 171.78125 874.1875 171.78125z" />
    <glyph glyph-name="branch-node-vert"
      unicode="&#xEA3B;"
      horiz-adv-x="1000" d="M187.5 634.5V228.2500000000001C150 206.375 125 165.7500000000001 125 118.875C125 50.125 181.25 -6.1249999999999 250 -6.1249999999999S375 50.125 375 118.875C375 165.7500000000001 350 206.375 312.5 228.2500000000001V500.1250000000001C259.375 537.625 212.5 581.375 187.5 634.5zM250 197.0000000000001C290.625 197.0000000000001 325 162.625 325 122C325 81.375 290.625 47 250 47C209.375 47 175 81.3750000000005 175 122C175 162.625 209.375 197.0000000000001 250 197.0000000000001zM750 -2.9999999999999C818.75 -2.9999999999999 875 53.25 875 122C875 168.875 850 206.375 812.5 228.2500000000001V247C812.5 315.75 784.375 368.8750000000001 743.75 412.625L737.5 418.875C681.25 475.125 600 515.75 525 553.25C487.5 572 453.125 587.625 425 606.375C418.75 609.5 415.625 612.625 409.375 615.75C350 653.25 312.5 693.875 312.5 747V765.75C350 787.625 375 828.25 375 872C375 940.75 318.75 997 250 997S125 940.75 125 872C125 825.125 150 784.5 187.5 762.625V747C187.5 640.75 250 575.125 328.125 518.875L356.25 500.1250000000001S443.75 450.125 471.875 437.6249999999999C487.5 431.3750000000001 525 412.625 528.125 409.5C628.125 356.375 687.5 312.6249999999999 687.5 243.8750000000001V228.2500000000001C650 206.375 625 165.7500000000001 625 122C625 53.25 681.25 -2.9999999999999 750 -2.9999999999999zM250 797C209.375 797 175 831.375 175 872C175 912.625 209.375 947 250 947C290.625 947 325 912.625 325 872C325 831.375 290.625 797 250 797zM750 47C709.375 47 675 81.375 675 122C675 162.625 709.375 197.0000000000001 750 197.0000000000001C790.625 197.0000000000001 825 162.625 825 122C825 81.375 793.75 47 750 47z" />
    <glyph glyph-name="broom"
      unicode="&#xEA3C;"
      horiz-adv-x="1000" d="M911.375 1000L570.4375 659.0625A65.5625 65.5625 0 0 1 493.1875 647.71875A62.375 62.375 0 0 1 477.25 584.09375C429.53125 609.09375 372.71875 611.375 318.1875 588.625C213.625 536.375 140.90625 429.5625000000001 0 415.9375000000001C11.375 393.21875 25 370.5 43.1875 343.21875C102.25 334.125 159.09375 352.28125 204.53125 397.75C186.375 343.21875 143.1875 302.3125 86.375 281.84375A429.4062500000001 429.4062500000001 0 0 1 138.625 218.21875C204.5625 240.9375 229.5625 270.46875 165.90625 186.40625C193.1875 159.125 220.46875 129.5625 256.84375 106.84375C272.71875 163.6562500000001 313.625 206.84375 372.71875 229.59375C327.28125 186.40625 309.09375 125.03125 320.46875 56.84375C354.53125 34.125 386.375 15.9375 415.90625 0.03125C440.90625 106.84375 513.625 215.96875 588.625 318.21875C613.625 368.21875 609.09375 425.03125 581.8125 477.28125C604.5625 470.4999999999999 629.53125 475.03125 647.75 493.2187500000001C668.1875 513.65625 672.75 545.46875 659.09375 570.5L1000 911.375L911.375 1000z" />
    <glyph glyph-name="browser-size"
      unicode="&#xEA3D;"
      horiz-adv-x="1000" d="M1000 837.2812500000005V736.9687500000005H0V837.2812500000005A100.21875 100.21875 0 0 0 100 937.5000000000005H900C955.1875 937.5000000000005 1000 892.5625000000003 1000 837.2812500000005zM350 837.2812500000005A50 50 0 1 1 250 837.2812500000005A50 50 0 1 1 350 837.2812500000005zM200 837.2812500000005A50 50 0 1 1 100 837.2812500000005A50 50 0 1 1 200 837.2812500000005zM0 135.7500000000016V686.8437500000016H1000V135.7500000000016A100.15625 100.15625 0 0 0 900 35.5312500000016H100A100.1875 100.1875 0 0 0 0 135.7500000000016zM250 307.9375000000015V107.5000000000016H450L385.34375 172.2812500000015L485.34375 272.5000000000015L414.65625 343.3750000000016L314.65625 243.1562500000015L250 307.9375000000015zM314.65625 472.9375000000016L414.65625 372.7187500000016L485.34375 443.5937500000016L385.34375 543.8125000000016L450 608.5937500000016H250V408.1562500000016L314.65625 472.9375000000016zM550 107.5000000000016H750V307.9375000000015L685.34375 243.1562500000015L585.34375 343.3750000000016L514.65625 272.5000000000015L614.65625 172.2812500000015L550 107.5000000000016zM685.34375 472.9375000000016L750 408.1562500000016V608.5937500000016H550L614.65625 543.8125000000016L514.65625 443.5937500000016L585.34375 372.7187500000016L685.34375 472.9375000000016z" />
    <glyph glyph-name="bug"
      unicode="&#xEA3E;"
      horiz-adv-x="1000" d="M299.6875 1000C299.6875 948.8125 320.625 903.28125 352.5 868A307.8125 307.8125 0 0 1 288.8125 791.9375C283.65625 788.78125 278.3125 786 273.28125 782.59375L201.875 830.71875V902.1875H102.5V776.40625L124.21875 760.875L194.09375 714.3125C190.90625 710.625 187.84375 707.1875 184.78125 703.40625H118L55.9375 745.34375L0 661.5L74.53125 611.8125L86.96875 604.03125H127.34375A360.5625 360.5625 0 0 1 102.46875 472.0625C102.46875 380.3125 117.46875 305.8125 161.5 237.5625L17.09375 93.1875L88.5 21.75L226.71875 159.9375000000001C343.4375 49.65625 486.03125 9.3125 486.03125 9.3125C495.78125 6.8125 506.09375 7.3749999999995 515.53125 10.875C515.53125 10.875 651.71875 54.71875 771.75 159.9375000000001L911.5 10.875L982.90625 79.1875L836.96875 232.9375C890.65625 312.96875 897.53125 398.625 897.53125 472.0625C897.53125 518.46875 888.65625 562.96875 872.65625 604.03125H913.03125L925.46875 611.8125L1000 661.5L944.09375 745.3125L882 703.375H815.21875C812.21875 707.125 809.03125 710.625 805.90625 714.25L875.78125 760.8125L897.53125 776.375V902.15625H798.15625V830.75L728.25 784.1875C722 788.375 714.5625 791.1875 708.0625 795.03125A316.53125 316.53125 0 0 1 645.96875 868C678.125 903.28125 698.75 948.84375 698.75 1000H599.375C599.375 967.03125 583.3125 938.75 558.96875 920.8125C543.34375 939.34375 523.34375 951.875 499.96875 951.875C475.9375 951.875 455.28125 938.71875 439.40625 919.25C414.6875 937.125 399.0625 966.3125 399.0625 1000H299.6875zM330.75 703.4375H355.59375C353.4375 695.375 350.90625 687.1875 350.90625 678.5625C350.90625 624.75 392.84375 579.375 450.28125 562.125V132A578.5625 578.5625 0 0 0 372.65625 173.90625C389.4375 187.46875 400.625 207.65625 400.625 231.375A73.75 73.75 0 0 1 326.09375 305.90625C298.125 305.90625 275.1875 290.8437500000001 262.4375 268.625C211.65625 327.375 201.875 375.0625000000001 201.875 472.0625C201.875 567.4375 252.53125 652.46875 330.75 703.40625zM644.40625 703.4375H669.25C747.46875 652.46875 798.125 567.4375 798.125 472.0625C798.125 393.0625 795.21875 333.375 737.5625 268.625C724.8125 290.8124999999999 701.84375 305.90625 673.9062500000003 305.90625A73.75 73.75 0 0 1 599.3750000000005 231.375C599.3750000000005 208.4375 610.0000000000005 189.03125 625.7812500000005 175.4375A693.75 693.75 0 0 0 549.6875000000005 133.5625V562.09375C607.1562500000003 579.34375 649.0625000000005 624.71875 649.0625000000005 678.53125C649.0625000000005 687.125 646.5625000000003 695.34375 644.4062500000005 703.375zM326.09375 554.375C284.3125 554.375 251.5625000000001 510.71875 251.5625000000001 454.9687499999999S284.3125 355.5937499999999 326.09375 355.5937499999999C367.875 355.5937499999999 400.625 399.21875 400.625 454.9687499999999C400.625 510.71875 367.875 554.34375 326.09375 554.34375zM673.9062500000003 554.375C632.1250000000003 554.375 599.3750000000005 510.71875 599.3750000000005 454.9687499999999S632.1250000000003 355.5937499999999 673.9062500000003 355.5937499999999C715.6875 355.5937499999999 748.4375 399.21875 748.4375 454.9687499999999C748.4375 510.71875 715.71875 554.34375 673.9062500000003 554.34375z" />
    <glyph glyph-name="builder"
      unicode="&#xEA3F;"
      horiz-adv-x="1000" d="M0 678.1875L321.8125 1000L533.75 789.65625L463.125 719L423.84375 758.25L332.8125 668.75L262.1875 739.375L351.65625 828.90625L321.8125 858.6875L141.28125 678.1875L282.5625 538.5L211.9375 467.8125L0 678.1875zM759.8125 943.5C768.875 952.5625 781.46875 957.625 792.78125 957.625C804.0625 957.625 815.09375 952.53125 824.15625 943.5L940.34375 825.71875C958.4375 812.21875 958.4375 781.03125 940.34375 762.9375L865 686.0625L682.875 866.5625L759.8125 943.5zM638.9375 817.90625L50.25 233.9375V53.40625H230.78125L814.78125 640.53125L638.9375 817.90625zM715.875 464.65625L786.5 535.28125L1000 321.875L676.59375 3.125L463.09375 216.59375L533.75 287.25L676.625 144.375L857.15625 321.8125L824.15625 354.78125L734.6875 266.84375L664.0625 337.5L753.53125 427L715.875 464.65625z" />
    <glyph glyph-name="builder-outline"
      unicode="&#xEA40;"
      horiz-adv-x="1000" d="M984.375 784.375C1003.125 803.125 1003.125 834.375 984.375 856.25L856.25 984.375C846.875 993.75 834.375 1000 821.875 1000S796.875 993.75 787.5 984.375L675 875L875 675zM818.75 912.5L912.5 818.75L871.875 778.125L778.125 871.875zM240.625 565.625L106.25 700L300 893.75L337.5 856.25L209.375 728.125L262.5 675L390.625 803.125L437.5 756.25L487.5 812.5L300 1000L0 700L187.5 512.5zM625 821.875L50 250V50H250L825 625zM218.75 125H125V218.75L625 718.75L718.75 625zM778.125 521.875L725 468.75L803.125 390.625L675 262.5L728.125 209.375L856.25 337.5L893.75 300L700 106.25L531.25 275L478.125 221.875L700 0L1000 300z" />
    <glyph glyph-name="button-push-outline"
      unicode="&#xEA41;"
      horiz-adv-x="1000" d="M76.5625 829.6875V365.71875H287L192.53125 665.71875L169.53125 738.78125L241.8125 713.28125L782.34375 522.5L864.6875 493.4375L787.5 452.59375L583.84375 344.78125L828.46875 100.125L774.34375 46L536.21875 284.125L443.84375 88.5L402.09375 0.0625L372.71875 93.3437500000001L311.09375 289.15625H69.53125A69.53125 69.53125 0 0 0 0 358.6875V836.71875C0 875.125 31.125 906.25 69.53125 906.25H929.125C967.53125 906.25 998.6562500000005 875.125 998.6562500000005 836.71875V358.6875A69.53125 69.53125 0 0 0 929.125 289.15625H806.6875V365.71875H922.0937500000005V829.6875zM416.375 209.625L288.5625 615.5625L674.5 479.375L511.4375 393.0625L500.1875 387.09375L494.75 375.5625z" />
    <glyph glyph-name="button-push-outline-large"
      unicode="&#xEA42;"
      horiz-adv-x="1000" d="M56.25 828.125C53.125 828.125 50 825 50 821.875V343.75C50 340.625 53.125 337.5 56.25 337.5H287.5L190.625 625L175 668.75L218.75 653.125L790.625 462.5L843.75 443.75L793.75 418.75L568.75 306.25L831.25 43.75L796.875 9.375L534.375 271.875L421.875 46.875L396.875 -3.125L378.125 50L300 287.5H56.25C25 287.5 0 312.5 0 343.75V821.875C0 850 25 875 56.25 875H946.875C978.125 875 1003.125 850 1003.125 818.75V343.75C1003.125 312.5 978.125 287.5 946.875 287.5H818.75V334.375H946.8750000000005C950.0000000000005 334.375 953.1250000000005 337.5 953.1250000000005 340.625V821.875C953.1250000000005 825 950 828.125 946.8750000000005 828.125H56.25zM409.375 118.75L250 593.75L721.875 437.5L518.75 334.375L512.5 331.25L509.375 325L409.375 118.75z" />
    <glyph glyph-name="button-push-outline-small"
      unicode="&#xEA43;"
      horiz-adv-x="1000" d="M915.625 875H84.375C37.5 875 0 837.5 0 787.5V343.75C0 296.875 37.5 256.25 87.5 256.25H334.375L371.875 143.75L421.875 -3.125L490.625 134.375L550 250L796.875 3.125L875 81.25L628.125 328.1249999999996L743.75 387.4999999999997L881.25 456.2499999999995L734.375 506.2499999999997L321.875 643.7499999999995L187.5 687.5L231.25 556.25L293.75 365.625H109.375V765.625H893.75V312.5H1000V787.5C1000 837.5 962.5 875 915.625 875zM590.625 437.5L521.875 403.125L490.625 387.5L475 356.25L437.5 284.375L362.5 512.5L590.625 437.5z" />
    <glyph glyph-name="calendar"
      unicode="&#xEA44;"
      horiz-adv-x="1000" d="M400 550H200V350H400zM900 850H850V1000H750V750H700V850H350V1000H250V750H200V850H100C43.75 850 0 806.25 0 750V100C0 43.75 43.75 0 100 0H900C956.25 0 1000 43.75 1000 100V750C1000 806.25 956.25 850 900 850zM900 100H100V650H900z" />
    <glyph glyph-name="calendar-clock"
      unicode="&#xEA45;"
      horiz-adv-x="1000" d="M84.375 665.625H834.375V790.625C834.375 837.5 796.875 875 750 875H709.375V1000H625V790.625H584.375V875H290.625V1000H209.375V790.625H165.625V875H84.375C37.5 875 0 837.5 0 790.625V250C0 203.125 37.5 165.625 84.375 165.625H334.375V250H84.375zM709.375 584.375C550 584.375 418.75 453.125 418.75 293.75S550 3.125 709.375 3.125S1000 134.375 1000 293.75S868.75 584.375 709.375 584.375zM709.375 84.375A209.375 209.375 0 1 0 918.75 293.75C918.75 178.125 821.875 84.375 709.375 84.375zM750 459.375H665.625V250H831.25V334.375H750z" />
    <glyph glyph-name="calender-clock"
      unicode="&#xEA46;"
      horiz-adv-x="1000" d="M333.4062499999961 249.8750000000005H83.3437499999957V666.5625000000005H833.4687499999961V791.5937500000005A83.4375 83.4375 0 0 1 750.124999999996 874.9375000000003H708.4687499999961V1000H625.0937499999961V791.625H583.437499999996V875H291.7187499999961V1000H208.3749999999961V791.625H166.6874999999961V875H83.3437499999961A83.4375 83.4375 0 0 1 -3.9e-12 791.65625V249.90625A83.4375 83.4375 0 0 1 83.3437499999961 166.5625H333.4062499999961V249.90625zM708.2812499999989 0C547.4062499999989 0 416.5624999999989 130.84375 416.5624999999989 291.71875C416.5624999999989 452.5625 547.4374999999987 583.4375 708.2812499999989 583.4375C869.1562499999989 583.4375 999.9999999999987 452.59375 999.9999999999987 291.71875C999.9999999999987 130.84375 869.1562499999989 0 708.2812499999989 0zM708.2812499999989 500.09375A208.59375 208.59375 0 0 1 499.9062499999988 291.71875A208.59375 208.59375 0 0 1 708.2812499999989 83.34375A208.59375 208.59375 0 0 1 916.6562499999987 291.71875A208.59375 208.59375 0 0 1 708.2812499999989 500.09375zM833.2812499999989 250H666.5937499999989V458.4375H749.9687499999989V333.40625H833.2812499999989V250z" />
    <glyph glyph-name="cards"
      unicode="&#xEA47;"
      horiz-adv-x="1000" d="M0 545.65625H294.125V906.25H0V545.65625zM0 125H294.125V485.59375H0V125zM352.9375 125H647.0625V485.59375H352.9375V125zM705.875 125H1000V485.59375H705.875V125zM352.9375 545.65625H647.0625V906.25H352.9375V545.65625zM705.875 906.25V545.65625H1000V906.25H705.875z" />
    <glyph glyph-name="center-align"
      unicode="&#xEA48;"
      horiz-adv-x="1000" d="M0 937.5H1000V812.5H0V937.5zM187.5 750H812.5V625H187.5V750zM187.5 375H812.5V250H187.5V375zM0 562.5H1000V437.5H0V562.5zM0 187.5H1000V62.5H0V187.5z" />
    <glyph glyph-name="chart-area"
      unicode="&#xEA49;"
      horiz-adv-x="1000" d="M875 572.90625L770.84375 518.5L643.75 718.75L383.34375 455.375L272.90625 509.7812499999999L152.09375 614.28125L0 320.4374999999999V281.25H1000V366.125L875 572.90625z" />
    <glyph glyph-name="chart-bar-bar"
      unicode="&#xEA4A;"
      horiz-adv-x="1000" d="M453.28125 378.9687500000001H282.71875C273.34375 378.9687500000001 266.34375 369.3437500000001 266.34375 359.71875V90.09375C266.34375 80.46875 273.375 70.84375 282.71875 70.84375H453.28125C462.625 70.84375 471.96875 80.46875 471.96875 90.09375V359.71875C471.96875 371.75 462.59375 378.9687500000001 453.28125 378.9687500000001zM717.28125 937.5H546.71875C537.375 937.5 528.03125 927.875 528.03125 918.25V90.09375C528.03125 80.46875 537.40625 70.84375 546.71875 70.84375H717.28125C726.65625 70.84375 733.65625 80.46875 733.65625 90.09375V918.21875C733.65625 927.875 726.625 937.5 717.28125 937.5zM981.3125 684.71875H813.09375C801.40625 684.71875 794.40625 677.5 794.40625 667.84375V90.09375C794.40625 80.46875 801.40625 70.84375 813.09375 70.84375H981.3125C990.65625 70.84375 1000 80.46875 1000 90.09375V667.875C1000 677.5 990.625 684.75 981.3125 684.75zM186.9375 684.71875H18.65625C9.3125 684.71875 -0.03125 677.5 -0.03125 667.84375V90.09375C-0.03125 80.46875 9.34375 70.84375 18.65625 70.84375H186.875C198.5625 70.84375 205.5625 80.46875 205.5625 90.09375V667.875C205.5625 677.5 198.5625 684.75 186.875 684.75z" />
    <glyph glyph-name="chart-bubble"
      unicode="&#xEA4B;"
      horiz-adv-x="1000" d="M309.4375 783.59375C309.4375 699.21875 241.8125 629.65625 159.84375 629.65625C77.875 629.65625 10.25 699.25 10.25 783.59375C10.25 867.90625 77.875 937.5 159.84375 937.5C241.8125 937.5 309.4375 867.90625 309.4375 783.59375zM563.5 201.65625C563.5 210.09375 565.5625 220.625 569.6875 229.0625C495.90625 281.78125 446.71875 372.4375 446.71875 471.5625C446.71875 623.34375 553.28125 745.625 696.71875 768.8125C620.90625 848.9375 520.46875 897.4375 403.6875 897.4375C375 897.4375 344.25 895.34375 313.53125 886.90625C331.96875 859.5 342.21875 825.75 342.21875 785.6875C342.21875 682.375 258.1875 598.03125 157.78125 598.03125C108.59375 598.03125 67.625 617.03125 30.75 646.53125C10.25 598.03125 0 539.0625 0 480C0 250.1562500000001 180.3125 62.5 403.6875 62.5C479.5 62.5 545.09375 81.46875 606.5625 119.4375C579.90625 138.4062500000001 563.53125 170.03125 563.53125 201.65625zM737.71875 743.53125C594.28125 743.53125 477.46875 623.34375 477.46875 473.65625C477.46875 382.9687500000001 518.4375 304.96875 586.0625 254.375C602.46875 273.34375 627.0625 281.78125 651.625 281.78125C694.6875 281.78125 731.5625 250.1562500000001 737.71875 203.75C883.1875 203.75 1000 323.9375 1000 471.5625C1000 621.25 883.1875 743.53125 737.71875 743.53125zM727.46875 193.21875A76.25 76.25 0 0 0 651.625 117.3125C610.65625 117.3125 577.875 151.0625 577.875 193.25C577.875 235.375 610.65625 271.2187500000001 651.625 271.2187500000001C692.625 271.2187500000001 727.46875 235.40625 727.46875 193.21875z" />
    <glyph glyph-name="chart-donut"
      unicode="&#xEA4C;"
      horiz-adv-x="1000" d="M243.1875 800A393.1250000000001 393.1250000000001 0 0 0 500 895.46875C668.1875 895.46875 811.375 793.1875 868.1875 643.1875L968.1875 681.8125C895.4375 868.1875 713.625 1000 502.25 1000C372.75 1000 256.84375 950 165.9375 868.1875L243.1875 800zM890.90625 550C893.1875 534.0625 893.1875 518.1875 893.1875 502.28125C893.1875 286.34375 718.1875 109.09375 500 109.09375C281.8125 109.09375 106.8125 286.375 106.8125 502.28125C106.8125 588.625 131.8125 663.625 179.53125 727.28125L102.28125 800C43.1875 718.1875 0 613.625 0 500C0 225 225 0 500 0S1000 225 1000 500C1000 529.53125 995.46875 559.0625 990.9375 590.9375L890.9375 550z" />
    <glyph glyph-name="chart-full-stacked-area"
      unicode="&#xEA4D;"
      horiz-adv-x="1000" d="M385.9375 210.7187500000001L649.125 287.84375L807.03125 206.4375L1000 298.5625000000001V427.1875L807.03125 335.03125L644.75 418.59375L385.96875 341.46875L153.5 388.5937500000001L0 478.5625V360.71875L166.65625 253.5625L385.96875 210.7187500000001zM807.03125 495.71875L644.75 581.4375L385.96875 502.1562499999999L153.5 547.15625L0 639.28125V523.5625L166.65625 412.15625L385.96875 371.4375L649.09375 452.84375L807.03125 369.28125L1000 459.28125V587.84375L807.03125 495.71875zM385.9375 695L649.0625 772.15625L807 688.5625L1000 782.84375V875H0V847.15625L166.65625 733.5625L385.96875 695zM807 656.4375L644.71875 742.15625L385.9375 662.84375L153.46875 707.84375L0 800V684.28125L166.65625 572.84375L385.96875 532.15625L649.09375 611.4375L807.03125 527.84375L1000 620V746.4375L807.03125 656.4375zM807 170L644.71875 257.8437499999999L385.9375 180.71875L153.46875 227.84375L0 317.84375V125H1000V266.4375L807.03125 170z" />
    <glyph glyph-name="chart-heat"
      unicode="&#xEA4E;"
      horiz-adv-x="1000" d="M0 197.1875H275.4375V0H0V197.1875zM0 464.7812499999999H275.4375V267.5937500000001H0V464.7812499999999zM0 732.40625H275.4375V535.21875H0V732.40625zM0 1000H275.4375V802.8125H0V1000zM349.0625 197.1875H624.46875V0H349.03125V197.1875zM349.0625 464.7812499999999H624.46875V267.5937500000001H349.03125V464.7812499999999zM349.0625 732.40625H624.46875V535.21875H349.03125V732.40625zM349.0625 1000H624.46875V802.8125H349.03125V1000zM693.3125 197.1875H968.75V0H693.3125V197.1875zM693.3125 464.7812499999999H968.75V267.5937500000001H693.3125V464.7812499999999zM693.3125 732.40625H968.75V535.21875H693.3125V732.40625zM693.3125 1000H968.75V802.8125H693.3125V1000z" />
    <glyph glyph-name="chart-horz-full-stack-bar"
      unicode="&#xEA4F;"
      horiz-adv-x="1000" d="M0 205.0625V276.15625C0 284.78125 8.59375 293.3749999999999 17.1875 293.3749999999999H372.03125C380.65625 293.3749999999999 389.21875 282.625 389.21875 276.15625V205.0625C389.21875 194.28125 378.5 187.84375 372.03125 187.84375H17.21875C10.75 185.65625 0 194.28125 0 205.0625zM0 418.34375V489.375C0 498 8.59375 506.625 17.1875 506.625H133.34375C144.09375 506.625 150.53125 495.84375 150.53125 489.4062500000001V418.3125A16.96875 16.96875 0 0 0 133.34375 401.0625H17.1875C10.71875 401.0625 -0.03125 413.9999999999999 -0.03125 418.3125zM0 631.59375V707C0 717.78125 8.59375 724.21875 17.1875 724.21875H281.71875C290.3125 724.21875 298.90625 715.625 298.90625 707V629.4375C298.90625 622.96875 292.46875 616.53125 286.03125 616.53125H15.0625C10.75 616.53125 0 623 0 631.59375zM0 849.1875V920.28125C0 931.03125 8.59375 937.5 17.1875 937.5H131.1875C141.9375 937.5 148.375 928.875 148.375 920.28125V849.1875C148.375 840.5625 139.78125 831.9375 131.1875 831.9375H17.1875C10.75 827.625 0 836.25 0 849.1875zM451.625 205.0625V276.15625C451.625 284.78125 462.375 293.3749999999999 468.8125 293.3749999999999H825.8125C836.5625 293.3749999999999 843 282.625 843 276.15625V205.0625A16.96875 16.96875 0 0 0 825.8125 187.84375H468.8125C464.5 185.65625 451.625 194.28125 451.625 205.0625zM210.75 418.34375V489.375C210.75 498 219.34375 506.625 227.9375 506.625H584.9375C593.5625 506.625 602.125 495.84375 602.125 489.4062500000001V418.3125C602.125 407.53125 591.40625 401.0625 584.9375 401.0625H227.96875C217.21875 401.0625 210.78125 413.9999999999999 210.78125 418.3125zM361.28125 631.59375V702.6875C361.28125 711.3125 372.03125 719.9375 378.46875 719.9375H733.34375C744.09375 719.9375 750.53125 709.15625 750.53125 702.6875V631.59375A16.96875 16.96875 0 0 0 733.34375 614.375H378.5C365.59375 616.53125 361.3125 622.96875 361.3125 631.59375zM210.75 849.1875V920.28125C210.75 931.03125 219.34375 937.5 227.9375 937.5H572.03125C582.8125 937.5 589.21875 928.875 589.21875 920.28125V849.1875C589.21875 840.5625 578.5 831.9375 572.03125 831.9375H227.96875C217.21875 827.625 210.78125 836.25 210.78125 849.1875zM647.3125 418.34375V489.375C647.3125 498 658.0625 506.625 664.5 506.625H982.8125C993.5625 506.625 1000 495.84375 1000 489.4062500000001V418.3125A16.96875 16.96875 0 0 0 982.8125 401.0625H666.625C658.03125 401.0625 647.28125 413.9999999999999 647.28125 418.3125zM797.84375 631.59375V702.6875C797.84375 711.3125 806.46875 719.9375 815.03125 719.9375H982.8125C993.5625 719.9375 1000 709.15625 1000 702.6875V631.59375A16.96875 16.96875 0 0 0 982.8125 614.375H815.0625C808.59375 616.53125 797.875 622.96875 797.875 631.59375zM647.3125 849.1875V920.28125C647.3125 931.03125 658.0625 937.5 664.5 937.5H982.8125C993.5625 937.5 1000 928.875 1000 920.28125V849.1875C1000 840.5625 991.40625 831.9375 982.8125 831.9375H666.625C658.03125 827.625 647.28125 836.25 647.28125 849.1875zM903.25 205.0625V276.15625C903.25 284.78125 911.8125 293.3749999999999 920.4375 293.3749999999999H982.78125C993.5625 293.3749999999999 1000 282.625 1000 276.15625V205.0625A16.96875 16.96875 0 0 0 982.8125 187.84375H920.4375C913.96875 185.65625 903.25 194.28125 903.25 205.0625z" />
    <glyph glyph-name="chart-number-card"
      unicode="&#xEA50;"
      horiz-adv-x="1000" d="M944.4375 968.75H57.9375A57 57 0 0 1 0 910.8125V69.6875C0 36.9375 25.1875 11.75 57.9375 11.75H941.875A57 57 0 0 1 999.8125 69.6875V910.8125C1002.3437500000002 943.5625 974.65625 968.75 944.4375 968.75zM707.6875 548.15625H622.0625L604.4375 432.3125H685.03125V387H596.875L569.15625 235.875H513.75L538.9375 386.96875H440.71875L415.53125 235.875H357.59375L382.78125 386.96875H307.25V432.3125H392.875L410.5 548.15625H329.90625V593.46875H418.0625L443.25 742.09375H498.65625L476 593.5H571.6875L599.40625 742.09375H652.28125L629.625 593.5H707.6875V548.1875000000005zM443.25 434.84375H544L559.09375 550.6875H460.875L443.25 434.84375z" />
    <glyph glyph-name="chart-pie"
      unicode="&#xEA51;"
      horiz-adv-x="1000" d="M788.4375 82.09375C785.96875 77.09375 781.03125 77.09375 776.0625 77.09375H768.625C761.1875 77.09375 756.21875 87.09375 753.75 89.5625L560.3125 475.125C557.8125 482.5937499999999 557.8125 492.53125 562.8125 500L855.375 815.9375C857.875 820.90625 867.78125 825.875 872.71875 825.875C877.6875 825.875 885.125 823.375 890.09375 815.90625C959.5 726.375 999.15625 616.90625 999.15625 500C1009.0937499999998 333.34375 924.78125 174.125 788.4375 82.09375zM525.625 587.09375C523.15625 584.59375 515.71875 584.59375 510.7500000000001 584.59375C503.3125000000001 584.59375 500.8437500000001 584.59375 495.875 587.09375L255.3750000000001 905.4375C252.8750000000001 907.9375 252.8750000000001 915.40625 252.8750000000001 922.84375C252.8750000000001 930.34375 255.3750000000001 932.8125 262.8125 935.28125C339.6875 977.625 421.5 1000 508.28125 1000C612.40625 1000 714.0625 970.15625 798.375 907.96875C803.34375 905.46875 808.28125 895.53125 810.78125 893.03125C810.78125 885.5625 810.78125 878.09375 803.34375 875.625L525.625 587.0625zM679.375 52.25C681.84375 44.75 681.84375 42.28125 679.375 34.8125C674.40625 27.375 669.4375 24.875 664.5 24.875C624.8125 9.9375 585.125 2.5 545.46875 0H463.65625C203.3125 22.375 0 236.3125 0 502.4999999999999C0 639.3125 54.5625 766.15625 151.25 863.1875C153.75 865.6875 161.15625 870.65625 168.59375 870.65625C173.5625 870.65625 178.53125 868.15625 181 863.15625L466.125 482.5937499999999L679.375 52.25z" />
    <glyph glyph-name="chart-pie-grid"
      unicode="&#xEA52;"
      horiz-adv-x="1000" d="M109.21875 878.65625C136 904.75 174.9375 918.96875 218.71875 918.96875C291.75 918.96875 352.59375 876.28125 376.90625 814.65625L418.28125 831.21875C386.65625 909.5 311.25 964.0625 218.75 964.0625C162.8125 964.0625 114.125 942.6875 75.1875 909.5L109.25 878.6875zM381.78125 774.34375V753C381.78125 660.53125 303.90625 591.78125 216.3125 591.78125C121.375 591.78125 50.8125 667.65625 50.8125 753.03125C50.8125 790.9375 60.5625 819.375 80.03125 847.84375L43.5 876.28125C19.1875 840.71875 2.1875 798.0625 2.1875 750.65625C2.1875 634.46875 99.53125 539.625 218.75 539.625C338 539.625 435.34375 634.46875 435.34375 750.625C435.34375 764.84375 435.34375 774.34375 432.90625 788.5625L381.8125 774.34375zM55.6875 193.5C41.09375 231.40625 43.5 269.34375 58.125 309.65625C84.875 376.03125 153.03125 413.96875 218.75 413.96875V456.65625C135.96875 459.03125 53.21875 406.875 16.71875 326.2499999999999C-5.1875 276.46875 -5.1875 224.3125 14.28125 179.25L55.65625 193.5zM260.09375 402.1250000000001C269.84375 402.1250000000001 274.71875 399.75 277.125 395C362.3125 359.4375000000001 401.25 262.25 369.625 181.625C333.125 96.28125 233.34375 60.6875 150.5625 91.53125C114.09375 105.75 92.1875 127.09375 72.71875 157.9375000000001L31.34375 134.1875C53.21875 96.28125 84.875 67.84375 133.53125 46.5C240.625 3.8125 364.75 53.59375 415.84375 160.2812499999999C459.65625 264.59375 406.125 385.53125 299.03125 435.2812500000001C289.3125 437.6875 274.71875 442.4375 262.53125 444.78125L260.09375 402.1250000000001zM795.5 923.6875000000005C834.4375 918.9687500000005 873.375 907.125 902.5625 873.90625C956.09375 824.125 965.84375 753 939.0625 691.375L980.4375 674.75A200.0625 200.0625 0 0 1 936.65625 907.09375C897.71875 945.03125 844.125 964 793.0625 968.75L795.5 923.71875zM917.15625 655.8125C914.75 648.6875 907.4375 643.9375 902.5625 641.5625000000003C836.875 577.5625000000005 732.21875 577.5625000000005 664.0625 641.5625000000003C598.375 707.9687500000003 598.375 809.9062500000003 664.0625 873.90625C690.84375 897.6250000000003 720.0625 914.21875 756.5625 916.59375L754.125 961.6250000000005C712.75 952.1562500000005 666.5 935.5625000000005 632.4375 904.7500000000005C547.25 824.125 547.25 691.375 632.4375 608.375C715.1875 525.40625 849.03125 525.40625 936.65625 608.375C943.9375 615.5000000000005 953.6875 629.71875 960.96875 634.46875L917.15625 655.7812500000005zM892.84375 120C863.625 93.90625 824.71875 79.6875 780.875 79.6875C707.875 79.6875 647.03125 122.375 622.71875 183.9999999999999L581.34375 167.4062500000005C612.96875 89.15625 690.84375 34.6250000000003 780.875 34.6250000000003C836.875 34.6250000000003 885.5625 55.9687500000003 924.46875 89.1562500000003L892.84375 120.0000000000004zM615.40625 224.3125V245.625C615.40625 338.125 693.28125 406.875 780.875 406.875C875.8125 406.875 946.375 331 946.375 245.625C946.375 207.71875 936.65625 179.25 917.1875 150.8125L953.6875 122.375C978 157.90625 995.03125 200.59375 995.03125 248C995.03125 364.1875 897.71875 459.03125 778.46875 459.03125S561.875 364.1875 561.875 248C561.875 233.78125 561.875 224.3125 564.3125 210.09375L615.40625 224.3125z" />
    <glyph glyph-name="chart-scatter"
      unicode="&#xEA53;"
      horiz-adv-x="1000" d="M0 1000V0H1000V100H100V1000H0zM800 1000A100 100 0 1 1 800 800A100 100 0 0 1 800 1000zM700 750A100 100 0 1 1 700 550A100 100 0 0 1 700 750zM400 700A100 100 0 1 1 400 500A100 100 0 0 1 400 700zM900.0000000000003 550A100 100 0 1 1 900.0000000000003 350A100 100 0 0 1 900.0000000000003 550zM600 450A100 100 0 1 1 600 250A100 100 0 0 1 600 450zM300 400A100 100 0 1 1 300 200A100 100 0 0 1 300 400z" />
    <glyph glyph-name="chart-spider"
      unicode="&#xEA54;"
      horiz-adv-x="1000" d="M750 934.375H250L0 500L250 65.625H750L1000 500L750 934.375zM903.125 534.375H703.125L631.25 662.5L731.25 837.5L903.125 534.375zM643.75 500L571.875 375H428.125L356.25 500L428.125 625H571.875L643.7500000000003 500zM671.875 865.625L571.875 690.625H428.125L328.125 865.625H671.875zM271.875 834.375L371.875 659.375L300 531.25H96.875L271.875 834.375zM96.875 465.625H296.875L368.75 337.5L268.75 162.5L96.875 465.625zM328.125 134.375L428.125 309.375H571.875L671.875 134.375H328.125zM731.25 165.625L631.25 340.625L703.125 468.75H903.125L731.25 165.625z" />
    <glyph glyph-name="chart-stacked-area"
      unicode="&#xEA55;"
      horiz-adv-x="1000" d="M999.125 163.125C1001.3750000000005 158.53125 999.125 156.25 994.625 156.25H0L112.5 410.40625C114.75 417.28125 121.5 417.28125 126 412.71875L256.53125 250.1249999999999C258.78125 247.84375 261.03125 247.84375 263.28125 250.1249999999999L425.3125 362.3125C427.5625 362.3125 427.5625 364.625 429.8125 362.3125L661.59375 305.0937499999999C663.84375 305.0937499999999 666.0625 305.0937499999999 668.34375 307.375L819.09375 648.5625C821.34375 655.4375 832.59375 655.4375 834.84375 648.5625L999.125 163.125zM999.125 250.1249999999999L841.625 712.65625C839.34375 721.8125 834.84375 721.8125 828.09375 712.65625L652.59375 344C652.59375 341.7187500000001 648.0625 337.125 645.8125 341.7187500000001L425.3125 387.53125H420.8125L270 279.90625C265.5 277.59375 261 277.59375 261 279.90625L116.96875 449.3437499999999C114.71875 456.21875 110.21875 453.90625 105.71875 447.0624999999999L9 229.53125L36 344L103.5 607.34375C105.75 614.21875 110.25 614.21875 114.75 609.625L245.28125 449.3125A6.75 6.75 0 0 1 254.28125 449.3125L414.0625 561.53125C418.5625 561.53125 420.8125 563.8125 420.8125 561.53125L632.3125 497.4375C634.5625 497.4375 636.8125 497.4375 641.3125 499.71875L814.59375 838.59375C819.09375 845.46875 828.09375 845.46875 830.34375 838.59375L999.0937500000005 250.1562500000001z" />
    <glyph glyph-name="chart-vert-bar"
      unicode="&#xEA56;"
      horiz-adv-x="1000" d="M947.28125 0H898.4375A21.5 21.5 0 0 0 876.9375 21.15625V569.21875C876.9375 580.78125 886.71875 590.375 898.4375 590.375H947.28125C959 590.375 968.75 580.78125 968.75 569.21875V21.15625C968.75 9.59375 958.96875 0 947.25 0zM736.34375 0H687.5A21.5 21.5 0 0 0 666 21.15625V978.84375C666 990.40625 675.78125 1000 687.5 1000H736.34375C748.0625 1000 757.8125 990.375 757.8125 978.84375V21.15625C757.8125 9.59375 748.03125 0 736.3125 0zM525.40625 0H476.5625A21.5 21.5 0 0 0 455.0625 21.15625V603.84375C455.0625 615.40625 464.84375 625 476.5625 625H525.40625C537.125 625 546.875 615.375 546.875 603.84375V21.15625C546.875 9.59375 537.09375 0 525.375 0zM312.5 0H263.65625C251.9687500000001 0 244.15625 9.625 244.15625 21.15625V686.53125C244.15625 698.09375 251.9687500000001 707.6875 263.6875 707.6875H312.5C324.21875 707.6875 334 698.0625 334 686.53125V21.15625C334 9.59375 324.21875 0 312.5 0zM101.5625 0H52.71875A21.5 21.5 0 0 0 31.25 21.15625V228.84375C31.25 240.4062499999999 41.03125 250 52.75 250H101.5625C113.28125 250 123.0625 240.375 123.0625 228.84375V21.15625C123.0625 9.59375 113.28125 0 101.5625 0z" />
    <glyph glyph-name="chart-vert-bar2"
      unicode="&#xEA57;"
      horiz-adv-x="1000" d="M887.3125 0H809.4375A18.78125 18.78125 0 0 0 790.46875 18.78125V981.25C790.46875 989.59375 798.90625 1000.0312499999998 809.4375 1000.0312499999998H887.3125C897.84375 1000.0312499999998 906.25 989.59375 906.25 981.25V18.75C906.25 8.3125 897.8125 -0.0312499999999 887.3125 -0.0312499999999zM653.65625 0H573.65625C565.25 0 554.71875 8.34375 554.71875 18.78125V782.875C554.71875 793.3125 565.25 801.65625 573.65625 801.65625H653.65625C662.09375 801.65625 672.59375 793.3125 672.59375 782.90625V18.75C674.71875 8.3125 662.09375 -0.0312499999999 653.65625 -0.0312499999999zM426.3125 0H346.3125C337.90625 0 327.40625 8.34375 327.40625 18.78125V484.375C327.40625 494.8125 337.90625 503.15625 346.34375 503.15625H426.34375C434.75 503.15625 445.28125 494.8125 445.28125 484.375V18.8125C445.28125 8.375 434.75 0.03125 426.3125 0.03125zM190.5625 0H112.6875A18.78125 18.78125 0 0 0 93.75 18.78125V315.25C93.75 325.6875 102.1875 334.0000000000001 112.6875 334.0000000000001H190.5625C201.09375 334.0000000000001 209.53125 325.6875 209.53125 315.25V18.75C211.625 8.3125 203.21875 -0.0312499999999 190.5625 -0.0312499999999z" />
    <glyph glyph-name="chart-vert-stacked-bar"
      unicode="&#xEA58;"
      horiz-adv-x="1000" d="M887.34375 0H807.5625A18.75 18.75 0 0 0 788.6875 18.71875V374.21875C788.6875 382.53125 797.0625 392.9374999999999 807.5625 392.9374999999999H887.34375C895.78125 392.9374999999999 906.25 382.53125 906.25 374.21875V18.75C906.25 8.34375 895.75 0.03125 887.34375 0.03125zM652.21875 0H574.53125C564.03125 0 553.53125 8.3125 553.53125 18.71875V135.1249999999999C553.53125 143.4375 564.03125 153.875 574.53125 153.875H652.21875C662.71875 153.875 671.09375 143.4375 671.09375 135.1249999999999V18.75C673.21875 8.34375 662.71875 0.03125 652.21875 0.03125zM425.46875 0H343.59375C335.1875 0 324.6875 8.3125 324.6875 18.71875V282.75C324.6875 293.15625 335.1875 303.53125 343.59375 303.53125H427.5625C435.96875 303.53125 440.15625 295.21875 440.15625 291.0312500000001V20.78125C444.375 8.3125 435.96875 0 425.46875 0zM192.4375 0H112.65625A18.75 18.75 0 0 0 93.75 18.71875V133.0625C93.75 141.375 102.15625 151.78125 112.65625 151.78125H192.4375C200.8125 151.78125 211.3125 141.375 211.3125 133.0312499999999V18.75C213.40625 8.34375 202.9375 0.03125 192.4375 0.03125zM887.34375 449.0624999999999H807.5625C797.09375 449.0624999999999 788.6875 459.46875 788.6875 467.78125V825.375A18.75 18.75 0 0 0 807.5625 844.0625H887.34375C895.78125 844.0625 906.25 835.75 906.25 825.375V467.78125C906.25 459.46875 895.75 449.0624999999999 887.34375 449.0624999999999zM652.21875 210H574.53125C564.03125 210 553.53125 220.375 553.53125 228.6874999999999V586.28125C553.53125 596.6875 564.03125 605 574.53125 605H652.21875A18.75 18.75 0 0 0 671.09375 586.25V228.6874999999999C673.21875 214.125 662.71875 209.96875 652.21875 209.96875zM425.46875 359.6874999999999H345.6875C337.28125 359.6874999999999 326.78125 367.96875 326.78125 378.375V733.875C326.78125 742.21875 337.28125 752.625 345.6875 752.625H425.46875C435.96875 752.625 444.375 742.21875 444.375 733.875V378.375C444.375 365.875 435.9375 359.65625 425.46875 359.65625zM192.4375 210H112.65625C102.15625 210 93.75 220.375 93.75 228.6874999999999V343.0625C93.75 351.3437500000001 102.15625 361.75 112.65625 361.75H192.4375C200.8125 361.75 211.3125 351.3437500000001 211.3125 343.03125V228.6874999999999C213.40625 214.125 202.9375 209.96875 192.4375 209.96875zM887.34375 898.125H807.5625C797.09375 898.125 788.6875 908.53125 788.6875 916.84375V981.25A18.75 18.75 0 0 0 807.5625 1000H887.34375C895.78125 1000 906.25 991.6875 906.25 981.28125V916.875C906.25 908.5625 895.75 898.15625 887.34375 898.15625z" />
    <glyph glyph-name="check"
      unicode="&#xEA59;"
      horiz-adv-x="1000" d="M343.75 125L0 468.75L156.25 630.875L375 421.875L859.375 906.25L1000 765.625L343.75 125z" />
    <glyph glyph-name="check-filled"
      unicode="&#xEA5A;"
      horiz-adv-x="1000" d="M500 1000C776.4375 1000 1000 776.4375 1000 500S776.4375 0 500 0S0 223.5625 0 500S223.5625 1000 500 1000zM423.09375 322.125L745.1875 646.625L701.9375 689.90625L401.4375 387.0312499999999L288.46875 500L245.1875 456.7187500000001L379.8125 322.125C384.625 317.3125 394.21875 312.5 401.4375 312.5C408.625 312.5 418.28125 317.3125 423.09375 322.125z" />
    <glyph glyph-name="check-filled-sm"
      unicode="&#xEA5B;"
      horiz-adv-x="1000" d="M500 1000C225 1000 0 775 0 500S225 0 500 0S1000 225 1000 500S775 1000 500 1000zM778.125 637.5L446.875 303.125C437.5 293.75 431.25 290.625 418.75 290.625S396.875 293.75 390.625 303.125L225 468.75C209.375 484.375 209.375 509.375 225 528.125C240.625 543.75 265.625 543.75 284.375 528.125L421.875 390.625L725 693.75C740.625 709.375 765.625 709.375 784.375 693.75C796.875 678.125 796.875 653.125 778.125 637.5z" />
    <glyph glyph-name="check-square-filled"
      unicode="&#xEA5C;"
      horiz-adv-x="1000" d="M900 1000H100A100.3125 100.3125 0 0 1 0 900V100C0 45 45 0 100 0H900C955 0 1000 45 1000 100V900C1000 955 955 1000 900 1000zM365 215L115 465.0000000000001L185 535L365 355L815 790L885 720L365 215z" />
    <glyph glyph-name="checklist"
      unicode="&#xEA5D;"
      horiz-adv-x="1000" d="M571.4375 625.6875H0V532.28125H571.4375V625.6875zM571.4375 812.5H0V719.09375H571.4375V812.5zM0 345.46875H380.9375V438.875H0V345.4375000000001zM928.5625 555.625L1000 485.5625L666.90625 158.6875L452.375 368.84375L523.8125 438.90625L666.90625 298.78125L928.5625 555.65625z" />
    <glyph glyph-name="chevron-bold-down"
      unicode="&#xEA5E;"
      horiz-adv-x="1000" d="M1000 668.125L849.78125 812.5L500 476.2500000000001L150.21875 812.5L0 668.125L500 187.5L1000 668.125z" />
    <glyph glyph-name="chevron-bold-left"
      unicode="&#xEA5F;"
      horiz-adv-x="1000" d="M668.125 0L812.5 150.2187500000001L476.25 500L812.5 849.78125L668.125 1000L187.5 500L668.125 0z" />
    <glyph glyph-name="chevron-bold-right"
      unicode="&#xEA60;"
      horiz-adv-x="1000" d="M331.875 1000L187.5 849.78125L523.75 500L187.5 150.2187500000001L331.875 0L812.5 500L331.875 1000z" />
    <glyph glyph-name="chevron-bold-up"
      unicode="&#xEA61;"
      horiz-adv-x="1000" d="M0 331.8749999999999L150.21875 187.5L500 523.75L849.78125 187.5L1000 331.8749999999999L500 812.5L0 331.8749999999999z" />
    <glyph glyph-name="circle"
      unicode="&#xEA62;"
      horiz-adv-x="1000" d="M489.53125 1000C219.15625 1000 0 775.5625 0 500S219.15625 0 489.53125 0S979.0625 224.4375000000001 979.0625 500S759.90625 1000 489.53125 1000zM489.53125 952.28125C733.53125 952.28125 931.34375 750.34375 931.34375 500C931.34375 249.65625 733.53125 47.71875 489.53125 47.71875S47.71875 249.6875000000001 47.71875 500C47.71875 750.34375 245.53125 952.28125 489.53125 952.28125z" />
    <glyph glyph-name="circle-filled"
      unicode="&#xEA63;"
      horiz-adv-x="1000" d="M500 1000C776.4375 1000 1000 776.4375 1000 500S776.4375 0 500 0S0 223.5625 0 500S223.5625 1000 500 1000z" />
    <glyph glyph-name="circles"
      unicode="&#xEA64;"
      horiz-adv-x="1000" d="M184.21875 447.3750000000001A52.8125 52.8125 0 0 1 131.59375 394.7499999999999A52.8125 52.8125 0 0 1 184.21875 342.09375A52.8125 52.8125 0 0 1 236.84375 394.7499999999999A52.8125 52.8125 0 0 1 184.21875 447.3750000000001zM184.21875 236.84375A52.8125 52.8125 0 0 1 131.59375 184.21875A52.8125 52.8125 0 0 1 184.21875 131.59375A52.8125 52.8125 0 0 1 236.84375 184.21875A52.8125 52.8125 0 0 1 184.21875 236.84375zM184.21875 657.90625A52.8125 52.8125 0 0 1 131.59375 605.25A52.8125 52.8125 0 0 1 184.21875 552.625A52.8125 52.8125 0 0 1 236.84375 605.25A52.8125 52.8125 0 0 1 184.21875 657.90625zM26.3125 631.5625A26.0625 26.0625 0 0 1 0 605.25C0 590.53125 11.5625 578.9375 26.3125 578.9375S52.625 590.5 52.625 605.25A26.0625 26.0625 0 0 1 26.3125 631.5625zM184.21875 868.4375A52.8125 52.8125 0 0 1 131.5625 815.75A52.8125 52.8125 0 0 1 184.1875 763.125A52.8125 52.8125 0 0 1 236.8125 815.75A52.8125 52.8125 0 0 1 184.21875 868.4375zM973.6875 578.9375C988.40625 578.9375 1000 590.5 1000 605.25A26.0625 26.0625 0 0 1 973.6875 631.5625A26.0625 26.0625 0 0 1 947.375 605.25C947.375 590.53125 958.9375000000005 578.9375 973.6875 578.9375zM605.25 763.15625A52.8125 52.8125 0 0 1 657.90625 815.78125A52.8125 52.8125 0 0 1 605.25 868.40625A52.8125 52.8125 0 0 1 552.625 815.78125A52.8125 52.8125 0 0 1 605.25 763.15625zM605.25 947.375C620 947.375 631.59375 958.9375 631.59375 973.6875A26.0625 26.0625 0 0 1 605.21875 1000A26.0625 26.0625 0 0 1 578.90625 973.6875C578.90625 958.9375 590.46875 947.375 605.21875 947.375zM26.3125 421.0625A26.0625 26.0625 0 0 1 0 394.7499999999999C0 380 11.5625 368.40625 26.3125 368.40625S52.625 380 52.625 394.7499999999999A26.0625 26.0625 0 0 1 26.3125 421.0625zM394.75 52.625A26.0625 26.0625 0 0 1 368.4375 26.3125C368.4375 11.59375 380 0 394.75 0C409.46875 0 421.0625 11.5625 421.0625 26.3125A26.0625 26.0625 0 0 1 394.75 52.625zM394.75 947.375C409.46875 947.375 421.0625 958.9375000000005 421.0625 973.6875A26.0625 26.0625 0 0 1 394.75 1000A26.0625 26.0625 0 0 1 368.4375 973.6875C368.4375 958.9375 380 947.375 394.75 947.375zM394.75 763.15625A52.8125 52.8125 0 0 1 447.375 815.78125A52.8125 52.8125 0 0 1 394.75 868.40625A52.8125 52.8125 0 0 1 342.09375 815.78125A52.8125 52.8125 0 0 1 394.75 763.15625zM394.75 473.6875A78.84375 78.84375 0 0 1 315.78125 394.7499999999999A78.84375 78.84375 0 0 1 394.75 315.78125A78.84375 78.84375 0 0 1 473.6875 394.7499999999999A78.84375 78.84375 0 0 1 394.75 473.6875zM815.78125 447.3750000000001A52.8125 52.8125 0 0 1 763.15625 394.7499999999999A52.8125 52.8125 0 0 1 815.78125 342.09375A52.8125 52.8125 0 0 1 868.40625 394.7499999999999A52.8125 52.8125 0 0 1 815.78125 447.3750000000001zM815.78125 236.84375C786.84375 236.84375 763.15625 213.1562499999999 763.15625 184.21875A52.8125 52.8125 0 0 1 815.78125 131.59375A52.8125 52.8125 0 0 1 868.40625 184.21875A52.8125 52.8125 0 0 1 815.78125 236.84375zM815.78125 657.90625A52.8125 52.8125 0 0 1 763.15625 605.25A52.8125 52.8125 0 0 1 815.78125 552.625A52.8125 52.8125 0 0 1 868.40625 605.25A52.8125 52.8125 0 0 1 815.78125 657.90625zM815.78125 868.40625A52.8125 52.8125 0 0 1 763.15625 815.78125A52.8125 52.8125 0 0 1 815.78125 763.15625A52.8125 52.8125 0 0 1 868.40625 815.78125A52.8125 52.8125 0 0 1 815.78125 868.40625zM973.6875 421.0625A26.0625 26.0625 0 0 1 947.375 394.7499999999999C947.375 380 958.9375000000005 368.40625 973.6875 368.40625C988.40625 368.40625 1000 380 1000 394.7499999999999A26.0625 26.0625 0 0 1 973.6875 421.0625zM605.25 236.84375A52.8125 52.8125 0 0 1 552.625 184.21875A52.8125 52.8125 0 0 1 605.25 131.59375A52.8125 52.8125 0 0 1 657.90625 184.21875A52.8125 52.8125 0 0 1 605.25 236.84375zM605.25 52.625A26.0625 26.0625 0 0 1 578.9375 26.3125C578.9375 11.59375 590.5 0 605.25 0S631.59375 11.5625 631.59375 26.3125A26.0625 26.0625 0 0 1 605.25 52.625zM394.75 684.1875A78.84375 78.84375 0 0 1 315.78125 605.25A78.84375 78.84375 0 0 1 394.75 526.3125A78.84375 78.84375 0 0 1 473.6875 605.25A78.84375 78.84375 0 0 1 394.75 684.21875zM394.75 236.84375A52.8125 52.8125 0 0 1 342.09375 184.21875A52.8125 52.8125 0 0 1 394.75 131.59375A52.8125 52.8125 0 0 1 447.375 184.21875A52.8125 52.8125 0 0 1 394.75 236.84375zM605.25 473.6875A78.84375 78.84375 0 0 1 526.3125 394.7499999999999A78.84375 78.84375 0 0 1 605.25 315.78125A78.84375 78.84375 0 0 1 684.21875 394.7499999999999A78.84375 78.84375 0 0 1 605.25 473.6875zM605.25 684.21875A78.84375 78.84375 0 0 1 526.3125 605.25A78.84375 78.84375 0 0 1 605.25 526.3125A78.84375 78.84375 0 0 1 684.21875 605.25A78.84375 78.84375 0 0 1 605.25 684.21875z" />
    <glyph glyph-name="circuit-board"
      unicode="&#xEA65;"
      horiz-adv-x="1000" d="M285.71875 785.71875C325.90625 785.71875 357.15625 754.46875 357.15625 714.28125S325.90625 642.84375 285.71875 642.84375S214.28125 674.09375 214.28125 714.28125S245.53125 785.71875 285.71875 785.71875zM1000 214.28125A214.34375 214.34375 0 0 0 785.71875 0H285.71875L500 214.28125H591.53125C616.0625 171.875 660.71875 142.8437499999999 714.28125 142.8437499999999C792.40625 142.8437499999999 857.15625 207.59375 857.15625 285.71875S792.40625 428.5625 714.28125 428.5625C660.71875 428.5625 616.0625 399.5625 591.53125 357.1562500000001H428.5625L102.6875 31.25A211.8125 211.8125 0 0 0 0 214.28125V785.71875A214.34375 214.34375 0 0 0 214.28125 1000V837.0625C171.875 812.5 142.84375 767.8125 142.84375 714.28125C142.84375 636.15625 207.59375 571.4375 285.71875 571.4375C339.28125 571.4375 383.9375 600.4375 408.46875 642.84375H591.53125C616.0625 600.4375 660.71875 571.4375 714.28125 571.4375C792.40625 571.4375 857.15625 636.15625 857.15625 714.28125C857.15625 792.40625 792.40625 857.15625 714.28125 857.15625C660.71875 857.15625 616.0625 828.125 591.53125 785.71875H410.71875C397.3125 808.03125 379.46875 825.90625 357.15625 837.0625V1000H785.71875A214.34375 214.34375 0 0 0 1000 785.71875V214.28125zM642.84375 285.71875C642.84375 325.9062500000001 674.09375 357.1562500000001 714.28125 357.1562500000001S785.71875 325.9062500000001 785.71875 285.71875S754.46875 214.28125 714.28125 214.28125S642.84375 245.53125 642.84375 285.71875zM642.84375 714.28125C642.84375 754.46875 674.09375 785.71875 714.28125 785.71875S785.71875 754.46875 785.71875 714.28125S754.46875 642.84375 714.28125 642.84375S642.84375 674.09375 642.84375 714.28125z" />
    <glyph glyph-name="clipboard"
      unicode="&#xEA66;"
      horiz-adv-x="1000" d="M272.3125 714.28125C276.78125 758.9375 294.65625 792.40625 334.8125 803.5625L337.0625 805.8125C363.84375 812.5 383.9375 821.4375 383.9375 850.4375V897.3125C383.9375 955.34375 428.5625 1000 486.5625 1000C544.625 1000 589.25 955.34375 589.25 897.3125V850.4375C589.25 821.4375 609.34375 810.28125 636.125 803.5625H638.375C678.53125 792.40625 696.40625 758.9375 700.875 714.28125H272.3125zM486.59375 928.5625C468.75 928.5625 455.34375 915.1875 455.34375 897.3125C455.34375 879.46875 468.75 866.0625 486.59375 866.0625C504.46875 866.0625 517.84375 879.46875 517.84375 897.3125C517.84375 915.1875 504.46875 928.5625 486.59375 928.5625zM819.1875 930.8125C852.6875 930.8125 879.46875 901.78125 879.46875 866.0625V62.5C879.46875 26.78125 852.6875 0 819.1875 0H154.0625C120.53125 0 93.75 26.78125 93.75 62.5V866.0625C93.75 901.78125 120.53125 930.8125 154.03125 930.8125H319.1875V897.3125C319.1875 872.78125 299.09375 857.15625 276.78125 857.15625H194.1875C178.5625 857.15625 165.1875 845.96875 165.1875 830.34375V98.21875C165.1875 84.8125 178.5625 71.4375 191.96875 71.4375H781.25C794.65625 71.4375 808.03125 84.8125 808.03125 98.21875V830.3125C808.03125 845.9375 794.65625 857.125 779.03125 857.125H696.4375C674.09375 857.125 654.03125 872.75 654.03125 897.28125V930.8125H819.1875zM236.59375 607.15625V642.8125H486.59375V607.125H236.59375zM236.59375 392.8437499999999V428.5625H593.75V392.8437499999999H236.59375zM236.59375 178.5625V214.28125H524.5625V178.5625H236.5625zM236.59375 285.71875V321.4375H629.46875V285.71875H236.5625zM236.59375 500V535.71875H700.9375V500H236.5625z" />
    <glyph glyph-name="clock"
      unicode="&#xEA67;"
      horiz-adv-x="1000" d="M500 1000C223.34375 1000 0 776.65625 0 500S223.34375 0 500 0S1000 223.34375 1000 500S776.65625 1000 500 1000zM500 900C723.34375 900 900 723.34375 900 500C900 276.65625 723.34375 100 500 100C276.65625 100 100 276.65625 100 500C100 723.34375 276.65625 900 500 900zM450 750V479.6875L464.0625 464.0625L614.0625 314.0625L685.9375 385.9375L550 521.875V750H450z" />
    <glyph glyph-name="cloud-download"
      unicode="&#xEA68;"
      horiz-adv-x="1000" d="M500 937.3125C264.28125 944.125 211.6875 755.5 211.6875 755.5S3.8125 730.875 0 528.25C-2.34375 403 101.96875 300.9999999999999 227.28125 300.9999999999999H363.625V391.875H227.3125C152.125 391.875 89.4375 453.03125 90.9375 528.21875C93.75 668.84375 269.90625 673.09375 269.90625 673.09375S318.34375 853.375 500 846.40625C723 837.875 741.46875 585.0625 741.46875 585.0625S907.65625 589.34375 909.0625 482.8125C909.75 432.65625 868.3125 391.875 818.15625 391.875H636.375V300.9999999999999H818.15625C918.375 300.9999999999999 1001.6562499999998 382.5625 999.96875 482.8125C997.125 653.25 815.3125 666.03125 815.3125 666.03125S795.4375 928.78125 500 937.3125zM454.5625 573.75V255.5625H318.1875L500 28.28125L681.8125 255.53125H545.46875V573.75H454.53125z" />
    <glyph glyph-name="cloud-upload"
      unicode="&#xEA69;"
      horiz-adv-x="1000" d="M501.8749999999999 875C376.40625 875 267.65625 808.34375 209.125 703.78125C92 682.875 0 582.21875 0 456.78125C0 318.75 112.9375 205.84375 250.9375 205.84375H376.40625V289.4687499999999H250.9375C158.9375 289.4687499999999 83.65625 364.78125 83.65625 456.78125C83.65625 540.4062500000005 142.71875 607.5937500000005 222.1875 620.1250000000005L258.78125 627.9687500000005L279.71875 661.96875C325.6875 741.4375 409.875 791.34375 501.90625 791.34375C618.96875 791.34375 719.875 712.15625 744.96875 599.21875L756.75 544.34375L811.625 536.5000000000005C874.375 528.1250000000005 916.1875 473.5 916.1875 414.9375000000005C916.1875 343.8437500000005 861.8125 289.4687499999999 790.71875 289.4687499999999H623.4375V205.84375H790.71875C907.8125 205.84375 999.84375 297.84375 999.84375 414.9375C1004.0312499999998 519.5 929 607.59375 828.59375 620.15625C791 766.53125 660.8125 875 501.8749999999999 875zM501.8749999999999 637.125L334.59375 414.9375H460.0625V122.1875H543.6875V414.9375H669.15625L501.8749999999999 637.125z" />
    <glyph glyph-name="code"
      unicode="&#xEA6A;"
      horiz-adv-x="1000" d="M708.875 197.6875C698.4375 197.6875 688 202.9375 680.15625 210.75A40.96875 40.96875 0 0 0 680.15625 268.1875L899.46875 490.1249999999999L680.15625 712.0625A40.96875 40.96875 0 0 0 680.15625 769.5A40.96875 40.96875 0 0 0 737.59375 769.5L988.25 518.875A40.96875 40.96875 0 0 0 988.25 461.40625L737.625 210.78125C729.75 202.9062500000001 719.3125 197.6875 708.875 197.6875zM291.125 197.6875C280.6875 197.6875 270.25 202.9375 262.375 210.75L11.75 461.40625A40.96875 40.96875 0 0 0 11.75 518.84375L262.375 769.5A40.96875 40.96875 0 0 0 319.84375 769.5A40.96875 40.96875 0 0 0 319.84375 712.0625L100.53125 490.1249999999999L319.84375 268.1875A40.96875 40.96875 0 0 0 319.84375 210.75C312.03125 202.9375 301.5625 197.6875 291.09375 197.6875zM249.34375 490.1249999999999C249.34375 531.90625 270.25 552.78125 312 552.78125C353.78125 552.78125 374.6875 531.90625 374.6875 490.1249999999999C374.6875 448.34375 353.78125 427.4687500000001 312 427.4687500000001C270.25 427.4687500000001 249.34375 448.34375 249.34375 490.1249999999999zM437.34375 490.1249999999999C437.34375 531.90625 458.21875 552.78125 500 552.78125C541.78125 552.78125 562.65625 531.90625 562.65625 490.1249999999999C562.65625 448.34375 541.78125 427.4687500000001 500 427.4687500000001C458.21875 427.4687500000001 437.34375 448.34375 437.34375 490.1249999999999zM625.3125 490.1249999999999C625.3125 531.90625 646.21875 552.78125 688 552.78125C729.78125 552.78125 750.65625 531.90625 750.65625 490.1249999999999C750.65625 448.34375 729.75 427.4687500000001 688 427.4687500000001C646.21875 427.4687500000001 625.3125 448.34375 625.3125 490.1249999999999z" />
    <glyph glyph-name="cog"
      unicode="&#xEA6B;"
      horiz-adv-x="1000" d="M881.25 450C881.25 465.0000000000001 886.40625 485 886.40625 500S886.40625 535 881.28125 550L989.25 625C999.5625 630 1004.6875 645 994.40625 660L891.5625 835C886.40625 850 871 855 860.71875 850L737.28125 795C711.59375 815 675.59375 835 644.75 845L629.3125 975C629.3125 990 619.03125 1000 603.625 1000H397.9375C382.53125 1000 372.25 990 372.25 975L356.8125 850C320.8125 835 289.9375 820 264.25 800L140.84375 850C130.5625 855 115.15625 850 110 840L7.1875 665C-3.125 650 -3.125 635 12.3125 630L120.28125 550C120.28125 535 115.15625 515 115.15625 500S115.15625 465.0000000000001 120.28125 450L12.3125 375C2 370 -3.125 355 7.15625 340.0000000000001L110 165C115.15625 150 130.5625 145 140.84375 150L264.28125 205C289.96875 185 325.96875 165 356.78125 155L372.25 25C372.25 10 382.53125 0 397.9375 0H603.625C619.03125 0 629.3125 10 629.3125 25L644.75 155C680.75 170 711.59375 185 737.3125 205L860.71875 150C871 145 886.40625 150 891.5625 160L994.375 335C999.53125 345 999.53125 360 989.25 370L881.28125 450zM500.7812499999999 300C387.65625 300 295.09375 390 295.09375 500C295.09375 610 387.65625 700 500.7812499999999 700C613.90625 700 706.46875 610 706.46875 500C706.46875 390 613.90625 300 500.7812499999999 300z" />
    <glyph glyph-name="collapse"
      unicode="&#xEA6C;"
      horiz-adv-x="1000" d="M86.96875 1000L0 913.03125L198.75 714.28125L43.46875 559H440.96875V956.5L285.75 801.25zM714.28125 198.75L913.03125 0L1000 86.96875L801.25 285.71875L956.53125 441.0000000000001H559.03125V43.5zM913.03125 1000L1000 913.03125L801.25 714.28125L956.53125 559H559.03125V956.5L714.28125 801.25zM0 86.96875L86.96875 0L285.71875 198.75L441 43.46875V440.96875H43.5L198.75 285.71875z" />
    <glyph glyph-name="commandline"
      unicode="&#xEA6D;"
      horiz-adv-x="1000" d="M978.53125 62.5H21.5A21.6875 21.6875 0 0 0 0 84V916C0 927.71875 9.78125 937.5 21.5 937.5H978.53125C990.25 937.5 1000 927.71875 1000 916V83.96875A21.6875 21.6875 0 0 0 978.5 62.5zM959 896.5H41.03125V103.53125H959V896.46875zM103.53125 853.5H896.5C908.21875 853.5 916.03125 845.6875 916.03125 833.96875V166C916.03125 154.28125 908.21875 146.46875 896.5 146.46875H103.53125C91.78125 146.46875 83.96875 154.28125 83.96875 166V833.96875C83.96875 845.6875 91.78125 853.5 103.53125 853.5zM541.03125 521.46875H709C720.71875 521.46875 728.53125 529.28125 728.53125 541.03125C728.53125 552.71875 720.71875 562.5 709 562.5H541.03125C529.3125 562.5 521.5 552.71875 521.5 541C521.5 529.3125 529.3125 521.5 541.03125 521.5zM296.875 472.65625A21.25 21.25 0 0 1 296.875 443.3437499999999C302.75 439.4374999999999 306.65625 437.5 312.5 437.5C318.375 437.5 322.28125 439.4687500000001 328.125 443.3750000000001L431.65625 546.875A23.75 23.75 0 0 1 431.65625 578.125L328.125 681.65625A23.75 23.75 0 0 1 296.875 681.65625A21.25 21.25 0 0 1 296.875 652.34375L386.71875 562.5L296.875 472.65625z" />
    <glyph glyph-name="comments"
      unicode="&#xEA6E;"
      horiz-adv-x="1000" d="M900 1000H100A100.3125 100.3125 0 0 1 0 900V300C0 245 45 200 100 200H800L1000 0V900C1000 955 955 1000 900 1000zM800 750H200V850H800V750zM800 550H200V650H800V550zM650 350H200V450H650V350z" />
    <glyph glyph-name="component"
      unicode="&#xEA6F;"
      horiz-adv-x="1000" d="M940.625 1000H615.625C581.25 1000 556.25 971.875 556.25 940.625V615.625C556.25 581.25 584.375 556.25 615.625 556.25H940.625C975 556.25 1000 584.375 1000 615.625V940.625C1000 971.875 971.875 1000 940.625 1000zM921.875 631.25H631.25V921.875H921.875V631.25zM750 443.75H443.75V740.625C443.75 775 415.625 800 384.375 800H59.375C28.125 800 0 771.875 0 740.625V62.5C0 28.125 28.125 0 59.375 0H750C784.375 0 809.375 28.125 809.375 59.375V384.375C809.375 418.75 784.375 443.75 750 443.75zM365.625 78.125H78.125V356.25H365.625V78.125zM368.75 443.75H78.125V725H368.75V443.75zM734.375 78.125H446.875V368.75H734.375V78.125z" />
    <glyph glyph-name="component-create"
      unicode="&#xEA70;"
      horiz-adv-x="1000" d="M162.5 571.875H106.25V465.625H0V406.25H106.25V300H162.5V406.25H268.75V465.625H162.5V571.875zM956.25 809.375H771.875C746.875 809.375 728.125 790.625 728.125 765.625V581.25C728.125 556.25 746.875 537.5 771.875 537.5H956.25C981.25 537.5 1000 556.25 1000 581.25V765.625C1000 790.625 981.25 809.375 956.25 809.375zM943.75 596.875H787.5V750H943.75V596.875zM831.25 462.5H653.125V634.375C653.125 659.375 634.375 678.125 609.375 678.125H425C400 678.125 381.25 659.375 381.25 634.375V234.375C381.25 209.375 400 190.625 425 190.625H831.25C856.25 190.625 875 209.375 875 234.375V418.75C875 443.75 853.125 462.5 831.25 462.5zM593.75 246.875H437.5V403.125H593.75V246.875zM593.75 465.625H437.5V621.875H593.75V465.625zM815.625 246.875H659.375V403.125H815.625V246.875z" />
    <glyph glyph-name="condition"
      unicode="&#xEA71;"
      horiz-adv-x="1000" d="M300.53125 535.46875H714.125C826.90625 535.46875 920.90625 633.96875 920.90625 752.125C920.90625 870.28125 826.875 968.75 714.125 968.75H300.53125C187.71875 968.75 93.75 870.28125 93.75 752.125C93.75 633.96875 187.75 535.46875 300.53125 535.46875zM300.53125 889.96875C371.96875 889.96875 432.125 826.96875 432.125 752.125C432.125 677.28125 371.96875 614.25 300.5625 614.25C229.09375 614.25 168.9375 677.28125 168.9375 752.125S229.09375 889.96875 300.53125 889.96875zM714.125 456.7187500000001H300.53125C187.71875 456.7187500000001 93.75 358.25 93.75 240.0625000000001C93.75 121.90625 187.75 23.4375 300.53125 23.4375H714.125C826.90625 23.4375 920.90625 121.90625 920.90625 240.0625000000001C920.90625 358.25 826.90625 456.7187500000001 714.125 456.7187500000001zM714.125 102.21875C642.6875 102.21875 582.53125 165.25 582.53125 240.0625000000001C582.53125 314.90625 642.6875 377.9375 714.09375 377.9375C785.5625 377.9375 845.71875 314.90625 845.71875 240.0625000000001C845.71875 165.25 785.5625 102.21875 714.125 102.21875z" />
    <glyph glyph-name="copy"
      unicode="&#xEA72;"
      horiz-adv-x="1000" d="M193.75 1000A100.3125 100.3125 0 0 1 93.75 900V250H193.75V900H693.75V1000H193.75zM393.75 800A100.3125 100.3125 0 0 1 293.75 700V100C293.75 45 338.75 0 393.75 0H843.75C898.75 0 943.75 45 943.75 100V700C943.75 755 898.75 800 843.75 800H393.75zM393.75 700H843.75V100H393.75V700z" />
    <glyph glyph-name="copy-app"
      unicode="&#xEA73;"
      horiz-adv-x="1000" d="M729.1562500000027 541.6562499999991C878.5312500000027 541.6562499999991 1000.0000000000026 420.1562499999992 1000.0000000000026 270.8437499999992C1000.0000000000026 121.4999999999993 878.5000000000027 -9e-13 729.1562500000027 -9e-13C579.8437500000027 -9e-13 458.3437500000027 121.4999999999993 458.3437500000027 270.8437499999992C458.3437500000027 420.1562499999992 579.8437500000027 541.6562499999991 729.1562500000027 541.6562499999991zM605.7187500000027 428.5624999999993A34.375 34.375 0 0 1 571.4375000000027 394.2812499999992V171.4374999999992H605.7187500000027V394.2812499999992H777.1562500000027V428.5624999999993H605.7187500000027zM674.2812500000027 325.7187499999992H828.5625000000027V119.9999999999988H674.2812500000027V325.7187499999989zM674.2812500000027 359.9999999999992A34.375 34.375 0 0 1 640.0000000000028 325.7187499999992V119.9999999999988A34.375 34.375 0 0 1 674.2812500000027 85.7187499999989H828.5625000000027A34.375 34.375 0 0 1 862.8437500000027 119.9999999999988V325.7187499999989A34.375 34.375 0 0 1 828.5625000000027 359.9999999999988H674.2812500000027zM875 895.8437500000011V833.3437500000011H0V895.8437500000011A104.25 104.25 0 0 0 104.15625 1000.0000000000013H770.84375A104.28125 104.28125 0 0 0 875 895.8437500000011zM145.84375 875.0000000000008A20.875 20.875 0 1 1 145.75 916.7500000000013A20.875 20.875 0 0 1 145.84375 875.0000000000008zM229.15625 875.0000000000008A20.875 20.875 0 1 1 229.09375 916.7500000000013A20.875 20.875 0 0 1 229.15625 875.0000000000008zM312.5 875.0000000000008A20.875 20.875 0 1 1 312.4375 916.7500000000013A20.875 20.875 0 0 1 312.5 875zM875 547.03125V791.65625H0V395.84375A104.25 104.25 0 0 1 104.15625 291.65625H417.71875C432.625 516.5 675.09375 652.875 875 547.03125z" />
    <glyph glyph-name="copy-filled"
      unicode="&#xEA74;"
      horiz-adv-x="1000" d="M208.34375 83.34375H750V0H125V875H208.34375V83.34375zM679.6875 1000L875 804.6875V125H250V1000H679.6875zM791.65625 708.34375V750H625V916.65625H583.34375V708.34375H791.65625z" />
    <glyph glyph-name="credit-card"
      unicode="&#xEA75;"
      horiz-adv-x="1000" d="M100 875C45.34375 875 0 829.65625 0 775V225C0 170.34375 45.34375 125 100 125H900C954.65625 125 1000 170.34375 1000 225V775C1000 829.65625 954.65625 875 900 875H100zM100 775H900V675H100V775zM100 525H900V225H100V525z" />
    </font>
</defs>
</svg>
