<svg xmlns="http://www.w3.org/2000/svg" width="32" height="32" viewBox="0 0 32 32"><title>3d rotate</title><g fill="#212121" class="nc-icon-wrapper"><path transform="matrix(1 0 0 -1 0 32)" d="M 10.03 3.36 A 13.983 13.983 0 0 0 2.07 14.667 H 0.07 C 0.75 6.453 7.617 0 16.003 0 L 16.883 0.04 L 11.803 5.12 L 10.03 3.36 z M 11.217 12.053 C 10.963 12.053 10.723 12.093 10.523 12.16 A 1.426 1.426 0 0 0 9.99 12.48 A 1.321 1.321 0 0 0 9.643 12.973 C 9.563 13.16 9.523 13.373 9.523 13.6 H 7.79 C 7.79 13.12 7.883 12.693 8.07 12.333 C 8.257 11.973 8.51 11.667 8.817 11.413 C 9.137 11.173 9.497 10.987 9.91 10.867 C 10.31 10.733 10.737 10.667 11.19 10.667 C 11.683 10.667 12.15 10.733 12.563 10.867 C 12.99 10.999999999999988 13.363 11.199999999999987 13.67 11.452999999999987 C 13.977 11.707 14.23 12.027 14.403 12.413 C 14.577 12.8 14.67 13.227 14.67 13.707 C 14.67 13.96 14.643 14.213 14.577 14.453 A 2.226 2.226 0 0 1 14.27 15.132999999999987 C 14.137 15.346999999999987 13.95 15.532999999999987 13.737 15.707 A 2.744 2.744 0 0 1 12.923 16.12 A 2.798 2.798 0 0 1 14.11 17.12 C 14.243 17.32 14.337 17.52 14.403 17.733 C 14.47 17.947 14.497 18.16 14.497 18.373 C 14.497 18.853 14.417 19.28 14.257 19.652999999999988 A 2.374 2.374 0 0 1 13.577 20.573 C 13.31 20.826999999999988 12.95 21.012999999999987 12.55 21.146999999999988 A 4.86 4.86 0 0 1 11.19 21.332999999999988 C 10.71 21.332999999999988 10.27 21.267 9.857 21.12 C 9.457 20.97299999999999 9.097 20.773 8.803 20.52 C 8.523 20.267 8.297 19.97299999999999 8.123 19.627 C 7.963 19.28 7.883 18.907 7.883 18.493 H 9.617 C 9.617 18.719999999999988 9.657 18.92 9.737 19.093 C 9.817 19.267 9.923 19.427 10.07 19.547 C 10.217 19.667 10.377 19.773 10.577 19.84 C 10.777 19.907 10.977 19.94699999999999 11.217 19.94699999999999 C 11.75 19.94699999999999 12.15 19.812999999999988 12.403 19.533 C 12.657 19.267 12.79 18.87999999999999 12.79 18.387 C 12.79 18.146999999999988 12.75 17.933 12.683 17.733 C 12.617 17.533 12.497 17.373 12.35 17.24 C 12.203 17.107 12.017 17 11.803 16.92 C 11.59 16.84 11.323 16.8 11.03 16.8 H 10.003 V 15.427 H 11.03 C 11.323 15.427 11.59 15.399999999999988 11.83 15.332999999999988 C 12.07 15.267 12.27 15.16 12.43 15.026999999999987 C 12.59 14.879999999999988 12.723 14.706999999999988 12.817 14.492999999999988 C 12.91 14.279999999999987 12.95 14.026999999999987 12.95 13.732999999999988 C 12.95 13.186999999999987 12.79 12.772999999999987 12.483 12.492999999999988 C 12.177 12.186999999999987 11.75 12.052999999999987 11.217 12.052999999999987 z M 22.617 19.947 A 4.441 4.441 0 0 1 21.097 20.973 C 20.523 21.213 19.87 21.333 19.15 21.333 H 16.003 V 10.667 H 19.07 C 19.803 10.667 20.483 10.787 21.083 11.027 C 21.683 11.266999999999987 22.203 11.6 22.63 12.039999999999987 A 4.5 4.5 0 0 1 23.617 13.626999999999988 A 6.1 6.1 0 0 1 23.963 15.719999999999988 V 16.253 C 23.963 17.026999999999987 23.843 17.719999999999988 23.617 18.346999999999987 A 4.66 4.66 0 0 1 22.617 19.94699999999999 z M 22.097 15.733 C 22.097 15.173 22.03 14.68 21.91 14.227 C 21.777 13.787 21.59 13.4 21.337 13.093 A 2.494 2.494 0 0 0 20.39 12.387 C 20.003 12.227 19.563 12.147 19.07 12.147 H 17.857 V 19.84 H 19.15 C 20.11 19.84 20.843 19.533 21.337 18.92 C 21.843 18.307 22.097 17.427 22.097 16.267 V 15.733 z M 16.003 32 L 15.123 31.96 L 20.203 26.88 L 21.977 28.653 C 26.337 26.587 29.457 22.36 29.923 17.347 H 31.923 C 31.257 25.547 24.39 32 16.003 32 z" fill="#212121" class="nc-icon-wrapper"></path></g></svg>