<svg xmlns="http://www.w3.org/2000/svg" width="32" height="32" viewBox="0 0 32 32"><title>action close</title><g fill="#F7F7F7" class="nc-icon-wrapper"><path transform="matrix(1 0 0 -1 0 32)" d="M 21.3 23 L 16 17.7 L 10.7 23 L 9 21.3 L 14.3 16 L 9 10.7 L 10.7 9 L 16 14.3 L 21.3 9 L 23 10.7 L 17.7 16 L 23 21.3 L 21.3 23 z M 16 32 C 7.2 32 0 24.8 0 16 S 7.2 0 16 0 S 32 7.2 32 16 S 24.8 32 16 32 z M 16 2.5 C 8.5 2.5 2.5 8.5 2.5 16 S 8.5 29.5 16 29.5 S 29.5 23.5 29.5 16 S 23.5 2.5 16 2.5 z" fill="#F7F7F7" class="nc-icon-wrapper"></path></g></svg>