<svg xmlns="http://www.w3.org/2000/svg" width="32" height="32" viewBox="0 0 32 32"><title>add circle</title><g fill="#F7F7F7" class="nc-icon-wrapper"><path transform="matrix(1 0 0 -1 0 32)" d="M 16 32 C 7.178 32 0 24.822 0 16 S 7.178 0 16 0 S 32 7.178 32 16 S 24.822 32 16 32 z M 16 3.2 C 8.942 3.2 3.2 8.942 3.2 16 C 3.2 23.058 8.942 28.8 16 28.8 C 23.058 28.8 28.8 23.058 28.8 16 C 28.8 8.942 23.058 3.2 16 3.2 z M 17.599999999999913 24 H 14.399999999999913 V 17.6 H 7.999999999999912 V 14.4 H 14.399999999999913 V 8 H 17.599999999999913 V 14.4 H 23.99999999999991 V 17.6 H 17.599999999999913 V 24 z" fill="#F7F7F7" class="nc-icon-wrapper"></path></g></svg>