<svg xmlns="http://www.w3.org/2000/svg" width="32" height="32" viewBox="0 0 32 32"><title>add circle filled</title><g fill="#212121" class="nc-icon-wrapper"><path transform="matrix(1 0 0 -1 0 32)" d="M 16.239 16.395 V 24.554 A 0.317 0.317 0 1 1 15.605 24.554 V 16.394 H 7.446 A 0.317 0.317 0 1 1 7.446 15.761 H 15.606 V 7.445 A 0.317 0.317 0 1 1 16.239 7.445 V 15.761 H 24.555 A 0.317 0.317 0 1 1 24.555 16.395 H 16.239 z M 16 32 C 24.833 32 32 24.833 32 16 S 24.833 0 16 0 S 0 7.167 0 16 S 7.167 32 16 32 z" fill="#212121" class="nc-icon-wrapper"></path></g></svg>