<svg xmlns="http://www.w3.org/2000/svg" width="32" height="32" viewBox="0 0 32 32"><title>add circle thin</title><g fill="#212121" class="nc-icon-wrapper"><path transform="matrix(1 0 0 -1 0 32)" d="M 24.4 16.8 H 16.7 V 24.3 C 16.7 24.7 16.4 25 16 25 C 15.6 25 15.3 24.7 15.3 24.3 V 16.7 H 7.6 C 7.2 16.7 6.9 16.4 6.9 16 C 6.9 15.6 7.2 15.3 7.6 15.3 H 15.2 V 7.6 C 15.2 7.2 15.5 6.9 15.9 6.9 C 16.3 6.9 16.6 7.2 16.6 7.6 V 15.3 H 24.3 C 24.7 15.3 25 15.6 25 16 C 25 16.5 24.7 16.8 24.4 16.8 z M 16 32 C 7.2 32 0 24.8 0 16 S 7.2 0 16 0 S 32 7.2 32 16 S 24.8 32 16 32 z M 16 1.4 C 7.9 1.4 1.4 7.9 1.4 16 S 7.9 30.6 16 30.6 S 30.6 24.1 30.6 16 S 24.1 1.4 16 1.4 z" fill="#212121" class="nc-icon-wrapper"></path></g></svg>