<svg xmlns="http://www.w3.org/2000/svg" width="32" height="32" viewBox="0 0 32 32"><title>add new</title><g fill="#F7F7F7" class="nc-icon-wrapper"><path transform="matrix(1 0 0 -1 0 32)" d="M 30.25 1 H 1.75 C 0.812 1 0 1.833 0 2.857 V 30.143 C 0 31.167 0.813 32 1.75 32 H 30.25 C 31.188 32 32 31.167 32 30.143 V 2.857 C 32 1.833 31.187 1 30.25 1 z M 23.125 17.397 H 16.875 V 23.802 C 16.875 24.314 16.5 24.698 16 24.698 S 15.125 24.314 15.125 23.802 V 17.397 H 8.875 C 8.375 17.397 8 17.012 8 16.5 S 8.375 15.603 8.875 15.603 H 15.125 V 9.198 C 15.125 8.686 15.5 8.302 16 8.302 S 16.875 8.686 16.875 9.198 V 15.603 H 23.125 C 23.625 15.603 24 15.988 24 16.5 S 23.625 17.397 23.125 17.397 z" fill="#F7F7F7" class="nc-icon-wrapper"></path></g></svg>