<svg xmlns="http://www.w3.org/2000/svg" width="32" height="32" viewBox="0 0 32 32"><title>add node</title><g fill="#212121" class="nc-icon-wrapper"><path transform="matrix(1 0 0 -1 0 32)" d="M 15.36 22.182 H 23.777 A 3.89 3.89 0 0 1 31.03 24.122 A 3.89 3.89 0 0 1 27.151 28 C 25.716 28 24.475 27.224 23.777 26.06 H 11.21 C 12.916 25.246 14.274 23.81 15.36 22.182 z M 27.151 26.448 A 2.334 2.334 0 0 0 29.479 24.121 A 2.334 2.334 0 0 0 27.151 21.794 A 2.334 2.334 0 0 0 24.824 24.121 A 2.334 2.334 0 0 0 27.151 26.448 z M 21.915 10.856 C 20.209 11.631 18.929 13.92 17.261 17.256 C 15.166 21.367 12.839 26.061 7.758 26.061 H 7.253 A 3.89 3.89 0 0 1 0 24.12 A 3.89 3.89 0 0 1 3.879 20.241 C 5.314 20.241 6.555 21.017 7.253 22.181 H 7.758 C 10.24 22.181 11.714 19.66 13.77 15.509 C 15.71 11.669 17.881 7.325 22.264 6.743 L 24.126 8.605 L 21.916 10.855 z M 3.88 21.794 A 2.334 2.334 0 0 0 1.552 24.12 A 2.334 2.334 0 0 0 3.879 26.447 A 2.334 2.334 0 0 0 6.206 24.12 A 2.334 2.334 0 0 0 3.879 21.793 z M 32 11.515 L 30.1 13.415 L 27.151 10.507 L 24.242 13.416 L 22.342000000000013 11.516 L 25.251000000000012 8.606 L 22.341 5.697 L 24.242 3.797 L 27.152 6.706 L 30.061000000000014 3.796 L 31.961 5.697 L 29.052000000000014 8.607 L 32 11.514 z" fill="#212121" class="nc-icon-wrapper"></path></g></svg>