<svg xmlns="http://www.w3.org/2000/svg" width="32" height="32" viewBox="0 0 32 32"><title>app workspaces</title><g fill="#F7F7F7" class="nc-icon-wrapper"><path transform="matrix(1 0 0 -1 0 32)" d="M 12.8 14.4 H 6.4 C 5.5 14.4 4.8 13.7 4.8 12.8 V 6.4 C 4.8 5.5 5.5 4.8 6.4 4.8 H 12.8 C 13.7 4.8 14.4 5.5 14.4 6.4 V 12.8 C 14.4 13.7 13.7 14.4 12.8 14.4 z M 12.8 6.4 H 6.4 V 12.8 H 12.8 V 6.4 z M 25.6 14.4 H 19.2 C 18.3 14.4 17.6 13.7 17.6 12.8 V 6.4 C 17.6 5.5 18.3 4.8 19.2 4.8 H 25.6 C 26.5 4.8 27.2 5.5 27.2 6.4 V 12.8 C 27.2 13.7 26.5 14.4 25.6 14.4 z M 25.6 6.4 H 19.2 V 12.8 H 25.6 V 6.4 z M 28.8 32 H 3.2 C 1.4 32 0 30.6 0 28.8 V 3.2 C 0 1.4 1.4 0 3.2 0 H 28.8 C 30.6 0 32 1.4 32 3.2 V 28.8 C 32 30.6 30.6 32 28.8 32 z M 29.6 3.2 C 29.6 2.8 29.2 2.4 28.8 2.4 H 3.2 C 2.8 2.4 2.4 2.8 2.4 3.2 V 28.8 C 2.4 29.2 2.8 29.6 3.2 29.6 H 28.8 C 29.2 29.6 29.6 29.2 29.6 28.8 V 3.2 z M 25.6 27.2 H 19.2 C 18.3 27.2 17.6 26.5 17.6 25.6 V 19.2 C 17.6 18.3 18.3 17.6 19.2 17.6 H 25.6 C 26.5 17.6 27.2 18.3 27.2 19.2 V 25.6 C 27.2 26.5 26.5 27.2 25.6 27.2 z M 25.6 19.2 H 19.2 V 25.6 H 25.6 V 19.2 z M 12.8 27.2 H 6.4 C 5.5 27.2 4.8 26.5 4.8 25.6 V 19.2 C 4.8 18.3 5.5 17.6 6.4 17.6 H 12.8 C 13.7 17.6 14.4 18.3 14.4 19.2 V 25.6 C 14.4 26.5 13.7 27.2 12.8 27.2 z M 12.8 19.2 H 6.4 V 25.6 H 12.8 V 19.2 z" fill="#F7F7F7" class="nc-icon-wrapper"></path></g></svg>