<svg xmlns="http://www.w3.org/2000/svg" width="32" height="32" viewBox="0 0 32 32"><title>app store</title><g fill="#212121" class="nc-icon-wrapper"><path transform="matrix(1 0 0 -1 0 32)" d="M 0 12.312 V 16.695 C 0 17.043 0.278 17.39 0.696 17.39 H 8.417 L 5.01 11.617 H 0.696 C 0.278 11.617 0 11.895 0 12.312 z M 5.426 3.408 L 2.991 1.738 C 2.643 1.53 2.435 1.668 2.504 2.086 L 2.783 4.938 C 2.853 5.286 3.2 5.495 3.548 5.286 L 5.426 4.173 C 5.774 3.964 5.774 3.617 5.426 3.408 z M 6.052 5.008 L 4.104 6.12 C 3.757 6.329 3.687 6.746 3.896 7.094 L 12.66 22.33 C 12.869 22.677 13.286 22.817 13.634 22.608 L 15.582 21.495 C 15.929 21.286 15.999 20.869 15.79 20.521 L 7.026 5.286 C 6.817 4.938 6.4 4.799 6.052 5.008 z M 12.73 11.617 L 16.07 17.39 H 18.017 L 20.73 11.617 H 12.73 z M 23.652 9.877000000000013 C 22.887 10.225 19.061 18.921000000000014 18.087 21.217000000000013 C 17.113 23.51200000000001 14.191 29.49500000000001 15.165 29.982000000000014 C 15.861 30.330000000000013 18.226 25.59900000000001 20.105 22.747000000000014 C 21.913 19.895000000000014 25.67 12.521000000000013 26.157 11.687 C 26.574 10.851000000000013 25.67 10.156000000000013 25.183 9.947000000000013 C 24.696 9.669000000000013 24.417 9.460000000000013 23.653 9.877000000000013 z M 26.087 5.843000000000012 L 24.974 7.651000000000012 C 24.765 8.069000000000013 24.834 8.486000000000013 25.252 8.695000000000013 L 26.365 9.251000000000012 C 26.713 9.461000000000013 27.2 9.321000000000012 27.409 8.904000000000012 L 28.313 7.164000000000012 C 28.522 6.817000000000013 28.383 6.260000000000012 27.965 6.051000000000013 L 27.2 5.634000000000013 C 26.852 5.356000000000012 26.365 5.494000000000012 26.087 5.843000000000012 z M 30.33 1.1820000000000126 C 30.052 1.9470000000000125 28.244 1.9470000000000125 27.409 3.1300000000000123 C 26.644 4.243000000000013 27.269 4.869000000000012 27.617 5.147000000000013 C 30.887 6.956000000000013 30.33 1.1820000000000126 30.33 1.1820000000000126 z M 32 12.312 C 32 11.895 31.722 11.617 31.304 11.617 H 27.478 C 27.408 11.825 27.339 12.034 27.2 12.243 C 27.13 12.451 26.852 12.938 26.504 13.564 C 26.017 14.538 25.252 15.93 24.487 17.39 H 31.304 C 31.722 17.39 32 17.043000000000013 32 16.695 V 12.312 z" fill="#212121" class="nc-icon-wrapper"></path></g></svg>