<svg width="32" height="32" viewBox="0 0 32 32" xmlns="http://www.w3.org/2000/svg"><g class="nc-icon-wrapper" fill="#444444"><path d="M0 19.688v-4.383c0-.348.278-.695.696-.695h7.721L5.01 20.383H.696c-.418 0-.696-.278-.696-.695zm5.426 8.904l-2.435 1.67c-.348.208-.556.07-.487-.348l.279-2.852c.07-.348.417-.557.765-.348l1.878 1.113c.348.209.348.556 0 .765zm.626-1.6L4.104 25.88c-.347-.209-.417-.626-.208-.974L12.66 9.67c.209-.347.626-.487.974-.278l1.948 1.113c.347.209.417.626.208.974L7.026 26.714c-.209.348-.626.487-.974.278zm6.678-6.609l3.34-5.773h1.947l2.713 5.773h-8zm10.922 1.74c-.765-.348-4.591-9.044-5.565-11.34-.974-2.295-3.896-8.278-2.922-8.765.696-.348 3.061 4.383 4.94 7.235 1.808 2.852 5.565 10.226 6.052 11.06.417.836-.487 1.531-.974 1.74-.487.278-.766.487-1.53.07zm2.435 4.034l-1.113-1.808c-.209-.418-.14-.835.278-1.044l1.113-.556c.348-.21.835-.07 1.044.347l.904 1.74c.209.347.07.904-.348 1.113l-.765.417c-.348.278-.835.14-1.113-.209zm4.243 4.661c-.278-.765-2.086-.765-2.921-1.948-.765-1.113-.14-1.739.208-2.017 3.27-1.809 2.713 3.965 2.713 3.965zM32 19.688c0 .417-.278.695-.696.695h-3.826c-.07-.208-.139-.417-.278-.626-.07-.208-.348-.695-.696-1.321-.487-.974-1.252-2.366-2.017-3.826h6.817c.418 0 .696.347.696.695v4.383z"></path></g></svg>