<svg xmlns="http://www.w3.org/2000/svg" width="32" height="32" viewBox="0 0 32 32"><title>applet</title><g fill="#F7F7F7" class="nc-icon-wrapper"><path transform="matrix(1 0 0 -1 0 32)" d="M 27.1 25.7 H 4.4 V 21.7 H 27.1 V 25.7 z M 27.1 18.3 H 4.4 V 14.3 H 27.1 V 18.3 z M 27.1 10.3 H 4.4 V 6.3 H 27.1 V 10.3 z M 30.2 32 H 1.3 C 0.6 32 0 31.4 0 30.7 V 1.4 C 0 0.7 0.6 0.1 1.3 0.1 H 30.2 C 30.9 0.1 31.5 0.7 31.5 1.4 V 30.7 C 31.6 31.4 31 32 30.2 32 z M 29.2 2.3 H 2.3 V 29.6 H 29.2 V 2.3 z" fill="#F7F7F7" class="nc-icon-wrapper"></path></g></svg>