<svg xmlns="http://www.w3.org/2000/svg" width="32" height="32" viewBox="0 0 32 32"><title>applets</title><g fill="#F7F7F7" class="nc-icon-wrapper"><path transform="matrix(1 0 0 -1 0 32)" d="M 14.4 6.4 H 17.6 V 9.6 H 14.4 V 6.4 z M 4.8 20.8 H 11.2 V 27.2 H 4.8 V 20.8 z M 12.8 12.8 H 19.2 V 19.2 H 12.8 V 12.8 z M 4.8 12.8 H 11.2 V 19.2 H 4.8 V 12.8 z M 4.8 4.8 H 11.2 V 11.2 H 4.8 V 4.8 z M 12.8 20.8 H 19.2 V 27.2 H 12.8 V 20.8 z M 28.8 32 H 3.2 C 1.4 32 0 30.6 0 28.8 V 3.2 C 0 1.4 1.4 0 3.2 0 H 28.8 C 30.6 0 32 1.4 32 3.2 V 28.8 C 32 30.6 30.6 32 28.8 32 z M 29.6 3.2 C 29.6 2.8 29.2 2.4 28.8 2.4 H 3.2 C 2.8 2.4 2.4 2.8 2.4 3.2 V 28.8 C 2.4 29.2 2.8 29.6 3.2 29.6 H 28.8 C 29.2 29.6 29.6 29.2 29.6 28.8 V 3.2 z M 20.8 20.8 H 27.2 V 27.2 H 20.8 V 20.8 z M 22.4 14.4 H 25.6 V 17.6 H 22.4 V 14.4 z M 22.4 6.4 H 25.6 V 9.6 H 22.4 V 6.4 z" fill="#F7F7F7" class="nc-icon-wrapper"></path></g></svg>