<svg xmlns="http://www.w3.org/2000/svg" width="32" height="32" viewBox="0 0 32 32"><title>apps</title><g fill="#F7F7F7" class="nc-icon-wrapper"><path transform="matrix(1 0 0 -1 0 32)" d="M 31.313 0 H 8.688 A 0.694 0.694 0 0 0 8 0.688 V 6.688 H 24.688 C 25.063 6.688 25.313 6.938 25.313 7.313 V 24 H 31.313 C 31.688 24 32 23.687 32 23.312 V 0.688 A 0.694 0.694 0 0 0 31.312 0 z M 0.688 8 A 0.694 0.694 0 0 0 0 8.688 V 31.312 C 0 31.687 0.313 32 0.688 32 H 23.313 C 23.688 32 24 31.687 24 31.312 V 8 H 0.687 z" fill="#F7F7F7" class="nc-icon-wrapper"></path></g></svg>