<svg xmlns="http://www.w3.org/2000/svg" width="32" height="32" viewBox="0 0 32 32"><title>area chart</title><g fill="#212121" class="nc-icon-wrapper"><path transform="matrix(1 0 0 -1 0 32)" d="M 31.49 28.696 C 31.809 29.15 32 29.086 32 28.566 V 3 H 0.485 C 0.23 3 0.102 3.13 0.038 3.26 S -0.026 3.584 0.166 3.844 L 7.694 13.382 C 8.14 13.902 8.587 13.902 8.97 13.447 L 11.394 11.241 C 11.649 11.111 11.84 10.981 12.096 11.046 C 12.351 11.046 12.542 11.176 12.67 11.371 L 17.837 19.287 C 18.157 19.871 18.603 19.937000000000012 19.049 19.417 L 22.686 15.977 C 23.132 15.524 23.579 15.589 23.962 16.107000000000014 L 31.49 28.697 z" fill="#212121" class="nc-icon-wrapper"></path></g></svg>