<svg xmlns="http://www.w3.org/2000/svg" width="32" height="32" viewBox="0 0 32 32"><title>asset outline small</title><g fill="#F7F7F7" class="nc-icon-wrapper"><path transform="matrix(1 0 0 -1 0 32)" d="M 16 3.3 L 11.7 7.6 L 10 6 L 16 0 L 22 6 L 20.3 7.7 z M 26 22 L 24.3 20.3 L 28.6 16 L 24.3 11.7 L 26 10 L 32 16 z M 6 22 L 0 16 L 6 10 L 7.7 11.7 L 3.3 16 L 7.6 20.3 z M 16 10.5 C 19 10.5 21.5 13 21.5 16 S 19 21.5 16 21.5 S 10.5 19 10.5 16 S 13 10.5 16 10.5 z M 16 19.1 C 17.7 19.1 19.1 17.7 19.1 16 S 17.7 12.9 16 12.9 S 12.9 14.3 12.9 16 S 14.3 19.1 16 19.1 z M 10 26 L 11.7 24.3 L 16 28.7 L 20.3 24.4 L 22 26 L 16 32 z" fill="#F7F7F7" class="nc-icon-wrapper"></path></g></svg>