<svg xmlns="http://www.w3.org/2000/svg" width="32" height="32" viewBox="0 0 32 32"><title>asset outline</title><g fill="#212121" class="nc-icon-wrapper"><path transform="matrix(1 0 0 -1 0 32)" d="M 16 2.1 L 11.5 6.6 L 10.4 5.5 L 16 0 L 21.5 5.5 L 20.4 6.6 z M 26.5 21.5 L 25.4 20.4 L 29.9 15.9 L 25.4 11.4 L 26.5 10.3 L 32 16 z M 5.5 21.5 L 0 16 L 5.5 10.5 L 6.6 11.6 L 2.1 16 L 6.6 20.5 z M 10.5 26.5 L 11.6 25.4 L 16 29.9 L 20.5 25.4 L 21.6 26.5 L 16 32 z M 16 10.8 C 18.9 10.8 21.2 13.1 21.2 16 S 18.9 21.2 16 21.2 S 10.8 18.9 10.8 16 S 13.1 10.8 16 10.8 z M 16 19.7 C 18.1 19.7 19.7 18 19.7 16 S 18 12.3 16 12.3 S 12.3 14 12.3 16 S 13.9 19.7 16 19.7 z" fill="#212121" class="nc-icon-wrapper"></path></g></svg>