<svg xmlns="http://www.w3.org/2000/svg" width="32" height="32" viewBox="0 0 32 32"><title>assets</title><g fill="#212121" class="nc-icon-wrapper"><g fill="#212121"><path transform="scale(1,-1) translate(0,-32)" d="M 31.563 13.703 L 16.25 6.953 C 16.187 6.891 16.125 6.891 16 6.891 C 15.937 6.891 15.812 6.891 15.75 6.953 L 0.437 13.703 C 0.063 13.891 -0.063 14.266 0.063 14.641 C 0.25 14.953 0.625 15.141 0.938 14.953 L 16 8.266 L 31.063 14.953 C 31.375000000000014 15.141 31.813 14.953 31.938 14.641 C 32.063 14.266 31.938 13.891 31.563 13.703 z M 31.563 17.828 L 16.25 11.016 C 16.187 10.953 16.125 10.953 16 10.953 C 15.937 10.953 15.812 10.953 15.75 11.016 L 0.437 17.828 C 0.063 17.953 -0.063 18.328 0.063 18.703 C 0.25 19.078 0.625 19.203 0.938 19.078 L 16 12.391 L 31.063 19.078 C 31.375000000000014 19.203 31.813 19.078 31.938 18.703 S 31.938 17.953 31.563 17.828 z M 16.25 15.078 C 16.187 15.078 16.125 15.016 16 15.016 C 15.937 15.016 15.812 15.078 15.75 15.078 L 0.437 21.891 C 0.188 22.016 0 22.266 0 22.516 S 0.188 23.016 0.438 23.141 L 15.75 29.953 C 15.938 30.016 16.125 30.016 16.25 29.953 L 31.563 23.141 C 31.813 23.016 32 22.766 32 22.516 S 31.812 22.016 31.562 21.891 L 16.25 15.078 z M 0.937 10.891 L 16 4.203 L 31.063 10.891 C 31.375000000000014 11.016 31.813 10.891 31.938 10.516 C 32.063 10.203 31.938 9.828 31.563 9.641 L 16.25 2.828 C 16.187 2.828 16.125 2.766 16 2.766 C 15.937 2.766 15.812 2.828 15.75 2.828 L 0.437 9.641 C 0.063 9.828 -0.063 10.203 0.063 10.516 C 0.25 10.891 0.625 11.016 0.938 10.891 z"></path></g></g></svg>