<svg xmlns="http://www.w3.org/2000/svg" width="32" height="32" viewBox="0 0 32 32"><title>attachment</title><g fill="#212121" class="nc-icon-wrapper"><path transform="matrix(1 0 0 -1 0 32)" d="M 23.734 30 A 8.817 8.817 0 0 1 17.774 27.595 H 17.724 V 27.545 L 8.106 17.928 A 5.007 5.007 0 0 1 8.106 10.865 A 5.007 5.007 0 0 1 15.169 10.865 L 23.534 19.23 L 21.23 21.484 L 12.915 13.119 C 12.294 12.499 10.981 12.499 10.36 13.119 C 9.739 13.741 9.739 15.053 10.36 15.674 L 19.977 25.241 C 22.11 27.248 25.364 27.388 27.291 25.341 C 29.275000000000013 23.233 29.26800000000001 19.855 27.341 17.928 L 17.723000000000013 8.311 C 14.508000000000013 4.961 9.109 5.091 5.702 8.361 C 2.336 11.591 2.299 16.93 5.702 20.332 L 11.662000000000013 26.242 L 9.408000000000012 28.547 L 3.4480000000000124 22.587 C -1.1639999999999875 17.975 -1.1519999999999875 10.52 3.4980000000000127 6.057 C 8.088000000000012 1.65 15.494000000000012 1.446 19.978000000000012 6.057 L 20.028000000000013 6.107 L 29.595000000000013 15.674 C 32.79700000000001 18.876000000000012 32.79000000000001 24.204 29.645000000000014 27.545 C 28.043 29.247 25.89 30.018 23.735 30 z" fill="#212121" class="nc-icon-wrapper"></path></g></svg>