<svg xmlns="http://www.w3.org/2000/svg" width="32" height="32" viewBox="0 0 32 32"><title>automation</title><g fill="#F7F7F7" class="nc-icon-wrapper"><path transform="matrix(1 0 0 -1 0 32)" d="M 19.6 23.5 L 22.6 17.5 L 32 19.4 L 31.5 21.8 L 23.9 20.3 L 21.7 24.8 L 23.9 29.3 L 31.5 27.8 L 31.9 30 L 22.5 31.9 L 19.5 25.9 H 9.5 C 9.1 28.1 7.2 29.7 4.8 29.7 C 2.2 29.7 0 27.6 0 24.9 S 2.2 20.1 4.8 20.1 C 5.2 20.1 5.6 20.1 5.9 20.2 L 11.2 8.2 H 3.2 C 1.4 8.2 0 6.8 0 5 V 0 H 25.7 V 5 C 25.7 6.8 24.3 8.2 22.5 8.2 H 13.9 L 8.1 21.3 C 8.7 21.9 9.2 22.6 9.5 23.5 z M 22.5 5.8 C 22.9 5.8 23.3 5.4 23.3 5 V 2.4 H 2.4 V 5 C 2.4 5.4 2.8 5.8 3.2 5.8 z M 4.8 22.5 C 3.5 22.5 2.4 23.6 2.4 24.9 S 3.5 27.3 4.8 27.3 S 7.2 26.2 7.2 24.9 S 6.2 22.5 4.8 22.5 z" fill="#F7F7F7" class="nc-icon-wrapper"></path></g></svg>