<svg xmlns="http://www.w3.org/2000/svg" width="32" height="32" viewBox="0 0 32 32"><title>automation alternate</title><g fill="#212121" class="nc-icon-wrapper"><path transform="matrix(1 0 0 -1 0 32)" d="M 30.4 22.5 L 31.6 24.5 L 23.4 29.4 L 18.5 24.8 L 9.7 27.3 C 9.6 29.9 7.5 32 4.8 32 C 2.2 32 0 29.8 0 27.2 S 2.2 22.4 4.8 22.4 H 5.2 L 10.8 8.2 H 3.2 C 1.4 8.2 0 6.8 0 5 V 0 H 25.7 V 5 C 25.7 6.8 24.3 8.2 22.5 8.2 H 13.5 L 7.5 23.2 C 8.2 23.6 8.7 24.3 9.1 25 L 17.8 22.6 L 18.6 16.1 L 28 14.7 L 28.4 17.1 L 20.8 18.2 L 20.2 23 L 23.8 26.4 z M 22.5 5.8 C 22.9 5.8 23.3 5.4 23.3 5 V 2.4 H 2.4 V 5 C 2.4 5.4 2.8 5.8 3.2 5.8 z M 4.8 24.8 C 3.5 24.8 2.4 25.9 2.4 27.2 S 3.5 29.6 4.8 29.6 S 7.2 28.5 7.2 27.2 S 6.2 24.8 4.8 24.8 z" fill="#212121" class="nc-icon-wrapper"></path></g></svg>