<svg xmlns="http://www.w3.org/2000/svg" width="32" height="32" viewBox="0 0 32 32"><title>back arrow</title><g fill="#F7F7F7" class="nc-icon-wrapper"><path transform="matrix(1 0 0 -1 0 32)" d="M 10.166999999999913 17.182000000000013 H 25.925999999999913 V 14.642000000000024 H 10.181999999999913 L 15.731999999999925 8.854000000000012 L 13.896999999999913 7.100000000000012 L 5.434999999999913 15.927000000000012 L 13.896999999999913 24.725000000000012 L 15.731999999999925 22.969000000000012 L 10.166999999999913 17.18100000000001 z M 16 32 C 7.164 32 0 24.836 0 16 S 7.164 0 16 0 S 32 7.164 32 16 S 24.836 32 16 32 z M 1.524 16 C 1.524 23.996 8.005 30.476 16 30.476 C 23.995 30.476 30.476 23.996 30.476 16 S 23.995 1.524 16 1.524 C 8.005 1.524 1.524 8.004 1.524 16 z" fill="#F7F7F7" class="nc-icon-wrapper"></path></g></svg>