<svg xmlns="http://www.w3.org/2000/svg" width="32" height="32" viewBox="0 0 32 32"><title>bell alarm</title><g fill="#212121" class="nc-icon-wrapper"><g fill="#212121"><path transform="scale(1,-1) translate(0,-32)" d="M 8.9 29.4 L 6.6 31.8 C 2.8 28.8 0.2 24.1 0 18.9 H 3.2 C 3.5 23.2 5.6 27 8.9 29.4 z M 28.8 18.9 H 32 C 31.8 24.2 29.2 28.8 25.4 31.8 L 23.1 29.5 C 26.4 27 28.5 23.2 28.8 18.9 z M 25.6 18.1 C 25.6 23.1 23 27.4 18.4 28.5 V 29.5 C 18.4 30.9 17.3 32 16 32 C 14.7 32 13.6 30.9 13.6 29.5 V 28.4 C 9 27.3 6.4 23.1 6.4 18.1 V 9.9 L 3.2 6.6 V 5 H 28.9 V 6.6 L 25.7 9.9 V 18.1 z M 16 0 C 16.2 0 16.4 0 16.6 0.1 C 17.6 0.3 18.5 1.1 18.9 2 C 19.1 2.4 19.1 2.8 19.1 3.3 H 12.7 C 12.8 1.5 14.2 0 16 0 z"></path></g></g></svg>