<svg width="32" height="32" viewBox="0 0 32 32" xmlns="http://www.w3.org/2000/svg"><g class="nc-icon-wrapper" fill="#444444"><path d="M31.313 25.313H.688c-.375 0-.688-.25-.688-.625S.313 24 .688 24C2.5 24 4 22.5 4 20.687v-6c0-4.874 3-9.312 7.438-11.124C11.938 1.5 13.874 0 16 0c2.188 0 4 1.5 4.5 3.563C25 5.375 28 9.813 28 14.687v6C28 22.5 29.5 24 31.313 24c.375 0 .687.313.687.688 0 .375-.313.625-.688.625zM12 26.688h8c.375 0 .688.25.688.625A4.681 4.681 0 0 1 16 32a4.681 4.681 0 0 1-4.688-4.688c0-.375.313-.625.688-.625z"></path></g></svg>