<svg xmlns="http://www.w3.org/2000/svg" width="32" height="32" viewBox="0 0 32 32"><title>bell</title><g fill="#212121" class="nc-icon-wrapper"><path transform="matrix(1 0 0 -1 0 32)" d="M 25.8 9.8 V 18 C 25.8 23 23.1 27.3 18.5 28.4 V 29.5 C 18.4 30.9 17.3 32 16 32 S 13.6 30.9 13.6 29.5 V 28.4 C 8.9 27.3 6.2 23.1 6.2 18.1 V 9.9 L 3 6.6 V 5 H 29 V 6.6 L 25.8 9.8 z M 16 0 C 16.2 0 16.4 0 16.7 0.1 C 17.8 0.3 18.6 1.1 19 2 C 19.2 2.4 19.2 2.8 19.2 3.3 H 12.7 C 12.8 1.5 14.2 0 16 0 z" fill="#212121" class="nc-icon-wrapper"></path></g></svg>