<svg xmlns="http://www.w3.org/2000/svg" width="32" height="32" viewBox="0 0 32 32"><title>bold</title><g fill="#212121" class="nc-icon-wrapper"><path transform="matrix(1 0 0 -1 0 32)" d="M 23.429 17 C 24.786 18.571 25.571 20.643 25.571 22.857 A 9.115 9.115 0 0 1 16.43 32 H 5 V 0 H 18.714 A 9.115 9.115 0 0 1 27.857 9.143 C 27.857 12.429 26.071 15.357 23.429 17 z M 11.857 27.429 H 15.5 C 17.5 27.429 19.143 25.357 19.143 22.857 S 17.5 18.286 15.5 18.286 H 11.857 V 27.429 z M 17.571 4.571 H 11.857 V 13.714 H 17.571 C 19.643 13.714 21.357 11.643 21.357 9.143 C 21.357 6.643 19.643 4.571 17.571 4.571 z" fill="#212121" class="nc-icon-wrapper"></path></g></svg>