<svg xmlns="http://www.w3.org/2000/svg" width="32" height="32" viewBox="0 0 32 32"><title>branch node vert</title><g fill="#F7F7F7" class="nc-icon-wrapper"><path transform="matrix(1 0 0 -1 0 32)" d="M 6 20.304 V 7.304 C 4.8 6.604 4 5.304 4 3.804 C 4 1.604 5.8 -0.196 8 -0.196 S 12 1.604 12 3.804 C 12 5.304 11.2 6.604 10 7.304 V 16.004 C 8.3 17.204 6.8 18.604 6 20.304 z M 8 6.304 C 9.3 6.304 10.4 5.204 10.4 3.904 C 10.4 2.604 9.3 1.504 8 1.504 C 6.7 1.504 5.6 2.6040000000000125 5.6 3.904 C 5.6 5.204 6.7 6.304 8 6.304 z M 24 -0.096 C 26.2 -0.096 28 1.704 28 3.904 C 28 5.404 27.2 6.604 26 7.304 V 7.904 C 26 10.104 25.1 11.804 23.8 13.204 L 23.6 13.404 C 21.8 15.204 19.2 16.504 16.8 17.704 C 15.6 18.304 14.5 18.804 13.6 19.404 C 13.4 19.504 13.3 19.604 13.1 19.704 C 11.2 20.904 10 22.204 10 23.904 V 24.504 C 11.2 25.204 12 26.504 12 27.904 C 12 30.104 10.2 31.904 8 31.904 S 4 30.104 4 27.904 C 4 26.404 4.8 25.104 6 24.404 V 23.904 C 6 20.504 8 18.404 10.5 16.604 L 11.4 16.004 S 14.2 14.404 15.1 14.004 C 15.6 13.804 16.8 13.204 16.9 13.104 C 20.1 11.404 22 10.004 22 7.804 V 7.304 C 20.8 6.604 20 5.304 20 3.904 C 20 1.704 21.8 -0.096 24 -0.096 z M 8 25.504 C 6.7 25.504 5.6 26.604 5.6 27.904 C 5.6 29.204 6.7 30.304 8 30.304 C 9.3 30.304 10.4 29.204 10.4 27.904 C 10.4 26.604 9.3 25.504 8 25.504 z M 24 1.504 C 22.7 1.504 21.6 2.604 21.6 3.904 C 21.6 5.204 22.7 6.304 24 6.304 C 25.3 6.304 26.4 5.204 26.4 3.904 C 26.4 2.604 25.4 1.504 24 1.504 z" fill="#F7F7F7" class="nc-icon-wrapper"></path></g></svg>