<svg xmlns="http://www.w3.org/2000/svg" width="32" height="32" viewBox="0 0 32 32"><title>broom</title><g fill="#212121" class="nc-icon-wrapper"><g fill="#212121"><path transform="scale(1,-1) translate(0,-32)" d="M 29.164 32 L 18.254 21.09 A 2.098 2.098 0 0 1 15.782 20.727 A 1.996 1.996 0 0 1 15.272 18.691 C 13.745 19.491 11.927 19.564 10.182 18.836 C 6.836 17.164 4.509 13.746 0 13.31 C 0.364 12.583 0.8 11.856 1.382 10.983 C 3.272 10.692 5.091 11.273 6.545 12.728 C 5.964 10.983 4.582 9.674 2.764 9.019 A 13.741 13.741 0 0 1 4.436 6.983 C 6.546 7.71 7.346 8.655 5.309 5.965 C 6.182 5.092 7.055 4.146 8.219 3.419 C 8.727 5.237 10.036 6.619 11.927 7.347 C 10.473 5.965 9.891 4.001 10.255 1.819 C 11.345 1.092 12.364 0.51 13.309 0.001 C 14.109 3.419 16.436 6.911 18.836 10.183 C 19.636 11.783 19.491 13.601 18.618 15.273 C 19.346 15.056 20.145 15.201 20.728 15.783 C 21.382 16.437 21.528 17.455 21.091 18.256 L 32 29.164 L 29.164 32 z"></path></g></g></svg>