<svg width="32" height="32" viewBox="0 0 32 32" xmlns="http://www.w3.org/2000/svg"><g class="nc-icon-wrapper" fill="#444444"><path d="M29.164 0l-10.91 10.91a2.098 2.098 0 0 0-2.472.363 1.996 1.996 0 0 0-.51 2.036c-1.527-.8-3.345-.873-5.09-.145C6.836 14.836 4.509 18.254 0 18.69c.364.727.8 1.454 1.382 2.327 1.89.291 3.709-.29 5.163-1.745-.581 1.745-1.963 3.054-3.781 3.709a13.741 13.741 0 0 0 1.672 2.036c2.11-.727 2.91-1.672.873 1.018.873.873 1.746 1.819 2.91 2.546.508-1.818 1.817-3.2 3.708-3.928-1.454 1.382-2.036 3.346-1.672 5.528 1.09.727 2.109 1.309 3.054 1.818.8-3.418 3.127-6.91 5.527-10.182.8-1.6.655-3.418-.218-5.09.728.217 1.527.072 2.11-.51.654-.654.8-1.672.363-2.473L32 2.836 29.164 0z"></path></g></svg>