<svg xmlns="http://www.w3.org/2000/svg" width="32" height="32" viewBox="0 0 32 32"><title>browser size</title><g fill="#212121" class="nc-icon-wrapper"><g fill="#212121"><path transform="scale(1,-1) translate(0,-32)" d="M 32 26.793000000000013 V 23.583000000000013 H 0 V 26.793000000000013 A 3.207 3.207 0 0 0 3.2 30.000000000000014 H 28.8 C 30.566 30.000000000000014 32 28.562000000000012 32 26.793000000000013 z M 11.2 26.793000000000013 A 1.6 1.6 0 1 1 8 26.793000000000013 A 1.6 1.6 0 1 1 11.2 26.793000000000013 z M 6.4 26.793000000000013 A 1.6 1.6 0 1 1 3.2 26.793000000000013 A 1.6 1.6 0 1 1 6.4 26.793000000000013 z M 0 4.34400000000005 V 21.97900000000005 H 32 V 4.34400000000005 A 3.205 3.205 0 0 0 28.8 1.13700000000005 H 3.2 A 3.206 3.206 0 0 0 0 4.34400000000005 z M 8 9.85400000000005 V 3.44000000000005 H 14.4 L 12.331 5.51300000000005 L 15.531 8.72000000000005 L 13.269 10.98800000000005 L 10.069 7.78100000000005 L 8 9.85400000000005 z M 10.069 15.13400000000005 L 13.269 11.92700000000005 L 15.531 14.19500000000005 L 12.331 17.40200000000005 L 14.4 19.47500000000005 H 8 V 13.06100000000005 L 10.069 15.13400000000005 z M 17.6 3.44000000000005 H 24 V 9.85400000000005 L 21.931 7.78100000000005 L 18.731 10.98800000000005 L 16.469 8.72000000000005 L 19.669 5.51300000000005 L 17.6 3.44000000000005 z M 21.931 15.13400000000005 L 24 13.06100000000005 V 19.47500000000005 H 17.6 L 19.669 17.40200000000005 L 16.469 14.19500000000005 L 18.731 11.92700000000005 L 21.931 15.13400000000005 z"></path></g></g></svg>