<svg width="32" height="32" viewBox="0 0 32 32" xmlns="http://www.w3.org/2000/svg"><g class="nc-icon-wrapper" fill="#444444"><g transform="translate(2369 901)"><path fill-rule="evenodd" d="M-2337-895.793v3.21h-32v-3.21a3.207 3.207 0 0 1 3.2-3.207h25.6c1.766 0 3.2 1.438 3.2 3.207zm-20.8 0a1.6 1.6 0 1 0-3.2 0 1.6 1.6 0 1 0 3.2 0zm-4.8 0a1.6 1.6 0 1 0-3.2 0 1.6 1.6 0 1 0 3.2 0z"></path><path fill-rule="evenodd" d="M-2369-873.344v-17.635h32v17.635a3.205 3.205 0 0 1-3.2 3.207h-25.6a3.206 3.206 0 0 1-3.2-3.207zm8-5.51v6.414h6.4l-2.069-2.073 3.2-3.207-2.262-2.268-3.2 3.207-2.069-2.073zm2.069-5.28l3.2 3.207 2.262-2.268-3.2-3.207 2.069-2.073h-6.4v6.414l2.069-2.073zm7.531 11.694h6.4v-6.414l-2.069 2.073-3.2-3.207-2.262 2.268 3.2 3.207-2.069 2.073zm4.331-11.694l2.069 2.073v-6.414h-6.4l2.069 2.073-3.2 3.207 2.262 2.268 3.2-3.207z"></path></g></g></svg>