<svg xmlns="http://www.w3.org/2000/svg" width="32" height="32" viewBox="0 0 32 32"><title>bug</title><g fill="#212121" class="nc-icon-wrapper"><path transform="matrix(1 0 0 -1 0 32)" d="M 9.59 32 C 9.59 30.362 10.26 28.905 11.28 27.776 A 9.85 9.85 0 0 1 9.242 25.342 C 9.077 25.241 8.906 25.152 8.745 25.043 L 6.46 26.583 V 28.87 H 3.28 V 24.845 L 3.975 24.348 L 6.211 22.858 C 6.109 22.74 6.011 22.63 5.913 22.509 H 3.776 L 1.79 23.851 L 0 21.168 L 2.385 19.578 L 2.783 19.329 H 4.075 A 11.538 11.538 0 0 1 3.279 15.106 C 3.279 12.17 3.759 9.786 5.168 7.602 L 0.547 2.982 L 2.832 0.696 L 7.255 5.118 C 10.99 1.589 15.553 0.298 15.553 0.298 C 15.865 0.218 16.195 0.2359999999999875 16.497 0.348 C 16.497 0.348 20.855 1.751 24.696 5.118 L 29.168 0.348 L 31.453 2.534 L 26.783 7.454 C 28.501 10.015 28.721 12.756 28.721 15.106 C 28.721 16.591 28.437 18.015 27.925 19.329 H 29.217 L 29.615 19.578 L 32 21.168 L 30.211 23.85 L 28.224 22.508 H 26.087 C 25.991 22.628 25.889 22.74 25.789 22.856 L 28.025 24.346 L 28.721 24.844 V 28.869 H 25.541 V 26.584 L 23.304 25.094 C 23.104 25.228 22.866 25.318 22.658 25.441 A 10.129 10.129 0 0 1 20.671 27.776 C 21.7 28.905 22.36 30.363 22.36 32 H 19.18 C 19.18 30.945 18.666 30.04 17.887 29.466 C 17.387 30.059 16.747 30.46 15.999 30.46 C 15.23 30.46 14.569 30.039 14.061 29.416 C 13.27 29.988 12.77 30.922 12.77 32 H 9.59 z M 10.584 22.51 H 11.379 C 11.31 22.252 11.229 21.99 11.229 21.714 C 11.229 19.992 12.571 18.54 14.409 17.988 V 4.224 A 18.514 18.514 0 0 0 11.925 5.565 C 12.462 5.999 12.82 6.645 12.82 7.404 A 2.36 2.36 0 0 1 10.435 9.789 C 9.54 9.789 8.806 9.307 8.398 8.596 C 6.773 10.476 6.46 12.002 6.46 15.106 C 6.46 18.158 8.081 20.879 10.584 22.509 z M 20.621 22.51 H 21.416 C 23.919 20.879 25.54 18.158 25.54 15.106 C 25.54 12.578 25.447 10.668 23.602 8.596 C 23.194 9.306 22.459 9.789 21.565000000000012 9.789 A 2.36 2.36 0 0 1 19.180000000000014 7.404 C 19.180000000000014 6.67 19.520000000000014 6.049 20.025000000000013 5.614 A 22.2 22.2 0 0 0 17.590000000000014 4.274 V 17.987 C 19.429000000000013 18.539 20.770000000000014 19.991 20.770000000000014 21.713 C 20.770000000000014 21.988 20.690000000000012 22.251 20.621000000000013 22.508 z M 10.435 17.74 C 9.098 17.74 8.05 16.343 8.05 14.559 S 9.098 11.379 10.435 11.379 C 11.772 11.379 12.82 12.775 12.82 14.559 C 12.82 16.343 11.772 17.739 10.435 17.739 z M 21.565000000000012 17.74 C 20.228000000000012 17.74 19.180000000000014 16.343 19.180000000000014 14.559 S 20.228000000000012 11.379 21.565000000000012 11.379 C 22.902 11.379 23.95 12.775 23.95 14.559 C 23.95 16.343 22.903 17.739 21.565000000000012 17.739 z" fill="#212121" class="nc-icon-wrapper"></path></g></svg>