<svg width="32" height="32" viewBox="0 0 32 32" xmlns="http://www.w3.org/2000/svg"><g class="nc-icon-wrapper" fill="#444444"><path fill-rule="evenodd" d="M0 10.298L10.298 0l6.782 6.731-2.26 2.261-1.257-1.256L10.65 10.6 8.39 8.34l2.863-2.865-.955-.953-5.777 5.776 4.521 4.47-2.26 2.262L0 10.298zm24.314-8.49c.29-.29.693-.452 1.055-.452.361 0 .714.163 1.004.452l3.718 3.769c.579.432.579 1.43 0 2.009l-2.411 2.46-5.828-5.776 2.462-2.462zm-3.868 4.019L1.608 24.514v5.777h5.777l18.688-18.788-5.627-5.676zm2.462 11.304l2.26-2.26L32 21.7 21.651 31.9l-6.832-6.831 2.261-2.261 4.572 4.572 5.777-5.678-1.056-1.055-2.863 2.814-2.26-2.261 2.863-2.864-1.205-1.205z"></path></g></svg>