<svg xmlns="http://www.w3.org/2000/svg" width="32" height="32" viewBox="0 0 32 32"><title>builder</title><g fill="#F7F7F7" class="nc-icon-wrapper"><path transform="matrix(1 0 0 -1 0 32)" d="M 0 21.702 L 10.298 32 L 17.08 25.269 L 14.82 23.008 L 13.563 24.264 L 10.65 21.4 L 8.39 23.66 L 11.253 26.525 L 10.298 27.478 L 4.521 21.702 L 9.042 17.232 L 6.782 14.97 L 0 21.702 z M 24.314 30.192 C 24.604 30.482 25.007 30.644 25.369 30.644 C 25.73 30.644 26.083 30.481 26.373 30.192 L 30.091 26.423 C 30.67 25.991 30.67 24.993 30.091 24.414 L 27.68 21.954 L 21.852 27.73 L 24.314 30.192 z M 20.446 26.173 L 1.608 7.486 V 1.709 H 7.385 L 26.073 20.497 L 20.446 26.173 z M 22.908 14.869 L 25.168 17.129 L 32 10.3 L 21.651 0.1 L 14.819 6.931 L 17.08 9.192 L 21.652 4.62 L 27.429 10.298 L 26.373 11.353 L 23.51 8.539 L 21.25 10.8 L 24.113 13.664 L 22.908 14.869 z" fill="#F7F7F7" class="nc-icon-wrapper"></path></g></svg>