<svg xmlns="http://www.w3.org/2000/svg" width="32" height="32" viewBox="0 0 32 32"><title>builder outline</title><g fill="#212121" class="nc-icon-wrapper"><path transform="matrix(1 0 0 -1 0 32)" d="M 31.5 25.1 C 32.1 25.7 32.1 26.7 31.5 27.4 L 27.4 31.5 C 27.1 31.8 26.7 32 26.3 32 S 25.5 31.8 25.2 31.5 L 21.6 28 L 28 21.6 z M 26.2 29.2 L 29.2 26.2 L 27.9 24.9 L 24.9 27.9 z M 7.7 18.1 L 3.4 22.4 L 9.6 28.6 L 10.8 27.4 L 6.7 23.3 L 8.4 21.6 L 12.5 25.7 L 14 24.2 L 15.6 26 L 9.6 32 L 0 22.4 L 6 16.4 z M 20 26.3 L 1.6 8 V 1.6 H 8 L 26.4 20 z M 7 4 H 4 V 7 L 20 23 L 23 20 z M 24.9 16.7 L 23.2 15 L 25.7 12.5 L 21.6 8.4 L 23.3 6.7 L 27.4 10.8 L 28.6 9.6 L 22.4 3.4 L 17 8.8 L 15.3 7.1 L 22.4 0 L 32 9.6 z" fill="#212121" class="nc-icon-wrapper"></path></g></svg>