<?xml version="1.0" encoding="utf-8"?>
<!-- Generator: Adobe Illustrator 24.2.3, SVG Export Plug-In . SVG Version: 6.00 Build 0)  -->
<svg version="1.1" id="Layer_1" xmlns="http://www.w3.org/2000/svg" xmlns:xlink="http://www.w3.org/1999/xlink" x="0px" y="0px"
	 viewBox="0 0 32 32" style="enable-background:new 0 0 32 32;" xml:space="preserve">
<style type="text/css">
	.st0{fill-rule:evenodd;clip-rule:evenodd;}
</style>
<path class="st0" d="M29.7,3H2.2C1,3,0,4,0,5.2v15.3c0,1.2,1,2.2,2.2,2.2H10l2,6.3l0.9,3l1.3-2.8l3-6.3l7.6,7.6l1.7-1.7L18.7,21
	l6.5-3.5l2.5-1.3L25,15.3L7.7,9.2L5.4,8.4l0.7,2.3l3,9.6H2.5V5.5h27.1v14.8h-3.7v2.5h3.9c1.2,0,2.2-1,2.2-2.2V5.2C32,4,31,3,29.7,3z
	 M21.6,16.7l-5.2,2.8L16,19.6L15.8,20l-2.5,5.3l-4.1-13L21.6,16.7z"/>
</svg>
