<svg xmlns="http://www.w3.org/2000/svg" width="32" height="32" viewBox="0 0 32 32"><title>button push outline small</title><g fill="#F7F7F7" class="nc-icon-wrapper"><path transform="matrix(1 0 0 -1 0 32)" d="M 29.3 28 H 2.7 C 1.2 28 0 26.8 0 25.2 V 11 C 0 9.5 1.2 8.2 2.8 8.2 H 10.7 L 11.9 4.6 L 13.5 -0.1 L 15.7 4.3 L 17.6 8 L 25.5 0.1 L 28 2.6 L 20.1 10.499999999999988 L 23.8 12.399999999999988 L 28.2 14.599999999999987 L 23.5 16.19999999999999 L 10.3 20.599999999999987 L 6 22 L 7.4 17.8 L 9.4 11.7 H 3.5 V 24.5 H 28.6 V 10 H 32 V 25.2 C 32 26.8 30.8 28 29.3 28 z M 18.9 14 L 16.7 12.9 L 15.7 12.4 L 15.2 11.4 L 14 9.1 L 11.6 16.4 L 18.9 14 z" fill="#F7F7F7" class="nc-icon-wrapper"></path></g></svg>