<?xml version="1.0" encoding="utf-8"?>
<!-- Generator: Adobe Illustrator 24.2.3, SVG Export Plug-In . SVG Version: 6.00 Build 0)  -->
<svg version="1.1" id="Layer_1" xmlns="http://www.w3.org/2000/svg" xmlns:xlink="http://www.w3.org/1999/xlink" x="0px" y="0px"
	 viewBox="0 0 32 32" style="enable-background:new 0 0 32 32;" xml:space="preserve">
<style type="text/css">
	.st0{fill-rule:evenodd;clip-rule:evenodd;}
</style>
<path class="st0" d="M29.3,4H2.7C1.2,4,0,5.2,0,6.8V21c0,1.5,1.2,2.8,2.8,2.8h7.9l1.2,3.6l1.6,4.7l2.2-4.4l1.9-3.7l7.9,7.9l2.5-2.5
	l-7.9-7.9l3.7-1.9l4.4-2.2l-4.7-1.6l-13.2-4.4L6,10l1.4,4.2l2,6.1H3.5V7.5h25.1V22H32V6.8C32,5.2,30.8,4,29.3,4z M18.9,18l-2.2,1.1
	l-1,0.5l-0.5,1L14,22.9l-2.4-7.3L18.9,18z"/>
</svg>
