<svg xmlns="http://www.w3.org/2000/svg" width="32" height="32" viewBox="0 0 32 32"><title>button push outline large</title><g fill="#F7F7F7" class="nc-icon-wrapper"><path transform="matrix(1 0 0 -1 0 32)" d="M 1.8 26.5 C 1.7 26.5 1.6 26.4 1.6 26.3 V 11 C 1.6 10.9 1.7 10.8 1.8 10.8 H 9.2 L 6.1 20 L 5.6 21.4 L 7 20.9 L 25.3 14.8 L 27 14.2 L 25.4 13.4 L 18.2 9.8 L 26.6 1.4 L 25.5 0.3 L 17.1 8.7 L 13.5 1.5 L 12.7 -0.1 L 12.1 1.6 L 9.6 9.2 H 1.8 C 0.8 9.2 0 10 0 11 V 26.3 C 0 27.2 0.8 28 1.8 28 H 30.3 C 31.3 28 32.1 27.2 32.1 26.2 V 11 C 32.1 10 31.3 9.2 30.3 9.2 H 26.2 V 10.7 H 30.30000000000001 C 30.400000000000013 10.7 30.500000000000014 10.8 30.500000000000014 10.9 V 26.3 C 30.500000000000014 26.4 30.4 26.5 30.30000000000001 26.5 H 1.8 z M 13.1 3.8 L 8 19 L 23.1 14 L 16.6 10.7 L 16.4 10.6 L 16.3 10.4 L 13.1 3.8 z" fill="#F7F7F7" class="nc-icon-wrapper"></path></g></svg>