<?xml version="1.0" encoding="utf-8"?>
<!-- Generator: Adobe Illustrator 24.2.3, SVG Export Plug-In . SVG Version: 6.00 Build 0)  -->
<svg version="1.1" id="Layer_1" xmlns="http://www.w3.org/2000/svg" xmlns:xlink="http://www.w3.org/1999/xlink" x="0px" y="0px"
	 viewBox="0 0 32 32" style="enable-background:new 0 0 32 32;" xml:space="preserve">
<style type="text/css">
	.st0{fill-rule:evenodd;clip-rule:evenodd;}
</style>
<g>
	<g>
		<path class="st0" d="M1.8,5.5c-0.1,0-0.2,0.1-0.2,0.2V21c0,0.1,0.1,0.2,0.2,0.2h7.4l-3.1-9.2l-0.5-1.4l1.4,0.5l18.3,6.1l1.7,0.6
			l-1.6,0.8l-7.2,3.6l8.4,8.4l-1.1,1.1l-8.4-8.4l-3.6,7.2l-0.8,1.6l-0.6-1.7l-2.5-7.6H1.8C0.8,22.8,0,22,0,21V5.7C0,4.8,0.8,4,1.8,4
			h28.5c1,0,1.8,0.8,1.8,1.8V21c0,1-0.8,1.8-1.8,1.8h-4.1v-1.5h4.1c0.1,0,0.2-0.1,0.2-0.2V5.7c0-0.1-0.1-0.2-0.2-0.2L1.8,5.5z
			 M13.1,28.2L8,13l15.1,5l-6.5,3.3l-0.2,0.1l-0.1,0.2L13.1,28.2z"/>
	</g>
</g>
</svg>
