<svg xmlns="http://www.w3.org/2000/svg" width="32" height="32" viewBox="0 0 32 32"><title>calender clock</title><g fill="#212121" class="nc-icon-wrapper"><path transform="matrix(1 0 0 -1 0 32)" d="M 10.668999999999874 7.996000000000013 H 2.6669999999998626 V 21.330000000000013 H 26.670999999999875 V 25.331000000000014 A 2.67 2.67 0 0 1 24.003999999999873 27.99800000000001 H 22.670999999999875 V 32 H 20.002999999999876 V 25.332 H 18.669999999999874 V 28 H 9.334999999999875 V 32 H 6.667999999999875 V 25.332 H 5.333999999999875 V 28 H 2.666999999999875 A 2.67 2.67 0 0 1 -1.25e-13 25.333 V 7.997 A 2.67 2.67 0 0 1 2.666999999999875 5.33 H 10.668999999999874 V 7.997 z M 22.664999999999964 0 C 17.516999999999964 0 13.329999999999963 4.187 13.329999999999963 9.335 C 13.329999999999963 14.482 17.51799999999996 18.67 22.664999999999964 18.67 C 27.812999999999963 18.67 31.99999999999996 14.483 31.99999999999996 9.335 C 31.99999999999996 4.187 27.812999999999963 0 22.664999999999964 0 z M 22.664999999999964 16.003 A 6.675 6.675 0 0 1 15.996999999999963 9.335 A 6.675 6.675 0 0 1 22.664999999999964 2.667 A 6.675 6.675 0 0 1 29.332999999999963 9.335 A 6.675 6.675 0 0 1 22.664999999999964 16.003 z M 26.664999999999964 8 H 21.330999999999964 V 14.67 H 23.998999999999963 V 10.669 H 26.664999999999964 V 8 z" fill="#212121" class="nc-icon-wrapper"></path></g></svg>