<svg xmlns="http://www.w3.org/2000/svg" width="32" height="32" viewBox="0 0 32 32"><title>calendar</title><g fill="#F7F7F7" class="nc-icon-wrapper"><path transform="matrix(1 0 0 -1 0 32)" d="M 12.8 17.6 H 6.4 V 11.2 H 12.8 z M 28.8 27.2 H 27.2 V 32 H 24 V 24 H 22.4 V 27.2 H 11.2 V 32 H 8 V 24 H 6.4 V 27.2 H 3.2 C 1.4 27.2 0 25.8 0 24 V 3.2 C 0 1.4 1.4 0 3.2 0 H 28.8 C 30.6 0 32 1.4 32 3.2 V 24 C 32 25.8 30.6 27.2 28.8 27.2 z M 28.8 3.2 H 3.2 V 20.8 H 28.8 z" fill="#F7F7F7" class="nc-icon-wrapper"></path></g></svg>