<svg width="32" height="32" viewBox="0 0 32 32" xmlns="http://www.w3.org/2000/svg"><g class="nc-icon-wrapper" fill="#444444"><path fill-rule="evenodd" d="M9.6 0C4.317 0 0 4.317 0 9.6c0 5.283 4.317 9.6 9.6 9.6 5.283 0 9.6-4.317 9.6-9.6 0-5.283-4.317-9.6-9.6-9.6zM24 0v3.2h-5.3c1.28 1.76 2.1 4 2.1 6.4 0 .48.01 1.12-.15 1.6h8.15v17.6H6.4v-8.5c-1.12-.32-2.24-.8-3.2-1.6v10.1c0 1.76 1.44 3.2 3.2 3.2h22.4c1.76 0 3.2-1.44 3.2-3.2V6.4c0-1.76-1.44-3.2-3.2-3.2h-1.6V0H24zM9.6 3.2c3.554 0 6.4 2.846 6.4 6.4 0 3.554-2.846 6.4-6.4 6.4a6.376 6.376 0 0 1-6.4-6.4c0-3.554 2.846-6.4 6.4-6.4zM8 4.8v5.45l.45.5 2.6 2.55 2.25-2.25-2.1-2.15V4.8H8zm9.6 12.8v8h8v-8h-8z"></path></g></svg>