<svg xmlns="http://www.w3.org/2000/svg" width="32" height="32" viewBox="0 0 32 32"><title>calendar clock</title><g fill="#212121" class="nc-icon-wrapper"><path transform="matrix(1 0 0 -1 0 32)" d="M 2.7 21.3 H 26.7 V 25.3 C 26.7 26.8 25.5 28 24 28 H 22.7 V 32 H 20 V 25.3 H 18.7 V 28 H 9.3 V 32 H 6.7 V 25.3 H 5.3 V 28 H 2.7 C 1.2 28 0 26.8 0 25.3 V 8 C 0 6.5 1.2 5.3 2.7 5.3 H 10.7 V 8 H 2.7 z M 22.7 18.7 C 17.6 18.7 13.4 14.5 13.4 9.4 S 17.6 0.1 22.7 0.1 S 32 4.3 32 9.4 S 27.8 18.7 22.7 18.7 z M 22.7 2.7 A 6.7 6.7 0 1 0 29.4 9.4 C 29.4 5.7 26.3 2.7 22.7 2.7 z M 24 14.7 H 21.3 V 8 H 26.6 V 10.7 H 24 z" fill="#212121" class="nc-icon-wrapper"></path></g></svg>