<svg xmlns="http://www.w3.org/2000/svg" width="32" height="32" viewBox="0 0 32 32"><title>chart spider</title><g fill="#212121" class="nc-icon-wrapper"><path transform="matrix(1 0 0 -1 0 32)" d="M 24 29.9 H 8 L 0 16 L 8 2.1 H 24 L 32 16 L 24 29.9 z M 28.9 17.1 H 22.5 L 20.2 21.2 L 23.4 26.8 L 28.9 17.1 z M 20.6 16 L 18.3 12 H 13.7 L 11.4 16 L 13.7 20 H 18.3 L 20.600000000000012 16 z M 21.5 27.7 L 18.3 22.1 H 13.7 L 10.5 27.7 H 21.5 z M 8.7 26.7 L 11.9 21.1 L 9.6 17 H 3.1 L 8.7 26.7 z M 3.1 14.9 H 9.5 L 11.8 10.8 L 8.6 5.2 L 3.1 14.9 z M 10.5 4.3 L 13.7 9.9 H 18.3 L 21.5 4.3 H 10.5 z M 23.4 5.3 L 20.2 10.9 L 22.5 15 H 28.9 L 23.4 5.3 z" fill="#212121" class="nc-icon-wrapper"></path></g></svg>