<svg xmlns="http://www.w3.org/2000/svg" width="32" height="32" viewBox="0 0 32 32"><title>chart full stacked area</title><g fill="#F7F7F7" class="nc-icon-wrapper"><path transform="matrix(1 0 0 -1 0 32)" d="M 12.35 6.743 L 20.772 9.211 L 25.825 6.606 L 32 9.554 V 13.67 L 25.825 10.721 L 20.632 13.395 L 12.351 10.927 L 4.912 12.435 L 0 15.314 V 11.543 L 5.333 8.114 L 12.351 6.743 z M 25.825 15.863 L 20.632 18.606 L 12.351 16.069 L 4.912 17.509 L 0 20.457 V 16.754 L 5.333 13.189 L 12.351 11.886 L 20.771 14.491 L 25.825 11.817 L 32 14.697 V 18.811 L 25.825 15.863 z M 12.35 22.24 L 20.77 24.709 L 25.824 22.034 L 32 25.051 V 28 H 0 V 27.109 L 5.333 23.474 L 12.351 22.24 z M 25.824 21.006 L 20.631 23.749 L 12.35 21.211 L 4.911 22.651 L 0 25.6 V 21.897 L 5.333 18.331 L 12.351 17.029 L 20.771 19.566 L 25.825 16.891 L 32 19.84 V 23.886 L 25.825 21.006 z M 25.824 5.44 L 20.631 8.251 L 12.35 5.783 L 4.911 7.291 L 0 10.171 V 4 H 32 V 8.526 L 25.825 5.44 z" fill="#F7F7F7" class="nc-icon-wrapper"></path></g></svg>