<svg width="32" height="32" viewBox="0 0 32 32" xmlns="http://www.w3.org/2000/svg"><g class="nc-icon-wrapper" fill="#444444"><path d="M30.222 1H1.854A1.824 1.824 0 0 0 0 2.854V29.77c0 1.048.806 1.854 1.854 1.854H30.14a1.824 1.824 0 0 0 1.854-1.854V2.854C32.075 1.806 31.189 1 30.222 1zm-7.576 13.459h-2.74l-.564 3.707h2.579v1.45H19.1l-.887 4.836H16.44l.806-4.835h-3.143l-.806 4.835h-1.854l.806-4.835H9.832v-1.451h2.74l.564-3.707h-2.579v-1.45h2.821l.806-4.756h1.773l-.725 4.755h3.062l.887-4.755h1.692l-.725 4.755h2.498v1.45zm-8.462 3.626h3.224l.483-3.707h-3.143l-.564 3.707z"></path></g></svg>