<svg xmlns="http://www.w3.org/2000/svg" width="32" height="32" viewBox="0 0 32 32"><title>chart scatter</title><g fill="#F7F7F7" class="nc-icon-wrapper"><path transform="matrix(1 0 0 -1 0 32)" d="M 0 32 V 0 H 32 V 3.2 H 3.2 V 32 H 0 z M 25.6 32 A 3.2 3.2 0 1 1 25.6 25.6 A 3.2 3.2 0 0 1 25.6 32 z M 22.4 24 A 3.2 3.2 0 1 1 22.4 17.6 A 3.2 3.2 0 0 1 22.4 24 z M 12.8 22.4 A 3.2 3.2 0 1 1 12.8 16 A 3.2 3.2 0 0 1 12.8 22.4 z M 28.80000000000001 17.6 A 3.2 3.2 0 1 1 28.80000000000001 11.2 A 3.2 3.2 0 0 1 28.80000000000001 17.6 z M 19.2 14.4 A 3.2 3.2 0 1 1 19.2 8 A 3.2 3.2 0 0 1 19.2 14.4 z M 9.6 12.8 A 3.2 3.2 0 1 1 9.6 6.4 A 3.2 3.2 0 0 1 9.6 12.8 z" fill="#F7F7F7" class="nc-icon-wrapper"></path></g></svg>