<svg xmlns="http://www.w3.org/2000/svg" width="32" height="32" viewBox="0 0 32 32"><title>chart horz full stack bar</title><g fill="#F7F7F7" class="nc-icon-wrapper"><path transform="matrix(1 0 0 -1 0 32)" d="M 0 6.562 V 8.837 C 0 9.113 0.275 9.388 0.55 9.388 H 11.905 C 12.181 9.388 12.455 9.044 12.455 8.837 V 6.562 C 12.455 6.217 12.112 6.011 11.905 6.011 H 0.551 C 0.344 5.941 0 6.217 0 6.562 z M 0 13.387 V 15.66 C 0 15.936 0.275 16.212 0.55 16.212 H 4.267 C 4.611 16.212 4.817 15.867 4.817 15.661 V 13.386 A 0.543 0.543 0 0 0 4.267 12.834 H 0.55 C 0.343 12.834 -0.001 13.248 -0.001 13.386 z M 0 20.211 V 22.624 C 0 22.969 0.275 23.175 0.55 23.175 H 9.015 C 9.29 23.175 9.565 22.9 9.565 22.624 V 20.142 C 9.565 19.935 9.359 19.729 9.153 19.729 H 0.482 C 0.344 19.729 0 19.936 0 20.211 z M 0 27.174 V 29.449 C 0 29.793 0.275 30 0.55 30 H 4.198 C 4.542 30 4.748 29.724 4.748 29.449 V 27.174 C 4.748 26.898 4.473 26.622 4.198 26.622 H 0.55 C 0.344 26.484 0 26.76 0 27.174 z M 14.452 6.562 V 8.837 C 14.452 9.113 14.796 9.388 15.002 9.388 H 26.426 C 26.77 9.388 26.976 9.044 26.976 8.837 V 6.562 A 0.543 0.543 0 0 0 26.426 6.011 H 15.002 C 14.864 5.941 14.452 6.217 14.452 6.562 z M 6.744 13.387 V 15.66 C 6.744 15.936 7.019 16.212 7.294 16.212 H 18.718 C 18.994 16.212 19.268 15.867 19.268 15.661 V 13.386 C 19.268 13.041 18.925 12.834 18.718 12.834 H 7.295 C 6.951 12.834 6.745 13.248 6.745 13.386 z M 11.561 20.211 V 22.486 C 11.561 22.762 11.905 23.038 12.111 23.038 H 23.467 C 23.811 23.038 24.017 22.693 24.017 22.486 V 20.211 A 0.543 0.543 0 0 0 23.467 19.66 H 12.112 C 11.699 19.729 11.562 19.935 11.562 20.211 z M 6.744 27.174 V 29.449 C 6.744 29.793 7.019 30 7.294 30 H 18.305 C 18.65 30 18.855 29.724 18.855 29.449 V 27.174 C 18.855 26.898 18.512 26.622 18.305 26.622 H 7.295 C 6.951 26.484 6.745 26.76 6.745 27.174 z M 20.714 13.387 V 15.66 C 20.714 15.936 21.058 16.212 21.264 16.212 H 31.45 C 31.794 16.212 32 15.867 32 15.661 V 13.386 A 0.543 0.543 0 0 0 31.45 12.834 H 21.332 C 21.057 12.834 20.713 13.248 20.713 13.386 z M 25.531 20.211 V 22.486 C 25.531 22.762 25.807 23.038 26.081 23.038 H 31.45 C 31.794 23.038 32 22.693 32 22.486 V 20.211 A 0.543 0.543 0 0 0 31.45 19.66 H 26.082 C 25.875 19.729 25.532 19.935 25.532 20.211 z M 20.714 27.174 V 29.449 C 20.714 29.793 21.058 30 21.264 30 H 31.45 C 31.794 30 32 29.724 32 29.449 V 27.174 C 32 26.898 31.725 26.622 31.45 26.622 H 21.332 C 21.057 26.484 20.713 26.76 20.713 27.174 z M 28.904 6.562 V 8.837 C 28.904 9.113 29.178 9.388 29.454 9.388 H 31.449 C 31.794 9.388 32 9.044 32 8.837 V 6.562 A 0.543 0.543 0 0 0 31.45 6.011 H 29.454 C 29.247 5.941 28.904 6.217 28.904 6.562 z" fill="#F7F7F7" class="nc-icon-wrapper"></path></g></svg>