<svg width="32" height="32" viewBox="0 0 32 32" xmlns="http://www.w3.org/2000/svg"><g class="nc-icon-wrapper" fill="#444444"><path d="M31.972 26.78c.072.147 0 .22-.144.22H0l3.6-8.133c.072-.22.288-.22.432-.074l4.177 5.203c.072.073.144.073.216 0l5.185-3.59c.072 0 .072-.074.144 0l7.417 1.831c.072 0 .143 0 .216-.073l4.824-10.918c.072-.22.432-.22.504 0l5.257 15.534zm0-2.784l-5.04-14.801c-.073-.293-.217-.293-.433 0l-5.616 11.797c0 .073-.145.22-.217.073l-7.056-1.466h-.144L8.64 23.043c-.144.074-.288.074-.288 0l-4.609-5.422c-.072-.22-.216-.146-.36.073L.288 24.655l.864-3.663 2.16-8.427c.072-.22.216-.22.36-.073l4.177 5.13a.216.216 0 0 0 .288 0l5.113-3.591c.144 0 .216-.073.216 0l6.768 2.051c.072 0 .144 0 .288-.073l5.545-10.844c.144-.22.432-.22.504 0l5.4 18.83z"></path></g></svg>