<svg xmlns="http://www.w3.org/2000/svg" width="32" height="32" viewBox="0 0 32 32"><title>chart stacked area</title><g fill="#212121" class="nc-icon-wrapper"><path transform="matrix(1 0 0 -1 0 32)" d="M 31.972 5.22 C 32.04400000000001 5.073 31.972 5 31.828 5 H 0 L 3.6 13.133 C 3.672 13.353 3.888 13.353 4.032 13.207 L 8.209 8.004 C 8.281 7.931 8.353 7.931 8.425 8.004 L 13.61 11.594 C 13.682 11.594 13.682 11.668 13.754 11.594 L 21.171 9.763 C 21.243 9.763 21.314 9.763 21.387 9.836 L 26.211 20.754 C 26.283 20.974 26.643 20.974 26.715 20.754 L 31.972 5.22 z M 31.972 8.004 L 26.932 22.805 C 26.859 23.098 26.715 23.098 26.499 22.805 L 20.883 11.008 C 20.883 10.935 20.738 10.788 20.666 10.935 L 13.61 12.401 H 13.466 L 8.64 8.957 C 8.496 8.883 8.352 8.883 8.352 8.957 L 3.743 14.379 C 3.671 14.599 3.527 14.525 3.383 14.306 L 0.288 7.345 L 1.152 11.008 L 3.312 19.435 C 3.384 19.655 3.528 19.655 3.672 19.508 L 7.849 14.378 A 0.216 0.216 0 0 1 8.137 14.378 L 13.25 17.969 C 13.394 17.969 13.466 18.042 13.466 17.969 L 20.234 15.918 C 20.306 15.918 20.378 15.918 20.522 15.991 L 26.067 26.835 C 26.211 27.055 26.499 27.055 26.571 26.835 L 31.97100000000001 8.005 z" fill="#212121" class="nc-icon-wrapper"></path></g></svg>