<svg xmlns="http://www.w3.org/2000/svg" width="32" height="32" viewBox="0 0 32 32"><title>chart donut</title><g fill="#F7F7F7" class="nc-icon-wrapper"><path transform="matrix(1 0 0 -1 0 32)" d="M 7.782 25.6 A 12.58 12.58 0 0 0 16 28.655 C 21.382 28.655 25.964 25.382 27.782 20.582 L 30.982 21.818 C 28.654 27.782 22.836 32 16.072 32 C 11.928 32 8.219 30.4 5.31 27.782 L 7.782 25.6 z M 28.509 17.6 C 28.582 17.09 28.582 16.582 28.582 16.073 C 28.582 9.163 22.982 3.491 16 3.491 C 9.018 3.491 3.418 9.164 3.418 16.073 C 3.418 18.836 4.218 21.236 5.745 23.273 L 3.273 25.6 C 1.382 22.982 0 19.636 0 16 C 0 7.2 7.2 0 16 0 S 32 7.2 32 16 C 32 16.945 31.855 17.89 31.71 18.91 L 28.51 17.6 z" fill="#F7F7F7" class="nc-icon-wrapper"></path></g></svg>