<svg xmlns="http://www.w3.org/2000/svg" width="32" height="32" viewBox="0 0 32 32"><title>chart heat</title><g fill="#212121" class="nc-icon-wrapper"><path transform="matrix(1 0 0 -1 0 32)" d="M 0 6.31 H 8.814 V 0 H 0 V 6.31 z M 0 14.873 H 8.814 V 8.563 H 0 V 14.873 z M 0 23.437 H 8.814 V 17.127 H 0 V 23.437 z M 0 32 H 8.814 V 25.69 H 0 V 32 z M 11.17 6.31 H 19.983 V 0 H 11.169 V 6.31 z M 11.17 14.873 H 19.983 V 8.563 H 11.169 V 14.873 z M 11.17 23.437 H 19.983 V 17.127 H 11.169 V 23.437 z M 11.17 32 H 19.983 V 25.69 H 11.169 V 32 z M 22.186 6.31 H 31 V 0 H 22.186 V 6.31 z M 22.186 14.873 H 31 V 8.563 H 22.186 V 14.873 z M 22.186 23.437 H 31 V 17.127 H 22.186 V 23.437 z M 22.186 32 H 31 V 25.69 H 22.186 V 32 z" fill="#212121" class="nc-icon-wrapper"></path></g></svg>