<svg width="32" height="32" viewBox="0 0 32 32" xmlns="http://www.w3.org/2000/svg"><g class="nc-icon-wrapper" fill="#444444"><path d="M14.505 19.873H9.047c-.3 0-.524.308-.524.616v8.628c0 .308.225.616.524.616h5.458c.299 0 .598-.308.598-.616v-8.628c0-.385-.3-.616-.598-.616zM22.953 2h-5.458c-.299 0-.598.308-.598.616v26.501c0 .308.3.616.598.616h5.458c.3 0 .524-.308.524-.616v-26.5c0-.309-.225-.617-.524-.617zm8.449 8.089h-5.383c-.374 0-.598.231-.598.54v18.488c0 .308.224.616.598.616h5.383c.299 0 .598-.308.598-.616V10.628c0-.308-.3-.54-.598-.54zm-25.42 0H.597c-.299 0-.598.231-.598.54v18.488c0 .308.3.616.598.616h5.383c.374 0 .598-.308.598-.616V10.628c0-.308-.224-.54-.598-.54z"></path></g></svg>