<svg xmlns="http://www.w3.org/2000/svg" width="32" height="32" viewBox="0 0 32 32"><title>chart vert stacked bar</title><g fill="#212121" class="nc-icon-wrapper"><path transform="matrix(1 0 0 -1 0 32)" d="M 28.395 0 H 25.842 A 0.6 0.6 0 0 0 25.238 0.599 V 11.975 C 25.238 12.241 25.506 12.574 25.842 12.574 H 28.395 C 28.665 12.574 29 12.241 29 11.975 V 0.6 C 29 0.267 28.664 0.001 28.395 0.001 z M 20.871 0 H 18.385 C 18.049 0 17.713 0.266 17.713 0.599 V 4.324 C 17.713 4.59 18.049 4.924 18.385 4.924 H 20.871 C 21.207 4.924 21.475 4.59 21.475 4.324 V 0.6 C 21.543 0.267 21.207 0.001 20.871 0.001 z M 13.615 0 H 10.995 C 10.726 0 10.39 0.266 10.39 0.599 V 9.048 C 10.39 9.381 10.726 9.713 10.995 9.713 H 13.682 C 13.951 9.713 14.085 9.447 14.085 9.313 V 0.665 C 14.22 0.266 13.951 0 13.615 0 z M 6.158 0 H 3.605 A 0.6 0.6 0 0 0 3 0.599 V 4.258 C 3 4.524 3.269 4.857 3.605 4.857 H 6.158 C 6.426 4.857 6.762 4.524 6.762 4.257 V 0.6 C 6.829 0.267 6.494 0.001 6.158 0.001 z M 28.395 14.37 H 25.842 C 25.507 14.37 25.238 14.703 25.238 14.969 V 26.412 A 0.6 0.6 0 0 0 25.842 27.01 H 28.395 C 28.665 27.01 29 26.744 29 26.412 V 14.969 C 29 14.703 28.664 14.37 28.395 14.37 z M 20.871 6.72 H 18.385 C 18.049 6.72 17.713 7.052 17.713 7.318 V 18.761 C 17.713 19.094 18.049 19.36 18.385 19.36 H 20.871 A 0.6 0.6 0 0 0 21.475 18.76 V 7.318 C 21.543 6.852 21.207 6.719 20.871 6.719 z M 13.615 11.51 H 11.062 C 10.793 11.51 10.457 11.775 10.457 12.108 V 23.484 C 10.457 23.751 10.793 24.084 11.062 24.084 H 13.615 C 13.951 24.084 14.22 23.751 14.22 23.484 V 12.108 C 14.22 11.708 13.95 11.509 13.615 11.509 z M 6.158 6.72 H 3.605 C 3.269 6.72 3 7.052 3 7.318 V 10.978 C 3 11.243 3.269 11.576 3.605 11.576 H 6.158 C 6.426 11.576 6.762 11.243 6.762 10.977 V 7.318 C 6.829 6.852 6.494 6.719 6.158 6.719 z M 28.395 28.74 H 25.842 C 25.507 28.74 25.238 29.073 25.238 29.339 V 31.4 A 0.6 0.6 0 0 0 25.842 32 H 28.395 C 28.665 32 29 31.734 29 31.401 V 29.34 C 29 29.074 28.664 28.741 28.395 28.741 z" fill="#212121" class="nc-icon-wrapper"></path></g></svg>