<svg xmlns="http://www.w3.org/2000/svg" width="32" height="32" viewBox="0 0 32 32"><title>chart vert bar2</title><g fill="#F7F7F7" class="nc-icon-wrapper"><path transform="matrix(1 0 0 -1 0 32)" d="M 28.394 0 H 25.902 A 0.601 0.601 0 0 0 25.295 0.601 V 31.4 C 25.295 31.667 25.565 32.001 25.902 32.001 H 28.394 C 28.731 32.001 29 31.667 29 31.4 V 0.6 C 29 0.266 28.73 -0.001 28.394 -0.001 z M 20.917 0 H 18.357 C 18.088 0 17.751 0.267 17.751 0.601 V 25.052 C 17.751 25.386 18.088 25.653 18.357 25.653 H 20.917 C 21.187 25.653 21.523 25.386 21.523 25.053 V 0.6 C 21.591 0.266 21.187 -0.001 20.917 -0.001 z M 13.642 0 H 11.082 C 10.813 0 10.477 0.267 10.477 0.601 V 15.5 C 10.477 15.834 10.813 16.101 11.083 16.101 H 13.643 C 13.912 16.101 14.249 15.834 14.249 15.5 V 0.602 C 14.249 0.268 13.912 0.001 13.642 0.001 z M 6.098 0 H 3.606 A 0.601 0.601 0 0 0 3 0.601 V 10.088 C 3 10.422 3.27 10.688 3.606 10.688 H 6.098 C 6.435 10.688 6.705 10.422 6.705 10.088 V 0.6 C 6.772 0.266 6.503 -0.001 6.098 -0.001 z" fill="#F7F7F7" class="nc-icon-wrapper"></path></g></svg>