<svg width="32" height="32" viewBox="0 0 32 32" xmlns="http://www.w3.org/2000/svg"><g class="nc-icon-wrapper" fill="#444444"><path d="M3.495 3.883c.857-.835 2.103-1.29 3.504-1.29 2.337 0 4.284 1.366 5.062 3.338l1.324-.53C12.373 2.896 9.96 1.15 7 1.15c-1.79 0-3.348.684-4.594 1.746l1.09.986zm8.722 3.338v.683c0 2.959-2.492 5.159-5.295 5.159-3.038 0-5.296-2.428-5.296-5.16 0-1.213.312-2.123.935-3.034l-1.169-.91C.614 5.097.07 6.462.07 7.979c0 3.718 3.115 6.753 6.93 6.753 3.816 0 6.931-3.035 6.931-6.752 0-.455 0-.759-.078-1.214l-1.635.455zM1.782 25.808c-.467-1.213-.39-2.427.078-3.717.856-2.124 3.037-3.338 5.14-3.338v-1.366C4.351 17.311 1.703 18.98.535 21.56c-.701 1.593-.701 3.262-.078 4.704l1.324-.456zm6.541-6.676c.312 0 .468.076.545.228 2.726 1.138 3.972 4.248 2.96 6.828-1.168 2.731-4.361 3.87-7.01 2.883-1.167-.455-1.868-1.138-2.491-2.125l-1.324.76c.7 1.213 1.713 2.123 3.27 2.806 3.427 1.366 7.399-.227 9.034-3.641 1.402-3.338-.311-7.208-3.738-8.8-.311-.077-.778-.229-1.168-.304l-.078 1.365zm17.133-16.69c1.246.151 2.492.53 3.426 1.593 1.713 1.593 2.025 3.869 1.168 5.841l1.324.532a6.402 6.402 0 0 0-1.401-7.435C28.727 1.759 27.012 1.152 25.378 1l.078 1.441zm3.893 8.572c-.077.228-.311.38-.467.456-2.102 2.048-5.451 2.048-7.632 0-2.102-2.125-2.102-5.387 0-7.435.857-.759 1.792-1.29 2.96-1.366l-.078-1.441c-1.324.303-2.804.834-3.894 1.82-2.726 2.58-2.726 6.828 0 9.484 2.648 2.655 6.931 2.655 9.735 0 .233-.228.545-.683.778-.835l-1.402-.682zm-.778 17.146c-.935.835-2.18 1.29-3.583 1.29-2.336 0-4.283-1.366-5.061-3.338l-1.324.531c1.012 2.504 3.504 4.249 6.385 4.249 1.792 0 3.35-.683 4.595-1.745l-1.012-.987zm-8.878-3.338v-.682c0-2.96 2.492-5.16 5.295-5.16 3.038 0 5.296 2.428 5.296 5.16 0 1.213-.311 2.124-.934 3.034l1.168.91c.778-1.137 1.323-2.503 1.323-4.02 0-3.718-3.114-6.753-6.93-6.753s-6.931 3.035-6.931 6.753c0 .455 0 .758.078 1.213l1.635-.455z"></path></g></svg>