<svg xmlns="http://www.w3.org/2000/svg" width="32" height="32" viewBox="0 0 32 32"><title>chart bar bar</title><g fill="#F7F7F7" class="nc-icon-wrapper"><path transform="matrix(1 0 0 -1 0 32)" d="M 14.505 12.127 H 9.047 C 8.747 12.127 8.523 11.819 8.523 11.511 V 2.883 C 8.523 2.575 8.748 2.267 9.047 2.267 H 14.505 C 14.804 2.267 15.103 2.575 15.103 2.883 V 11.511 C 15.103 11.896 14.803 12.127 14.505 12.127 z M 22.953 30 H 17.495 C 17.196 30 16.897 29.692 16.897 29.384 V 2.883 C 16.897 2.575 17.197 2.267 17.495 2.267 H 22.953 C 23.253 2.267 23.477 2.575 23.477 2.883 V 29.383 C 23.477 29.692 23.252 30 22.953 30 z M 31.402 21.911 H 26.019 C 25.645 21.911 25.421 21.68 25.421 21.371 V 2.883 C 25.421 2.575 25.645 2.267 26.019 2.267 H 31.402 C 31.701 2.267 32 2.575 32 2.883 V 21.372 C 32 21.68 31.7 21.912 31.402 21.912 z M 5.982 21.911 H 0.597 C 0.298 21.911 -0.001 21.68 -0.001 21.371 V 2.883 C -0.001 2.575 0.299 2.267 0.597 2.267 H 5.98 C 6.354 2.267 6.578 2.575 6.578 2.883 V 21.372 C 6.578 21.68 6.354 21.912 5.98 21.912 z" fill="#F7F7F7" class="nc-icon-wrapper"></path></g></svg>