<svg xmlns="http://www.w3.org/2000/svg" width="32" height="32" viewBox="0 0 32 32"><title>chart vert bar</title><g fill="#212121" class="nc-icon-wrapper"><g fill="#212121"><path transform="scale(1,-1) translate(0,-32)" d="M 30.313 0 H 28.75 A 0.688 0.688 0 0 0 28.062 0.677 V 18.215 C 28.062 18.585 28.375 18.892 28.75 18.892 H 30.313 C 30.688 18.892 31 18.585 31 18.215 V 0.677 C 31 0.307 30.687 0 30.312 0 z M 23.563 0 H 22 A 0.688 0.688 0 0 0 21.312 0.677 V 31.323 C 21.312 31.693 21.625 32 22 32 H 23.563 C 23.938 32 24.25 31.692 24.25 31.323 V 0.677 C 24.25 0.307 23.937 0 23.562 0 z M 16.813 0 H 15.25 A 0.688 0.688 0 0 0 14.562 0.677 V 19.323 C 14.562 19.693 14.875 20 15.25 20 H 16.813 C 17.188 20 17.5 19.692 17.5 19.323 V 0.677 C 17.5 0.307 17.187 0 16.812 0 z M 10 0 H 8.437 C 8.063 0 7.813 0.308 7.813 0.677 V 21.969 C 7.813 22.339 8.063 22.646 8.438 22.646 H 10 C 10.375 22.646 10.688 22.338 10.688 21.969 V 0.677 C 10.688 0.307 10.375 0 10 0 z M 3.25 0 H 1.687 A 0.688 0.688 0 0 0 1 0.677 V 7.323 C 1 7.693 1.313 8 1.688 8 H 3.25 C 3.625 8 3.938 7.692 3.938 7.323 V 0.677 C 3.938 0.307 3.625 0 3.25 0 z"></path></g></g></svg>