<svg xmlns="http://www.w3.org/2000/svg" width="32" height="32" viewBox="0 0 32 32"><title>chart pie grid</title><g fill="#F7F7F7" class="nc-icon-wrapper"><path transform="matrix(1 0 0 -1 0 32)" d="M 3.495 28.117 C 4.352 28.952 5.598 29.407 6.999 29.407 C 9.336 29.407 11.283 28.041 12.061 26.069 L 13.385 26.599 C 12.373 29.104 9.96 30.85 7 30.85 C 5.21 30.85 3.652 30.166 2.406 29.104 L 3.496 28.118 z M 12.217 24.779 V 24.096 C 12.217 21.137 9.725 18.937 6.922 18.937 C 3.884 18.937 1.626 21.365 1.626 24.097 C 1.626 25.31 1.938 26.22 2.561 27.131 L 1.392 28.041 C 0.614 26.903 0.07 25.538 0.07 24.021 C 0.07 20.303 3.185 17.268 7 17.268 C 10.816 17.268 13.931 20.303 13.931 24.02 C 13.931 24.475 13.931 24.779 13.853 25.234 L 12.218 24.779 z M 1.782 6.192 C 1.315 7.405 1.392 8.619 1.86 9.909 C 2.716 12.033 4.897 13.247 7 13.247 V 14.613 C 4.351 14.689 1.703 13.02 0.535 10.44 C -0.166 8.847 -0.166 7.178 0.457 5.736 L 1.781 6.192 z M 8.323 12.868 C 8.635 12.868 8.791 12.792 8.868 12.64 C 11.594 11.502 12.84 8.392 11.828 5.812 C 10.66 3.081 7.467 1.942 4.818 2.929 C 3.651 3.384 2.95 4.067 2.327 5.054 L 1.003 4.294 C 1.703 3.081 2.716 2.171 4.273 1.488 C 7.7 0.122 11.672 1.715 13.307 5.129 C 14.709 8.467 12.996 12.337 9.569 13.929 C 9.258 14.006 8.791 14.158 8.401 14.233 L 8.323 12.868 z M 25.456 29.558000000000014 C 26.702 29.407000000000014 27.948 29.028 28.882 27.965 C 30.595 26.372 30.907 24.096 30.05 22.124 L 31.374 21.592 A 6.402 6.402 0 0 1 29.973 29.027 C 28.727 30.241 27.012 30.848 25.378 31 L 25.456 29.559 z M 29.349 20.986 C 29.272 20.758 29.038 20.606 28.882 20.530000000000012 C 26.78 18.482000000000014 23.431 18.482000000000014 21.25 20.530000000000012 C 19.148 22.655000000000012 19.148 25.917000000000012 21.25 27.965 C 22.107 28.72400000000001 23.042 29.255 24.21 29.331 L 24.132 30.772000000000013 C 22.808 30.469000000000012 21.328 29.938000000000013 20.238 28.952000000000012 C 17.512 26.372 17.512 22.124 20.238 19.468 C 22.886 16.813 27.169 16.813 29.973 19.468 C 30.206 19.696000000000012 30.518 20.151 30.751 20.303 L 29.349 20.985000000000014 z M 28.571 3.84 C 27.636 3.005 26.391 2.55 24.988 2.55 C 22.652 2.55 20.705 3.916 19.927 5.888 L 18.603 5.357000000000013 C 19.615 2.853 22.107 1.1080000000000125 24.988 1.1080000000000125 C 26.78 1.1080000000000125 28.338 1.7910000000000126 29.583 2.8530000000000126 L 28.571 3.8400000000000123 z M 19.693 7.178 V 7.86 C 19.693 10.82 22.185 13.02 24.988 13.02 C 28.026 13.02 30.284 10.592 30.284 7.86 C 30.284 6.647 29.973 5.736 29.35 4.826 L 30.518 3.916 C 31.296 5.053 31.841 6.419 31.841 7.936 C 31.841 11.654 28.727 14.689 24.911 14.689 S 17.98 11.654 17.98 7.936 C 17.98 7.481 17.98 7.178 18.058 6.723 L 19.693 7.178 z" fill="#F7F7F7" class="nc-icon-wrapper"></path></g></svg>