<svg xmlns="http://www.w3.org/2000/svg" width="32" height="32" viewBox="0 0 32 32"><title>chart pie</title><g fill="#212121" class="nc-icon-wrapper"><path transform="matrix(1 0 0 -1 0 32)" d="M 25.23 2.627 C 25.151 2.467 24.993 2.467 24.834 2.467 H 24.596 C 24.358 2.467 24.199 2.787 24.12 2.866 L 17.93 15.204 C 17.85 15.443 17.85 15.761 18.01 16 L 27.372 26.11 C 27.452 26.269 27.769 26.428 27.927 26.428 C 28.086 26.428 28.324 26.348 28.483 26.109 C 30.704 23.244 31.973 19.741 31.973 16 C 32.291 10.667 29.593 5.572 25.23 2.627 z M 16.82 18.787 C 16.741 18.707 16.503 18.707 16.344 18.707 C 16.106 18.707 16.027 18.707 15.868 18.787 L 8.172 28.974 C 8.092 29.054 8.092 29.293 8.092 29.531 C 8.092 29.771 8.172 29.85 8.41 29.929 C 10.87 31.284 13.488 32 16.265 32 C 19.597 32 22.85 31.045 25.548 29.055 C 25.707 28.975 25.865 28.657 25.945 28.577 C 25.945 28.338 25.945 28.099 25.707 28.02 L 16.82 18.786 z M 21.74 1.672 C 21.819 1.432 21.819 1.353 21.74 1.114 C 21.581 0.876 21.422 0.796 21.264 0.796 C 19.994 0.318 18.724 0.08 17.455 0 H 14.837 C 6.506 0.716 0 7.562 0 16.08 C 0 20.458 1.746 24.517 4.84 27.622 C 4.92 27.702 5.157 27.861 5.395 27.861 C 5.554 27.861 5.713 27.781 5.792 27.621 L 14.916 15.443 L 21.74 1.672 z" fill="#212121" class="nc-icon-wrapper"></path></g></svg>