<svg width="32" height="32" viewBox="0 0 32 32" xmlns="http://www.w3.org/2000/svg"><g class="nc-icon-wrapper" fill="#444444"><path d="M28.394 32h-2.492a.601.601 0 0 1-.607-.601V.6c0-.267.27-.601.607-.601h2.492c.337 0 .606.334.606.601V31.4c0 .334-.27.601-.606.601zm-7.477 0h-2.56c-.269 0-.606-.267-.606-.601V6.948c0-.334.337-.601.606-.601h2.56c.27 0 .606.267.606.6V31.4c.068.334-.336.601-.606.601zm-7.275 0h-2.56c-.269 0-.605-.267-.605-.601V16.5c0-.334.336-.601.606-.601h2.56c.269 0 .606.267.606.601v14.898c0 .334-.337.601-.607.601zm-7.544 0H3.606A.601.601 0 0 1 3 31.399v-9.487c0-.334.27-.6.606-.6h2.492c.337 0 .607.266.607.6V31.4c.067.334-.202.601-.607.601z"></path></g></svg>