<svg width="32" height="32" viewBox="0 0 32 32" xmlns="http://www.w3.org/2000/svg"><g class="nc-icon-wrapper" fill="#444444"><path d="M9.902 6.925c0 2.7-2.164 4.926-4.787 4.926-2.623 0-4.787-2.227-4.787-4.926C.328 4.227 2.492 2 5.115 2c2.623 0 4.787 2.227 4.787 4.925zm8.13 18.622c0-.27.066-.607.198-.877-2.361-1.687-3.935-4.588-3.935-7.76 0-4.857 3.41-8.77 8-9.512-2.426-2.564-5.64-4.116-9.377-4.116-.918 0-1.902.067-2.885.337.59.877.918 1.957.918 3.239 0 3.306-2.689 6.005-5.902 6.005-1.574 0-2.885-.608-4.065-1.552C.328 12.863 0 14.75 0 16.64 0 23.995 5.77 30 12.918 30c2.426 0 4.525-.607 6.492-1.822-.853-.607-1.377-1.619-1.377-2.631zm5.575-17.34c-4.59 0-8.328 3.846-8.328 8.636 0 2.902 1.311 5.398 3.475 7.017.525-.607 1.312-.877 2.098-.877 1.378 0 2.558 1.012 2.755 2.497 4.655 0 8.393-3.846 8.393-8.57 0-4.79-3.738-8.703-8.393-8.703zm-.328 17.61a2.44 2.44 0 0 1-2.427 2.429c-1.311 0-2.36-1.08-2.36-2.43 0-1.348 1.049-2.495 2.36-2.495 1.312 0 2.427 1.146 2.427 2.496z"></path></g></svg>