<svg xmlns="http://www.w3.org/2000/svg" width="32" height="32" viewBox="0 0 32 32"><title>chart number card</title><g fill="#F7F7F7" class="nc-icon-wrapper"><path transform="matrix(1 0 0 -1 0 32)" d="M 30.222 31 H 1.854 A 1.824 1.824 0 0 1 0 29.146 V 2.23 C 0 1.182 0.806 0.376 1.854 0.376 H 30.14 A 1.824 1.824 0 0 1 31.994 2.23 V 29.146 C 32.075 30.194 31.189 31 30.222 31 z M 22.646 17.541 H 19.906 L 19.342 13.834 H 21.921 V 12.384 H 19.1 L 18.213 7.548 H 16.44 L 17.246 12.383 H 14.103 L 13.297 7.548 H 11.443 L 12.249 12.383 H 9.832 V 13.834 H 12.572 L 13.136 17.541 H 10.557 V 18.991 H 13.378 L 14.184 23.747 H 15.957 L 15.232 18.992 H 18.294 L 19.181 23.747 H 20.873 L 20.148 18.992 H 22.646 V 17.542000000000012 z M 14.184 13.915 H 17.408 L 17.891 17.622 H 14.748 L 14.184 13.915 z" fill="#F7F7F7" class="nc-icon-wrapper"></path></g></svg>