<svg xmlns="http://www.w3.org/2000/svg" width="32" height="32" viewBox="0 0 32 32"><title>chart bubble</title><g fill="#F7F7F7" class="nc-icon-wrapper"><path transform="matrix(1 0 0 -1 0 32)" d="M 9.902 25.075 C 9.902 22.375 7.738 20.149 5.115 20.149 C 2.492 20.149 0.328 22.376 0.328 25.075 C 0.328 27.773 2.492 30 5.115 30 C 7.738 30 9.902 27.773 9.902 25.075 z M 18.032 6.453 C 18.032 6.723 18.098 7.06 18.23 7.33 C 15.869 9.017 14.295 11.918 14.295 15.09 C 14.295 19.947 17.705 23.86 22.295 24.602 C 19.869 27.166 16.655 28.718 12.918 28.718 C 12 28.718 11.016 28.651 10.033 28.381 C 10.623 27.504 10.951 26.424 10.951 25.142 C 10.951 21.836 8.262 19.137 5.049 19.137 C 3.475 19.137 2.164 19.745 0.984 20.689 C 0.328 19.137 0 17.25 0 15.36 C 0 8.005 5.77 2 12.918 2 C 15.344 2 17.443 2.607 19.41 3.822 C 18.557 4.429 18.033 5.441 18.033 6.453 z M 23.607 23.793 C 19.017 23.793 15.279 19.947 15.279 15.157 C 15.279 12.255 16.59 9.759 18.754 8.14 C 19.279 8.747 20.066 9.017 20.852 9.017 C 22.23 9.017 23.41 8.005 23.607 6.52 C 28.262 6.52 32 10.366 32 15.09 C 32 19.88 28.262 23.793 23.607 23.793 z M 23.279 6.183 A 2.44 2.44 0 0 0 20.852 3.754 C 19.541 3.754 18.492 4.834 18.492 6.184 C 18.492 7.532 19.541 8.679 20.852 8.679 C 22.164 8.679 23.279 7.533 23.279 6.183 z" fill="#F7F7F7" class="nc-icon-wrapper"></path></g></svg>