<svg xmlns="http://www.w3.org/2000/svg" width="32" height="32" viewBox="0 0 32 32"><title>check filled sm</title><g fill="#F7F7F7" class="nc-icon-wrapper"><path transform="matrix(1 0 0 -1 0 32)" d="M 16 32 C 7.2 32 0 24.8 0 16 S 7.2 0 16 0 S 32 7.2 32 16 S 24.8 32 16 32 z M 24.9 20.4 L 14.3 9.7 C 14 9.4 13.8 9.3 13.4 9.3 S 12.7 9.4 12.5 9.7 L 7.2 15 C 6.7 15.5 6.7 16.3 7.2 16.9 C 7.7 17.4 8.5 17.4 9.1 16.9 L 13.5 12.5 L 23.2 22.2 C 23.7 22.7 24.5 22.7 25.1 22.2 C 25.5 21.7 25.5 20.9 24.9 20.4 z" fill="#F7F7F7" class="nc-icon-wrapper"></path></g></svg>