<svg xmlns="http://www.w3.org/2000/svg" width="32" height="32" viewBox="0 0 32 32"><title>circles</title><g fill="#212121" class="nc-icon-wrapper"><path transform="matrix(1 0 0 -1 0 32)" d="M 5.895 14.316 A 1.69 1.69 0 0 1 4.211 12.632 A 1.69 1.69 0 0 1 5.895 10.947 A 1.69 1.69 0 0 1 7.579 12.632 A 1.69 1.69 0 0 1 5.895 14.316 z M 5.895 7.579 A 1.69 1.69 0 0 1 4.211 5.895 A 1.69 1.69 0 0 1 5.895 4.211 A 1.69 1.69 0 0 1 7.579 5.895 A 1.69 1.69 0 0 1 5.895 7.579 z M 5.895 21.053 A 1.69 1.69 0 0 1 4.211 19.368 A 1.69 1.69 0 0 1 5.895 17.684 A 1.69 1.69 0 0 1 7.579 19.368 A 1.69 1.69 0 0 1 5.895 21.053 z M 0.842 20.21 A 0.834 0.834 0 0 1 0 19.368 C 0 18.897 0.37 18.526 0.842 18.526 S 1.684 18.896 1.684 19.368 A 0.834 0.834 0 0 1 0.842 20.21 z M 5.895 27.79 A 1.69 1.69 0 0 1 4.21 26.104 A 1.69 1.69 0 0 1 5.894 24.42 A 1.69 1.69 0 0 1 7.578 26.104 A 1.69 1.69 0 0 1 5.895 27.79 z M 31.158 18.526 C 31.629 18.526 32 18.896 32 19.368 A 0.834 0.834 0 0 1 31.158 20.21 A 0.834 0.834 0 0 1 30.316 19.368 C 30.316 18.897 30.686000000000014 18.526 31.158 18.526 z M 19.368 24.421 A 1.69 1.69 0 0 1 21.053 26.105 A 1.69 1.69 0 0 1 19.368 27.789 A 1.69 1.69 0 0 1 17.684 26.105 A 1.69 1.69 0 0 1 19.368 24.421 z M 19.368 30.316 C 19.84 30.316 20.211 30.686 20.211 31.158 A 0.834 0.834 0 0 1 19.367 32 A 0.834 0.834 0 0 1 18.525 31.158 C 18.525 30.686 18.895 30.316 19.367 30.316 z M 0.842 13.474 A 0.834 0.834 0 0 1 0 12.632 C 0 12.16 0.37 11.789 0.842 11.789 S 1.684 12.16 1.684 12.632 A 0.834 0.834 0 0 1 0.842 13.474 z M 12.632 1.684 A 0.834 0.834 0 0 1 11.79 0.842 C 11.79 0.371 12.16 0 12.632 0 C 13.103 0 13.474 0.37 13.474 0.842 A 0.834 0.834 0 0 1 12.632 1.684 z M 12.632 30.316 C 13.103 30.316 13.474 30.686000000000014 13.474 31.158 A 0.834 0.834 0 0 1 12.632 32 A 0.834 0.834 0 0 1 11.79 31.158 C 11.79 30.686 12.16 30.316 12.632 30.316 z M 12.632 24.421 A 1.69 1.69 0 0 1 14.316 26.105 A 1.69 1.69 0 0 1 12.632 27.789 A 1.69 1.69 0 0 1 10.947 26.105 A 1.69 1.69 0 0 1 12.632 24.421 z M 12.632 15.158 A 2.523 2.523 0 0 1 10.105 12.632 A 2.523 2.523 0 0 1 12.632 10.105 A 2.523 2.523 0 0 1 15.158 12.632 A 2.523 2.523 0 0 1 12.632 15.158 z M 26.105 14.316 A 1.69 1.69 0 0 1 24.421 12.632 A 1.69 1.69 0 0 1 26.105 10.947 A 1.69 1.69 0 0 1 27.789 12.632 A 1.69 1.69 0 0 1 26.105 14.316 z M 26.105 7.579 C 25.179 7.579 24.421 6.821 24.421 5.895 A 1.69 1.69 0 0 1 26.105 4.211 A 1.69 1.69 0 0 1 27.789 5.895 A 1.69 1.69 0 0 1 26.105 7.579 z M 26.105 21.053 A 1.69 1.69 0 0 1 24.421 19.368 A 1.69 1.69 0 0 1 26.105 17.684 A 1.69 1.69 0 0 1 27.789 19.368 A 1.69 1.69 0 0 1 26.105 21.053 z M 26.105 27.789 A 1.69 1.69 0 0 1 24.421 26.105 A 1.69 1.69 0 0 1 26.105 24.421 A 1.69 1.69 0 0 1 27.789 26.105 A 1.69 1.69 0 0 1 26.105 27.789 z M 31.158 13.474 A 0.834 0.834 0 0 1 30.316 12.632 C 30.316 12.16 30.686000000000014 11.789 31.158 11.789 C 31.629 11.789 32 12.16 32 12.632 A 0.834 0.834 0 0 1 31.158 13.474 z M 19.368 7.579 A 1.69 1.69 0 0 1 17.684 5.895 A 1.69 1.69 0 0 1 19.368 4.211 A 1.69 1.69 0 0 1 21.053 5.895 A 1.69 1.69 0 0 1 19.368 7.579 z M 19.368 1.684 A 0.834 0.834 0 0 1 18.526 0.842 C 18.526 0.371 18.896 0 19.368 0 S 20.211 0.37 20.211 0.842 A 0.834 0.834 0 0 1 19.368 1.684 z M 12.632 21.894 A 2.523 2.523 0 0 1 10.105 19.368 A 2.523 2.523 0 0 1 12.632 16.842 A 2.523 2.523 0 0 1 15.158 19.368 A 2.523 2.523 0 0 1 12.632 21.895 z M 12.632 7.579 A 1.69 1.69 0 0 1 10.947 5.895 A 1.69 1.69 0 0 1 12.632 4.211 A 1.69 1.69 0 0 1 14.316 5.895 A 1.69 1.69 0 0 1 12.632 7.579 z M 19.368 15.158 A 2.523 2.523 0 0 1 16.842 12.632 A 2.523 2.523 0 0 1 19.368 10.105 A 2.523 2.523 0 0 1 21.895 12.632 A 2.523 2.523 0 0 1 19.368 15.158 z M 19.368 21.895 A 2.523 2.523 0 0 1 16.842 19.368 A 2.523 2.523 0 0 1 19.368 16.842 A 2.523 2.523 0 0 1 21.895 19.368 A 2.523 2.523 0 0 1 19.368 21.895 z" fill="#212121" class="nc-icon-wrapper"></path></g></svg>