<svg xmlns="http://www.w3.org/2000/svg" width="32" height="32" viewBox="0 0 32 32"><title>circuit board</title><g fill="#F7F7F7" class="nc-icon-wrapper"><path transform="matrix(1 0 0 -1 0 32)" d="M 9.143 25.143 C 10.429 25.143 11.429 24.143 11.429 22.857 S 10.429 20.571 9.143 20.571 S 6.857 21.571 6.857 22.857 S 7.857 25.143 9.143 25.143 z M 32 6.857 A 6.859 6.859 0 0 0 25.143 0 H 9.143 L 16 6.857 H 18.929 C 19.714 5.5 21.143 4.571 22.857 4.571 C 25.357 4.571 27.429 6.643 27.429 9.143 S 25.357 13.714 22.857 13.714 C 21.143 13.714 19.714 12.786 18.929 11.429 H 13.714 L 3.286 1 A 6.778 6.778 0 0 0 0 6.857 V 25.143 A 6.859 6.859 0 0 0 6.857 32 V 26.786 C 5.5 26 4.571 24.57 4.571 22.857 C 4.571 20.357 6.643 18.286 9.143 18.286 C 10.857 18.286 12.286 19.214 13.071 20.571 H 18.929 C 19.714 19.214 21.143 18.286 22.857 18.286 C 25.357 18.286 27.429 20.357 27.429 22.857 C 27.429 25.357 25.357 27.429 22.857 27.429 C 21.143 27.429 19.714 26.5 18.929 25.143 H 13.143 C 12.714 25.857 12.143 26.429 11.429 26.786 V 32 H 25.143 A 6.859 6.859 0 0 0 32 25.143 V 6.857 z M 20.571 9.143 C 20.571 10.429 21.571 11.429 22.857 11.429 S 25.143 10.429 25.143 9.143 S 24.143 6.857 22.857 6.857 S 20.571 7.857 20.571 9.143 z M 20.571 22.857 C 20.571 24.143 21.571 25.143 22.857 25.143 S 25.143 24.143 25.143 22.857 S 24.143 20.571 22.857 20.571 S 20.571 21.571 20.571 22.857 z" fill="#F7F7F7" class="nc-icon-wrapper"></path></g></svg>