<svg xmlns="http://www.w3.org/2000/svg" width="32" height="32" viewBox="0 0 32 32"><title>clipboard</title><g fill="#F7F7F7" class="nc-icon-wrapper"><path transform="matrix(1 0 0 -1 0 32)" d="M 8.714 22.857 C 8.857 24.286 9.429 25.357 10.714 25.714 L 10.786 25.786 C 11.643 26 12.286 26.286 12.286 27.214 V 28.714 C 12.286 30.571 13.714 32 15.57 32 C 17.428 32 18.856 30.571 18.856 28.714 V 27.214 C 18.856 26.286 19.499 25.929 20.356 25.714 H 20.428 C 21.713 25.357 22.285 24.286 22.428 22.857 H 8.714 z M 15.571 29.714 C 15 29.714 14.571 29.286 14.571 28.714 C 14.571 28.143 15 27.714 15.571 27.714 C 16.143 27.714 16.571 28.143 16.571 28.714 C 16.571 29.286 16.143 29.714 15.571 29.714 z M 26.214 29.786 C 27.286 29.786 28.143 28.857 28.143 27.714 V 2 C 28.143 0.857 27.286 0 26.214 0 H 4.93 C 3.857 0 3 0.857 3 2 V 27.714 C 3 28.857 3.857 29.786 4.929 29.786 H 10.214 V 28.714 C 10.214 27.929 9.571 27.429 8.857 27.429 H 6.214 C 5.714 27.429 5.286 27.071 5.286 26.571 V 3.143 C 5.286 2.714 5.714 2.286 6.143 2.286 H 25 C 25.429 2.286 25.857 2.714 25.857 3.143 V 26.57 C 25.857 27.07 25.429 27.428 24.929 27.428 H 22.286 C 21.571 27.428 20.929 27.928 20.929 28.713 V 29.786 H 26.214 z M 7.571 19.429 V 20.57 H 15.571 V 19.428 H 7.571 z M 7.571 12.571 V 13.714 H 19 V 12.571 H 7.571 z M 7.571 5.714 V 6.857 H 16.786 V 5.714 H 7.57 z M 7.571 9.143 V 10.286 H 20.143 V 9.143 H 7.57 z M 7.571 16 V 17.143 H 22.43 V 16 H 7.57 z" fill="#F7F7F7" class="nc-icon-wrapper"></path></g></svg>