<svg xmlns="http://www.w3.org/2000/svg" width="32" height="32" viewBox="0 0 32 32"><title>clock</title><g fill="#212121" class="nc-icon-wrapper"><path transform="matrix(1 0 0 -1 0 32)" d="M 16 32 C 7.147 32 0 24.853 0 16 S 7.147 0 16 0 S 32 7.147 32 16 S 24.853 32 16 32 z M 16 28.8 C 23.147 28.8 28.8 23.147 28.8 16 C 28.8 8.853 23.147 3.2 16 3.2 C 8.853 3.2 3.2 8.853 3.2 16 C 3.2 23.147 8.853 28.8 16 28.8 z M 14.4 24 V 15.35 L 14.85 14.85 L 19.65 10.05 L 21.95 12.35 L 17.6 16.7 V 24 H 14.4 z" fill="#212121" class="nc-icon-wrapper"></path></g></svg>