<svg xmlns="http://www.w3.org/2000/svg" width="32" height="32" viewBox="0 0 32 32"><title>cloud download</title><g fill="#F7F7F7" class="nc-icon-wrapper"><path transform="matrix(1 0 0 -1 0 32)" d="M 16 29.994 C 8.457 30.212 6.774 24.176 6.774 24.176 S 0.122 23.388 0 16.904 C -0.075 12.896 3.263 9.632 7.273 9.632 H 11.636 V 12.54 H 7.274 C 4.868 12.54 2.862 14.497 2.91 16.903 C 3 21.403 8.637 21.539 8.637 21.539 S 10.187 27.308 16 27.085 C 23.136 26.812 23.727 18.722 23.727 18.722 S 29.045 18.859 29.09 15.45 C 29.112 13.845 27.786 12.54 26.181 12.54 H 20.364 V 9.632 H 26.181 C 29.388 9.632 32.053 12.242 31.999 15.45 C 31.908 20.904 26.09 21.313 26.09 21.313 S 25.454 29.721 16 29.994 z M 14.546 18.36 V 8.178 H 10.182 L 16 0.905 L 21.818 8.177 H 17.455 V 18.36 H 14.545 z" fill="#F7F7F7" class="nc-icon-wrapper"></path></g></svg>