<svg xmlns="http://www.w3.org/2000/svg" width="32" height="32" viewBox="0 0 32 32"><title>code</title><g fill="#F7F7F7" class="nc-icon-wrapper"><path transform="matrix(1 0 0 -1 0 32)" d="M 22.684 6.326 C 22.35 6.326 22.016 6.494 21.765 6.744 A 1.311 1.311 0 0 0 21.765 8.582 L 28.783 15.684 L 21.765 22.786 A 1.311 1.311 0 0 0 21.765 24.624 A 1.311 1.311 0 0 0 23.603 24.624 L 31.624 16.604 A 1.311 1.311 0 0 0 31.624 14.765 L 23.604 6.745 C 23.352 6.493 23.018 6.326 22.684 6.326 z M 9.316 6.326 C 8.982 6.326 8.648 6.494 8.396 6.744 L 0.376 14.765 A 1.311 1.311 0 0 0 0.376 16.603 L 8.396 24.624 A 1.311 1.311 0 0 0 10.235 24.624 A 1.311 1.311 0 0 0 10.235 22.786 L 3.217 15.684 L 10.235 8.582 A 1.311 1.311 0 0 0 10.235 6.744 C 9.985 6.494 9.65 6.326 9.315 6.326 z M 7.979 15.684 C 7.979 17.021 8.648 17.689 9.984 17.689 C 11.321 17.689 11.99 17.021 11.99 15.684 C 11.99 14.347 11.321 13.679 9.984 13.679 C 8.648 13.679 7.979 14.347 7.979 15.684 z M 13.995 15.684 C 13.995 17.021 14.663 17.689 16 17.689 C 17.337 17.689 18.005 17.021 18.005 15.684 C 18.005 14.347 17.337 13.679 16 13.679 C 14.663 13.679 13.995 14.347 13.995 15.684 z M 20.01 15.684 C 20.01 17.021 20.679 17.689 22.016 17.689 C 23.353 17.689 24.021 17.021 24.021 15.684 C 24.021 14.347 23.352 13.679 22.016 13.679 C 20.679 13.679 20.01 14.347 20.01 15.684 z" fill="#F7F7F7" class="nc-icon-wrapper"></path></g></svg>