<svg width="32" height="32" viewBox="0 0 32 32" xmlns="http://www.w3.org/2000/svg"><g class="nc-icon-wrapper" fill="#444444"><path d="M22.684 25.674c-.334 0-.668-.168-.919-.418a1.311 1.311 0 0 1 0-1.838l7.018-7.102-7.018-7.102a1.311 1.311 0 0 1 0-1.838 1.311 1.311 0 0 1 1.838 0l8.021 8.02a1.311 1.311 0 0 1 0 1.839l-8.02 8.02c-.252.252-.586.419-.92.419zm-13.368 0c-.334 0-.668-.168-.92-.418l-8.02-8.021a1.311 1.311 0 0 1 0-1.838l8.02-8.021a1.311 1.311 0 0 1 1.839 0 1.311 1.311 0 0 1 0 1.838l-7.018 7.102 7.018 7.102a1.311 1.311 0 0 1 0 1.838c-.25.25-.585.418-.92.418zm-1.337-9.358c0-1.337.669-2.005 2.005-2.005 1.337 0 2.006.668 2.006 2.005 0 1.337-.669 2.005-2.006 2.005-1.336 0-2.005-.668-2.005-2.005zm6.016 0c0-1.337.668-2.005 2.005-2.005 1.337 0 2.005.668 2.005 2.005 0 1.337-.668 2.005-2.005 2.005-1.337 0-2.005-.668-2.005-2.005zm6.015 0c0-1.337.669-2.005 2.006-2.005 1.337 0 2.005.668 2.005 2.005 0 1.337-.669 2.005-2.005 2.005-1.337 0-2.006-.668-2.006-2.005z"></path></g></svg>