<svg xmlns="http://www.w3.org/2000/svg" width="32" height="32" viewBox="0 0 32 32"><title>commandline</title><g fill="#212121" class="nc-icon-wrapper"><path transform="matrix(1 0 0 -1 0 32)" d="M 31.313 2 H 0.688 A 0.694 0.694 0 0 0 0 2.688 V 29.312 C 0 29.687 0.313 30 0.688 30 H 31.313 C 31.688 30 32 29.687 32 29.312 V 2.687 A 0.694 0.694 0 0 0 31.312 2 z M 30.688 28.688 H 1.313 V 3.313 H 30.688 V 28.687 z M 3.313 27.312 H 28.688 C 29.063 27.312 29.313 27.062 29.313 26.687 V 5.312 C 29.313 4.937 29.063 4.687 28.688 4.687 H 3.313 C 2.937 4.687 2.687 4.937 2.687 5.312 V 26.687 C 2.687 27.062 2.937 27.312 3.313 27.312 z M 17.313 16.687 H 22.688 C 23.063 16.687 23.313 16.937 23.313 17.313 C 23.313 17.687 23.063 18 22.688 18 H 17.313 C 16.938 18 16.688 17.687 16.688 17.312 C 16.688 16.938 16.938 16.688 17.313 16.688 z M 9.5 15.125 A 0.68 0.68 0 0 1 9.5 14.187 C 9.688 14.062 9.813 14 10 14 C 10.188 14 10.313 14.063 10.5 14.188 L 13.813 17.5 A 0.76 0.76 0 0 1 13.813 18.5 L 10.5 21.813 A 0.76 0.76 0 0 1 9.5 21.813 A 0.68 0.68 0 0 1 9.5 20.875 L 12.375 18 L 9.5 15.125 z" fill="#212121" class="nc-icon-wrapper"></path></g></svg>