<svg xmlns="http://www.w3.org/2000/svg" width="32" height="32" viewBox="0 0 32 32"><title>component</title><g fill="#212121" class="nc-icon-wrapper"><g fill="#212121"><path transform="scale(1,-1) translate(0,-32)" d="M 30.1 32 H 19.7 C 18.6 32 17.8 31.1 17.8 30.1 V 19.7 C 17.8 18.6 18.7 17.8 19.7 17.8 H 30.1 C 31.2 17.8 32 18.7 32 19.7 V 30.1 C 32 31.1 31.1 32 30.1 32 z M 29.5 20.2 H 20.2 V 29.5 H 29.5 V 20.2 z M 24 14.2 H 14.2 V 23.7 C 14.2 24.8 13.3 25.6 12.3 25.6 H 1.9 C 0.9 25.6 0 24.7 0 23.7 V 2 C 0 0.9 0.9 0 1.9 0 H 24 C 25.1 0 25.9 0.9 25.9 1.9 V 12.3 C 25.9 13.4 25.1 14.2 24 14.2 z M 11.7 2.5 H 2.5 V 11.4 H 11.7 V 2.5 z M 11.8 14.2 H 2.5 V 23.2 H 11.8 V 14.2 z M 23.5 2.5 H 14.3 V 11.8 H 23.5 V 2.5 z"></path></g></g></svg>