<svg xmlns="http://www.w3.org/2000/svg" enable-background="new 0 0 32 32" height="32" width="32" viewBox="0 0 32 32"><title>component create</title><g fill="#212121" class="nc-icon-wrapper"><path d="M5.2 13.7H3.4v3.4H0V19h3.4v3.4h1.8V19h3.4v-1.9H5.2v-3.4zm25.4-7.6h-5.9c-.8 0-1.4.6-1.4 1.4v5.9c0 .8.6 1.4 1.4 1.4h5.9c.8 0 1.4-.6 1.4-1.4V7.5c0-.8-.6-1.4-1.4-1.4zm-.4 6.8h-5V8h5v4.9zm-3.6 4.3h-5.7v-5.5c0-.8-.6-1.4-1.4-1.4h-5.9c-.8 0-1.4.6-1.4 1.4v12.8c0 .8.6 1.4 1.4 1.4h13c.8 0 1.4-.6 1.4-1.4v-5.9c0-.8-.7-1.4-1.4-1.4zM19 24.1h-5v-5h5v5zm0-7h-5v-5h5v5zm7.1 7h-5v-5h5v5z"></path></g></svg>