<svg xmlns="http://www.w3.org/2000/svg" width="32" height="32" viewBox="0 0 32 32"><title>component create</title><g fill="#212121" class="nc-icon-wrapper"><g fill="#212121"><path transform="scale(1,-1) translate(0,-32)" d="M 5.2 18.3 H 3.4 V 14.9 H 0 V 13 H 3.4 V 9.6 H 5.2 V 13 H 8.6 V 14.9 H 5.2 V 18.3 z M 30.6 25.9 H 24.7 C 23.9 25.9 23.3 25.3 23.3 24.5 V 18.6 C 23.3 17.8 23.9 17.2 24.7 17.2 H 30.6 C 31.4 17.2 32 17.8 32 18.6 V 24.5 C 32 25.3 31.4 25.9 30.6 25.9 z M 30.2 19.1 H 25.2 V 24 H 30.2 V 19.1 z M 26.6 14.8 H 20.9 V 20.3 C 20.9 21.1 20.3 21.7 19.5 21.7 H 13.6 C 12.8 21.7 12.2 21.1 12.2 20.3 V 7.5 C 12.2 6.7 12.8 6.1 13.6 6.1 H 26.6 C 27.4 6.1 28 6.7 28 7.5 V 13.4 C 28 14.2 27.3 14.8 26.6 14.8 z M 19 7.9 H 14 V 12.9 H 19 V 7.9 z M 19 14.9 H 14 V 19.9 H 19 V 14.9 z M 26.1 7.9 H 21.1 V 12.9 H 26.1 V 7.9 z"></path></g></g></svg>