<svg xmlns="http://www.w3.org/2000/svg" width="32" height="32" viewBox="0 0 32 32"><title>condition</title><g fill="#F7F7F7" class="nc-icon-wrapper"><path transform="matrix(1 0 0 -1 0 32)" d="M 9.617 17.135 H 22.852 C 26.461 17.135 29.469 20.287 29.469 24.068 C 29.469 27.849 26.46 31 22.852 31 H 9.617 C 6.007 31 3 27.849 3 24.068 C 3 20.287 6.008 17.135 9.617 17.135 z M 9.617 28.479 C 11.903 28.479 13.828 26.463 13.828 24.068 C 13.828 21.673 11.903 19.656 9.618 19.656 C 7.331 19.656 5.406 21.673 5.406 24.068 S 7.331 28.479 9.617 28.479 z M 22.852 14.615 H 9.617 C 6.007 14.615 3 11.464 3 7.682 C 3 3.901 6.008 0.75 9.617 0.75 H 22.852 C 26.461 0.75 29.469 3.901 29.469 7.682 C 29.469 11.464 26.461 14.615 22.852 14.615 z M 22.852 3.271 C 20.566 3.271 18.641 5.288 18.641 7.682 C 18.641 10.077 20.566 12.094 22.851 12.094 C 25.138 12.094 27.063 10.077 27.063 7.682 C 27.063 5.288 25.138 3.271 22.852 3.271 z" fill="#F7F7F7" class="nc-icon-wrapper"></path></g></svg>