<svg xmlns="http://www.w3.org/2000/svg" width="32" height="32" viewBox="0 0 32 32"><title>copy</title><g fill="#212121" class="nc-icon-wrapper"><path transform="matrix(1 0 0 -1 0 32)" d="M 6.2 32 A 3.21 3.21 0 0 1 3 28.8 V 8 H 6.2 V 28.8 H 22.2 V 32 H 6.2 z M 12.6 25.6 A 3.21 3.21 0 0 1 9.4 22.4 V 3.2 C 9.4 1.44 10.84 0 12.6 0 H 27 C 28.76 0 30.2 1.44 30.2 3.2 V 22.4 C 30.2 24.16 28.76 25.6 27 25.6 H 12.6 z M 12.6 22.4 H 27 V 3.2 H 12.6 V 22.4 z" fill="#212121" class="nc-icon-wrapper"></path></g></svg>