<svg xmlns="http://www.w3.org/2000/svg" width="32" height="32" viewBox="0 0 32 32"><title>copy app</title><g fill="#212121" class="nc-icon-wrapper"><path transform="matrix(1 0 0 -1 0 32)" d="M 23.333000000000087 17.332999999999974 C 28.11300000000009 17.332999999999974 32.000000000000085 13.444999999999975 32.000000000000085 8.666999999999975 C 32.000000000000085 3.887999999999975 28.112000000000087 -2.5e-14 23.333000000000087 -2.5e-14 C 18.55500000000009 -2.5e-14 14.667000000000087 3.887999999999975 14.667000000000087 8.666999999999975 C 14.667000000000087 13.444999999999975 18.55500000000009 17.332999999999974 23.333000000000087 17.332999999999974 z M 19.383000000000088 13.713999999999976 A 1.1 1.1 0 0 1 18.286000000000087 12.616999999999974 V 5.485999999999975 H 19.383000000000088 V 12.616999999999974 H 24.86900000000009 V 13.713999999999976 H 19.383000000000088 z M 21.577000000000087 10.422999999999975 H 26.514000000000088 V 3.8399999999999626 H 21.577000000000087 V 10.422999999999963 z M 21.577000000000087 11.519999999999975 A 1.1 1.1 0 0 1 20.48000000000009 10.422999999999975 V 3.8399999999999626 A 1.1 1.1 0 0 1 21.577000000000087 2.7429999999999626 H 26.514000000000088 A 1.1 1.1 0 0 1 27.611000000000086 3.8399999999999626 V 10.422999999999963 A 1.1 1.1 0 0 1 26.514000000000088 11.519999999999962 H 21.577000000000087 z M 28 28.667000000000037 V 26.667000000000037 H 0 V 28.667000000000037 A 3.336 3.336 0 0 0 3.333 32.000000000000036 H 24.667 A 3.337 3.337 0 0 0 28 28.667000000000037 z M 4.667 28.000000000000025 A 0.668 0.668 0 1 1 4.664 29.336000000000038 A 0.668 0.668 0 0 1 4.667 28.000000000000025 z M 7.333 28.000000000000025 A 0.668 0.668 0 1 1 7.331 29.336000000000038 A 0.668 0.668 0 0 1 7.333 28.000000000000025 z M 10 28.000000000000025 A 0.668 0.668 0 1 1 9.998 29.336000000000038 A 0.668 0.668 0 0 1 10 28 z M 28 17.505 V 25.333 H 0 V 12.667 A 3.336 3.336 0 0 1 3.333 9.333 H 13.367 C 13.844 16.528 21.603 20.892 28 17.505 z" fill="#212121" class="nc-icon-wrapper"></path></g></svg>