<svg xmlns="http://www.w3.org/2000/svg" width="32" height="32" viewBox="0 0 32 32"><title>dashboard</title><g fill="#212121" class="nc-icon-wrapper"><path transform="matrix(1 0 0 -1 0 32)" d="M 16 32 C 7.187 32 0 24.812 0 16 C 0 7.187 7.188 0 16 0 C 24.813 0 32 7.188 32 16 C 32 24.813 24.812 32 16 32 z M 25 20.437 L 27.438 21.437 C 27.813 21.625 28.188 21.437 28.313 21.125 C 28.438 20.75 28.313 20.375 27.938 20.25 L 25.5 19.187 H 25.25 C 25 19.187 24.75 19.313 24.625 19.563 C 24.5 19.937 24.625 20.313 25 20.437 z M 19.187 25.5 L 20.25 27.938 C 20.375 28.313 20.75 28.438 21.125 28.313 C 21.438 28.187 21.625 27.813 21.438 27.437 L 20.438 25 C 20.313 24.75 20.063 24.562 19.813 24.562 C 19.75 24.562 19.625 24.562 19.563 24.625 C 19.25 24.75 19.063 25.125 19.188 25.5 z M 10.875 28.313 C 11.25 28.437 11.625 28.313 11.75 27.937 L 12.813 25.5 C 12.937 25.125 12.75 24.75 12.437 24.625 C 12.375 24.562 12.25 24.562 12.187 24.562 C 11.937 24.562 11.687 24.75 11.563 25 L 10.563 27.438 A 0.622 0.622 0 0 0 10.875 28.313 z M 7 11.562 L 4.562 10.562 C 4.437 10.499 4.375 10.499 4.312 10.499 C 4.062 10.499 3.812 10.624 3.687 10.874 C 3.563 11.249 3.687 11.624 4.063 11.749 L 6.5 12.813 C 6.875 12.938 7.25 12.75 7.375 12.438 C 7.5 12.063 7.375 11.688 7 11.563 z M 7.375 19.562 A 0.687 0.687 0 0 0 6.75 19.186 H 6.5 L 4.062 20.25 C 3.687 20.375 3.562 20.75 3.687 21.125 C 3.813 21.438 4.187 21.625 4.563 21.438 L 7 20.438 C 7.375 20.312 7.5 19.938 7.375 19.562 z M 18.313 17.374 C 18.5 16.936 18.688 16.499 18.688 15.999 C 18.688 14.499 17.5 13.311 16 13.311 A 2.668 2.668 0 0 0 13.312 16 C 13.312 17.5 14.5 18.688 16 18.688 C 16.5 18.688 16.938 18.5 17.375 18.312 L 23.563 24.5 A 0.68 0.68 0 0 0 24.5 24.5 A 0.68 0.68 0 0 0 24.5 23.562 L 18.312 17.375 z M 28.313 10.874 A 0.687 0.687 0 0 0 27.688 10.499 C 27.625 10.499 27.5 10.499 27.438 10.562 L 25 11.562 C 24.625 11.687 24.5 12.062 24.625 12.437 C 24.75 12.749 25.125 12.937 25.5 12.812 L 27.938 11.749 C 28.313 11.624 28.438 11.249 28.313 10.874 z" fill="#212121" class="nc-icon-wrapper"></path></g></svg>