<svg width="32" height="32" viewBox="0 0 32 32" xmlns="http://www.w3.org/2000/svg"><g class="nc-icon-wrapper" fill="#444444"><path d="M16 0C7.187 0 0 7.188 0 16c0 8.813 7.188 16 16 16 8.813 0 16-7.188 16-16 0-8.813-7.188-16-16-16zm9 11.563l2.438-1c.375-.188.75 0 .875.312.125.375 0 .75-.375.875L25.5 12.813h-.25c-.25 0-.5-.126-.625-.376-.125-.374 0-.75.375-.874zM19.187 6.5l1.063-2.438c.125-.375.5-.5.875-.375.313.126.5.5.313.876l-1 2.437c-.125.25-.375.438-.625.438-.063 0-.188 0-.25-.063-.313-.125-.5-.5-.375-.875zm-8.312-2.813c.375-.124.75 0 .875.376L12.813 6.5c.124.375-.063.75-.376.875-.062.063-.187.063-.25.063-.25 0-.5-.188-.624-.438l-1-2.438a.622.622 0 0 1 .312-.875zM7 20.438l-2.438 1c-.125.063-.187.063-.25.063-.25 0-.5-.125-.625-.375-.124-.375 0-.75.376-.875L6.5 19.187c.375-.125.75.063.875.375.125.375 0 .75-.375.875zm.375-8a.687.687 0 0 1-.625.376H6.5L4.062 11.75c-.375-.125-.5-.5-.375-.875.126-.313.5-.5.876-.313l2.437 1c.375.126.5.5.375.876zm10.938 2.188c.187.438.375.875.375 1.375 0 1.5-1.188 2.688-2.688 2.688A2.668 2.668 0 0 1 13.312 16c0-1.5 1.188-2.688 2.688-2.688.5 0 .938.188 1.375.376L23.563 7.5a.68.68 0 0 1 .937 0 .68.68 0 0 1 0 .938l-6.188 6.187zm10 6.5a.687.687 0 0 1-.625.375c-.063 0-.188 0-.25-.063l-2.438-1c-.375-.125-.5-.5-.375-.875.125-.312.5-.5.875-.375l2.438 1.063c.375.125.5.5.375.875z"></path></g></svg>