<svg xmlns="http://www.w3.org/2000/svg" width="32" height="32" viewBox="0 0 32 32"><title>database</title><g fill="#212121" class="nc-icon-wrapper"><path transform="matrix(1 0 0 -1 0 32)" d="M 15.714 0 C 8.143 0 2 2.071 2 4.571 V 9.143 C 2 9.571 2.214 9.929 2.5 10.286 C 4 8.286 9.357 6.857 15.714 6.857 S 27.429 8.286 28.929 10.286 C 29.214 9.929 29.429 9.571 29.429 9.143 V 4.571 C 29.429 2.071 23.286 0 15.714 0 z M 15.714 9.143 C 8.143 9.143 2 11.214 2 13.714 V 18.286 C 2 18.5 2.071 18.786 2.214 19 C 2.286 19.143 2.357 19.286 2.5 19.429 C 4 17.429 9.357 16 15.714 16 S 27.429 17.429 28.929 19.429 C 29.071 19.286 29.143 19.143 29.214 19 C 29.357 18.786 29.429 18.5 29.429 18.286 V 13.714 C 29.429 11.214 23.286 9.143 15.714 9.143 z M 15.714 18.286 C 8.143 18.286 2 20.357 2 22.857 V 25.143 V 27.429 C 2 29.929 8.143 32 15.714 32 C 23.286 32 29.43 29.929 29.43 27.429 V 22.857 C 29.43 20.357 23.287 18.286 15.715 18.286 z M 15.714 29.714 C 10.643 29.714 6.571 28.714 6.571 27.429 C 6.571 26.143 10.643 25.143 15.714 25.143 C 20.786 25.143 24.857 26.143 24.857 27.429 C 24.857 28.714 20.786 29.714 15.714 29.714 z" fill="#212121" class="nc-icon-wrapper"></path></g></svg>