<svg xmlns="http://www.w3.org/2000/svg" width="32" height="32" viewBox="0 0 32 32"><title>debug</title><g fill="#F7F7F7" class="nc-icon-wrapper"><path transform="matrix(1 0 0 -1 0 32)" d="M 30.6 5.9 L 27.7 8.8 C 27.2 9.3 26.5 9.3 26 8.8 L 25.2 8 L 24.2 9 C 26.6 11.5 27.9 14.9 27.9 18.3 C 27.8 25.9 21.7 32 14.1 32 C 6.5 32 0.4 25.8 0.4 18.3 C 0.4 10.7 6.5 4.6 14.1 4.6 C 17.2 4.6 20 5.6 22.3 7.3 L 23.4 6.2 L 22.8 5.6 C 22.3 5.1 22.3 4.4 22.8 3.9 L 25.7 1 C 27 -0.4 29.2 -0.4 30.6 1 C 31.9 2.3 31.9 4.5 30.6 5.9 z M 14.1 7 C 7.9 7 2.8 12.1 2.8 18.3 C 2.8 24.5 7.9 29.6 14.1 29.6 C 20.3 29.6 25.4 24.5 25.4 18.3 C 25.4 12.1 20.3 7 14.1 7 z M 28.8 2.8 C 28.4 2.4 27.8 2.4 27.4 2.8 L 25.4 4.8 L 26.8 6.2 L 28.8 4.2 C 29.2 3.8 29.2 3.2 28.8 2.8 z M 21 22.7 H 19.6 C 19.1 22.7 18.7 22.5 18.4 22.2 C 18.1 22.5 17.7 22.8 17.3 23.1 C 17.3 23.3 17.4 23.4 17.4 23.6 C 17.4 25 16 26.8 14.2 26.8 S 11 25 11 23.6 C 11 23.4 11 23.3 11.1 23.1 C 10.7 22.9 10.3 22.6 10 22.2 C 9.6 22.5 9.1 22.7 8.7 22.7 H 7.3 C 6.6 22.7 6.1 22.2 6.1 21.5 S 6.6 20.3 7.3 20.3 H 8.4 L 8.9 19.7 V 18.6 H 7.7 C 7 18.6 6.5 18.1 6.5 17.4 S 7 16.2 7.7 16.2 H 9.4 C 9.5 15.7 9.7 15.2 9.9 14.7 L 9.7 14.5 H 8.6 C 7.9 14.5 7.4 14 7.4 13.3 S 7.9 12.1 8.6 12.1 H 10 C 10.3 12.1 10.7 12.200000000000012 10.9 12.400000000000013 C 11.7 11.000000000000012 12.8 10.000000000000012 14.1 10.000000000000012 C 15.4 10.000000000000012 16.5 11.000000000000012 17.3 12.400000000000013 C 17.6 12.200000000000012 17.9 12.1 18.3 12.1 H 19.7 C 20.4 12.1 20.9 12.6 20.9 13.3 S 20.4 14.5 19.7 14.5 H 18.6 L 18.4 14.7 C 18.6 15.2 18.7 15.7 18.9 16.2 H 20.6 C 21.3 16.2 21.8 16.7 21.8 17.4 S 21.3 18.6 20.6 18.6 H 19.3 V 19.4 V 19.7 L 19.8 20.3 H 21 C 21.7 20.3 22.2 20.8 22.2 21.5 S 21.7 22.7 21 22.7 z M 13.7 24 C 13.9 24.2 14.1 24.3 14.2 24.3 C 14.3 24.3 14.4 24.3 14.7 24 C 14.8 23.9 14.9 23.7 15 23.6 C 15 23.6 14.9 23.6 14.9 23.5 C 14.8 23.5 14.6 23.4 14.4 23.4 C 14 23.4 13.8 23.5 13.7 23.6 C 13.5 23.8 13.6 23.9 13.7 24 z M 15.8 14.6 C 15.4 13.7 15 13 14.6 12.6 C 14.5 12.5 14.3 12.4 14.2 12.3 H 14.1 H 14 C 13.8 12.4 13.7 12.5 13.6 12.6 C 13.2 13 12.8 13.7 12.4 14.6 C 11.6 16.4 11.3 18.5 11.3 19.3 C 11.3 20.1 11.5 20.3 11.7 20.5 C 11.9 20.7 12.1 20.8 12.4 21 C 13 20.7 13.6 20.6 14.2 20.6 S 15.5 20.7 16 21 C 16.3 20.8 16.5 20.7 16.7 20.5 C 16.9 20.3 17.1 20.1 17.1 19.3 C 17 18.5 16.6 16.5 15.8 14.6 z" fill="#F7F7F7" class="nc-icon-wrapper"></path></g></svg>