<svg width="32" height="32" viewBox="0 0 32 32" xmlns="http://www.w3.org/2000/svg"><g class="nc-icon-wrapper" fill="#444444"><path d="M31.408 7.183c1.186 2.31.5 5.057-1.25 6.743-1.748 1.686-3.746 2.06-3.746 2.06.125 1.999 1 3.685-2.56 6.37-2.685 1.998.125 5.62.125 5.62.625.873 1.436 1.186 1.998 1.997H8.991c0 .812.937-.874-.437-1.998 0 0-1.248-1.061-1.124-1.81.125-.75.375-.812.562-.937.188-.125 0-.437 0-.437l-1.186-1.187s-.812.812-2.747.812C1.686 24.416 0 21.981 0 21.981h2.872s-.374.5-.437.812c-.062.25.063.312.063.312s.686.375 1.373.375c1.062 0 2.06-.75 2.06-.75l-1.498-1.373-.936.25-1-2.311 2.436.624-.063.937 1.749 1.124s.562-.562.437-1.686c-.125-1.124-.562-1.623-.562-1.623s-.25 0-.562.25c-.312.25-.375.374-.375.374l-.624-2.747s2.685 1.186 3.122 3.933c.187 1.25-.375 2.186-.375 2.186l1.062.624s.374-.312 1.061-.437c.687-.125 1.436-.125 1.81.5.376.624.313.749.25 1.186-.062.437 0 .562.375.687s.375.374.687.5c.312.124.937.374 1.311.124.375-.25.5-.686.5-1.124v-.999s-.562-.5-1.998-1.248c-1.436-.75-3.372-1.374-4.121-2.498-.75-1.124-.75-2.748 0-3.56.562-.624 1.436-1.56 1.623-2.185.25-.874.25-2.622.25-2.622s-.624-1-.5-2.498c.125-1.873 1.374-5.245 5.995-7.118 0 0-2.498 3.434-1.249 4.995 0 0 2.31-.687 4.808-.562 1.936.125 3.497.75 4.558 1.749 1.062.999 1.561 1.436 2.935 1.061 1.373-.375 1.748-1.061 1.748-2.06 0-1.187-.999-3.185-.999-3.185s2.248.437 3.622 3.185zm-19.232 5.494c.874-.25 1.311.687 1.311.687.874-1.56 1.873-3.746 1.374-3.996-.5-.25-3.996 1.561-4.121 5.495 0 0 .374-1.936 1.436-2.186zm2.31.937c.312-.437 2.123-.5 2.31 1.061.25 2.186-1.498 3.56-1.498 3.56s.437.124 1.436-.125c1.062-.25 2.685-1.811 2.685-4.371 0-2.56-1.311-4.121-2.56-3.871-1.249.25-2.373 3.746-2.373 3.746z"></path></g></svg>