<svg xmlns="http://www.w3.org/2000/svg" width="32" height="32" viewBox="0 0 32 32"><title>devil</title><g fill="#212121" class="nc-icon-wrapper"><path transform="matrix(1 0 0 -1 0 32)" d="M 31.408 24.817 C 32.594 22.507 31.908 19.76 30.158 18.074 C 28.41 16.388 26.412 16.014 26.412 16.014 C 26.537 14.015 27.412 12.329 23.852 9.644 C 21.167000000000012 7.646 23.977 4.024 23.977 4.024 C 24.602 3.151 25.413 2.838 25.975000000000012 2.027 H 8.991 C 8.991 1.215 9.928 2.901 8.554 4.025 C 8.554 4.025 7.306 5.086 7.43 5.835 C 7.555 6.585 7.805 6.647 7.992 6.772 C 8.18 6.897 7.992 7.209 7.992 7.209 L 6.806 8.396 S 5.994 7.584 4.059 7.584 C 1.686 7.584 0 10.019 0 10.019 H 2.872 S 2.498 9.519 2.435 9.207 C 2.373 8.957 2.498 8.895 2.498 8.895 S 3.184 8.52 3.871 8.52 C 4.933 8.52 5.931 9.27 5.931 9.27 L 4.433 10.643 L 3.497 10.393 L 2.497 12.704 L 4.933 12.08 L 4.87 11.143 L 6.619 10.019 S 7.181 10.581 7.056 11.705 C 6.931 12.829 6.494 13.328 6.494 13.328 S 6.244 13.328 5.932 13.078 C 5.62 12.828 5.557 12.704 5.557 12.704 L 4.933 15.451 S 7.618 14.265 8.055 11.518 C 8.242 10.268 7.68 9.332 7.68 9.332 L 8.742 8.708 S 9.116 9.02 9.803 9.145 C 10.49 9.27 11.239 9.27 11.613 8.645 C 11.989 8.021 11.926 7.896 11.863 7.459 C 11.801 7.022 11.863 6.897 12.238 6.772 S 12.613 6.398 12.925 6.272 C 13.237 6.148 13.862 5.898 14.236 6.148 C 14.611 6.398 14.736 6.834 14.736 7.272 V 8.271 S 14.174 8.771 12.738 9.519 C 11.302 10.269 9.366 10.893 8.617 12.017 C 7.867 13.141 7.867 14.765 8.617 15.577 C 9.179 16.201 10.053 17.137 10.24 17.762 C 10.49 18.636 10.49 20.384 10.49 20.384 S 9.866 21.384 9.99 22.882 C 10.115 24.755 11.364 28.127 15.985 30 C 15.985 30 13.487 26.566 14.736 25.005 C 14.736 25.005 17.046 25.692 19.544 25.567 C 21.48 25.442 23.041 24.817 24.102 23.818 C 25.164 22.819 25.663 22.382 27.037 22.757 C 28.41 23.132 28.785 23.818 28.785 24.817 C 28.785 26.004 27.786 28.002 27.786 28.002 S 30.034 27.565 31.408 24.817 z M 12.176 19.323 C 13.05 19.573 13.487 18.636 13.487 18.636 C 14.361 20.196 15.36 22.382 14.861 22.632 C 14.361 22.882 10.865 21.071 10.74 17.137 C 10.74 17.137 11.114 19.073 12.176 19.323 z M 14.486 18.386 C 14.798 18.823 16.609 18.886 16.796 17.325 C 17.046 15.139 15.298 13.765 15.298 13.765 S 15.735 13.641 16.734 13.89 C 17.796 14.14 19.419 15.701 19.419 18.261 C 19.419 20.821 18.108 22.382 16.859 22.132 C 15.61 21.882 14.486 18.386 14.486 18.386 z" fill="#212121" class="nc-icon-wrapper"></path></g></svg>