<svg xmlns="http://www.w3.org/2000/svg" width="32" height="32" viewBox="0 0 32 32"><title>disable</title><g fill="#F7F7F7" class="nc-icon-wrapper"><path transform="matrix(1 0 0 -1 0 32)" d="M 23.531 23.531 A 1.6 1.6 0 0 0 23.531 21.269 L 10.731 8.469 A 1.6 1.6 0 0 0 8.47 10.73 L 21.27 23.53 A 1.6 1.6 0 0 0 23.532 23.53 z M 16 3.2 C 23.07 3.2 28.8 8.93 28.8 16 S 23.07 28.8 16 28.8 S 3.2 23.07 3.2 16 S 8.93 3.2 16 3.2 z M 32 16 C 32 7.163 24.837 0 16 0 S 0 7.163 0 16 S 7.163 32 16 32 S 32 24.837 32 16 z" fill="#F7F7F7" class="nc-icon-wrapper"></path></g></svg>