<svg xmlns="http://www.w3.org/2000/svg" width="32" height="32" viewBox="0 0 32 32"><title>documentation</title><g fill="#F7F7F7" class="nc-icon-wrapper"><path transform="matrix(1 0 0 -1 0 32)" d="M 29 31.5 H 21.7 C 19.4 31.5 17.6 30.7 16.3 29.3 C 16.2 29.1 16.1 29 16 28.8 C 15.9 28.9 15.8 29.1 15.6 29.2 C 14.3 30.6 12.5 31.4 10.2 31.4 H 3 C 1.6 31.5 0.5 30.4 0.5 29 V 7.5 C 0.5 6.1 1.6 5 3 5 H 8.3 C 10.1 5 11.8 4.8 13 4.4 C 13.6 4.2 14 3.9 14.2 3.7 C 14.4 3.5 14.5 3.2 14.5 2.9 C 14.5 2.1 15.2 1.4 16 1.4 S 17.5 2.1 17.5 2.9 C 17.5 3.3 17.6 3.5 17.8 3.7 C 18 3.9 18.4 4.2 19 4.4 C 20.2 4.9 21.9 5 23.7 5 H 29 C 30.4 5 31.5 6.1 31.5 7.5 V 29 C 31.5 30.4 30.4 31.5 29 31.5 z M 14.5 7 C 14.4 7.1 14.2 7.1 14.1 7.2 C 12.4 7.9 10.2 8 8.3 8 H 3.5 V 28.5 H 10.3 C 11.8 28.5 12.8 28 13.5 27.2 C 14.2 26.5 14.6 25.4 14.6 24.3 V 7 z M 28.5 8 H 23.7 C 21.8 8 19.6 7.8 17.9 7.2 C 17.8 7.1 17.6 7.1 17.5 7 V 24.3 C 17.5 25.4 17.9 26.5 18.6 27.2 C 19.3 27.9 20.3 28.5 21.8 28.5 H 28.6 V 8 z" fill="#F7F7F7" class="nc-icon-wrapper"></path></g></svg>