<svg xmlns="http://www.w3.org/2000/svg" width="32" height="32" viewBox="0 0 32 32"><title>domain</title><g fill="#F7F7F7" class="nc-icon-wrapper"><path transform="matrix(1 0 0 -1 0 32)" d="M 16 30 C 11.2 30 6.808 27.333 4.542 23.333 H 7.75 C 8.95 24.8 10.517 26 12.25 26.667 C 11.85 25.733 11.6 24.533 11.333 23.333 H 14.125 C 14.658 26 15.6 27.333 16 27.333 C 16.4 27.333 17.333 26 18 23.333 H 20.792 C 20.525 24.533 20.283 25.733 19.75 26.667 C 21.483 26 23.05 24.8 24.25 23.333 H 27.458 C 25.192 27.333 20.8 30 16 30 z M 0 20.667 L 1.75 12.667 H 3.583 L 4.792 17.333 L 5.875 12.667 H 7.583 L 9.333 20.667 H 7.458 L 6.667 15.583 L 5.458 20.667 H 3.875 L 2.792 15.583 L 1.875 20.667 H 0 z M 11.333 20.667 L 12.917 12.667 H 14.917 L 16 17.333 L 17.083 12.667 H 18.917 L 20.667 20.667 H 18.792 L 17.875 15.583 L 16.792 20.667 H 15.208 L 14.125 15.583 L 13.208 20.667 H 11.333 z M 22.667 20.667 L 24.417 12.667 H 26.25 L 27.333 17.333 L 28.417 12.667 H 30.25 L 32 20.667 H 30.125 L 29.208 15.583 L 28.125 20.667 H 26.542 L 25.458 15.583 L 24.542 20.667 H 22.667 z M 4.542 10 C 6.808 6 11.2 3.333 16 3.333 S 25.192 6 27.458 10 H 24.25 C 23.05 8.533 21.483 7.333 19.75 6.667 C 20.15 7.6 20.525 8.8 20.792 10 H 18 C 17.333 7.333 16.533 6 16 6 C 15.467 6 14.667 7.333 14 10 H 11.333 C 11.6 8.8 11.883 7.6 12.417 6.667 C 10.55 7.333 8.95 8.533 7.75 10 H 4.542 z" fill="#F7F7F7" class="nc-icon-wrapper"></path></g></svg>