<svg xmlns="http://www.w3.org/2000/svg" width="32" height="32" viewBox="0 0 32 32"><title>dots horz</title><g fill="#F7F7F7" class="nc-icon-wrapper"><path transform="matrix(1 0 0 -1 0 32)" d="M 16 19 C 17.8 19 19.2 17.6 19.2 15.8 C 19.2 14 17.8 12.6 16 12.6 C 14.2 12.6 12.8 14 12.8 15.8 C 12.8 17.6 14.2 19 16 19 z M 3.2 19 C 5 19 6.4 17.6 6.4 15.8 C 6.4 14 5 12.6 3.2 12.6 C 1.4 12.6 0 14 0 15.8 C 0 17.6 1.4 19 3.2 19 z M 28.8 19 C 30.6 19 32 17.6 32 15.8 C 32 14 30.6 12.6 28.8 12.6 C 27 12.6 25.6 14 25.6 15.8 C 25.6 17.6 27 19 28.8 19 z" fill="#F7F7F7" class="nc-icon-wrapper"></path></g></svg>