<svg xmlns="http://www.w3.org/2000/svg" width="32" height="32" viewBox="0 0 32 32"><title>double down</title><g fill="#212121" class="nc-icon-wrapper"><path transform="matrix(1 0 0 -1 0 32)" d="M 32 17.007 C 32 16.783 31.888 16.447 31.664 16.336 L 16.784 1.343 C 16.559 1.231 16.224 1.119 16 1.119 C 15.776 1.119 15.44 1.231 15.217 1.343 L 0.336 16.336 C 0.112 16.448 0 16.783 0 17.007 C 0 17.343 0.112 17.567 0.336 17.79 L 2.014 19.357 C 2.126 19.58 2.462 19.692 2.685 19.692 C 3.021 19.692 3.245 19.58 3.469 19.357 L 16 6.825 L 28.532 19.357 C 28.755 19.58 28.979 19.692 29.315 19.692 C 29.538 19.692 29.875 19.58 29.986 19.357 L 31.664 17.79 C 31.888 17.566 32 17.343 32 17.007 z M 32 29.315 C 32 28.979 31.888 28.755 31.664 28.531 L 16.784 13.651 C 16.559 13.427 16.224 13.315 16 13.315 C 15.776 13.315 15.44 13.427 15.217 13.65 L 0.336 28.531 C 0.112 28.755 0 28.98 0 29.315 C 0 29.538 0.112 29.875 0.336 29.986 L 2.014 31.664 C 2.126 31.888 2.462 32 2.685 32 C 3.021 32 3.245 31.888 3.469 31.664 L 16 19.021 L 28.532 31.664 C 28.755 31.888 28.979 32 29.315 32 C 29.538 32 29.875 31.888 29.986 31.664 L 31.664 29.986 C 31.888 29.874 32 29.538 32 29.315 z" fill="#212121" class="nc-icon-wrapper"></path></g></svg>