<svg xmlns="http://www.w3.org/2000/svg" width="32" height="32" viewBox="0 0 32 32"><title>double up</title><g fill="#212121" class="nc-icon-wrapper"><path transform="matrix(1 0 0 -1 0 32)" d="M 32 3.804 C 32 3.58 31.888 3.244 31.664 3.133 L 29.986 1.455 C 29.874 1.231 29.538 1.119 29.315 1.119 C 28.979 1.119 28.755 1.231 28.531 1.454 L 16 14.099 L 3.469 1.455 C 3.245 1.231 3.021 1.119 2.685 1.119 C 2.462 1.119 2.125 1.231 2.014 1.454 L 0.336 3.133 C 0.112 3.245 0 3.58 0 3.804 C 0 4.14 0.112 4.364 0.336 4.587 L 15.216 19.469 C 15.441 19.692 15.776 19.804 16 19.804 C 16.224 19.804 16.56 19.692 16.783 19.469 L 31.664 4.587 C 31.888 4.364 32 4.14 32 3.804 z M 32 16.112 C 32 15.776 31.888 15.552 31.664 15.329 L 29.986 13.762 C 29.874 13.538 29.538 13.427 29.315 13.427 C 28.979 13.427 28.755 13.538 28.531 13.762 L 16 26.294 L 3.469 13.762 C 3.245 13.538 3.021 13.427 2.685 13.427 C 2.462 13.427 2.125 13.538 2.014 13.762 L 0.336 15.33 C 0.112 15.552 0 15.776 0 16.112 C 0 16.336 0.112 16.672 0.336 16.783 L 15.216 31.776 C 15.442 31.888 15.777 32 16 32 C 16.224 32 16.56 31.888 16.783 31.776 L 31.664 16.783 C 31.888 16.671 32 16.336 32 16.112 z" fill="#212121" class="nc-icon-wrapper"></path></g></svg>