<svg xmlns="http://www.w3.org/2000/svg" width="32" height="32" viewBox="0 0 32 32"><title>double left</title><g fill="#F7F7F7" class="nc-icon-wrapper"><path transform="matrix(1 0 0 -1 0 32)" d="M 18.639 2.695 C 18.639 2.358 18.526 2.133 18.302 1.909 L 16.73 0.337 C 16.505 0.112 16.28 0 15.944 0 C 15.719 0 15.382 0.112 15.27 0.337 L 0.225 15.27 C 0.112 15.495 0 15.72 0 16.056 C 0 16.281 0.112 16.506 0.225 16.73 L 15.27 31.663 C 15.383 31.888 15.72 32 15.944 32 C 16.281 32 16.505 31.888 16.73 31.663 L 18.302 30.091 C 18.526 29.867 18.639 29.642 18.639 29.418 C 18.639 29.081 18.526 28.856 18.302 28.632 L 5.726 16.056 L 18.302 3.368 C 18.526 3.256 18.639 2.919 18.639 2.695 z M 30.989 2.695 C 30.989 2.358 30.877 2.133 30.653 1.909 L 28.968 0.337 C 28.856 0.112 28.519 0 28.295 0 C 27.958 0 27.733 0.112 27.509 0.337 L 12.575 15.27 C 12.351 15.495 12.239 15.72 12.239 16.056 C 12.239 16.281 12.351 16.506 12.575 16.73 L 27.51 31.663 C 27.734 31.888 27.959 32 28.296 32 C 28.520000000000014 32 28.857 31.888 28.969 31.663 L 30.654 30.091 C 30.878 29.867 30.991 29.642 30.991 29.418 C 30.991 29.081 30.878 28.856 30.654 28.632 L 17.965 16.056 L 30.653 3.368 C 30.877 3.256 30.99 2.919 30.99 2.695 z" fill="#F7F7F7" class="nc-icon-wrapper"></path></g></svg>