<svg xmlns="http://www.w3.org/2000/svg" width="32" height="32" viewBox="0 0 32 32"><title>double right</title><g fill="#F7F7F7" class="nc-icon-wrapper"><path transform="matrix(1 0 0 -1 0 32)" d="M 18.75 16.056 C 18.75 15.719 18.639 15.495 18.414 15.27 L 3.481 0.337 C 3.256 0.112 3.031 0 2.695 0 C 2.47 0 2.133 0.112 2.021 0.337 L 0.337 1.909 C 0.112 2.133 0 2.358 0 2.695 C 0 2.919 0.112 3.256 0.337 3.368 L 13.025 16.056 L 0.337 28.632 C 0.112 28.856 0 29.08 0 29.418 C 0 29.642 0.112 29.867 0.337 30.091 L 2.02 31.663 C 2.133 31.888 2.471 32 2.695 32 C 3.032 32 3.256 31.888 3.481 31.663 L 18.414 16.73 C 18.639 16.505 18.751 16.28 18.751 16.056 z M 30.99 16.056 C 30.99 15.719 30.877 15.495 30.765 15.27 L 15.719 0.337 C 15.607 0.112 15.27 0 15.046 0 C 14.709 0 14.484 0.112 14.26 0.337 L 12.688 1.909 C 12.463 2.133 12.351 2.358 12.351 2.695 C 12.351 2.919 12.463 3.256 12.688 3.368 L 25.263 16.056 L 12.688 28.632 C 12.463 28.856 12.351 29.081 12.351 29.418 C 12.351 29.642 12.463 29.867 12.688 30.091 L 14.26 31.663 C 14.484 31.888 14.709 32 15.046 32 C 15.27 32 15.607 31.888 15.719 31.663 L 30.765 16.73 C 30.877 16.505 30.989 16.28 30.989 16.056 z" fill="#F7F7F7" class="nc-icon-wrapper"></path></g></svg>