<svg width="32" height="32" viewBox="0 0 32 32" xmlns="http://www.w3.org/2000/svg"><g class="nc-icon-wrapper" fill="#444444"><path d="M18.639 29.305c0 .337-.113.562-.337.786l-1.572 1.572c-.225.225-.45.337-.786.337-.225 0-.562-.112-.674-.337L.225 16.73C.112 16.505 0 16.28 0 15.944c0-.225.112-.45.225-.674L15.27.337c.113-.225.45-.337.674-.337.337 0 .561.112.786.337l1.572 1.572c.224.224.337.449.337.673 0 .337-.113.562-.337.786L5.726 15.944l12.576 12.688c.224.112.337.449.337.673zm12.35 0c0 .337-.112.562-.336.786l-1.685 1.572c-.112.225-.449.337-.673.337-.337 0-.562-.112-.786-.337L12.575 16.73c-.224-.225-.336-.45-.336-.786 0-.225.112-.45.336-.674L27.51.337c.224-.225.449-.337.786-.337.224 0 .561.112.673.337l1.685 1.572c.224.224.337.449.337.673 0 .337-.113.562-.337.786L17.965 15.944l12.688 12.688c.224.112.337.449.337.673z"></path></g></svg>