<svg xmlns="http://www.w3.org/2000/svg" width="32" height="32" viewBox="0 0 32 32"><title>download outline small</title><g fill="#212121" class="nc-icon-wrapper"><path transform="matrix(1 0 0 -1 0 32)" d="M 17.2 4.4 V 24.3 H 14.6 V 4.5 L 8.4 9.5 L 6.8 7.5 L 16 0 L 25.2 7.5 L 23.6 9.5 z M 16 32 C 9.8 32 4.7 27.1 4.7 20.9 C 4.7 18.6 5.4 16.4 6.7 14.6 L 8.8 16.1 C 7.9 17.5 7.3 19.1 7.3 20.9 C 7.3 25.5 11.2 29.4 16.1 29.4 S 24.9 25.5 24.9 20.9 C 24.9 19.1 24.3 17.5 23.4 16.1 L 25.5 14.6 C 26.7 16.4 27.5 18.6 27.5 20.9 C 27.4 27.1 22.2 32 16 32 z" fill="#212121" class="nc-icon-wrapper"></path></g></svg>