<svg xmlns="http://www.w3.org/2000/svg" width="32" height="32" viewBox="0 0 32 32"><title>download outline</title><g fill="#212121" class="nc-icon-wrapper"><path transform="matrix(1 0 0 -1 0 32)" d="M 17.1 2.7 V 22.4 H 21.6 V 23.9 H 11 V 22.4 H 15.6 V 2.7 L 10.8 6.9 L 9.8 5.7 L 16.3 0 L 22.9 5.7 L 21.9 6.9 z M 16.3 32 C 10.1 32 5 27 5 20.8 C 5 17 6.9 13.6 9.9 11.6 C 10.2 11.4 10.7 11.5 11 11.8 C 11.2 12.1 11.1 12.6 10.8 12.9 C 8.3 14.7 6.6 17.6 6.6 20.8 C 6.6 26.1 11 30.5 16.4 30.5 S 26.2 26.2 26.2 20.8 C 26.2 17.5 24.5 14.6 22 12.9 C 21.7 12.7 21.600000000000012 12.2 21.8 11.8 C 22 11.5 22.5 11.4 22.900000000000013 11.6 C 25.8 13.6 27.8 17 27.8 20.8 C 27.7 27 22.6 32 16.3 32 z" fill="#212121" class="nc-icon-wrapper"></path></g></svg>