<svg xmlns="http://www.w3.org/2000/svg" width="32" height="32" viewBox="0 0 32 32"><title>edit outline large</title><g fill="#212121" class="nc-icon-wrapper"><g fill="#212121"><path transform="scale(1,-1) translate(0,-32)" d="M 24.064 31.777 A 0.762 0.762 0 0 0 25.141 31.777 L 31.777 25.141 A 0.762 0.762 0 0 0 31.777 24.064 L 11.037 3.32 A 0.763 0.763 0 0 0 10.728 3.132 L 0.994 0.036 A 0.762 0.762 0 0 0 0.037 0.993 L 3.137 10.731 A 0.762 0.762 0 0 0 3.324 11.039 z M 20.41 25.97 L 26.141 20.583 L 30.16 24.603 L 24.601 30.161 z M 25.063 19.505 L 19.333 24.892 L 4.938 10.5 L 10.497 4.937 z M 9.073 4.205 L 4.207 9.075 L 1.934 1.935 z"></path></g></g></svg>