<svg xmlns="http://www.w3.org/2000/svg" width="32" height="32" viewBox="0 0 32 32"><title>edit outline small</title><g fill="#212121" class="nc-icon-wrapper"><path transform="matrix(1 0 0 -1 0 32)" d="M 31.5 25.3 L 25.3 31.5 C 24.6 32.2 23.5 32.2 22.8 31.5 L 3.4 12.1 C 3.2 11.9 3.1 11.7 3 11.4 L 0.1 2.3 C -0.1 1.7 0.1 1 0.5 0.5 C 1 0 1.7 -0.1 2.3 0.1 L 11.4 3 C 11.7 3.1 11.9 3.2 12.1 3.4 L 31.5 22.8 C 32.2 23.5 32.2 24.6 31.5 25.3 z M 4.4 4.4 L 5.4 7.5 L 7.5 5.4 L 4.4 4.4 z M 10.9 7.1 L 7.2 10.8 L 19.2 22.8 L 23 19.2 L 10.9 7.1 z M 25.5 21.7 L 21.7 25.3 L 24 27.8 L 27.8 24 L 25.5 21.7 z" fill="#212121" class="nc-icon-wrapper"></path></g></svg>