<svg xmlns="http://www.w3.org/2000/svg" width="32" height="32" viewBox="0 0 32 32"><title>edit outline</title><g fill="#F7F7F7" class="nc-icon-wrapper"><path transform="matrix(1 0 0 -1 0 32)" d="M 23.496 31.646 A 1.208 1.208 0 0 0 25.205 31.646 L 31.646 25.205 A 1.208 1.208 0 0 0 31.646 23.496 L 11.513 3.361 A 1.207 1.207 0 0 0 11.025 3.064 L 1.575 0.057 A 1.208 1.208 0 0 0 0.057 1.575 L 3.066 11.027 C 3.124 11.211 3.226 11.379 3.363 11.515 z M 20.955 25.69 L 25.835 21.103 L 29.084 24.351 L 24.35 29.085 z M 24.126 19.393 L 19.246 23.98 L 5.926 10.662 L 10.659 5.924 z M 8.402 4.764 L 4.766 8.403 L 3.068 3.067 z" fill="#F7F7F7" class="nc-icon-wrapper"></path></g></svg>