<svg xmlns="http://www.w3.org/2000/svg" width="32" height="32" viewBox="0 0 32 32"><title>edit app</title><g fill="#212121" class="nc-icon-wrapper"><path transform="matrix(1 0 0 -1 0 32)" d="M 27.529 17.69200000000001 A 0.669 0.669 0 0 0 27.999 17.88700000000001 V 25.333000000000013 H 0 V 12.667000000000012 A 3.336 3.336 0 0 1 3.333 9.333000000000013 H 19.172 L 27.529 17.693000000000012 z M 28 28.667000000000037 A 3.337 3.337 0 0 1 24.666 32.000000000000036 H 3.333 A 3.336 3.336 0 0 1 0 28.667000000000037 V 26.667000000000037 H 28 V 28.667000000000037 z M 4.667 28.000000000000025 A 0.666 0.666 0 1 0 4.665 29.332000000000036 A 0.666 0.666 0 0 0 4.667 28.000000000000025 z M 7.333 28.000000000000025 A 0.666 0.666 0 1 0 7.332 29.332000000000036 A 0.666 0.666 0 0 0 7.333 28.000000000000025 z M 10 28.000000000000025 A 0.666 0.666 0 1 0 9.999 29.332000000000036 A 0.666 0.666 0 0 0 9.999 28.000000000000025 z M 17.99699999999985 6.274 L 24.38999999999985 12.666 L 28.66499999999985 8.391 L 22.27299999999985 1.999 L 17.99699999999985 6.274 z M 31.80499999999985 12.472 C 32.06499999999985 12.211 32.06499999999985 11.788 31.80499999999985 11.528 L 29.60899999999985 9.333 L 25.33299999999984 13.609 L 27.52899999999985 15.805 C 27.78899999999985 16.065000000000012 28.21199999999985 16.065000000000012 28.47199999999985 15.805 L 31.80499999999985 12.472 z M 21.12799999999985 1.244 L 16.82899999999985 0.024 A 0.661 0.661 0 0 0 16.18499999999985 0.187 A 0.654 0.654 0 0 0 16.02399999999985 0.832 L 17.23899999999985 5.133 L 21.12799999999985 1.244 z" fill="#212121" class="nc-icon-wrapper"></path></g></svg>