<svg xmlns="http://www.w3.org/2000/svg" width="32" height="32" viewBox="0 0 32 32"><title>email</title><g fill="#212121" class="nc-icon-wrapper"><path transform="matrix(1 0 0 -1 0 32)" d="M 29.8 17.6 C 29.8 6.867 22.949 7.3 22.078 7.3 C 21.093 7.3 20.243 7.514 19.526 7.936 C 18.81 8.36 18.269 8.968 17.901 9.758 C 17.328 8.957 16.661 8.355 15.898 7.954 A 5.24 5.24 0 0 0 13.414 7.352 C 12.579 7.352 11.83 7.534 11.173 7.902 A 4.608 4.608 0 0 0 9.53 9.46 C 9.095 10.129 8.785 10.939 8.602 11.883 C 8.42 12.83 8.385 13.886 8.5 15.053 C 8.661 16.521 8.978 17.847000000000012 9.455 19.033000000000012 C 9.929 20.219000000000012 10.519 21.23 11.223 22.067 C 11.929 22.902 12.73 23.547 13.628 24.001000000000012 A 6.286 6.286 0 0 0 16.49 24.679 C 19.732 24.679 21.423 23.046 21.767 22.806 L 20.89 12.871 C 20.821 12.299 20.565 10.07 22.695 10.07 C 23.257 10.07 26.599 10.801 26.599 17.601 C 26.599 17.814 28.066 28.801 16.079 28.801 C 6.234 28.8 4.2 19.366 4.2 16 C 4.2 2.58 12.7 3.2 15.4 3.2 C 18.634 3.2 20.285 3.882 20.651 4.053 L 21.366 1.133 C 20.965 0.869 19.366 0 15.4 0 C 10.5 0 1 0.234 1 16 C 1 18.18 2.2 32 16.149 32 C 29.499 32 29.8 19.9 29.8 17.6 z M 12.315 15.053 C 12.189 13.541 12.322 12.392 12.71 11.606 C 13.1 10.822 13.731 10.43 14.602 10.43 C 16.366 10.43 17.248 12.728 17.454 13.3 L 18.176 21.430000000000014 C 17.97 21.500000000000014 17.053 21.654 16.802 21.654 C 15.485 21.654 14.461 21.093 13.732 19.970000000000013 C 13.006 18.845000000000013 12.532 17.206000000000014 12.315 15.053 z" fill="#212121" class="nc-icon-wrapper"></path></g></svg>