<svg xmlns="http://www.w3.org/2000/svg" width="32" height="32" viewBox="0 0 32 32"><title>events outline</title><g fill="#F7F7F7" class="nc-icon-wrapper"><path transform="matrix(1 0 0 -1 0 32)" d="M 16.726 32 V 26.463 H 19.495 V 24.963 H 16.726 V 7.084 H 19.495 V 5.584 H 16.726 V 0.048 H 15.226 V 15.274 H 12.458 V 16.774 H 15.226 V 32 H 16.726 z M 22.147 30.616 H 31.952 V 20.811 H 22.147 V 30.616 z M 23.647 29.116 V 22.31 H 30.452 V 29.116 H 23.647 z M 22.147 11.237 H 31.952 V 1.432 H 22.147 V 11.237 z M 23.647 9.737 V 2.932 H 30.452 V 9.737 H 23.647 z M 9.805 11.121 H 0 V 20.926 H 9.805 V 11.121 z M 8.305 12.621 V 19.426 H 1.5 V 12.621 H 8.305 z" fill="#F7F7F7" class="nc-icon-wrapper"></path></g></svg>