<svg xmlns="http://www.w3.org/2000/svg" width="32" height="32" viewBox="0 0 32 32"><title>events outline small</title><g fill="#F7F7F7" class="nc-icon-wrapper"><path transform="matrix(1 0 0 -1 0 32)" d="M 17.191 32 V 26.615 H 19.884 V 24.232 H 17.19 V 7.768 H 19.883 V 5.385 H 17.19 V 0 H 14.81 V 14.809 H 12.117 V 17.19 H 14.81 V 32 H 17.192 z M 21.54 30.654 H 32 V 20.194 H 21.54 V 30.654 z M 23.923 28.271 V 22.576 H 29.617 V 28.271 H 23.923 z M 21.54 11.807 H 32 V 1.347 H 21.54 V 11.807 z M 23.923 9.424 V 3.729 H 29.617 V 9.424 H 23.923 z M 10.46 10.77 H 0 V 21.23 H 10.46 V 10.77 z M 8.077 13.153 V 18.847 H 2.383 V 13.153 H 8.077 z" fill="#F7F7F7" class="nc-icon-wrapper"></path></g></svg>