<svg xmlns="http://www.w3.org/2000/svg" width="32" height="32" viewBox="0 0 32 32"><title>expand</title><g fill="#212121" class="nc-icon-wrapper"><path transform="matrix(1 0 0 -1 0 32)" d="M 17.8 20.6 L 24.2 27 L 19.2 32 H 32 V 19.2 L 27 24.2 L 20.6 17.8 L 17.8 20.6 z M 17.8 11.4 L 20.6 14.2 L 27 7.8 L 32 12.8 V 0 H 19.2 L 24.2 5 L 17.8 11.4 z M 14.2 11.4 L 7.8 5 L 12.8 0 H 0 V 12.8 L 5 7.8 L 11.4 14.2 L 14.2 11.4 z M 14.2 20.6 L 11.4 17.8 L 5 24.2 L 0 19.2 V 32 H 12.8 L 7.8 27 L 14.2 20.6 z" fill="#212121" class="nc-icon-wrapper"></path></g></svg>