<svg xmlns="http://www.w3.org/2000/svg" width="32" height="32" viewBox="0 0 32 32"><title>field list</title><g fill="#212121" class="nc-icon-wrapper"><g fill="#212121"><path transform="scale(1,-1) translate(0,-32)" d="M 32 6.687 C 32 6.25 31.75 6 31.312 6 H 7.312 C 6.937 6 6.687 6.25 6.687 6.688 V 9.313 C 6.687 9.75 6.937 10 7.312 10 H 31.312 C 31.75 10 32 9.75 32 9.312 V 6.687 z M 4 6.687 C 4 6.25 3.75 6 3.312 6 H 0.688 C 0.25 6 0 6.25 0 6.688 V 9.313 C 0 9.75 0.25 10 0.688 10 H 3.313 C 3.75 10 4 9.75 4 9.312 V 6.687 z M 32 14.687 C 32 14.25 31.75 14 31.312 14 H 7.312 C 6.937 14 6.687 14.25 6.687 14.688 V 17.313 C 6.687 17.75 6.937 18 7.312 18 H 31.312 C 31.75 18 32 17.75 32 17.312 V 14.688 z M 4 14.687 C 4 14.25 3.75 14 3.312 14 H 0.688 C 0.25 14 0 14.25 0 14.688 V 17.313 C 0 17.75 0.25 18 0.688 18 H 3.313 C 3.75 18 4 17.75 4 17.312 V 14.688 z M 32 22.687 C 32 22.25 31.75 22 31.312 22 H 7.312 C 6.937 22 6.687 22.25 6.687 22.688 V 25.312 C 6.687 25.75 6.937 26 7.312 26 H 31.312 C 31.75 26 32 25.75 32 25.312 V 22.687 z M 4 22.687 C 4 22.25 3.75 22 3.312 22 H 0.688 C 0.25 22 0 22.25 0 22.688 V 25.312 C 0 25.75 0.25 26 0.688 26 H 3.313 C 3.75 26 4 25.75 4 25.312 V 22.687 z"></path></g></g></svg>