<svg width="32" height="32" viewBox="0 0 32 32" xmlns="http://www.w3.org/2000/svg"><g class="nc-icon-wrapper" fill="#444444"><path d="M30.346 0H1.015s-.034 1.556 0 4l.302 3.437.25.225h1.44l.228-.225c.03-.842.1-.326.207-1.122.09-.72.205-1.2.343-1.44.09-.135.258-.247.502-.338C4.743 4.372 6.288 4 9.015 4h4c.045.465 0 1.625 0 5.333v13.332c0 3.573-.716 5.237-.915 6.318-.076.436-.335.713-.776.833-.23.06-1.12.135-2.673.225l-.23.226v1.53l.207.203c1.43-.09 3.793-.003 7.053-.003 3.184 0 5.513-.088 7.02.003l.229-.225v-1.508l-.228-.226c-1.554-.09-2.446-.165-2.674-.225-.44-.12-.7-.397-.777-.833-.197-1.081-.904-2.745-.904-6.318V9.333c0-3.648-.03-4.808 0-5.333h4c2.558 0 3.705.312 4.01.357.792.105 1.28.457 1.463 1.059.09.329.175.122.25 2.043l.252.203h1.439l.23-.225L30.345 4c.032-2.51 0-4 0-4z"></path></g></svg>