<svg width="32" height="32" viewBox="0 0 32 32" xmlns="http://www.w3.org/2000/svg"><g class="nc-icon-wrapper" fill="#444444"><g transform="translate(1217 517)"><path d="M-1205.904-497.368l3.085 3.032-4.581 1.562 1.496-4.594z"></path><path d="M-1195.105-501.902a2.115 2.115 0 0 0 0-3.03 2.21 2.21 0 0 0-3.086 0l-5.657 5.556 3.086 3.031 5.657-5.557z"></path><path d="M-1187.91-514.143h-4.363V-517h-2.909v8.571h2.91v-2.857h4.363v21.429h-26.182v-21.429h2.91v-2.857h-2.91c-1.606 0-2.909 1.28-2.909 2.857v21.429c0 1.577 1.303 2.857 2.91 2.857h26.18c1.607 0 2.91-1.28 2.91-2.857v-21.429c0-1.577-1.303-2.857-2.91-2.857z"></path><path d="M-1196.629-514.142h-10.182V-517h-2.909v8.571h2.909v-2.857h10.182v-2.856z"></path></g></g></svg>