<svg xmlns="http://www.w3.org/2000/svg" width="32" height="32" viewBox="0 0 32 32"><title>field html</title><g fill="#212121" class="nc-icon-wrapper"><path transform="matrix(1 0 0 -1 0 32)" d="M 0 9.666 A 2.67 2.67 0 0 1 2.667 6.999 H 14.667 V 4.333 H 9.333 V 1.666 H 22.667 V 4.333 H 17.333 V 6.999 H 29.333 A 2.67 2.67 0 0 1 32 9.666 V 10.999 H 0 V 9.666 z M 32 17.667 V 28.333 A 2.67 2.67 0 0 1 29.333 31 H 2.667 A 2.67 2.67 0 0 1 0 28.333 V 25.668 H 2.667 V 21.668 H 5.333 V 25.668 H 16 V 24.335 C 16 25.069 16.596 25.668 17.333 25.668 C 18.093 25.668 17.777 25.608 20 22.378 C 22.223 25.608 21.907 25.668 22.667 25.668 C 23.404 25.668 24 25.069 24 24.335 V 15 H 21.333 V 20.291 L 20.943 19.706 C 20.733 19.388 20.38 19.199 20 19.199 C 19.621 19.199 19.267 19.389 19.057 19.704 L 18.667 20.29 V 15 H 16 V 23 H 13.333 V 15 H 10.667 V 23 H 8 V 15 H 5.333 V 19 H 2.667 V 15 H 0 V 12.333 H 32 V 15 H 25.333 V 25.667 H 28 V 17.667 H 32 z" fill="#212121" class="nc-icon-wrapper"></path></g></svg>