<svg xmlns="http://www.w3.org/2000/svg" width="32" height="32" viewBox="0 0 32 32"><title>field created date</title><g fill="#F7F7F7" class="nc-icon-wrapper"><path transform="matrix(1 0 0 -1 0 32)" d="M 24 16 L 26.285 10.285 H 32 L 27.056 6.112 L 29.714 0 L 24 3.78 L 18.285 0 L 20.944 6.112 L 16 10.285 H 21.714 L 24 16 z M 14.666999999999913 8 H 2.6669999999999123 V 21.333 H 23.998999999999914 V 17.333 H 26.666999999999913 V 25.333 A 2.67 2.67 0 0 1 24 28 H 22.667 V 32 H 20 V 25.333 H 18.667 V 28 H 9.333 V 32 H 6.667 V 25.333 H 5.333 V 28 H 2.667 A 2.67 2.67 0 0 1 0 25.333 V 8 A 2.67 2.67 0 0 1 2.667 5.333 H 14.667 V 8 z" fill="#F7F7F7" class="nc-icon-wrapper"></path></g></svg>