<svg xmlns="http://www.w3.org/2000/svg" width="32" height="32" viewBox="0 0 32 32"><title>field text</title><g fill="#212121" class="nc-icon-wrapper"><g fill="#212121"><path transform="scale(1,-1) translate(0,-32)" d="M 30.346 32 H 1.015 S 0.981 30.444 1.015 28 L 1.317 24.563 L 1.567 24.338 H 3.007 L 3.235 24.563 C 3.265 25.405 3.335 24.889 3.442 25.685 C 3.532 26.405 3.647 26.885 3.785 27.125 C 3.875 27.26 4.043 27.372 4.287 27.463 C 4.743 27.628 6.288 28 9.015 28 H 13.015 C 13.06 27.535 13.015 26.375 13.015 22.667 V 9.335 C 13.015 5.762 12.299 4.098 12.1 3.017 C 12.024 2.581 11.765 2.304 11.324 2.184 C 11.094 2.124 10.204 2.049 8.651 1.959 L 8.421 1.733 V 0.203 L 8.628 0 C 10.058 0.09 12.421 0.003 15.681 0.003 C 18.865 0.003 21.194 0.091 22.701 0 L 22.93 0.225 V 1.733 L 22.702 1.959 C 21.148 2.049 20.256 2.124 20.028 2.184 C 19.588 2.304 19.328 2.581 19.251 3.017 C 19.054 4.098 18.347 5.762 18.347 9.335 V 22.667 C 18.347 26.315 18.317 27.475 18.347 28 H 22.347 C 24.905 28 26.052 27.688 26.357 27.643 C 27.149 27.538 27.637 27.186 27.82 26.584 C 27.91 26.255 27.995 26.462 28.07 24.541 L 28.322 24.338 H 29.761 L 29.991 24.563 L 30.345 28 C 30.377 30.51 30.345 32 30.345 32 z"></path></g></g></svg>