<svg xmlns="http://www.w3.org/2000/svg" width="32" height="32" viewBox="0 0 32 32"><title>field json</title><g fill="#F7F7F7" class="nc-icon-wrapper"><path transform="matrix(1 0 0 -1 0 32)" d="M 17.5 17.6 C 17.3 17.3 17.2 16.7 17.2 16 V 14.5 C 17.2 13.8 17.3 13.2 17.5 12.9 C 17.7 12.6 18.1 12.4 18.5 12.4 S 19.3 12.6 19.5 12.9 C 19.7 13.2 19.8 13.8 19.8 14.5 V 15.9 C 19.8 16.6 19.7 17.2 19.5 17.6 C 19.3 18 19 18.1 18.5 18.1 C 18 18.2 17.7 18 17.5 17.6 z M 28.8 22.4 V 28.8 C 28.8 29.6 28.5 30.6 27.8 31 C 27.3 31.6 26.3 32 25.6 32 H 6.4 C 5.6 32 4.6 31.7 4.2 31 C 3.6 30.5 3.2 29.5 3.2 28.8 V 22.4 C 1.5 22.4 0 20.9 0 19.2 V 11.2 C 0 9.4 1.5 8 3.2 8 V 3.2 C 3.2 2.4 3.5 1.4 4.2 1 C 4.6 0.3 5.6 0 6.4 0 H 25.6 C 26.4 0 27.4 0.3 27.8 0.9 C 28.4 1.5 28.8 2.4 28.8 3.1 V 8 C 30.6 8 32 9.4 32 11.2 V 19.2 C 32 20.9 30.6 22.4 28.8 22.4 z M 6.4 28.8 H 25.6 V 22.4 H 6.4 V 28.8 z M 21.5 16 V 14.6 C 21.5 13.5 21.2 12.6 20.7 12 C 20.2 11.4 19.4 11.1 18.5 11.1 C 17.6 11.1 16.8 11.4 16.3 12 C 15.8 12.6 15.5 13.5 15.5 14.6 V 16 C 15.5 17.1 15.8 18 16.3 18.7 C 16.8 19.3 17.6 19.7 18.5 19.7 C 19.4 19.7 20.2 19.4 20.7 18.8 C 21.2 18 21.5 17.1 21.5 16 z M 11.6 16.6 C 11.8 16.4 12.1 16.2 12.6 16 C 13.4 15.7 14 15.3 14.4 14.9 C 14.8 14.5 15 13.9 15 13.3 C 15 12.6 14.8 12 14.3 11.6 C 13.8 11.2 13.2 11 12.4 11 C 11.9 11 11.4 11.1 10.9 11.3 C 10.5 11.5 10.1 11.8 9.9 12.2 C 9.7 12.6 9.5 13.1 9.5 13.7 H 11.2 C 11.2 13.2 11.3 12.9 11.5 12.7 C 11.7 12.5 12 12.4 12.4 12.4 C 13 12.4 13.3 12.7 13.3 13.3 C 13.3 13.6 13.2 13.9 13 14.1 C 12.8 14.3 12.5 14.5 12.1 14.6 C 11.3 14.9 10.7 15.3 10.3 15.7 C 9.9 16.1 9.8 16.6 9.8 17.2 C 9.8 17.9 10 18.5 10.5 18.9 C 11 19.3 11.6 19.5 12.4 19.5 C 12.9 19.5 13.4 19.4 13.8 19.2 C 14.2 19 14.5 18.7 14.7 18.3 C 14.9 17.899999999999988 15 17.5 15 17 H 13.3 C 13.3 17.399999999999988 13.2 17.69999999999999 13 17.899999999999988 C 12.8 18.1 12.6 18.2 12.3 18.2 C 12 18.2 11.8 18.1 11.6 17.899999999999988 C 11.4 17.7 11.4 17.5 11.4 17.2 C 11.3 17 11.4 16.8 11.6 16.6 z M 6.3 11 C 5.5 11 4.9 11.2 4.5 11.7 C 4.1 12.2 3.9 12.8 3.9 13.6 H 5.6 C 5.6 12.8 5.8 12.4 6.3 12.4 C 6.8 12.4 7 12.9 7 13.8 V 19.5 H 8.7 V 13.8 C 8.7 13 8.5 12.3 8 11.9 C 7.6 11.3 7 11 6.3 11 z M 25.6 3.2 H 6.4 V 8 H 25.6 V 3.2 z M 28.1 11.1 H 26.4 L 24 16.6 V 11.2 H 22.3 V 19.5 H 24 L 26.5 14 V 19.5 H 28.2 V 11.1 z" fill="#F7F7F7" class="nc-icon-wrapper"></path></g></svg>