<svg xmlns="http://www.w3.org/2000/svg" width="32" height="32" viewBox="0 0 32 32"><title>field number</title><g fill="#212121" class="nc-icon-wrapper"><g fill="#212121"><path transform="scale(1,-1) translate(0,-32)" d="M 28.8 22.4 V 28.8 C 28.8 29.6 28.5 30.6 27.8 31 C 27.3 31.6 26.4 32 25.6 32 H 6.4 C 5.6 32 4.6 31.7 4.2 31 C 3.6 30.5 3.2 29.5 3.2 28.8 V 22.4 C 1.4 22.4 0 21 0 19.2 V 11.2 C 0 9.4 1.4 8 3.2 8 V 3.2 C 3.2 2.4 3.5 1.4 4.2 1 C 4.7 0.4 5.6 0 6.4 0 H 25.6 C 26.4 0 27.4 0.3 27.8 1 C 28.4 1.6 28.8 2.5 28.8 3.2 V 8 C 30.6 8 32 9.4 32 11.2 V 19.2 C 32 21 30.6 22.4 28.8 22.4 z M 6.4 28.8 H 25.6 V 22.4 H 6.4 V 28.8 z M 19.2 14.3 V 12.8 H 17.9 L 17.6 11 H 16 L 16.3 12.8 H 14.6 L 14.3 11 H 12.7 L 13 12.8 H 12.1 V 14.3 H 13.3 L 13.6 16.1 H 12.5 V 17.6 H 13.8 L 14.1 19.4 H 15.7 L 15.4 17.6 H 17.1 L 17.4 19.4 H 19 L 18.7 17.6 H 19.6 V 16.1 H 18.4 L 18.1 14.3 H 19.2 z M 6 12.8 L 5.6 11 H 4.1 L 4.4 12.8 H 3.5 V 14.3 H 4.7 L 5 16.1 H 3.9 V 17.6 H 5.2 L 5.5 19.4 H 7.1 L 6.8 17.6 H 8.5 L 8.8 19.4 H 10.4 L 10.1 17.6 H 11 V 16.1 H 9.8 L 9.5 14.3 H 10.6 V 12.8 H 9.3 L 9 11 H 7.4 L 7.7 12.8 H 6 z M 25.6 3.2 H 6.4 V 8 H 25.6 V 3.2 z M 28.3 16.1 H 27.1 L 26.8 14.3 H 27.9 V 12.8 H 26.6 L 26.2 11 H 24.6 L 24.9 12.8 H 23.2 L 22.9 11 H 21.3 L 21.6 12.8 H 20.7 V 14.3 H 21.9 L 22.2 16.100000000000012 H 21.1 V 17.600000000000012 H 22.4 L 22.7 19.400000000000013 H 24.3 L 24 17.600000000000012 H 25.7 L 26 19.400000000000013 H 27.600000000000012 L 27.3 17.600000000000012 H 28.2 V 16.100000000000012 z M 14.8 14.3 H 16.6 L 16.9 16.2 H 15.1 L 14.8 14.3 z M 23.5 14.3 H 25.3 L 25.6 16.2 H 23.8 L 23.5 14.3 z M 8.3 16.2 H 6.5 L 6.2 14.3 H 8 L 8.3 16.2 z"></path></g></g></svg>