<svg xmlns="http://www.w3.org/2000/svg" width="32" height="32" viewBox="0 0 32 32"><title>field edited date</title><g fill="#F7F7F7" class="nc-icon-wrapper"><path transform="matrix(1 0 0 -1 0 32)" d="M 11.096 12.368 L 14.181 9.336 L 9.6 7.774 L 11.096 12.368 z M 21.89499999999999 16.901999999999987 A 2.115 2.115 0 0 1 21.89499999999999 19.931999999999988 A 2.21 2.21 0 0 1 18.808999999999987 19.931999999999988 L 13.151999999999987 14.375999999999987 L 16.23799999999999 11.344999999999988 L 21.89499999999999 16.901999999999987 z M 29.089999999999925 29.143000000000036 H 24.726999999999926 V 32 H 21.817999999999923 V 23.429 H 24.727999999999923 V 26.286 H 29.090999999999926 V 4.857 H 2.908999999999925 V 26.286 H 5.818999999999925 V 29.143 H 2.908999999999925 C 1.302999999999925 29.143 -7.5e-14 27.863 -7.5e-14 26.286 V 4.857 C -7.5e-14 3.28 1.302999999999925 2 2.909999999999925 2 H 29.089999999999925 C 30.696999999999925 2 31.999999999999925 3.28 31.999999999999925 4.857 V 26.286 C 31.999999999999925 27.863 30.696999999999925 29.143 29.089999999999925 29.143 z M 20.3710000000001 29.14200000000005 H 10.1890000000001 V 32 H 7.2800000000001 V 23.429 H 10.1890000000001 V 26.286 H 20.3710000000001 V 29.142 z" fill="#F7F7F7" class="nc-icon-wrapper"></path></g></svg>