<svg xmlns="http://www.w3.org/2000/svg" width="32" height="32" viewBox="0 0 32 32"><title>field created by</title><g fill="#F7F7F7" class="nc-icon-wrapper"><path transform="matrix(1 0 0 -1 0 32)" d="M 24 32 L 26.285 26.285 H 32 L 27.056 22.112 L 29.716 16 L 24 19.78 L 18.285 16 L 20.944 22.112 L 16 26.285 H 21.715 L 24 32 z M 10.661000000000062 10.66099999999995 A 5.34 5.34 0 0 1 15.995000000000063 15.99499999999995 A 5.34 5.34 0 0 1 10.661000000000062 21.32799999999995 A 5.34 5.34 0 0 1 5.3280000000000625 15.99499999999995 A 5.34 5.34 0 0 1 10.661000000000062 10.66099999999995 z M 10.667000000000062 9.32799999999995 C 4.385000000000063 9.32799999999995 6.25e-14 6.03799999999995 6.25e-14 1.32799999999995 V -0.00500000000005 H 21.333000000000062 V 1.32799999999995 C 21.333000000000062 6.03799999999995 16.94800000000006 9.32799999999995 10.66700000000005 9.32799999999995 z" fill="#F7F7F7" class="nc-icon-wrapper"></path></g></svg>