<svg xmlns="http://www.w3.org/2000/svg" width="32" height="32" viewBox="0 0 32 32"><title>field textarea</title><g fill="#212121" class="nc-icon-wrapper"><path transform="matrix(1 0 0 -1 0 32)" d="M 2.15 32 H 29.85 C 31.038 32 32 31.042 32 29.85 V 2.15 C 32 0.963 31.042 0 29.85 0 H 2.15 A 2.147 2.147 0 0 0 0 2.15 V 29.85 C 0 31.038 0.958 32 2.15 32 z M 15.573 26.24 H 13.867 A 3.65 3.65 0 0 1 11.734 25.566 A 3.648 3.648 0 0 1 9.6 26.239 H 7.894 V 24.086 H 9.6 C 10.16 24.086 10.56 23.761 10.56 23.417 V 14.981 C 10.56 14.801 10.45 14.627 10.267 14.501 C 10.099 14.386 9.867 14.312 9.6 14.312 H 7.894 V 12.159 H 9.6 C 10.39 12.159 11.142 12.403 11.733 12.833 A 3.64 3.64 0 0 1 13.866 12.159 H 15.572 V 14.313 H 13.866 C 13.304 14.313 12.906 14.637 12.906 14.981 V 23.417 C 12.906 23.761 13.305 24.086 13.866 24.086 H 15.572 V 26.239 z" fill="#212121" class="nc-icon-wrapper"></path></g></svg>