<svg xmlns="http://www.w3.org/2000/svg" width="32" height="32" viewBox="0 0 32 32"><title>field singleline</title><g fill="#F7F7F7" class="nc-icon-wrapper"><path transform="matrix(1 0 0 -1 0 32)" d="M 17.243 24.733 C 17.192 26.143 16.028 27.255 14.578 27.255 H 12.8 V 29 H 14.578 A 4.48 4.48 0 0 0 18.133 27.227 A 4.481 4.481 0 0 0 21.69 29 H 23.468 V 27.255 H 21.69 C 20.24 27.255 19.076 26.143 19.025 24.733 H 30.4 A 1.6 1.6 0 0 0 32 23.133 V 9.266 A 1.6 1.6 0 0 0 30.4 7.666 H 19.024 C 19.076 6.256 20.239 5.146 21.689 5.146 H 23.467 V 3.4 H 21.689 A 4.48 4.48 0 0 0 18.133 5.173 A 4.48 4.48 0 0 0 14.578 3.4 H 12.8 V 5.145 H 14.578 C 16.028 5.145 17.191 6.255 17.243 7.666 H 1.6 A 1.6 1.6 0 0 0 0 9.266 V 23.133 A 1.6 1.6 0 0 0 1.6 24.733 H 17.243 z M 17.243 24.733 L 17.245 24.636 V 7.764 L 17.243 7.666 H 19.024 A 2.635 2.635 0 0 0 19.022 7.764 V 24.636 C 19.022 24.669 19.022 24.701 19.024 24.733 H 17.243 z" fill="#F7F7F7" class="nc-icon-wrapper"></path></g></svg>