<svg xmlns="http://www.w3.org/2000/svg" width="32" height="32" viewBox="0 0 32 32"><title>field lists</title><g fill="#F7F7F7" class="nc-icon-wrapper"><path transform="matrix(1 0 0 -1 0 32)" d="M 10.001 23.998 H 22 V 21.998 H 10 V 23.998 z M 21.999 18 H 10 V 16 H 22 V 18 z M 10.001 12 H 14.001 V 10.001 H 10 V 12.001 z M 4.003 31.997 H 27.997 A 1.89 1.89 0 0 0 29.997 29.997 V 10.001 L 19.999 0.003 H 4.003 A 1.89 1.89 0 0 0 2.003 2.003 V 29.997 A 1.89 1.89 0 0 0 4.003 31.997 z M 26.993 29 H 5 V 3.005 H 18 V 12 H 26.995 V 29 z" fill="#F7F7F7" class="nc-icon-wrapper"></path></g></svg>