<svg width="32" height="32" viewBox="0 0 32 32" xmlns="http://www.w3.org/2000/svg"><g class="nc-icon-wrapper" fill="#444444"><g transform="translate(1217 709)"><path d="M-1187.909-706.09h-4.364V-709h-2.909v8.727h2.91v-2.909h4.363v21.818h-26.182v-21.818h2.91v-2.909h-2.91a2.91 2.91 0 0 0-2.909 2.91v21.817a2.91 2.91 0 0 0 2.91 2.91h26.181a2.91 2.91 0 0 0 2.909-2.91v-21.818a2.91 2.91 0 0 0-2.909-2.909z"></path><path d="M-1207.108-703.182h10.18v-2.908h-10.18V-709h-2.91v8.727h2.91v-2.91z"></path><path d="M-1212.34-697.358h5.818v5.818h-5.818v-5.818z"></path><path d="M-1205.358-697.358h5.818v5.818h-5.818v-5.818z"></path><path d="M-1198.376-697.358h5.818v5.818h-5.818v-5.818z"></path><path d="M-1212.34-690.376h5.818v5.818h-5.818v-5.818z"></path><path d="M-1205.358-690.376h5.818v5.818h-5.818v-5.818z"></path></g></g></svg>