<svg width="32" height="32" viewBox="0 0 32 32" xmlns="http://www.w3.org/2000/svg"><g class="nc-icon-wrapper" fill="#444444"><g transform="translate(1217 421)"><path d="M-1205.939-399.694c-6.513 0-11.061 3.411-11.061 8.296v1.383h22.123v-1.383c0-4.885-4.55-8.296-11.062-8.296zm.077-12.437c-.026 0-.054-.008-.082-.008a5.537 5.537 0 0 0-5.53 5.53c0 3.05 2.48 5.531 5.53 5.531 2.01 0 3.754-1.088 4.724-2.694a12.434 12.434 0 0 1-4.642-8.359z"></path><path d="M-1197.64-411.923l3.412 3.353-5.067 1.728 1.655-5.081z"></path><path d="M-1185.707-416.954a2.34 2.34 0 0 0 0-3.352 2.445 2.445 0 0 0-3.414 0l-6.257 6.146 3.414 3.353 6.257-6.147z"></path></g></g></svg>