<svg xmlns="http://www.w3.org/2000/svg" width="32" height="32" viewBox="0 0 32 32"><title>field textual</title><g fill="#F7F7F7" class="nc-icon-wrapper"><path transform="matrix(1 0 0 -1 0 32)" d="M 28.8 22.4 V 28.8 C 28.8 29.6 28.5 30.6 27.8 31 C 27.4 31.7 26.4 32 25.6 32 H 6.4 C 5.6 32 4.6 31.7 4.2 31.1 C 3.6 30.6 3.2 29.6 3.2 28.9 V 22.5 C 1.4 22.4 0 21 0 19.2 V 11.2 C 0 9.4 1.4 8 3.2 8 V 3.2 C 3.2 2.4 3.5 1.4 4.2 1 C 4.7 0.4 5.6 0 6.4 0 H 25.6 C 26.4 0 27.4 0.3 27.8 1 C 28.4 1.6 28.8 2.5 28.8 3.2 V 8 C 30.6 8 32 9.4 32 11.2 V 19.2 C 32 21 30.6 22.4 28.8 22.4 z M 6.4 28.8 H 25.6 V 22.4 H 6.4 V 28.8 z M 16.1 19.5 H 18.1 L 19.2 16.6 L 20.3 19.5 H 22.3 L 20.3 15.3 L 22.400000000000013 11 H 20.400000000000013 L 19.200000000000014 14 L 18.000000000000014 11 H 16.000000000000014 L 18.100000000000012 15.3 L 16.100000000000012 19.5 z M 14.8 16.1 V 14.7 H 12.1 V 12.4 H 15.3 V 11 H 10.4 V 19.5 H 15.3 V 18.1 H 12.1 V 16.1 H 14.8 z M 5.4 11 V 18.1 H 3.3 V 19.5 H 9.2 V 18.1 H 7.1 V 11 H 5.4 z M 25.6 3.2 H 6.4 V 8 H 25.6 V 3.2 z M 29.1 18.1 H 27 V 11 H 25.3 V 18.1 H 23.2 V 19.5 H 29.1 V 18.1 z" fill="#F7F7F7" class="nc-icon-wrapper"></path></g></svg>