<svg xmlns="http://www.w3.org/2000/svg" x="0" y="0" viewBox="0 0 32 32" enable-background="new 0 0 32 32" width="32" height="32"><title>field text 2</title><g class="nc-icon-wrapper" fill="#111111"><path d="M28.8 9.6V3.2c0-.8-.3-1.8-1-2.2-.4-.7-1.4-1-2.2-1H6.4c-.8 0-1.8.3-2.2.9-.6.5-1 1.5-1 2.2v6.4C1.4 9.6 0 11 0 12.8v8C0 22.6 1.4 24 3.2 24v4.8c0 .8.3 1.8 1 2.2.5.6 1.4 1 2.2 1h19.2c.8 0 1.8-.3 2.2-1 .6-.6 1-1.5 1-2.2V24c1.8 0 3.2-1.4 3.2-3.2v-8c0-1.8-1.4-3.2-3.2-3.2zM6.4 3.2h19.2v6.4H6.4V3.2zm9.7 9.3h2l1.1 2.9 1.1-2.9h2l-2 4.2 2.1 4.3h-2l-1.2-3-1.2 3h-2l2.1-4.3-2-4.2zm-1.3 3.4v1.4h-2.7v2.3h3.2V21h-4.9v-8.5h4.9v1.4h-3.2v2h2.7zM5.4 21v-7.1H3.3v-1.4h5.9v1.4H7.1V21H5.4zm20.2 7.8H6.4V24h19.2v4.8zm3.5-14.9H27V21h-1.7v-7.1h-2.1v-1.4h5.9v1.4z"/></g></svg>