<svg width="32" height="32" viewBox="0 0 32 32" xmlns="http://www.w3.org/2000/svg"><g class="nc-icon-wrapper" fill="#444444"><path d="M2.15 0h27.7C31.038 0 32 .958 32 2.15v27.7c0 1.187-.958 2.15-2.15 2.15H2.15A2.147 2.147 0 0 1 0 29.85V2.15C0 .962.958 0 2.15 0zm13.423 5.76h-1.706a3.65 3.65 0 0 0-2.133.674A3.648 3.648 0 0 0 9.6 5.761H7.894v2.153H9.6c.56 0 .96.325.96.669v8.436c0 .18-.11.354-.293.48-.168.115-.4.189-.667.189H7.894v2.153H9.6c.79 0 1.542-.244 2.133-.674a3.64 3.64 0 0 0 2.133.674h1.706v-2.154h-1.706c-.562 0-.96-.324-.96-.668V8.583c0-.344.399-.669.96-.669h1.706V5.761z"></path></g></svg>