<svg xmlns="http://www.w3.org/2000/svg" width="32" height="32" viewBox="0 0 32 32"><title>field grid</title><g fill="#F7F7F7" class="nc-icon-wrapper"><path transform="matrix(1 0 0 -1 0 32)" d="M 1.6 32 A 1.6 1.6 0 0 1 0 30.4 V 25.6 A 1.6 1.6 0 0 1 1.6 24 H 6.4 A 1.6 1.6 0 0 1 8 25.6 V 30.4 A 1.6 1.6 0 0 1 6.4 32 H 1.6 z M 13.6 32 A 1.6 1.6 0 0 1 12 30.4 V 25.6 A 1.6 1.6 0 0 1 13.6 24 H 18.4 A 1.6 1.6 0 0 1 20 25.6 V 30.4 A 1.6 1.6 0 0 1 18.4 32 H 13.6 z M 25.6 32 A 1.6 1.6 0 0 1 24 30.4 V 25.6 A 1.6 1.6 0 0 1 25.6 24 H 30.4 A 1.6 1.6 0 0 1 32 25.6 V 30.4 A 1.6 1.6 0 0 1 30.4 32 H 25.6 z M 1.6 20 A 1.6 1.6 0 0 1 0 18.4 V 13.6 A 1.6 1.6 0 0 1 1.6 12 H 6.4 A 1.6 1.6 0 0 1 8 13.6 V 18.4 A 1.6 1.6 0 0 1 6.4 20 H 1.6 z M 13.6 20 A 1.6 1.6 0 0 1 12 18.4 V 13.6 A 1.6 1.6 0 0 1 13.6 12 H 18.4 A 1.6 1.6 0 0 1 20 13.6 V 18.4 A 1.6 1.6 0 0 1 18.4 20 H 13.6 z M 25.6 20 A 1.6 1.6 0 0 1 24 18.4 V 13.6 A 1.6 1.6 0 0 1 25.6 12 H 30.4 A 1.6 1.6 0 0 1 32 13.6 V 18.4 A 1.6 1.6 0 0 1 30.4 20 H 25.6 z M 1.6 8 A 1.6 1.6 0 0 1 0 6.4 V 1.6 A 1.6 1.6 0 0 1 1.6 0 H 6.4 A 1.6 1.6 0 0 1 8 1.6 V 6.4 A 1.6 1.6 0 0 1 6.4 8 H 1.6 z M 13.6 8 A 1.6 1.6 0 0 1 12 6.4 V 1.6 A 1.6 1.6 0 0 1 13.6 0 H 18.4 A 1.6 1.6 0 0 1 20 1.6 V 6.4 A 1.6 1.6 0 0 1 18.4 8 H 13.6 z M 25.6 8 A 1.6 1.6 0 0 1 24 6.4 V 1.6 A 1.6 1.6 0 0 1 25.6 0 H 30.4 A 1.6 1.6 0 0 1 32 1.6 V 6.4 A 1.6 1.6 0 0 1 30.4 8 H 25.6 z" fill="#F7F7F7" class="nc-icon-wrapper"></path></g></svg>