<svg xmlns="http://www.w3.org/2000/svg" width="32" height="32" viewBox="0 0 32 32"><title>field date</title><g fill="#212121" class="nc-icon-wrapper"><path transform="matrix(1 0 0 -1 0 32)" d="M 29.0909999999999 29.09000000000004 H 24.7269999999999 V 32 H 21.8179999999999 V 23.273 H 24.7279999999999 V 26.182 H 29.0909999999999 V 4.364 H 2.9089999999999 V 26.182 H 5.8189999999999 V 29.091 H 2.9089999999999 A 2.91 2.91 0 0 1 -1e-13 26.181 V 4.364 A 2.91 2.91 0 0 1 2.9099999999999 1.454 H 29.0909999999999 A 2.91 2.91 0 0 1 31.9999999999999 4.364 V 26.182 A 2.91 2.91 0 0 1 29.0909999999999 29.091 z M 9.89200000000005 26.182000000000013 H 20.07200000000005 V 29.090000000000025 H 9.89200000000005 V 32 H 6.98200000000005 V 23.273 H 9.89200000000005 V 26.183 z M 4.660000000000087 20.35799999999995 H 10.478000000000087 V 14.53999999999995 H 4.660000000000087 V 20.35799999999995 z M 11.64200000000005 20.35799999999995 H 17.46000000000005 V 14.53999999999995 H 11.64200000000005 V 20.35799999999995 z M 18.624000000000024 20.35799999999995 H 24.442000000000025 V 14.53999999999995 H 18.624000000000024 V 20.35799999999995 z M 4.660000000000087 13.375999999999975 H 10.478000000000087 V 7.557999999999975 H 4.660000000000087 V 13.375999999999975 z M 11.64200000000005 13.375999999999975 H 17.46000000000005 V 7.557999999999975 H 11.64200000000005 V 13.375999999999975 z" fill="#212121" class="nc-icon-wrapper"></path></g></svg>