<svg xmlns="http://www.w3.org/2000/svg" width="32" height="32" viewBox="0 0 32 32"><title>field multiselect</title><g fill="#212121" class="nc-icon-wrapper"><path transform="matrix(1 0 0 -1 0 32)" d="M 0 1.6 V 6.4 A 1.6 1.6 0 0 0 1.6 8 H 30.4 A 1.6 1.6 0 0 0 32 6.4 V 1.6 A 1.6 1.6 0 0 0 30.4 0 H 1.6 A 1.6 1.6 0 0 0 0 1.6 z M 0 13.6 V 18.4 A 1.6 1.6 0 0 0 1.6 20 H 30.4 A 1.6 1.6 0 0 0 32 18.4 V 13.6 A 1.6 1.6 0 0 0 30.4 12 H 1.6 A 1.6 1.6 0 0 0 0 13.6 z M 0 25.6 V 30.4 A 1.6 1.6 0 0 0 1.6 32 H 30.4 A 1.6 1.6 0 0 0 32 30.4 V 25.6 A 1.6 1.6 0 0 0 30.4 24 H 1.6 A 1.6 1.6 0 0 0 0 25.6 z" fill="#212121" class="nc-icon-wrapper"></path></g></svg>