<svg xmlns="http://www.w3.org/2000/svg" width="32" height="32" viewBox="0 0 32 32"><title>find page</title><g fill="#212121" class="nc-icon-wrapper"><path transform="matrix(1 0 0 -1 0 32)" d="M 28.69 3.831 V 22.385 L 19.075 32 H 6.23 C 4.427 32 3.075 30.573 3.075 28.845 L 3 3.155 C 3 1.427 4.427 0 6.23 0 H 25.46 C 26.136 0 26.812 0.225 27.338 0.6 L 20.277 7.737 C 19 6.911 17.497 6.385 15.845 6.385 C 11.413 6.385 7.808 9.991 7.808 14.422 C 7.808 18.854000000000013 11.413 22.385000000000012 15.845 22.385000000000012 S 23.883 18.855 23.883 14.422 C 23.883 12.77 23.357 11.268 22.531 9.991 L 28.691 3.831 z M 11.038 14.422 A 4.793 4.793 0 0 1 15.845 9.615 A 4.793 4.793 0 0 1 20.653 14.423 C 20.653 17.052 18.474 19.23 15.845 19.23 S 11.038 17.052 11.038 14.422 z" fill="#212121" class="nc-icon-wrapper"></path></g></svg>