<svg xmlns="http://www.w3.org/2000/svg" width="32" height="32" viewBox="0 0 32 32"><title>flame</title><g fill="#212121" class="nc-icon-wrapper"><path transform="matrix(1 0 0 -1 0 32)" d="M 10.542 0 C 3.997 3.71 2.252 7.2 3.27 12 C 3.997 15.49 6.397 18.327 6.615 21.89 C 7.633 20 8.07 18.69 8.142 16.727 C 11.415 20.727 13.524 26.182 13.67 32 C 13.67 32 22.106 27.055 22.615 19.564 C 23.343 21.091 23.706 23.564 22.979 25.091 C 25.16 23.564 37.96 9.454 21.306 0 C 24.433 6.11 22.106 14.327 16.652 18.11 C 17.015 16.51 16.361 10.4 13.961 7.71 C 14.615 12.218 13.306 14.11 13.306 14.11 S 12.87 11.564 11.197 9.09 C 9.597 6.764 8.507 4.29 10.542 0 z" fill="#212121" class="nc-icon-wrapper"></path></g></svg>