<svg width="32" height="32" viewBox="0 0 32 32" xmlns="http://www.w3.org/2000/svg"><g class="nc-icon-wrapper" fill="#444444"><path d="M10.542 32c-6.545-3.71-8.29-7.2-7.272-12 .727-3.49 3.127-6.327 3.345-9.89 1.018 1.89 1.455 3.2 1.527 5.163 3.273-4 5.382-9.455 5.528-15.273 0 0 8.436 4.945 8.945 12.436.728-1.527 1.091-4 .364-5.527C25.16 8.436 37.96 22.546 21.306 32c3.127-6.11.8-14.327-4.654-18.11.363 1.6-.291 7.71-2.691 10.4.654-4.508-.655-6.4-.655-6.4s-.436 2.546-2.109 5.02c-1.6 2.326-2.69 4.8-.655 9.09z"></path></g></svg>