<svg xmlns="http://www.w3.org/2000/svg" width="32" height="32" viewBox="0 0 32 32"><title>folder closed small</title><g fill="#F7F7F7" class="nc-icon-wrapper"><path transform="matrix(1 0 0 -1 0 32)" d="M 0 5.2 C 0 4.1 0.4 3.1 1.2 2.4 C 2 1.6 3 1.2 4 1.2 H 28 C 29.1 1.2 30.1 1.6 30.8 2.4 C 31.6 3.2 32 4.2 32 5.2 V 15.8 H 0 V 5.2 z M 31.6 24.8 C 31.4 25 31 25.2 30.7 25.2 H 16.7 L 12.7 30.5 H 1.3 C 1 30.5 0.6 30.4 0.4 30.1 C 0.1 29.9 0 29.5 0 29.2 V 19.9 H 32 V 23.9 C 32 24.2 31.9 24.5 31.6 24.8 z" fill="#F7F7F7" class="nc-icon-wrapper"></path></g></svg>