<svg xmlns="http://www.w3.org/2000/svg" width="32" height="32" viewBox="0 0 32 32"><title>folders</title><g fill="#212121" class="nc-icon-wrapper"><path transform="matrix(1 0 0 -1 0 32)" d="M 28.79999999999996 25.199000000000012 H 19.19799999999995 L 16.881999999999962 28.23000000000001 A 3.202 3.202 0 0 1 14.018999999999963 30.000000000000014 H 7.994999999999963 A 1.6 1.6 0 0 1 6.39499999999995 28.400000000000013 V 10.796000000000012 C 6.39499999999995 9.029000000000012 7.82899999999995 7.5960000000000125 9.594999999999963 7.5960000000000125 H 28.798999999999964 C 30.565999999999963 7.5960000000000125 31.99999999999996 9.029000000000012 31.99999999999996 10.796000000000012 V 21.99800000000001 C 31.99999999999996 23.76500000000001 30.565999999999963 25.199000000000012 28.79999999999996 25.199000000000012 z M 3.20000000000005 25.199000000000012 H 5e-14 V 4.395000000000013 C 5e-14 2.6300000000000123 1.43500000000005 1.1950000000000125 3.20000000000005 1.1950000000000125 H 27.20500000000005 V 4.395000000000013 H 3.2010000000000374 V 25.199000000000012 z" fill="#212121" class="nc-icon-wrapper"></path></g></svg>