<svg xmlns="http://www.w3.org/2000/svg" width="32" height="32" viewBox="0 0 32 32"><title>folder open small</title><g fill="#212121" class="nc-icon-wrapper"><path transform="matrix(1 0 0 -1 0 32)" d="M 12.4 18.5 H 27.9 V 23.2 C 27.9 23.5 27.8 23.8 27.6 24 C 27.4 24.2 27.1 24.3 26.8 24.3 H 14.5 L 11.1 29 H 1.2 C 0.9 29 0.6 28.9 0.3 28.7 S 0 28.1 0 27.8 V 6.9 C 0 6 0.4 5.1 1 4.4 C 1.7 3.7 2.5 3.4 3.5 3.4 H 3.7 L 10.8 17.4 C 11 18 11.8 18.5 12.4 18.5 z M 13.4 15 L 7.6 3.4 H 24.5 C 25.2 3.4 26 3.6 26.6 4.1 L 32 15 H 13.4 z" fill="#212121" class="nc-icon-wrapper"></path></g></svg>