<svg xmlns="http://www.w3.org/2000/svg" width="32" height="32" viewBox="0 0 32 32"><title>font</title><g fill="#212121" class="nc-icon-wrapper"><path transform="matrix(1 0 0 -1 0 32)" d="M 10.609 3.913 L 9.043 0 H 23.653 L 22.173 3.913 H 10.61 z M 11.826 7.826 H 20.87 L 16.348 19.826 L 11.826 7.826 z M 28.87 32 H 3.13 A 3.117 3.117 0 0 1 0 28.87 V 3.13 C 0 1.391 1.391 0 3.13 0 H 4 L 13.304 23.478 C 13.478 23.913 13.913 24.261 14.434 24.261 H 18.348 C 18.87 24.261 19.304 23.913 19.391 23.478 L 28.696 0 H 28.87 C 30.609 0 32 1.391 32 3.13 V 28.87 C 32 30.609 30.609 32 28.87 32 z" fill="#212121" class="nc-icon-wrapper"></path></g></svg>