<svg width="32" height="32" viewBox="0 0 32 32" xmlns="http://www.w3.org/2000/svg"><g class="nc-icon-wrapper" fill="#444444"><path d="M31.824 30.25c.167.333.25.833 0 1.167-.25.333-.666.583-1.083.583H1.158c-.417 0-.75-.25-1-.583-.25-.334-.167-.834 0-1.167L9.99 13.667v-12.5C9.991.5 10.491 0 11.158 0c.666 0 1.25.5 1.25 1.167v6.666c.333-.25.833-.416 1.333-.416 1.25 0 2.25 1 2.25 2.25s-1 2.166-2.25 2.166c-.5 0-1-.166-1.333-.416V14c0 .167-.084.333-.167.5l-2.917 4.917h6c-1.25-.5-2.166-1.667-2.166-3.084 0-1.916 1.583-3.5 3.583-3.5 1.25 0 2.25.667 2.917 1.584-.084-.167-.084-.25-.084-.417V1.167c0-.667.5-1.167 1.167-1.167s1.25.5 1.25 1.167v12.5l9.833 16.583zM18.158 19.417h4.416l-2.583-4.5c.167.416.25.916.25 1.416a3.27 3.27 0 0 1-2.083 3.084zm-1.417-14c-1 0-1.833-.75-1.833-1.75s.833-1.75 1.833-1.75 1.833.75 1.833 1.75-.833 1.75-1.833 1.75z"></path></g></svg>