<svg xmlns="http://www.w3.org/2000/svg" width="32" height="32" viewBox="0 0 32 32"><title>forward arrow</title><g fill="#212121" class="nc-icon-wrapper"><path transform="matrix(1 0 0 -1 0 32)" d="M 18.1 24.9 L 16.3 23.1 L 21.8 17.3 H 6.1 V 14.8 H 21.9 L 16.3 9 L 18.1 7.2 L 26.6 16 L 18.1 24.9 z M 16 32 C 7.2 32 0 24.8 0 16 S 7.2 0 16 0 S 32 7.2 32 16 S 24.8 32 16 32 z M 16 1.5 C 8 1.5 1.5 8 1.5 16 S 8 30.5 16 30.5 S 30.5 24 30.5 16 S 24 1.5 16 1.5 z" fill="#212121" class="nc-icon-wrapper"></path></g></svg>