<svg xmlns="http://www.w3.org/2000/svg" width="32" height="32" viewBox="0 0 32 32"><title>gauge</title><g fill="#212121" class="nc-icon-wrapper"><path transform="matrix(1 0 0 -1 0 32)" d="M 32 14.46 C 32 10.031 30.071 6.023 27 3.21 L 26.857 3 L 24.214 5.602 L 25 6.375 L 26.857 4.617 C 28 5.813 28.857 7.148 29.571 8.625 C 30.286 10.242 30.786 11.93 30.857 13.688 H 28.571 V 14.813 H 30.857 C 30.786 16.641 30.429 18.398 29.714 20.086 A 13.525 13.525 0 0 1 27 24.234 L 25 22.266 L 24.214 23.039 H 24.143 L 26.143 25.008 A 14.879 14.879 0 0 1 21.786 27.82 C 20.143 28.523 18.357 28.805 16.571 28.875 V 26.273 H 15.43 V 28.875 C 13.644 28.805 11.858 28.523 10.215 27.82 A 14.878 14.878 0 0 1 5.858 25.008 L 7.787 23.039 L 7 22.266 L 5 24.234 A 13.525 13.525 0 0 1 2.286 20.086 C 1.571 18.398 1.214 16.641 1.143 14.813 H 3.429 V 13.688 H 1.143 C 1.214 11.93 1.714 10.242 2.429 8.625 C 3.071 7.148 4 5.812 5.143 4.617 L 6.929 6.375 L 7.786 5.602 L 5.143 3 V 3.07 C 2 5.883 0 9.89 0 14.39 V 14.46 C 0 23.04 7.143 30 16 30 H 16.071 C 24.93 30 32 23.04 32 14.46 z M 14.857 16.57 L 22.714 21.352 L 23.429 20.578 L 17.571 13.968 L 17.5 13.898 A 2.023 2.023 0 0 0 16 13.195 C 14.929 13.195 14.071 13.969 14.071 15.023 C 14.071 15.586 14.357 16.078 14.714 16.43 L 14.857 16.57 z" fill="#212121" class="nc-icon-wrapper"></path></g></svg>