<svg xmlns="http://www.w3.org/2000/svg" width="32" height="32" viewBox="0 0 32 32"><title>gear</title><g fill="#212121" class="nc-icon-wrapper"><path transform="matrix(1 0 0 -1 0 32)" d="M 32 12.833 H 28.333 C 28 11.667 27.5 10.583 26.917 9.583 L 29.583 6.917 L 25.083 2.417 L 22.333 5.083 C 21.333 4.5 20.333 4.167 19.167 3.833 V 0 H 12.833 V 3.833 C 11.75 4.167 10.667 4.5 9.667 5.083 L 6.917 2.417 L 2.417 6.917 L 5.083 9.583 C 4.5 10.583 4 11.667 3.667 12.833 H 0 V 19.167 H 3.583 C 3.917 20.333 4.333 21.583 4.917 22.583 L 2.417 25.083 L 6.917 29.583 L 9.333 27.167 C 10.417 27.833 11.583 28.25 12.833 28.583 V 32 H 19.167 V 28.583 C 20.417 28.25 21.583 27.833 22.667 27.167 L 25.083 29.583 L 29.583 25.083 L 27.083 22.583 C 27.667 21.583 28.167 20.333 28.417 19.167 H 32 V 12.833 z M 16 11.5 C 18.5 11.5 20.5 13.5 20.5 16 S 18.5 20.5 16 20.5 S 11.5 18.5 11.5 16 S 13.5 11.5 16 11.5 z" fill="#212121" class="nc-icon-wrapper"></path></g></svg>