<svg xmlns="http://www.w3.org/2000/svg" width="32" height="32" viewBox="0 0 32 32"><title>gear small</title><g fill="#F7F7F7" class="nc-icon-wrapper"><path transform="matrix(1 0 0 -1 0 32)" d="M 28.2 14.4 C 28.2 14.88 28.365 15.52 28.365 16 S 28.365 17.12 28.201 17.6 L 31.656 20 C 31.986 20.16 32.15 20.64 31.821 21.12 L 28.53 26.72 C 28.365 27.2 27.872 27.36 27.543 27.2 L 23.593 25.44 C 22.771 26.08 21.619 26.72 20.632 27.04 L 20.138 31.2 C 20.138 31.68 19.809 32 19.316 32 H 12.734 C 12.241 32 11.911 31.68 11.911 31.2 L 11.418 27.2 C 10.266 26.72 9.278 26.24 8.456 25.6 L 4.507 27.2 C 4.178 27.36 3.685 27.2 3.52 26.88 L 0.23 21.28 C -0.1 20.8 -0.1 20.32 0.394 20.16 L 3.849 17.6 C 3.849 17.12 3.685 16.48 3.685 16 S 3.685 14.88 3.849 14.4 L 0.394 12 C 0.064 11.84 -0.1 11.36 0.229 10.88 L 3.52 5.28 C 3.685 4.8 4.178 4.64 4.507 4.8 L 8.457 6.56 C 9.279 5.92 10.431 5.28 11.417 4.96 L 11.911 0.8 C 11.911 0.32 12.241 0 12.734 0 H 19.316 C 19.809 0 20.138 0.32 20.138 0.8 L 20.632 4.96 C 21.784 5.44 22.771 5.92 23.594 6.56 L 27.543 4.8 C 27.872 4.64 28.365 4.8 28.53 5.12 L 31.82 10.72 C 31.985 11.04 31.985 11.52 31.656 11.84 z M 16.025 9.6 C 12.405 9.6 9.443 12.48 9.443 16 S 12.405 22.4 16.025 22.4 S 22.607 19.52 22.607 16 S 19.645 9.6 16.025 9.6 z" fill="#F7F7F7" class="nc-icon-wrapper"></path></g></svg>