<svg fill="none" height="32" viewBox="0 0 32 32" width="32" xmlns="http://www.w3.org/2000/svg"><path d="m28.2008 17.6c0-.48.1645-1.12.1645-1.6s0-1.12-.1645-1.6l3.4553-2.4c.3291-.16.4936-.64.1645-1.12l-3.2907-5.6c-.1646-.48-.6582-.64-.9873-.48l-3.9489 1.76c-.8227-.64-1.9744-1.28-2.9617-1.6l-.4936-4.16c0-.48-.329-.8-.8227-.8h-6.5815c-.4936 0-.8227.32-.8227.8l-.4936 4c-1.1517.48-2.13897.96-2.96166 1.6l-3.94891-1.6c-.32907-.16-.82269 0-.98723.32l-3.290754 5.6c-.3290762.48-.3290763.96.164538 1.12l3.455296 2.56c0 .48-.16454 1.12-.16454 1.6s0 1.12.16454 1.6l-3.455296 2.4c-.3290763.16-.4936142.64-.164538 1.12l3.290754 5.6c.16454.48.65816.64.98723.48l3.94891-1.76c.82269.64 1.97446 1.28 2.96166 1.6l.4936 4.16c0 .48.3291.8.8227.8h6.5815c.4937 0 .8227-.32.8227-.8l.4936-4.16c1.1518-.48 2.139-.96 2.9617-1.6l3.9489 1.76c.3291.16.8227 0 .9873-.32l3.2907-5.6c.1646-.32.1646-.8-.1645-1.12zm-12.1758 4.8c-3.6198 0-6.58153-2.88-6.58153-6.4s2.96173-6.4 6.58153-6.4 6.5815 2.88 6.5815 6.4-2.9617 6.4-6.5815 6.4z" fill="#000"/></svg>