<svg width="32" height="32" viewBox="0 0 32 32" xmlns="http://www.w3.org/2000/svg"><g class="nc-icon-wrapper" fill="#444444"><path d="M32 19.167h-3.667c-.333 1.166-.833 2.25-1.416 3.25l2.666 2.666-4.5 4.5-2.75-2.666c-1 .583-2 .916-3.166 1.25V32h-6.334v-3.833c-1.083-.334-2.166-.667-3.166-1.25l-2.75 2.666-4.5-4.5 2.666-2.666c-.583-1-1.083-2.084-1.416-3.25H0v-6.334h3.583c.334-1.166.75-2.416 1.334-3.416l-2.5-2.5 4.5-4.5 2.416 2.416c1.084-.666 2.25-1.083 3.5-1.416V0h6.334v3.417c1.25.333 2.416.75 3.5 1.416l2.416-2.416 4.5 4.5-2.5 2.5c.584 1 1.084 2.25 1.334 3.416H32v6.334zM16 20.5c2.5 0 4.5-2 4.5-4.5s-2-4.5-4.5-4.5-4.5 2-4.5 4.5 2 4.5 4.5 4.5z"></path></g></svg>