<svg xmlns="http://www.w3.org/2000/svg" width="32" height="32" viewBox="0 0 32 32"><title>gear square</title><g fill="#212121" class="nc-icon-wrapper"><g fill="#212121"><path transform="scale(1,-1) translate(0,-32)" d="M 15.994999999999887 11.739000000000038 A 4.267 4.267 0 1 1 15.994999999999887 20.272000000000038 A 4.267 4.267 0 0 1 15.994999999999887 11.739000000000038 z M 3.5550000000000623 32 H 28.445000000000064 A 3.556 3.556 0 0 0 32.000000000000064 28.444 V 3.556 A 3.557 3.557 0 0 0 28.445000000000064 0 H 3.5550000000000623 A 3.556 3.556 0 0 0 6.25e-14 3.556 V 28.444 A 3.555 3.555 0 0 0 3.5550000000000623 32 z M 23.485000000000063 14.063 H 26.667000000000062 V 17.941 H 23.488000000000063 A 7.79 7.79 0 0 1 22.72200000000006 19.812 L 24.732000000000063 21.82 L 21.822000000000063 24.73 L 19.81200000000006 22.72 A 7.496 7.496 0 0 1 17.94000000000006 23.484 V 26.669 H 14.062000000000063 V 23.484 C 13.398000000000062 23.312 12.773000000000062 23.054 12.192000000000062 22.72 L 10.182000000000063 24.73 L 7.272000000000062 21.82 L 9.282000000000062 19.812 A 7.817 7.817 0 0 1 8.516000000000062 17.941 H 5.334000000000063 V 14.061 H 8.516000000000062 C 8.690000000000062 13.395 8.949000000000062 12.773 9.282000000000062 12.189 L 7.272000000000062 10.179 L 10.178000000000063 7.273 L 12.189000000000062 9.283 A 7.509 7.509 0 0 1 14.059000000000063 8.517 V 5.334 H 17.936000000000064 V 8.519 A 7.51 7.51 0 0 1 19.80900000000006 9.284 L 21.819000000000063 7.275 L 24.727000000000064 10.181 L 22.71900000000006 12.191 A 7.716 7.716 0 0 1 23.484000000000062 14.063 z"></path></g></g></svg>