<svg xmlns="http://www.w3.org/2000/svg" width="32" height="32" viewBox="0 0 32 32"><title>globe</title><g fill="#212121" class="nc-icon-wrapper"><g fill="#212121"><path transform="scale(1,-1) translate(0,-32)" d="M 16 32 C 7.2 32 0 24.8 0 16 S 7.2 0 16 0 S 32 7.2 32 16 S 24.8 32 16 32 z M 16 29.45 C 17.763 29.45 19.45 29.132 21 28.5 C 20.962 28.075 20.63 27.61 20.5 27.35 C 20.34 26.87 19.98 26.22 19.5 25.9 C 19.18 25.58 18.73 25.12 18.25 24.8 C 17.77 24.48 17.28 24.02 16.8 23.7 C 16.48 23.54 16.31 23.35 16.15 23.35 H 16 C 15.68 23.67 15.7 24.47 15.7 24.95 C 15.7 25.75 16.16 26.25 16 27.05 C 16 27.21 15.85 28.5 15.85 28.5 C 15.21 28.66 14.54 28.5 14.7 29.3 C 14.708 29.323 14.74 29.328 14.75 29.35 C 15.167 29.39 15.574 29.45 16 29.45 z M 9.85 27.05 C 10.335 27.06 10.8 27.02 11.2 26.9 C 11.68 26.74 12.18 26.42 12.5 26.1 C 12.82 25.78 13.3 25.28 13.3 24.8 C 13.3 24.64 13.26 24.66 13.1 24.5 C 12.94 24.34 12.81 24.3 12.65 24.3 C 12.17 24.3 11.67 24.34 11.35 24.5 L 10.7 25.1 C 9.74 25.42 8.31 23.34 8.15 22.7 C 7.99 22.22 8 21.11 8.8 20.95 C 9.28 20.95 10.22 21.93 10.7 22.25 C 11.02 22.41 11.18 22.54 11.5 22.7 C 12.78 22.86 13.78 21.77 14.1 20.65 C 14.58 19.37 12.16 18.42 11.2 18.1 C 10.88 17.94 10.72 18.26 10.4 18.1 C 9.6 17.78 8.65 16.81 8.65 15.85 C 8.49 15.05 8.46 14.25 8.3 13.45 C 8.14 13.45 8 13.44 8 13.6 V 13.9 C 8 14.38 7.83 15.04 7.35 15.2 C 7.19 15.36 7.21 15.35 7.05 15.35 C 6.57 15.35 6.08 15.82 5.6 15.5 C 5.28 15.18 4.95 14.73 4.95 14.25 C 4.95 14.09 4.94 13.91 5.1 13.75 C 5.42 13.59 5.78 13.91 6.1 13.75 C 6.42 13.75 6.4 13.46 6.4 13.3 C 6.72 12.82 7.02 12.16 7.5 12 H 10.7 C 11.18 11.84 11.98 11.67 12.3 11.35 C 12.46 11.03 12.49 10.72 12.65 10.4 C 13.45 9.6 14.39 9.62 15.35 9.3 C 15.67 9.14 15.85 8.97 15.85 8.65 C 16.01 8.17 15.86 7.52 15.7 7.2 C 15.54 6.72 15.37 6.07 15.05 5.75 C 14.73 5.43 14.42 5.26 14.1 5.1 C 13.62 4.78 13.28 4.18 12.8 3.7000000000000126 C 12.8 3.6200000000000125 12.63 3.31 12.45 3.0500000000000127 A 13.576 13.576 0 0 0 9 4.55 A 5.113 5.113 0 0 0 8.95 5.1 C 8.79 5.58 8.66 6.22 8.5 6.7 C 8.18 7.5 7.5 8.34 7.5 9.3 C 7.5 10.1 7.68 10.86 7.2 11.5 C 6.56 12.3 5.29 12.32 4.65 12.8 A 7.893 7.893 0 0 0 2.65 14.75 C 2.61 15.167000000000012 2.55 15.574000000000012 2.55 16 C 2.55 20.345 4.7 24.235 7.95 26.7 C 8.579 26.888 9.23 27.037 9.85 27.05 z M 24.45 26.4 C 27.474 23.925 29.45 20.165 29.45 16 C 29.45 11.554 27.229 7.554 23.85 5.1 C 23.689 5.615 23.465 6.126 23.35 6.7 C 23.03 7.34 22.86 8.01 22.7 8.65 C 22.54 9.13 22.58 9.92 22.1 10.4 C 21.94 10.72 21.62 10.74 21.3 10.9 C 20.18 11.38 18.7 10.73 17.9 11.85 C 17.58 12.33 17.75 12.81 17.75 13.45 C 18.07 13.93 18.23 14.42 18.55 14.9 C 18.87 15.7 19.34 16.3 19.5 17.1 C 19.66 17.42 19.54 17.93 19.7 18.25 C 19.86 18.41 20.18 18.54 20.5 18.7 C 20.66 18.86 20.8 18.89 20.8 19.05 C 20.8 19.21 20.650000000000013 19.19 20.650000000000013 19.35 C 20.650000000000013 19.51 20.790000000000013 19.84 20.950000000000014 20 C 21.750000000000014 20.8 22.55000000000001 21.45 23.350000000000012 22.25 C 23.510000000000012 22.25 23.5 22.4 23.5 22.4 C 23.66 22.56 23.510000000000012 22.7 23.350000000000012 22.7 C 23.030000000000012 22.86 22.87 22.89 22.55 23.05 C 22.39 23.05 22.25 23.04 22.25 23.2 C 22.09 23.36 22.24 23.690000000000012 22.4 23.85 L 23.35 25.3 C 23.661 25.611 23.991 26.22 24.45 26.400000000000013 z"></path></g></g></svg>