<svg xmlns="http://www.w3.org/2000/svg" width="32" height="32" viewBox="0 0 32 32"><title>graph</title><g fill="#F7F7F7" class="nc-icon-wrapper"><path transform="matrix(1 0 0 -1 0 32)" d="M 5.733 31.913 C 5.107 31.786 4.419 31.215 4.107 30.58 A 1.605 1.605 0 0 1 3.919 29.756 C 3.919 29.312 3.919 29.185 4.107 28.804 C 4.482 27.979 5.295 27.408 6.171 27.345 H 6.609 L 6.796 26.965 C 6.984 26.52 7.234 26.33 7.546 26.33 C 7.796 26.33 8.047 26.457 8.172 26.71 C 8.235 26.9 8.235 27.155 7.984 27.662 L 7.734 28.042 L 7.922 28.17 C 7.984 28.233 8.11 28.487 8.235 28.677 C 8.798 29.692 8.422 30.897 7.359 31.595 C 6.859 31.976 6.296 32.103 5.733 31.913 z M 6.796 30.453 C 7.171 30.2 7.296 29.502 7.046 29.058 C 6.859 28.804 6.296 28.614 5.921 28.741 C 5.483 28.868 5.233 29.185 5.233 29.756 C 5.295 30.136 5.358 30.326 5.67 30.516 C 5.983 30.707 6.609 30.644 6.796 30.453 z M 24.496 31.85 C 23.808 31.723 23.183 31.28 22.745 30.645 C 22.057 29.757 21.932 28.551 22.432 27.6 L 22.62 27.22 L 22.057 26.585 L 21.181 25.697 C 21.056 25.507 20.556 24.999 20.181 24.555 L 19.18 23.539 C 19.055 23.412 18.617 22.904 18.18 22.397 C 17.679 21.953 17.116 21.318 16.803 21.001 C 16.49 20.684 16.115 20.24 15.865 19.986 L 15.49 19.606 L 15.052 19.796 C 14.864 19.923 14.489 20.05 14.302 20.113 C 13.739 20.303 12.862 20.303 12.238 20.113 C 12.05 20.05 12.05 20.05 11.8 20.493 C 11.487 21.065 11.05 21.255 10.611 20.874 C 10.424 20.62 10.424 20.62 10.424 20.304 C 10.424 20.113 10.486 19.986 10.486 19.986 C 10.486 20.05 10.611 19.923 10.674 19.732 L 10.862 19.415 L 10.674 19.225 C 9.674 18.273 9.173 16.878 9.423 15.672 C 9.423 15.419 9.486 15.102 9.548 15.038 C 9.548 14.911 9.486 14.848 9.173 14.658 A 4.275 4.275 0 0 1 8.735 14.34 C 8.672 14.34 8.047 13.96 7.296 13.515 C 6.609 13.071 5.983 12.691 5.921 12.691 C 5.858 12.627 5.795 12.691 5.733 12.691 C 5.545 12.881 5.107 13.135 4.857 13.198 C 3.669 13.515 2.356 12.628 2.043 11.358 C 1.793 10.217 2.668 8.948 3.919 8.694 C 4.607 8.504 5.42 8.821 5.983 9.392 C 6.108 9.582 6.296 9.709 6.296 9.709 S 6.358 9.773 6.358 9.836 S 6.421 10.09 6.483 10.28 C 6.546 10.534 6.609 10.724 6.609 11.041 L 6.546 11.485 L 6.796 11.612 C 6.984 11.676 7.609 12.12 8.297 12.5 C 8.923 12.944 9.486 13.262 9.548 13.262 C 9.548 13.262 9.673 13.325 9.736 13.389 C 10.174 13.769 10.236 13.769 10.549 13.389 C 11.299 12.691 12.238 12.247 13.113 12.247 C 13.363 12.247 13.613 12.247 13.613 12.183 C 13.613 12.183 13.801 11.422 14.051 10.47 C 14.301 9.519 14.551 8.63 14.551 8.44 C 14.614 8.249999999999988 14.677 7.996 14.677 7.932999999999987 C 14.739 7.868999999999987 14.802 7.615999999999987 14.864 7.425 C 14.864 7.234999999999988 14.927 6.981 14.989 6.917999999999988 C 14.989 6.853999999999988 15.052 6.537999999999988 15.114 6.282999999999988 L 15.24 5.838999999999987 L 14.99 5.711999999999987 C 14.677 5.458999999999987 14.301 5.141999999999988 14.114 4.760999999999988 C 13.989 4.570999999999987 13.864 4.4439999999999875 13.801 4.506999999999987 V 4.4439999999999875 C 13.864 4.4439999999999875 13.801 4.253999999999987 13.738 4.063999999999988 C 13.551 3.6189999999999873 13.551 2.731 13.676 2.2239999999999873 C 14.176 0.891 15.49 -0.0600000000000125 16.803 0.0029999999999875 C 17.491 0.0659999999999875 18.304 0.5109999999999875 18.743 1.0179999999999876 C 18.867 1.1449999999999876 18.993 1.272 19.055 1.272 C 19.18 1.462 19.493 2.097 19.555 2.477 C 19.68 2.857 19.68 3.429 19.555 3.937 C 19.18 5.078 17.992 6.093 16.865 6.157 L 16.553 6.22 L 16.178 7.616 C 15.99 8.376 15.802 9.075 15.802 9.138 C 15.74 9.202 15.677 9.455 15.615 9.646 C 15.615 9.899 15.552 10.089999999999987 15.552 10.153 C 15.49 10.217 15.49 10.407 15.427 10.661 C 15.365 10.851 15.302 11.041 15.302 11.168 C 15.302 11.232 15.24 11.295 15.24 11.358 C 15.177 11.485 14.927 12.5 14.927 12.564 C 14.927 12.564 15.052 12.691 15.24 12.818 C 15.427 12.881 15.74 13.135 15.99 13.325 L 16.365 13.705 L 16.741 13.452 C 16.991 13.325 17.241 13.262 17.303 13.262 C 17.741 13.262 18.054 13.579 17.991 14.022 C 17.929 14.277 17.741 14.467 17.366 14.657 L 16.991 14.847 L 17.116 15.228 C 17.366 16.116 17.241 17.258 16.741 18.146 L 16.491 18.654 S 16.866 19.098 17.303 19.542 C 18.429 20.747 18.554 20.874 19.243 21.636 C 19.618 22.016 19.93 22.333 19.93 22.27 C 19.993 22.27 19.993 22.27 19.993 22.333 C 19.93 22.397 20.118 22.587 21.494 24.046 C 21.994 24.554 22.432 25.061 22.557 25.188 L 23.183 25.822 L 23.558 26.267 L 23.933 26.077 C 24.871 25.696 25.622 25.696 26.435 26.14 C 27.311 26.584 28.061 27.535 28.186000000000014 28.36 C 28.436000000000014 30.136 27.06 31.85 25.309 31.913 C 25.059 31.976 24.684 31.913 24.496000000000013 31.849 z M 25.81 30.518 C 26.185 30.391 26.623 29.947 26.748 29.503 C 26.935 29.059 26.873 28.424 26.685 28.043 C 26.435 27.473 25.872 27.156 25.185 27.156 C 24.684 27.156 24.308 27.283 23.933 27.663 C 23.62 27.98 23.495 28.298 23.495 28.805 C 23.433 30.137 24.434 30.899 25.809 30.518 z M 13.925 18.844 C 14.3 18.781 14.488 18.654 14.675 18.591 C 14.988 18.337 15.551 17.766 15.676 17.449 C 16.239 16.179 15.802 14.53 14.613 13.896 C 13.988 13.579 12.987 13.516 12.299 13.769 C 11.924 13.896 11.361 14.34 11.236 14.53 C 11.173 14.594 11.111 14.72 11.048 14.784 C 10.798 15.038 10.61 16.307 10.735 16.941 C 10.923 17.639 11.361 18.273 11.986 18.591 C 12.549 18.908 13.362 18.971 13.926 18.844 z M 4.856 11.803 C 5.106 11.613 5.294 11.105 5.232 10.851 C 5.169 10.217 4.856 9.963 4.293 9.963 C 3.793 10.026 3.605 10.153 3.48 10.47 C 3.293 10.724 3.293 11.232 3.418 11.485 A 0.91 0.91 0 0 0 3.981 11.866 C 4.168 11.929 4.731 11.866 4.856 11.803 z M 17.49 4.634 C 18.053 4.38 18.366 3.746 18.303 2.984 C 18.241 2.54 18.241 2.414 18.116 2.224 C 17.74 1.526 16.865 1.208 15.989 1.462 C 15.301 1.652 14.926 2.223 14.926 3.112 C 14.926 3.682 15.051 4.063 15.364 4.38 C 15.864 4.824 16.802 4.951 17.49 4.634 z M 8.422 25.378 A 0.647 0.647 0 0 1 8.11 24.998 L 8.047 24.744 L 8.36 24.11 C 9.048 22.777 9.423 22.08 9.548 22.016 C 9.923 21.826 10.236 21.953 10.486 22.206 C 10.611 22.46 10.611 22.714 10.424 23.031 C 10.361 23.221 10.174 23.475 10.111 23.666 C 9.986 23.792 9.798 24.236 9.673 24.49 C 9.486 24.807 9.298 25.125 9.235 25.188 C 9.048 25.505 8.735 25.505 8.422 25.378 z M 19.68 13.008 C 19.242 12.818 19.117 12.31 19.493 11.929 A 0.47 0.47 0 0 1 19.68 11.739 C 19.743 11.739 19.93 11.612 20.243 11.422 C 20.493 11.295 20.681 11.168 20.743 11.168 C 20.743 11.168 20.869 11.105 20.993 10.978 C 21.432 10.724 21.869 10.47 22.182 10.343 C 22.432 10.217 22.495 10.217 22.745 10.28 A 0.637 0.637 0 0 1 23.12 11.105 C 23.058 11.358 23.058 11.358 21.306 12.373 C 20.681 12.754 20.118 13.071 20.056 13.071 C 19.93 13.071 19.806 13.071 19.68 13.008 z M 27.373 10.217 C 27.06 10.153 26.623 9.963 26.373 9.773 L 26.123 9.583 L 25.873 9.709 C 25.309 10.026 25.184 10.089 24.996 10.026 C 24.684 10.026 24.434 9.709 24.434 9.392 S 24.559 8.884 25.059 8.631 L 25.434 8.441 V 7.933 C 25.434 7.489 25.434 7.362 25.559 7.045 C 25.872 6.41 26.623 5.775 27.186 5.649 C 27.373 5.586 27.874 5.586 28.186 5.649 C 28.686 5.776 29.375 6.283 29.687 6.791 C 29.875 7.171 30 7.742 30 8.06 C 29.875 9.138 28.874 10.153 27.811 10.217 C 27.623 10.28 27.436 10.28 27.373 10.217 z M 28.186 8.757 C 28.812 8.44 28.749 7.362 28.186 7.045 C 27.873 6.918 27.373 6.918 27.123 7.045 C 26.748 7.298 26.623 7.869 26.81 8.377 C 26.998 8.757 27.06 8.757 27.436 8.884 C 27.686 8.948 27.999 8.884 28.186 8.757 z" fill="#F7F7F7" class="nc-icon-wrapper"></path></g></svg>