<svg xmlns="http://www.w3.org/2000/svg" width="32" height="32" viewBox="0 0 32 32"><title>graph alt1</title><g fill="#F7F7F7" class="nc-icon-wrapper"><path transform="matrix(1 0 0 -1 0 32)" d="M 30.5 10.900000000000013 H 26.7 L 20.2 21.700000000000014 C 20.4 21.900000000000013 20.5 22.200000000000014 20.5 22.600000000000012 V 28.500000000000014 C 20.5 29.30000000000001 19.8 30.000000000000014 19 30.000000000000014 H 13 C 12.2 30.000000000000014 11.5 29.30000000000001 11.5 28.500000000000014 V 22.600000000000012 C 11.5 22.3 11.6 22.000000000000014 11.8 21.700000000000014 L 5.3 10.900000000000013 H 1.5 C 0.7 10.900000000000013 0 10.200000000000012 0 9.400000000000013 V 3.5000000000000124 C 0 2.7000000000000126 0.7 2.0000000000000124 1.5 2.0000000000000124 H 7.5 C 8.3 2.0000000000000124 9 2.7000000000000126 9 3.5000000000000124 V 5.800000000000012 H 23 V 3.5000000000000124 C 23 2.7000000000000126 23.7 2.0000000000000124 24.5 2.0000000000000124 H 30.5 C 31.3 2.0000000000000124 32 2.7000000000000126 32 3.5000000000000124 V 9.400000000000013 C 32 10.200000000000012 31.3 10.900000000000013 30.5 10.900000000000013 z M 23 9.400000000000013 V 8.3 H 9 V 9.400000000000013 C 9 10.000000000000012 8.7 10.500000000000012 8.2 10.700000000000012 L 14.4 21.100000000000012 H 17.6 L 23.8 10.700000000000012 C 23.4 10.500000000000012 23 10.000000000000012 23 9.400000000000013 z" fill="#F7F7F7" class="nc-icon-wrapper"></path></g></svg>