<svg width="32" height="32" viewBox="0 0 32 32" xmlns="http://www.w3.org/2000/svg"><g class="nc-icon-wrapper" fill="#444444"><path d="M5.733.087C5.107.214 4.419.785 4.107 1.42a1.605 1.605 0 0 0-.188.824c0 .444 0 .571.188.952.375.825 1.188 1.396 2.064 1.459h.438l.187.38c.188.445.438.635.75.635.25 0 .501-.127.626-.38.063-.19.063-.445-.188-.952l-.25-.38.188-.128c.062-.063.188-.317.313-.507.563-1.015.187-2.22-.876-2.918-.5-.381-1.063-.508-1.626-.318zm1.063 1.46c.375.253.5.951.25 1.395-.187.254-.75.444-1.125.317-.438-.127-.688-.444-.688-1.015.062-.38.125-.57.437-.76.313-.191.939-.128 1.126.063zM24.496.15c-.688.127-1.313.57-1.751 1.205-.688.888-.813 2.094-.313 3.045l.188.38-.563.635-.876.888c-.125.19-.625.698-1 1.142L19.18 8.461c-.125.127-.563.635-1 1.142-.501.444-1.064 1.079-1.377 1.396-.313.317-.688.761-.938 1.015l-.375.38-.438-.19c-.188-.127-.563-.254-.75-.317-.563-.19-1.44-.19-2.064 0-.188.063-.188.063-.438-.38-.313-.572-.75-.762-1.189-.381-.187.254-.187.254-.187.57 0 .191.062.318.062.318 0-.064.125.063.188.254l.188.317-.188.19c-1 .952-1.501 2.347-1.251 3.553 0 .253.063.57.125.634 0 .127-.062.19-.375.38a4.275 4.275 0 0 0-.438.318c-.063 0-.688.38-1.439.825-.687.444-1.313.824-1.375.824-.063.064-.126 0-.188 0-.188-.19-.626-.444-.876-.507-1.188-.317-2.501.57-2.814 1.84-.25 1.141.625 2.41 1.876 2.664.688.19 1.501-.127 2.064-.698.125-.19.313-.317.313-.317s.062-.064.062-.127.063-.254.125-.444c.063-.254.126-.444.126-.761l-.063-.444.25-.127c.188-.064.813-.508 1.501-.888.626-.444 1.189-.762 1.251-.762 0 0 .125-.063.188-.127.438-.38.5-.38.813 0 .75.698 1.689 1.142 2.564 1.142.25 0 .5 0 .5.064 0 0 .188.761.438 1.713.25.951.5 1.84.5 2.03.063.19.126.444.126.507.062.064.125.317.187.508 0 .19.063.444.125.507 0 .064.063.38.125.635l.126.444-.25.127c-.313.253-.689.57-.876.951-.125.19-.25.317-.313.254v.063c.063 0 0 .19-.063.38-.187.445-.187 1.333-.062 1.84.5 1.333 1.814 2.284 3.127 2.221.688-.063 1.501-.508 1.94-1.015.124-.127.25-.254.312-.254.125-.19.438-.825.5-1.205.125-.38.125-.952 0-1.46-.375-1.141-1.563-2.156-2.69-2.22l-.312-.063-.375-1.396c-.188-.76-.376-1.459-.376-1.522-.062-.064-.125-.317-.187-.508 0-.253-.063-.444-.063-.507-.062-.064-.062-.254-.125-.508-.062-.19-.125-.38-.125-.507 0-.064-.062-.127-.062-.19-.063-.127-.313-1.142-.313-1.206 0 0 .125-.127.313-.254.187-.063.5-.317.75-.507l.375-.38.376.253c.25.127.5.19.562.19.438 0 .751-.317.688-.76-.062-.255-.25-.445-.625-.635l-.375-.19.125-.381c.25-.888.125-2.03-.375-2.918l-.25-.508s.375-.444.812-.888c1.126-1.205 1.251-1.332 1.94-2.094.375-.38.687-.697.687-.634.063 0 .063 0 .063-.063-.063-.064.125-.254 1.501-1.713.5-.508.938-1.015 1.063-1.142l.626-.634.375-.445.375.19c.938.381 1.689.381 2.502-.063.876-.444 1.626-1.395 1.751-2.22.25-1.776-1.126-3.49-2.877-3.553-.25-.063-.625 0-.813.064zm1.314 1.332c.375.127.813.571.938 1.015.187.444.125 1.079-.063 1.46-.25.57-.813.887-1.5.887-.501 0-.877-.127-1.252-.507-.313-.317-.438-.635-.438-1.142-.062-1.332.939-2.094 2.314-1.713zM13.925 13.156c.375.063.563.19.75.253.313.254.876.825 1.001 1.142.563 1.27.126 2.919-1.063 3.553-.625.317-1.626.38-2.314.127-.375-.127-.938-.571-1.063-.761-.063-.064-.125-.19-.188-.254-.25-.254-.438-1.523-.313-2.157.188-.698.626-1.332 1.251-1.65.563-.317 1.376-.38 1.94-.253zm-9.069 7.041c.25.19.438.698.376.952-.063.634-.376.888-.939.888-.5-.063-.688-.19-.813-.507-.187-.254-.187-.762-.062-1.015a.91.91 0 0 1 .563-.381c.187-.063.75 0 .875.063zm12.634 7.169c.563.254.876.888.813 1.65-.062.444-.062.57-.187.76-.376.698-1.251 1.016-2.127.762-.688-.19-1.063-.761-1.063-1.65 0-.57.125-.951.438-1.268.5-.444 1.438-.571 2.126-.254zM8.422 6.622a.647.647 0 0 0-.312.38l-.063.254.313.634c.688 1.333 1.063 2.03 1.188 2.094.375.19.688.063.938-.19.125-.254.125-.508-.062-.825-.063-.19-.25-.444-.313-.635-.125-.126-.313-.57-.438-.824-.187-.317-.375-.635-.438-.698-.187-.317-.5-.317-.813-.19zm11.258 12.37c-.438.19-.563.698-.187 1.079a.47.47 0 0 0 .187.19c.063 0 .25.127.563.317.25.127.438.254.5.254 0 0 .126.063.25.19.439.254.876.508 1.189.635.25.126.313.126.563.063a.637.637 0 0 0 .375-.825c-.062-.253-.062-.253-1.814-1.268-.625-.381-1.188-.698-1.25-.698-.126 0-.25 0-.376.063zm7.693 2.791c-.313.064-.75.254-1 .444l-.25.19-.25-.126c-.564-.317-.689-.38-.877-.317-.312 0-.562.317-.562.634s.125.508.625.761l.375.19v.508c0 .444 0 .571.125.888.313.635 1.064 1.27 1.627 1.396.187.063.688.063 1 0 .5-.127 1.189-.634 1.501-1.142.188-.38.313-.951.313-1.269-.125-1.078-1.126-2.093-2.189-2.157-.188-.063-.375-.063-.438 0zm.813 1.46c.626.317.563 1.395 0 1.712-.313.127-.813.127-1.063 0-.375-.253-.5-.824-.313-1.332.188-.38.25-.38.626-.507.25-.064.563 0 .75.127z"></path></g></svg>