<svg xmlns="http://www.w3.org/2000/svg" width="32" height="32" viewBox="0 0 32 32"><title>hand</title><g fill="#212121" class="nc-icon-wrapper"><path transform="matrix(1 0 0 -1 0 32)" d="M 29.686 14.75 C 30.749 13.687 30.874 12.125 29.811 11.062 C 29.811 11.062 22.936 3.687 20.811 2.375 C 18.811 0.875 16.249 0 13.749 0 C 9.811 0 6.436 2.563 5.311 6.063 V 6.125 C 5.311 6.188 5.249 6.313 5.249 6.375 L 1.124 19.875 C 0.749 20.938 1.249 22.125 2.311 22.5 C 3.374 22.875 4.499 22.312 4.874 21.25 L 7.249 14.875 C 7.374 14.625 7.436 14.812 7.436 15 L 5.811 26.5 C 5.624 27.563 6.374 28.688 7.436 28.875 C 8.5 29.063 9.561 28.25 9.75 27.187 L 11.562 17.375 C 11.562 17.187 11.687 17.25 11.687 17.375 L 11.75 30 C 11.75 31.125 12.625 32 13.75 32 S 15.75 31.125 15.75 30 L 16.312 17.5 C 16.312 17.187 16.5 17.187 16.562 17.437 L 18.25 27.063 A 2.038 2.038 0 0 0 20.5 28.875 C 21.625 28.75 22.312 27.687 22.187 26.562 L 20.687 14.312 C 20.562 13.5 20.437 12.187 20.812 11.75 C 21.375 11.125 22.312 11.125 23.062 11.875 L 26.062 14.875 C 27.125 15.938 28.625 15.813 29.687 14.75 z" fill="#212121" class="nc-icon-wrapper"></path></g></svg>