<svg xmlns="http://www.w3.org/2000/svg" width="32" height="32" viewBox="0 0 32 32"><title>heat</title><g fill="#212121" class="nc-icon-wrapper"><path transform="matrix(1 0 0 -1 0 32)" d="M 20 14.875 V 28 C 20 30.188 18.187 32 16 32 C 13.812 32 12 30.187 12 28 V 14.875 C 9.625 13.5 8 10.937 8 8 C 8 3.562 11.563 0 16 0 C 20.438 0 24 3.563 24 8 C 24 10.938 22.375 13.5 20 14.875 z M 14 20 H 16 V 22 H 14 V 24 H 16 V 26 H 14 V 28 C 14 29.125 14.875 30 16 30 S 18 29.125 18 28 V 18 H 14 V 20 z M 16 2 C 12.687 2 10 4.688 10 8 C 10 8.313 10.063 8.688 10.125 9 C 10.563 6.187 13.063 4 16 4 C 19 4 21.438 6.188 21.875 9 C 21.938 8.687 22 8.312 22 8 C 22 4.687 19.312 2 16 2 z" fill="#212121" class="nc-icon-wrapper"></path></g></svg>