<svg width="32" height="32" viewBox="0 0 32 32" xmlns="http://www.w3.org/2000/svg"><g class="nc-icon-wrapper" fill="#444444"><path d="M20 17.125V4c0-2.188-1.813-4-4-4-2.188 0-4 1.813-4 4v13.125C9.625 18.5 8 21.063 8 24c0 4.438 3.563 8 8 8 4.438 0 8-3.563 8-8 0-2.938-1.625-5.5-4-6.875zM14 12h2v-2h-2V8h2V6h-2V4c0-1.125.875-2 2-2s2 .875 2 2v10h-4v-2zm2 18c-3.313 0-6-2.688-6-6 0-.313.063-.688.125-1 .438 2.813 2.938 5 5.875 5 3 0 5.438-2.188 5.875-5 .063.313.125.688.125 1 0 3.313-2.688 6-6 6z"></path></g></svg>