<svg xmlns="http://www.w3.org/2000/svg" width="32" height="32" viewBox="0 0 32 32"><title>helper</title><g fill="#212121" class="nc-icon-wrapper"><g fill="#212121"><path transform="scale(1,-1) translate(0,-32)" d="M 16 32 C 24.857 32 32 24.857 32 16 S 24.857 0 16 0 S 0 7.143 0 16 S 7.143 32 16 32 z M 28.714 21.143 C 28 22.857 27.071 24.357 25.714 25.714 C 24.357 27.071 22.786 28 21.071 28.714 L 19.714 24.357 A 8.75 8.75 0 0 0 22.43 22.5 C 23.215 21.714 23.93 20.786 24.358 19.786 L 28.715 21.143 z M 16 9.143 A 6.859 6.859 0 0 1 22.857 16 A 6.859 6.859 0 0 1 16 22.857 A 6.859 6.859 0 0 1 9.143 16 A 6.859 6.859 0 0 1 16 9.143 z M 6.286 25.714 C 4.929 24.357 4 22.786 3.286 21.071 L 7.643 19.714 A 8.75 8.75 0 0 0 9.5 22.43 C 10.286 23.215 11.214 23.93 12.214 24.358 L 10.857 28.715 C 9.143 28.001 7.643 27.072 6.286 25.715 z M 3.286 10.857 C 4 9.143 4.929 7.643 6.286 6.286 C 7.643 4.929 9.214 4 10.929 3.286 L 12.286 7.643 A 8.748 8.748 0 0 0 9.57 9.5 C 8.785 10.286 8.07 11.214 7.642 12.214 L 3.285 10.857 z M 25.714 6.286 C 27.071 7.643 28 9.214 28.714 10.929 L 24.357 12.286 A 8.748 8.748 0 0 0 22.5 9.57 C 21.714 8.785 20.786 8.07 19.786 7.642 L 21.143 3.285 C 22.857 3.999 24.357 4.928 25.714 6.285 z"></path></g></g></svg>