<svg xmlns="http://www.w3.org/2000/svg" width="32" height="32" viewBox="0 0 32 32"><title>history</title><g fill="#F7F7F7" class="nc-icon-wrapper"><path transform="matrix(1 0 0 -1 0 32)" d="M 18.286 30 C 10.714 30 4.57 23.857 4.57 16.286 H 0 L 5.929 10.357 H 16.857 L 12.214 16.286 H 7.643 C 7.643 22.143 12.429 26.929 18.286 26.929 C 24.214 26.929 29 22.143 29 16.286 C 29 10.429 24.214 5.643 18.286 5.643 C 15.357 5.643 12.714 6.857 10.786 8.786 L 8.643 6.57 C 11.071 4.142 14.5 2.57 18.286 2.57 C 25.857 2.571 32 8.714 32 16.286 C 32 23.857 25.857 30 18.286 30 z M 16.786 22.357 V 14.786 L 23.286 10.857 L 24.429 12.714 L 19.071 15.929 V 22.357 H 16.786 z" fill="#F7F7F7" class="nc-icon-wrapper"></path></g></svg>