<svg width="32" height="32" viewBox="0 0 32 32" xmlns="http://www.w3.org/2000/svg"><g class="nc-icon-wrapper" fill="#444444"><path d="M31.34 12.097H.66a.66.66 0 0 0-.66.679v6.533c0 .34.33.679.66.679h30.68c.33 0 .66-.34.66-.679v-6.533a.66.66 0 0 0-.66-.679zM18.64 2H.66C.33 2 0 2.34 0 2.679v6.533c0 .424.33.679.66.679h17.98a.736.736 0 0 0 .494-.679V2.68A.736.736 0 0 0 18.639 2zm4.04 20.11H.66a.66.66 0 0 0-.66.678v6.533c0 .34.33.679.66.679h22.02c.413 0 .66-.34.66-.679v-6.533c0-.424-.247-.679-.66-.679z"></path></g></svg>