<svg xmlns="http://www.w3.org/2000/svg" width="32" height="32" viewBox="0 0 32 32"><title>icon chart bar horizontal</title><g fill="#F7F7F7" class="nc-icon-wrapper"><path transform="matrix(1 0 0 -1 0 32)" d="M 31.34 19.903 H 0.66 A 0.66 0.66 0 0 1 0 19.224 V 12.691 C 0 12.351 0.33 12.012 0.66 12.012 H 31.34 C 31.67 12.012 32 12.352 32 12.691 V 19.224 A 0.66 0.66 0 0 1 31.34 19.903 z M 18.64 30 H 0.66 C 0.33 30 0 29.66 0 29.321 V 22.788 C 0 22.364 0.33 22.109 0.66 22.109 H 18.64 A 0.736 0.736 0 0 1 19.134 22.788 V 29.32 A 0.736 0.736 0 0 1 18.639 30 z M 22.68 9.89 H 0.66 A 0.66 0.66 0 0 1 0 9.212 V 2.679 C 0 2.339 0.33 2 0.66 2 H 22.68 C 23.093 2 23.34 2.34 23.34 2.679 V 9.212 C 23.34 9.636 23.093 9.891 22.68 9.891 z" fill="#F7F7F7" class="nc-icon-wrapper"></path></g></svg>