<svg xmlns="http://www.w3.org/2000/svg" width="32" height="32" viewBox="0 0 32 32"><title>icon chart horz bar</title><g fill="#212121" class="nc-icon-wrapper"><path transform="matrix(1 0 0 -1 0 32)" d="M 31.467 5 H 0.533 A 0.524 0.524 0 0 0 0 5.53 V 7.65 C 0 7.916 0.267 8.18 0.533 8.18 H 31.467 C 31.8 8.18 32 7.85 32 7.65 V 5.53 C 32 5.199 31.8 5 31.467 5 z M 25.133 11.229 H 0.533 C 0.2 11.229 0 11.56 0 11.759 V 13.879 C 0 14.211 0.267 14.409 0.533 14.409 H 25.133 C 25.4 14.409 25.6 14.145 25.6 13.879 V 11.759 C 25.6 11.56 25.333 11.229 25.133 11.229 z M 15.467 17.657 H 0.533 C 0.2 17.657 0 17.987 0 18.187 V 20.307 C 0 20.572 0.267 20.837 0.533 20.837 H 15.467 C 15.8 20.837 16 20.506 16 20.307 V 18.187 C 16 17.789 15.667 17.657 15.467 17.657 z M 10.133 23.819 H 0.533 C 0.2 23.82 0 24.151 0 24.35 V 26.47 C 0 26.802 0.267 27 0.533 27 H 10.133 C 10.467 27 10.667 26.735 10.667 26.47 V 24.35 C 10.667 24.084 10.4 23.82 10.133 23.82 z" fill="#212121" class="nc-icon-wrapper"></path></g></svg>