<svg xmlns="http://www.w3.org/2000/svg" width="32" height="32" viewBox="0 0 32 32"><title>info filled</title><g fill="#F7F7F7" class="nc-icon-wrapper"><path transform="matrix(1 0 0 -1 0 32)" d="M 16 32 C 24.846 32 32 24.846 32 16 S 24.846 0 16 0 S 0 7.154 0 16 S 7.154 32 16 32 z M 15.692 24 C 14.846 24 14.154 23.308 14.154 22.462 C 14.154 21.615 14.846 20.923 15.692 20.923 C 16.538 20.923 17.231 21.615 17.231 22.462 C 17.231 23.308 16.538 24 15.692 24 z M 18.462 8.615 V 9.231 H 17.23 V 19.077 H 13.537 V 18.461 H 14.768 V 9.231 H 13.538 V 8.615 H 18.461 z" fill="#F7F7F7" class="nc-icon-wrapper"></path></g></svg>