<svg xmlns="http://www.w3.org/2000/svg" width="32" height="32" viewBox="0 0 32 32"><title>inspect</title><g fill="#212121" class="nc-icon-wrapper"><path transform="matrix(1 0 0 -1 0 32)" d="M 4.28 32 C 2.475 32 1 30.553 1 28.785 V 4.672 C 1 2.904 2.476 1.457 4.28 1.457 H 19.702 C 16.772 1.457 14.132 2.706 12.222 4.672 H 4.279 V 28.785 H 22.316 V 22.003 C 23.5 21.707 24.61 21.249 25.595 20.597 V 28.785 C 25.595 30.553 24.119 32 22.315 32 H 4.28 z M 7.559 25.57 V 22.355 H 19.036 V 25.57 H 7.56 z M 19.702 20.747 C 14.805 20.747 10.838 16.858 10.838 12.057 C 10.838 7.255 14.805 3.316 19.703 3.316 A 8.975 8.975 0 0 1 24.724 4.873 L 29.694 0 L 32 2.26 L 27.03 7.133 C 28.013 8.535 28.618 10.231 28.618 12.057 C 28.618 16.858 24.6 20.747 19.703 20.747 z M 7.56 19.14 V 15.925 H 9.968 C 10.468 17.127 11.221 18.214 12.12 19.14 H 7.56 z M 19.703 17.281 C 22.642 17.281 25.033 14.939 25.033 12.056 C 25.033 9.174 22.643 6.832 19.703 6.832 S 14.375 9.174 14.375 12.056 C 14.375 14.939 16.764 17.281 19.704 17.281 z M 16.885 14.317 C 16.364 13.693 16.015 12.925 16.015 12.057 C 16.015 11.067 16.429 10.149 17.09 9.494 H 22.317 V 14.317 H 16.885 z M 7.56 12.71 V 9.494 H 9.507 C 9.297 10.314 9.199 11.184 9.199 12.057 C 9.199 12.283 9.236 12.487 9.251 12.71 H 7.559 z" fill="#212121" class="nc-icon-wrapper"></path></g></svg>