<svg width="32" height="32" viewBox="0 0 32 32" xmlns="http://www.w3.org/2000/svg"><g class="nc-icon-wrapper" fill="#444444"><path d="M24.931 11.4c0 .274-.166.52-.419.62l-6.228 2.516V5.2L24.93 3.33v8.07zM17.62 3.974L10.74 2.059 17.43.029a.655.655 0 0 1 .38 0l6.687 2.03-6.877 1.915zm-6.895 8.048a.67.67 0 0 1-.417-.622V3.329l6.647 1.873v9.335l-6.23-2.515zm15.106 2.102s5.33 2.02 5.337 2.024c0 0-5.566 1.908-5.572 1.908-.007 0-5.572-1.908-5.572-1.908.006-.004 5.339-2.024 5.339-2.024a.654.654 0 0 1 .468 0zM19.613 22.8v-5.375l5.318 1.832v6.64L19.98 23.4a.67.67 0 0 1-.366-.6zm6.648-3.543l5.318-1.832V22.8a.672.672 0 0 1-.367.6l-4.951 2.497v-6.64zM10.307 32V21.247l7.977-3.141v10.729a.673.673 0 0 1-.455.637L10.307 32zM1 28.835v-10.73l7.977 3.142V32l-7.522-2.528A.673.673 0 0 1 1 28.835zm8.851-14.05l7.123 2.396-7.333 2.886L2.31 17.18l7.122-2.394a.662.662 0 0 1 .42 0z"></path></g></svg>