<svg xmlns="http://www.w3.org/2000/svg" width="32" height="32" viewBox="0 0 32 32"><title>integrations</title><g fill="#212121" class="nc-icon-wrapper"><g fill="#212121"><path transform="scale(1,-1) translate(0,-32)" d="M 24.931 20.6 C 24.931 20.326 24.765 20.08 24.512 19.98 L 18.284 17.464 V 26.8 L 24.93 28.67 V 20.6 z M 17.62 28.026 L 10.74 29.941 L 17.43 31.971 A 0.655 0.655 0 0 0 17.81 31.971 L 24.497 29.941 L 17.62 28.026 z M 10.725 19.978 A 0.67 0.67 0 0 0 10.308 20.6 V 28.671 L 16.955 26.798 V 17.463 L 10.725 19.978 z M 25.831 17.876 S 31.161 15.856 31.168 15.852 C 31.168 15.852 25.602 13.944 25.596 13.944 C 25.589 13.944 20.024 15.852 20.024 15.852 C 20.030000000000012 15.856 25.363000000000014 17.876 25.363000000000014 17.876 A 0.654 0.654 0 0 0 25.831000000000014 17.876 z M 19.613 9.2 V 14.575 L 24.931 12.743 V 6.103 L 19.98 8.6 A 0.67 0.67 0 0 0 19.614 9.2 z M 26.261 12.743 L 31.579 14.575 V 9.2 A 0.672 0.672 0 0 0 31.212 8.6 L 26.261 6.103 V 12.743 z M 10.307 0 V 10.753 L 18.284 13.894 V 3.165 A 0.673 0.673 0 0 0 17.829 2.528 L 10.307 0 z M 1 3.165 V 13.895 L 8.977 10.753 V 0 L 1.455 2.528 A 0.673 0.673 0 0 0 1 3.165 z M 9.851 17.215 L 16.974 14.819 L 9.641 11.933 L 2.31 14.82 L 9.432 17.214 A 0.662 0.662 0 0 0 9.852 17.214 z"></path></g></g></svg>