<svg xmlns="http://www.w3.org/2000/svg" width="32" height="32" viewBox="0 0 32 32"><title>ip</title><g fill="#F7F7F7" class="nc-icon-wrapper"><path transform="matrix(1 0 0 -1 0 32)" d="M 15.8 32 C 8.76 32 3 26.24 3 19.2 C 3 9.6 15.8 0 15.8 0 S 28.6 9.6 28.6 19.2 C 28.6 26.24 22.84 32 15.8 32 z M 11 24 H 13.25 V 12.8 H 11 V 24 z M 15.8 24 H 19.65 C 21.89 24 23.3 22.38 23.3 20.3 C 23.3 18.38 22.21 16.8 19.65 16.8 H 18.05 V 12.8 H 15.8 V 24 z M 18.05 22.1 V 18.55 H 19.65 C 20.29 18.55 20.9 19.03 20.9 20.15 C 20.9 21.11 20.61 22.1 19.65 22.1 H 18.05 z" fill="#F7F7F7" class="nc-icon-wrapper"></path></g></svg>