<svg xmlns="http://www.w3.org/2000/svg" width="32" height="32" viewBox="0 0 32 32"><title>key outline</title><g fill="#F7F7F7" class="nc-icon-wrapper"><path transform="matrix(1 0 0 -1 0 32)" d="M 2.9 29.1 C 6.7 32.9 12.9 32.9 16.7 29.1 C 18.9 26.9 19.9 23.6 19.4 20.5 L 31.6 8.6 C 31.9 8.3 32 8 32 7.6 V 1.4 C 32 0.6 31.4 0 30.6 0 H 25 C 24.6 0 24.3 0.2 24 0.4 L 21.9 2.5 C 21.6 2.8 21.5 3.1 21.5 3.5 L 21.8 6.5 L 18.8 6.2 C 18 6.2 17.4 6.8 17.4 7.6 L 17.7 10.6 L 14.7 10.3 C 14.4 10.3 14 10.4 13.7 10.7 L 11.5 12.6 C 8.4 12 5.1 13 2.9 15.3 C 1 17.2 0 19.7 0 22.2 S 1 27.2 2.9 29.1 z M 15.6 28.1 C 12.4 31.3 7.1 31.3 3.9 28.1 C 2.3 26.5 1.5 24.4 1.5 22.2 C 1.5 20.1 2.3 18 3.9 16.4 C 5.9 14.4 8.8 13.6 11.5 14.2 L 11.9 14.3 L 14.6 11.9 L 19.4 12.4 L 18.9 7.7 L 23.6 8.2 L 23 3.5 L 25 1.5 H 30.5 V 7.7 L 17.7 20.1 L 17.8 20.5 C 18.4 23.2 17.6 26.1 15.6 28.1 z M 9.6 24.1 C 8.7 24.1 7.9 23.3 7.9 22.4 C 7.9 21.5 8.7 20.7 9.6 20.7 C 10.5 20.7 11.3 21.5 11.3 22.4 C 11.3 23.3 10.5 24.1 9.6 24.1 z M 6.4 22.4 C 6.4 24.2 7.8 25.6 9.6 25.6 S 12.8 24.2 12.8 22.4 S 11.4 19.2 9.6 19.2 S 6.4 20.6 6.4 22.4 z" fill="#F7F7F7" class="nc-icon-wrapper"></path></g></svg>