<?xml version="1.0" encoding="utf-8"?>
<!-- Generator: Adobe Illustrator 24.2.3, SVG Export Plug-In . SVG Version: 6.00 Build 0)  -->
<svg version="1.1" id="Layer_1" xmlns="http://www.w3.org/2000/svg" xmlns:xlink="http://www.w3.org/1999/xlink" x="0px" y="0px"
	 viewBox="0 0 32 32" style="enable-background:new 0 0 32 32;" xml:space="preserve">
<path d="M31.4,22.7L19.8,11.4C20.2,8.3,19.2,5.2,17,3C13.1-0.9,6.8-0.9,3,3C1,4.9,0,7.4,0,10C0,12.5,1,15,3,17
	c2.2,2.2,5.4,3.3,8.6,2.8l1.9,1.7l0,0c0.3,0.3,0.8,0.5,1.2,0.5h0.1l2.4-0.3L16.8,24V24c0,1,0.8,1.9,1.9,1.9h0.1l2.4-0.3L20.8,28v0.1
	c0,0.5,0.2,1,0.5,1.3l0,0l2,2l0,0c0.4,0.4,0.8,0.5,1.3,0.5h5.4c1,0,1.9-0.8,1.9-1.9v-6C32,23.5,31.7,23.1,31.4,22.7z M29.5,29.5
	h-4.6l-1.7-1.7l0.6-5l-4.5,0.5l0.5-4.5l-5,0.6l-2.6-2.3l-0.6,0.1c-2.5,0.6-5.1-0.2-7-2c-1.5-1.5-2.2-3.4-2.2-5.3s0.7-3.9,2.2-5.3
	c2.9-2.9,7.7-2.9,10.6,0c1.8,1.8,2.6,4.4,2,6.9l-0.1,0.7l12.4,12V29.5z M9.8,6.2c-2,0-3.6,1.6-3.6,3.6c0,2,1.6,3.6,3.6,3.6
	c2,0,3.6-1.6,3.6-3.6C13.4,7.8,11.8,6.2,9.8,6.2z M9.8,11c-0.6,0-1.2-0.5-1.2-1.2c0-0.6,0.5-1.2,1.2-1.2c0.6,0,1.2,0.5,1.2,1.2
	C11,10.5,10.5,11,9.8,11z"/>
</svg>
