<svg xmlns="http://www.w3.org/2000/svg" width="32" height="32" viewBox="0 0 32 32"><title>key outline small</title><g fill="#212121" class="nc-icon-wrapper"><path transform="matrix(1 0 0 -1 0 32)" d="M 31.4 9.3 L 19.8 20.6 C 20.2 23.7 19.2 26.8 17 29 C 13.1 32.9 6.8 32.9 3 29 C 1 27.1 0 24.6 0 22 C 0 19.5 1 17 3 15 C 5.2 12.8 8.4 11.7 11.6 12.2 L 13.5 10.5 C 13.8 10.2 14.3 10 14.7 10 H 14.8 L 17.2 10.3 L 16.8 8 C 16.8 7 17.6 6.1 18.7 6.1 H 18.8 L 21.2 6.4 L 20.8 4 V 3.9 C 20.8 3.4 21 2.9 21.3 2.6 L 23.3 0.6 C 23.7 0.2 24.1 0.1 24.6 0.1 H 30 C 31 0.1 31.9 0.9 31.9 2 V 8 C 32 8.5 31.7 8.9 31.4 9.3 z M 29.5 2.5 H 24.9 L 23.2 4.2 L 23.8 9.2 L 19.3 8.7 L 19.8 13.2 L 14.8 12.6 L 12.2 14.9 L 11.6 14.8 C 9.1 14.2 6.5 15 4.6 16.8 C 3.1 18.3 2.4 20.2 2.4 22.1 S 3.1 26 4.6 27.4 C 7.5 30.3 12.3 30.3 15.2 27.4 C 17 25.6 17.8 23 17.2 20.5 L 17.1 19.8 L 29.5 7.8 V 2.5 z M 9.8 25.8 C 7.8 25.8 6.2 24.2 6.2 22.2 S 7.8 18.6 9.8 18.6 S 13.4 20.2 13.4 22.2 S 11.8 25.8 9.8 25.8 z M 9.8 21 C 9.2 21 8.6 21.5 8.6 22.2 C 8.6 22.8 9.1 23.4 9.8 23.4 C 10.4 23.4 11 22.9 11 22.2 S 10.5 21 9.8 21 z" fill="#212121" class="nc-icon-wrapper"></path></g></svg>