<?xml version="1.0" encoding="utf-8"?>
<!-- Generator: Adobe Illustrator 24.2.3, SVG Export Plug-In . SVG Version: 6.00 Build 0)  -->
<svg version="1.1" id="Layer_1" xmlns="http://www.w3.org/2000/svg" xmlns:xlink="http://www.w3.org/1999/xlink" x="0px" y="0px"
	 viewBox="0 0 32 32" style="enable-background:new 0 0 32 32;" xml:space="preserve">
<style type="text/css">
	.st0{fill-rule:evenodd;clip-rule:evenodd;}
</style>
<g>
	<g>
		<path class="st0" d="M2.9,2.9c3.8-3.8,10-3.8,13.8,0c2.2,2.2,3.2,5.5,2.7,8.6l12.2,11.9c0.3,0.3,0.4,0.6,0.4,1v6.2
			c0,0.8-0.6,1.4-1.4,1.4H25c-0.4,0-0.7-0.2-1-0.4c0,0,0,0,0,0l-2.1-2.1c0,0,0,0,0,0c-0.3-0.3-0.4-0.6-0.4-1v0l0.3-3l-3,0.3h0
			c-0.8,0-1.4-0.6-1.4-1.4v0l0.3-3l-3,0.3h0c-0.3,0-0.7-0.1-1-0.4c0,0,0,0,0,0l-2.2-1.9c-3.1,0.6-6.4-0.4-8.6-2.7
			C1,14.8,0,12.3,0,9.8C0,7.3,1,4.8,2.9,2.9z M15.6,3.9c-3.2-3.2-8.5-3.2-11.7,0C2.3,5.5,1.5,7.6,1.5,9.8c0,2.1,0.8,4.2,2.4,5.8
			c2,2,4.9,2.8,7.6,2.2l0.4-0.1l2.7,2.4l4.8-0.5l-0.5,4.7l4.7-0.5L23,28.5l2,2h5.5v-6.2L17.7,11.9l0.1-0.4
			C18.4,8.8,17.6,5.9,15.6,3.9z M9.6,7.9c-0.9,0-1.7,0.8-1.7,1.7c0,0.9,0.8,1.7,1.7,1.7c0.9,0,1.7-0.8,1.7-1.7
			C11.3,8.7,10.5,7.9,9.6,7.9z M6.4,9.6c0-1.8,1.4-3.2,3.2-3.2s3.2,1.4,3.2,3.2s-1.4,3.2-3.2,3.2S6.4,11.4,6.4,9.6z"/>
	</g>
</g>
</svg>
