<?xml version="1.0" encoding="utf-8"?>
<!-- Generator: Adobe Illustrator 24.2.3, SVG Export Plug-In . SVG Version: 6.00 Build 0)  -->
<svg version="1.1" id="Layer_1" xmlns="http://www.w3.org/2000/svg" xmlns:xlink="http://www.w3.org/1999/xlink" x="0px" y="0px"
	 viewBox="0 0 32 32" style="enable-background:new 0 0 32 32;" xml:space="preserve">
<path d="M31.8,24.2L18.7,11.5c0.7-3.1-0.3-6.4-2.5-8.7c-3.7-3.7-9.7-3.7-13.4,0C0.9,4.6,0,7,0,9.5s0.9,4.8,2.8,6.7
	c2.3,2.3,5.6,3.2,8.7,2.5l2.6,2.2c0.1,0.1,0.3,0.2,0.5,0.2l4.1-0.5l-0.5,4.1c0,0.4,0.3,0.7,0.7,0.7L23,25l-0.5,4.1
	c0,0.2,0.1,0.4,0.2,0.5l2.2,2.2c0.1,0.1,0.3,0.2,0.5,0.2h5.8c0.4,0,0.7-0.3,0.7-0.7v-6.5C32,24.5,31.9,24.3,31.8,24.2z M9.6,12.2
	c-1.6,0-2.9-1.3-2.9-2.9c0-1.6,1.3-2.9,2.9-2.9c1.6,0,2.9,1.3,2.9,2.9C12.5,10.9,11.2,12.2,9.6,12.2z"/>
</svg>
