<svg xmlns="http://www.w3.org/2000/svg" width="32" height="32" viewBox="0 0 32 32"><title>key</title><g fill="#F7F7F7" class="nc-icon-wrapper"><path transform="matrix(1 0 0 -1 0 32)" d="M 31.8 7.8 L 18.7 20.5 C 19.4 23.6 18.4 26.9 16.2 29.2 C 12.5 32.9 6.5 32.9 2.8 29.2 C 0.9 27.4 0 25 0 22.5 S 0.9 17.7 2.8 15.8 C 5.1 13.5 8.4 12.6 11.5 13.3 L 14.1 11.1 C 14.2 11 14.4 10.9 14.6 10.9 L 18.7 11.4 L 18.2 7.3 C 18.2 6.9 18.5 6.6 18.9 6.6 L 23 7 L 22.5 2.9 C 22.5 2.7 22.6 2.5 22.7 2.4 L 24.9 0.2 C 25 0.1 25.2 0 25.4 0 H 31.2 C 31.6 0 31.9 0.3 31.9 0.7 V 7.2 C 32 7.5 31.9 7.7 31.8 7.8 z M 9.6 19.8 C 8 19.8 6.7 21.1 6.7 22.7 C 6.7 24.3 8 25.6 9.6 25.6 C 11.2 25.6 12.5 24.3 12.5 22.7 C 12.5 21.1 11.2 19.8 9.6 19.8 z" fill="#F7F7F7" class="nc-icon-wrapper"></path></g></svg>