<svg xmlns="http://www.w3.org/2000/svg" width="32" height="32" viewBox="0 0 32 32"><title>keyboard</title><g fill="#F7F7F7" class="nc-icon-wrapper"><path transform="matrix(1 0 0 -1 0 32)" d="M 2.91 27 H 29.09 A 2.911 2.911 0 0 0 32 24.09 V 8.09 A 2.912 2.912 0 0 0 29.09 5.182 H 2.91 A 2.912 2.912 0 0 0 0 8.09 V 24.09 A 2.911 2.911 0 0 0 2.91 27 z M 17.454 21.182 A 1.454 1.454 0 1 1 14.547 21.183 A 1.454 1.454 0 0 1 17.454 21.182 z M 16 16.818 A 1.454 1.454 0 1 1 15.999 13.91 A 1.454 1.454 0 0 1 16 16.818 z M 13.09 21.182 A 1.454 1.454 0 1 1 10.183 21.183 A 1.454 1.454 0 0 1 13.091 21.182 z M 11.636 16.818 A 1.454 1.454 0 1 1 11.636 13.91 A 1.454 1.454 0 0 1 11.636 16.818 z M 5.818 15.364 A 1.454 1.454 0 1 1 8.726 15.363 A 1.454 1.454 0 0 1 5.818 15.363 z M 7.273 19.727 A 1.454 1.454 0 1 1 7.273 22.635 A 1.454 1.454 0 0 1 7.273 19.727 z M 10.182 11 V 8.09 H 21.818 V 11 H 10.182 z M 20.364 13.91 A 1.454 1.454 0 1 1 20.364 16.817 A 1.454 1.454 0 0 1 20.364 13.909 z M 18.909 21.182 A 1.454 1.454 0 1 1 21.817 21.181 A 1.454 1.454 0 0 1 18.909 21.181 z M 24.727 19.727 A 1.454 1.454 0 1 1 24.728 22.635 A 1.454 1.454 0 0 1 24.728 19.727 z M 23.273 15.364 A 1.454 1.454 0 1 1 26.181 15.363 A 1.454 1.454 0 0 1 23.273 15.363 z" fill="#F7F7F7" class="nc-icon-wrapper"></path></g></svg>