<svg xmlns="http://www.w3.org/2000/svg" width="32" height="32" viewBox="0 0 32 32"><title>library</title><g fill="#F7F7F7" class="nc-icon-wrapper"><path transform="matrix(1 0 0 -1 0 32)" d="M 8.174 28.881 L 14.357 25.79 C 14.881 25.528 15.211 24.993 15.211 24.408 V 7.77 A 1.545 1.545 0 0 0 12.975 6.387 L 6.792 9.478 A 1.546 1.546 0 0 0 5.937 10.861 V 27.499 A 1.546 1.546 0 0 0 8.174 28.881 z M 0.075 22.271 A 4.316 4.316 0 0 0 4.391 26.588 H 4.477 V 24.138 H 4.39 C 3.36 24.138 2.524 23.302 2.524 22.271 V 6.814 C 2.524 5.784 3.36 4.948 4.39 4.948 H 27.576 C 28.606 4.948 29.442 5.784 29.442 6.814 V 22.271 A 1.866 1.866 0 0 1 27.576 24.138 H 27.166 V 26.588 H 27.576 A 4.316 4.316 0 0 0 31.892 22.271 V 6.814 A 4.316 4.316 0 0 0 27.576 2.498 H 4.391 A 4.316 4.316 0 0 0 0.075 6.814 V 22.271 z M 17.612 25.79 L 23.795 28.881 A 1.546 1.546 0 0 0 26.03 27.5 V 10.86 C 26.03 10.275 25.7 9.74 25.176 9.477 L 18.993 6.387 A 1.546 1.546 0 0 0 16.756 7.769 V 24.408 C 16.756 24.993 17.087 25.528 17.611 25.79 z" fill="#F7F7F7" class="nc-icon-wrapper"></path></g></svg>