<svg xmlns="http://www.w3.org/2000/svg" width="32" height="32" viewBox="0 0 32 32"><title>line chart</title><g fill="#212121" class="nc-icon-wrapper"><path transform="matrix(1 0 0 -1 0 32)" d="M 1.075 13.83 C 0.201 14.084 -0.174 14.656 0.076 15.674 C 0.263 16.564 0.826 16.946 1.762 16.692 L 4.885 15.928 L 3.261 13.321 L 1.075 13.829 z M 29.494 13.448 C 29.744 13.702 30.118 13.829 30.493 13.829 C 30.93 13.766 31.243 13.639 31.493 13.321 C 32.179 12.621 32.179 11.921 31.43 11.221 L 23.435 3.908 C 23.123 3.654 22.811 3.526 22.435 3.526 C 22.124 3.526 21.874 3.654 21.562 3.844 L 12.442 10.967 L 10.694 11.477 L 12.318 14.02 L 13.442 13.766 C 13.692 13.702 13.879 13.639 13.942 13.511 L 22.373 6.897 L 29.493 13.447 z M 13.817 20.57 L 2.699 2.763 C 2.449 2.254 2.012 2 1.45 2 C 1.2 2 0.95 2.127 0.7 2.318 A 1.314 1.314 0 0 0 0.076 3.208 C 0.014 3.654 0.076 3.972 0.263 4.29 L 12.193 23.37 C 12.38 23.751 12.63 23.942 13.067 24.069 C 13.442 24.196 13.817 24.133 14.254 23.879 L 22.061 18.79 L 29.244 29.348 C 29.494 29.729 29.806 29.92 30.181 29.984 C 30.555 30.047 30.931 29.92 31.242 29.666 C 32.054 29.157 32.179 28.521 31.617 27.694 L 23.623 15.928 C 23.06 15.165 22.436 15.038 21.623 15.547 L 13.817 20.571 z" fill="#212121" class="nc-icon-wrapper"></path></g></svg>