<svg width="32" height="32" viewBox="0 0 32 32" xmlns="http://www.w3.org/2000/svg"><g class="nc-icon-wrapper" fill="#444444"><path d="M28.175 5c-2.103 0-3.824 1.712-3.824 3.804 0 1.014.446 1.965 1.083 2.6l-2.422 3.106c-.574-.254-1.148-.507-1.785-.507-1.466 0-2.677.824-3.315 2.029l-2.23-1.078c0-2.092-1.722-3.804-3.825-3.804-2.104 0-3.825 1.712-3.825 3.804 0 .887.255 1.585.701 2.219l-2.613 2.98c-.638-.508-1.403-.825-2.295-.825C1.72 19.328 0 21.104 0 23.196 0 25.288 1.721 27 3.825 27c2.103 0 3.824-1.712 3.824-3.804 0-.76-.19-1.395-.573-1.966l2.677-3.043c.574.38 1.339.57 2.04.57 1.594 0 2.996-1.014 3.57-2.345l2.04 1.014c0 .127-.128.254-.128.38 0 2.093 1.785 3.868 3.888 3.868 2.104 0 3.825-1.775 3.825-3.867 0-.888-.382-1.712-.892-2.41l2.486-3.17c.51.19 1.02.318 1.593.318C30.28 12.545 32 10.833 32 8.74 32 6.648 30.279 5 28.175 5zM3.825 25.605c-1.339 0-2.423-1.078-2.423-2.346a2.415 2.415 0 0 1 2.423-2.409c1.275 0 2.358 1.078 2.358 2.41 0 1.267-1.083 2.345-2.358 2.345zm7.968-8.178c-1.275 0-2.422-1.078-2.422-2.41 0-1.268 1.147-2.346 2.422-2.346 1.275 0 2.422 1.078 2.422 2.346 0 1.332-1.147 2.41-2.422 2.41zm9.37 2.853c-1.338 0-2.422-1.078-2.422-2.346a2.415 2.415 0 0 1 2.422-2.41c1.275 0 2.359 1.078 2.359 2.41 0 1.268-1.084 2.345-2.359 2.345zm7.012-9.067c-1.275 0-2.358-1.078-2.358-2.409 0-1.268 1.083-2.346 2.358-2.346 1.339 0 2.423 1.078 2.423 2.346a2.415 2.415 0 0 1-2.423 2.41z"></path></g></svg>