<svg xmlns="http://www.w3.org/2000/svg" width="32" height="32" viewBox="0 0 32 32"><title>linear gauge</title><g fill="#212121" class="nc-icon-wrapper"><path transform="matrix(1 0 0 -1 0 32)" d="M 9.529999999999974 29.226 C 9.529999999999974 28.999 9.457999999999975 28.816 9.315999999999976 28.676 C 9.172999999999975 28.534 8.934999999999976 28.464 8.601999999999975 28.464 H 6.054999999999975 L 5.721999999999975 26.531 A 5.77 5.77 0 0 0 6.867999999999975 26.659 C 7.353999999999975 26.659 7.781999999999975 26.587 8.150999999999975 26.442 A 2.524 2.524 0 0 0 9.650999999999975 24.942 C 9.779999999999974 24.597 9.843999999999975 24.227 9.843999999999975 23.83 C 9.843999999999975 23.34 9.756999999999975 22.892 9.583999999999975 22.486 A 3.041 3.041 0 0 0 8.863999999999974 21.446 C 8.556999999999976 21.158 8.193999999999974 20.936 7.773999999999975 20.778 C 7.352999999999975 20.62 6.894999999999975 20.541 6.399999999999975 20.541 C 6.109999999999975 20.541 5.834999999999975 20.571 5.574999999999975 20.631 A 4.095 4.095 0 0 0 3.686999999999975 21.629 L 4.172999999999975 22.301 A 0.478 0.478 0 0 0 4.582999999999975 22.518 C 4.688999999999975 22.518 4.796999999999975 22.484 4.905999999999975 22.416 C 5.014999999999975 22.348 5.141999999999975 22.273 5.285999999999975 22.192 C 5.431999999999975 22.111 5.599999999999975 22.036 5.791999999999975 21.968 S 6.216999999999975 21.866 6.489999999999975 21.866 C 6.779999999999975 21.866 7.035999999999975 21.913 7.257999999999975 22.006 C 7.479999999999975 22.1 7.663999999999975 22.231 7.811999999999975 22.4 C 7.958999999999975 22.569 8.069999999999975 22.77 8.143999999999975 23.002 C 8.218999999999975 23.234 8.255999999999975 23.487 8.255999999999975 23.76 C 8.255999999999975 24.263 8.109999999999975 24.657 7.817999999999975 24.94 C 7.525999999999975 25.225 7.095999999999975 25.366 6.527999999999975 25.366 A 3.98 3.98 0 0 1 5.177999999999975 25.123 L 4.191999999999975 25.405 L 4.959999999999975 29.898 H 9.529999999999974 V 29.226 z M 17.727999999999977 25.27 C 17.727999999999977 24.464 17.641999999999975 23.763 17.468999999999976 23.168 C 17.295999999999975 22.573 17.056999999999974 22.081 16.751999999999974 21.693 A 2.899 2.899 0 0 0 15.670999999999975 20.826 C 15.254999999999974 20.636 14.805999999999974 20.541 14.323999999999975 20.541 C 13.840999999999974 20.541 13.393999999999975 20.636 12.982999999999976 20.826 A 2.886 2.886 0 0 0 11.910999999999975 21.693 C 11.607999999999976 22.081 11.370999999999976 22.573 11.200999999999976 23.168 C 11.029999999999974 23.763 10.943999999999974 24.464 10.943999999999974 25.27 C 10.943999999999974 26.081 11.029999999999974 26.783 11.199999999999974 27.376 C 11.370999999999976 27.969 11.607999999999976 28.46 11.909999999999975 28.848 C 12.213999999999976 29.236 12.570999999999975 29.525 12.982999999999976 29.715 C 13.393999999999975 29.905 13.840999999999974 30 14.322999999999976 30 C 14.805999999999974 30 15.254999999999974 29.905 15.670999999999975 29.715 C 16.086999999999975 29.525 16.446999999999974 29.236 16.751999999999974 28.848 C 17.056999999999974 28.46 17.295999999999975 27.969 17.468999999999976 27.376 C 17.641999999999975 26.783 17.728999999999974 26.081 17.728999999999974 25.27 z M 16.095999999999975 25.27 C 16.095999999999975 25.94 16.046999999999976 26.495 15.948999999999975 26.934 C 15.850999999999974 27.374 15.718999999999975 27.724 15.554999999999975 27.984 S 15.201999999999975 28.427 14.988999999999974 28.531 A 1.462 1.462 0 0 1 13.666999999999975 28.531 C 13.456999999999976 28.427 13.269999999999975 28.244 13.106999999999974 27.984 C 12.944999999999975 27.724 12.816999999999975 27.374 12.719999999999976 26.934 C 12.623999999999976 26.494 12.575999999999976 25.94 12.575999999999976 25.27 C 12.575999999999976 24.6 12.623999999999976 24.046 12.719999999999976 23.606 C 12.815999999999976 23.166 12.944999999999975 22.817 13.106999999999974 22.556 C 13.269999999999975 22.296 13.456999999999976 22.114 13.666999999999975 22.01 A 1.462 1.462 0 0 1 14.988999999999974 22.01 C 15.201999999999975 22.114 15.390999999999975 22.297 15.554999999999975 22.557 C 15.719999999999976 22.817 15.850999999999974 23.167 15.948999999999975 23.607 C 16.046999999999976 24.046 16.095999999999975 24.601 16.095999999999975 25.27 z M 22.713999999999974 27.658 C 22.713999999999974 27.308 22.654999999999976 26.992 22.537999999999975 26.71 A 2.228 2.228 0 0 0 22.067999999999977 25.99 A 2.123 2.123 0 0 0 20.569999999999975 25.372 C 20.262999999999973 25.372 19.978999999999974 25.426 19.718999999999976 25.532 A 1.943 1.943 0 0 0 19.043999999999976 25.99 A 2.105 2.105 0 0 0 18.598999999999975 26.71 A 2.656 2.656 0 0 0 18.438999999999975 27.658 C 18.438999999999975 28.016 18.491999999999976 28.34 18.598999999999975 28.63 C 18.704999999999973 28.92 18.853999999999974 29.166 19.043999999999976 29.366 C 19.233999999999973 29.566 19.457999999999974 29.722 19.718999999999976 29.83 C 19.978999999999974 29.94 20.262999999999973 29.994 20.568999999999974 29.994 C 20.876999999999974 29.994 21.161999999999974 29.939 21.423999999999975 29.83 A 1.985 1.985 0 0 0 22.553999999999974 28.63 C 22.660999999999976 28.34 22.713999999999974 28.016 22.713999999999974 27.658 z M 21.491999999999976 27.658 C 21.491999999999976 27.905 21.467999999999975 28.112 21.421999999999976 28.278 A 1.11 1.11 0 0 1 21.225999999999964 28.682 A 0.717 0.717 0 0 1 20.930999999999962 28.902 A 0.973 0.973 0 0 1 20.56999999999996 28.97 A 0.948 0.948 0 0 1 20.211999999999964 28.902 A 0.7 0.7 0 0 1 19.922999999999963 28.682 A 1.107 1.107 0 0 1 19.734999999999964 28.278 A 2.43 2.43 0 0 1 19.667999999999964 27.658 C 19.667999999999964 27.418 19.689999999999962 27.219 19.734999999999964 27.059 C 19.779999999999962 26.899 19.841999999999963 26.77 19.923999999999964 26.672 A 0.693 0.693 0 0 1 20.210999999999963 26.461 A 0.99 0.99 0 0 1 20.56999999999996 26.397 C 20.69799999999996 26.397 20.817999999999962 26.418 20.931999999999963 26.461 A 0.712 0.712 0 0 1 21.225999999999964 26.672 C 21.308999999999962 26.77 21.373999999999963 26.899 21.420999999999964 27.059 C 21.46799999999996 27.219 21.490999999999964 27.419 21.490999999999964 27.658 z M 25.791999999999977 29.648 A 0.84 0.84 0 0 0 25.983999999999973 29.821 A 0.572 0.572 0 0 0 26.303999999999974 29.898 H 27.449999999999974 L 20.575999999999976 20.88 A 0.568 0.568 0 0 0 20.095999999999975 20.643 H 18.918999999999976 L 25.791999999999977 29.648 z M 27.935999999999975 22.819 C 27.935999999999975 22.469 27.877999999999975 22.154 27.759999999999977 21.872 A 2.228 2.228 0 0 0 27.289999999999974 21.152 A 2.084 2.084 0 0 0 26.604999999999976 20.692 C 26.344999999999974 20.582 26.073999999999977 20.528 25.791999999999977 20.528 C 25.484999999999975 20.528 25.201999999999973 20.582 24.941999999999975 20.691 A 1.98 1.98 0 0 0 24.265999999999973 21.152 A 2.105 2.105 0 0 0 23.820999999999977 21.872 A 2.656 2.656 0 0 0 23.660999999999976 22.819 C 23.660999999999976 23.178 23.713999999999974 23.502 23.820999999999977 23.792 C 23.927999999999976 24.082 24.075999999999976 24.327 24.265999999999973 24.528 C 24.455999999999975 24.728 24.680999999999976 24.883 24.940999999999974 24.992 C 25.200999999999976 25.101 25.484999999999975 25.155 25.791999999999977 25.155 C 26.099999999999977 25.155 26.383999999999975 25.101 26.646999999999974 24.992 A 1.985 1.985 0 0 0 27.776999999999976 23.792 C 27.882999999999974 23.502 27.936999999999976 23.178 27.936999999999976 22.819 z M 26.719999999999974 22.819 C 26.719999999999974 23.067 26.695999999999977 23.274 26.646999999999974 23.44 A 1.15 1.15 0 0 1 26.447999999999976 23.843 A 0.717 0.717 0 0 1 26.153999999999975 24.064 A 0.973 0.973 0 0 1 25.791999999999977 24.131 A 0.948 0.948 0 0 1 25.433999999999976 24.064 A 0.677 0.677 0 0 1 25.148999999999976 23.844 A 1.181 1.181 0 0 1 24.959999999999976 23.44 C 24.912999999999975 23.274 24.889999999999976 23.067 24.889999999999976 22.82 C 24.889999999999976 22.58 24.912999999999975 22.38 24.959999999999976 22.218 C 25.006999999999977 22.055 25.069999999999975 21.925 25.149999999999974 21.828 A 0.67 0.67 0 0 1 25.433999999999976 21.616 A 0.99 0.99 0 0 1 25.791999999999977 21.552 C 25.919999999999973 21.552 26.040999999999976 21.573 26.153999999999975 21.616 A 0.712 0.712 0 0 1 26.447999999999976 21.827 C 26.530999999999963 21.925 26.597999999999963 22.055 26.646999999999974 22.217 C 26.695999999999977 22.38 26.719999999999974 22.58 26.719999999999974 22.819 z M 16.79999999999995 17.444000000000013 H 15.199999999999962 V 12.644000000000013 H 16.79999999999995 V 17.444000000000013 z M 16.79999999999995 6.243 H 15.199999999999962 V 1.443 H 16.79999999999995 V 6.243 z M 32 11.043000000000012 H 0 V 7.843000000000012 H 32 V 11.043000000000012 z" fill="#212121" class="nc-icon-wrapper"></path></g></svg>