<svg width="32" height="32" viewBox="0 0 32 32" xmlns="http://www.w3.org/2000/svg"><g class="nc-icon-wrapper" fill="#444444"><path d="M29.799 2.326l-.125-.125c-2.934-2.935-7.742-2.935-10.677 0L12.13 9.007c-2.935 2.934-2.935 7.742 0 10.74l.125.124c.25.188.562.437.811.625l2.498-2.498c-.312-.125-.562-.375-.812-.624l-.125-.125a3.997 3.997 0 0 1 0-5.745L21.432 4.7a3.997 3.997 0 0 1 5.745 0l.125.124a3.997 3.997 0 0 1 0 5.745l-3.06 3.122a9.304 9.304 0 0 1 .75 4.12l4.807-4.807c2.935-2.935 2.935-7.743 0-10.677zm-10.053 9.803c-.25-.188-.562-.437-.811-.625l-2.498 2.498c.312.125.562.375.812.624l.125.125a3.997 3.997 0 0 1 0 5.745l-6.806 6.806a3.997 3.997 0 0 1-5.745 0l-.124-.125a3.997 3.997 0 0 1 0-5.745l3.059-3.122a9.304 9.304 0 0 1-.75-4.12l-4.807 4.807c-2.935 2.935-2.935 7.742 0 10.677l.125.125c2.934 2.935 7.742 2.935 10.677 0l6.868-6.806c2.935-2.934 2.935-7.742 0-10.74l-.125-.124z"></path></g></svg>