<svg xmlns="http://www.w3.org/2000/svg" width="32" height="32" viewBox="0 0 32 32"><title>list 1</title><g fill="#212121" class="nc-icon-wrapper"><g fill="#212121"><path transform="scale(1,-1) translate(0,-32)" d="M 31.313 1.625 H 11.313 C 10.937 1.625 10.687 1.938 10.687 2.313 V 9 C 10.687 9.375 10.937 9.625 11.313 9.625 H 31.313 C 31.688 9.625 32 9.375 32 9 V 2.312 A 0.694 0.694 0 0 0 31.312 1.625 z M 31.313 12.313 H 11.313 C 10.937 12.313 10.687 12.625 10.687 13 V 19.625 C 10.687 20 10.937 20.313 11.313 20.313 H 31.313 C 31.688 20.313 32 20 32 19.625 V 13 A 0.694 0.694 0 0 0 31.312 12.312 z M 31.313 23 H 11.313 C 10.937 23 10.687 23.25 10.687 23.625 V 30.313 C 10.687 30.688 10.937 31 11.313 31 H 31.313 C 31.688 31 32 30.687 32 30.312 V 23.625 C 32 23.25 31.687 23 31.312 23 z M 7.313 1.625 H 0.688 A 0.694 0.694 0 0 0 0 2.313 V 9 C 0 9.375 0.313 9.625 0.688 9.625 H 7.313 C 7.688 9.625 8 9.375 8 9 V 2.312 A 0.694 0.694 0 0 0 7.312 1.625 z M 7.313 12.313 H 0.688 A 0.694 0.694 0 0 0 0 13 V 19.625 C 0 20 0.313 20.313 0.688 20.313 H 7.313 C 7.688 20.313 8 20 8 19.625 V 13 A 0.694 0.694 0 0 0 7.312 12.312 z M 7.313 23 H 0.688 C 0.313 23 0 23.25 0 23.625 V 30.313 C 0 30.687 0.313 31 0.688 31 H 7.313 C 7.688 31 8 30.687 8 30.312 V 23.625 C 8 23.25 7.687 23 7.312 23 z"></path></g></g></svg>