<svg width="32" height="32" viewBox="0 0 32 32" xmlns="http://www.w3.org/2000/svg"><g class="nc-icon-wrapper" fill="#444444"><path d="M31.313 30.375h-20c-.376 0-.626-.313-.626-.688V23c0-.375.25-.625.626-.625h20c.375 0 .687.25.687.625v6.688a.694.694 0 0 1-.688.687zm0-10.688h-20c-.376 0-.626-.312-.626-.687v-6.625c0-.375.25-.688.626-.688h20c.375 0 .687.313.687.688V19a.694.694 0 0 1-.688.688zm0-10.687h-20c-.376 0-.626-.25-.626-.625V1.687c0-.375.25-.687.626-.687h20c.375 0 .687.313.687.688v6.687c0 .375-.313.625-.688.625zm-24 21.375H.688A.694.694 0 0 1 0 29.687V23c0-.375.313-.625.688-.625h6.625c.375 0 .687.25.687.625v6.688a.694.694 0 0 1-.688.687zm0-10.688H.688A.694.694 0 0 1 0 19v-6.625c0-.375.313-.688.688-.688h6.625c.375 0 .687.313.687.688V19a.694.694 0 0 1-.688.688zM7.313 9H.688C.313 9 0 8.75 0 8.375V1.687C0 1.313.313 1 .688 1h6.625c.375 0 .687.313.687.688v6.687C8 8.75 7.687 9 7.312 9z"></path></g></svg>