<svg xmlns="http://www.w3.org/2000/svg" width="32" height="32" viewBox="0 0 32 32"><title>loading</title><g fill="#F7F7F7" class="nc-icon-wrapper"><path transform="matrix(1 0 0 -1 0 32)" d="M 32 18.15 C 32 17.936 32 17.722 31.929 17.508 C 31.643 16.937 30.858 16.651 30.287 17.008 A 1.357 1.357 0 0 0 29.787 17.794 C 29.787 18.151 29.716 18.436 29.644 18.794 C 29.287 20.221 28.788 21.649 28.074 22.934 A 13.027 13.027 0 0 1 24.718 26.931 C 23.433 28.002 21.934 28.788 20.292 29.287 C 18.864 29.787 17.294 29.93 15.723 29.93 H 15.438 C 15.224 29.93 15.009 29.93 14.795 29.858 C 14.295 29.858 13.867 29.787 13.367 29.716 C 12.438999999999988 29.501 11.583 29.287 10.727 28.93 C 9.227 28.288 7.871 27.503 6.656999999999988 26.432 A 13.72 13.72 0 0 1 3.6589999999999874 22.719 C 2.8019999999999876 21.22 2.2309999999999874 19.507 1.9449999999999874 17.722 C 1.8029999999999875 16.937 1.7309999999999874 16.152 1.8029999999999875 15.295 C 1.8029999999999875 14.938 1.8029999999999875 14.51 1.8739999999999875 14.153 C 1.9449999999999874 13.725 2.0169999999999875 13.225 2.0879999999999876 12.796 C 2.4449999999999874 11.083 3.0879999999999876 9.441 4.086999999999987 8.013 C 5.014999999999987 6.586 6.156999999999988 5.301 7.513999999999988 4.301 A 15.005 15.005 0 0 1 12.153999999999987 1.945 C 13.938999999999988 1.445 15.794 1.232 17.651 1.445 C 19.436 1.588 21.149 2.017 22.791 2.802 C 23.576 3.23 24.361 3.659 25.07499999999999 4.23 C 25.788999999999987 4.73 26.431999999999988 5.3 27.003 5.943 C 27.288 6.3 27.573 6.586 27.86 6.943 C 28.073999999999987 7.299 28.36 7.656 28.573 8.013 C 29.002 8.727 29.43 9.441 29.787 10.226 C 30.000999999999987 10.798 30.287 11.44 30.572 12.011 C 30.644 12.297 30.786 12.654 30.858 12.939 C 30.929 13.225 30.929 13.439 31.001 13.724 C 31.071 13.082 31.001 12.511 30.929 11.868 C 30.858 11.511 30.786 11.083 30.644 10.726 C 30.572 10.369 30.429 10.012 30.287 9.656 C 30.073 9.013 29.716 8.299 29.359 7.656 C 29.002 6.871 28.502 6.157 27.931 5.515 C 27.36 4.872 26.789 4.23 26.146 3.659 C 24.78999999999999 2.588 23.291 1.659 21.719999999999988 1.089 C 20.078 0.446 18.29299999999999 0.089 16.579999999999988 0.018 A 15.388 15.388 0 0 0 11.154999999999987 0.803 A 15.002 15.002 0 0 0 6.514999999999987 3.159 C 5.157999999999988 4.159 3.9449999999999874 5.372 3.0159999999999876 6.729 C 2.5159999999999876 7.442 2.0159999999999876 8.156 1.6599999999999875 8.941 C 1.3029999999999875 9.727 0.9459999999999875 10.512 0.7319999999999875 11.297 A 15.709 15.709 0 0 0 0.0179999999999875 15.295 A 13.408 13.408 0 0 0 0.4459999999999875 19.435 C 0.8029999999999875 21.149 1.4459999999999875 22.791 2.3739999999999877 24.29 C 3.1589999999999874 25.575 4.229999999999987 26.789 5.3719999999999875 27.86 C 6.585999999999988 28.93 7.870999999999987 29.787 9.297999999999988 30.43 A 16.648 16.648 0 0 0 14.581 31.928 C 15.295 32 16.01 32 16.651 32 C 17.579 32 18.508 31.857 19.364 31.714 C 21.077 31.358 22.719 30.715 24.219 29.858 C 25.789 28.93 27.146 27.788 28.288 26.432 C 29.358 25.147 30.215 23.79 30.858 22.22 C 31.143 21.506 31.428 20.72 31.643 20.007 C 31.786 19.364 31.857 18.793 32 18.151 z" fill="#F7F7F7" class="nc-icon-wrapper"></path></g></svg>