<svg xmlns="http://www.w3.org/2000/svg" width="32" height="32" viewBox="0 0 32 32"><title>lock sm</title><g fill="#212121" class="nc-icon-wrapper"><g fill="#212121"><path transform="scale(1,-1) translate(0,-32)" d="M 27 18.7 H 24.3 V 24 C 24.3 28.4 20.7 32 16.3 32 S 8.3 28.4 8.3 24 V 18.7 H 5.6 C 4.1 18.7 2.9 17.5 2.9 16 V 2.7 C 2.9 1.2 4.1 0 5.6 0 H 27 C 28.5 0 29.7 1.2 29.7 2.7 V 16 C 29.7 17.5 28.5 18.7 27 18.7 z M 13.7 24 C 13.7 25.5 14.9 26.7 16.4 26.7 C 17.9 26.7 19.1 25.5 19.1 24 V 18.7 H 13.7 V 24 z"></path></g></g></svg>