<svg xmlns="http://www.w3.org/2000/svg" width="32" height="32" viewBox="0 0 32 32"><title>lock</title><g fill="#F7F7F7" class="nc-icon-wrapper"><path transform="matrix(1 0 0 -1 0 32)" d="M 15.8 32 C 10.482 32 6.2 27.922 6.2 22.857 V 21.333 C 4.44 21.333 3 19.962 3 18.286 V 3.048 C 3 1.37 4.44 0 6.2 0 H 25.4 C 27.16 0 28.6 1.371 28.6 3.048 V 18.286 C 28.6 19.962 27.16 21.333 25.4 21.333 V 22.857 C 25.4 27.922 21.118 32 15.8 32 z M 15.8 28.952 C 19.442 28.952 22.2 26.326 22.2 22.857 V 21.333 H 9.4 V 22.857 C 9.4 26.326 12.158 28.952 15.8 28.952 z M 15.8 13.714 C 17.56 13.714 19 12.343 19 10.667 C 19 8.99 17.56 7.619 15.8 7.619 C 14.04 7.619 12.6 8.99 12.6 10.667 C 12.6 12.343 14.04 13.714 15.8 13.714 z" fill="#F7F7F7" class="nc-icon-wrapper"></path></g></svg>