<svg width="32" height="32" viewBox="0 0 32 32" xmlns="http://www.w3.org/2000/svg"><g class="nc-icon-wrapper" fill="#444444"><path d="M15.8 0c-5.318 0-9.6 4.078-9.6 9.143v1.524c-1.76 0-3.2 1.371-3.2 3.047v15.238C3 30.63 4.44 32 6.2 32h19.2c1.76 0 3.2-1.371 3.2-3.048V13.714c0-1.676-1.44-3.047-3.2-3.047V9.143C25.4 4.078 21.118 0 15.8 0zm0 3.048c3.642 0 6.4 2.626 6.4 6.095v1.524H9.4V9.143c0-3.469 2.758-6.095 6.4-6.095zm0 15.238c1.76 0 3.2 1.371 3.2 3.047 0 1.677-1.44 3.048-3.2 3.048-1.76 0-3.2-1.371-3.2-3.048 0-1.676 1.44-3.047 3.2-3.047z"></path></g></svg>