<svg xmlns="http://www.w3.org/2000/svg" width="32" height="32" viewBox="0 0 32 32"><title>mail</title><g fill="#212121" class="nc-icon-wrapper"><path transform="matrix(1 0 0 -1 0 32)" d="M 29.112000000000087 27.827 L 16.000000000000075 18.459 L 2.888000000000075 27.823 A 3.976 3.976 0 0 0 4 28 H 28 C 28.388 28 28.756 27.927 29.112 27.827 z M 16 14.002000000000013 C 16.408 14.002000000000013 16.814 14.127000000000013 17.162 14.375000000000012 L 31.892 24.894000000000013 C 31.926 24.747000000000014 31.953 24.597000000000012 31.972 24.444000000000013 C 31.99 24.298000000000012 32 24.15200000000001 32 24.002000000000013 V 8.002000000000013 C 32 5.797000000000012 30.206 4.002000000000012 28 4.002000000000012 H 4 C 1.794 4.002000000000012 0 5.797000000000012 0 8.002000000000013 V 24.002000000000013 C 0 24.311000000000014 0.044 24.60800000000001 0.108 24.895000000000014 L 14.838 14.375000000000012 A 1.978 1.978 0 0 1 16 14.002000000000013 z" fill="#212121" class="nc-icon-wrapper"></path></g></svg>