<svg xmlns="http://www.w3.org/2000/svg" width="32" height="32" viewBox="0 0 32 32"><title>map</title><g fill="#F7F7F7" class="nc-icon-wrapper"><path transform="matrix(1 0 0 -1 0 32)" d="M 32 10.845 V 21.163 A 0.51 0.51 0 0 1 31.635 21.652 L 26.861 23.068 C 27.231 23.972 27.461 24.869 27.461 25.702 A 6.305 6.305 0 0 1 21.163 32 A 6.305 6.305 0 0 1 14.865 25.702 C 14.865 24.869 15.095 23.972 15.465 23.068 L 10.837 21.695 L 0.656 24.715 A 0.511 0.511 0 0 1 0 24.226 V 3.574 A 0.51 0.51 0 0 1 0.365 3.085 L 10.684 0.023 L 10.691 0.021 H 10.696 A 0.492 0.492 0 0 1 10.903000000000013 0.005 L 10.918000000000012 0.007 A 0.51 0.51 0 0 1 10.977000000000013 0.02 L 10.982000000000012 0.021 L 10.987000000000013 0.023 L 20.95700000000001 2.981 A 0.507 0.507 0 0 1 21.37000000000001 2.981 L 31.344000000000012 0.021 A 0.512 0.512 0 0 1 32.000000000000014 0.511 V 10.841 V 10.845 z M 30.979 20.781 V 11.521 L 21.674 14.281 V 15.734 C 22.339 16.42 24.954 19.206 26.431 22.131 L 30.979 20.781 z M 21.163 30.979 A 5.283 5.283 0 0 0 26.44 25.702 C 26.44 24.872 26.162 23.949 25.73 23.014 A 0.512 0.512 0 0 1 25.678 22.903 C 24.448 20.305 22.068 17.643 21.163 16.68 C 20.258 17.642 17.88 20.3 16.649 22.897 A 0.51 0.51 0 0 1 16.593 23.018 C 16.163 23.952 15.886 24.874 15.886 25.702 A 5.283 5.283 0 0 0 21.163 30.979 z M 20.653 15.734 V 14.282 L 11.347 11.521 V 20.781000000000013 L 15.895 22.131 C 17.372 19.206 19.986 16.42 20.652 15.734 z M 1.021 13.216 L 4.549 12.169 A 0.51 0.51 0 1 1 4.839 13.149 L 1.021 14.282 V 23.542 L 10.326 20.782 V 11.521 L 6.797999999999988 12.568 A 0.51 0.51 0 1 1 6.507999999999988 11.588 L 10.326 10.456 V 1.195 L 1.021 3.955 V 13.216 z M 21.674 3.956 V 7.652 A 0.51 0.51 0 0 1 20.652 7.652 V 3.956 L 11.347 1.195 V 10.455 L 20.652 13.216 V 9.695 A 0.51 0.51 0 1 1 21.674 9.695 V 13.216 L 30.979 10.456 V 1.195 L 21.674 3.955 z M 21.16300000000001 22.127999999999986 A 3.578 3.578 0 0 1 24.737000000000013 25.701999999999988 A 3.579 3.579 0 0 1 21.16300000000001 29.276999999999987 A 3.579 3.579 0 0 1 17.58800000000001 25.701999999999988 A 3.579 3.579 0 0 1 21.16300000000001 22.127999999999986 z M 21.16300000000001 28.25499999999999 A 2.556 2.556 0 0 0 23.71600000000001 25.701999999999988 A 2.556 2.556 0 0 0 21.16300000000001 23.148999999999987 A 2.556 2.556 0 0 0 18.610000000000014 25.701999999999988 A 2.556 2.556 0 0 0 21.16300000000001 28.25499999999999 z" fill="#F7F7F7" class="nc-icon-wrapper"></path></g></svg>