<svg width="20" height="20" xmlns="http://www.w3.org/2000/svg" viewBox="0 0 20 20"><title>maximize</title><g fill="none" class="nc-icon-wrapper"><path d="M0 12.9989C0 12.4467 0.447715 11.9989 1 11.9989C1.55228 11.9989 2 12.4467 2 12.9989V17.9989H7C7.55228 17.9989 8 18.4467 8 18.9989C8 19.5512 7.55228 19.9989 7 19.9989H1C0.447715 19.9989 0 19.5512 0 18.9989V12.9989Z" fill="#212121"></path><path d="M7.29297 11.2919C7.68349 10.9014 8.31651 10.9014 8.70703 11.2919C9.09756 11.6824 9.09756 12.3155 8.70703 12.706L1.70703 19.706C1.31651 20.0965 0.683493 20.0965 0.292969 19.706C-0.0975555 19.3155 -0.0975555 18.6824 0.292969 18.2919L7.29297 11.2919Z" fill="#212121"></path><path d="M0 18.9971H0.998413V19.9998H0V18.9971Z" fill="#212121"></path><path d="M20.0001 7C20.0001 7.55228 19.5524 8 19.0001 8C18.4478 8 18.0001 7.55228 18.0001 7V3.41406L12.7071 8.70703C12.3166 9.09756 11.6836 9.09756 11.2931 8.70703C10.9025 8.31651 10.9025 7.68349 11.2931 7.29297L16.586 2H13.0001C12.4478 2 12.0001 1.55228 12.0001 1C12.0001 0.447715 12.4478 0 13.0001 0H19.0001C19.5524 0 20.0001 0.447715 20.0001 1V7Z" fill="#212121"></path><path d="M19.0016 0H20V1.00275H19.0016V0Z" fill="#212121"></path></g></svg>