<svg width="40" height="40" xmlns="http://www.w3.org/2000/svg" viewBox="0 0 40 40"><title>meta data</title><g fill="none" class="nc-icon-wrapper"><rect x="1" y="1" width="38" height="38" rx="3" stroke="#212121" stroke-width="2"></rect><path d="M11.2424 23L7 27.2424L11.2424 31.4848" stroke="#212121" stroke-width="2" stroke-linecap="round"></path><path d="M30 23L34.2424 27.2424L30 31.4848" stroke="#212121" stroke-width="2" stroke-linecap="round"></path><path stroke="#212121" stroke-width="2" stroke-linecap="round" d="M7 9L33 9"></path><path stroke="#212121" stroke-width="2" stroke-linecap="round" d="M7 15L29 15"></path><path d="M15.5292 32V22.872H17.5872V32H15.5292ZM19.7401 32V22.872H22.3161C23.2494 22.872 24.0568 23.0307 24.7381 23.348C25.4194 23.6653 25.9468 24.16 26.3201 24.832C26.7028 25.4947 26.8941 26.3487 26.8941 27.394C26.8941 28.4393 26.7074 29.3027 26.3341 29.984C25.9608 30.6653 25.4381 31.174 24.7661 31.51C24.1034 31.8367 23.3241 32 22.4281 32H19.7401ZM21.7981 30.334H22.1901C22.7128 30.334 23.1654 30.2407 23.5481 30.054C23.9401 29.8673 24.2434 29.5593 24.4581 29.13C24.6728 28.7007 24.7801 28.122 24.7801 27.394C24.7801 26.666 24.6728 26.0967 24.4581 25.686C24.2434 25.266 23.9401 24.972 23.5481 24.804C23.1654 24.6267 22.7128 24.538 22.1901 24.538H21.7981V30.334Z" fill="#212121"></path></g></svg>