<svg xmlns="http://www.w3.org/2000/svg" width="32" height="32" viewBox="0 0 32 32"><title>mfa</title><g fill="#F7F7F7" class="nc-icon-wrapper"><path transform="matrix(1 0 0 -1 0 32)" d="M 13.143 10.182 H 18.857 C 19.643 10.182 20.286 10.836 20.286 11.636 V 16 C 20.286 16.8 19.643 17.454 18.857 17.454 V 18.91 C 18.857 20.525 17.571 21.82 16 21.82 C 14.414 21.82 13.143 20.51 13.143 18.91 V 17.455 C 12.357 17.455 11.714 16.801 11.714 16.001 V 11.637 C 11.714 10.837 12.357 10.183 13.143 10.183 z M 14.286 18.909 C 14.286 19.869 15.057 20.654 16 20.654 S 17.714 19.869 17.714 18.909 V 17.454 H 14.286 V 18.91 z M 23.143 32 H 8.857 C 7.286 32 6 30.69 6 29.09 V 2.91 C 6 1.31 7.286 0 8.857 0 H 23.143 C 24.714 0 26 1.31 26 2.91 V 29.09 C 26 30.69 24.714 32 23.143 32 z M 23.143 5.818 H 8.857 V 26.182 H 23.143 V 5.818 z" fill="#F7F7F7" class="nc-icon-wrapper"></path></g></svg>