<svg xmlns="http://www.w3.org/2000/svg" width="32" height="32" viewBox="0 0 32 32"><title>mic</title><g fill="#212121" class="nc-icon-wrapper"><path transform="matrix(1 0 0 -1 0 32)" d="M 16.2 32 C 13.48 32 11.4 29.92 11.4 27.2 V 16 C 11.4 13.28 13.48 11.2 16.2 11.2 C 18.92 11.2 21 13.28 21 16 V 27.2 C 21 29.92 18.92 32 16.2 32 z M 5 16 C 5 10.39 9.196 5.734 14.6 4.95 V 0 H 17.8 V 4.95 C 23.204 5.734 27.4 10.39 27.4 16 H 24.2 C 24.2 11.593 20.607 8 16.2 8 S 8.2 11.593 8.2 16 H 5 z" fill="#212121" class="nc-icon-wrapper"></path></g></svg>