<svg xmlns="http://www.w3.org/2000/svg" width="20" height="20" viewBox="0 0 20 20"><title>minimize</title><g fill="none" class="nc-icon-wrapper"><path d="M18.293 0.292893C18.6835 -0.0976311 19.3165 -0.0976311 19.707 0.292893C20.0976 0.683418 20.0976 1.31643 19.707 1.70696L14.4141 6.99992H18C18.5523 6.99992 19 7.44764 19 7.99992C19 8.55221 18.5523 8.99992 18 8.99992H12C11.4477 8.99992 11 8.55221 11 7.99992V1.99992C11 1.44764 11.4477 0.999924 12 0.999924C12.5523 0.999924 13 1.44764 13 1.99992V5.58586L18.293 0.292893Z" fill="#212121"></path><path d="M11 7.9971H11.9984V8.99985H11V7.9971Z" fill="#212121"></path><path d="M9 18C9 18.5523 8.55229 19 8 19C7.44772 19 7 18.5523 7 18V14.4141L1.70703 19.707C1.31651 20.0976 0.683494 20.0976 0.29297 19.707C-0.0975548 19.3165 -0.0975548 18.6835 0.29297 18.293L5.58594 13H2C1.44772 13 1 12.5523 1 12C1 11.4477 1.44772 11 2 11H8C8.55229 11 9 11.4477 9 12V18Z" fill="#212121"></path><path d="M8.00159 11H9V12.0027H8.00159V11Z" fill="#212121"></path></g></svg>