<svg xmlns="http://www.w3.org/2000/svg" width="32" height="32" viewBox="0 0 32 32"><title>mouse hold</title><g fill="#F7F7F7" class="nc-icon-wrapper"><path transform="matrix(1 0 0 -1 0 32)" d="M 8 32 V 29.5 H 24.2 V 32 H 8 z M 14.9 14.7 H 17.4 V 19.6 H 14.9 V 14.7 z M 18.4 27 H 13.8 C 10.6 27 8 24.3 8 20.9 V 6.2 C 8 2.8 10.5 0.1 13.8 0.1 H 18.4 C 21.6 0.1 24.2 2.8 24.2 6.2 V 20.9 C 24.2 24.3 21.6 27 18.4 27 z M 21.7 6.1 C 21.7 3.9 20.1 2.4 18.4 2.4 H 13.8 C 12.1 2.4 10.5 3.9 10.5 6.1 V 20.8 C 10.5 23 12.1 24.5 13.8 24.5 H 18.4 C 20.1 24.5 21.7 23 21.7 20.8 V 6.1 z" fill="#F7F7F7" class="nc-icon-wrapper"></path></g></svg>