<svg xmlns="http://www.w3.org/2000/svg" width="32" height="32" viewBox="0 0 32 32"><title>multi line</title><g fill="#212121" class="nc-icon-wrapper"><path transform="matrix(1 0 0 -1 0 32)" d="M 28.81 20.3 C 27.115 20.3 25.82 18.9 25.82 17.2 C 25.82 16.6 26.019 16 26.318 15.5 L 22.928 11.7 C 22.53 11.9 22.031 12.1 21.632 12.1 C 20.536 12.1 19.539 11.5 19.041 10.6 L 15.651 11.6 V 11.8 C 15.651 13.5 14.255 14.9 12.561 14.9 C 10.866 14.9 9.571 13.5 9.571 11.8 C 9.571 11.1 9.869 10.4 10.268 9.8 L 8.573 7.8 C 8.075 8.1 7.477 8.3 6.879 8.3 C 5.184 8.3 3.789 6.9 3.789 5.2 C 3.789 3.6 5.184 2.1 6.879 2.1 C 8.474 2.1 9.969 3.4999999999999876 9.969 5.2 C 9.969 5.7 9.869 6.2 9.669 6.6 L 11.564 8.8 C 11.863 8.699999999999987 12.262 8.6 12.66 8.6 C 13.757 8.6 14.654 9.2 15.153 9.999999999999988 L 18.543 8.999999999999988 V 8.899999999999988 C 18.543 7.199999999999988 19.938 5.799999999999987 21.633 5.799999999999987 C 23.227 5.799999999999987 24.623 7.199999999999988 24.623 8.899999999999988 C 24.623 9.499999999999988 24.423 10.099999999999987 24.125 10.599999999999987 L 27.514 14.399999999999988 C 27.913 14.199999999999987 28.411 13.999999999999988 28.91 13.999999999999988 C 30.604 13.999999999999988 32 15.399999999999988 32 17.1 C 31.9 18.799999999999986 30.505 20.3 28.81 20.3 z M 6.879 3.7 C 6.081 3.7 5.483 4.5 5.483 5.2 C 5.483 6 6.081 6.8 6.879 6.8 C 7.676 6.8 8.274 6 8.274 5.2 S 7.676 3.7 6.879 3.7 z M 12.561 10.2 C 11.763 10.2 11.165 10.9 11.165 11.7 S 11.763 13.2 12.561 13.2 C 13.358 13.2 13.956 12.5 13.956 11.7 C 14.056 10.9 13.358 10.2 12.561 10.2 z M 21.533 7.4 C 20.735 7.4 20.137 8.1 20.137 9 C 20.137 9.8 20.735 10.5 21.533 10.5 C 22.33 10.5 22.928 9.7 22.928 9 C 23.028 8.2 22.33 7.4 21.533 7.4 z M 28.81 15.6 C 28.013 15.6 27.414 16.3 27.414 17.1 S 28.112 18.6 28.81 18.6 C 29.60800000000001 18.6 30.206 17.9 30.206 17.1 S 29.70700000000001 15.6 28.81 15.6 z M 6.081 16.4 L 16.847 18.7 C 17.445 17.9 18.343 17.3 19.34 17.3 C 21.034 17.3 22.33 18.7 22.33 20.4 C 22.33 20.8 22.23 21.2 22.13 21.5 L 26.318 24.5 C 26.816 24.1 27.514 23.8 28.212 23.8 C 29.907 23.8 31.202 25.2 31.202 26.9 C 31.202 28.6 29.906 30 28.212 30 C 26.517 30 25.122 28.6 25.122 26.9 C 25.122 26.5 25.222 26.1 25.321 25.7 L 21.134 22.8 C 20.636 23.2 20.037 23.5 19.24 23.5 C 17.545 23.5 16.15 22.2 16.15 20.4 V 20.2 L 5.582 18 C 5.083 18.9 4.086 19.5 3.089 19.5 C 1.396 19.5 0 18.1 0 16.4 C 0 14.8 1.396 13.3 3.09 13.3 C 4.785 13.3 6.081 14.7 6.081 16.4 z M 28.112 28.6 C 28.91 28.6 29.508 27.8 29.508 27 S 28.91 25.5 28.112 25.5 C 27.315 25.5 26.717 26.3 26.717 27 C 26.717 27.8 27.315 28.6 28.112 28.6 z M 19.34 22 C 20.137 22 20.735 21.2 20.735 20.4 S 20.137 18.9 19.34 18.9 C 18.542 18.9 17.944 19.7 17.944 20.4 C 17.844 21.2 18.542 22 19.34 22 z M 3.09 14.9 C 2.293 14.9 1.695 15.7 1.695 16.4 C 1.695 17.2 2.293 18 3.09 18 C 3.888 18 4.486 17.2 4.486 16.4 S 3.788 14.9 3.09 14.9 z" fill="#212121" class="nc-icon-wrapper"></path></g></svg>