<svg xmlns="http://www.w3.org/2000/svg" width="32" height="32" viewBox="0 0 32 32"><title>numbered list</title><g fill="#212121" class="nc-icon-wrapper"><path transform="matrix(1 0 0 -1 0 32)" d="M 11 6 H 31 V 2 H 11 V 6 z M 11 18 H 31 V 14 H 11 V 18 z M 11 30 H 31 V 26 H 11 V 30 z M 5 32 V 24 H 3 V 30 H 1 V 32 H 5 z M 3 15.562 V 14 H 7 V 12 H 1 V 16.563 L 5 18.437 V 20 H 1 V 22 H 7 V 17.437 L 3 15.563 z M 7 10 V 0 H 1 V 2 H 5 V 4 H 1 V 6 H 5 V 8 H 1 V 10 H 7 z" fill="#212121" class="nc-icon-wrapper"></path></g></svg>