<svg xmlns="http://www.w3.org/2000/svg" width="32" height="32" viewBox="0 0 32 32"><title>orchestration</title><g fill="#F7F7F7" class="nc-icon-wrapper"><path transform="matrix(1 0 0 -1 0 32)" d="M 31.2 9.1 C 29.4 9.1 27.6 9.8 26.4 11.1 C 25.1 12.4 24.4 14.1 24.4 15.9 C 24.4 16.1 24.3 16.3 24.2 16.4 S 23.9 16.6 23.7 16.6 S 23.3 16.5 23.2 16.4 S 23 16.1 23 15.9 C 23 14.1 22.3 12.3 21 11.1 C 19.7 9.8 18 9.1 16.2 9.1 C 16 9.1 15.8 9 15.7 8.9 S 15.5 8.6 15.5 8.4 S 15.6 8 15.7 7.9 S 16 7.7 16.2 7.7 C 18 7.7 19.8 7 21 5.7 C 22.3 4.4 23 2.7 23 0.9 C 23 0.7 23.1 0.5 23.2 0.4 S 23.5 0.2 23.7 0.2 S 24.1 0.3 24.2 0.4 S 24.4 0.7 24.4 0.9 C 24.4 2.7 25.1 4.5 26.4 5.7 C 27.7 7 29.4 7.7 31.2 7.7 C 31.4 7.7 31.6 7.8 31.7 7.9 S 31.9 8.2 31.9 8.4 S 31.8 8.8 31.7 8.9 C 31.6 9.1 31.4 9.1 31.2 9.1 z M 22.1 25.9 C 23.1 25.9 24.1 25.5 24.8 24.8 S 25.9 23.1 25.9 22.1 C 25.9 21.9 26 21.7 26.1 21.6 S 26.4 21.4 26.6 21.4 S 27 21.5 27.1 21.6 S 27.3 21.9 27.3 22.1 C 27.3 23.1 27.7 24.1 28.4 24.8 S 30.1 25.9 31.1 25.9 C 31.3 25.9 31.5 26 31.6 26.1 C 31.9 26.3 32 26.5 32 26.7 S 31.9 27.1 31.8 27.2 S 31.5 27.4 31.3 27.4 C 30.3 27.4 29.3 27.8 28.6 28.500000000000014 S 27.5 30.2 27.5 31.2 C 27.5 31.4 27.4 31.6 27.3 31.7 C 27.1 31.9 26.9 32 26.7 32 S 26.3 31.9 26.2 31.8 S 26 31.5 26 31.3 C 26 30.3 25.6 29.3 24.9 28.6 S 23.2 27.5 22.2 27.5 C 22 27.5 21.8 27.4 21.7 27.3 S 21.5 27 21.5 26.8 S 21.6 26.4 21.7 26.3 C 21.7 26 21.9 25.9 22.1 25.9 z M 9.9 6.1 C 8.9 6.1 7.9 6.5 7.2 7.2 S 6.1 8.9 6.1 9.9 C 6.1 10.1 6 10.3 5.9 10.4 S 5.6 10.6 5.4 10.6 S 5 10.5 4.9 10.4 S 4.7 10.1 4.7 9.9 C 4.7 8.9 4.3 7.9 3.6 7.2 S 1.9 6.1 0.9 6.1 C 0.7 6.1 0.5 6 0.4 5.9 S 0 5.5 0 5.3 S 0.1 4.9 0.2 4.8 S 0.5 4.6 0.7 4.6 C 1.7 4.6 2.7 4.2 3.4 3.5 S 4.5 1.8 4.5 0.8 C 4.5 0.6 4.6 0.4 4.7 0.3 C 4.9 0.1 5.1 0 5.3 0 S 5.7 0.1 5.8 0.2 S 6 0.5 6 0.7 C 6 1.7 6.4 2.7 7.1 3.4 S 8.8 4.5 9.8 4.5 C 10 4.5 10.2 4.6 10.3 4.7 S 10.5 5 10.5 5.2 S 10.4 5.6 10.3 5.7 C 10.3 6 10.1 6.1 9.9 6.1 z M 16.5 23.1 C 16.6 23.2 16.7 23.4 16.7 23.6 S 16.7 24 16.5 24.2 S 16.2 24.4 16 24.4 C 14.2 24.4 12.4 25.1 11.2 26.4 C 9.9 27.7 9.2 29.4 9.2 31.2 C 9.2 31.4 9.1 31.6 9 31.7 S 8.6 32 8.4 32 S 8 31.9 7.8 31.8 S 7.6 31.4 7.6 31.2 C 7.6 29.4 6.9 27.6 5.6 26.4 C 4.3 25.1 2.6 24.4 0.8 24.4 C 0.6 24.4 0.4 24.3 0.3 24.2 S 0 23.8 0 23.6 S 0.1 23.2 0.2 23.1 S 0.5 22.9 0.7 22.9 C 2.5 22.9 4.3 22.2 5.5 20.9 C 6.8 19.6 7.5 17.9 7.5 16.1 C 7.5 15.9 7.6 15.7 7.7 15.6 S 8 15.4 8.2 15.4 S 8.6 15.5 8.7 15.6 S 8.9 15.9 8.9 16.1 C 8.9 17.9 9.6 19.7 10.9 20.9 C 12.2 22.2 13.9 22.9 15.7 22.9 C 16.2 22.9 16.4 22.9 16.5 23.1 z" fill="#F7F7F7" class="nc-icon-wrapper"></path></g></svg>