<svg width="20" height="20" xmlns="http://www.w3.org/2000/svg" viewBox="0 0 20 20"><title>panel collapse</title><g fill="none" class="nc-icon-wrapper"><path d="M4 0.75H16C17.7949 0.750002 19.25 2.20508 19.25 4V16C19.25 17.7949 17.7949 19.25 16 19.25H4C2.20507 19.25 0.75 17.7949 0.75 16V4C0.75 2.20507 2.20507 0.75 4 0.75Z" stroke="#212121" stroke-width="1.5"></path><path d="M15 5.8335L11.5404 9.29306C11.1499 9.68358 11.1499 10.3167 11.5404 10.7073L15 14.1668" stroke="#212121" stroke-width="1.5" stroke-linecap="round"></path><path d="M2.5 4C2.5 3.17157 3.17157 2.5 4 2.5H8.33333V17.5H4C3.17157 17.5 2.5 16.8284 2.5 16V4Z" fill="#212121"></path></g></svg>