<svg width="20" height="20" xmlns="http://www.w3.org/2000/svg" viewBox="0 0 20 20"><title>panel expand</title><g fill="none" class="nc-icon-wrapper"><path d="M4 0.75H16C17.7949 0.750002 19.25 2.20508 19.25 4V16C19.25 17.7949 17.7949 19.25 16 19.25H4C2.20507 19.25 0.75 17.7949 0.75 16V4C0.75 2.20507 2.20507 0.75 4 0.75Z" stroke="#212121" stroke-width="1.5"></path><path d="M13.333 17.5H4C3.17157 17.5 2.5 16.8284 2.5 16V4C2.5 3.17157 3.17157 2.5 4 2.5H13.333V17.5ZM7.19629 5.30273C6.90336 5.01033 6.42847 5.01 6.13574 5.30273C5.84317 5.59548 5.84339 6.0704 6.13574 6.36328L9.5957 9.82324C9.6931 9.92089 9.69326 10.0792 9.5957 10.1768L6.13574 13.6357C5.84307 13.9284 5.8435 14.4033 6.13574 14.6963C6.42864 14.9892 6.9034 14.9892 7.19629 14.6963L10.6562 11.2373C11.3396 10.554 11.3394 9.44613 10.6562 8.7627L7.19629 5.30273Z" fill="#212121"></path></g></svg>