<svg xmlns="http://www.w3.org/2000/svg" width="32" height="32" viewBox="0 0 32 32"><title>paragraph</title><g fill="#F7F7F7" class="nc-icon-wrapper"><path transform="matrix(1 0 0 -1 0 32)" d="M 6.167 30 C 2.796 30 0 27.122 0 23.669 C 0 20.133 2.796 17.337 6.167 17.337 C 12.252 17.337 8.223 5.167 0 5.167 V 2.207 C 14.636 2.207 20.31 30 6.167 30 z M 23.846 30 C 20.474 30 17.679 27.122 17.679 23.669 C 17.679 20.133 20.474 17.337 23.846 17.337 C 29.93 17.337 25.901 5.167 17.679 5.167 V 2.207 C 32.315 2.207 37.989 30 23.846 30 z" fill="#F7F7F7" class="nc-icon-wrapper"></path></g></svg>