<svg xmlns="http://www.w3.org/2000/svg" width="32" height="32" viewBox="0 0 32 32"><title>pause circle</title><g fill="#212121" class="nc-icon-wrapper"><g fill="#212121"><path transform="scale(1,-1) translate(0,-32)" d="M 11.2 9.6 H 14.4 V 22.4 H 11.2 V 9.6 z M 16 32 C 7.16 32 0 24.84 0 16 S 7.16 0 16 0 S 32 7.16 32 16 S 24.84 32 16 32 z M 16 3.2 C 8.944 3.2 3.2 8.944 3.2 16 C 3.2 23.056 8.944 28.8 16 28.8 C 23.056 28.8 28.8 23.056 28.8 16 C 28.8 8.944 23.056 3.2 16 3.2 z M 17.6 9.6 H 20.8 V 22.4 H 17.6 V 9.6 z"></path></g></g></svg>