<svg xmlns="http://www.w3.org/2000/svg" width="32" height="32" viewBox="0 0 32 32"><title>percent gauge</title><g fill="#212121" class="nc-icon-wrapper"><path d="M2.7 16H0c0 1 .1 2 .3 2.9l2.6-.5c-.2-.8-.2-1.6-.2-2.4zm.9-4.8l-2.5-1c-.4.9-.6 1.9-.8 2.8l2.6.5c.1-.8.4-1.6.7-2.3zM6.1 7l-2-1.8c-.6.7-1.2 1.5-1.7 2.3l2.3 1.4c.4-.7.9-1.3 1.4-1.9zM10 4L8.8 1.6c-.9.4-1.7 1-2.5 1.6l1.6 2.1c.7-.5 1.4-.9 2.1-1.3zm19.1 9.4l2.6-.5c-.2-1-.5-1.9-.8-2.8l-2.5 1c.3.7.5 1.5.7 2.3zm.5-5.9c-.5-.8-1.1-1.6-1.8-2.3l-2 1.8c.6.6 1.1 1.3 1.5 2l2.3-1.5zM17.4 0l-.2 2.7c.8.1 1.6.2 2.4.4l.7-2.6c-.9-.2-1.9-.4-2.9-.5zm8.2 3.1c-.8-.6-1.6-1.1-2.5-1.5L21.9 4c.7.4 1.4.8 2.1 1.3l1.6-2.2zm-10.9-.4L14.5 0c-1 .1-2 .3-2.9.5l.7 2.6c.8-.2 1.6-.4 2.4-.4zM24 26.6l1.6 2.1c.8-.6 1.5-1.3 2.2-2l-2-1.8c-.5.6-1.1 1.2-1.8 1.7zM3.6 20.8l-2.5 1c.4.9.8 1.8 1.3 2.6L4.7 23c-.5-.7-.8-1.5-1.1-2.2zm11.2 8.4l-.2 2.7c.5 0 1 .1 1.5.1s1 0 1.5-.1l-.2-2.7c-1 .1-1.8.1-2.6 0zM27.3 23l2.3 1.4c.5-.8 1-1.7 1.3-2.6l-2.5-1c-.3.7-.6 1.5-1.1 2.2zm2-7.1c0 .8-.1 1.6-.2 2.5l2.6.5c.2-1 .3-1.9.3-2.9v-.1h-2.7zm-9.6 12.9l.7 2.6c.9-.3 1.9-.6 2.8-1.1L22 27.9c-.8.3-1.6.6-2.3.9zM8.9 30.3c.9.4 1.8.8 2.8 1.1l.7-2.6c-.8-.2-1.6-.5-2.3-.9l-1.2 2.4zm-4.7-3.6c.7.7 1.4 1.4 2.2 2L8 26.6c-.7-.5-1.3-1.1-1.8-1.7l-2 1.8zm2.544-9.331l1.368-.141c.039.309.154.553.346.734a.94.94 0 0 0 1.392-.078c.199-.233.298-.583.298-1.052 0-.44-.099-.769-.296-.989a.984.984 0 0 0-.769-.329c-.394 0-.747.174-1.059.522l-1.114-.161.703-3.726h3.628v1.285H8.654l-.215 1.215c.306-.153.618-.229.937-.229a2.06 2.06 0 0 1 1.548.664c.423.443.635 1.017.635 1.724 0 .589-.171 1.114-.513 1.577-.465.631-1.111.947-1.938.947-.661 0-1.2-.177-1.617-.532-.417-.355-.666-.832-.747-1.431zm7.861-5.347c.694 0 1.236.248 1.626.743.466.586.699 1.558.699 2.915 0 1.354-.234 2.327-.703 2.92-.387.488-.928.732-1.622.732-.696 0-1.257-.268-1.684-.803-.427-.535-.64-1.49-.64-2.864 0-1.347.234-2.317.703-2.91.387-.489.928-.733 1.621-.733zm0 1.138a.683.683 0 0 0-.444.159c-.13.106-.231.296-.303.569-.094.355-.141.952-.141 1.792 0 .84.042 1.416.127 1.731.085.314.191.523.32.627a.68.68 0 0 0 .441.156.69.69 0 0 0 .445-.158c.13-.106.231-.296.303-.569.094-.352.141-.948.141-1.787 0-.84-.042-1.417-.127-1.731-.085-.314-.191-.524-.32-.63a.676.676 0 0 0-.442-.159zm3.252.659c0-.641.141-1.116.423-1.425.281-.31.663-.464 1.145-.464.498 0 .888.154 1.169.461.282.308.423.784.423 1.428 0 .641-.141 1.117-.423 1.426-.281.31-.663.464-1.145.464-.498 0-.888-.154-1.169-.461-.282-.308-.423-.784-.423-1.429zm1.07-.009c0 .465.054.778.161.937a.388.388 0 0 0 .337.176c.147 0 .26-.059.342-.176.104-.16.156-.472.156-.937 0-.466-.052-.777-.156-.933a.39.39 0 0 0-.342-.181.388.388 0 0 0-.337.176c-.107.16-.161.472-.161.938zm1.543 5.673h-1.016l3.814-7.553h.986l-3.784 7.553zm2.217-1.879c0-.641.14-1.117.422-1.426.281-.31.666-.464 1.155-.464.491 0 .878.155 1.159.464.282.31.423.785.423 1.426 0 .644-.141 1.12-.423 1.43-.281.31-.663.464-1.145.464-.498 0-.888-.155-1.169-.464-.281-.31-.422-.786-.422-1.43zm1.069-.005c0 .465.054.776.161.932.081.12.194.181.337.181a.38.38 0 0 0 .337-.176c.107-.16.161-.472.161-.937 0-.466-.052-.779-.156-.938a.393.393 0 0 0-.342-.176.38.38 0 0 0-.337.176c-.107.16-.161.472-.161.938z" fill="#212121" id="1765486757418-8651556_1765469776730-2714144_1765308464928-609125_1734474618372-6749052_object-1"></path></g></svg>