<svg xmlns="http://www.w3.org/2000/svg" width="32" height="32" viewBox="0 0 32 32"><title>phone</title><g fill="#F7F7F7" class="nc-icon-wrapper"><path transform="matrix(1 0 0 -1 0 32)" d="M 6.436 18.151 C 8.996 13.12 13.12 9.013 18.151 6.436 L 22.062 10.346 C 22.542 10.826 23.253 10.986 23.876 10.773 A 20.281 20.281 0 0 1 30.222 9.76 C 31.2 9.76 32 8.96 32 7.982 V 1.778 C 32 0.8 31.2 0 30.222 0 C 13.53 0 0 13.529 0 30.222 C 0 31.2 0.8 32 1.778 32 H 8 C 8.978 32 9.778 31.2 9.778 30.222 C 9.778 28 10.133 25.867 10.791 23.876 A 1.784 1.784 0 0 0 10.347 22.062 L 6.436 18.152 z" fill="#F7F7F7" class="nc-icon-wrapper"></path></g></svg>