<svg xmlns="http://www.w3.org/2000/svg" width="32" height="32" viewBox="0 0 32 32"><title>photo</title><g fill="#F7F7F7" class="nc-icon-wrapper"><path transform="matrix(1 0 0 -1 0 32)" d="M 28.3 3 H 3.7 C 1.7 3 0 4.6 0 6.7 V 23.4 C 0 25.4 1.7 27.1 3.7 27.1 H 4.8 C 5.4 27.1 6 27.5 6.2 28.1 V 28.2 L 6.5 29 C 6.7 29.6 7.3 30 7.9 30 H 12 C 12.6 30 13.2 29.6 13.4 29 L 13.7 28.2 C 13.9 27.6 14.5 27.2 15.2 27.2 H 28.3 C 30.3 27.2 32 25.5 32 23.5 V 6.8 C 32 4.6 30.3 3 28.3 3 z M 16.7 22.7 C 12.3 22.7 8.8 19.2 8.8 14.8 S 12.4 6.9 16.7 6.9 S 24.6 10.4 24.6 14.8 S 21.1 22.7 16.7 22.7 z M 27.4 24.4 C 26.5 24.4 25.6 23.6 25.6 22.6 S 26.4 20.8 27.4 20.8 S 29.2 21.6 29.2 22.6 C 29.2 23.7 28.4 24.4 27.4 24.4 z M 16.7 9.8 C 13.9 9.8 11.7 12.1 11.7 14.8 C 11.7 17.6 13.9 19.8 16.7 19.8 S 21.7 17.6 21.7 14.8 C 21.7 12.1 19.4 9.8 16.7 9.8 z" fill="#F7F7F7" class="nc-icon-wrapper"></path></g></svg>