<svg xmlns="http://www.w3.org/2000/svg" width="32" height="32" viewBox="0 0 32 32"><title>pie chart</title><g fill="#212121" class="nc-icon-wrapper"><path transform="matrix(1 0 0 -1 0 32)" d="M 13.99 32 V 18.01 H 0 C 0.447 21.656 2.01 24.856 4.614 27.46 C 7.219 30.065 10.344 31.628 13.991 32 z M 18.084 32 C 22.028 31.48 25.302 29.693 27.981 26.716 C 30.661 23.666 32 20.167 32 16.074 C 32 11.684 30.437 7.888 27.312 4.688 C 24.186 1.563 20.39 0 15.926 0 C 11.833 0 8.335 1.34 5.358 4.019 C 2.307 6.698 0.521 9.972 0 13.99 H 16.149 C 16.669 13.99 17.116 14.213 17.489 14.585 C 17.86 14.883 18.084 15.329 18.084 15.925 V 32 z" fill="#212121" class="nc-icon-wrapper"></path></g></svg>