<svg xmlns="http://www.w3.org/2000/svg" width="32" height="32" viewBox="0 0 32 32"><title>pin</title><g fill="#F7F7F7" class="nc-icon-wrapper"><path transform="matrix(1 0 0 -1 0 32)" d="M 21.429 18 C 22.857 17.286 24 15.786 24 14.071 C 24 12.857 23.786 12.571 22.929 12.571 H 17.143 L 16.286 0 H 15.714 L 14.857 12.571 H 9.071 C 8.214 12.571 8 12.929 8 14.071 C 8 15.786 9.143 17.286 10.571 18 A 0.541 0.541 0 0 1 10.857 18.143 C 11.357 18.429 11.714 18.929 11.857 19.5 L 13.143 27.929 V 28.286 C 13.143 28.786 12.857 29 12.429 29.214 C 12.357 29.214 12.357 29.286 12.286 29.286 C 11.786 29.5 11.429 29.929 11.429 30.5 C 11.429 31.929 11.857 32 12.714 32 H 19.286 C 20.143 32 20.571 31.929 20.571 30.5 C 20.571 29.929 20.214 29.5 19.714 29.286 C 19.643 29.286 19.643 29.214 19.571 29.214 C 19.143 29 18.857 28.786 18.857 28.286 V 27.929 L 20.143 19.5 C 20.286 18.929 20.643 18.429 21.143 18.143 A 0.54 0.54 0 0 1 21.429 18 z" fill="#F7F7F7" class="nc-icon-wrapper"></path></g></svg>