<svg xmlns="http://www.w3.org/2000/svg" width="32" height="32" viewBox="0 0 32 32"><title>playbook outline small</title><g fill="#212121" class="nc-icon-wrapper"><path transform="matrix(1 0 0 -1 0 32)" d="M 2.4 19.7 L 6.2 23.5 L 10 19.7 L 11.7 21.5 L 7.9 25.2 L 11.7 29 L 10 30.7 L 6.2 27 L 2.4 30.7 L 0.6 29 L 4.4 25.2 L 0.6 21.5 z M 32 11.3 L 30.2 13 L 26.4 9.3 L 22.6 13 L 20.9 11.3 L 24.7 7.5 L 20.9 3.8 L 22.6 2 L 26.4 5.8 L 30.2 2 L 32 3.8 L 28.2 7.5 z M 28.9 27.3 V 21.7 H 31.4 V 31.5 H 21.6 V 29 H 27 L 11 13.2 C 9.9 14 8.5 14.4 7 14.4 C 3.1 14.4 0 11.3 0 7.5 C 0 3.7 3.1 0.6 7 0.6 S 14 3.7 14 7.5 C 14 9 13.5 10.4 12.7 11.5 L 28.9 27.3 z M 7 3 C 4.5 3 2.5 5 2.5 7.5 S 4.5 12 7 12 S 11.5 10 11.5 7.5 S 9.5 3 7 3 z" fill="#212121" class="nc-icon-wrapper"></path></g></svg>