<svg xmlns="http://www.w3.org/2000/svg" width="32" height="32" viewBox="0 0 32 32"><title>play circle</title><g fill="#F7F7F7" class="nc-icon-wrapper"><path transform="matrix(1 0 0 -1 0 32)" d="M 12.8 8.8 L 22.4 16 L 12.8 23.2 V 8.8 z M 16 32 C 7.16 32 0 24.84 0 16 S 7.16 0 16 0 S 32 7.16 32 16 S 24.84 32 16 32 z M 16 3.2 C 8.944 3.2 3.2 8.944 3.2 16 C 3.2 23.056 8.944 28.8 16 28.8 C 23.056 28.8 28.8 23.056 28.8 16 C 28.8 8.944 23.056 3.2 16 3.2 z" fill="#F7F7F7" class="nc-icon-wrapper"></path></g></svg>