<svg xmlns="http://www.w3.org/2000/svg" width="32" height="32" viewBox="0 0 32 32"><title>playbook outline</title><g fill="#212121" class="nc-icon-wrapper"><path transform="matrix(1 0 0 -1 0 32)" d="M 29.7 28.9 V 22.1 H 31.2 V 31.5 H 21.8 V 30 H 28.6 L 11.6 13.1 C 10.4 14.1 8.9 14.6 7.2 14.6 C 3.3 14.6 0.1 11.4 0.1 7.6 C 0.1 3.7 3.3 0.6 7.2 0.6 S 14.3 3.8 14.3 7.6 C 14.3 9.3 13.7 10.8 12.7 12 z M 12.6 7.5 C 12.6 4.5 10.1 2 7.1 2 S 1.6 4.5 1.6 7.5 S 4.1 13 7.1 13 S 12.6 10.6 12.6 7.5 z M 2 20.4 L 6.2 24.6 L 10.4 20.4 L 11.5 21.5 L 7.3 25.6 L 11.5 29.8 L 10.4 30.9 L 6.2 26.7 L 2 30.9 L 1 29.8 L 5.2 25.6 L 1 21.5 z M 32 11.8 L 30.9 12.9 L 26.7 8.7 L 22.5 12.9 L 21.4 11.8 L 25.6 7.6 L 21.4 3.4 L 22.5 2.3 L 26.7 6.5 L 30.9 2.3 L 32 3.4 L 27.8 7.6 z" fill="#212121" class="nc-icon-wrapper"></path></g></svg>