<?xml version="1.0" encoding="utf-8"?>
<!-- Generator: Adobe Illustrator 24.2.3, SVG Export Plug-In . SVG Version: 6.00 Build 0)  -->
<svg version="1.1" id="Layer_1" xmlns="http://www.w3.org/2000/svg" xmlns:xlink="http://www.w3.org/1999/xlink" x="0px" y="0px"
	 viewBox="0 0 32 32" style="enable-background:new 0 0 32 32;" xml:space="preserve">
<style type="text/css">
	.st0{fill-rule:evenodd;clip-rule:evenodd;}
</style>
<g>
	<g>
		<path class="st0" d="M15.6,0.1c0.2-0.1,0.5-0.1,0.8,0l13.2,7.6c0.2,0.1,0.4,0.4,0.4,0.6v15.3c0,0.3-0.1,0.5-0.4,0.6l-13.2,7.6
			c-0.1,0-0.2,0.1-0.3,0.1c-0.2,0-0.4,0-0.5-0.1L2.4,24.3C2.1,24.1,2,23.9,2,23.6V8.4c0-0.3,0.1-0.5,0.4-0.6L15.6,0.1z M16.7,30
			l11.7-6.8V10l-11.7,6.8V30z M15.2,17.2V30L3.5,23.2V10.4L15.2,17.2z M16,1.6l12,6.9l-5.4,3.1L10.9,4.5L16,1.6z M3.6,8.8l5.9-3.4
			c0.1,0.1,0.1,0.2,0.3,0.3l11.4,6.9l-5.5,3.2L3.6,8.8z"/>
	</g>
</g>
</svg>
