<svg xmlns="http://www.w3.org/2000/svg" width="32" height="32" viewBox="0 0 32 32"><title>plugin outline</title><g fill="#212121" class="nc-icon-wrapper"><path transform="matrix(1 0 0 -1 0 32)" d="M 29.6 24.3 L 16.4 31.9 C 16.1 32 15.8 32 15.6 31.9 L 2.4 24.2 C 2.1 24.1 2 23.9 2 23.6 V 8.4 C 2 8.1 2.1 7.9 2.4 7.7 L 15.6 0.2 C 15.7 0.1 15.9 0.1 16.1 0.1 C 16.2 0.1 16.3 0.2 16.4 0.2 L 29.6 7.8 C 29.9 7.9 30 8.1 30 8.4 V 23.7 C 30 23.9 29.8 24.2 29.6 24.3 z M 16 30.4 L 28 23.5 L 22.6 20.4 L 10.9 27.5 L 16 30.4 z M 15.2 2 L 3.5 8.8 V 21.6 L 15.2 14.8 V 2 z M 15.7 16.2 L 3.6 23.2 L 9.5 26.6 C 9.6 26.5 9.6 26.4 9.8 26.3 L 21.2 19.4 L 15.7 16.2 z M 28.4 8.8 L 16.7 2 V 15.2 L 28.4 22 V 8.8 z" fill="#212121" class="nc-icon-wrapper"></path></g></svg>