<svg xmlns="http://www.w3.org/2000/svg" width="32" height="32" viewBox="0 0 32 32"><title>plugin outline small</title><g fill="#F7F7F7" class="nc-icon-wrapper"><path transform="matrix(1 0 0 -1 0 32)" d="M 29.4 24.4 L 16.6 31.8 C 16.2 32 15.8 32 15.4 31.8 L 2.6 24.4 C 2.2 24.2 2 23.8 2 23.4 V 8.7 C 2 8.3 2.2 7.9 2.6 7.6 L 15.4 0.2 C 15.8 0 16.3 0 16.6 0.2 L 29.3 7.6 C 29.7 7.8 29.9 8.2 29.9 8.7 V 23.4 C 30.000000000000014 23.8 29.7 24.2 29.4 24.4 z M 16 29.3 L 26.6 23.2 L 22.4 20.8 L 12.1 27.1 L 16 29.3 z M 14.8 3.4 L 4.5 9.4 V 20.5 L 14.8 14.5 V 3.4 z M 15.7 16.9 L 5 23 L 9.6 25.7 S 9.7 25.7 9.7 25.6 L 20 19.4 L 15.7 16.9 z M 27.5 9.3 L 17.2 3.3 V 14.9 L 27.5 20.9 V 9.3 z" fill="#F7F7F7" class="nc-icon-wrapper"></path></g></svg>