<svg fill="none" height="32" viewBox="0 0 32 32" width="32" xmlns="http://www.w3.org/2000/svg"><path clip-rule="evenodd" d="m15.3754.201839c.379-.2188256.8459-.2188256 1.225 0l12.7628 7.368641c.379.21883.6125.62323.6125 1.06088v14.73724c0 .4377-.2335.8421-.6125 1.0609l-12.7422 7.3568c-.1405.0848-.2993.1423-.4692.165-.1594.0215-.3221.0115-.4784-.03-.0435-.0116-.0865-.0256-.1288-.042-.0579-.0225-.1145-.0495-.1692-.0811l-12.7629-7.3687c-.37902-.2188-.6125-.6232-.6125-1.0609v-14.73724c0-.43765.23348-.84205.6125-1.06088zm1.8379 28.413461 10.3124-5.9539v-11.5604l-10.3124 5.9654zm-2.45-11.1661v11.1666l-10.3133-5.9544v-11.1781zm1.2246-14.77197 10.6138 6.12791-4.1711 2.41286-10.3372-6.29228zm-10.94464 6.31887 4.6357-2.67643c.02648.01917.05393.03743.08234.05472l10.2533 6.24111-4.3572 2.5205z" fill="#000" fill-rule="evenodd"/></svg>