<svg xmlns="http://www.w3.org/2000/svg" width="32" height="32" viewBox="0 0 32 32"><title>profile</title><g fill="#F7F7F7" class="nc-icon-wrapper"><path transform="matrix(1 0 0 -1 0 32)" d="M 16 32 C 7.171 32 0 24.97 0 16.314 C 0 11.307 2.408 6.854 6.14 3.98 C 6.323 3.84 6.511 3.701 6.7 3.569 C 6.754 3.529 6.805 3.489 6.86 3.451 C 6.94 3.396 7.02 3.347 7.1 3.294 C 7.27 3.18 7.442 3.069 7.62 2.961 C 7.661 2.936 7.699 2.907 7.74 2.882 C 7.814 2.838 7.885 2.788 7.96 2.745 C 8.095 2.668 8.242 2.603 8.38 2.529 C 8.604 2.409 8.828 2.288 9.06 2.177 C 9.296 2.063 9.536 1.966 9.78 1.863 C 11.78 1.018 14.03 0.51 16.36 0.51 C 17.575 0.51 18.817 0.751 20 1.118 A 16.083 16.083 0 0 1 26.4 4.412 C 26.476 4.47 26.534 4.513 26.6 4.569 C 26.64 4.603 26.681 4.632 26.72 4.667 C 26.735 4.68 26.746 4.693 26.76 4.706 C 26.837 4.775 26.904 4.851 26.98 4.922 C 30.068 7.782 32 11.825 32 16.314 C 32 24.97 24.829 32 16 32 z M 16 30.745 C 24.137 30.745 30.72 24.291 30.72 16.314 C 30.72 12.354 29.108 8.763 26.48 6.157 C 25.234 7.08 23.745 7.58 22.48 8.078 C 21.093 8.625 20.106 9.162 19.8 9.882 C 19.732 10.699 19.736 11.343 19.74 12.118 C 19.823 12.206 19.942 12.268 20.02 12.373 C 20.195 12.609 20.364 12.901 20.52 13.216 C 20.793 13.766 20.99 14.424 21.1 15.078 C 21.301 15.18 21.515 15.205 21.68 15.412 C 21.989 15.798 22.206 16.346 22.3 17.118 C 22.384 17.804 22.15 18.258 21.86 18.608 C 22.173 19.603 22.572 21.212 22.44 22.863 C 22.368 23.763 22.132 24.663 21.58 25.412 C 21.074 26.097 20.255 26.598 19.22 26.804 C 18.548 27.658 17.337 27.98 15.94 27.98 H 15.92 C 12.93 27.926 11.021 26.741 10.2 24.902 C 9.418 23.15 9.593 20.936 10.16 18.647 C 9.855 18.297 9.614 17.827 9.7 17.117 C 9.795 16.347 10.011 15.797 10.32 15.412 C 10.49 15.2 10.713 15.18 10.92 15.078 C 11.033 14.422 11.22 13.764 11.5 13.216 C 11.661 12.900999999999987 11.841 12.608 12.02 12.371999999999987 C 12.1 12.268 12.216 12.205999999999987 12.3 12.117999999999988 C 12.304 11.343999999999987 12.307999999999987 10.698 12.24 9.881999999999987 C 11.935 9.165999999999988 10.945999999999987 8.641999999999987 9.56 8.097999999999988 C 8.283 7.596999999999987 6.777 7.087999999999988 5.519999999999987 6.156999999999988 A 14.255 14.255 0 0 0 1.2799999999999876 16.314 C 1.28 24.29 7.863 30.745 16 30.745 z M 15.94 26.725 H 15.96 C 17.249 26.721 18.082 26.35 18.32 25.941 L 18.48 25.686 L 18.78 25.647 C 19.67 25.526 20.18 25.174 20.54 24.687 C 20.9 24.198 21.1 23.517 21.16 22.765 C 21.280000000000012 21.259 20.838 19.507 20.56 18.686 L 20.4 18.196 L 20.84 17.941 C 20.812000000000012 17.958 21.084 17.776 21.02 17.255 C 20.945 16.639 20.795 16.32 20.68 16.176 C 20.565000000000012 16.033 20.505 16.04 20.5 16.039 L 19.96 16 L 19.900000000000013 15.49 C 19.840000000000014 14.947 19.618000000000013 14.285 19.360000000000014 13.765 C 19.231000000000012 13.504999999999988 19.097000000000012 13.275999999999987 18.98000000000001 13.118 C 18.863000000000014 12.959 18.73900000000001 12.87 18.80000000000001 12.902 L 18.46000000000001 12.725 V 12.353 C 18.46000000000001 11.445 18.423000000000012 10.699 18.520000000000014 9.647 V 9.569 L 18.560000000000013 9.49 C 19.087000000000014 8.099 20.543000000000013 7.495 22.000000000000014 6.922 C 23.196000000000012 6.451 24.40200000000001 5.951 25.400000000000013 5.294 C 25.190000000000012 5.129 25.113000000000014 5.031999999999988 24.8 4.824 C 24.168 4.402 23.341 3.908 22.420000000000012 3.4509999999999876 C 21.522000000000013 3.0059999999999873 20.532 2.5989999999999873 19.520000000000014 2.2939999999999876 C 19.494000000000014 2.286 19.46600000000001 2.2819999999999876 19.440000000000012 2.274 A 15.037 15.037 0 0 0 16.000000000000014 1.882 C 14.598000000000013 1.882 13.244000000000012 2.0729999999999875 11.960000000000013 2.432 C 9.904000000000012 3.055 8.047000000000013 4.071 6.6200000000000125 5.294 C 7.625000000000012 5.95 8.840000000000012 6.45 10.040000000000013 6.922 C 11.497000000000012 7.494 12.954000000000013 8.102 13.480000000000013 9.49 L 13.500000000000012 9.569 L 13.520000000000012 9.647 C 13.617000000000013 10.699 13.580000000000013 11.444 13.580000000000013 12.353 V 12.725 L 13.240000000000013 12.902 C 13.298000000000012 12.872 13.160000000000013 12.958 13.040000000000013 13.118 A 4.51 4.51 0 0 0 12.640000000000013 13.765 C 12.374000000000013 14.285 12.158000000000012 14.953 12.100000000000012 15.49 L 12.040000000000013 16 L 11.500000000000012 16.04 C 11.495000000000012 16.04 11.435000000000013 16.033 11.320000000000013 16.177 C 11.205000000000013 16.32 11.056000000000013 16.639 10.980000000000013 17.255 C 10.916000000000013 17.776 11.188000000000013 17.958 11.160000000000013 17.941 L 11.580000000000013 18.196 L 11.460000000000013 18.647 C 10.857000000000012 20.921 10.753000000000013 22.987 11.380000000000013 24.392 C 12.005000000000013 25.792 13.279000000000012 26.672 15.940000000000012 26.725 z" fill="#F7F7F7" class="nc-icon-wrapper"></path></g></svg>