<svg width="32" height="32" viewBox="0 0 32 32" xmlns="http://www.w3.org/2000/svg"><g class="nc-icon-wrapper" fill="#444444"><g transform="translate(1601 709)"><path d="M-1582.736-693.135c-1.364.935-1.847 2.667-1.867 4.092-.524-.12-1.343.43-1.343-.583.009-1.904 1.211-3.476 2.59-4.662 1.47-1.377 1.671-4.196-.276-5.254-1.841-1.004-4.938-.437-5.41 1.9.109 1.058-.289 1.369-1.283 1.187-.752-.62.16-2.705.93-3.456 1.699-1.526 4.391-1.7 6.431-.802 2.467 1.08 2.919 4.591 1.207 6.528a9.053 9.053 0 0 1-.979 1.05z"></path><path d="M-1585.361-684.255c-2.237-.015-1.125-3.641.72-2.394 1.093.666.524 2.41-.72 2.394z"></path><path d="M-1585.335-709c-8.652 0-15.665 7.182-15.665 16s7.013 16 15.665 16 15.665-7.182 15.665-16-7.013-16-15.665-16zm0 1.527c7.808 0 14.138 6.462 14.138 14.473 0 8.011-6.33 14.473-14.138 14.473s-14.138-6.462-14.138-14.473c0-8.011 6.33-14.473 14.138-14.473z"></path></g></g></svg>