<svg xmlns="http://www.w3.org/2000/svg" width="32" height="32" viewBox="0 0 32 32"><title>question</title><g fill="#F7F7F7" class="nc-icon-wrapper"><path transform="matrix(1 0 0 -1 0 32)" d="M 18.2639999999999 16.134999999999987 C 16.8999999999999 15.199999999999987 16.4169999999999 13.467999999999988 16.3969999999999 12.042999999999987 C 15.8729999999999 12.163 15.0539999999999 11.612999999999987 15.0539999999999 12.625999999999987 C 15.0629999999999 14.529999999999987 16.2649999999999 16.101999999999986 17.6439999999999 17.287999999999986 C 19.1139999999999 18.66499999999999 19.3149999999999 21.483999999999988 17.3679999999999 22.541999999999987 C 15.5269999999999 23.54599999999999 12.4299999999999 22.97899999999999 11.9579999999999 20.64199999999999 C 12.0669999999999 19.58399999999999 11.6689999999999 19.27299999999999 10.6749999999999 19.454999999999988 C 9.9229999999999 20.07499999999999 10.8349999999999 22.159999999999986 11.6049999999999 22.910999999999987 C 13.3039999999999 24.436999999999987 15.9959999999999 24.610999999999986 18.0359999999999 23.712999999999987 C 20.5029999999999 22.63299999999999 20.9549999999999 19.12199999999999 19.2429999999999 17.184999999999988 A 9.053 9.053 0 0 0 18.2639999999999 16.134999999999987 z M 15.6389999999999 7.255 C 13.4019999999999 7.27 14.5139999999999 10.896 16.3589999999999 9.649 C 17.4519999999999 8.983 16.8829999999999 7.239 15.6389999999999 7.255 z M 15.664999999999962 32 C 7.012999999999963 32 -3.75e-14 24.818 -3.75e-14 16 S 7.012999999999963 0 15.664999999999962 0 S 31.329999999999963 7.182 31.329999999999963 16 S 24.31699999999996 32 15.664999999999962 32 z M 15.664999999999962 30.473 C 23.472999999999963 30.473 29.80299999999996 24.011 29.80299999999996 16 C 29.80299999999996 7.989 23.472999999999963 1.527 15.664999999999962 1.527 S 1.5269999999999626 7.989 1.5269999999999626 16 C 1.5269999999999626 24.011 7.856999999999963 30.473 15.664999999999962 30.473 z" fill="#F7F7F7" class="nc-icon-wrapper"></path></g></svg>