<svg xmlns="http://www.w3.org/2000/svg" width="32" height="32" viewBox="0 0 32 32"><title>question filled sm</title><g fill="#212121" class="nc-icon-wrapper"><path transform="matrix(1 0 0 -1 0 32)" d="M 16 32 C 7.2 32 0 24.8 0 16 S 7.2 0 16 0 S 32 7.2 32 16 S 24.8 32 16 32 z M 17.2 7.3 C 16.8 6.9 16.3 6.7 15.6 6.7 S 14.4 6.9 14 7.3 C 13.6 7.7 13.4 8.2 13.4 8.8 S 13.6 9.9 14 10.3 C 14.4 10.7 14.9 10.9 15.6 10.9 S 16.8 10.7 17.2 10.3 C 17.6 9.9 17.8 9.4 17.8 8.8 C 17.8 8.1 17.6 7.7 17.2 7.3 z M 21.3 19.2 C 21 18.5 20.4 17.8 19.5 17 L 18.4 16 C 17.7 15.3 17.3 14.6 17.2 13.7 L 17.1 12.9 H 13.8 C 13.8 14.1 13.999999999999988 15.1 14.3 15.9 C 14.6 16.6 15.2 17.4 16 18.1 C 16.8 18.8 17.399999999999988 19.4 17.6 19.9 C 17.9 20.4 18 20.8 18 21.3 C 18 22.8 17.3 23.6 15.9 23.6 C 15.2 23.6 14.7 23.4 14.3 23 C 13.9 22.6 13.7 22 13.7 21.3 H 9.8 C 9.8 23 10.4 24.3 11.4 25.3 C 12.5 26.3 14 26.7 15.8 26.7 C 17.7 26.7 19.2 26.2 20.2 25.3 C 21.2 24.4 21.8 23.1 21.8 21.4 C 21.8 20.6 21.7 19.9 21.3 19.2 z" fill="#212121" class="nc-icon-wrapper"></path></g></svg>