<svg xmlns="http://www.w3.org/2000/svg" x="0" y="0" viewBox="0 0 32 32" width="32" height="32"><g class="nc-icon-wrapper" fill="#444444"><path d="M16 0C7.2 0 0 7.2 0 16s7.2 16 16 16 16-7.2 16-16S24.8 0 16 0zm1.2 24.7c-.4.4-.9.6-1.6.6s-1.2-.2-1.6-.6c-.4-.4-.6-.9-.6-1.5s.2-1.1.6-1.5c.4-.4.9-.6 1.6-.6s1.2.2 1.6.6c.4.4.6.9.6 1.5 0 .7-.2 1.1-.6 1.5zm4.1-11.9c-.3.7-.9 1.4-1.8 2.2l-1.1 1c-.7.7-1.1 1.4-1.2 2.3l-.1.8h-3.3c0-1.2.2-2.2.5-3 .3-.7.9-1.5 1.7-2.2.8-.7 1.4-1.3 1.6-1.8.3-.5.4-.9.4-1.4 0-1.5-.7-2.3-2.1-2.3-.7 0-1.2.2-1.6.6-.4.4-.6 1-.6 1.7H9.8c0-1.7.6-3 1.6-4 1.1-1 2.6-1.4 4.4-1.4 1.9 0 3.4.5 4.4 1.4 1 .9 1.6 2.2 1.6 3.9 0 .8-.1 1.5-.5 2.2z"></path></g></svg>