<svg xmlns="http://www.w3.org/2000/svg" width="32" height="32" viewBox="0 0 32 32"><title>reference grid</title><g fill="#212121" class="nc-icon-wrapper"><g fill="#212121"><path transform="scale(1,-1) translate(0,-32)" d="M 30.4000000000001 32 L 26.400000000000087 28.012 C 23.600000000000087 30.417 19.98000000000009 31.9 16.0000000000001 31.9 C 7.182000000000087 31.9 8.75e-14 24.74 8.75e-14 15.95 S 7.182000000000087 0 16.0000000000001 0 S 32.0000000000001 7.16 32.0000000000001 15.95 H 28.8000000000001 C 28.8000000000001 8.883 23.0900000000001 3.19 16.0000000000001 3.19 C 8.910000000000087 3.19 3.2000000000000877 8.883 3.2000000000000877 15.95 S 8.910000000000087 28.71 16.0000000000001 28.71 C 19.11000000000009 28.71 21.9420000000001 27.6 24.150000000000087 25.77 L 20.700000000000088 22.33 H 30.4000000000001 V 32 z M 11.733000000000175 19.19999999999999 H 14.507000000000176 V 16.42699999999999 H 11.733000000000175 V 19.19999999999999 z M 17.322999999999862 19.19999999999999 H 20.09599999999986 V 16.42699999999999 H 17.322999999999862 V 19.19999999999999 z M 11.733000000000175 14.080000000000013 H 14.507000000000176 V 11.307000000000013 H 11.733000000000175 V 14.080000000000013 z M 17.322999999999862 14.080000000000013 H 20.09599999999986 V 11.307000000000013 H 17.322999999999862 V 14.080000000000013 z"></path></g></g></svg>