<svg xmlns="http://www.w3.org/2000/svg" width="32" height="32" viewBox="0 0 32 32"><title>reference</title><g fill="#212121" class="nc-icon-wrapper"><g fill="#212121"><path transform="scale(1,-1) translate(0,-32)" d="M 6.8 32 C 4.168 32 2 29.832 2 27.2 C 2 25.133 3.35 23.37 5.2 22.7 V 11.2 C 5.2 6.8 8.8 3.2 13.2 3.2 H 14.8 V 0 L 19.6 4.8 L 14.8 9.6 V 6.4 H 13.2 C 10.53 6.4 8.4 8.53 8.4 11.2 V 22.7 C 10.25 23.37 11.6 25.133 11.6 27.2 C 11.6 29.832 9.432 32 6.8 32 z M 18 32 L 13.2 27.2 L 18 22.4 V 25.6 H 19.6 C 22.27 25.6 24.4 23.47 24.4 20.8 V 9.3 C 22.55 8.63 21.2 6.867 21.2 4.8 C 21.2 2.168 23.368 0 26 0 C 28.632000000000012 0 30.80000000000001 2.168 30.80000000000001 4.8 C 30.80000000000001 6.867 29.45 8.63 27.600000000000012 9.3 V 20.8 C 27.600000000000012 25.2 24 28.8 19.600000000000012 28.8 H 18 V 32 z M 6.8 28.8 C 7.703 28.8 8.4 28.103 8.4 27.2 C 8.4 26.297 7.703 25.6 6.8 25.6 C 5.897 25.6 5.2 26.297 5.2 27.2 C 5.2 28.103 5.897 28.8 6.8 28.8 z M 26 6.4 C 26.903 6.4 27.6 5.703 27.6 4.8 C 27.6 3.897 26.903 3.2 26 3.2 C 25.097 3.2 24.4 3.897 24.4 4.8 C 24.4 5.703 25.097 6.4 26 6.4 z"></path></g></g></svg>