<svg xmlns="http://www.w3.org/2000/svg" width="32" height="32" viewBox="0 0 32 32"><title>refresh small</title><g fill="#212121" class="nc-icon-wrapper"><path transform="matrix(1 0 0 -1 0 32)" d="M 5.416 16.145 C 5.416 21.003 9.503 25.085 14.723 25.085 C 18.508 25.085 21.725 22.922 23.185 19.875 L 18.289 17.346 L 29.129 13.636 L 32 24.426 L 27.999 22.359 C 25.61 27.202 20.542 30.5 14.723 30.5 C 6.672 30.5 0 24.152 0 16.145 C 0 8.138 6.672 1.79 14.723 1.79 A 14.91 14.91 0 0 1 23.894 4.915 L 20.571 9.191 A 9.495 9.495 0 0 0 14.723 7.206 C 9.503 7.206 5.416 11.287 5.416 16.146 z" fill="#212121" class="nc-icon-wrapper"></path></g></svg>