<svg xmlns="http://www.w3.org/2000/svg" width="32" height="32" viewBox="0 0 32 32"><title>refresh</title><g fill="#212121" class="nc-icon-wrapper"><path transform="matrix(1 0 0 -1 0 32)" d="M 27.771999999999938 13.77200000000005 A 11.688 11.688 0 0 0 25.561999999999937 7.88200000000005 L 27.86599999999994 5.51800000000005 A 15.047 15.047 0 0 1 30.999999999999936 13.77000000000005 H 27.771999999999938 V 13.77200000000005 z M 18.139999999999876 3.3479999999999626 V 0.00099999999995 C 20.934999999999874 0.31699999999995 23.491999999999877 1.45699999999995 25.581999999999876 3.17799999999995 L 23.279999999999873 5.53799999999995 A 11.085 11.085 0 0 0 18.139999999999876 3.34799999999995 z M 30.8699999999999 17.086000000000013 C 30.44999999999989 19.891000000000012 29.269999999999886 22.529000000000014 27.419999999999888 24.682000000000013 L 24.9999999999999 22.488000000000014 A 11.693 11.693 0 0 0 27.5979999999999 17.086000000000013 H 30.8709999999999 z M 9.2199999999998 27.687000000000012 C 4.9099999999998 25.095000000000013 1.9999999999998 20.30300000000001 1.9999999999998 14.816000000000013 C 1.9999999999998 7.154000000000012 7.6599999999998 0.8280000000000125 14.9119999999998 1.25e-14 V 3.3470000000000124 C 9.4449999999998 4.156000000000012 5.2279999999998 8.983000000000013 5.2279999999998 14.814000000000012 C 5.2279999999998 19.36400000000001 7.7979999999998 23.299000000000014 11.5189999999998 25.19800000000001 L 16.5259999999998 19.78800000000001 V 32 H 5.2279999999998 L 9.2189999999998 27.687 z" fill="#212121" class="nc-icon-wrapper"></path></g></svg>