<svg xmlns="http://www.w3.org/2000/svg" width="32" height="32" viewBox="0 0 32 32"><title>refresh circle</title><g fill="#F7F7F7" class="nc-icon-wrapper"><path transform="matrix(1 0 0 -1 0 32)" d="M 16 32 C 24.846 32 32 24.846 32 16 S 24.846 0 16 0 S 0 7.154 0 16 S 7.154 32 16 32 z M 16 6.154 A 9.816 9.816 0 0 1 25.846 16 H 24.308 A 8.273 8.273 0 0 0 16 7.692 A 8.273 8.273 0 0 0 7.692 16 A 8.273 8.273 0 0 0 16 24.308 V 20 L 23.385 24.308 L 16 29.23 V 25.845 A 9.816 9.816 0 0 1 6.154 16 A 9.816 9.816 0 0 1 16 6.154 z" fill="#F7F7F7" class="nc-icon-wrapper"></path></g></svg>