<svg width="32" height="32" viewBox="0 0 32 32" xmlns="http://www.w3.org/2000/svg"><g class="nc-icon-wrapper" fill="#444444"><path d="M15.89 6c-2.49 0-4.393 1.904-4.393 4.394s1.903 4.393 4.393 4.393c2.49 0 4.394-1.904 4.394-4.393C20.284 7.904 18.38 6 15.89 6zm9.52 0a3.661 3.661 0 1 0 0 7.323 3.661 3.661 0 0 0 0-7.323zm-22.7 7.323H0v2.929H8.348v-2.93H2.709zm22.7 2.929c-1.758 0-3.094.457-4.12 1.19 3.369 1.61 4.715 4.375 4.715 4.668v.137H32v-1.876c0-.147-1.61-4.12-6.59-4.12zm-9.52 1.464c-6.737 0-8.787 4.851-8.787 4.851v2.472h17.574v-2.472s-2.05-4.85-8.787-4.85z"></path></g></svg>