<svg width="32" height="32" viewBox="0 0 32 32" xmlns="http://www.w3.org/2000/svg"><g class="nc-icon-wrapper" fill="#444444"><path d="M28.005 10.999a4.007 4.007 0 0 0-3.995 3.995 4.007 4.007 0 0 0 3.995 3.995A4.007 4.007 0 0 0 32 14.994a4.007 4.007 0 0 0-3.995-3.995zm0 6.392a2.404 2.404 0 0 1-2.397-2.397 2.404 2.404 0 0 1 2.397-2.397 2.404 2.404 0 0 1 2.397 2.397 2.404 2.404 0 0 1-2.397 2.397zm-17.099-4.395H7.471A4.007 4.007 0 0 0 0 14.994a4.007 4.007 0 0 0 3.994 3.995c1.478 0 2.757-.8 3.476-1.998h3.435l1.998-1.997-1.998-1.998zm-6.871 4.395a2.404 2.404 0 0 1-2.397-2.397 2.404 2.404 0 0 1 2.397-2.397 2.404 2.404 0 0 1 2.397 2.397 2.404 2.404 0 0 1-2.397 2.397zM19.016 10l-2.996 3.036-2.996-2.996-1.998 1.997 2.997 2.997-2.997 2.996 1.998 1.958 2.996-2.997 2.996 2.997 1.958-1.958-2.997-3.036 2.997-2.997L19.016 10z"></path></g></svg>