<svg xmlns="http://www.w3.org/2000/svg" width="32" height="32" viewBox="0 0 32 32"><title>remove</title><g fill="#212121" class="nc-icon-wrapper"><path transform="matrix(1 0 0 -1 0 32)" d="M 23.531 23.531 A 1.6 1.6 0 0 0 23.531 21.269 L 18.263 16 L 23.988 10.275 A 1.6 1.6 0 0 0 21.725 8.012 L 16 13.737 L 10.731 8.469 A 1.6 1.6 0 0 0 8.47 10.73 L 13.737 16 L 8.011 21.726 A 1.6 1.6 0 1 0 10.274 23.989 L 16 18.263 L 21.269 23.531 A 1.6 1.6 0 0 0 23.531 23.531 z M 16 3.2 C 23.07 3.2 28.8 8.93 28.8 16 S 23.07 28.8 16 28.8 S 3.2 23.07 3.2 16 S 8.93 3.2 16 3.2 z M 16 0 C 24.837 0 32 7.163 32 16 S 24.837 32 16 32 S 0 24.837 0 16 S 7.163 0 16 0 z" fill="#212121" class="nc-icon-wrapper"></path></g></svg>