<svg xmlns="http://www.w3.org/2000/svg" width="32" height="32" viewBox="0 0 32 32"><title>remove edge</title><g fill="#212121" class="nc-icon-wrapper"><g fill="#212121"><path transform="scale(1,-1) translate(0,-32)" d="M 28.005 21.001 A 4.007 4.007 0 0 1 24.01 17.006 A 4.007 4.007 0 0 1 28.005 13.011 A 4.007 4.007 0 0 1 32 17.006 A 4.007 4.007 0 0 1 28.005 21.001 z M 28.005 14.609 A 2.404 2.404 0 0 0 25.608 17.006 A 2.404 2.404 0 0 0 28.005 19.403 A 2.404 2.404 0 0 0 30.402 17.006 A 2.404 2.404 0 0 0 28.005 14.609 z M 10.906 19.004 H 7.471 A 4.007 4.007 0 0 1 0 17.006 A 4.007 4.007 0 0 1 3.994 13.011 C 5.472 13.011 6.751 13.811 7.47 15.009 H 10.905 L 12.903 17.006 L 10.905 19.004 z M 4.035 14.609 A 2.404 2.404 0 0 0 1.638 17.006 A 2.404 2.404 0 0 0 4.035 19.403 A 2.404 2.404 0 0 0 6.432 17.006 A 2.404 2.404 0 0 0 4.035 14.609 z M 19.016 22 L 16.02 18.964 L 13.024 21.96 L 11.026 19.963 L 14.023 16.966 L 11.026 13.97 L 13.024 12.012 L 16.02 15.009 L 19.016 12.012 L 20.974 13.97 L 17.977 17.006 L 20.974 20.003 L 19.016 22 z"></path></g></g></svg>