<svg xmlns="http://www.w3.org/2000/svg" width="32" height="32" viewBox="0 0 32 32"><title>replace</title><g fill="#F7F7F7" class="nc-icon-wrapper"><path transform="matrix(1 0 0 -1 0 32)" d="M 9.6 31 A 3.195 3.195 0 0 1 6.4 27.809 V 16.639 A 3.195 3.195 0 0 1 9.6 13.449 H 14.4 V 8.662 C 14.4 6.918 15.851 5.471 17.6 5.471 H 28.8 C 30.549 5.471 32 6.918 32 8.662 V 19.831 C 32 21.575 30.549 23.022 28.8 23.022 H 24 V 27.81 A 3.195 3.195 0 0 1 20.8 31 z M 24 19.831 H 28.8 V 8.662 H 17.6 V 13.449 H 20.8 C 22.568 13.449 24 14.877 24 16.639 z M 0 13.449 V 7.066 C 0 5.322 1.451 3.876 3.2 3.876 H 8 V 0.684 L 12.8 5.471 L 8 10.258 V 7.067 H 3.2 V 13.449 z" fill="#F7F7F7" class="nc-icon-wrapper"></path></g></svg>