<svg xmlns="http://www.w3.org/2000/svg" width="32" height="32" viewBox="0 0 32 32"><title>reports</title><g fill="#212121" class="nc-icon-wrapper"><path transform="matrix(1 0 0 -1 0 32)" d="M 3.1999999999998123 32 H 28.799999999999827 C 30.565999999999825 32 31.999999999999826 30.564 31.999999999999826 28.8 V 3.2 C 31.999999999999826 1.436 30.565999999999825 0 28.799999999999827 0 H 3.1999999999998123 A 3.204 3.204 0 0 0 -1.875e-13 3.2 V 28.8 C -1.875e-13 30.564 1.4349999999998124 32 3.1999999999998123 32 z M 3.1999999999998123 3.2 H 28.794999999999824 L 28.799999999999827 28.8 H 3.1999999999998123 V 3.2 z M 12.331000000000138 17.130999999999975 L 13.816000000000125 15.645999999999974 L 16.114000000000136 21.391999999999975 C 16.34900000000014 21.978999999999974 16.902000000000136 22.371999999999975 17.534000000000137 22.397999999999975 C 18.15400000000014 22.434999999999974 18.75000000000014 22.077999999999975 19.03200000000014 21.514999999999976 L 21.421000000000138 16.734999999999975 L 27.200000000000138 20.588999999999974 V 27.199999999999974 H 4.8000000000001375 V 13.655999999999976 L 10.312000000000138 17.330999999999975 A 1.604 1.604 0 0 0 12.332000000000138 17.130999999999975 z M 27.199999999999825 16.741999999999962 L 21.687999999999825 13.065999999999962 A 1.602 1.602 0 0 0 19.369999999999813 13.681999999999963 L 17.762999999999813 16.896999999999963 L 15.885999999999813 12.203999999999963 C 15.685999999999812 11.703999999999963 15.249999999999812 11.337999999999962 14.721999999999813 11.230999999999963 A 1.588 1.588 0 0 0 13.268999999999812 11.667999999999962 L 10.996999999999813 13.937999999999963 L 4.799999999999812 9.807999999999963 V 4.798999999999962 H 27.19999999999981 V 16.741999999999962 z" fill="#212121" class="nc-icon-wrapper"></path></g></svg>