<svg xmlns="http://www.w3.org/2000/svg" width="32" height="32" viewBox="0 0 32 32"><title>reports outline</title><g fill="#212121" class="nc-icon-wrapper"><g fill="#212121"><path transform="scale(1,-1) translate(0,-32)" d="M 17.1 13.9 C 18.2 13.9 19.2 14.2 20.1 14.7 L 23.4 10.9 L 25.2 12.5 L 22 16.2 C 22.9 17.3 23.5 18.8 23.5 20.3 C 23.5 23.8 20.600000000000012 26.7 17.1 26.7 S 10.7 23.8 10.7 20.3 S 13.6 13.9 17.1 13.9 z M 17.1 24.3 C 19.3 24.3 21.1 22.5 21.1 20.3 S 19.3 16.3 17.1 16.3 S 13.1 18.1 13.1 20.3 S 14.9 24.3 17.1 24.3 z M 30 32 H 2 C 0.9 32 0 31.1 0 30 V 2 C 0 0.9 0.9 0 2 0 H 30 C 31.1 0 32 0.9 32 2 V 30 C 32 31.1 31.1 32 30 32 z M 29.6 2.4 H 2.4 V 29.6 H 29.6 z M 15.5 5.3 H 17.9 V 9.3 H 15.5 z M 13.1 12.5 H 10.7 V 5.3 H 13.1 z M 8.3 18.1 H 5.9 V 5.3 H 8.3 z"></path></g></g></svg>