<svg width="32" height="32" viewBox="0 0 32 32" xmlns="http://www.w3.org/2000/svg"><g class="nc-icon-wrapper" fill="#444444"><path d="M32 0s-9.6 0-12.8 3.2C15.48 6.92 6.4 20.8 6.4 20.8l4.8 4.8s13.88-9.08 17.6-12.8C32 9.6 32 0 32 0zM11.2 25.6l1.6 6.4c5.658-3.394 4.8-8 4.8-9.6l-6.4 3.2zm-4.8-4.8l3.2-6.4c-1.6 0-6.206-.858-9.6 4.8l6.4 1.6zM23.8 5c.819 0 1.625.325 2.25.95a3.17 3.17 0 0 1 0 4.5 3.17 3.17 0 0 1-4.5 0 3.17 3.17 0 0 1 0-4.5A3.175 3.175 0 0 1 23.8 5zm-19 19C0 25.6.1 31.9.1 31.9s6.3.1 7.9-4.7l-4.8 1.6L4.8 24z"></path></g></svg>