<svg xmlns="http://www.w3.org/2000/svg" width="32" height="32" viewBox="0 0 32 32"><title>rocket</title><g fill="#212121" class="nc-icon-wrapper"><path transform="matrix(1 0 0 -1 0 32)" d="M 32 32 S 22.4 32 19.2 28.8 C 15.48 25.08 6.4 11.2 6.4 11.2 L 11.2 6.4 S 25.08 15.48 28.8 19.2 C 32 22.4 32 32 32 32 z M 11.2 6.4 L 12.8 0 C 18.458 3.394 17.6 8 17.6 9.6 L 11.2 6.4 z M 6.4 11.2 L 9.6 17.6 C 8 17.6 3.394 18.458 0 12.8 L 6.4 11.2 z M 23.8 27 C 24.619 27 25.425 26.675 26.05 26.05 A 3.17 3.17 0 0 0 26.05 21.55 A 3.17 3.17 0 0 0 21.55 21.55 A 3.17 3.17 0 0 0 21.55 26.05 A 3.175 3.175 0 0 0 23.8 27 z M 4.8 8 C 0 6.4 0.1 0.1 0.1 0.1 S 6.4 0 8 4.8 L 3.2 3.2 L 4.8 8 z" fill="#212121" class="nc-icon-wrapper"></path></g></svg>