<svg width="32" height="32" viewBox="0 0 32 32" fill="none" xmlns="http://www.w3.org/2000/svg">
  <path d="M19.801 5.953c1.64 0 2.982-1.34 2.982-2.976A2.988 2.988 0 0 0 19.8 0a2.988 2.988 0 0 0-2.981 2.977A2.988 2.988 0 0 0 19.8 5.953zm-5.366 20.689l1.49-6.549 3.13 2.977V32h2.982V20.837l-3.13-2.977.894-4.465A10.923 10.923 0 0 0 28 17.116V14.14c-2.832 0-5.217-1.489-6.41-3.573L20.1 8.186c-.597-.893-1.491-1.488-2.535-1.488-.447 0-.745.149-1.192.149L8.62 10.12v6.995h2.981v-5.06l2.684-1.042L11.9 23.07 4.596 21.58 4 24.558l10.435 2.084z" fill="#000"/>
</svg>
