<svg xmlns="http://www.w3.org/2000/svg" width="32" height="32" viewBox="0 0 32 32"><title>runs outline small</title><g fill="#F7F7F7" class="nc-icon-wrapper"><path transform="matrix(1 0 0 -1 0 32)" d="M 23.1 21.4 L 20.3 24.2 H 26.9 V 17.3 H 29.3 V 26.6 H 20.3 L 23.1 29.4 L 21.4 31.1 L 15.7 25.4 L 21.4 19.7 z M 25.4 13.2 C 21.8 13.2 18.8 10.3 18.8 6.6 S 21.7 0 25.400000000000013 0 S 32.000000000000014 2.9 32.000000000000014 6.6 S 29.100000000000012 13.2 25.400000000000013 13.2 z M 25.4 2.4 C 23.1 2.4 21.2 4.3 21.2 6.6 S 23.1 10.8 25.4 10.8 S 29.6 8.9 29.6 6.6 S 27.7 2.4 25.4 2.4 z M 13.2 25.4 C 13.2 29 10.3 32 6.6 32 S 0 29.1 0 25.4 S 2.9 18.8 6.6 18.8 S 13.2 21.8 13.2 25.4 z M 2.4 25.4 C 2.4 27.7 4.3 29.6 6.6 29.6 S 10.8 27.7 10.8 25.4 S 8.9 21.2 6.6 21.2 S 2.4 23.1 2.4 25.4 z M 8.9 10.6 L 11.7 7.8 H 5.1 V 14.7 H 2.7 V 5.4 H 11.7 L 8.9 2.6 L 10.6 0.9 L 16.3 6.6 L 10.6 12.3 z" fill="#F7F7F7" class="nc-icon-wrapper"></path></g></svg>