<svg xmlns="http://www.w3.org/2000/svg" width="32" height="32" viewBox="0 0 32 32"><title>runs outline</title><g fill="#212121" class="nc-icon-wrapper"><g fill="#212121"><path transform="scale(1,-1) translate(0,-32)" d="M 22.4969696969697 21.04242424242425 L 19.2969696969697 24.24242424242425 H 27.34545454545455 V 17.066666666666663 H 28.8 V 25.7939393939394 H 19.2969696969697 L 22.4969696969697 28.9939393939394 L 21.527272727272724 30.060606060606062 L 16.484848484848488 25.018181818181827 L 21.430303030303037 20.072727272727274 z M 12.993939393939387 25.018181818181812 C 12.993939393939387 28.315151515151523 10.278787878787876 31.03030303030304 6.981818181818175 31.03030303030304 S 0.969696969696975 28.315151515151523 0.969696969696975 25.018181818181827 S 3.6848484848484877 19.00606060606061 6.981818181818188 19.00606060606061 S 12.9939393939394 21.721212121212126 12.9939393939394 25.018181818181827 z M 2.424242424242425 25.018181818181812 C 2.424242424242425 27.53939393939394 4.460606060606063 29.575757575757574 6.981818181818175 29.575757575757574 S 11.539393939393937 27.53939393939394 11.539393939393937 25.018181818181812 S 9.5030303030303 20.46060606060606 6.981818181818175 20.46060606060606 S 2.424242424242425 22.4969696969697 2.424242424242425 25.018181818181812 z M 25.406060606060613 12.606060606060613 C 22.109090909090913 12.606060606060613 19.3939393939394 9.890909090909087 19.3939393939394 6.5939393939394 S 22.109090909090913 0.5818181818181875 25.406060606060613 0.5818181818181875 S 31.418181818181825 3.2969696969697 31.418181818181825 6.5939393939394 S 28.7030303030303 12.606060606060613 25.406060606060613 12.606060606060613 z M 25.406060606060613 2.0363636363636375 C 22.884848484848487 2.0363636363636375 20.84848484848485 4.072727272727275 20.84848484848485 6.5939393939394 S 22.884848484848487 11.15151515151515 25.406060606060613 11.15151515151515 S 29.96363636363636 9.115151515151512 29.96363636363636 6.5939393939394 S 27.927272727272726 2.0363636363636375 25.406060606060613 2.0363636363636375 z M 9.890909090909087 10.472727272727274 L 13.090909090909088 7.272727272727275 H 5.042424242424238 V 14.44848484848485 H 3.5878787878787874 V 5.818181818181825 H 13.090909090909088 L 9.890909090909087 2.6181818181818124 L 10.957575757575762 1.55151515151515 L 15.9030303030303 6.496969696969687 L 10.957575757575762 11.442424242424238 z"></path></g></g></svg>