<?xml version="1.0" encoding="utf-8"?>
<!-- Generator: Adobe Illustrator 24.2.3, SVG Export Plug-In . SVG Version: 6.00 Build 0)  -->
<svg version="1.1" id="Layer_1" xmlns="http://www.w3.org/2000/svg" xmlns:xlink="http://www.w3.org/1999/xlink" x="0px" y="0px"
	 viewBox="0 0 32 32" style="enable-background:new 0 0 32 32;" xml:space="preserve">
<path d="M8.5,20l7.5,7.5l7.4-7.4l-2.5-2.5l-3.1,3.1V0h-3.5v20.8L11,17.5L8.5,20z M31.9,28.6l-3.6-14.1c-0.3-1.2-1.4-2.1-2.7-2.1
	h-6.2v3.5H25l3.2,12.6H3.8L7,15.9h5.6v-3.5H6.4c-1.3,0-2.4,0.9-2.7,2.1L0.1,28.6C-0.3,30.3,1,32,2.8,32h26.4
	C31,32,32.3,30.3,31.9,28.6z"/>
</svg>
