<svg xmlns="http://www.w3.org/2000/svg" width="32" height="32" viewBox="0 0 32 32"><title>save outline</title><g fill="#212121" class="nc-icon-wrapper"><path transform="matrix(1 0 0 -1 0 32)" d="M 17.2 32 V 10.5 L 21.4 14.7 L 22.3 15.6 L 24 13.9 L 23.1 13 L 16.9 6.8 L 16 5.8 L 15.1 6.7 L 8.9 12.9 L 8 13.7 L 9.7 15.4 L 10.6 14.5 L 14.7 10.4 V 31.9 L 17.2 32 z M 6.4 20.2 C 5.4 20.2 4.5 19.5 4.2 18.5 L 0.6 3.8 C 0.2 2.4 1.3 1 2.8 1 H 29.4 C 30.8 1 31.9 2.4 31.6 3.8 L 27.9 18.4 C 27.7 19.4 26.8 20.1 25.7 20.1 H 20 V 17.7 H 25.4 L 29 3.5 H 3 L 6.5 17.7 H 12 V 20.1 H 10.8 L 6.4 20.2 z" fill="#212121" class="nc-icon-wrapper"></path></g></svg>