<svg xmlns="http://www.w3.org/2000/svg" width="32" height="32" viewBox="0 0 32 32"><title>save outline large</title><g fill="#F7F7F7" class="nc-icon-wrapper"><path transform="matrix(1 0 0 -1 0 32)" d="M 16.81 32 V 9.807 L 21.771 14.767 L 22.301 15.297 L 23.362 14.237 L 22.832 13.707 L 16.591 7.466 L 16.061 6.936 L 15.531 7.466 L 9.289 13.706 L 8.759 14.237 L 9.819 15.297 L 10.35 14.767 L 15.31 9.807 V 32 z M 6.44 20.188 A 1.75 1.75 0 0 1 4.742 18.862 L 1.082 4.22 A 1.75 1.75 0 0 1 2.779 2.046 H 29.342 A 1.75 1.75 0 0 1 31.04 4.22 L 27.38 18.862 A 1.75 1.75 0 0 1 25.681 20.188 H 20.511 V 18.688 H 25.681 A 0.25 0.25 0 0 0 25.924 18.498 L 29.584 3.856 A 0.25 0.25 0 0 0 29.342 3.546 H 2.779 A 0.25 0.25 0 0 0 2.537 3.856 L 6.197 18.5 A 0.25 0.25 0 0 0 6.44 18.689 H 11.61 V 20.189 H 10.86 z" fill="#F7F7F7" class="nc-icon-wrapper"></path></g></svg>