<svg xmlns="http://www.w3.org/2000/svg" width="32" height="32" viewBox="0 0 32 32"><title>save outline small</title><g fill="#F7F7F7" class="nc-icon-wrapper"><path transform="matrix(1 0 0 -1 0 32)" d="M 8.5 12 L 16 4.5 L 23.4 11.9 L 20.9 14.4 L 17.8 11.3 V 32 H 14.3 V 11.2 L 11 14.5 L 8.5 12 z M 31.9 3.4 L 28.3 17.5 C 28 18.7 26.9 19.6 25.6 19.6 H 19.4 V 16.1 H 25 L 28.2 3.5 H 3.8 L 7 16.1 H 12.6 V 19.6 H 6.4 C 5.1 19.6 4 18.7 3.7 17.5 L 0.1 3.4 C -0.3 1.7 1 0 2.8 0 H 29.2 C 31 0 32.3 1.7 31.9 3.4 z" fill="#F7F7F7" class="nc-icon-wrapper"></path></g></svg>