<?xml version="1.0" encoding="utf-8"?>
<!-- Generator: Adobe Illustrator 24.2.3, SVG Export Plug-In . SVG Version: 6.00 Build 0)  -->
<svg version="1.1" id="Layer_1" xmlns="http://www.w3.org/2000/svg" xmlns:xlink="http://www.w3.org/1999/xlink" x="0px" y="0px"
	 viewBox="0 0 32 32" style="enable-background:new 0 0 32 32;" xml:space="preserve">
<style type="text/css">
	.st0{fill-rule:evenodd;clip-rule:evenodd;}
</style>
<g>
	<g>
		<path class="st0" d="M17.2,0l0,21.5l4.2-4.2l0.9-0.9l1.7,1.7l-0.9,0.9l-6.2,6.2L16,26.2l-0.9-0.9l-6.2-6.2L8,18.3l1.7-1.7l0.9,0.9
			l4.1,4.1l0-21.5L17.2,0z M6.4,11.8c-1,0-1.9,0.7-2.2,1.7L0.6,28.2c-0.4,1.4,0.7,2.8,2.2,2.8h26.6c1.4,0,2.5-1.4,2.2-2.8l-3.7-14.6
			c-0.2-1-1.1-1.7-2.2-1.7h-4.4H20v2.4h1.2h4.2L29,28.5H3l3.5-14.2h4.2H12v-2.4h-1.2L6.4,11.8z"/>
	</g>
</g>
</svg>
