<svg fill="none" height="32" viewBox="0 0 32 32" width="32" xmlns="http://www.w3.org/2000/svg"><path clip-rule="evenodd" d="m16.8107 0v22.193l4.9606-4.9605.5303-.5304 1.0606 1.0607-.5303.5303-6.2409 6.2409-.5303.5303-.5303-.5303-6.2409-6.2409-.53033-.5303 1.06066-1.0607.53037.5304 4.9605 4.9605v-22.193zm-10.37066 11.812c-.80302 0-1.50299.5466-1.69775 1.3256l-3.66058 14.6423c-.276129 1.1045.55925 2.1745 1.69775 2.1745h26.56254c1.1385 0 1.9739-1.07 1.6977-2.1745l-3.6605-14.6423c-.1948-.779-.8948-1.3256-1.6978-1.3256h-4.4199-.75v1.5h.75 4.4199c.1147 0 .2147.0781.2425.1894l3.6606 14.6423c.0395.1578-.0799.3107-.2425.3107h-26.56254c-.16265 0-.28198-.1529-.24254-.3107l3.66059-14.6423c.02782-.1113.12781-.1894.24253-.1894h4.41996.75v-1.5h-.75z" fill="#000" fill-rule="evenodd"/></svg>