<svg xmlns="http://www.w3.org/2000/svg" width="32" height="32" viewBox="0 0 32 32"><title>screen</title><g fill="#F7F7F7" class="nc-icon-wrapper"><path transform="matrix(1 0 0 -1 0 32)" d="M 0.786 29 C 0.357 29 0 28.653 0 28.236 V 9.764 C 0 9.347 0.357 9 0.786 9 H 31.214 C 31.643 9 32 9.347 32 9.764 V 28.236 C 32 28.653 31.643 29 31.214 29 H 0.786 z M 2.286 11.222 V 26.778 H 29.714 V 11.222 H 2.286 z M 12.714 2.333 H 19.286 C 21.286 2.333 22.286 2.542 21.429 3.167 C 20.571 3.792 19.286 4.277 19.286 4.764 C 19.286 5.042 19.214 7.889 19.214 7.889 H 12.786 S 12.714 5.042 12.714 4.764 C 12.714 4.278 11.429 3.792 10.571 3.167 C 9.714 2.542 10.714 2.333 12.714 2.333 z" fill="#F7F7F7" class="nc-icon-wrapper"></path></g></svg>