<svg xmlns="http://www.w3.org/2000/svg" width="32" height="32" viewBox="0 0 32 32"><title>screen 1</title><g fill="#212121" class="nc-icon-wrapper"><path transform="matrix(1 0 0 -1 0 32)" d="M 31.214 30 C 31.643 30 32 29.643 32 29.214 V 10.214 A 0.793 0.793 0 0 0 31.214 9.429 H 0.786 A 0.793 0.793 0 0 0 0 10.214 V 29.214 C 0 29.643 0.357 30 0.786 30 H 31.214 z M 29.714 11.714 V 27.714 H 2.286 V 11.714 H 29.714 z M 19.286 2.571 H 12.714 C 10.714 2.571 9.714 2.786 10.571 3.429 C 11.429 4.071 12.714 4.571 12.714 5.071 C 12.714 5.357 12.786 8.286 12.786 8.286 H 19.214 S 19.286 5.357 19.286 5.071 C 19.286 4.571 20.571 4.071 21.429 3.429 C 22.286 2.786 21.286 2.571 19.286 2.571 z" fill="#212121" class="nc-icon-wrapper"></path></g></svg>