<svg width="32" height="32" viewBox="0 0 32 32" xmlns="http://www.w3.org/2000/svg"><g class="nc-icon-wrapper" fill="#444444"><path d="M32 29.704l-2.296 2.294-8.757-8.755a12.864 12.864 0 0 1-7.957 2.738c-3.47 0-6.732-1.351-9.184-3.807A12.9 12.9 0 0 1 0 12.99a12.9 12.9 0 0 1 3.806-9.184A12.894 12.894 0 0 1 12.99 0c3.47 0 6.732 1.351 9.184 3.806a12.9 12.9 0 0 1 3.807 9.184c0 2.921-.97 5.69-2.738 7.957L32 29.704zm-19.01-6.971a9.676 9.676 0 0 0 6.888-2.853 9.674 9.674 0 0 0 2.855-6.89 9.674 9.674 0 0 0-2.855-6.888 9.67 9.67 0 0 0-6.888-2.854 9.67 9.67 0 0 0-6.888 2.854 9.674 9.674 0 0 0-2.854 6.888 9.674 9.674 0 0 0 2.854 6.89 9.676 9.676 0 0 0 6.888 2.853z"></path></g></svg>