<svg xmlns="http://www.w3.org/2000/svg" width="32" height="32" viewBox="0 0 32 32"><title>search</title><g fill="#F7F7F7" class="nc-icon-wrapper"><path transform="matrix(1 0 0 -1 0 32)" d="M 32 2.296 L 29.704 0.002 L 20.947 8.757 A 12.864 12.864 0 0 0 12.99 6.019 C 9.52 6.019 6.258 7.37 3.806 9.826 A 12.9 12.9 0 0 0 0 19.01 A 12.9 12.9 0 0 0 3.806 28.194 A 12.894 12.894 0 0 0 12.99 32 C 16.46 32 19.722 30.649 22.174 28.194 A 12.9 12.9 0 0 0 25.981 19.01 C 25.981 16.089 25.011 13.32 23.243 11.053 L 32 2.296 z M 12.99 9.267 A 9.676 9.676 0 0 1 19.878 12.12 A 9.674 9.674 0 0 1 22.733 19.01 A 9.674 9.674 0 0 1 19.878 25.898 A 9.67 9.67 0 0 1 12.99 28.752 A 9.67 9.67 0 0 1 6.102 25.898 A 9.674 9.674 0 0 1 3.248 19.01 A 9.674 9.674 0 0 1 6.102 12.12 A 9.676 9.676 0 0 1 12.99 9.267 z" fill="#F7F7F7" class="nc-icon-wrapper"></path></g></svg>