<svg width="32" height="32" viewBox="0 0 32 32" xmlns="http://www.w3.org/2000/svg"><g class="nc-icon-wrapper" fill="#444444"><path d="M3.556 0C2.627 0 1.67.33 1 1c-.67.67-1 1.627-1 2.556v24.888C0 29.373.33 30.33 1 31c.67.67 1.627 1 2.556 1h24.888c.929 0 1.886-.33 2.556-1 .67-.67 1-1.627 1-2.556V3.556c0-.929-.33-1.886-1-2.556-.67-.67-1.627-1-2.556-1H3.556zm0 3.556h24.888v24.888H3.556V3.556zM8.889 7.11c-1.067 0-1.778.711-1.778 1.778v3.555c0 1.067.711 1.778 1.778 1.778h3.555c1.067 0 1.778-.71 1.778-1.778V8.89c0-1.067-.71-1.778-1.778-1.778H8.89zm10.667 0c-1.067 0-1.778.711-1.778 1.778v3.555c0 1.067.71 1.778 1.778 1.778h3.555c1.067 0 1.778-.71 1.778-1.778V8.89c0-1.067-.711-1.778-1.778-1.778h-3.555zM8.889 17.778c-1.067 0-1.778.71-1.778 1.778v3.555c0 1.067.711 1.778 1.778 1.778h3.555c1.067 0 1.778-.711 1.778-1.778v-3.555c0-1.067-.71-1.778-1.778-1.778H8.89zm10.667 0c-1.067 0-1.778.71-1.778 1.778v3.555c0 1.067.71 1.778 1.778 1.778h3.555c1.067 0 1.778-.711 1.778-1.778v-3.555c0-1.067-.711-1.778-1.778-1.778h-3.555z"></path></g></svg>