<svg xmlns="http://www.w3.org/2000/svg" width="32" height="32" viewBox="0 0 32 32"><title>section</title><g fill="#212121" class="nc-icon-wrapper"><path transform="matrix(1 0 0 -1 0 32)" d="M 3.556 32 C 2.627 32 1.67 31.67 1 31 C 0.33 30.33 0 29.373 0 28.444 V 3.556 C 0 2.627 0.33 1.67 1 1 C 1.67 0.33 2.627 0 3.556 0 H 28.444 C 29.373 0 30.33 0.33 31.000000000000014 1 C 31.670000000000012 1.67 32 2.627 32 3.556 V 28.444 C 32 29.373 31.67 30.33 31 31 C 30.33 31.67 29.373 32 28.444 32 H 3.556 z M 3.556 28.444 H 28.444 V 3.556 H 3.556 V 28.444 z M 8.889 24.89 C 7.822 24.89 7.111 24.179 7.111 23.112 V 19.557 C 7.111 18.49 7.822 17.779 8.889 17.779 H 12.444 C 13.511 17.779 14.222 18.489 14.222 19.557 V 23.11 C 14.222 24.177 13.512 24.888 12.444 24.888 H 8.89 z M 19.556 24.89 C 18.489 24.89 17.778 24.179 17.778 23.112 V 19.557 C 17.778 18.49 18.488 17.779 19.556 17.779 H 23.111 C 24.178 17.779 24.889 18.489 24.889 19.557 V 23.11 C 24.889 24.177 24.178 24.888 23.111 24.888 H 19.556 z M 8.889 14.222 C 7.822 14.222 7.111 13.512 7.111 12.444 V 8.889 C 7.111 7.822 7.822 7.111 8.889 7.111 H 12.444 C 13.511 7.111 14.222 7.822 14.222 8.889 V 12.444 C 14.222 13.511 13.512 14.222 12.444 14.222 H 8.89 z M 19.556 14.222 C 18.489 14.222 17.778 13.512 17.778 12.444 V 8.889 C 17.778 7.822 18.488 7.111 19.556 7.111 H 23.111 C 24.178 7.111 24.889 7.822 24.889 8.889 V 12.444 C 24.889 13.511 24.178 14.222 23.111 14.222 H 19.556 z" fill="#212121" class="nc-icon-wrapper"></path></g></svg>