<svg xmlns="http://www.w3.org/2000/svg" width="32" height="32" viewBox="0 0 32 32"><title>select all</title><g fill="#212121" class="nc-icon-wrapper"><path transform="matrix(1 0 0 -1 0 32)" d="M 0 28.444 H 3.556 V 32 A 3.566 3.566 0 0 1 0 28.444 z M 0 14.222 H 3.556 V 17.778 H 0 V 14.222 z M 7.111 0 H 10.667 V 3.556 H 7.11 V 0 z M 0 21.333 H 3.556 V 24.89 H 0 V 21.334 z M 17.778 32 H 14.222 V 28.444 H 17.778 V 32 z M 28.444 32 V 28.444 H 32 C 32 30.4 30.4 32 28.444 32 z M 3.556 0 V 3.556 H 0 C 0 1.6 1.6 0 3.556 0 z M 0 7.111 H 3.556 V 10.667 H 0 V 7.111 z M 10.667 32 H 7.11 V 28.444 H 10.666 V 32 z M 14.222 0 H 17.778 V 3.556 H 14.222 V 0 z M 28.444 14.222 H 32 V 17.778 H 28.444 V 14.222 z M 28.444 0 C 30.4 0 32 1.6 32 3.556 H 28.444 V 0 z M 28.444 21.333 H 32 V 24.89 H 28.444 V 21.334 z M 28.444 7.111 H 32 V 10.667 H 28.444 V 7.111 z M 21.334 0 H 24.889 V 3.556 H 21.333 V 0 z M 21.334 28.444 H 24.889 V 32 H 21.333 V 28.444 z M 7.11 7.111 H 24.89 V 24.89 H 7.11 V 7.11 z M 10.666 21.333 H 21.332 V 10.667 H 10.667 V 21.333 z" fill="#212121" class="nc-icon-wrapper"></path></g></svg>