<svg xmlns="http://www.w3.org/2000/svg" width="32" height="32" viewBox="0 0 32 32"><title>select users</title><g fill="#F7F7F7" class="nc-icon-wrapper"><path transform="matrix(1 0 0 -1 0 32)" d="M 12.487000000000075 23.467000000000013 C 11.021000000000088 23.467000000000013 9.784000000000088 22.10200000000001 9.784000000000088 20.479000000000013 C 9.784000000000088 18.859000000000012 11.021000000000088 17.494000000000014 12.487000000000075 17.494000000000014 C 13.955000000000075 17.494000000000014 15.192000000000087 18.85800000000001 15.192000000000087 20.479000000000013 C 15.192000000000087 22.10200000000001 13.955000000000075 23.467000000000013 12.487000000000075 23.467000000000013 z M 19.440000000000076 23.467000000000013 C 17.947000000000088 23.467000000000013 16.736000000000075 22.129000000000012 16.736000000000075 20.479000000000013 C 16.736000000000075 18.831000000000014 17.946000000000076 17.494000000000014 19.440000000000076 17.494000000000014 C 20.933000000000074 17.494000000000014 22.144000000000087 18.831000000000014 22.144000000000087 20.479000000000013 C 22.144000000000087 22.129000000000012 20.934000000000076 23.467000000000013 19.440000000000076 23.467000000000013 z M 7.467000000000075 12.373000000000012 S 8.703000000000076 15.785000000000013 12.487000000000075 15.785000000000013 C 16.273000000000074 15.785000000000013 17.508000000000074 12.373000000000012 17.508000000000074 12.373000000000012 V 10.667000000000012 H 7.467000000000075 V 12.373000000000012 z M 19.440000000000076 15.785000000000013 A 5.23 5.23 0 0 1 16.664000000000076 15.012000000000013 C 17.529000000000075 14.192000000000013 17.996000000000087 13.271000000000013 18.187000000000076 12.892000000000012 C 18.235000000000074 12.796000000000012 18.266000000000087 12.735000000000012 18.281000000000088 12.719000000000012 L 18.353000000000087 12.531000000000013 V 10.667000000000012 H 24.533000000000076 V 12.373000000000012 C 24.523000000000074 12.373000000000012 24.496000000000087 12.427000000000012 24.448000000000075 12.519000000000013 C 24.109000000000087 13.173000000000012 22.752000000000073 15.785000000000013 19.440000000000076 15.785000000000013 z M 32 16 C 32 7.163 24.837 0 16 0 C 7.164 0 0 7.163 0 16 C 0 24.838 7.164 32 16 32 C 24.837 32 32 24.838 32 16 z M 29.867 16 C 29.867 23.658 23.658 29.867 16 29.867 C 8.342 29.867 2.133 23.658 2.133 16 C 2.133 8.342 8.342 2.133 16 2.133 C 23.658 2.133 29.867 8.342 29.867 16 z" fill="#F7F7F7" class="nc-icon-wrapper"></path></g></svg>