<svg width="32" height="32" viewBox="0 0 32 32" xmlns="http://www.w3.org/2000/svg"><g class="nc-icon-wrapper" fill="#444444"><g transform="translate(1601 -155)"><path fill-rule="evenodd" d="M-1588.513 163.533c-1.466 0-2.703 1.365-2.703 2.988 0 1.62 1.237 2.985 2.703 2.985 1.468 0 2.705-1.364 2.705-2.985 0-1.623-1.237-2.988-2.705-2.988zm6.953 0c-1.493 0-2.704 1.338-2.704 2.988 0 1.648 1.21 2.985 2.704 2.985 1.493 0 2.704-1.337 2.704-2.985 0-1.65-1.21-2.988-2.704-2.988zm-11.973 11.094s1.236-3.412 5.02-3.412c3.786 0 5.021 3.412 5.021 3.412v1.706h-10.041v-1.706zm11.973-3.412a5.23 5.23 0 0 0-2.776.773c.865.82 1.332 1.741 1.523 2.12.048.096.079.157.094.173l.072.188v1.864h6.18v-1.706c-.01 0-.037-.054-.085-.146-.339-.654-1.696-3.266-5.008-3.266z"></path><path d="M-1569 171c0 8.837-7.163 16-16 16-8.836 0-16-7.163-16-16 0-8.838 7.164-16 16-16 8.837 0 16 7.162 16 16zm-2.133 0c0-7.658-6.209-13.867-13.867-13.867-7.658 0-13.867 6.209-13.867 13.867 0 7.658 6.209 13.867 13.867 13.867 7.658 0 13.867-6.209 13.867-13.867z"></path></g></g></svg>