<svg xmlns="http://www.w3.org/2000/svg" width="32" height="32" viewBox="0 0 32 32"><title>select user</title><g fill="#F7F7F7" class="nc-icon-wrapper"><path transform="matrix(1 0 0 -1 0 32)" d="M 16 17.06700000000001 A 3.738 3.738 0 0 1 19.733 20.80000000000001 A 3.738 3.738 0 0 1 16 24.533000000000012 A 3.738 3.738 0 0 1 12.267 20.80000000000001 A 3.738 3.738 0 0 1 16 17.06700000000001 z M 16 16.133000000000013 C 11.603 16.133000000000013 8.533 13.831000000000012 8.533 10.533000000000012 V 9.600000000000012 H 23.467 V 10.533000000000012 C 23.467 13.831000000000012 20.397 16.133000000000013 16 16.133000000000013 z M 32 16 C 32 7.163 24.837 0 16 0 C 7.164 0 0 7.163 0 16 C 0 24.838 7.164 32 16 32 C 24.837 32 32 24.838 32 16 z M 29.867 16 C 29.867 23.658 23.658 29.867 16 29.867 C 8.342 29.867 2.133 23.658 2.133 16 C 2.133 8.342 8.342 2.133 16 2.133 C 23.658 2.133 29.867 8.342 29.867 16 z" fill="#F7F7F7" class="nc-icon-wrapper"></path></g></svg>