<svg xmlns="http://www.w3.org/2000/svg" width="32" height="32" viewBox="0 0 32 32"><title>sensor outline small</title><g fill="#F7F7F7" class="nc-icon-wrapper"><path transform="matrix(1 0 0 -1 0 32)" d="M 25.6 25.6 C 27 24.2 28.1 22.4 28.8 20.5 L 29.2 19.4 L 31.5 20.2 L 31.1 21.3 C 30.3 23.5 29 25.6 27.3 27.3 S 23.6 30.3 21.3 31.1 L 20.2 31.5 L 19.4 29.2 L 20.5 28.8 C 22.4 28.1 24.2 27 25.6 25.6 z M 12.1 25.3 C 10.3 24.5 8.7 23.2 7.6 21.6 C 6.5 19.9 5.9 18 5.9 16 V 14.8 H 8.3 V 16 C 8.3 17.5 8.8 19 9.6 20.3 S 11.6 22.5 13 23.1 S 15.9 23.8 17.4 23.5 S 20.3 22.5 21.3 21.4 C 22.4 20.3 23.1 19 23.4 17.5 S 23.5 14.5 23 13.1 C 22.4 11.7 21.4 10.5 20.2 9.7 C 18.9 8.9 17.5 8.4 15.9 8.4 H 14.7 V 6 H 16 C 18 6 19.9 6.6 21.6 7.7 S 24.5 10.4 25.3 12.2 S 26.3 16.1 25.9 18 C 25.5 20 24.6 21.8 23.1 23.2 S 19.9 25.5 18 25.9 C 16 26.3 14 26.1 12.1 25.3 z M 9.6 11.7 L 8.9 12.7 L 6.9 11.4 L 7.6 10.4 C 8.3 9.3 9.3 8.4 10.4 7.6 L 11.4 6.9 L 12.7 8.9 L 11.7 9.6 C 10.9 10.2 10.2 10.9 9.6 11.7 z M 16 11.8 C 18.3 11.8 20.2 13.7 20.2 16 S 18.3 20.2 16 20.2 S 11.8 18.3 11.8 16 S 13.7 11.8 16 11.8 z M 16 17.8 C 17 17.8 17.8 17 17.8 16 S 17 14.2 16 14.2 S 14.2 15 14.2 16 S 15 17.8 16 17.8 z M 29.6 17.2 V 16 C 29.6 13.3 28.8 10.7 27.3 8.4 C 25.8 6.2 23.7 4.4 21.2 3.4 S 16 2.1 13.3 2.6 C 10.7 3.1 8.2 4.4 6.3 6.3 S 3.1 10.6 2.6 13.3 C 2.1 15.9 2.3 18.7 3.4 21.2 C 4.4 23.7 6.2 25.8 8.4 27.3 S 13.3 29.6 16 29.6 H 17.2 V 32 H 16 C 12.8 32 9.7 31.1 7.1 29.3 S 2.4 25 1.2 22.1 S -0.3 16 0.3 12.9 S 2.4 6.9 4.7 4.7 C 6.9 2.5 9.8 0.9 12.9 0.3 S 19.2 0 22.1 1.2 S 27.5 4.5 29.3 7.1 S 32 12.8 32 16 V 17.2 z" fill="#F7F7F7" class="nc-icon-wrapper"></path></g></svg>