<svg xmlns="http://www.w3.org/2000/svg" width="32" height="32" viewBox="0 0 32 32"><title>sensor outline</title><g fill="#F7F7F7" class="nc-icon-wrapper"><path transform="matrix(1 0 0 -1 0 32)" d="M 26.2 26.2 C 27.7 24.7 28.9 22.8 29.6 20.8 L 29.9 20.1 L 31.3 20.6 L 31 21.3 C 30.2 23.5 28.9 25.6 27.2 27.3 S 23.5 30.3 21.2 31.1 L 20.5 31.4 L 20 30 L 20.7 29.7 C 22.9 28.9 24.7 27.8 26.2 26.2 z M 12.2 25.1 C 10.4 24.4 8.8 23.1 7.8 21.5 S 6.1 18 6.1 16 V 15.2 H 7.6 V 16 C 7.6 17.7 8.1 19.3 9 20.7 S 11.2 23.2 12.8 23.8 C 14.3 24.4 16 24.6 17.6 24.3 S 20.7 23.2 21.9 22 S 23.9 19.3 24.2 17.7 S 24.4 14.4 23.7 12.9 C 23.1 11.4 22 10.1 20.6 9.1 C 19.2 8.2 17.6 7.7 15.9 7.7 H 15.1 V 6.2 H 16 C 18 6.2 19.9 6.8 21.5 7.9 S 24.4 10.5 25.1 12.3 S 26 16.1 25.7 18 C 25.3 19.9 24.4 21.7 23 23.1 S 19.9 25.4 17.900000000000013 25.8 C 16.000000000000014 26.1 14 25.9 12.200000000000012 25.1 z M 30.5 16.8 V 16 C 30.5 13.1 29.7 10.3 28.1 8 C 26.5 5.6 24.2 3.8 21.6 2.7 S 16 1.3 13.2 1.9 S 7.8 3.8 5.8 5.9 C 3.8 7.9 2.4 10.5 1.8 13.3 S 1.5 19 2.6 21.7 C 3.7 24.2 5.6 26.5 8 28 C 10.4 29.6 13.2 30.4 16 30.4 H 16.8 V 32 H 16 C 12.8 32 9.7 31.1 7.1 29.3 S 2.4 25 1.2 22.1 S -0.3 16 0.3 12.9 S 2.4 6.9 4.7 4.7 C 6.9 2.5 9.8 0.9 12.9 0.3 S 19.2 0 22.1 1.2 S 27.5 4.5 29.3 7.1 S 32 12.8 32 16 V 16.8 z M 19.8 16 C 19.8 18.1 18.1 19.8 16 19.8 S 12.2 18.1 12.2 16 S 13.9 12.2 16 12.2 S 19.8 13.9 19.8 16 z M 13.7 16 C 13.7 17.3 14.7 18.3 16 18.3 S 18.3 17.3 18.3 16 S 17.3 13.7 16 13.7 S 13.7 14.7 13.7 16 z M 9 11.3 L 8.6 12 L 7.3 11.2 L 7.7 10.6 C 8.4 9.5 9.4 8.6 10.4 7.9 L 11 7.5 L 11.8 8.8 L 11.3 9 C 10.4 9.6 9.6 10.4 9 11.3 z" fill="#F7F7F7" class="nc-icon-wrapper"></path></g></svg>