<svg xmlns="http://www.w3.org/2000/svg" width="32" height="32" viewBox="0 0 32 32"><title>server</title><g fill="#212121" class="nc-icon-wrapper"><g fill="#212121"><path transform="scale(1,-1) translate(0,-32)" d="M 8.2 32 C 7.364 32 6.503 31.703 5.9 31.1 C 5.297 30.497 5 29.636 5 28.8 V 3.2 C 5 2.364 5.297 1.503 5.9 0.9 C 6.503 0.297 7.364 0 8.2 0 H 24.2 C 25.036 0 25.897 0.297 26.5 0.9 C 27.103 1.503 27.4 2.364 27.4 3.2 V 28.8 C 27.4 29.636 27.103 30.497 26.5 31.1 C 25.897 31.703 25.036 32 24.2 32 H 8.2 z M 8.2 28.8 H 24.2 V 17.6 H 8.2 V 28.8 z M 9.8 27.2 V 24 H 22.6 V 27.2 H 9.8 z M 9.8 22.4 V 19.2 H 22.6 V 22.4 H 9.8 z M 16.2 10.4 C 17.48 10.4 18.6 9.28 18.6 8 C 18.6 6.72 17.48 5.6 16.2 5.6 C 14.92 5.6 13.8 6.72 13.8 8 C 13.8 9.28 14.92 10.4 16.2 10.4 z"></path></g></g></svg>