<svg width="32" height="32" viewBox="0 0 32 32" xmlns="http://www.w3.org/2000/svg"><g class="nc-icon-wrapper" fill="#444444"><path d="M25.721 17.315V3.945H16.37V27.69a29.192 29.192 0 0 0 4.457-2.849c3.287-2.557 4.895-5.04 4.895-7.525zm4.019-16v16c0 1.242-.22 2.411-.73 3.58-.44 1.169-1.024 2.192-1.681 3.142a27.38 27.38 0 0 1-2.484 2.63 29.701 29.701 0 0 1-2.63 2.191c-.804.585-1.68 1.096-2.558 1.608-.876.511-1.46.877-1.826 1.023-.365.146-.73.292-.95.438-.146.073-.292.073-.511.073-.22 0-.365 0-.512-.073-.219-.146-.584-.292-.95-.438-.365-.146-.95-.512-1.826-1.023-.877-.512-1.753-1.023-2.557-1.608a29.718 29.718 0 0 1-2.63-2.191 27.382 27.382 0 0 1-2.484-2.63c-.658-.95-1.242-1.973-1.68-3.142C3.219 19.726 3 18.557 3 17.315v-16c0-.365.146-.657.438-.95C3.658.073 3.95 0 4.315 0h24.11c.365 0 .657.073.876.365.293.293.439.585.439.95z"></path></g></svg>