<svg xmlns="http://www.w3.org/2000/svg" width="32" height="32" viewBox="0 0 32 32"><title>shield</title><g fill="#F7F7F7" class="nc-icon-wrapper"><path transform="matrix(1 0 0 -1 0 32)" d="M 25.721 14.685 V 28.055 H 16.37 V 4.31 A 29.19200000000001 29.19200000000001 0 0 1 20.827 7.159 C 24.114 9.716 25.722 12.199 25.722 14.684 z M 29.74 30.685 V 14.685 C 29.74 13.443 29.520000000000014 12.274 29.01 11.105 C 28.57 9.936 27.986 8.913 27.329 7.963 A 27.38 27.38 0 0 0 24.845 5.333 A 29.701 29.701 0 0 0 22.215 3.142 C 21.411 2.557 20.535 2.046 19.657 1.534 C 18.781 1.023 18.197 0.657 17.831 0.511 C 17.466 0.365 17.101 0.219 16.881 0.073 C 16.735 0 16.589 0 16.37 0 C 16.15 0 16.005 0 15.858 0.073 C 15.639 0.219 15.274 0.365 14.908 0.511 C 14.543 0.657 13.958 1.023 13.082 1.534 C 12.205 2.046 11.329 2.557 10.525 3.142 A 29.718 29.718 0 0 0 7.895 5.333 A 27.382 27.382 0 0 0 5.411 7.963 C 4.753 8.913 4.169 9.936 3.731 11.105 C 3.219 12.274 3 13.443 3 14.685 V 30.685 C 3 31.05 3.146 31.342 3.438 31.635 C 3.658 31.927 3.95 32 4.315 32 H 28.425 C 28.79 32 29.082 31.927 29.301 31.635 C 29.594 31.342 29.74 31.05 29.74 30.685 z" fill="#F7F7F7" class="nc-icon-wrapper"></path></g></svg>