<svg xmlns="http://www.w3.org/2000/svg" width="32" height="32" viewBox="0 0 32 32"><title>shrink</title><g fill="#F7F7F7" class="nc-icon-wrapper"><path transform="matrix(1 0 0 -1 0 32)" d="M 32 29.667 L 25.167 22.833 L 29.333 18.667 H 18.667 V 29.333 L 22.833 25.167 L 29.667 32 L 32 29.667 z M 32 2.333 L 29.667 0 L 22.833 6.833 L 18.667 2.667 V 13.333 H 29.333 L 25.167 9.167 L 32 2.333 z M 0 2.333 L 6.833 9.167 L 2.667 13.333 H 13.333 V 2.667 L 9.167 6.833 L 2.333 0 L 0 2.333 z M 0 29.667 L 2.333 32 L 9.167 25.167 L 13.333 29.333 V 18.667 H 2.667 L 6.833 22.833 L 0 29.667 z" fill="#F7F7F7" class="nc-icon-wrapper"></path></g></svg>