<svg xmlns="http://www.w3.org/2000/svg" width="32" height="32" viewBox="0 0 32 32"><title>slide right</title><g fill="#F7F7F7" class="nc-icon-wrapper"><path transform="matrix(1 0 0 -1 0 32)" d="M 17.342 25.333 H 1.342 A 1.334 1.334 0 0 0 1.342 28 H 17.342 A 1.334 1.334 0 0 0 17.342 25.333 z M 1.342 6.667 H 17.342 A 1.334 1.334 0 0 0 17.342 4 H 1.342 A 1.334 1.334 0 0 0 1.342 6.667 z M 22.667 8 L 32 16 L 22.667 24 V 17.333 H 1.333 A 1.334 1.334 0 0 1 1.333 14.666 H 22.667 V 8 z" fill="#F7F7F7" class="nc-icon-wrapper"></path></g></svg>