<svg xmlns="http://www.w3.org/2000/svg" width="32" height="32" viewBox="0 0 32 32"><title>smartphone</title><g fill="#212121" class="nc-icon-wrapper"><path transform="matrix(1 0 0 -1 0 32)" d="M 10.334 32 H 22.333 A 3.338 3.338 0 0 0 25.666 28.667 V 3.334 A 3.339 3.339 0 0 0 22.333 0 H 10.333 A 3.338 3.338 0 0 0 7 3.334 V 28.667 A 3.337 3.337 0 0 0 10.334 32 z M 19.667 29.333 H 13 A 0.667 0.667 0 0 1 13 28 H 19.667 A 0.666 0.666 0 1 1 19.667 29.333 z M 16.334 2 A 1.333 1.333 0 1 0 16.332 4.669 A 1.333 1.333 0 0 0 16.334 2 z M 8.334 6.667 H 24.334 V 25.334 H 8.334 V 6.667 z" fill="#212121" class="nc-icon-wrapper"></path></g></svg>