<svg xmlns="http://www.w3.org/2000/svg" width="32" height="32" viewBox="0 0 32 32"><title>smiley frown</title><g fill="#F7F7F7" class="nc-icon-wrapper"><path transform="matrix(1 0 0 -1 0 32)" d="M 23.671 9.06 C 23.744 8.694 23.744 8.329 23.525 8.037 A 1.307 1.307 0 0 0 22.795 7.379 C 22.429 7.233 22.064 7.306 21.772 7.452 A 1.053 1.053 0 0 0 21.114 8.256 C 20.749 9.352 20.091 10.301 19.142 10.959 C 18.192 11.616 17.169 11.982 16 11.982 C 14.831 11.982 13.808 11.616 12.858 10.959 C 11.908 10.301 11.251 9.352 10.886 8.256 A 1.053 1.053 0 0 0 10.228 7.452 C 9.936 7.306 9.571 7.232 9.205 7.379 A 1.307 1.307 0 0 0 8.475 8.036 C 8.255 8.329 8.255 8.694 8.329 9.059 C 8.84 10.739 9.863 12.055 11.251 13.151 C 12.639 14.174 14.247 14.685 16 14.685 C 17.753 14.685 19.36 14.174 20.749 13.151 C 22.137 12.055 23.159 10.74 23.671 9.059 z M 13.297 21.332 C 13.297 20.602 13.077 19.944 12.567 19.432 C 12.055 18.922 11.397 18.702 10.667 18.702 S 9.279 18.922 8.767 19.432 A 2.653 2.653 0 0 0 7.963 21.332 C 7.963 22.062 8.256 22.72 8.767 23.232 A 2.653 2.653 0 0 0 10.667 24.036 C 11.397 24.036 12.055 23.743 12.567 23.232 C 13.077 22.72 13.297 22.062 13.297 21.332 z M 24.037 21.332 C 24.037 20.602 23.744 19.944 23.233 19.432 C 22.721 18.922 22.063 18.702 21.333 18.702 S 19.945 18.922 19.433 19.432 C 18.923 19.944 18.703 20.602 18.703 21.332 S 18.923 22.72 19.433 23.232 A 2.653 2.653 0 0 0 21.333 24.036 C 22.063 24.036 22.722 23.743 23.233 23.232 C 23.744 22.72 24.036 22.062 24.036 21.332 z M 29.37 16 C 29.37 17.826 29.005 19.507 28.274 21.187 A 11.425 11.425 0 0 1 25.424 25.425 A 11.424 11.424 0 0 1 21.187 28.274 C 19.507 29.004 17.827 29.37 16 29.37 C 14.174 29.37 12.493 29.005 10.813 28.274 A 11.424 11.424 0 0 1 6.575 25.424 A 11.424 11.424 0 0 1 3.726 21.187 C 2.996 19.507 2.63 17.827 2.63 16 C 2.63 14.174 2.995 12.493 3.726 10.813 A 11.424 11.424 0 0 1 6.576 6.575 A 11.425 11.425 0 0 1 10.813 3.726 C 12.493 2.996 14.173 2.63 16 2.63 C 17.826 2.63 19.507 2.995 21.187 3.726 A 11.425 11.425 0 0 1 25.425 6.576 A 11.425 11.425 0 0 1 28.274 10.813 C 29.004 12.493 29.37 14.173 29.37 16 z M 32 16 C 32 13.078 31.343 10.374 29.881 7.963 C 28.421 5.48 26.521 3.58 24.036 2.119 C 21.627 0.657 18.922 0 16 0 C 13.078 0 10.374 0.657 7.963 2.119 C 5.479 3.579 3.58 5.479 2.119 7.964 C 0.658 10.373 0 13.078 0 16 C 0 18.922 0.658 21.626 2.119 24.037 C 3.579 26.52 5.479 28.42 7.963 29.88 C 10.374 31.342 13.078 32 16 32 C 18.922 32 21.626 31.342 24.037 29.881 C 26.52 28.421 28.42 26.521 29.881 24.037 C 31.343 21.626 32 18.922 32 16 z" fill="#F7F7F7" class="nc-icon-wrapper"></path></g></svg>