<svg width="32" height="32" viewBox="0 0 32 32" xmlns="http://www.w3.org/2000/svg"><g class="nc-icon-wrapper" fill="#444444"><path d="M28.313 28.625H3.688C1.688 28.625 0 27 0 25V8.5c0-2 1.688-3.688 3.688-3.688H4.75a1.58 1.58 0 0 0 1.438-.937V3.75L6.5 3c.188-.563.813-1 1.438-1H12c.625 0 1.25.438 1.438 1l.312.813c.25.562.813 1 1.5 1h13.063C30.313 4.813 32 6.5 32 8.5V25c0 2-1.688 3.625-3.688 3.625zM16.688 9.187c-4.375 0-7.938 3.5-7.938 7.813s3.563 7.813 7.938 7.813 7.937-3.5 7.937-7.813-3.563-7.813-7.938-7.813zM27.438 7.5c-.938 0-1.75.75-1.75 1.75 0 .938.812 1.75 1.75 1.75 1 0 1.812-.813 1.812-1.75 0-1-.813-1.75-1.813-1.75zm-10.75 14.438c-2.75 0-5-2.25-5-4.938 0-2.75 2.25-4.938 5-4.938s5 2.188 5 4.938c0 2.688-2.25 4.938-5 4.938z"></path></g></svg>