<svg xmlns="http://www.w3.org/2000/svg" width="32" height="32" viewBox="0 0 32 32"><title>solution</title><g fill="#212121" class="nc-icon-wrapper"><path transform="matrix(1 0 0 -1 0 32)" d="M 16.4 31.7 C 15.7 32.1 14.9 32 14.2 31.7 L 3.1 25.6 C 1.6 24.8 1.5 22.5 3 21.6 L 14.1 15 C 14.8 14.6 15.7 14.6 16.4 15 L 28.1 21.7 C 29.7 22.6 29.6 24.9 28 25.7 L 16.4 31.7 z M 2.5 19.8 C 1.9 20.1 1.2 19.9 0.8 19.4 S 0.6 18 1.2 17.6 L 13.8 10.3 C 14.7 9.8 15.8 9.8 16.6 10.3 L 28.3 17 C 28.5 17.1 28.7 17 28.9 16.8 C 28.9 16.7 29.000000000000014 16.7 29.000000000000014 16.6 V 15.4 C 29.000000000000014 15.3 28.9 15.1 28.80000000000001 15 L 15.600000000000012 7.400000000000013 C 15.500000000000012 7.3 15.3 7.3 15.2 7.400000000000013 L 4.9 13.400000000000013 C 3 14.5 0.6 13.1 0.6 10.9 V 9.7 C 0.6 8.7 1.1 7.7 2 7.2 L 13.8 0.4 C 14.7 -0.1 15.8 -0.1 16.6 0.4 L 30.7 8.4 C 31.30000000000001 8.7 31.500000000000014 9.5 31.2 10.1 C 30.9 10.7 30.1 10.9 29.500000000000014 10.6 L 15.4 2.6 C 15.3 2.5 15.1 2.5 15 2.6 L 3.3 9.4 C 3.2 9.5 3.1 9.6 3.1 9.8 V 11 C 3.1 11.3 3.4 11.5 3.7 11.4 L 13.9 5.5 C 14.8 5 15.9 5 16.7 5.5 L 30 12.9 C 30.9 13.4 31.4 14.4 31.4 15.4 V 16.6 C 31.4 18.8 29 20.2 27.1 19.1 L 15.5 12.5 C 15.4 12.4 15.2 12.4 15.1 12.5 L 2.5 19.8 z" fill="#212121" class="nc-icon-wrapper"></path></g></svg>