<svg xmlns="http://www.w3.org/2000/svg" width="32" height="32" viewBox="0 0 32 32"><title>sort ascending</title><g fill="none" class="nc-icon-wrapper"><path fill="#212121" d="M2.116 14.235a1.225 1.225 0 1 1-1.732-1.732L6.75 6.136l6.366 6.367a1.225 1.225 0 1 1-1.732 1.732l-3.409-3.409v14.436a1.225 1.225 0 0 1-2.45 0V10.826l-3.409 3.409zM18.4 10.597a1.225 1.225 0 0 1 0-2.45h5.297a1.225 1.225 0 0 1 0 2.45H18.4zm-1.225 5.837c0 .677.548 1.225 1.225 1.225h7.062a1.225 1.225 0 1 0 0-2.45H18.4c-.677 0-1.225.549-1.225 1.225zm0 7.063c0 .676.548 1.224 1.225 1.224h12.359a1.225 1.225 0 1 0 0-2.45h-12.36c-.676 0-1.224.549-1.224 1.226z"></path></g></svg>