<svg xmlns="http://www.w3.org/2000/svg" width="32" height="32" viewBox="0 0 32 32"><title>sort descending</title><g fill="none" class="nc-icon-wrapper"><path fill="#212121" d="M6.75 6.382c.676 0 1.225.548 1.225 1.225v14.436l3.409-3.41a1.225 1.225 0 1 1 1.732 1.733L6.75 26.732.384 20.366a1.225 1.225 0 1 1 1.732-1.732l3.409 3.409V7.607c0-.677.548-1.225 1.225-1.225zm10.425 2.99c0-.676.548-1.225 1.225-1.225h12.358a1.225 1.225 0 1 1 0 2.45H18.4a1.225 1.225 0 0 1-1.225-1.225zm0 7.062c0-.676.548-1.225 1.225-1.225h7.062a1.225 1.225 0 1 1 0 2.45H18.4a1.225 1.225 0 0 1-1.225-1.224zm1.225 5.838a1.225 1.225 0 0 0 0 2.45h5.296a1.225 1.225 0 1 0 0-2.45H18.4z"></path></g></svg>