<svg xmlns="http://www.w3.org/2000/svg" width="32" height="32" viewBox="0 0 32 32"><title>sort descending</title><g fill="#212121" class="nc-icon-wrapper"><path transform="matrix(1 0 0 -1 0 32)" d="M 6.75 25.618 C 7.426 25.618 7.975 25.07 7.975 24.393 V 9.957 L 11.384 13.367 A 1.225 1.225 0 1 0 13.116 11.634 L 6.75 5.268 L 0.384 11.634 A 1.225 1.225 0 1 0 2.116 13.366 L 5.525 9.957 V 24.393 C 5.525 25.07 6.073 25.618 6.75 25.618 z M 17.175 22.628 C 17.175 23.304 17.723 23.853 18.4 23.853 H 30.758 A 1.225 1.225 0 1 0 30.758 21.403 H 18.4 A 1.225 1.225 0 0 0 17.175 22.628 z M 17.175 15.566 C 17.175 16.242 17.723 16.791 18.4 16.791 H 25.462 A 1.225 1.225 0 1 0 25.462 14.341 H 18.4 A 1.225 1.225 0 0 0 17.175 15.565 z M 18.4 9.728 A 1.225 1.225 0 0 1 18.4 7.278 H 23.696 A 1.225 1.225 0 1 1 23.696 9.728 H 18.4 z" fill="#212121" class="nc-icon-wrapper"></path></g></svg>