<svg xmlns="http://www.w3.org/2000/svg" width="32" height="32" viewBox="0 0 32 32"><title>sort ascending</title><g fill="#F7F7F7" class="nc-icon-wrapper"><path transform="matrix(1 0 0 -1 0 32)" d="M 2.116 17.765 A 1.225 1.225 0 1 0 0.384 19.497 L 6.75 25.864 L 13.116 19.497 A 1.225 1.225 0 1 0 11.384 17.765 L 7.975 21.174 V 6.738 A 1.225 1.225 0 0 0 5.525 6.738 V 21.174 L 2.116 17.765 z M 18.4 21.403 A 1.225 1.225 0 0 0 18.4 23.853 H 23.697 A 1.225 1.225 0 0 0 23.697 21.403 H 18.4 z M 17.175 15.566 C 17.175 14.889 17.723 14.341 18.4 14.341 H 25.462 A 1.225 1.225 0 1 1 25.462 16.791 H 18.4 C 17.723 16.791 17.175 16.242 17.175 15.566 z M 17.175 8.503 C 17.175 7.827 17.723 7.279 18.4 7.279 H 30.759 A 1.225 1.225 0 1 1 30.759 9.729 H 18.399 C 17.723 9.729 17.175 9.18 17.175 8.503 z" fill="#F7F7F7" class="nc-icon-wrapper"></path></g></svg>