<svg fill="none" height="32" viewBox="0 0 32 32" width="32" xmlns="http://www.w3.org/2000/svg"><g fill="#000"><path d="m1 1.875c0-1.035534.83947-1.875 1.875-1.875h26.25c1.0355 0 1.875.839466 1.875 1.875v5.625c0 1.03553-.8395 1.875-1.875 1.875h-26.25c-1.03553 0-1.875-.83947-1.875-1.875z"/><path d="m1 24.375c0-1.0355.83947-1.875 1.875-1.875h26.25c1.0355 0 1.875.8395 1.875 1.875v5.625c0 1.0355-.8395 1.875-1.875 1.875h-26.25c-1.03553 0-1.875-.8395-1.875-1.875z"/><path d="m2.875 11.25c-1.03553 0-1.875.8395-1.875 1.875v5.625c0 1.0355.83947 1.875 1.875 1.875h26.25c1.0355 0 1.875-.8395 1.875-1.875v-5.625c0-1.0355-.8395-1.875-1.875-1.875z"/></g></svg>