<svg xmlns="http://www.w3.org/2000/svg" width="32" height="32" viewBox="0 0 32 32"><title>spaces list</title><g fill="#212121" class="nc-icon-wrapper"><path transform="matrix(1 0 0 -1 0 32)" d="M 1 30.125 C 1 31.161 1.84 32 2.875 32 H 29.125 C 30.161 32 31 31.16 31 30.125 V 24.5 C 31 23.464 30.16 22.625 29.125 22.625 H 2.875 A 1.875 1.875 0 0 0 1 24.5 z M 1 7.625 C 1 8.661 1.84 9.5 2.875 9.5 H 29.125 C 30.161 9.5 31 8.66 31 7.625 V 2 C 31 0.964 30.16 0.125 29.125 0.125 H 2.875 A 1.875 1.875 0 0 0 1 2 z M 2.875 20.75 C 1.839 20.75 1 19.91 1 18.875 V 13.25 C 1 12.214 1.84 11.375 2.875 11.375 H 29.125 C 30.161 11.375 31 12.215 31 13.25 V 18.875 C 31 19.911 30.16 20.75 29.125 20.75 z" fill="#212121" class="nc-icon-wrapper"></path></g></svg>