<svg xmlns="http://www.w3.org/2000/svg" width="32" height="32" viewBox="0 0 32 32"><title>spaces</title><g fill="#212121" class="nc-icon-wrapper"><path transform="matrix(1 0 0 -1 0 32)" d="M 13.2 32 H 1.9 C 0.8 32 0 31.2 0 30.1 V 18.8 C 0 17.8 0.8 16.9 1.9 16.9 H 13.2 C 14.2 16.9 15.1 17.7 15.1 18.8 V 30.1 C 15.1 31.2 14.2 32 13.2 32 z M 13.2 15.1 H 1.9 C 0.9 15.1 0 14.3 0 13.2 V 1.9 C 0 0.9 0.8 0 1.9 0 H 13.2 C 14.2 0 15.1 0.8 15.1 1.9 V 13.2 C 15.1 14.2 14.2 15.1 13.2 15.1 z M 30.1 15.1 H 18.8 C 17.8 15.1 16.9 14.3 16.9 13.2 V 1.9 C 16.9 0.9 17.7 0 18.8 0 H 30.1 C 31.1 0 32 0.8 32 1.9 V 13.2 C 32 14.2 31.2 15.1 30.1 15.1 z M 30.1 32 H 18.8 C 17.8 32 16.9 31.2 16.9 30.1 V 18.8 C 16.9 17.8 17.7 16.9 18.8 16.9 H 30.1 C 31.1 16.9 32 17.7 32 18.8 V 30.1 C 32 31.2 31.2 32 30.1 32 z" fill="#212121" class="nc-icon-wrapper"></path></g></svg>