<svg xmlns="http://www.w3.org/2000/svg" width="32" height="32" viewBox="0 0 32 32"><title>speedometer</title><g fill="#F7F7F7" class="nc-icon-wrapper"><path transform="matrix(1 0 0 -1 0 32)" d="M 14.667 32 H 16 C 24.823 32 32 24.823 32 16 S 24.823 0 16 0 S 0 7.177 0 16 V 17.333 H 2.667 V 16 C 2.667 8.648 8.648 2.667 16 2.667 S 29.333 8.648 29.333 16 C 29.333 22.901 24.061 28.596 17.333 29.267 V 25.333 H 14.667 V 32 z M 16 12 A 3.976 3.976 0 0 0 13.17 13.172 C 12.095 14.247 7.693 21.582 6.37 23.802 L 3.675 28.325 L 8.197 25.632 C 10.418 24.308 17.75 19.906 18.827 18.83 A 3.976 3.976 0 0 0 20 16 A 3.976 3.976 0 0 0 18.828 13.17 A 3.975 3.975 0 0 0 16 12 z" fill="#F7F7F7" class="nc-icon-wrapper"></path></g></svg>