<svg xmlns="http://www.w3.org/2000/svg" width="32" height="32" viewBox="0 0 32 32"><title>square filled</title><g fill="#212121" class="nc-icon-wrapper"><g fill="#212121"><path transform="scale(1,-1) translate(0,-32)" d="M 3.556 32 C 2.627 32 1.67 31.67 1 31 C 0.33 30.33 0 29.373 0 28.444 V 3.556 C 0 2.627 0.33 1.67 1 1 C 1.67 0.33 2.627 0 3.556 0 H 28.444 C 29.373 0 30.33 0.33 31.000000000000014 1 C 31.670000000000012 1.67 32 2.627 32 3.556 V 28.444 C 32 29.373 31.67 30.33 31 31 C 30.33 31.67 29.373 32 28.444 32 H 3.556 z"></path></g></g></svg>