<svg xmlns="http://www.w3.org/2000/svg" width="32" height="32" viewBox="0 0 32 32"><title>stars</title><g fill="#212121" class="nc-icon-wrapper"><g fill="#212121"><path transform="scale(1,-1) translate(0,-32)" d="M 22.6 26.9 C 24.1 26.9 25.3 28 25.3 29.4 S 24 32 22.6 32 S 19.9 30.9 19.9 29.5 S 21.1 26.9 22.6 26.9 z M 9.3 22.7 C 9.3 24.1 8.1 25.2 6.6 25.2 C 5.1 25.2 3.9 24.1 3.9 22.7 S 5.1 20.2 6.6 20.2 C 8.1 20.2 9.3 21.3 9.3 22.7 z M 23.5 3.4 C 22.5 3.4 21.7 2.6 21.7 1.7 C 21.7 0.8 22.5 0 23.5 0 S 25.3 0.8 25.3 1.7 C 25.2 2.6 24.4 3.4 23.5 3.4 z M 26.9 13.7 C 18.5 16.2 16.6 23.4 16.6 23.4 C 16.6 23.5 16.5 23.6 16.4 23.6 S 16.2 23.5 16.2 23.4 C 16.2 23.4 14.3 16.2 5.9 13.7 C 5.8 13.7 5.8 13.6 5.8 13.5 S 5.9 13.3 6 13.3 C 14.4 10.8 16.3 3.6 16.3 3.6 C 16.3 3.5 16.4 3.4 16.5 3.4 S 16.7 3.5 16.7 3.6 C 16.7 3.6 18.6 10.8 27 13.3 C 27.1 13.3 27.1 13.4 27.1 13.5 C 27 13.6 26.9 13.6 26.9 13.7 z"></path></g></g></svg>