<svg xmlns="http://www.w3.org/2000/svg" x="0" y="0" viewBox="0 0 32 32" width="32" height="32"><g class="nc-icon-wrapper" fill="#444444"><path d="M22.6 5.1c1.5 0 2.7-1.1 2.7-2.5S24 0 22.6 0s-2.7 1.1-2.7 2.5 1.2 2.6 2.7 2.6zM9.3 9.3c0-1.4-1.2-2.5-2.7-2.5-1.5 0-2.7 1.1-2.7 2.5s1.2 2.5 2.7 2.5c1.5 0 2.7-1.1 2.7-2.5zm14.2 19.3c-1 0-1.8.8-1.8 1.7 0 .9.8 1.7 1.8 1.7s1.8-.8 1.8-1.7c-.1-.9-.9-1.7-1.8-1.7zm3.4-10.3c-8.4-2.5-10.3-9.7-10.3-9.7 0-.1-.1-.2-.2-.2s-.2.1-.2.2c0 0-1.9 7.2-10.3 9.7-.1 0-.1.1-.1.2s.1.2.2.2c8.4 2.5 10.3 9.7 10.3 9.7 0 .1.1.2.2.2s.2-.1.2-.2c0 0 1.9-7.2 10.3-9.7.1 0 .1-.1.1-.2-.1-.1-.2-.1-.2-.2z"></path></g></svg>