<svg width="32" height="32" viewBox="0 0 32 32" xmlns="http://www.w3.org/2000/svg"><g class="nc-icon-wrapper" fill="#444444"><g transform="translate(2369 -539)"><path d="M-2349.869 562.965l-4.55-4.55a1.515 1.515 0 0 1-.445-1.073v-7.584h3.034v6.956l4.106 4.106-2.145 2.145z"></path><path d="M-2356.379 542.033V539h6.067v3.033h-6.067z"></path><path d="M-2353.348 571c-7.527 0-13.652-6.124-13.652-13.652s6.125-13.652 13.652-13.652c7.527 0 13.652 6.124 13.652 13.652S-2345.821 571-2353.348 571zm0-24.27c-5.855 0-10.618 4.763-10.618 10.618s4.763 10.618 10.618 10.618 10.618-4.763 10.618-10.618-4.763-10.618-10.618-10.618z"></path></g></g></svg>