<svg width="32" height="32" viewBox="0 0 32 32" xmlns="http://www.w3.org/2000/svg"><g class="nc-icon-wrapper" fill="#444444"><path d="M18.673 26.517v3.52h-5.2l-3.295-5.28-.512-.88c-.147-.146-.22-.293-.22-.44h-.073l-.22.44c-.146.294-.293.587-.512.88l-3.222 5.28H0v-3.52h2.71l4.1-6.086-3.88-5.72H.072v-3.519h5.785l2.856 4.767c.073.073.22.366.513.88.146.146.22.293.22.44h.072c.074-.074.147-.22.22-.44l.513-.88 2.929-4.767h5.418v3.52h-2.636l-3.88 5.646 4.32 6.16h2.27zM32 12.292v4.326H21.236l-.073-.586c-.074-.367-.074-.66-.074-.953 0-.88.147-1.687.513-2.42.366-.733.878-1.393 1.391-1.833.513-.44 1.099-.954 1.758-1.394.659-.44 1.244-.806 1.757-1.1.513-.366 1.025-.733 1.391-1.173.366-.366.513-.88.513-1.32 0-.513-.22-.953-.586-1.32-.44-.293-.952-.513-1.538-.513-.659 0-1.391.294-1.977.807l-.805.807-2.197-1.907c.366-.513.805-.953 1.318-1.393A6.42 6.42 0 0 1 26.581 1c1.538 0 2.783.367 3.735 1.247.952.806 1.391 1.906 1.391 3.3 0 .806-.146 1.466-.512 2.126-.293.66-.733 1.246-1.245 1.613-.513.44-1.099.806-1.758 1.246-.586.367-1.171.734-1.684 1.027-.513.293-.952.66-1.391 1.1-.366.44-.586.88-.586 1.32h4.833v-1.687H32z"></path></g></svg>