<svg xmlns="http://www.w3.org/2000/svg" width="32" height="32" viewBox="0 0 32 32"><title>superscript</title><g fill="#F7F7F7" class="nc-icon-wrapper"><g fill="#F7F7F7"><path transform="scale(1,-1) translate(0,-32)" d="M 18.673 5.483 V 1.963 H 13.473 L 10.178 7.243 L 9.666 8.123 C 9.519 8.269 9.446 8.416 9.446 8.563 H 9.373 L 9.153 8.123 C 9.007 7.829 8.86 7.536 8.641 7.243 L 5.419 1.963 H 0 V 5.483 H 2.71 L 6.81 11.569 L 2.93 17.289 H 0.072 V 20.808 H 5.857 L 8.713 16.041 C 8.786 15.968 8.933 15.675 9.226 15.161 C 9.372 15.015 9.446 14.868 9.446 14.721 H 9.518 C 9.592 14.795 9.665 14.941 9.738 15.161 L 10.251 16.041 L 13.18 20.808 H 18.598 V 17.288 H 15.962 L 12.082 11.642 L 16.402 5.482 H 18.672 z M 32 19.708 V 15.382 H 21.236 L 21.163 15.968 C 21.089 16.335 21.089 16.628 21.089 16.921 C 21.089 17.801 21.236 18.608 21.602 19.341 C 21.968 20.074 22.48 20.734 22.993 21.174 C 23.506 21.614 24.092 22.128 24.751 22.568 C 25.41 23.008 25.995 23.374 26.508 23.668 C 27.021 24.034 27.533 24.401 27.899 24.841 C 28.265 25.207 28.412 25.721 28.412 26.161 C 28.412 26.674 28.19200000000001 27.114 27.826 27.481 C 27.386 27.774 26.874 27.994 26.288 27.994 C 25.629000000000012 27.994 24.897000000000013 27.7 24.311 27.187 L 23.506 26.38 L 21.309 28.287 C 21.675 28.8 22.114 29.24 22.627000000000013 29.68 A 6.42 6.42 0 0 0 26.581 31 C 28.119 31 29.364 30.633 30.316 29.753 C 31.268 28.947 31.707 27.847 31.707 26.453 C 31.707 25.647 31.561 24.987 31.195 24.327 C 30.902 23.667 30.462 23.081 29.95 22.714 C 29.437 22.274 28.851 21.908 28.192 21.468 C 27.606 21.101 27.021 20.734 26.508 20.441 C 25.995 20.148 25.556 19.781 25.117 19.341 C 24.751 18.901 24.531 18.461 24.531 18.021 H 29.364 V 19.708 H 32 z"></path></g></g></svg>