<svg xmlns="http://www.w3.org/2000/svg" width="32" height="32" viewBox="0 0 32 32"><title>system diagnostics</title><g fill="#F7F7F7" class="nc-icon-wrapper"><path transform="matrix(1 0 0 -1 0 32)" d="M 2.7 16 H 0 C 0 15 0.1 14 0.3 13.1 L 2.9 13.6 C 2.7 14.4 2.7 15.2 2.7 16 z M 3.6 20.8 L 1.1 21.8 C 0.7 20.9 0.5 19.9 0.3 19 L 2.9 18.5 C 3 19.3 3.3 20.1 3.6 20.8 z M 6.1 25 L 4.1 26.8 C 3.5 26.1 2.9 25.3 2.4 24.5 L 4.7 23.1 C 5.1 23.8 5.6 24.4 6.1 25 z M 10 28 L 8.8 30.4 C 7.9 30 7.1 29.4 6.3 28.8 L 7.9 26.7 C 8.6 27.2 9.3 27.6 10 28 z M 29.1 18.6 L 31.7 19.1 C 31.500000000000014 20.1 31.2 21 30.9 21.9 L 28.4 20.9 C 28.7 20.2 28.9 19.4 29.1 18.6 z M 29.6 24.5 C 29.1 25.3 28.5 26.1 27.8 26.8 L 25.8 25 C 26.4 24.4 26.9 23.7 27.3 23 L 29.6 24.5 z M 17.4 32 L 17.2 29.3 C 18 29.2 18.8 29.1 19.6 28.9 L 20.3 31.5 C 19.4 31.7 18.4 31.9 17.4 32 z M 25.6 28.9 C 24.8 29.5 24 30 23.1 30.4 L 21.9 28 C 22.6 27.6 23.3 27.2 24 26.7 L 25.6 28.9 z M 14.7 29.3 L 14.5 32 C 13.5 31.9 12.5 31.7 11.6 31.5 L 12.3 28.9 C 13.1 29.1 13.9 29.3 14.7 29.3 z M 24 5.4 L 25.6 3.3 C 26.4 3.9 27.1 4.6 27.8 5.3 L 25.8 7.1 C 25.3 6.5 24.7 5.9 24 5.4 z M 3.6 11.2 L 1.1 10.2 C 1.5 9.3 1.9 8.4 2.4 7.6 L 4.7 9 C 4.2 9.7 3.9 10.5 3.6 11.2 z M 14.8 2.8 L 14.6 0.1 C 15.1 0.1 15.6 0 16.1 0 S 17.1 0 17.6 0.1 L 17.4 2.8 C 16.4 2.7 15.6 2.7 14.8 2.8 z M 27.3 9 L 29.6 7.6 C 30.1 8.4 30.6 9.3 30.9 10.2 L 28.4 11.2 C 28.1 10.5 27.8 9.7 27.3 9 z M 29.3 16.1 C 29.3 15.3 29.2 14.5 29.1 13.6 L 31.7 13.1 C 31.9 14.1 32 15 32 16 V 16.1 H 29.3 z M 19.7 3.2 L 20.4 0.6 C 21.3 0.9 22.3 1.2 23.2 1.7 L 22 4.1 C 21.2 3.8 20.4 3.5 19.7 3.2 z M 8.9 1.7 C 9.8 1.3 10.7 0.9 11.7 0.6 L 12.4 3.2 C 11.6 3.4 10.8 3.7 10.1 4.1 L 8.9 1.7 z M 4.2 5.3 C 4.9 4.6 5.6 3.9 6.4 3.3 L 8 5.4 C 7.3 5.9 6.7 6.5 6.2 7.1 L 4.2 5.3 z M 14 9.7 H 18 V 16.1 H 14 V 9.7 z M 20 9.7 H 24 V 22.5 H 20 V 9.7 z M 12 18.2 H 8 V 9.7 H 12 V 18.2 z" fill="#F7F7F7" class="nc-icon-wrapper"></path></g></svg>