<svg xmlns="http://www.w3.org/2000/svg" x="0" y="0" viewBox="0 0 32 32" width="32" height="32"><g class="nc-icon-wrapper" fill="#444444"><path d="M2.7 16H0c0 1 .1 2 .3 2.9l2.6-.5c-.2-.8-.2-1.6-.2-2.4zm.9-4.8l-2.5-1c-.4.9-.6 1.9-.8 2.8l2.6.5c.1-.8.4-1.6.7-2.3zM6.1 7l-2-1.8c-.6.7-1.2 1.5-1.7 2.3l2.3 1.4c.4-.7.9-1.3 1.4-1.9zM10 4L8.8 1.6c-.9.4-1.7 1-2.5 1.6l1.6 2.1c.7-.5 1.4-.9 2.1-1.3zm19.1 9.4l2.6-.5c-.2-1-.5-1.9-.8-2.8l-2.5 1c.3.7.5 1.5.7 2.3zm.5-5.9c-.5-.8-1.1-1.6-1.8-2.3l-2 1.8c.6.6 1.1 1.3 1.5 2l2.3-1.5zM17.4 0l-.2 2.7c.8.1 1.6.2 2.4.4l.7-2.6c-.9-.2-1.9-.4-2.9-.5zm8.2 3.1c-.8-.6-1.6-1.1-2.5-1.5L21.9 4c.7.4 1.4.8 2.1 1.3l1.6-2.2zm-10.9-.4L14.5 0c-1 .1-2 .3-2.9.5l.7 2.6c.8-.2 1.6-.4 2.4-.4zM24 26.6l1.6 2.1c.8-.6 1.5-1.3 2.2-2l-2-1.8c-.5.6-1.1 1.2-1.8 1.7zM3.6 20.8l-2.5 1c.4.9.8 1.8 1.3 2.6L4.7 23c-.5-.7-.8-1.5-1.1-2.2zm11.2 8.4l-.2 2.7c.5 0 1 .1 1.5.1s1 0 1.5-.1l-.2-2.7c-1 .1-1.8.1-2.6 0zM27.3 23l2.3 1.4c.5-.8 1-1.7 1.3-2.6l-2.5-1c-.3.7-.6 1.5-1.1 2.2zm2-7.1c0 .8-.1 1.6-.2 2.5l2.6.5c.2-1 .3-1.9.3-2.9v-.1h-2.7zm-9.6 12.9l.7 2.6c.9-.3 1.9-.6 2.8-1.1L22 27.9c-.8.3-1.6.6-2.3.9zM8.9 30.3c.9.4 1.8.8 2.8 1.1l.7-2.6c-.8-.2-1.6-.5-2.3-.9l-1.2 2.4zm-4.7-3.6c.7.7 1.4 1.4 2.2 2L8 26.6c-.7-.5-1.3-1.1-1.8-1.7l-2 1.8zm9.8-4.4h4v-6.4h-4v6.4zm6 0h4V9.5h-4v12.8zm-8-8.5H8v8.5h4v-8.5z"></path></g></svg>