<svg xmlns="http://www.w3.org/2000/svg" width="32" height="32" viewBox="0 0 32 32"><title>system diagnostics 2</title><g fill="#212121" class="nc-icon-wrapper"><g fill="#212121"><path transform="scale(1,-1) translate(0,-32)" d="M 2.667 15.972000000000012 L 0 15.966000000000012 C 0.003 14.979000000000012 0.095 13.992000000000013 0.276 13.030000000000012 L 2.896 13.522000000000013 A 13.55 13.55 0 0 0 2.666 15.972000000000012 z M 3.5520000000000125 20.787000000000013 L 1.0630000000000126 21.747000000000014 A 15.858 15.858 0 0 1 0.2630000000000125 18.903000000000013 L 2.8860000000000126 18.423000000000012 C 3.0340000000000127 19.23000000000001 3.2580000000000124 20.026000000000014 3.5520000000000125 20.787000000000013 z M 6.124 24.957 L 4.15 26.75 A 16.12 16.12 0 0 1 2.375 24.391 L 4.645 22.99 C 5.076 23.689 5.574 24.35099999999999 6.125 24.957 z M 10.024 27.923 L 8.826 30.306 C 7.948 29.865 7.106 29.336 6.323 28.743 L 7.938 26.62 A 13.393 13.393 0 0 0 10.024 27.923 z M 29.098 18.503999999999987 L 31.718 19.003999999999987 C 31.533 19.971999999999987 31.258 20.924 30.901 21.838999999999988 L 28.417 20.866 C 28.715 20.10399999999999 28.945 19.309999999999988 29.098 18.503999999999987 z M 29.572 24.477 A 16.14 16.14 0 0 1 27.784 26.822 L 25.82 25.017 A 13.341 13.341 0 0 0 27.311 23.061000000000014 L 29.572 24.477 z M 20.326 31.406999999999986 A 15.96 15.96 0 0 1 17.423 31.937999999999988 L 17.19 29.280999999999988 C 18.006 29.20899999999999 18.82 29.058999999999987 19.609 28.838999999999988 L 20.326 31.406999999999986 z M 25.598 28.802000000000024 A 16.026 16.026 0 0 1 23.084 30.350000000000026 L 21.901 27.960000000000026 A 13.31 13.31 0 0 0 23.996 26.670000000000027 L 25.598 28.802000000000024 z M 14.726 29.273000000000025 L 14.476 31.928000000000026 A 15.72 15.72 0 0 1 11.576 31.380000000000024 L 12.313 28.817000000000025 C 13.096 29.042000000000026 13.909 29.197000000000024 14.726 29.273000000000025 z M 24.042 5.362 L 25.651 3.237 A 16.373 16.373 0 0 1 27.83 5.225 L 25.858 7.022 A 13.568 13.568 0 0 0 24.042 5.362 z M 3.5729999999999875 11.16 L 1.0889999999999875 10.193 C 1.4449999999999874 9.278 1.8889999999999876 8.39 2.409 7.554 L 4.672999999999988 8.964 A 13.317 13.317 0 0 0 3.5729999999999875 11.161 z M 14.782 2.7220000000000124 L 14.542 0.0640000000000125 A 16.17 16.17 0 0 1 17.489 0.0680000000000125 L 17.243 2.7240000000000126 C 16.433 2.6490000000000125 15.593 2.647 14.782 2.7220000000000124 z M 27.341 8.985000000000012 L 29.608 7.581000000000013 C 30.126 8.417000000000012 30.569 9.306000000000013 30.924 10.223000000000013 L 28.438 11.186000000000012 A 13.397 13.397 0 0 0 27.340999999999987 8.985000000000012 z M 29.333 16 C 29.333 15.175 29.257 14.352 29.109 13.55 L 31.732 13.063 C 31.909 14.024 32 15.013 32 16 V 16.062 L 29.333 16 z M 19.662000000000013 3.1740000000000124 L 20.392000000000014 0.612 C 21.33800000000001 0.881 22.26200000000001 1.2410000000000125 23.144000000000013 1.6800000000000126 L 21.954 4.065 A 13.52 13.52 0 0 0 19.662000000000013 3.175 z M 8.885 1.667 C 9.765000000000013 1.228 10.692000000000013 0.871 11.64 0.602 L 12.365 3.17 C 11.576 3.391 10.805 3.69 10.072 4.055 L 8.885 1.667 z M 4.193 5.202 A 16.197 16.197 0 0 1 6.375 3.218 L 7.981 5.346 A 13.478 13.478 0 0 0 6.159 7.003 L 4.193 5.202 z M 18 16.001000000000012 H 14 V 9.601000000000013 H 18 V 16.001000000000012 z M 24 22.400000000000013 H 20 V 9.6 H 24 V 22.400000000000013 z M 12 18.134999999999987 H 8 V 9.600999999999987 H 12 V 18.134999999999987 z"></path></g></g></svg>