<svg xmlns="http://www.w3.org/2000/svg" width="32" height="32" viewBox="0 0 32 32"><title>table</title><g fill="#F7F7F7" class="nc-icon-wrapper"><path transform="matrix(1 0 0 -1 0 32)" d="M 0 30 V 2.039 H 32 V 30 H 0 z M 12 12.025 V 18.017 H 20 V 12.025 H 12 z M 20 10.028 V 4.036 H 12 V 10.028 H 20 z M 20 26.006 V 20.014 H 12 V 26.006 H 20 z M 10 26.006 V 20.014 H 2 V 26.006 H 10 z M 2 18.016 H 10 V 12.025 H 2 V 18.017 z M 22 18.016 H 30 V 12.025 H 22 V 18.017 z M 22 20.014 V 26.006 H 30 V 20.014 H 22 z M 2 10.028 H 10 V 4.036 H 2 V 10.028 z M 22 4.036 V 10.028 H 30 V 4.036 H 22 z" fill="#F7F7F7" class="nc-icon-wrapper"></path></g></svg>