<svg xmlns="http://www.w3.org/2000/svg" width="32" height="32" viewBox="0 0 32 32"><title>tags outline</title><g fill="#F7F7F7" class="nc-icon-wrapper"><path transform="matrix(1 0 0 -1 0 32)" d="M 10.7 19.5 C 9.6 19.5 8.7 18.6 8.7 17.5 S 9.6 15.5 10.7 15.5 S 12.7 16.4 12.7 17.5 S 11.8 19.5 10.7 19.5 z M 29.3 20.1 L 17.4 31.9 H 4.2 V 29.4 H 16.4 L 27.5 18.3 C 27.8 18 27.9 17.7 27.9 17.3 V 16.1 H 30.4 V 17.3 C 30.4 18.3 30 19.3 29.3 20.1 z M 14.9 26.4 H 1.7 V 13.2 L 13.5 1.4 C 13.9 1 14.3 0.8 14.8 0.6 C 15.3 0.4 15.8 0.3 16.3 0.3 S 17.3 0.4 17.8 0.6 C 18.3 0.8 18.7 1.1 19.1 1.4 L 26.8 9.1 C 27.5 9.8 27.9 10.8 27.9 11.8 C 27.9 12.8 27.5 13.8 26.8 14.5 L 14.9 26.4 z M 25 10.8 L 17.3 3.1 C 17.2 3 17 2.9 16.8 2.8 S 16.4 2.7 16.2 2.7 S 15.8 2.7 15.6 2.8 C 15.4 2.9 15.3 3 15.1 3.1 L 4.1 14.2 V 24 H 13.8 L 25 12.9 C 25.3 12.6 25.4 12.3 25.4 11.9 S 25.3 11.1 25 10.8 z" fill="#F7F7F7" class="nc-icon-wrapper"></path></g></svg>