<svg xmlns="http://www.w3.org/2000/svg" width="32" height="32" viewBox="0 0 32 32"><title>target</title><g fill="#212121" class="nc-icon-wrapper"><path transform="matrix(1 0 0 -1 0 32)" d="M 14.7 32 V 28 C 9.3 27.4 5 22.9 4.4 17.3 H 0.5 V 14.6 H 4.4 C 5 9.1 9.3 4.6 14.7 4 V 0 H 17.3 V 4 C 22.7 4.6 27 9 27.6 14.6 H 31.5 V 17.3 H 27.6 C 27 22.9 22.8 27.4 17.3 28 V 32 H 14.7 z M 16 26 C 21.3 26 25.7 21.5 25.7 16 S 21.3 6 16 6 S 6.3 10.5 6.3 16 S 10.7 26 16 26 z M 16 21.3 C 13.1 21.3 10.8 18.9 10.8 16 S 13.1 10.7 16 10.7 S 21.2 13.1 21.2 16 S 18.9 21.3 16 21.3 z" fill="#212121" class="nc-icon-wrapper"></path></g></svg>