<svg xmlns="http://www.w3.org/2000/svg" width="32" height="32" viewBox="0 0 32 32"><title>thumb down outline large</title><g fill="#212121" class="nc-icon-wrapper"><path transform="matrix(1 0 0 -1 0 32)" d="M 17.4 3.6 C 17.2 3.7 17.1 3.8 17.1 4 V 9.4 L 10.4 17 V 25.2 L 13.1 26.4 C 14.5 27.1 16.1 27.5 17.7 27.5 H 27.1 C 28.2 27.5 29 26.7 29 25.7 L 30.3 15.5 C 30.3 14.6 29.4 13.8 28.4 13.8 H 20.9 V 9.2 C 20.9 8.3 20.6 7.1 20.1 6 C 19.6 5 18.8 4.1 18 3.6 C 17.9 3.5 17.6 3.5 17.4 3.6 z M 16.7 2.3 C 17.3 2 18 1.9 18.7 2.2 C 19.9 2.9 20.8 4 21.4 5.2 C 22 6.4 22.4 7.8 22.4 9 V 12.1 H 28.4 C 30.3 12.1 31.8 13.5 31.8 15.4 L 30.7 25.7 C 30.7 27.5 29.1 28.9 27.3 28.9 H 17.9 C 16.1 28.9 14.2 28.5 12.6 27.7 L 8.9 26.1 V 16.4 L 15.6 8.8 V 4 C 15.7 3.2 16.1 2.6 16.7 2.3 z M 0 13.7 H 6.9 V 29.2 H 0 V 13.7 z M 1.5 15.2 V 27.7 H 5.4 V 15.2 H 1.5 z" fill="#212121" class="nc-icon-wrapper"></path></g></svg>