<svg xmlns="http://www.w3.org/2000/svg" width="32" height="32" viewBox="0 0 32 32"><title>thumb down outline</title><g fill="#F7F7F7" class="nc-icon-wrapper"><path transform="matrix(1 0 0 -1 0 32)" d="M 18.086 5.007 V 10.187 L 11.784 17.325 V 24.398 L 13.991 25.394 L 14.019 25.409 C 15.21 26.022 16.652 26.343 18.121 26.343 H 26.944 C 27.721 26.343 28.24 25.756 28.24 25.189 V 25.109 L 29.498 15.607 C 29.46 15.062 28.952 14.517 28.204 14.517 H 20.677 V 9.723 C 20.677 8.941 20.426 7.943 19.947 7.013 C 19.487 6.118 18.877 5.405 18.234 5.011 A 0.352 0.352 0 0 0 18.086 5.007 z M 16.899 2.857 C 17.598 2.485 18.451 2.45 19.211 2.757 L 19.285 2.788 L 19.355 2.828 C 20.572 3.517 21.503 4.684 22.125 5.891 C 22.749 7.101 23.127 8.483 23.127 9.723 V 12.067 H 28.204 C 30.2 12.067 31.95 13.621 31.95 15.672 V 15.752 L 30.689 25.278 C 30.639 27.285 28.91 28.793 26.944 28.793 H 18.12 C 16.324 28.793 14.5 28.406 12.925 27.602 L 9.334 25.98 V 16.398 L 15.636 9.26 V 4.964 C 15.636 4 16.17 3.246 16.899 2.857 z M 0 13.463 H 7.491 V 29 H 0 z M 2.45 15.913 V 26.55 H 5.041 V 15.913 z" fill="#F7F7F7" class="nc-icon-wrapper"></path></g></svg>