<svg fill="none" height="32" viewBox="0 0 32 32" width="32" xmlns="http://www.w3.org/2000/svg"><path clip-rule="evenodd" d="m18.086 26.993v-5.1794l-6.3018-7.1381v-7.0735l2.2066-.99616.028-.01442c1.1913-.61337 2.6333-.93484 4.1026-.93484h8.8225c.7774 0 1.2957.58791 1.2957 1.15439v.08076l1.2582 9.50097c-.0373.5458-.5454 1.0902-1.2935 1.0902h-7.5268v4.7941c0 .7822-.2516 1.7806-.7306 2.7108-.4607.8946-1.07 1.6074-1.7125 2.0017-.0358.0087-.0691.0115-.0984.0102-.0201-.0008-.0367-.0035-.05-.0067zm-1.1872 2.1497c.6988.3728 1.5521.4069 2.3122.0994l.0744-.0301.0699-.0396c1.2163-.6889 2.1482-1.8561 2.7697-3.0629.6238-1.2112 1.0025-2.5922 1.0025-3.8325v-2.3441h5.0768c1.9954 0 3.7457-1.5535 3.7457-3.6044v-.0807l-1.2615-9.52592c-.0498-2.00658-1.7782-3.5153-3.7446-3.5153h-8.8225c-1.7966 0-3.6202.38757-5.1951 1.19174l-3.59207 1.62163v9.58225l6.30177 7.1382v4.2954c0 .9644.5344 1.7183 1.2628 2.1069zm-16.8988-10.6061h7.49144v-15.53661h-7.49144zm2.45-2.45v-10.63661h2.59144v10.63661z" fill="#000" fill-rule="evenodd"/></svg>