<svg xmlns="http://www.w3.org/2000/svg" width="32" height="32" viewBox="0 0 32 32"><title>thumb up outline large</title><g fill="#212121" class="nc-icon-wrapper"><path transform="matrix(1 0 0 -1 0 32)" d="M 0 2.6 H 6.9 V 18.1 H 0 z M 1.5 16.6 H 5.4 V 4.1 H 1.5 z M 28.6 19.6 H 22.6 V 22.6 C 22.6 23.8 22.2 25.2 21.6 26.4 S 20 28.8 18.9 29.4 C 18.2 29.7 17.5 29.6 16.9 29.3 S 15.8 28.3 15.8 27.5 V 22.7 L 9.1 15.1 V 5.4 L 12.6 3.8 C 14.2 3 16.1 2.6 17.9 2.6 H 27.3 C 29.100000000000012 2.6 30.7 4 30.7 5.8 L 32 16.2 C 32 18.1 30.4 19.6 28.6 19.6 z M 29.2 6.2 C 29.2 5.2 28.4 4.4 27.3 4.4 H 17.900000000000013 C 16.3 4.4 14.600000000000012 4.8 13.300000000000013 5.5 L 10.6 6.7 V 14.8 L 17.3 22.400000000000013 V 27.7 C 17.3 27.9 17.400000000000013 28 17.600000000000012 28.1 S 18 28.2 18.3 28.1 C 19.100000000000012 27.6 19.900000000000013 26.7 20.400000000000013 25.7 C 20.900000000000013 24.6 21.200000000000014 23.5 21.200000000000014 22.5 V 17.9 H 28.700000000000014 C 29.80000000000001 17.9 30.600000000000012 17.1 30.600000000000012 16.2 z" fill="#212121" class="nc-icon-wrapper"></path></g></svg>