<svg width="32" height="32" viewBox="0 0 32 32" xmlns="http://www.w3.org/2000/svg"><g class="nc-icon-wrapper" fill="#444444"><path d="M3.429 3A3.447 3.447 0 0 0 0 6.43v18.293a3.447 3.447 0 0 0 3.429 3.43H28.57A3.447 3.447 0 0 0 32 24.723V6.43C32 4.55 30.451 3 28.571 3H3.43zm0 2.287H28.57c.644 0 1.143.5 1.143 1.143v18.293c0 .644-.5 1.144-1.143 1.144H3.43c-.644 0-1.143-.5-1.143-1.144V6.43c0-.644.5-1.143 1.143-1.143zm1.142 9.432v8.86h2.286v-8.86H4.571zm4.572 0v8.86h2.286v-8.86H9.143zm4.571 0v8.86H16v-8.86h-2.286zm4.572 0v8.86h2.285v-8.86h-2.285z"></path></g></svg>