<svg xmlns="http://www.w3.org/2000/svg" width="32" height="32" viewBox="0 0 32 32"><title>tracking id</title><g fill="#212121" class="nc-icon-wrapper"><g fill="#212121"><path transform="scale(1,-1) translate(0,-32)" d="M 3.429 29 A 3.447 3.447 0 0 1 0 25.57 V 7.277 A 3.447 3.447 0 0 1 3.429 3.847 H 28.57 A 3.447 3.447 0 0 1 32 7.277 V 25.57 C 32 27.45 30.451 29 28.571 29 H 3.43 z M 3.429 26.713 H 28.57 C 29.214 26.713 29.713 26.213 29.713 25.57 V 7.277 C 29.713 6.633 29.213 6.133 28.57 6.133 H 3.43 C 2.786 6.133 2.287 6.633 2.287 7.277 V 25.57 C 2.287 26.214 2.787 26.713 3.43 26.713 z M 4.571 17.281 V 8.421 H 6.857 V 17.281 H 4.571 z M 9.143 17.281 V 8.421 H 11.429 V 17.281 H 9.143 z M 13.714 17.281 V 8.421 H 16 V 17.281 H 13.714 z M 18.286 17.281 V 8.421 H 20.571 V 17.281 H 18.286 z"></path></g></g></svg>