<svg xmlns="http://www.w3.org/2000/svg" width="32" height="32" viewBox="0 0 32 32"><title>tree</title><g fill="#212121" class="nc-icon-wrapper"><g fill="#212121"><path transform="scale(1,-1) translate(0,-32)" d="M 29.477 7.834 V 11.751 C 29.477 14.141 27.95 17.593 23.635 17.593 H 20.249 C 17.859 17.593 17.659 18.788 17.593 19.386 V 24.166 C 19.053 24.763 20.05 26.224 20.05 27.884 C 20.05 30.14 18.257 32 16 32 C 13.743 32 11.95 30.141 11.95 27.884 C 11.95 26.224 12.946 24.764 14.407 24.166 V 19.386 C 14.407 18.988 14.274 17.593 11.751 17.593 H 8.365 C 4.05 17.593 2.456 14.141 2.456 11.751 V 7.834 C 1.062 7.236 0 5.776 0 4.116 C 0 1.86 1.859 0 4.116 0 C 6.373 0 8.166 1.859 8.166 4.116 C 8.166 5.776 7.17 7.236 5.71 7.834 V 11.751 C 5.71 12.216 5.842 14.407 8.365 14.407 H 11.751 C 12.813 14.407 13.676 14.539 14.407 14.805 V 7.834 C 12.947 7.236 11.95 5.776 11.95 4.116 C 11.95 1.86 13.743 0 16 0 C 18.257 0 20.05 1.859 20.05 4.116 C 20.05 5.776 19.054 7.236 17.593 7.834 V 14.805 C 18.323 14.539 19.187 14.407 20.249 14.407 H 23.635 C 26.025 14.407 26.29 12.349 26.29 11.751 V 7.834 C 24.83 7.236 23.834 5.776 23.834 4.116 C 23.834 1.859 25.627 0 27.884 0 C 30.14 0 32 1.859 32 4.116 C 32 5.776 30.938 7.236 29.477 7.834 z M 6.44 4.116 C 6.44 2.788 5.378 1.726 4.116 1.726 A 2.38 2.38 0 0 0 1.726 4.116 C 1.726 5.378 2.788 6.44 4.116 6.44 C 5.378 6.44 6.44 5.378 6.44 4.116 z M 13.676 27.884 C 13.676 29.212 14.672 30.274 16 30.274 C 17.328 30.274 18.324 29.212 18.324 27.884 A 2.31 2.31 0 0 0 16 25.56 A 2.31 2.31 0 0 0 13.676 27.884 z M 18.324 4.116 C 18.324 2.788 17.328 1.726 16 1.726 C 14.672 1.726 13.676 2.788 13.676 4.116 A 2.31 2.31 0 0 0 16 6.44 A 2.31 2.31 0 0 0 18.324 4.116 z M 27.884 1.726 C 26.622 1.726 25.56 2.788 25.56 4.116 C 25.56 5.378 26.622 6.44 27.884 6.44 C 29.212 6.44 30.274 5.378 30.274 4.116 A 2.38 2.38 0 0 0 27.884 1.726 z"></path></g></g></svg>