<svg xmlns="http://www.w3.org/2000/svg" width="32" height="32" viewBox="0 0 32 32"><title>unlink</title><g fill="#F7F7F7" class="nc-icon-wrapper"><path transform="matrix(1 0 0 -1 0 32)" d="M 10.6 4.7 C 9 3.1 6.4 3.1 4.9 4.7 L 4.8 4.8 C 3.2 6.4 3.2 9 4.8 10.5 L 9.8 15.5 L 7.2 18 L 2.2 13 C -0.7 10.1 -0.7 5.3 2.2 2.3 L 2.3 2.2 C 5.2 -0.7 10 -0.7 13 2.2 L 18 7.2 L 15.6 9.7 z M 3.4 25.4 L 25.4 3.4 L 28.2 6.2 L 6.2 28.2 z M 29.8 29.7 L 29.7 29.8 C 26.8 32.7 22 32.7 19 29.8 L 13.6 24.4 L 16.1 21.9 L 21.5 27.3 C 23.1 28.9 25.7 28.9 27.2 27.3 L 27.3 27.2 C 28.9 25.6 28.9 23 27.3 21.5 L 21.9 16.1 L 24.4 13.6 L 29.8 19 C 32.7 21.9 32.7 26.7 29.8 29.7 z" fill="#F7F7F7" class="nc-icon-wrapper"></path></g></svg>