<svg xmlns="http://www.w3.org/2000/svg" width="32" height="32" viewBox="0 0 32 32"><title>upload outline</title><g fill="#212121" class="nc-icon-wrapper"><g fill="#212121"><path transform="scale(1,-1) translate(0,-32)" d="M 15.6 29.3 V 9.6 H 11 V 8.1 H 21.6 V 9.6 H 17.1 V 29.3 L 21.9 25.1 L 22.9 26.3 L 16.3 32 L 9.8 26.3 L 10.8 25.1 z M 22.8 20.4 C 22.5 20.6 22 20.5 21.7 20.2 C 21.5 19.9 21.6 19.4 21.9 19.1 C 24.4 17.3 26.1 14.4 26.1 11.2 C 26.1 5.9 21.7 1.5 16.3 1.5 S 6.5 5.8 6.5 11.2 C 6.5 14.5 8.2 17.4 10.7 19.1 C 11 19.3 11.1 19.8 10.9 20.2 C 10.7 20.5 10.2 20.6 9.8 20.4 C 6.9 18.4 5 15 5 11.2 C 5 5 10.1 0 16.3 0 C 22.6 0 27.6 5 27.6 11.2 C 27.7 15 25.8 18.4 22.8 20.4 z"></path></g></g></svg>