<svg xmlns="http://www.w3.org/2000/svg" width="32" height="32" viewBox="0 0 32 32"><title>upload outline large</title><g fill="#212121" class="nc-icon-wrapper"><g fill="#212121"><path transform="scale(1,-1) translate(0,-32)" d="M 15.5 29.7 V 8.9 H 10.9 V 7.6 H 21.7 V 8.9 H 17.1 V 29.7 L 22 25.4 L 22.8 26.3 L 16.3 32 L 9.8 26.3 L 10.6 25.4 z M 22.8 20.3 C 22.5 20.5 22.1 20.4 22 20.1 S 21.9 19.4 22.2 19.3 C 24.8 17.5 26.5 14.5 26.5 11.1 C 26.5 5.6 22 1.2 16.4 1.2 S 6.2 5.7 6.2 11.2 C 6.2 14.6 7.9 17.6 10.5 19.4 C 10.8 19.6 10.8 20 10.7 20.2 S 10.1 20.5 9.9 20.4 C 6.9 18.3 5 15 5 11.2 C 5 5 10.1 0 16.3 0 C 22.5 0 27.6 5 27.6 11.2 C 27.6 15 25.7 18.3 22.8 20.3 z"></path></g></g></svg>