<svg xmlns="http://www.w3.org/2000/svg" width="32" height="32" viewBox="0 0 32 32"><title>upload outline small</title><g fill="#F7F7F7" class="nc-icon-wrapper"><path transform="matrix(1 0 0 -1 0 32)" d="M 14.8 27.6 V 7.7 H 17.4 V 27.5 L 23.7 22.5 L 25.4 24.5 L 16 32 L 6.7 24.5 L 8.3 22.5 z M 25.5 17.4 L 23.3 15.9 C 24.3 14.5 24.8 12.9 24.8 11.1 C 24.8 6.5 20.9 2.6 15.9 2.6 S 7 6.5 7 11.1 C 7 12.9 7.6 14.5 8.5 15.9 L 6.3 17.4 C 5 15.6 4.3 13.4 4.3 11.1 C 4.5 4.9 9.7 0 16 0 C 22.3 0 27.6 4.9 27.6 11.1 C 27.6 13.5 26.8 15.6 25.5 17.4 z" fill="#F7F7F7" class="nc-icon-wrapper"></path></g></svg>