<svg width="32" height="32" fill="none" xmlns="http://www.w3.org/2000/svg"><path fill-rule="evenodd" clip-rule="evenodd" d="M22.886 5.728L16.34 0 9.794 5.728l.996 1.137 4.794-4.194v19.752h-4.536v1.512h10.584v-1.512h-4.536V2.67l4.794 4.194.995-1.137zm-6.546 24.76c-5.438 0-9.828-4.341-9.828-9.673 0-3.282 1.66-6.186 4.208-7.937a.756.756 0 10-.856-1.246C6.928 13.65 5 17.008 5 20.815 5 27.003 10.088 32 16.34 32s11.34-4.997 11.34-11.185c0-3.807-1.928-7.165-4.864-9.183a.756.756 0 10-.857 1.246c2.549 1.751 4.209 4.655 4.209 7.937 0 5.332-4.39 9.673-9.828 9.673z" fill="#000"/></svg>