<svg width="32" height="32" viewBox="0 0 32 32" xmlns="http://www.w3.org/2000/svg"><g class="nc-icon-wrapper" fill="#444444"><g transform="translate(1601 -347)"><path d="M-1583.576 347c.981.086 1.957.266 2.903.531l-.718 2.566a13.377 13.377 0 0 0-2.418-.44l.233-2.657z"></path><path d="M-1592.175 348.631l1.2 2.385a13.24 13.24 0 0 0-2.087 1.301l-1.615-2.122a16.12 16.12 0 0 1 2.502-1.564z"></path><path d="M-1571.427 354.461a16.089 16.089 0 0 0-1.788-2.345l-1.964 1.804a13.31 13.31 0 0 1 1.49 1.957l2.263-1.416z"></path><path d="M-1587.666 361.603a4 4 0 1 0 0-8 4 4 0 0 0 0 8z"></path><path d="M-1579.667 360.269a5.28 5.28 0 0 0-3.248 1.131 10.738 10.738 0 0 1 4.472 4.202h4.11a5.334 5.334 0 0 0-5.334-5.333z"></path><path d="M-1587.666 362.936a8 8 0 0 1 8 8h-12.364a10.67 10.67 0 0 1-2.725-3.7 7.994 7.994 0 0 1 7.089-4.3z"></path><path d="M-1579.667 358.936a2.667 2.667 0 1 0 0-5.334 2.667 2.667 0 0 0 0 5.334z"></path><path d="M-1569.281 359.933l-2.62.5-.043-.216-.074-.333a12.99 12.99 0 0 0-.565-1.813l2.485-.972c.12.309.233.624.334.942l.127.418.1.355.093.363.084.371.079.385z"></path><path d="M-1594.876 353.98l-1.974-1.794a16.15 16.15 0 0 0-1.102 1.356l-.227.32c-.155.224-.303.452-.446.683l2.27 1.4c.432-.698.928-1.36 1.48-1.965z"></path><path d="M-1575.4 350.136a16.152 16.152 0 0 0-2.516-1.55l-1.182 2.39c.733.363 1.438.796 2.094 1.29l1.603-2.13z"></path><path d="M-1586.524 347.01l.25 2.654a13.15 13.15 0 0 0-2.413.456l-.737-2.562a15.726 15.726 0 0 1 2.9-.549z"></path><path d="M-1581.338 375.764l.73 2.561c.945-.269 1.871-.63 2.752-1.069l-1.19-2.386c-.735.37-1.505.668-2.292.894z"></path><path d="M-1575.35 375.7l-1.609-2.127a13.436 13.436 0 0 0 1.816-1.659l1.973 1.797a16.368 16.368 0 0 1-2.18 1.989z"></path><path d="M-1573.659 369.953l2.267 1.403c.519-.836.962-1.725 1.316-2.642l-2.485-.962a13.508 13.508 0 0 1-1.098 2.201z"></path><path d="M-1571.89 365.388a13.833 13.833 0 0 0 .224-2.452l2.666-.06v.06c0 .989-.09 1.977-.268 2.938l-2.623-.486z"></path><path d="M-1586.217 376.217l-.24 2.657a16.661 16.661 0 0 0 2.947-.004l-.245-2.656c-.389.038-.785.056-1.181.058-.43.001-.86-.017-1.281-.055z"></path><path d="M-1589.36 378.336a16.016 16.016 0 0 1-2.755-1.066l1.187-2.387c.732.366 1.504.664 2.293.886l-.725 2.567z"></path><path d="M-1597.427 367.777l-2.485.968c.357.916.802 1.802 1.321 2.64l2.264-1.41a12.943 12.943 0 0 1-1.1-2.198z"></path><path d="M-1601 362.97l2.666-.006a13.891 13.891 0 0 0 .23 2.452l-2.62.49-.059-.333-.058-.38a16.263 16.263 0 0 1-.159-2.223z"></path><path d="M-1597.448 358.15l-2.49-.96a15.83 15.83 0 0 0-.8 2.843l2.623.48c.148-.805.372-1.6.667-2.363z"></path><path d="M-1594.624 375.719a16.016 16.016 0 0 1-2.183-1.985l1.966-1.801a13.616 13.616 0 0 0 1.822 1.656l-1.605 2.13z"></path></g></g></svg>