<svg xmlns="http://www.w3.org/2000/svg" width="32" height="32" viewBox="0 0 32 32"><title>users</title><g fill="#212121" class="nc-icon-wrapper"><path transform="matrix(1 0 0 -1 0 32)" d="M 4.345 21.931 C 4.345 24.683 6.662 27 9.415 27 C 12.166 27 14.484 24.683 14.484 21.931 C 14.484 19.178 12.166 16.861 9.414 16.861 C 6.662 16.861 4.345 19.178 4.345 21.931 z M 17.381 21.931 A 5.07 5.07 0 1 0 27.52 21.93 A 5.07 5.07 0 0 0 17.38 21.931 z M 9.414 13.964 C 2.317 13.964 0 8.17 0 8.17 V 5.273 H 18.829 V 8.17 S 16.512 13.964 9.414 13.964 z M 17.244 12.652 C 18.549 13.375 20.277 13.964 22.45 13.964 C 28.659 13.964 31.202 9.53 31.838 8.42 C 31.93 8.261 31.982 8.17 32 8.17 V 5.273 H 20.413 V 8.443 L 20.277 8.759 C 20.248 8.788 20.191 8.891 20.102 9.049 C 19.744 9.692 18.869 11.259 17.244 12.652 z" fill="#212121" class="nc-icon-wrapper"></path></g></svg>