<svg xmlns="http://www.w3.org/2000/svg" width="32" height="32" viewBox="0 0 32 32"><title>vert bar graph grouped</title><g fill="#F7F7F7" class="nc-icon-wrapper"><path transform="matrix(1 0 0 -1 0 32)" d="M 28.741 0 H 27.241 A 0.693 0.693 0 0 0 26.555 0.686 V 31.314 C 26.555 31.688 26.867 32 27.242 32 H 28.742 C 29.116 32 29.429 31.688 29.429 31.314 V 0.686 A 0.693 0.693 0 0 0 28.741000000000014 0 z M 21.931 0 H 20.369 A 0.693 0.693 0 0 0 19.682 0.686 V 18.214 C 19.682 18.589 19.994 18.838 20.369 18.838 H 21.931 C 22.243 18.838 22.556 18.588 22.556 18.214 V 0.686 C 22.556 0.312 22.243 0 21.931 0 z M 10.935 0 H 9.373 A 0.693 0.693 0 0 0 8.685 0.686 V 22.02 C 8.685 22.332 8.998 22.644 9.373 22.644 H 10.935 C 11.247 22.644 11.559 22.332 11.559 22.02 V 0.687 C 11.559 0.313 11.247 0.001 10.935 0.001 z M 4.249 0 H 2.687 A 0.693 0.693 0 0 0 2 0.686 V 15.22 C 2 15.595 2.312 15.906 2.687 15.906 H 4.25 C 4.625 15.906 4.875 15.595 4.875 15.22 V 0.686 C 4.875 0.312 4.625 0 4.25 0 z" fill="#F7F7F7" class="nc-icon-wrapper"></path></g></svg>