<svg xmlns="http://www.w3.org/2000/svg" width="32" height="32" viewBox="0 0 32 32"><title>view code</title><g fill="#F7F7F7" class="nc-icon-wrapper"><path transform="matrix(1 0 0 -1 0 32)" d="M 0 30.7 V 1.367 H 32 V 30.7 H 0 z M 2.667 28.033 H 29.333 V 25.367 H 2.667 V 28.033 z M 2.667 22.7 H 29.333 V 4.033 H 2.667 V 22.7 z M 16 20.033 L 13.333 6.7 H 16 L 18.667 20.033 H 16 z M 9.583 19.492 L 5.583 14.158 L 5 13.367 L 5.583 12.575 L 9.583 7.242 L 11.75 8.825 L 8.333 13.367 L 11.75 17.908 L 9.583 19.492 z M 22.417 19.492 L 20.25 17.908 L 23.667 13.367 L 20.25 8.825 L 22.417 7.242 L 26.417 12.575 L 27 13.367 L 26.417 14.158 L 22.417 19.492 z" fill="#F7F7F7" class="nc-icon-wrapper"></path></g></svg>