<svg xmlns="http://www.w3.org/2000/svg" width="32" height="32" viewBox="0 0 32 32"><title>wand</title><g fill="#F7F7F7" class="nc-icon-wrapper"><path transform="matrix(1 0 0 -1 0 32)" d="M 22.7 20.65 L 28.444 26.393 L 26.324 28.444 L 20.65 22.77 L 22.7 20.65 z M 31.453 26.393 C 31.453 26.051 31.316 25.709 31.111 25.504 L 5.95 0.342 A 1.132 1.132 0 0 0 5.13 0 C 4.719 0 4.445 0.137 4.24 0.342 L 0.342 4.239 C 0.137 4.444 0 4.786 0 5.13 C 0 5.471 0.137 5.745 0.342 6.018 L 25.504 31.111 C 25.709 31.385 25.983 31.453 26.324 31.453 C 26.735 31.453 27.008 31.385 27.214 31.111 L 31.111 27.282 C 31.316 27.009 31.453 26.735 31.453 26.393 z M 5.06 30.085 L 6.974 29.47 L 5.06 28.923 L 4.444 27.009 L 3.897 28.923 L 1.983 29.47 L 3.897 30.085 L 4.444 32 L 5.06 30.085 z M 11.897 26.94 L 15.727 25.778 L 11.897 24.547 L 10.735 20.717 L 9.573 24.547 L 5.743 25.777 L 9.573 26.94 L 10.735 30.77 L 11.897 26.94 z M 30.085 17.573 L 32 17.026 L 30.085 16.41 L 29.47 14.496 L 28.923 16.41 L 27.009 17.026 L 28.923 17.573 L 29.47 19.487 L 30.086 17.573 z M 17.573 30.085 L 19.487 29.47 L 17.573 28.923 L 16.957 27.009 L 16.41 28.923 L 14.496 29.47 L 16.41 30.085 L 16.957 32 L 17.573 30.085 z" fill="#F7F7F7" class="nc-icon-wrapper"></path></g></svg>