<svg xmlns="http://www.w3.org/2000/svg" width="32" height="32" viewBox="0 0 32 32"><title>warning filled sm</title><g fill="#F7F7F7" class="nc-icon-wrapper"><path transform="matrix(1 0 0 -1 0 32)" d="M 16 32 C 7.2 32 0 24.8 0 16 S 7.2 0 16 0 S 32 7.2 32 16 S 24.8 32 16 32 z M 18.1 26.4 L 17.6 12.9 H 14.4 L 14 26.4 H 18.1 z M 17.6 7.2 C 17.2 6.8 16.7 6.6 16 6.6 C 15.4 6.6 14.8 6.8 14.4 7.2 C 14 7.6 13.8 8.1 13.8 8.7 S 14 9.8 14.4 10.2 C 14.8 10.6 15.3 10.8 16 10.8 C 16.7 10.8 17.2 10.6 17.6 10.2 C 18 9.8 18.2 9.3 18.2 8.7 S 18 7.6 17.6 7.2 z" fill="#F7F7F7" class="nc-icon-wrapper"></path></g></svg>