<svg xmlns="http://www.w3.org/2000/svg" width="32" height="32" viewBox="0 0 32 32"><title>warning thin</title><g fill="#F7F7F7" class="nc-icon-wrapper"><path transform="matrix(1 0 0 -1 0 32)" d="M 16 8.4 C 15.3 8.4 14.6 7.7 14.6 6.9 S 15.2 5.4 16 5.4 S 17.4 6.1 17.4 6.9 S 16.7 8.4 16 8.4 z M 16.5 11.4 L 16.7 26.7 H 15.3 V 24.5 L 15.5 11.4 H 16.5 z M 16 32 C 7.2 32 0 24.8 0 16 S 7.2 0 16 0 S 32 7.2 32 16 S 24.8 32 16 32 z M 16 1.4 C 7.9 1.4 1.4 7.9 1.4 16 S 7.9 30.6 16 30.6 S 30.6 24.1 30.6 16 S 24.1 1.4 16 1.4 z" fill="#F7F7F7" class="nc-icon-wrapper"></path></g></svg>