<svg xmlns="http://www.w3.org/2000/svg" width="32" height="32" viewBox="0 0 32 32"><title>web api</title><g fill="#212121" class="nc-icon-wrapper"><g fill="#212121"><path transform="scale(1,-1) translate(0,-32)" d="M 26.7 17.7 C 26 23.1 21.5 27.2 16 27.2 C 11.3 27.2 7.2 24.2 5.7 19.7 C 2.4 19 0 16 0 12.5 C 0 8.7 2.9 5.5 6.7 5.2 H 26.4 C 29.5 5.5 32 8.2 32 11.5 C 32 14.6 29.7 17.2 26.7 17.7 z M 21.3 14.5 C 21.3 13.1 20.8 11.8 19.8 10.9 C 18.8 9.9 17.5 9.4 16.1 9.4 C 14.7 9.4 13.4 9.9 12.4 10.9 S 10.9 13.2 10.9 14.5 V 17.6 H 13 V 20.7 H 15 V 17.6 H 17.1 V 20.7 H 19.2 V 17.6 H 21.3 V 14.5 z"></path></g></g></svg>