<svg xmlns="http://www.w3.org/2000/svg" width="32" height="32" viewBox="0 0 32 32"><title>webhook outline large</title><g fill="#212121" class="nc-icon-wrapper"><path transform="matrix(1 0 0 -1 0 32)" d="M 9.1 13.3 C 8.9 12.9 8.4 12.7 8 12.7 C 6.1 12.7 4.6 11.2 4.6 9.3 S 6.1 5.9 8 5.9 S 11.4 7.4 11.4 9.3 C 11.4 9.9 11.2 10.5 10.9 11 C 10.5 11.6 10.3 12.4 10.7 13.1 L 12.8 16.9 C 13 17.2 12.9 17.7 12.6 17.9 C 11 19 9.9 20.9 9.9 23 C 9.9 26.4 12.7 29.2 16.1 29.2 C 19.5 29.2 22.3 26.4 22.3 23 V 22.4 C 22.3 22 22.5 21.6 22.9 21.5 C 23.3 21.4 23.7 21.7 23.8 22.1 C 23.8 22.4 23.9 22.7 23.9 23 C 23.9 27.3 20.4 30.7 16.2 30.7 C 11.9 30.7 8.5 27.2 8.5 23 C 8.5 21 9.2 19.3 10.4 17.9 C 10.9 17.4 11 16.6 10.7 15.9 L 9.1 13.3 z M 8 7.4 C 6.9 7.4 6.1 8.3 6.1 9.3 C 6.1 10.4 7 11.2 8 11.2 S 9.9 10.3 9.9 9.3 C 9.9 8.2 9.1 7.4 8 7.4 z M 21.1 7.4 C 21.7 6.5 22.8 5.8 24 5.8 C 25.9 5.8 27.4 7.3 27.4 9.2 S 25.9 12.6 24 12.6 C 22.8 12.6 21.7 11.999999999999988 21.1 10.999999999999988 C 20.7 10.399999999999988 20.1 9.899999999999988 19.4 9.899999999999988 H 15 C 14.6 9.899999999999988 14.2 9.599999999999987 14.2 9.099999999999987 S 14.1 8.199999999999987 14.1 7.699999999999988 C 13.5 5.1 11 3 8 3 C 6.7 3 5.5 3.4 4.5 4.1 C 2.9 5.2 1.8 7.1 1.8 9.3 C 1.8 11.9 3.4 14.1 5.6 15.1 C 6 15.3 6.2 15.7 6.1 16.1 C 6 16.5 5.6 16.7 5.2 16.6 C 2.3 15.5 0.3 12.7 0.3 9.4 C 0.3 6.7 1.6 4.4 3.7 3 C 4.9 2 6.4 1.5 8 1.5 C 11.7 1.5 14.8 4.1 15.6 7.6 C 15.7 8.1 16.2 8.5 16.7 8.5 H 19.5 C 20.2 8.5 20.8 8 21.1 7.4 z M 24 11.2 C 25.1 11.2 25.9 10.3 25.9 9.3 C 25.9 8.2 25 7.4 24 7.4 C 22.9 7.4 22.1 8.3 22.1 9.3 C 22.1 10.3 22.9 11.2 24 11.2 z M 24 17 C 23.4 17 22.7 16.9 22.1 16.8 C 21.4 16.6 20.6 16.9 20.2 17.5 L 19 19.4 C 18.6 20 18.8 20.8 19.1 21.4 C 19.3 21.9 19.5 22.4 19.5 23 C 19.5 24.9 18 26.4 16.1 26.4 S 12.7 24.9 12.7 23 S 14.2 19.6 16.1 19.6 C 16.7 19.6 17.3 19.4 17.6 18.9 L 20 15 C 20.2 14.7 20.7 14.5 21 14.7 C 21.9 15.2 22.9 15.5 24 15.5 C 27.4 15.5 30.2 12.7 30.2 9.3 C 30.2 8.8 30.1 8.4 30.1 7.9 C 29.5 5.1 27 3 24 3 C 22.7 3 21.5 3.4 20.5 4.1 C 20.2 4.3 19.7 4.3 19.5 4 C 19.2 3.7 19.3 3.2 19.6 3 L 19.7 2.9 C 20.9 2.1 22.4 1.6 24.1 1.6 C 27.8 1.6 30.9 4.2 31.7 7.7 C 31.80000000000001 8.2 31.9 8.8 31.9 9.4 C 31.8 13.6 28.3 17 24 17 z M 16.1 21.1 C 15 21.1 14.2 22 14.2 23 C 14.2 24.1 15.1 24.9 16.1 24.9 C 17.2 24.9 18 24.1 18 23 C 18 21.9 17.2 21.1 16.1 21.1 z" fill="#212121" class="nc-icon-wrapper"></path></g></svg>