<svg xmlns="http://www.w3.org/2000/svg" enable-background="new 0 0 32 32" height="32" width="32" viewBox="0 0 32 32"><title>webhook outline small</title><g fill="#212121" class="nc-icon-wrapper"><path d="M9.7 16.2l-1 1.9c-.1.1-.2.2-.3.2-2.3 0-4.2 1.9-4.2 4.2 0 2.3 1.9 4.2 4.2 4.2s4.2-1.9 4.2-4.2c0-.7-.2-1.3-.5-1.9-.3-.5-.4-1.2-.1-1.7l1.8-3.2c.4-.8.2-1.7-.5-2.2-1.3-.9-2.2-2.4-2.2-4.1 0-2.8 2.2-5 5-5s5 2.2 5 5c0 .6.4 1.2 1 1.3l.8.2c.8.2 1.6-.3 1.6-1.1v-.4c0-4.6-3.7-8.4-8.4-8.4-4.6 0-8.4 3.7-8.4 8.4 0 1.9.6 3.7 1.7 5.1.5.5.6 1.1.3 1.7zm-1.3 7.1c-.5 0-.9-.4-.9-.9s.4-.9.9-.9.9.4.9.9c-.1.5-.5.9-.9.9zm15.2-9.2c-.5 0-1 0-1.5.1-.7.1-1.3-.1-1.7-.7l-.4-.8c-.3-.5-.2-1.1 0-1.7.2-.5.4-1.1.4-1.7 0-2.3-1.9-4.2-4.2-4.2C13.9 5.1 12 7 12 9.3c0 2.3 1.9 4.2 4.2 4.2.3 0 .5.1.7.4l2.2 3.6c.5.8 1.5 1 2.2.6.7-.4 1.6-.6 2.4-.6 2.8 0 5 2.2 5 5 0 .4 0 .7-.1 1.1-.5 2.2-2.5 3.9-4.9 3.9-1 0-2-.3-2.8-.9-.3-.2-.6-.2-.8.1l-1.2 1.4c-.3.4-.3 1 .1 1.3 1.3.9 3 1.5 4.7 1.5 4 0 7.3-2.8 8.2-6.5.1-.6.2-1.2.2-1.8-.1-4.7-3.8-8.5-8.5-8.5zm-7.5-3.9c-.5 0-.9-.4-.9-.9s.4-.9.9-.9.9.4.9.9-.4.9-.9.9zM20.2 25c.8 1.1 2 1.7 3.4 1.7 2.3 0 4.2-1.9 4.2-4.2s-1.9-4.2-4.2-4.2c-1.4 0-2.6.7-3.4 1.7-.3.5-.8.8-1.4.8H15c-.9 0-1.7.7-1.7 1.7 0 .4 0 .7-.1 1.1-.5 2.2-2.5 3.9-4.9 3.9-1 0-2-.3-2.8-.9-1.3-.9-2.2-2.4-2.2-4.1 0-1.8.9-3.3 2.3-4.2.7-.4 1.1-1.2.9-2l-.1-.5c-.2-.8-1-1.2-1.7-.9C1.9 16.3 0 19.1 0 22.5c0 2.9 1.4 5.4 3.6 6.9 1.3.9 3 1.5 4.7 1.5 4 0 7.3-2.8 8.2-6.5 0-.1.1-.1.2-.1h2.1c.6-.2 1.1.2 1.4.7zm3.4-3.4c.5 0 .9.4.9.9s-.4.9-.9.9-.9-.4-.9-.9c.1-.5.5-.9.9-.9z"></path></g></svg>