<svg xmlns="http://www.w3.org/2000/svg" width="32" height="32" viewBox="0 0 32 32"><title>webhook outline</title><g fill="#F7F7F7" class="nc-icon-wrapper"><path transform="matrix(1 0 0 -1 0 32)" d="M 10.352941176470587 14.964705882352938 L 9.129411764705887 12.8 C 9.035294117647062 12.517647058823526 8.752941176470587 12.4235294117647 8.376470588235287 12.4235294117647 C 6.305882352941175 12.4235294117647 4.705882352941175 10.823529411764712 4.705882352941175 8.752941176470587 S 6.305882352941175 5.082352941176475 8.376470588235287 5.082352941176475 S 12.047058823529413 6.682352941176475 12.047058823529413 8.752941176470587 C 12.047058823529413 9.41176470588235 11.858823529411762 9.9764705882353 11.576470588235287 10.541176470588237 C 11.294117647058824 11.105882352941174 11.105882352941174 11.764705882352937 11.482352941176474 12.329411764705888 L 13.364705882352938 15.717647058823525 C 13.647058823529413 16.282352941176477 13.458823529411763 16.94117647058824 12.98823529411765 17.2235294117647 C 11.576470588235287 18.164705882352937 10.635294117647062 19.85882352941176 10.635294117647062 21.741176470588236 C 10.635294117647062 24.75294117647059 13.082352941176476 27.2 16.094117647058827 27.2 C 19.105882352941176 27.2 21.552941176470586 24.75294117647059 21.552941176470586 21.741176470588236 C 21.552941176470586 21.082352941176463 21.929411764705875 20.517647058823524 22.58823529411765 20.32941176470589 C 23.24705882352941 20.23529411764706 23.81176470588235 20.61176470588235 23.905882352941173 21.176470588235286 V 21.741176470588236 C 23.905882352941173 25.976470588235287 20.4235294117647 29.458823529411763 16.18823529411765 29.458823529411763 C 11.952941176470587 29.458823529411763 8.470588235294112 25.9764705882353 8.470588235294112 21.741176470588236 C 8.470588235294112 19.85882352941176 9.129411764705887 18.164705882352937 10.258823529411762 16.847058823529412 C 10.541176470588237 16.18823529411765 10.729411764705887 15.529411764705888 10.352941176470587 14.964705882352938 z M 8.470588235294112 7.341176470588238 C 7.717647058823525 7.341176470588238 7.152941176470588 7.905882352941175 7.152941176470588 8.658823529411762 C 7.152941176470588 9.41176470588235 7.717647058823525 9.976470588235287 8.470588235294112 9.976470588235287 S 9.78823529411765 9.41176470588235 9.78823529411765 8.658823529411762 C 9.78823529411765 8 9.223529411764712 7.341176470588238 8.470588235294112 7.341176470588238 z M 23.529411764705888 16.470588235294112 C 22.964705882352938 16.470588235294112 22.4 16.3764705882353 21.929411764705886 16.282352941176477 C 21.270588235294124 16.094117647058827 20.51764705882354 16.3764705882353 20.23529411764706 16.94117647058824 L 19.482352941176476 18.258823529411764 C 19.2 18.8235294117647 19.294117647058826 19.48235294117646 19.482352941176476 20.04705882352941 C 19.67058823529411 20.517647058823524 19.76470588235294 21.082352941176463 19.76470588235294 21.647058823529413 C 19.76470588235294 23.717647058823523 18.164705882352937 25.317647058823525 16.094117647058827 25.317647058823525 S 12.4235294117647 23.717647058823538 12.4235294117647 21.647058823529413 S 14.0235294117647 17.9764705882353 16.094117647058827 17.9764705882353 C 16.470588235294112 17.9764705882353 16.94117647058824 17.78823529411765 17.12941176470589 17.411764705882362 L 19.294117647058826 13.835294117647063 C 19.5764705882353 13.270588235294113 20.32941176470589 13.082352941176476 20.8 13.458823529411763 C 21.647058823529413 13.929411764705888 22.58823529411765 14.117647058823525 23.529411764705888 14.117647058823525 C 26.541176470588237 14.117647058823525 28.98823529411765 11.670588235294112 28.98823529411765 8.658823529411762 C 28.98823529411765 8.282352941176475 28.98823529411765 7.81176470588235 28.894117647058824 7.435294117647063 C 28.32941176470589 4.98823529411765 26.164705882352937 3.2 23.62352941176471 3.2 C 22.494117647058825 3.2 21.458823529411763 3.5764705882352876 20.61176470588235 4.1411764705882375 C 20.32941176470589 4.329411764705887 19.95294117647059 4.329411764705887 19.670588235294126 4.0470588235294125 L 19.105882352941176 3.4823529411764627 C 18.823529411764714 3.105882352941175 18.823529411764714 2.541176470588225 19.2 2.2588235294117625 C 20.42352941176471 1.41176470588235 21.929411764705886 0.9411764705882375 23.529411764705888 0.9411764705882375 C 27.2 0.9411764705882375 30.305882352941186 3.4823529411764627 31.05882352941176 6.964705882352938 C 31.152941176470588 7.529411764705888 31.24705882352941 8.094117647058825 31.24705882352941 8.658823529411762 C 31.24705882352941 12.98823529411765 27.76470588235295 16.470588235294112 23.529411764705888 16.470588235294112 z M 16.094117647058827 20.329411764705874 C 15.341176470588238 20.329411764705874 14.7764705882353 20.894117647058824 14.7764705882353 21.647058823529413 S 15.341176470588238 22.964705882352938 16.094117647058827 22.964705882352938 C 16.847058823529412 22.964705882352938 17.41176470588235 22.4 17.41176470588235 21.647058823529413 S 16.847058823529412 20.329411764705874 16.094117647058827 20.329411764705874 z M 20.51764705882354 6.682352941176463 C 21.1764705882353 5.741176470588225 22.305882352941175 5.082352941176462 23.529411764705888 5.082352941176462 C 25.6 5.082352941176462 27.2 6.682352941176463 27.2 8.752941176470587 S 25.6 12.4235294117647 23.529411764705888 12.4235294117647 C 22.305882352941175 12.4235294117647 21.1764705882353 11.764705882352937 20.51764705882354 10.8235294117647 C 20.14117647058824 10.352941176470575 19.670588235294126 9.882352941176462 19.01176470588235 9.882352941176462 H 15.058823529411763 C 14.4 9.882352941176462 13.929411764705888 9.41176470588235 13.929411764705888 8.752941176470587 C 13.929411764705888 8.376470588235287 13.929411764705888 7.905882352941175 13.835294117647063 7.529411764705875 C 13.270588235294126 5.082352941176462 11.105882352941174 3.2941176470588127 8.564705882352937 3.2941176470588127 C 7.435294117647063 3.2941176470588127 6.4 3.6705882352941126 5.552941176470587 4.23529411764705 C 4.1411764705882375 5.176470588235287 3.2 6.870588235294113 3.2 8.752941176470587 C 3.2 10.8235294117647 4.329411764705887 12.61176470588235 6.117647058823525 13.552941176470576 C 6.682352941176475 13.83529411764705 7.058823529411763 14.494117647058813 6.870588235294125 15.058823529411763 C 6.682352941176475 15.717647058823525 6.023529411764713 16 5.458823529411762 15.81176470588235 C 2.8235294117647 14.58823529411765 0.9411764705882375 11.858823529411762 0.9411764705882375 8.752941176470587 C 0.9411764705882375 6.117647058823525 2.2588235294117625 3.7647058823529376 4.329411764705887 2.3529411764705874 C 5.552941176470587 1.505882352941175 7.058823529411763 1.0352941176470625 8.658823529411762 1.0352941176470625 C 12.329411764705888 1.0352941176470625 15.435294117647063 3.5764705882353 16.18823529411765 7.058823529411763 C 16.282352941176477 7.341176470588238 16.56470588235294 7.6235294117647125 16.847058823529412 7.6235294117647125 H 19.2 C 19.67058823529411 7.6235294117647125 20.14117647058824 7.152941176470588 20.517647058823524 6.682352941176475 z M 23.529411764705888 10.070588235294112 C 24.282352941176477 10.070588235294112 24.847058823529412 9.505882352941175 24.847058823529412 8.752941176470587 C 24.847058823529412 8 24.282352941176462 7.435294117647063 23.529411764705888 7.435294117647063 C 22.776470588235288 7.435294117647063 22.211764705882363 8 22.211764705882363 8.752941176470587 C 22.211764705882363 9.505882352941175 22.7764705882353 10.070588235294112 23.529411764705888 10.070588235294112 z" fill="#F7F7F7" class="nc-icon-wrapper"></path></g></svg>