<?xml version="1.0" encoding="utf-8"?>
<!-- Generator: Adobe Illustrator 26.1.0, SVG Export Plug-In . SVG Version: 6.00 Build 0)  -->
<svg version="1.1" id="Layer_1" xmlns="http://www.w3.org/2000/svg" xmlns:xlink="http://www.w3.org/1999/xlink" x="0px" y="0px"
	 viewBox="0 0 32 32" style="enable-background:new 0 0 32 32;" xml:space="preserve">
<path d="M9.7,16.2l-1,1.9c-0.1,0.1-0.2,0.2-0.3,0.2c-2.3,0-4.2,1.9-4.2,4.2c0,2.3,1.9,4.2,4.2,4.2s4.2-1.9,4.2-4.2
	c0-0.7-0.2-1.3-0.5-1.9c-0.3-0.5-0.4-1.2-0.1-1.7l1.8-3.2c0.4-0.8,0.2-1.7-0.5-2.2c-1.3-0.9-2.2-2.4-2.2-4.1c0-2.8,2.2-5,5-5
	s5,2.2,5,5c0,0.6,0.4,1.2,1,1.3l0.8,0.2c0.8,0.2,1.6-0.3,1.6-1.1c0-0.1,0-0.3,0-0.4c0-4.6-3.7-8.4-8.4-8.4c-4.6,0-8.4,3.7-8.4,8.4
	c0,1.9,0.6,3.7,1.7,5.1C9.9,15,10,15.6,9.7,16.2z M8.4,23.3c-0.5,0-0.9-0.4-0.9-0.9c0-0.5,0.4-0.9,0.9-0.9c0.5,0,0.9,0.4,0.9,0.9
	C9.2,22.9,8.8,23.3,8.4,23.3z M23.6,14.1c-0.5,0-1,0-1.5,0.1c-0.7,0.1-1.3-0.1-1.7-0.7L20,12.7c-0.3-0.5-0.2-1.1,0-1.7
	c0.2-0.5,0.4-1.1,0.4-1.7c0-2.3-1.9-4.2-4.2-4.2c-2.3,0-4.2,1.9-4.2,4.2c0,2.3,1.9,4.2,4.2,4.2c0.3,0,0.5,0.1,0.7,0.4l2.2,3.6
	c0.5,0.8,1.5,1,2.2,0.6c0.7-0.4,1.6-0.6,2.4-0.6c2.8,0,5,2.2,5,5c0,0.4,0,0.7-0.1,1.1c-0.5,2.2-2.5,3.9-4.9,3.9c-1,0-2-0.3-2.8-0.9
	c-0.3-0.2-0.6-0.2-0.8,0.1l-1.2,1.4c-0.3,0.4-0.3,1,0.1,1.3c1.3,0.9,3,1.5,4.7,1.5c4,0,7.3-2.8,8.2-6.5c0.1-0.6,0.2-1.2,0.2-1.8
	C32,17.9,28.3,14.1,23.6,14.1z M16.1,10.2c-0.5,0-0.9-0.4-0.9-0.9c0-0.5,0.4-0.9,0.9-0.9c0.5,0,0.9,0.4,0.9,0.9
	C17,9.8,16.6,10.2,16.1,10.2z M20.2,25c0.8,1.1,2,1.7,3.4,1.7c2.3,0,4.2-1.9,4.2-4.2s-1.9-4.2-4.2-4.2c-1.4,0-2.6,0.7-3.4,1.7
	c-0.3,0.5-0.8,0.8-1.4,0.8H15c-0.9,0-1.7,0.7-1.7,1.7c0,0.4,0,0.7-0.1,1.1c-0.5,2.2-2.5,3.9-4.9,3.9c-1,0-2-0.3-2.8-0.9
	c-1.3-0.9-2.2-2.4-2.2-4.1c0-1.8,0.9-3.3,2.3-4.2c0.7-0.4,1.1-1.2,0.9-2l-0.1-0.5c-0.2-0.8-1-1.2-1.7-0.9C1.9,16.3,0,19.1,0,22.5
	c0,2.9,1.4,5.4,3.6,6.9c1.3,0.9,3,1.5,4.7,1.5c4,0,7.3-2.8,8.2-6.5c0-0.1,0.1-0.1,0.2-0.1h2.1C19.4,24.1,19.9,24.5,20.2,25z
	 M23.6,21.6c0.5,0,0.9,0.4,0.9,0.9c0,0.5-0.4,0.9-0.9,0.9s-0.9-0.4-0.9-0.9C22.8,22,23.2,21.6,23.6,21.6z"/>
</svg>
