<svg xmlns="http://www.w3.org/2000/svg" width="32" height="32" viewBox="0 0 32 32"><title>webhook outline small</title><g fill="#212121" class="nc-icon-wrapper"><path transform="matrix(1 0 0 -1 0 32)" d="M 9.7 15.8 L 8.7 13.9 C 8.6 13.8 8.5 13.7 8.4 13.7 C 6.1 13.7 4.2 11.8 4.2 9.5 C 4.2 7.2 6.1 5.3 8.4 5.3 S 12.6 7.2 12.6 9.5 C 12.6 10.2 12.4 10.8 12.1 11.4 C 11.8 11.9 11.7 12.6 12 13.1 L 13.8 16.3 C 14.2 17.1 14 18 13.3 18.5 C 12 19.4 11.1 20.9 11.1 22.6 C 11.1 25.4 13.3 27.6 16.1 27.6 S 21.1 25.4 21.1 22.6 C 21.1 22 21.5 21.4 22.1 21.3 L 22.9 21.1 C 23.7 20.9 24.5 21.4 24.5 22.2 V 22.6 C 24.5 27.2 20.8 31 16.1 31 C 11.5 31 7.7 27.3 7.7 22.6 C 7.7 20.7 8.3 18.9 9.4 17.5 C 9.9 17 10 16.4 9.7 15.8 z M 8.4 8.7 C 7.9 8.7 7.5 9.1 7.5 9.6 S 7.9 10.5 8.4 10.5 S 9.3 10.1 9.3 9.6 C 9.2 9.1 8.8 8.7 8.4 8.7 z M 23.6 17.9 C 23.1 17.9 22.6 17.9 22.1 17.8 C 21.4 17.7 20.8 17.9 20.4 18.5 L 20 19.3 C 19.7 19.8 19.8 20.4 20 21 C 20.2 21.5 20.4 22.1 20.4 22.7 C 20.4 25 18.5 26.9 16.2 26.9 C 13.9 26.9 12 25 12 22.7 C 12 20.4 13.9 18.5 16.2 18.5 C 16.5 18.5 16.7 18.4 16.9 18.1 L 19.1 14.5 C 19.6 13.7 20.6 13.5 21.3 13.9 C 22 14.3 22.9 14.5 23.7 14.5 C 26.5 14.5 28.7 12.3 28.7 9.5 C 28.7 9.1 28.7 8.8 28.6 8.4 C 28.1 6.2 26.1 4.5 23.7 4.5 C 22.7 4.5 21.7 4.8 20.9 5.4 C 20.6 5.6 20.3 5.6 20.1 5.3 L 18.9 3.9 C 18.6 3.5 18.6 2.9 19 2.6 C 20.3 1.7 22 1.1 23.7 1.1 C 27.7 1.1 31 3.9 31.9 7.6 C 32 8.2 32.1 8.8 32.1 9.4 C 32 14.1 28.3 17.9 23.6 17.9 z M 16.1 21.8 C 15.6 21.8 15.2 22.2 15.2 22.7 S 15.6 23.6 16.1 23.6 S 17 23.2 17 22.7 S 16.6 21.8 16.1 21.8 z M 20.2 7 C 21 5.9 22.2 5.3 23.6 5.3 C 25.9 5.3 27.8 7.2 27.8 9.5 S 25.9 13.7 23.6 13.7 C 22.2 13.7 21 13 20.2 12 C 19.9 11.5 19.4 11.2 18.8 11.2 H 15 C 14.1 11.2 13.3 10.5 13.3 9.5 C 13.3 9.1 13.3 8.8 13.2 8.4 C 12.7 6.2 10.7 4.5 8.3 4.5 C 7.3 4.5 6.3 4.8 5.5 5.4 C 4.2 6.3 3.3 7.8 3.3 9.5 C 3.3 11.3 4.2 12.8 5.6 13.7 C 6.3 14.1 6.7 14.9 6.5 15.7 L 6.4 16.2 C 6.2 17 5.4 17.4 4.7 17.1 C 1.9 15.7 0 12.9 0 9.5 C 0 6.6 1.4 4.1 3.6 2.6 C 4.9 1.7 6.6 1.1 8.3 1.1 C 12.3 1.1 15.6 3.9 16.5 7.6 C 16.5 7.7 16.6 7.7 16.7 7.7 H 18.8 C 19.4 7.9 19.9 7.5 20.2 7 z M 23.6 10.4 C 24.1 10.4 24.5 10 24.5 9.5 S 24.1 8.6 23.6 8.6 S 22.7 9 22.7 9.5 C 22.8 10 23.2 10.4 23.6 10.4 z" fill="#212121" class="nc-icon-wrapper"></path></g></svg>