<svg xmlns="http://www.w3.org/2000/svg" width="32" height="32" viewBox="0 0 32 32"><title>widget</title><g fill="#F7F7F7" class="nc-icon-wrapper"><path transform="matrix(1 0 0 -1 0 32)" d="M 18.978 18.697 A 6.56 6.56 0 0 1 16.012 19.407 C 15.652 19.404 15.292 19.373 14.936 19.312 V 29.942 C 14.935 30.122 14.981 30.298 15.07 30.456 C 15.159 30.613 15.287 30.746 15.443 30.841 A 1.094 1.094 0 0 0 16.492 30.889 A 10.578 10.578 0 0 0 20.854 27.04 A 10.268 10.268 0 0 0 22.469 21.513 A 10.122 10.122 0 0 0 21.278 16.732 A 6.41 6.41 0 0 1 18.978 18.697 z M 9.554 13.085 A 6.156 6.156 0 0 0 10.153 15.727 C 8.454 15.657 6.798 15.184 5.327 14.349 A 10.534 10.534 0 0 1 1.249 10.217 A 10.247 10.247 0 0 1 0.026 4.597 A 1.057 1.057 0 0 1 0.593 3.735 A 1.095 1.095 0 0 1 1.64 3.754 L 11.042 9.067 A 6.211 6.211 0 0 0 9.554 13.085 z M 31.462000000000014 5.57 L 22.057 10.885 A 6.34 6.34 0 0 0 19.933 8.072 A 6.546 6.546 0 0 0 16.607 6.793 A 10.547 10.547 0 0 1 20.452 3.28 A 10.815 10.815 0 0 1 25.547 2 A 10.963 10.963 0 0 1 31.517 3.778 A 1.035 1.035 0 0 1 31.847 5.198 A 1.068 1.068 0 0 1 31.462 5.57 z M 20.317 13.086 C 20.317 10.758 18.389 8.872 16.012 8.872 C 13.634 8.872 11.707 10.758 11.707 13.086 C 11.707 15.413 13.634 17.3 16.012 17.3 C 18.389 17.3 20.317 15.413 20.317 13.086 z" fill="#F7F7F7" class="nc-icon-wrapper"></path></g></svg>