<svg width="32" height="32" viewBox="0 0 32 32" xmlns="http://www.w3.org/2000/svg"><title>widget</title><g class="nc-icon-wrapper" fill="none"><path d="M18.978 13.303a6.56 6.56 0 0 0-2.966-.71c-.36.003-.72.034-1.076.095V2.058c-.001-.18.045-.356.134-.514.089-.157.217-.29.373-.385a1.094 1.094 0 0 1 1.049-.048 10.578 10.578 0 0 1 4.362 3.849 10.268 10.268 0 0 1 1.615 5.527 10.122 10.122 0 0 1-1.191 4.781 6.41 6.41 0 0 0-2.3-1.965zm-9.424 5.612a6.156 6.156 0 0 1 .599-2.642c-1.699.07-3.355.543-4.826 1.378a10.534 10.534 0 0 0-4.078 4.132 10.247 10.247 0 0 0-1.223 5.62 1.057 1.057 0 0 0 .567.862 1.095 1.095 0 0 0 1.047-.019l9.402-5.313a6.211 6.211 0 0 1-1.488-4.018zm21.908 7.515l-9.405-5.315a6.34 6.34 0 0 1-2.124 2.813 6.546 6.546 0 0 1-3.326 1.279 10.547 10.547 0 0 0 3.845 3.513A10.815 10.815 0 0 0 25.547 30a10.963 10.963 0 0 0 5.97-1.778 1.035 1.035 0 0 0 .33-1.42 1.068 1.068 0 0 0-.385-.372zm-11.145-7.516c0 2.328-1.928 4.214-4.305 4.214-2.378 0-4.305-1.886-4.305-4.214 0-2.327 1.927-4.214 4.305-4.214 2.377 0 4.305 1.887 4.305 4.214z" fill="#111111"/></g></svg>