<?xml version="1.0" encoding="utf-8"?>
<!-- Generator: Adobe Illustrator 24.2.3, SVG Export Plug-In . SVG Version: 6.00 Build 0)  -->
<svg version="1.1" id="Layer_1" xmlns="http://www.w3.org/2000/svg" xmlns:xlink="http://www.w3.org/1999/xlink" x="0px" y="0px"
	 viewBox="0 0 32 32" style="enable-background:new 0 0 32 32;" xml:space="preserve">
<style type="text/css">
	.st0{fill-rule:evenodd;clip-rule:evenodd;}
</style>
<g>
	<g>
		<path class="st0" d="M15.6,10.7h-2.1c-0.6,2.4-2.5,4.3-4.9,4.9v2.6h5.1V32H0V18.3h5.1v-2.6C2.2,14.8,0,12.2,0,9
			c0-3.8,3.1-6.9,6.9-6.9c3.2,0,5.9,2.2,6.6,5.1h2.2L23,0l9,9l-7.3,7.3v2.2c2.9,0.8,5.1,3.5,5.1,6.6c0,3.8-3.1,6.9-6.9,6.9
			C19.1,32,16,29,16,25.2c0-3.2,2.2-5.9,5.1-6.6v-2.2L15.6,10.7z M23,13.1L18.9,9L23,4.9L27,9L23,13.1z M6.9,5.6
			C5,5.6,3.5,7.1,3.5,9c0,1.9,1.5,3.4,3.4,3.4s3.4-1.5,3.4-3.4C10.2,7.1,8.7,5.6,6.9,5.6z M3.5,21.8v6.7h6.7v-6.7L3.5,21.8z
			 M22.9,21.8c-1.9,0-3.4,1.5-3.4,3.4c0,1.9,1.5,3.4,3.4,3.4c1.9,0,3.4-1.5,3.4-3.4C26.2,23.3,24.7,21.8,22.9,21.8z"/>
	</g>
</g>
</svg>
