<svg xmlns="http://www.w3.org/2000/svg" width="32" height="32" viewBox="0 0 32 32"><title>workflow alternate large</title><g fill="#212121" class="nc-icon-wrapper"><path transform="matrix(1 0 0 -1 0 32)" d="M 16.3 23.1 H 12.6 C 12.3 20.2 10 17.9 7.1 17.6 V 12.6 H 12.7 V 0 H 0 V 12.6 H 5.6 V 17.6 C 2.4 18 0 20.6 0 23.9 C 0 27.4 2.8 30.2 6.3 30.2 C 9.5 30.2 12.2 27.8 12.6 24.6 H 16.4 L 23.8 32 L 32 23.8 L 24.5 16.3 V 12.5 C 27.6 12.1 30 9.5 30 6.2 C 30 2.7 27.2 -0.1 23.7 -0.1 S 17.4 2.7 17.4 6.2 C 17.4 9.4 19.8 12.1 23 12.5 V 16.4 L 16.3 23.1 z M 23.8 17.7 L 17.7 23.8 L 23.8 29.9 L 29.900000000000013 23.8 L 23.8 17.7 z M 6.3 28.7 C 3.6 28.7 1.5 26.5 1.5 23.9 C 1.5 21.2 3.7 19.1 6.3 19.1 C 9 19.1 11.1 21.3 11.1 23.9 C 11.1 26.5 9 28.7 6.3 28.7 z M 1.5 11.1 V 1.5 H 11.1 V 11.1 H 1.5 z M 23.7 11.1 C 21 11.1 18.9 8.9 18.9 6.3 S 21.1 1.5 23.7 1.5 S 28.5 3.7 28.5 6.3 S 26.4 11.1 23.7 11.1 z" fill="#212121" class="nc-icon-wrapper"></path></g></svg>