<svg xmlns="http://www.w3.org/2000/svg" width="32" height="32" viewBox="0 0 32 32"><title>workflow alternate small</title><g fill="#F7F7F7" class="nc-icon-wrapper"><path transform="matrix(1 0 0 -1 0 32)" d="M 15.6 21.3 H 13.5 C 12.9 18.9 11 17 8.6 16.4 V 13.8 H 13.7 V 0 H 0 V 13.7 H 5.1 V 16.3 C 2.2 17.2 0 19.8 0 23 C 0 26.8 3.1 29.9 6.9 29.9 C 10.1 29.9 12.8 27.7 13.5 24.8 H 15.7 L 23 32 L 32 23 L 24.7 15.7 V 13.5 C 27.6 12.7 29.8 10 29.8 6.9 C 29.8 3.1 26.7 0 22.9 0 C 19.1 0 16 3 16 6.8 C 16 10 18.2 12.7 21.1 13.4 V 15.6 L 15.6 21.3 z M 23 18.9 L 18.9 23 L 23 27.1 L 27 23 L 23 18.9 z M 6.9 26.4 C 5 26.4 3.5 24.9 3.5 23 S 5 19.6 6.9 19.6 S 10.3 21.1 10.3 23 C 10.2 24.9 8.7 26.4 6.9 26.4 z M 3.5 10.2 V 3.5 H 10.2 V 10.2 H 3.5 z M 22.9 10.2 C 21 10.2 19.5 8.7 19.5 6.8 S 21 3.4 22.9 3.4 S 26.3 4.9 26.3 6.8 C 26.2 8.7 24.7 10.2 22.9 10.2 z" fill="#F7F7F7" class="nc-icon-wrapper"></path></g></svg>