<svg xmlns="http://www.w3.org/2000/svg" width="32" height="32" viewBox="0 0 32 32"><title>workspaces</title><g fill="#212121" class="nc-icon-wrapper"><g fill="#212121"><path transform="scale(1,-1) translate(0,-32)" d="M 29.815 13.312 H 1.685 A 0.692 0.692 0 0 0 1 14 V 27.313 C 1 27.687 1.311 28 1.685 28 H 11.705 V 28.688 C 11.705 29.062 12.015 29.312 12.389 29.312 H 15.065 V 31.312 C 15.065 31.687 15.377 32 15.75 32 C 16.123 32 16.435 31.687 16.435 31.312 V 29.312 H 19.111 C 19.484 29.312 19.795 29.062 19.795 28.688 V 28 H 29.815 C 30.189 28 30.5 27.687 30.5 27.312 V 14 A 0.692 0.692 0 0 0 29.815 13.312 z M 18.426 28 H 13.074 V 26.687 H 18.426 V 28 z M 2.992 12 H 28.508 A 2.01 2.01 0 0 0 30.5 10 C 30.5 8.875 29.567 8 28.508 8 H 23.53 L 27.078 0.937 C 27.265 0.625 27.078 0.25 26.767 0.062 C 26.642 0 26.58 0 26.456 0 C 26.206 0 25.958 0.125 25.896 0.375 L 22.035 8 H 15.75 V 0.687 A 0.692 0.692 0 0 0 15.065 0 A 0.692 0.692 0 0 0 14.381 0.688 V 8 H 9.464 L 5.605 0.375 C 5.543 0.125 5.295 0 5.045 0 C 4.921 0 4.859 0 4.735 0.063 C 4.423 0.25 4.236 0.625 4.423 0.938 L 7.97 8 H 2.992 A 2.01 2.01 0 0 0 1 10 C 1 11.125 1.934 12 2.992 12 z"></path></g></g></svg>