<svg xmlns="http://www.w3.org/2000/svg" width="32" height="32" viewBox="0 0 32 32"><title>workflow</title><g fill="#212121" class="nc-icon-wrapper"><path transform="matrix(1 0 0 -1 0 32)" d="M 31.1 23 L 32 23.9 L 31.1 24.8 L 24.8 31.1 L 23.9 32 L 23 31.1 L 17.1 25.2 H 12.4 C 11.8 28.1 9.3 30.2 6.2 30.2 C 2.8 30.3 0 27.4 0 24 C 0 21 2.2 18.4 5 17.8 V 12.6 H 0 V 0 H 12.6 V 12.6 H 7.6 V 17.8 C 10.1 18.3 12 20.3 12.5 22.7 H 17 L 22.7 17 V 12.5 C 19.8 11.9 17.7 9.3 17.7 6.3 C 17.7 2.8 20.5 0 24 0 S 30.3 2.8 30.3 6.3 C 30.3 9.3 28.1 11.9 25.3 12.5 V 17 z M 10.1 10.1 V 2.5 H 2.5 V 10.1 z M 6.3 20.2 C 4.2 20.2 2.5 21.9 2.5 24 S 4.2 27.8 6.3 27.8 S 10.1 26.1 10.1 24 S 8.4 20.2 6.3 20.2 z M 27.7 6.3 C 27.7 4.2 26 2.5 23.9 2.5 S 20.1 4.2 20.1 6.3 S 21.8 10.1 23.9 10.1 S 27.7 8.4 27.7 6.3 z" fill="#212121" class="nc-icon-wrapper"></path></g></svg>