<?xml version="1.0" encoding="utf-8"?>
<!-- Generator: Adobe Illustrator 24.2.3, SVG Export Plug-In . SVG Version: 6.00 Build 0)  -->
<svg version="1.1" id="Layer_1" xmlns="http://www.w3.org/2000/svg" xmlns:xlink="http://www.w3.org/1999/xlink" x="0px" y="0px"
	 viewBox="0 0 32 32" style="enable-background:new 0 0 32 32;" xml:space="preserve">
<style type="text/css">
	.st0{fill-rule:evenodd;clip-rule:evenodd;}
</style>
<g>
	<g>
		<path class="st0" d="M16.3,8.9h-3.7c-0.3,2.9-2.6,5.2-5.5,5.5v5h5.6V32H0V19.4h5.6v-5C2.4,14,0,11.4,0,8.1c0-3.5,2.8-6.3,6.3-6.3
			c3.2,0,5.9,2.4,6.3,5.6h3.8L23.8,0L32,8.2l-7.5,7.5v3.8c3.1,0.4,5.5,3,5.5,6.3c0,3.5-2.8,6.3-6.3,6.3s-6.3-2.8-6.3-6.3
			c0-3.2,2.4-5.9,5.6-6.3v-3.9L16.3,8.9z M23.8,14.3l-6.1-6.1l6.1-6.1l6.1,6.1L23.8,14.3z M6.3,3.3c-2.7,0-4.8,2.2-4.8,4.8
			c0,2.7,2.2,4.8,4.8,4.8c2.7,0,4.8-2.2,4.8-4.8C11.1,5.5,9,3.3,6.3,3.3z M1.5,20.9v9.6h9.6v-9.6H1.5z M23.7,20.9
			c-2.7,0-4.8,2.2-4.8,4.8s2.2,4.8,4.8,4.8s4.8-2.2,4.8-4.8S26.4,20.9,23.7,20.9z"/>
	</g>
</g>
</svg>
