<svg xmlns="http://www.w3.org/2000/svg" width="32" height="32" viewBox="0 0 32 32"><title>wrench</title><g fill="#F7F7F7" class="nc-icon-wrapper"><path transform="matrix(1 0 0 -1 0 32)" d="M 30.706 26.064 C 31.706 25.064 32.063 23.849 31.991 22.921 C 31.92 21.992 31.563 20.135 29.706 18.278 C 27.848 16.42 24.206 15.278 21.634 16.563 C 21.277 16.777 20.706 16.92 20.134 16.349 C 19.42 15.706 5.706 0.991 5.706 0.991 C 4.491 -0.366 2.277 -0.294 0.991 0.991 C -0.294 2.277 -0.366 4.491 0.991 5.706 C 0.991 5.706 15.777 19.563 16.348 20.135 C 16.92 20.706 16.706 21.278 16.563 21.706 C 15.134 25.064 16.706 28.064 18.277 29.706 C 19.848 31.422 21.92 31.922 22.92 31.993 C 23.848 32.065 25.134 31.636 26.063 30.708 L 21.991 26.708 L 22.706 22.708 L 26.634 21.993 L 30.706 26.065 z M 4.206 2.634 C 4.634 3.063 4.634 3.849 4.206 4.277 A 1.121 1.121 0 0 1 2.634 4.277 C 2.206 3.849 2.206 3.063 2.634 2.634 A 1.121 1.121 0 0 1 4.206 2.634 z" fill="#F7F7F7" class="nc-icon-wrapper"></path></g></svg>