<svg xmlns="http://www.w3.org/2000/svg" width="32" height="32" viewBox="0 0 32 32"><title>x filled</title><g fill="#212121" class="nc-icon-wrapper"><path transform="matrix(1 0 0 -1 0 32)" d="M 27.321 27.321 C 33.56 21.083 33.56 10.917 27.321 4.679 C 21.083 -1.56 10.917 -1.56 4.679 4.679 C -1.56 10.917 -1.56 21.083 4.679 27.321 C 10.917 33.56 21.083 33.56 27.321 27.321 z M 23.393 9.531 L 16.924 16 L 23.394 22.47 L 22.469 23.393 L 16 16.924 L 9.53 23.394 L 8.607 22.469 L 15.076 16 L 8.606 9.53 L 9.531 8.606 L 16 15.076 L 22.47 8.606 L 23.394 9.531 z" fill="#212121" class="nc-icon-wrapper"></path></g></svg>