<svg xmlns="http://www.w3.org/2000/svg" viewBox="0 0 24 24" enable-background="new 0 0 24 24" width="24" height="24">
    <path d="M 8 2 C 4.6981362 2 2 4.6981362 2 8 C 2 11.301864 4.6981362 14 8 14 C 11.301864 14 14 11.301864 14 8 C 14 4.6981362 11.301864 2 8 2 z M 17 2 L 17 4 L 13.6875 4 C 14.4875 5.1 15 6.5 15 8 C 15 8.3 15.00625 8.7 14.90625 9 L 20 9 L 20 20 L 6 20 L 6 14.6875 C 5.3 14.4875 4.6 14.1875 4 13.6875 L 4 20 C 4 21.1 4.9 22 6 22 L 20 22 C 21.1 22 22 21.1 22 20 L 22 6 C 22 4.9 21.1 4 20 4 L 19 4 L 19 2 L 17 2 z M 8 4 C 10.220984 4 12 5.7790164 12 8 C 12 10.220984 10.220984 12 8 12 C 5.7790164 12 4 10.220984 4 8 C 4 5.7790164 5.7790164 4 8 4 z M 7 5 L 7 8 L 7 8.40625 L 7.28125 8.71875 L 8.90625 10.3125 L 10.3125 8.90625 L 9 7.5625 L 9 5 L 7 5 z M 13 13 L 13 18 L 18 18 L 18 13 L 13 13 z" fill-rule="evenodd"/>
</svg>