<svg xmlns="http://www.w3.org/2000/svg" viewBox="0 0 24 24" width="24" height="24">
    <path d="M 12 2 C 6.814 1.85 5.65625 6 5.65625 6 C 5.65625 6 1.083 6.542 1 11 C 0.948 13.756 3.243 16 6 16 L 9 16 L 9 14 L 6 14 C 4.346 14 2.967 12.654 3 11 C 3.062 7.906 6.9375 7.8125 6.9375 7.8125 C 6.9375 7.8125 8.003 3.847 12 4 C 16.906 4.188 17.3125 9.75 17.3125 9.75 C 17.3125 9.75 20.969 9.656 21 12 C 21.015 13.103 20.103 14 19 14 L 15 14 L 15 16 L 19 16 C 21.205 16 23.037 14.205 23 12 C 22.937 8.25 18.9375 7.96875 18.9375 7.96875 C 18.9375 7.96875 18.5 2.188 12 2 z M 11 10 L 11 17 L 8 17 L 12 22 L 16 17 L 13 17 L 13 10 L 11 10 z"/>
</svg>