<svg fill="#000000" height="512" width="512" id="icon-code" viewBox="0 0 512 512">
  <path d="m336 368c-4 0-8-2-11-5c-6-6-6-16 0-22l84-85l-84-85c-6-6-6-16 0-22c6-6 16-6 22 0l96 96c6 6 6 16 0 22l-96 96c-3 3-7 5-11 5z m-160 0c-4 0-8-2-11-5l-96-96c-6-6-6-16 0-22l96-96c6-6 16-6 22 0c6 6 6 16 0 22l-84 85l84 85c6 6 6 16 0 22c-3 3-7 5-11 5z m-16-112c0-16 8-24 24-24c16 0 24 8 24 24c0 16-8 24-24 24c-16 0-24-8-24-24z m72 0c0-16 8-24 24-24c16 0 24 8 24 24c0 16-8 24-24 24c-16 0-24-8-24-24z m72 0c0-16 8-24 24-24c16 0 24 8 24 24c0 16-8 24-24 24c-16 0-24-8-24-24z"/>
</svg>