<svg xmlns="http://www.w3.org/2000/svg" viewBox="0 0 32 32"><path d="M29 .5h-7.3c-2.3 0-4.1.8-5.4 2.2-.1.2-.2.3-.3.5-.1-.1-.2-.3-.4-.4C14.3 1.4 12.5.6 10.2.6H3C1.6.5.5 1.6.5 3v21.5C.5 25.9 1.6 27 3 27h5.3c1.8 0 3.5.2 4.7.6.6.2 1 .5 1.2.7.2.2.3.5.3.8 0 .8.7 1.5 1.5 1.5s1.5-.7 1.5-1.5c0-.4.1-.6.3-.8.2-.2.6-.5 1.2-.7 1.2-.5 2.9-.6 4.7-.6H29c1.4 0 2.5-1.1 2.5-2.5V3c0-1.4-1.1-2.5-2.5-2.5zM14.5 25c-.1-.1-.3-.1-.4-.2-1.7-.7-3.9-.8-5.8-.8H3.5V3.5h6.8c1.5 0 2.5.5 3.2 1.3.7.7 1.1 1.8 1.1 2.9V25zm14-1h-4.8c-1.9 0-4.1.2-5.8.8-.1.1-.3.1-.4.2V7.7c0-1.1.4-2.2 1.1-2.9.7-.7 1.7-1.3 3.2-1.3h6.8V24z" fill-rule="evenodd" clip-rule="evenodd"/></svg>