<svg width="32" height="32" fill="none" xmlns="http://www.w3.org/2000/svg"><path fill-rule="evenodd" clip-rule="evenodd" d="M9.795 26.298L16.312 32l6.516-5.702-.795-.909-4.957 4.337V8.853h4.67V7.645H10.879v1.208h4.669v20.873L10.59 25.39l-.795.91zm6.517-25.09c5.588 0 10.104 4.462 10.104 9.947 0 3.376-1.708 6.363-4.328 8.163a.604.604 0 10.684.995c2.93-2.013 4.851-5.362 4.851-9.158C27.623 4.986 22.55 0 16.312 0 10.072 0 5 4.986 5 11.155c0 3.796 1.922 7.145 4.85 9.158a.604.604 0 00.685-.995c-2.62-1.8-4.327-4.787-4.327-8.163 0-5.485 4.515-9.947 10.104-9.947z" fill="#000"/></svg>