<svg xmlns="http://www.w3.org/2000/svg" width="20" height="19" viewBox="0 0 20 19">
  <g fill="#FFF">
    <path d="M1.94209e-15,0.833299 C1.94209e-15,1.75243 0.747469,2.4999 1.6666,2.4999 L9.16628,2.4999 L9.16628,4.16649 L5.83309,4.16649 L5.83309,5.83309 L14.1661,5.83309 L14.1661,4.16649 L10.8329,4.16649 L10.8329,2.4999 L18.3326,2.4999 C19.2517,2.4999 19.9992,1.75243 19.9992,0.833299 L19.9992,0 L0,0 L0,0.833299 L1.94209e-15,0.833299 Z" transform="translate(0 13.17)"/>
    <path d="M19.9992,8.33299 L19.9992,1.6666 C19.9992,0.748302 19.2517,0 18.3326,0 L1.6666,0 C0.747469,0 0,0.748302 0,1.6666 L0,3.33236 L1.6666,3.33236 L1.6666,5.83226 L3.33319,5.83226 L3.33319,3.33236 L9.99958,3.33236 L9.99958,4.16566 C9.99958,3.70651 10.3721,3.33236 10.8329,3.33236 C11.3079,3.33236 11.1104,3.36986 12.4995,5.38894 C13.8886,3.36986 13.6911,3.33236 14.1661,3.33236 C14.6269,3.33236 14.9994,3.70651 14.9994,4.16566 L14.9994,9.99875 L13.3328,9.99875 L13.3328,6.69222 L13.0886,7.05804 C12.9578,7.25636 12.737,7.37469 12.4995,7.37469 C12.2628,7.37469 12.0412,7.25553 11.9103,7.05887 L11.6662,6.69306 L11.6662,9.99958 L9.99958,9.99958 L9.99958,4.99979 L8.33299,4.99979 L8.33299,9.99958 L6.66639,9.99958 L6.66639,4.99979 L4.99979,4.99979 L4.99979,9.99958 L3.33319,9.99958 L3.33319,7.49969 L1.6666,7.49969 L1.6666,9.99958 L0,9.99958 L0,11.6662 L19.9992,11.6662 L19.9992,9.99958 L15.8327,9.99958 L15.8327,3.33319 L17.4993,3.33319 L17.4993,8.33299 L19.9992,8.33299 Z" transform="translate(0 .67)"/>
  </g>
</svg>
