<svg xmlns="http://www.w3.org/2000/svg" width="20" height="20" viewBox="0 0 20 20">
  <g>
    <path d="M9.99667,12.66333 C11.46943,12.66333 12.66333,11.46943 12.66333,9.99667 C12.66333,8.52391 11.46943,7.33 9.99667,7.33 C8.52391,7.33 7.33,8.52391 7.33,9.99667 C7.33,11.46943 8.52391,12.66333 9.99667,12.66333 Z"/>
    <path d="M2.22217,0 L17.7778,0 C19.0044,0 20,0.994141 20,2.22266 L20,17.7773 C20,19.0049 19.0044,20 17.7778,20 L2.22217,20 C0.994629,20 0,19.0049 0,17.7773 L0,2.22266 C0,0.994141 0.994629,0 2.22217,0 Z M14.6777,11.2109 L16.667,11.2109 L16.667,8.78711 L14.6802,8.78711 C14.5713,8.37207 14.4092,7.98438 14.2012,7.61719 L15.457,6.3623 L13.6392,4.54395 L12.3823,5.7998 C12.019,5.59082 11.6289,5.42969 11.2124,5.32227 L11.2124,3.33203 L8.78906,3.33203 L8.78906,5.32227 C8.37354,5.42969 7.9834,5.59082 7.62012,5.7998 L6.36328,4.54395 L4.54443,6.3623 L5.80127,7.61719 C5.59326,7.98438 5.43115,8.37305 5.32227,8.78711 L3.3335,8.78711 L3.3335,11.2119 L5.32227,11.2119 C5.43115,11.6279 5.59326,12.0166 5.80127,12.3818 L4.54443,13.6377 L6.36133,15.4541 L7.61816,14.1982 C7.98145,14.4072 8.37109,14.5693 8.78662,14.6768 L8.78662,16.666 L11.21,16.666 L11.21,14.6758 C11.627,14.5684 12.0166,14.4062 12.3804,14.1973 L13.6367,15.4531 L15.4546,13.6367 L14.1992,12.3809 C14.4067,12.0166 14.5688,11.627 14.6777,11.2109 Z"/>
  </g>
</svg>
