<svg xmlns="http://www.w3.org/2000/svg" version="1" viewBox="0 0 24 24" enable-background="new 0 0 24 24" width="24" height="24">
    <path d="M 12 2 C 6.5 2 2 6.5 2 12 C 2 17.5 6.5 22 12 22 C 17.5 22 22 17.5 22 12 C 22 6.5 17.5 2 12 2 z M 12 3.59375 C 13.101948 3.59375 14.156111 3.7926073 15.125 4.1875 C 15.101093 4.4529031 14.893654 4.7439423 14.8125 4.90625 C 14.7125 5.20625 14.4875 5.6125 14.1875 5.8125 C 13.9875 6.0125 13.70625 6.3 13.40625 6.5 C 13.10625 6.7 12.8 6.9875 12.5 7.1875 C 12.3 7.2875 12.19375 7.40625 12.09375 7.40625 L 12 7.40625 C 11.8 7.20625 11.8125 6.70625 11.8125 6.40625 C 11.8125 5.90625 12.1 5.59375 12 5.09375 C 12 4.99375 11.90625 4.1875 11.90625 4.1875 C 11.50625 4.0875 11.0875 4.1875 11.1875 3.6875 C 11.192308 3.6730769 11.2126 3.6697596 11.21875 3.65625 C 11.479125 3.6313577 11.73368 3.59375 12 3.59375 z M 8.15625 5.09375 C 8.459375 5.0875 8.75 5.1125 9 5.1875 C 9.3 5.2875 9.6125 5.4875 9.8125 5.6875 C 10.0125 5.8875 10.3125 6.2 10.3125 6.5 C 10.3125 6.6 10.2875 6.5875 10.1875 6.6875 C 10.0875 6.7875 10.00625 6.8125 9.90625 6.8125 C 9.60625 6.8125 9.29375 6.7875 9.09375 6.6875 L 8.6875 6.3125 C 8.0875 6.1125 7.19375 7.4125 7.09375 7.8125 C 6.99375 8.1125 7 8.80625 7.5 8.90625 C 7.8 8.90625 8.3875 8.29375 8.6875 8.09375 C 8.8875 7.99375 8.9875 7.9125 9.1875 7.8125 C 9.9875 7.7125 10.6125 8.39375 10.8125 9.09375 C 11.1125 9.89375 9.6 10.4875 9 10.6875 C 8.8 10.7875 8.7 10.5875 8.5 10.6875 C 8 10.8875 7.40625 11.49375 7.40625 12.09375 C 7.30625 12.59375 7.2875 13.09375 7.1875 13.59375 C 7.0875 13.59375 7 13.6 7 13.5 L 7 13.3125 C 7 13.0125 6.89375 12.6 6.59375 12.5 C 6.49375 12.4 6.50625 12.40625 6.40625 12.40625 C 6.10625 12.40625 5.8 12.1125 5.5 12.3125 C 5.3 12.5125 5.09375 12.79375 5.09375 13.09375 C 5.09375 13.19375 5.0875 13.30625 5.1875 13.40625 C 5.3875 13.50625 5.6125 13.30625 5.8125 13.40625 C 6.0125 13.40625 6 13.5875 6 13.6875 C 6.2 13.9875 6.3875 14.4 6.6875 14.5 L 7.40625 14.5 L 8.6875 14.5 C 8.9875 14.6 9.4875 14.70625 9.6875 14.90625 C 9.7875 15.10625 9.80625 15.3 9.90625 15.5 C 10.40625 16 10.99375 15.9875 11.59375 16.1875 C 11.79375 16.2875 11.90625 16.39375 11.90625 16.59375 C 12.00625 16.89375 11.9125 17.3 11.8125 17.5 C 11.7125 17.8 11.60625 18.20625 11.40625 18.40625 C 11.20625 18.60625 11.0125 18.7125 10.8125 18.8125 C 10.5125 19.0125 10.3 19.3875 10 19.6875 C 10 19.7375 9.89375 19.93125 9.78125 20.09375 C 9.0207686 19.880975 8.284789 19.563186 7.625 19.15625 C 7.6034076 19.004439 7.59375 18.856349 7.59375 18.8125 C 7.49375 18.5125 7.4125 18.1125 7.3125 17.8125 C 7.1125 17.3125 6.6875 16.7875 6.6875 16.1875 C 6.6875 15.6875 6.8 15.2125 6.5 14.8125 C 6.1 14.3125 5.30625 14.3 4.90625 14 C 4.4362139 13.686643 3.9820543 13.243935 3.65625 12.78125 C 3.6313577 12.520875 3.59375 12.26632 3.59375 12 C 3.59375 9.2845274 4.9374588 6.8532676 6.96875 5.3125 C 7.3616412 5.1949906 7.7687268 5.1017402 8.15625 5.09375 z M 17.28125 5.5 C 19.17159 7.0470725 20.40625 9.3967226 20.40625 12 C 20.40625 14.778582 19.018039 17.278877 16.90625 18.8125 C 16.805454 18.490867 16.665448 18.170991 16.59375 17.8125 C 16.39375 17.4125 16.2875 16.99375 16.1875 16.59375 C 16.0875 16.29375 16.1125 15.8 15.8125 15.5 C 15.7125 15.3 15.5125 15.2875 15.3125 15.1875 C 14.6125 14.8875 13.6875 15.29375 13.1875 14.59375 C 12.9875 14.29375 13.09375 13.99375 13.09375 13.59375 C 13.29375 13.29375 13.39375 12.9875 13.59375 12.6875 C 13.79375 12.1875 14.0875 11.8125 14.1875 11.3125 C 14.2875 11.1125 14.2125 10.79375 14.3125 10.59375 C 14.4125 10.49375 14.6125 10.4125 14.8125 10.3125 C 14.9125 10.2125 15 10.19375 15 10.09375 C 15 9.99375 14.90625 10.00625 14.90625 9.90625 C 14.90625 9.80625 14.99375 9.6 15.09375 9.5 C 15.59375 9 16.09375 8.59375 16.59375 8.09375 C 16.69375 8.09375 16.6875 8 16.6875 8 C 16.7875 7.9 16.69375 7.8125 16.59375 7.8125 C 16.39375 7.7125 16.29375 7.69375 16.09375 7.59375 C 15.99375 7.59375 15.90625 7.6 15.90625 7.5 C 15.80625 7.4 15.9 7.19375 16 7.09375 L 16.59375 6.1875 C 16.788365 5.9928846 16.994496 5.612674 17.28125 5.5 z"/>
</svg>