<svg xmlns="http://www.w3.org/2000/svg" width="20" height="20" viewBox="0 0 20 20">
  <path fill="#72809B" d="M14.8697,7.08336 C14.8697,7.25336 14.7664,7.40669 14.6095,7.46919 L10.7393,9.03169 L10.7393,3.23169 L14.8697,2.06836 L14.8697,7.08336 Z M10.3261,2.46917 L6.05273,1.27917 L10.208,0.0175 C10.2856,-0.00583333 10.3674,-0.00583333 10.4442,0.0175 L14.5994,1.27917 L10.3261,2.46917 Z M6.04211,7.47003 C5.88515,7.40669 5.78271,7.25336 5.78271,7.08336 L5.78271,2.06836 L9.91315,3.23253 L9.91315,9.03253 L6.04211,7.47003 Z M15.4282,8.7759 C15.4282,8.7759 18.74,10.0317 18.7441,10.0334 C18.7441,10.0334 15.2861,11.2192 15.282,11.2192 C15.2778,11.2192 11.8198,10.0334 11.8198,10.0334 C11.824,10.0309 15.1374,8.7759 15.1374,8.7759 C15.2316,8.74006 15.3348,8.74006 15.4282,8.7759 Z M11.5654,14.1671 L11.5654,10.8271 L14.8698,11.9655 L14.8698,16.0913 L11.7926,14.5396 C11.653,14.4696 11.5654,14.3246 11.5654,14.1671 Z M15.6958,11.9655 L19.0001,10.8271 L19.0001,14.1671 C19.0001,14.3246 18.9118,14.4688 18.7721,14.5396 L15.6958,16.0913 L15.6958,11.9655 Z M5.78271,19.8833 L5.78271,13.2017 L10.7392,11.25 L10.7392,17.9167 C10.7392,18.0958 10.6252,18.255 10.4567,18.3125 L5.78271,19.8833 Z M0,17.9167 L0,11.25 L4.95652,13.2017 L4.95652,19.8833 L0.282522,18.3125 C0.114,18.255 0,18.0958 0,17.9167 Z M5.49987,9.18727 L9.92522,10.6756 L5.36935,12.4689 L0.813477,10.6748 L5.23882,9.18727 C5.32226,9.15893 5.41561,9.15893 5.49987,9.18727 Z"/>
</svg>
