<svg width="16" height="20" viewBox="0 0 16 20" version="1.1" xmlns="http://www.w3.org/2000/svg" xmlns:xlink="http://www.w3.org/1999/xlink">
<g id="Canvas" transform="translate(-6861 10258)">
<g id="lock">
<use xlink:href="#path0_fill" transform="translate(6861 -10258)" fill="#F2F2F2"/>
</g>
</g>
<defs>
<path id="path0_fill" d="M 8 0C 4.67619 0 2 2.54875 2 5.71429L 2 6.66667C 0.9 6.66667 0 7.52381 0 8.57143L 0 18.0952C 0 19.1429 0.9 20 2 20L 14 20C 15.1 20 16 19.1429 16 18.0952L 16 8.57143C 16 7.52381 15.1 6.66667 14 6.66667L 14 5.71429C 14 2.54875 11.3238 0 8 0ZM 8 1.90476C 10.2762 1.90476 12 3.54649 12 5.71429L 12 6.66667L 4 6.66667L 4 5.71429C 4 3.54649 5.72381 1.90476 8 1.90476ZM 8 11.4286C 9.1 11.4286 10 12.2857 10 13.3333C 10 14.381 9.1 15.2381 8 15.2381C 6.9 15.2381 6 14.381 6 13.3333C 6 12.2857 6.9 11.4286 8 11.4286Z"/>
</defs>
</svg>
