<svg width="20" height="15" viewBox="0 0 20 15" version="1.1" xmlns="http://www.w3.org/2000/svg" xmlns:xlink="http://www.w3.org/1999/xlink">
<g id="Canvas" transform="translate(-6858 11064)">
<g id="mail">
<g id="Union">
<use xlink:href="#path0_fill" transform="translate(6858 -11064)" fill="#FFFFFF"/>
<use xlink:href="#path1_fill" transform="translate(6858 -11064)" fill="#FFFFFF"/>
</g>
</g>
</g>
<defs>
<path id="path0_fill" d="M 18.1953 0.108398L 10 5.96289L 1.80518 0.110352C 2.02783 0.0458984 2.25781 0 2.5 0L 17.5 0C 17.7427 0 17.9727 0.0458984 18.1953 0.108398Z"/>
<path id="path1_fill" d="M 10 8.74902C 10.2549 8.74902 10.5088 8.6709 10.7261 8.51562L 19.9326 1.94141C 19.9536 2.0332 19.9707 2.12695 19.9824 2.22266C 19.9937 2.31348 20 2.40527 20 2.49902L 20 12.499C 20 13.877 18.8789 14.999 17.5 14.999L 2.5 14.999C 1.12109 14.999 0 13.877 0 12.499L 0 2.49902C 0 2.30566 0.0273438 2.12012 0.0673828 1.94043L 9.27393 8.51562C 9.43115 8.62891 9.60742 8.7002 9.78955 8.73145C 9.85938 8.74316 9.92969 8.74902 10 8.74902Z"/>
</defs>
</svg>
