<svg width="32" height="32" fill="none" xmlns="http://www.w3.org/2000/svg"><path fill-rule="evenodd" clip-rule="evenodd" d="M21.521.5h9.826v9.717H28.85V4.665l-16.087 15.91a6.856 6.856 0 011.272 3.985c0 3.833-3.142 6.94-7.018 6.94S0 28.393 0 24.56s3.142-6.94 7.018-6.94a7.04 7.04 0 013.973 1.218l16.047-15.87H21.52V.5zM.605 2.997L4.4 6.751.605 10.506l1.764 1.745 3.797-3.754 3.796 3.754 1.764-1.745L7.93 6.75l3.796-3.754-1.764-1.745-3.796 3.754-3.797-3.754L.605 2.997zm20.273 17.736l3.796 3.755-3.796 3.754 1.765 1.745 3.796-3.754 3.796 3.754L32 28.242l-3.796-3.754L32 20.733l-1.765-1.745-3.796 3.755-3.796-3.755-1.765 1.745zM11.54 24.56c0 2.47-2.025 4.472-4.522 4.472-2.498 0-4.522-2.002-4.522-4.472 0-2.47 2.024-4.473 4.522-4.473 2.497 0 4.522 2.003 4.522 4.473z" fill="#000"/></svg>