<svg width="32" height="32" viewBox="0 0 32 32" fill="none" xmlns="http://www.w3.org/2000/svg">
<path fill-rule="evenodd" clip-rule="evenodd" d="M5.41574 15.8549C5.41574 10.9968 9.50276 6.91574 14.7233 6.91574C18.5083 6.91574 21.7253 9.07773 23.1852 12.1259L18.2889 14.654L29.1281 18.3638L32 7.57461L27.9987 9.64057C25.6111 4.79839 20.5415 1.5 14.7233 1.5C6.67195 1.5 0 7.84802 0 15.8549C0 23.8617 6.67195 30.2097 14.7233 30.2097C18.1801 30.2097 21.3731 29.0447 23.8944 27.0855L20.5714 22.8091C18.9787 24.0468 16.9494 24.794 14.7233 24.794C9.50276 24.794 5.41574 20.7129 5.41574 15.8549Z" fill="black"/>
</svg>
