<svg xmlns="http://www.w3.org/2000/svg" xmlns:xlink="http://www.w3.org/1999/xlink" version="1.1" x="0px" y="0px" viewBox="0 0 100 100" enable-background="new 0 0 100 100" xml:space="preserve"><path d="M49.6,35h21.7c1.7,3,5,5,8.7,5c5.5,0,10-4.5,10-10c0-5.5-4.5-10-10-10c-3.7,0-6.9,2-8.7,5H38.9  C43.3,27.1,46.8,30.8,49.6,35z M80,24c3.3,0,6,2.7,6,6s-2.7,6-6,6s-6-2.7-6-6S76.7,24,80,24z M66.5,64.2c-4.4-2-7.7-7.9-12-16.5  C49.1,37.1,43.1,25,30,25h-1.3c-1.7-3-5-5-8.7-5c-5.5,0-10,4.5-10,10c0,5.5,4.5,10,10,10c3.7,0,6.9-2,8.7-5H30  c6.4,0,10.2,6.5,15.5,17.2c5,9.9,10.6,21.1,21.9,22.6l4.8-4.8L66.5,64.2z M20,36c-3.3,0-6-2.7-6-6s2.7-6,6-6s6,2.7,6,6  S23.3,36,20,36z M92.5,62.5l-4.9-4.9L80,65.1l-7.5-7.5l-4.9,4.9l7.5,7.5l-7.5,7.5l4.9,4.9l7.5-7.5l7.5,7.5l4.9-4.9L84.9,70  L92.5,62.5z"></path></svg>