<svg enable-background="new 0 0 32 32" viewBox="0 0 32 32" xmlns="http://www.w3.org/2000/svg"><path d="m23.1 10.6-2.8-2.8h6.6v6.9h2.4v-9.3h-9l2.8-2.8-1.7-1.7-5.7 5.7 5.7 5.7zm2.3 8.2c-3.6 0-6.6 2.9-6.6 6.6s2.9 6.6 6.6 6.6 6.6-2.9 6.6-6.6-2.9-6.6-6.6-6.6zm0 10.8c-2.3 0-4.2-1.9-4.2-4.2s1.9-4.2 4.2-4.2 4.2 1.9 4.2 4.2-1.9 4.2-4.2 4.2zm-12.2-23c0-3.6-2.9-6.6-6.6-6.6s-6.6 2.9-6.6 6.6 2.9 6.6 6.6 6.6 6.6-3 6.6-6.6zm-10.8 0c0-2.3 1.9-4.2 4.2-4.2s4.2 1.9 4.2 4.2-1.9 4.2-4.2 4.2-4.2-1.9-4.2-4.2zm6.5 14.8 2.8 2.8h-6.6v-6.9h-2.4v9.3h9l-2.8 2.8 1.7 1.7 5.7-5.7-5.7-5.7z"/></svg>