<svg width="32" height="32" viewBox="0 0 32 32" xmlns="http://www.w3.org/2000/svg"><g class="nc-icon-wrapper" fill="#444444"><path d="M10.03 28.64a13.983 13.983 0 0 1-7.96-11.307h-2C.75 25.547 7.617 32 16.003 32l.88-.04-5.08-5.08-1.773 1.76zm1.187-8.693c-.254 0-.494-.04-.694-.107a1.426 1.426 0 0 1-.533-.32 1.321 1.321 0 0 1-.347-.493c-.08-.187-.12-.4-.12-.627H7.79c0 .48.093.907.28 1.267.187.36.44.666.747.92.32.24.68.426 1.093.546.4.134.827.2 1.28.2.493 0 .96-.066 1.373-.2.427-.133.8-.333 1.107-.586.307-.254.56-.574.733-.96.174-.387.267-.814.267-1.294 0-.253-.027-.506-.093-.746a2.226 2.226 0 0 0-.307-.68c-.133-.214-.32-.4-.533-.574a2.744 2.744 0 0 0-.814-.413 2.798 2.798 0 0 0 1.187-1c.133-.2.227-.4.293-.613.067-.214.094-.427.094-.64 0-.48-.08-.907-.24-1.28a2.374 2.374 0 0 0-.68-.92c-.267-.254-.627-.44-1.027-.574a4.86 4.86 0 0 0-1.36-.186c-.48 0-.92.066-1.333.213-.4.147-.76.347-1.054.6-.28.253-.506.547-.68.893-.16.347-.24.72-.24 1.134h1.734c0-.227.04-.427.12-.6.08-.174.186-.334.333-.454.147-.12.307-.226.507-.293.2-.067.4-.107.64-.107.533 0 .933.134 1.186.414.254.266.387.653.387 1.146 0 .24-.04.454-.107.654-.066.2-.186.36-.333.493-.147.133-.333.24-.547.32-.213.08-.48.12-.773.12h-1.027v1.373h1.027c.293 0 .56.027.8.094.24.066.44.173.6.306.16.147.293.32.387.534.093.213.133.466.133.76 0 .546-.16.96-.467 1.24-.306.306-.733.44-1.266.44zm11.4-7.894a4.441 4.441 0 0 0-1.52-1.026c-.574-.24-1.227-.36-1.947-.36h-3.147v10.666h3.067c.733 0 1.413-.12 2.013-.36.6-.24 1.12-.573 1.547-1.013a4.5 4.5 0 0 0 .987-1.587 6.1 6.1 0 0 0 .346-2.093v-.533c0-.774-.12-1.467-.346-2.094a4.66 4.66 0 0 0-1-1.6zm-.52 4.214c0 .56-.067 1.053-.187 1.506-.133.44-.32.827-.573 1.134a2.494 2.494 0 0 1-.947.706c-.387.16-.827.24-1.32.24h-1.213V12.16h1.293c.96 0 1.693.307 2.187.92.506.613.76 1.493.76 2.653v.534zM16.003 0l-.88.04 5.08 5.08 1.774-1.773c4.36 2.066 7.48 6.293 7.946 11.306h2C31.257 6.453 24.39 0 16.003 0z"></path></g></svg>