<svg width="32" height="32" viewBox="0 0 32 32" xmlns="http://www.w3.org/2000/svg"><g class="nc-icon-wrapper" fill="#444444"><path d="M31.563 18.297l-15.313 6.75c-.063.062-.125.062-.25.062-.063 0-.188 0-.25-.062L.437 18.297c-.374-.188-.5-.563-.374-.938.187-.312.562-.5.875-.312L16 23.734l15.063-6.687c.312-.188.75 0 .875.312.125.375 0 .75-.375.938zm0-4.125L16.25 20.984c-.063.063-.125.063-.25.063-.063 0-.188 0-.25-.063L.437 14.172c-.374-.125-.5-.5-.374-.875.187-.375.562-.5.875-.375L16 19.609l15.063-6.687c.312-.125.75 0 .875.375s0 .75-.375.875zm-15.313 2.75c-.063 0-.125.062-.25.062-.063 0-.188-.062-.25-.062L.437 10.109C.188 9.984 0 9.734 0 9.484s.188-.5.438-.625L15.75 2.047c.188-.063.375-.063.5 0l15.313 6.812c.25.125.437.375.437.625s-.188.5-.438.625L16.25 16.922zM.937 21.109L16 27.797l15.063-6.688c.312-.125.75 0 .875.375.125.313 0 .688-.375.875L16.25 29.172c-.063 0-.125.062-.25.062-.063 0-.188-.062-.25-.062L.437 22.359c-.374-.187-.5-.562-.374-.875.187-.375.562-.5.875-.375z"></path></g></svg>