<svg width="32" height="32" viewBox="0 0 32 32" xmlns="http://www.w3.org/2000/svg"><g class="nc-icon-wrapper"><path d="M2 11.6v13c-1.2.7-2 2-2 3.5 0 2.2 1.8 4 4 4s4-1.8 4-4c0-1.5-.8-2.8-2-3.5v-8.7c-1.7-1.2-3.2-2.6-4-4.3zm2 14c1.3 0 2.4 1.1 2.4 2.4 0 1.3-1.1 2.4-2.4 2.4-1.3 0-2.4-1.1-2.4-2.4 0-1.3 1.1-2.4 2.4-2.4zM20 32c2.2 0 4-1.8 4-4 0-1.5-.8-2.7-2-3.4V24c0-2.2-.9-3.9-2.2-5.3l-.2-.2c-1.8-1.8-4.4-3.1-6.8-4.3-1.2-.6-2.3-1.1-3.2-1.7-.2-.1-.3-.2-.5-.3C7.2 11 6 9.7 6 8v-.6c1.2-.7 2-2 2-3.4 0-2.2-1.8-4-4-4S0 1.8 0 4c0 1.5.8 2.8 2 3.5V8c0 3.4 2 5.5 4.5 7.3l.9.6s2.8 1.6 3.7 2c.5.2 1.7.8 1.8.9 3.2 1.7 5.1 3.1 5.1 5.3v.5c-1.2.7-2 2-2 3.4 0 2.2 1.8 4 4 4zM4 6.4C2.7 6.4 1.6 5.3 1.6 4c0-1.3 1.1-2.4 2.4-2.4 1.3 0 2.4 1.1 2.4 2.4 0 1.3-1.1 2.4-2.4 2.4zm16 24c-1.3 0-2.4-1.1-2.4-2.4 0-1.3 1.1-2.4 2.4-2.4 1.3 0 2.4 1.1 2.4 2.4 0 1.3-1 2.4-2.4 2.4z" transform="translate(4 .096)" fill="#000" id="branch-node-vert"></path></g></svg>