<svg width="32" height="32" viewBox="0 0 32 32" xmlns="http://www.w3.org/2000/svg"><g class="nc-icon-wrapper" fill="#444444"><path d="M0 25.438v-2.275c0-.276.275-.551.55-.551h11.355c.276 0 .55.344.55.551v2.275c0 .345-.343.551-.55.551H.551c-.207.07-.551-.206-.551-.551zm0-6.825V16.34c0-.276.275-.552.55-.552h3.717c.344 0 .55.345.55.551v2.275a.543.543 0 0 1-.55.552H.55c-.207 0-.551-.414-.551-.552zm0-6.824V9.376c0-.345.275-.551.55-.551h8.465c.275 0 .55.275.55.551v2.482c0 .207-.206.413-.412.413H.482c-.138 0-.482-.207-.482-.482zm0-6.963V2.551C0 2.207.275 2 .55 2h3.648c.344 0 .55.276.55.551v2.275c0 .276-.275.552-.55.552H.55C.344 5.516 0 5.24 0 4.826zm14.452 20.612v-2.275c0-.276.344-.551.55-.551h11.424c.344 0 .55.344.55.551v2.275a.543.543 0 0 1-.55.551H15.002c-.138.07-.55-.206-.55-.551zm-7.708-6.825V16.34c0-.276.275-.552.55-.552h11.424c.276 0 .55.345.55.551v2.275c0 .345-.343.552-.55.552H7.295c-.344 0-.55-.414-.55-.552zm4.817-6.824V9.514c0-.276.344-.552.55-.552h11.356c.344 0 .55.345.55.552v2.275a.543.543 0 0 1-.55.551H12.112c-.413-.069-.55-.275-.55-.551zM6.744 4.826V2.551c0-.344.275-.551.55-.551h11.011c.345 0 .55.276.55.551v2.275c0 .276-.343.552-.55.552H7.295c-.344.138-.55-.138-.55-.552zm13.97 13.787V16.34c0-.276.344-.552.55-.552H31.45c.344 0 .55.345.55.551v2.275a.543.543 0 0 1-.55.552H21.332c-.275 0-.619-.414-.619-.552zm4.817-6.824V9.514c0-.276.276-.552.55-.552h5.369c.344 0 .55.345.55.552v2.275a.543.543 0 0 1-.55.551h-5.368c-.207-.069-.55-.275-.55-.551zm-4.817-6.963V2.551c0-.344.344-.551.55-.551H31.45c.344 0 .55.276.55.551v2.275c0 .276-.275.552-.55.552H21.332c-.275.138-.619-.138-.619-.552zm8.19 20.612v-2.275c0-.276.274-.551.55-.551h1.995c.345 0 .551.344.551.551v2.275a.543.543 0 0 1-.55.551h-1.996c-.207.07-.55-.206-.55-.551z"></path></g></svg>