<svg width="32" height="32" viewBox="0 0 32 32" xmlns="http://www.w3.org/2000/svg"><g class="nc-icon-wrapper" fill="#444444"><path d="M7.782 6.4A12.58 12.58 0 0 1 16 3.345c5.382 0 9.964 3.273 11.782 8.073l3.2-1.236C28.654 4.218 22.836 0 16.072 0 11.928 0 8.219 1.6 5.31 4.218L7.782 6.4zm20.727 8c.073.51.073 1.018.073 1.527 0 6.91-5.6 12.582-12.582 12.582-6.982 0-12.582-5.673-12.582-12.582 0-2.763.8-5.163 2.327-7.2L3.273 6.4C1.382 9.018 0 12.364 0 16c0 8.8 7.2 16 16 16s16-7.2 16-16c0-.945-.145-1.89-.29-2.91l-3.2 1.31z"></path></g></svg>