<svg width="32" height="32" viewBox="0 0 32 32" xmlns="http://www.w3.org/2000/svg"><g class="nc-icon-wrapper" fill="#444444"><path d="M28.395 32h-2.553a.6.6 0 0 1-.604-.599V20.025c0-.266.268-.599.604-.599h2.553c.27 0 .605.333.605.599V31.4c0 .333-.336.599-.605.599zm-7.524 0h-2.486c-.336 0-.672-.266-.672-.599v-3.725c0-.266.336-.6.672-.6h2.486c.336 0 .604.334.604.6V31.4c.068.333-.268.599-.604.599zm-7.256 0h-2.62c-.269 0-.605-.266-.605-.599v-8.449c0-.333.336-.665.605-.665h2.687c.269 0 .403.266.403.4v8.648c.135.399-.134.665-.47.665zm-7.457 0H3.605A.6.6 0 0 1 3 31.401v-3.659c0-.266.269-.599.605-.599h2.553c.268 0 .604.333.604.6V31.4c.067.333-.268.599-.604.599zm22.237-14.37h-2.553c-.335 0-.604-.333-.604-.599V5.588a.6.6 0 0 1 .604-.598h2.553c.27 0 .605.266.605.598v11.443c0 .266-.336.599-.605.599zm-7.524 7.65h-2.486c-.336 0-.672-.332-.672-.598V13.239c0-.333.336-.599.672-.599h2.486a.6.6 0 0 1 .604.6v11.442c.068.466-.268.599-.604.599zm-7.256-4.79h-2.553c-.269 0-.605-.265-.605-.598V8.516c0-.267.336-.6.605-.6h2.553c.336 0 .605.333.605.6v11.376c0 .4-.27.599-.605.599zm-7.457 4.79H3.605c-.336 0-.605-.332-.605-.598v-3.66c0-.265.269-.598.605-.598h2.553c.268 0 .604.333.604.599v3.659c.067.466-.268.599-.604.599zM28.395 3.26h-2.553c-.335 0-.604-.333-.604-.599V.6A.6.6 0 0 1 25.842 0h2.553c.27 0 .605.266.605.599V2.66c0 .266-.336.599-.605.599z"></path></g></svg>