<svg width="32" height="32" viewBox="0 0 32 32" xmlns="http://www.w3.org/2000/svg"><g class="nc-icon-wrapper" fill="#444444"><path d="M32 14.993c0 .224-.112.56-.336.671l-14.88 14.993c-.225.112-.56.224-.784.224-.224 0-.56-.112-.783-.224L.336 15.664C.112 15.552 0 15.217 0 14.993c0-.336.112-.56.336-.783l1.678-1.567c.112-.223.448-.335.671-.335.336 0 .56.112.784.335L16 25.175l12.532-12.532c.223-.223.447-.335.783-.335.223 0 .56.112.671.335l1.678 1.567c.224.224.336.447.336.783zm0-12.308c0 .336-.112.56-.336.784l-14.88 14.88c-.225.224-.56.336-.784.336-.224 0-.56-.112-.783-.335L.336 3.469C.112 3.245 0 3.02 0 2.685c0-.223.112-.56.336-.671L2.014.336C2.126.112 2.462 0 2.685 0c.336 0 .56.112.784.336L16 12.979 28.532.336c.223-.224.447-.336.783-.336.223 0 .56.112.671.336l1.678 1.678c.224.112.336.448.336.671z"></path></g></svg>