<svg width="32" height="32" viewBox="0 0 32 32" xmlns="http://www.w3.org/2000/svg"><g class="nc-icon-wrapper" fill="#444444"><path d="M18.75 15.944c0 .337-.111.561-.336.786L3.481 31.663c-.225.225-.45.337-.786.337-.225 0-.562-.112-.674-.337L.337 30.091C.112 29.867 0 29.642 0 29.305c0-.224.112-.561.337-.673l12.688-12.688L.337 3.368C.112 3.144 0 2.92 0 2.582c0-.224.112-.449.337-.673L2.02.337C2.133.112 2.471 0 2.695 0c.337 0 .561.112.786.337L18.414 15.27c.225.225.337.45.337.674zm12.24 0c0 .337-.113.561-.225.786L15.719 31.663c-.112.225-.449.337-.673.337-.337 0-.562-.112-.786-.337l-1.572-1.572c-.225-.224-.337-.449-.337-.786 0-.224.112-.561.337-.673l12.575-12.688L12.688 3.368c-.225-.224-.337-.449-.337-.786 0-.224.112-.449.337-.673L14.26.337c.224-.225.449-.337.786-.337.224 0 .561.112.673.337L30.765 15.27c.112.225.224.45.224.674z"></path></g></svg>