<svg width="32" height="32" viewBox="0 0 32 32" xmlns="http://www.w3.org/2000/svg"><g class="nc-icon-wrapper" fill="#444444"><path d="M29.8 14.4c0 10.733-6.851 10.3-7.722 10.3-.985 0-1.835-.214-2.552-.636-.716-.424-1.257-1.032-1.625-1.822-.573.801-1.24 1.403-2.003 1.804a5.24 5.24 0 0 1-2.484.602c-.835 0-1.584-.182-2.241-.55A4.608 4.608 0 0 1 9.53 22.54c-.435-.669-.745-1.479-.928-2.423-.182-.947-.217-2.003-.102-3.17.161-1.468.478-2.794.955-3.98.474-1.186 1.064-2.197 1.768-3.034.706-.835 1.507-1.48 2.405-1.934a6.286 6.286 0 0 1 2.862-.678c3.242 0 4.933 1.633 5.277 1.873l-.877 9.935c-.069.572-.325 2.801 1.805 2.801.562 0 3.904-.731 3.904-7.531 0-.213 1.467-11.2-10.52-11.2C6.234 3.2 4.2 12.634 4.2 16c0 13.42 8.5 12.8 11.2 12.8 3.234 0 4.885-.682 5.251-.853l.715 2.92c-.401.264-2 1.133-5.966 1.133C10.5 32 1 31.766 1 16 1 13.82 2.2 0 16.149 0 29.499 0 29.8 12.1 29.8 14.4zm-17.485 2.547c-.126 1.512.007 2.661.395 3.447.39.784 1.021 1.176 1.892 1.176 1.764 0 2.646-2.298 2.852-2.87l.722-8.13c-.206-.07-1.123-.224-1.374-.224-1.317 0-2.341.561-3.07 1.684-.726 1.125-1.2 2.764-1.417 4.917z"></path></g></svg>