<svg width="32" height="32" viewBox="0 0 32 32" xmlns="http://www.w3.org/2000/svg"><g class="nc-icon-wrapper" fill="#444444"><path d="M16 6C7.302 6 .616 14.723.326 15.152c-.435.571-.435 1.125 0 1.696C.616 17.277 7.302 26 16 26s15.384-8.723 15.674-9.152c.435-.571.435-1.125 0-1.696C31.384 14.723 24.698 6 16 6zm0 2.857c4.059 0 7.248 3.143 7.248 7.143s-3.19 7.143-7.248 7.143C11.941 23.143 8.752 20 8.752 16S11.942 8.857 16 8.857zm0 3.572c-2.002 0-3.624 1.599-3.624 3.571 0 1.972 1.623 3.571 3.624 3.571 2.002 0 3.624-1.599 3.624-3.571 0-1.972-1.622-3.571-3.624-3.571z"></path></g></svg>