<svg width="32" height="32" viewBox="0 0 32 32" xmlns="http://www.w3.org/2000/svg"><g class="nc-icon-wrapper" fill="#444444"><path d="M32 25.313c0 .437-.25.687-.688.687h-24c-.375 0-.625-.25-.625-.688v-2.625c0-.437.25-.687.625-.687h24c.438 0 .688.25.688.688v2.625zm-28 0c0 .437-.25.687-.688.687H.688C.25 26 0 25.75 0 25.312v-2.625C0 22.25.25 22 .688 22h2.625c.437 0 .687.25.687.688v2.625zm28-8c0 .437-.25.687-.688.687h-24c-.375 0-.625-.25-.625-.688v-2.625c0-.437.25-.687.625-.687h24c.438 0 .688.25.688.688v2.624zm-28 0c0 .437-.25.687-.688.687H.688C.25 18 0 17.75 0 17.312v-2.625C0 14.25.25 14 .688 14h2.625c.437 0 .687.25.687.688v2.624zm28-8c0 .437-.25.687-.688.687h-24c-.375 0-.625-.25-.625-.688V6.688c0-.438.25-.688.625-.688h24c.438 0 .688.25.688.688v2.625zm-28 0c0 .437-.25.687-.688.687H.688C.25 10 0 9.75 0 9.312V6.688C0 6.25.25 6 .688 6h2.625C3.75 6 4 6.25 4 6.688v2.625z"></path></g></svg>