<svg width="32" height="32" viewBox="0 0 32 32" xmlns="http://www.w3.org/2000/svg"><g class="nc-icon-wrapper" fill="#444444"><path d="M31.377 4.927H.685a.699.699 0 0 1-.685-.7V2.7c0-.382.311-.7.685-.7h30.692c.374 0 .623.318.623.7v1.527c0 .382-.249.7-.623.7zM.685 9H18.24c.374 0 .623.318.623.7v1.59c0 .383-.25.637-.623.637H.685c-.374 0-.685-.254-.685-.636V9.7c0-.382.311-.7.685-.7zm0 11.264h21.354c.373 0 .622.318.622.636v1.59c0 .383-.248.7-.622.7H.685a.699.699 0 0 1-.685-.7V20.9c0-.318.311-.636.685-.636zm0 6.809h14.568c.373 0 .623.318.623.7V29.3c0 .382-.25.7-.623.7H.685A.699.699 0 0 1 0 29.3v-1.527c0-.382.311-.7.685-.7z"></path></g></svg>