<svg width="32" height="32" viewBox="0 0 32 32" xmlns="http://www.w3.org/2000/svg"><g class="nc-icon-wrapper" fill="#444444"><g transform="translate(1313 -251)"><path d="M-1303.47 253.774c0 .227-.072.41-.214.55-.143.142-.381.212-.714.212h-2.547l-.333 1.933a5.77 5.77 0 0 1 1.146-.128c.486 0 .914.072 1.283.217a2.524 2.524 0 0 1 1.5 1.5c.129.345.193.715.193 1.112 0 .49-.087.938-.26 1.344a3.041 3.041 0 0 1-.72 1.04c-.307.288-.67.51-1.09.668-.421.158-.879.237-1.374.237-.29 0-.565-.03-.825-.09a4.095 4.095 0 0 1-1.888-.998l.486-.672a.478.478 0 0 1 .41-.217c.106 0 .214.034.323.102.109.068.236.143.38.224.146.081.314.156.506.224s.425.102.698.102c.29 0 .546-.047.768-.14.222-.094.406-.225.554-.394.147-.169.258-.37.332-.602.075-.232.112-.485.112-.758 0-.503-.146-.897-.438-1.18-.292-.285-.722-.426-1.29-.426a3.98 3.98 0 0 0-1.35.243l-.986-.282.768-4.493h4.57v.672zm8.198 3.956c0 .806-.086 1.507-.259 2.102-.173.595-.412 1.087-.717 1.475a2.899 2.899 0 0 1-1.081.867c-.416.19-.865.285-1.347.285-.483 0-.93-.095-1.341-.285a2.886 2.886 0 0 1-1.072-.867c-.303-.388-.54-.88-.71-1.475-.171-.595-.257-1.296-.257-2.102 0-.811.086-1.513.256-2.106.171-.593.408-1.084.71-1.472.304-.388.661-.677 1.073-.867.411-.19.858-.285 1.34-.285.483 0 .932.095 1.348.285.416.19.776.479 1.081.867.305.388.544.879.717 1.472.173.593.26 1.295.26 2.106zm-1.632 0c0-.67-.049-1.225-.147-1.664-.098-.44-.23-.79-.394-1.05s-.353-.443-.566-.547a1.462 1.462 0 0 0-1.322 0c-.21.104-.397.287-.56.547-.162.26-.29.61-.387 1.05-.096.44-.144.994-.144 1.664 0 .67.048 1.224.144 1.664.096.44.225.789.387 1.05.163.26.35.442.56.546a1.462 1.462 0 0 0 1.322 0c.213-.104.402-.287.566-.547.165-.26.296-.61.394-1.05.098-.439.147-.994.147-1.663zm6.618-2.388c0 .35-.059.666-.176.948a2.228 2.228 0 0 1-.47.72 2.123 2.123 0 0 1-1.498.618c-.307 0-.591-.054-.851-.16a1.943 1.943 0 0 1-.675-.458 2.105 2.105 0 0 1-.445-.72 2.656 2.656 0 0 1-.16-.948c0-.358.053-.682.16-.972.106-.29.255-.536.445-.736.19-.2.414-.356.675-.464.26-.11.544-.164.85-.164.308 0 .593.055.855.164a1.985 1.985 0 0 1 1.13 1.2c.107.29.16.614.16.972zm-1.222 0c0-.247-.024-.454-.07-.62a1.11 1.11 0 0 0-.196-.404.717.717 0 0 0-.295-.22.973.973 0 0 0-.361-.068.948.948 0 0 0-.358.068.7.7 0 0 0-.289.22 1.107 1.107 0 0 0-.188.404 2.43 2.43 0 0 0-.067.62c0 .24.022.439.067.599.045.16.107.289.189.387a.693.693 0 0 0 .287.211.99.99 0 0 0 .359.064c.128 0 .248-.021.362-.064a.712.712 0 0 0 .294-.211c.083-.098.148-.227.195-.387.047-.16.07-.36.07-.599zm4.3-1.99a.84.84 0 0 1 .192-.173.572.572 0 0 1 .32-.077h1.146l-6.874 9.018a.568.568 0 0 1-.48.237h-1.177l6.873-9.005zm2.144 6.829c0 .35-.058.665-.176.947a2.228 2.228 0 0 1-.47.72 2.084 2.084 0 0 1-.685.46c-.26.11-.531.164-.813.164-.307 0-.59-.054-.85-.163a1.98 1.98 0 0 1-.676-.461 2.105 2.105 0 0 1-.445-.72 2.656 2.656 0 0 1-.16-.947c0-.359.053-.683.16-.973.107-.29.255-.535.445-.736.19-.2.415-.355.675-.464.26-.109.544-.163.851-.163.308 0 .592.054.855.163a1.985 1.985 0 0 1 1.13 1.2c.106.29.16.614.16.973zm-1.216 0c0-.248-.024-.455-.073-.621a1.15 1.15 0 0 0-.199-.403.717.717 0 0 0-.294-.221.973.973 0 0 0-.362-.067.948.948 0 0 0-.358.067.677.677 0 0 0-.285.22 1.181 1.181 0 0 0-.189.404c-.047.166-.07.373-.07.62 0 .24.023.44.07.602.047.163.11.293.19.39a.67.67 0 0 0 .284.212.99.99 0 0 0 .358.064c.128 0 .249-.021.362-.064a.712.712 0 0 0 .294-.211c.083-.098.15-.228.199-.39.049-.163.073-.363.073-.602z"></path><path d="M-1296.2 265.556h-1.6v4.8h1.6v-4.8z"></path><path d="M-1296.2 276.757h-1.6v4.8h1.6v-4.8z"></path><path d="M-1281 271.957h-32v3.2h32v-3.2z"></path></g></g></svg>