<svg width="32" height="32" viewBox="0 0 32 32" xmlns="http://www.w3.org/2000/svg"><g class="nc-icon-wrapper" fill="#444444"><path d="M16.742 14.044c-4.035-1.048-5.333-2.133-5.333-3.822 0-1.938 1.795-3.289 4.8-3.289 3.164 0 4.338 1.511 4.444 3.734h3.93c-.125-3.058-1.992-5.867-5.707-6.774V0h-5.334v3.84c-3.449.747-6.222 2.987-6.222 6.418 0 4.106 3.396 6.15 8.356 7.342 4.444 1.067 5.333 2.631 5.333 4.284 0 1.227-.871 3.183-4.8 3.183-3.662 0-5.102-1.636-5.298-3.734H7c.213 3.894 3.129 6.08 6.542 6.81V32h5.334v-3.822c3.466-.658 6.222-2.667 6.222-6.311 0-5.05-4.32-6.774-8.356-7.823z"></path></g></svg>