<svg width="32" height="32" viewBox="0 0 32 32" xmlns="http://www.w3.org/2000/svg"><g class="nc-icon-wrapper" fill="#444444"><g transform="translate(107 709)"><path d="M-82.81-706.538H-99V-709h16.19v2.462z"/><path d="M-92.136-696.623v4.906h2.462v-4.906h-2.462z"/><path fill-rule="evenodd" d="M-93.218-677h4.626c3.238 0 5.782-2.698 5.782-6.132v-14.719c0-3.434-2.544-6.132-5.782-6.132h-4.626c-3.238 0-5.782 2.698-5.782 6.132v14.719c0 3.434 2.544 6.132 5.782 6.132zm0-2.462h4.626c1.744 0 3.32-1.458 3.32-3.67v-14.719c0-2.212-1.576-3.67-3.32-3.67h-4.626c-1.744 0-3.32 1.458-3.32 3.67v14.719c0 2.212 1.576 3.67 3.32 3.67z"/></g></g></svg>