<svg width="32" height="32" viewBox="0 0 32 32" xmlns="http://www.w3.org/2000/svg"><g class="nc-icon-wrapper" fill="#444444"><path d="M16 0C7.171 0 0 7.03 0 15.686c0 5.007 2.408 9.46 6.14 12.334.183.14.371.279.56.411.054.04.105.08.16.118.08.055.16.104.24.157.17.114.342.225.52.333.041.025.079.054.12.079.074.044.145.094.22.137.135.077.282.142.42.216.224.12.448.241.68.352.236.114.476.211.72.314 2 .845 4.25 1.353 6.58 1.353 1.215 0 2.457-.241 3.64-.608a16.083 16.083 0 0 0 6.4-3.294c.076-.058.134-.101.2-.157.04-.034.081-.063.12-.098.015-.013.026-.026.04-.039.077-.069.144-.145.22-.216 3.088-2.86 5.02-6.903 5.02-11.392C32 7.03 24.829 0 16 0zm0 1.255c8.137 0 14.72 6.454 14.72 14.431 0 3.96-1.612 7.551-4.24 10.157-1.246-.923-2.735-1.423-4-1.921-1.387-.547-2.374-1.084-2.68-1.804-.068-.817-.064-1.461-.06-2.236.083-.088.202-.15.28-.255.175-.236.344-.528.5-.843.273-.55.47-1.208.58-1.862.201-.102.415-.127.58-.334.309-.386.526-.934.62-1.706.084-.686-.15-1.14-.44-1.49.313-.995.712-2.604.58-4.255-.072-.9-.308-1.8-.86-2.549-.506-.685-1.325-1.186-2.36-1.392-.672-.854-1.883-1.176-3.28-1.176h-.02c-2.99.054-4.899 1.239-5.72 3.078-.782 1.752-.607 3.966-.04 6.255-.305.35-.546.82-.46 1.53.095.77.311 1.32.62 1.705.17.212.393.232.6.334.113.656.3 1.314.58 1.862.161.315.341.608.52.844.08.104.196.166.28.254.004.774.008 1.42-.06 2.236-.305.716-1.294 1.24-2.68 1.784-1.277.501-2.783 1.01-4.04 1.941a14.255 14.255 0 0 1-4.24-10.157C1.28 7.71 7.863 1.255 16 1.255zm-.06 4.02h.02c1.289.004 2.122.375 2.36.784l.16.255.3.039c.89.121 1.4.473 1.76.96.36.489.56 1.17.62 1.922.12 1.506-.322 3.258-.6 4.079l-.16.49.44.255c-.028-.017.244.165.18.686-.075.616-.225.935-.34 1.079-.115.143-.175.136-.18.137l-.54.039-.06.51c-.06.543-.282 1.205-.54 1.725-.129.26-.263.489-.38.647-.117.159-.241.248-.18.216l-.34.177v.372c0 .908-.037 1.654.06 2.706v.078l.04.079c.527 1.391 1.983 1.995 3.44 2.568 1.196.471 2.402.971 3.4 1.628-.21.165-.287.262-.6.47-.632.422-1.459.916-2.38 1.373-.898.445-1.888.852-2.9 1.157-.026.008-.054.012-.08.02a15.037 15.037 0 0 1-3.44.392c-1.402 0-2.756-.191-4.04-.55-2.056-.623-3.913-1.639-5.34-2.862 1.005-.656 2.22-1.156 3.42-1.628 1.457-.572 2.914-1.18 3.44-2.568l.02-.079.02-.078c.097-1.052.06-1.797.06-2.706v-.372l-.34-.177c.058.03-.08-.056-.2-.216a4.51 4.51 0 0 1-.4-.647c-.266-.52-.482-1.188-.54-1.725l-.06-.51-.54-.04c-.005 0-.065.007-.18-.137-.115-.143-.264-.462-.34-1.078-.064-.521.208-.703.18-.686l.42-.255-.12-.451c-.603-2.274-.707-4.34-.08-5.745.625-1.4 1.899-2.28 4.56-2.333z"></path></g></svg>