<svg width="32" height="32" viewBox="0 0 32 32" xmlns="http://www.w3.org/2000/svg"><g class="nc-icon-wrapper" fill="#444444"><path d="M17.27 1.642h4.487v9.312H17.27V1.642zm14.391.93l-2.2-2.2c-.17-.254-.509-.339-.763-.339H24.72c-.085 0-.254 0-.339.085-.085.17-.17.254-.17.338v11.006c0 .592-.423 1.016-1.015 1.016h-14.9c-.592-.085-1.016-.508-1.016-1.016V.456C7.196.372 7.196.287 7.111.203c-.17-.17-.339-.254-.508-.17H1.016C.423.033 0 .456 0 1.05v29.799c0 .593.423 1.016 1.016 1.016h3.301V17.557c0-.423.34-.846.762-.931h21.672a.94.94 0 0 1 .931.931v14.307h3.302c.593 0 1.016-.423 1.016-1.016V3.335c0-.254-.085-.508-.339-.762z"></path></g></svg>