<svg width="32" height="32" viewBox="0 0 32 32" xmlns="http://www.w3.org/2000/svg"><g class="nc-icon-wrapper" fill="#444444"><path d="M.786 3C.357 3 0 3.347 0 3.764v18.472c0 .417.357.764.786.764h30.428c.429 0 .786-.347.786-.764V3.764c0-.417-.357-.764-.786-.764H.786zm1.5 17.778V5.222h27.428v15.556H2.286zm10.428 8.889h6.572c2 0 3-.209 2.143-.834-.858-.625-2.143-1.11-2.143-1.597 0-.278-.072-3.125-.072-3.125h-6.428s-.072 2.847-.072 3.125c0 .486-1.285.972-2.143 1.597-.857.625.143.834 2.143.834z"></path></g></svg>