<svg width="32" height="32" viewBox="0 0 32 32" xmlns="http://www.w3.org/2000/svg"><g class="nc-icon-wrapper" fill="#444444"><path d="M31.875 19.286c.063.188.125.377.125.565 0 .188-.063.377-.125.565a1.368 1.368 0 0 1-.313.503l-5.937 5.902c-.25.314-.625.44-1 .44a1.46 1.46 0 0 1-1.063-.44 1.483 1.483 0 0 1 0-2.072l3.375-3.39H14.75c-.813 0-1.438-.692-1.438-1.508 0-.816.626-1.507 1.438-1.507h12.188l-3.375-3.391a1.483 1.483 0 0 1 0-2.072 1.466 1.466 0 0 1 2.062 0l5.938 5.902c.125.189.25.314.312.503zM17.25 13.948H5.062l3.375 3.391a1.483 1.483 0 0 1 0 2.072 1.46 1.46 0 0 1-1.062.44 1.46 1.46 0 0 1-1.063-.44L.438 13.51c-.124-.189-.25-.314-.312-.503C.062 12.818 0 12.63 0 12.441c0-.188.063-.377.125-.565.063-.188.188-.377.313-.502L6.313 5.47c.625-.628 1.562-.628 2.125 0a1.483 1.483 0 0 1 0 2.072l-3.376 3.391H17.25c.813 0 1.438.69 1.438 1.507s-.625 1.507-1.438 1.507z"></path></g></svg>