<svg width="32" height="32" viewBox="0 0 32 32" xmlns="http://www.w3.org/2000/svg"><g class="nc-icon-wrapper" fill="#111111"><path d="M28.394 32h-2.492a.599.599 0 0 1-.607-.596v-11.33c0-.265.27-.596.607-.596h2.492c.337 0 .606.331.606.596v11.263c0 .332-.27.663-.606.663zm-7.477 0h-2.56c-.269 0-.606-.265-.606-.596v-3.777c0-.265.337-.596.606-.596h2.56c.27 0 .606.331.606.596v3.777c.068.265-.336.596-.606.596zm-7.275 0h-2.626a.599.599 0 0 1-.607-.596V22.99c0-.332.27-.597.607-.597h2.694c.202 0 .404.2.404.332v8.612c.135.332-.202.663-.471.663zm-7.544 0H3.606A.599.599 0 0 1 3 31.404V27.76c0-.265.27-.596.606-.596h2.492c.337 0 .607.33.607.596v3.644c.067.265-.202.596-.607.596zm22.296-14.377h-2.492c-.337 0-.607-.331-.607-.596V5.63c0-.33.27-.596.607-.596h2.492c.337 0 .606.265.606.596v11.33c0 .265-.27.662-.606.662zm-7.477 7.685h-2.56c-.269 0-.606-.33-.606-.596V13.317c0-.332.337-.597.606-.597h2.56c.27 0 .606.265.606.597v11.329c.068.464-.336.662-.606.662zm-7.275-4.836h-2.56c-.269 0-.605-.265-.605-.596V8.546c0-.264.336-.596.606-.596h2.56c.269 0 .606.332.606.597v11.262c0 .53-.337.663-.607.663zm-7.544 4.836H3.606c-.337 0-.606-.33-.606-.596V13.714c0-.331.27-.596.606-.596h2.492c.337 0 .607.265.607.596v10.932c.067.464-.202.662-.607.662zm14.82-13.979h-2.56c-.27 0-.607-.265-.607-.596V.596c0-.331.337-.596.606-.596h2.56c.27 0 .606.265.606.596v10.137c.068.265-.336.596-.606.596zm-7.275-4.704h-2.56c-.27 0-.606-.331-.606-.596V.663c0-.332.336-.597.606-.597h2.56c.269 0 .606.265.606.597v5.366c0 .199-.337.596-.607.596zM6.098 11.33H3.606A.599.599 0 0 1 3 10.733V.596C3 .265 3.27 0 3.606 0h2.492c.337 0 .607.265.607.596V10.6c.067.398-.202.73-.607.73zm22.296-8.083h-2.492c-.337 0-.607-.33-.607-.662V.596c0-.331.27-.596.607-.596h2.492c.337 0 .606.265.606.596v1.988c0 .265-.27.662-.606.662z"></path></g></svg>