<svg width="32" height="32" viewBox="0 0 32 32" xmlns="http://www.w3.org/2000/svg"><g class="nc-icon-wrapper" fill="#444444"><path d="M30.706 5.936c1 1 1.357 2.215 1.285 3.143-.071.929-.428 2.786-2.285 4.643-1.858 1.858-5.5 3-8.072 1.715-.357-.214-.928-.357-1.5.214-.714.643-14.428 15.358-14.428 15.358-1.215 1.357-3.429 1.285-4.715 0-1.285-1.286-1.357-3.5 0-4.715 0 0 14.786-13.857 15.357-14.429.572-.571.358-1.143.215-1.571-1.429-3.358.143-6.358 1.714-8C19.848.578 21.92.078 22.92.007c.928-.072 2.214.357 3.143 1.285l-4.072 4 .715 4 3.928.715 4.072-4.072zm-26.5 23.43c.428-.429.428-1.215 0-1.643a1.121 1.121 0 0 0-1.572 0c-.428.428-.428 1.214 0 1.643a1.121 1.121 0 0 0 1.572 0z"></path></g></svg>