<?xml version="1.0" encoding="UTF-8"?>
<svg width="489px" height="489px" viewBox="0 0 489 489" version="1.1" xmlns="http://www.w3.org/2000/svg" xmlns:xlink="http://www.w3.org/1999/xlink">
    <!-- Generator: Sketch 42 (36781) - http://www.bohemiancoding.com/sketch -->
    <title>add-new-2</title>
    <desc>Created with Sketch.</desc>
    <defs></defs>
    <g id="Page-1" stroke="none" stroke-width="1" fill="none" fill-rule="evenodd">
        <g id="add-new-2" transform="translate(0.000000, -1.000000)" fill-rule="nonzero" fill="#000000">
            <g id="add-large" transform="translate(0.056604, 0.716981)">
                <path d="M244.358492,0.377358491 C109.668642,0.377358491 0.377358491,109.668642 0.377358491,244.358492 C0.377358491,379.048342 109.668642,488.33962 244.358492,488.33962 C379.048342,488.33962 488.33962,379.048342 488.33962,244.358492 C488.33962,109.668642 379.048342,0.377358491 244.358492,0.377358491 Z M244.358492,10.0377358 C373.827478,10.0377358 478.679243,114.889496 478.679243,244.358492 C478.679243,373.827478 373.827478,478.679243 244.358492,478.679243 C114.889496,478.679243 10.0377358,373.827478 10.0377358,244.358492 C10.0377358,114.889496 114.889496,10.0377358 244.358492,10.0377358 Z" id="Oval"></path>
                <path d="M243.094344,109.018866 C241.813288,109.038852 240.592643,109.566934 239.700954,110.486931 C238.809264,111.406928 238.319577,112.643475 238.339623,113.924531 L238.339623,374.81132 C238.314987,376.553259 239.23019,378.173524 240.734782,379.051683 C242.239374,379.929842 244.100249,379.929842 245.604841,379.051683 C247.109433,378.173524 248.024635,376.553259 248,374.81132 L248,113.924531 C248.020456,112.617305 247.510184,111.357611 246.585724,110.433149 C245.661263,109.508687 244.40157,108.998412 243.094344,109.018866 L243.094344,109.018866 Z" id="Shape"></path>
                <path d="M113.924531,238.339623 C112.182591,238.314987 110.562326,239.23019 109.684167,240.734782 C108.806008,242.239374 108.806008,244.100249 109.684167,245.604841 C110.562326,247.109433 112.182591,248.024635 113.924531,248 L374.81132,248 C376.553259,248.024635 378.173524,247.109433 379.051683,245.604841 C379.929842,244.100249 379.929842,242.239374 379.051683,240.734782 C378.173524,239.23019 376.553259,238.314987 374.81132,238.339623 L113.924531,238.339623 Z" id="path20"></path>
            </g>
        </g>
    </g>
</svg>