<?xml version="1.0" encoding="UTF-8"?>
<svg width="65px" height="65px" viewBox="0 0 65 65" version="1.1" xmlns="http://www.w3.org/2000/svg" xmlns:xlink="http://www.w3.org/1999/xlink">
    <defs></defs>
    <g id="Page-1" stroke="none" stroke-width="1" fill="none" fill-rule="evenodd">
        <g id="Applications-2-&gt;-List" transform="translate(-232.000000, -212.000000)" fill-rule="nonzero" fill="#72809B">
            <g id="APPS-layout" transform="translate(123.000000, 143.000000)">
                <g id="app-block">
                    <g id="playbook" transform="translate(0.070312, 0.296875)">
                        <g id="add-circle-1" transform="translate(103.268880, 63.042318)">
                            <g id="Group">
                                <g id="Line_Icons" transform="translate(6.411501, 6.411501)">
                                    <g id="add-circle">
                                        <path d="M32.0575029,0.00320575029 C14.3809958,0.00320575029 0,14.3842015 0,32.0607086 C0,49.7372157 14.3809958,64.1182115 32.0575029,64.1182115 C49.73401,64.1182115 64.1150058,49.7372157 64.1150058,32.0607086 C64.1150058,14.3842015 49.73401,0.00320575029 32.0575029,0.00320575029 Z M32.0575029,57.7067109 C17.9169384,57.7067109 6.41150058,46.2012731 6.41150058,32.0607086 C6.41150058,17.9201441 17.9169384,6.41470633 32.0575029,6.41470633 C46.1980674,6.41470633 57.7035052,17.9201441 57.7035052,32.0607086 C57.7035052,46.2012731 46.1980674,57.7067109 32.0575029,57.7067109 Z" id="Shape"></path>
                                        <polygon id="Shape" points="35.2632532 16.0319572 28.8517526 16.0319572 28.8517526 28.8549583 16.0287514 28.8549583 16.0287514 35.2664589 28.8517526 35.2664589 28.8517526 48.0894601 35.2632532 48.0894601 35.2632532 35.2664589 48.0862543 35.2664589 48.0862543 28.8549583 35.2632532 28.8549583"></polygon>
                                    </g>
                                </g>
                            </g>
                        </g>
                    </g>
                </g>
            </g>
        </g>
    </g>
</svg>