<?xml version="1.0" encoding="UTF-8"?>
<svg width="489px" height="489px" viewBox="0 0 489 489" version="1.1" xmlns="http://www.w3.org/2000/svg" xmlns:xlink="http://www.w3.org/1999/xlink">
    <defs></defs>
    <g id="Page-1" stroke="none" stroke-width="1" fill="none" fill-rule="evenodd">
        <g id="add-new-circle-filled" fill-rule="nonzero" fill="#000000">
            <path d="M248.056604,238.056604 L248.056604,113.641512 C248.07706,112.334286 247.566788,111.074592 246.642328,110.15013 C245.717867,109.225668 244.458174,108.715393 243.150948,108.735847 C241.869892,108.755833 240.649247,109.283915 239.757558,110.203912 C238.865868,111.123909 238.376181,112.360456 238.396227,113.641512 L238.396227,238.056604 L113.981135,238.056604 C112.239195,238.031968 110.61893,238.947171 109.740771,240.451763 C108.862612,241.956355 108.862612,243.81723 109.740771,245.321822 C110.61893,246.826414 112.239195,247.741616 113.981135,247.716981 L238.396227,247.716981 L238.396227,374.528301 C238.371591,376.27024 239.286794,377.890505 240.791386,378.768664 C242.295978,379.646823 244.156853,379.646823 245.661445,378.768664 C247.166037,377.890505 248.081239,376.27024 248.056604,374.528301 L248.056604,247.716981 L374.867924,247.716981 C376.609863,247.741616 378.230128,246.826414 379.108287,245.321822 C379.986446,243.81723 379.986446,241.956355 379.108287,240.451763 C378.230128,238.947171 376.609863,238.031968 374.867924,238.056604 L248.056604,238.056604 Z M244.415096,0.094339491 C379.104946,0.094339491 488.396224,109.385623 488.396224,244.075473 C488.396224,378.765323 379.104946,488.056601 244.415096,488.056601 C109.725246,488.056601 0.433962491,378.765323 0.433962491,244.075473 C0.433962491,109.385623 109.725246,0.094339491 244.415096,0.094339491 Z" id="Combined-Shape"></path>
        </g>
    </g>
</svg>