<svg fill="#000000" height="512" width="512" id="icon-bug" viewBox="0 0 512 512">
  <path d="m217 489c22-32 30-77 39-137c9 60 17 105 39 137c-15 4-23 7-39 7c-16 0-24-2-39-7z m239-41l24 32l32 24l-16 8l-48-32l-32-32l-10-20c-22 32-52 57-86 71c-9-12-17-27-24-45c-20-53-32-123-32-198l0-160c39 2 74 9 104 34c-32-30-70-50-112-50c-42 0-80 20-112 50c30-25 65-32 104-34l0 160c0 75-12 145-32 198c-7 18-15 34-23 46c-34-14-65-40-87-72l-10 20l-32 32l-48 32l-16-8l32-24l24-32l8-152c1-27 6-52 14-75l-14 3l-32 32l-16 32l-16 0l32-80l88-63l-24-81l-32-32l-32-16l0-16l64 24l47 44c21-40 64-68 113-68c49 0 92 28 113 68l47-44l64-24l0 16l-32 16l-32 32l-24 81l88 63l32 80l-16 0l-16-32l-32-32l-14-3c8 23 13 48 14 75z"/>
</svg>