<svg fill="#000000" height="512" width="512" id="icon-chart-pie-grid" viewBox="0 0 512 512">
  <path d="m96 96c11-11 27-17 45-17 30 0 55 18 65 44l17-7c-13-33-44-56-82-56-23 0-43 9-59 23z m112 44c0 3 0 6 0 9 0 39-32 68-68 68-39 0-68-32-68-68 0-16 4-28 12-40l-15-12c-10 15-17 33-17 53 0 49 40 89 89 89 49 0 89-40 89-89 0-6 0-10-1-16z m-134 245c-6-16-5-32 1-49 11-28 39-44 66-44l0-18c-34-1-68 21-83 55-9 21-9 43-1 62z m84-88c4 0 6 1 7 3 35 15 51 56 38 90-15 36-56 51-90 38-15-6-24-15-32-28l-17 10c9 16 22 28 42 37 44 18 95-3 116-48 18-44-4-95-48-116-4-1-10-3-15-4z m220-220c16 2 32 7 44 21 22 21 26 51 15 77l17 7c15-32 9-72-18-98-16-16-38-24-59-26z m50 113c-1 3-4 5-6 6-27 27-70 27-98 0-27-28-27-71 0-98 11-10 23-17 38-18l-1-19c-17 4-36 11-50 24-35 34-35 90 0 125 34 35 89 35 125 0 3-3 7-9 10-11z m-10 226c-12 11-28 17-46 17-30 0-55-18-65-44l-17 7c13 33 45 56 82 56 23 0 43-9 59-23z m-114-44c0-3 0-6 0-9 0-39 32-68 68-68 39 0 68 32 68 68 0 16-4 28-12 40l15 12c10-15 17-33 17-53 0-49-40-89-89-89-49 0-89 40-89 89 0 6 0 10 1 16z"/>
</svg>