<svg fill="#000000" height="512" width="512" id="icon-chart-bubble" viewBox="0 0 512 512">
  <path d="m164 122c0 40-33 73-73 73-40 0-73-33-73-73 0-40 33-73 73-73 40 0 73 33 73 73z m124 276c0-4 1-9 3-13-36-25-60-68-60-115 0-72 52-130 122-141-37-38-86-61-143-61-14 0-29 1-44 5 9 13 14 29 14 48 0 49-41 89-90 89-24 0-44-9-62-23-10 23-15 51-15 79 0 109 88 198 197 198 37 0 69-9 99-27-13-9-21-24-21-39z m85-257c-70 0-127 57-127 128 0 43 20 80 53 104 8-9 20-13 32-13 21 0 39 15 42 37 71 0 128-57 128-127 0-71-57-129-128-129z m-5 261c0 20-17 36-37 36-20 0-36-16-36-36 0-20 16-37 36-37 20 0 37 17 37 37z"/>
</svg>