<?xml version="1.0" encoding="UTF-8"?>
<svg width="12px" height="12px" viewBox="0 0 12 12" version="1.1" xmlns="http://www.w3.org/2000/svg" xmlns:xlink="http://www.w3.org/1999/xlink">
    <g id="Page-1" stroke="none" stroke-width="1" fill="none" fill-rule="evenodd">
        <g id="InVision" transform="translate(-74.000000, -158.000000)" fill-rule="nonzero" fill="#72809B">
            <g id="edit-icons" transform="translate(48.000000, 119.000000)">
                <g id="settings" transform="translate(26.000000, 39.000000)">
                    <path d="M10.5752968,6.6 C10.5752968,6.42 10.6369985,6.18 10.6369985,6 C10.6369985,5.82 10.6369985,5.58 10.5752968,5.4 L11.8710329,4.5 C11.9944364,4.44 12.0561381,4.26 11.9327346,4.08 L10.6987003,1.98 C10.6369985,1.8 10.4518934,1.74 10.3284899,1.8 L8.84764869,2.46 C8.5391401,2.22 8.10722807,1.98 7.73701775,1.86 L7.55191259,0.3 C7.55191259,0.12 7.42850916,0 7.243404,0 L4.77533524,0 C4.59023009,0 4.46682665,0.12 4.46682665,0.3 L4.28172149,1.8 C3.84980946,1.98 3.47959914,2.16 3.17109055,2.4 L1.69024929,1.8 C1.56684586,1.74 1.3817407,1.8 1.32003898,1.92 L0.0860046016,4.02 C-0.0373988363,4.2 -0.0373988363,4.38 0.147706321,4.44 L1.44344242,5.4 C1.44344242,5.58 1.3817407,5.82 1.3817407,6 C1.3817407,6.18 1.3817407,6.42 1.44344242,6.6 L0.147706321,7.5 C0.0243028826,7.56 -0.0373988363,7.74 0.0860046016,7.92 L1.32003898,10.02 C1.3817407,10.2 1.56684586,10.26 1.69024929,10.2 L3.17109055,9.54 C3.47959914,9.78 3.91151118,10.02 4.28172149,10.14 L4.46682665,11.7 C4.46682665,11.88 4.59023009,12 4.77533524,12 L7.243404,12 C7.42850916,12 7.55191259,11.88 7.55191259,11.7 L7.73701775,10.14 C8.16892978,9.96 8.5391401,9.78 8.84764869,9.54 L10.3284899,10.2 C10.4518934,10.26 10.6369985,10.2 10.6987003,10.08 L11.9327346,7.98 C11.9944364,7.86 11.9944364,7.68 11.8710329,7.56 L10.5752968,6.6 Z M6.00936962,8.4 C4.6519318,8.4 3.54130086,7.32 3.54130086,6 C3.54130086,4.68 4.6519318,3.6 6.00936962,3.6 C7.36680744,3.6 8.47743838,4.68 8.47743838,6 C8.47743838,7.32 7.36680744,8.4 6.00936962,8.4 Z" id="Shape"></path>
                </g>
            </g>
        </g>
    </g>
</svg>