<svg fill="#000000" height="512" width="512" id="icon-database" viewBox="0 0 512 512">
  <path d="m256 480c-106 0-192-29-192-64 0-19 0-40 0-64 0-6 3-11 7-16 21 28 96 48 185 48 89 0 164-20 185-48 4 5 7 10 7 16 0 19 0 38 0 64 0 35-86 64-192 64z m0-128c-106 0-192-29-192-64 0-19 0-40 0-64 0-3 1-7 3-10 1-2 2-4 4-6 21 28 96 48 185 48 89 0 164-20 185-48 2 2 3 4 4 6 2 3 3 7 3 10 0 19 0 38 0 64 0 35-86 64-192 64z m0-128c-106 0-192-29-192-64 0-10 0-21 0-32 0-10 0-21 0-32 0-35 86-64 192-64 106 0 192 29 192 64 0 10 0 21 0 32 0 10 0 20 0 32 0 35-86 64-192 64z m0-160c-71 0-128 14-128 32 0 18 57 32 128 32 71 0 128-14 128-32 0-18-57-32-128-32z"/>
</svg>