<svg xmlns="http://www.w3.org/2000/svg" viewBox="0 0 24 24" enable-background="new 0 0 24 24" width="24" height="24">
    <path d="M 12 2 C 8.4 2 5.10625 4 3.40625 7 L 5.8125 7 C 6.7125 5.9 7.8875 5 9.1875 4.5 C 8.8875 5.2 8.7 6.1 8.5 7 L 10.59375 7 C 10.99375 5 11.7 4 12 4 C 12.3 4 13 5 13.5 7 L 15.59375 7 C 15.39375 6.1 15.2125 5.2 14.8125 4.5 C 16.1125 5 17.2875 5.9 18.1875 7 L 20.59375 7 C 18.89375 4 15.6 2 12 2 z M 0 9 L 1.3125 15 L 2.6875 15 L 3.59375 11.5 L 4.40625 15 L 5.6875 15 L 7 9 L 5.59375 9 L 5 12.8125 L 4.09375 9 L 2.90625 9 L 2.09375 12.8125 L 1.40625 9 L 0 9 z M 8.5 9 L 9.6875 15 L 11.1875 15 L 12 11.5 L 12.8125 15 L 14.1875 15 L 15.5 9 L 14.09375 9 L 13.40625 12.8125 L 12.59375 9 L 11.40625 9 L 10.59375 12.8125 L 9.90625 9 L 8.5 9 z M 17 9 L 18.3125 15 L 19.6875 15 L 20.5 11.5 L 21.3125 15 L 22.6875 15 L 24 9 L 22.59375 9 L 21.90625 12.8125 L 21.09375 9 L 19.90625 9 L 19.09375 12.8125 L 18.40625 9 L 17 9 z M 3.40625 17 C 5.10625 20 8.4 22 12 22 C 15.6 22 18.89375 20 20.59375 17 L 18.1875 17 C 17.2875 18.1 16.1125 19 14.8125 19.5 C 15.1125 18.8 15.39375 17.9 15.59375 17 L 13.5 17 C 13 19 12.4 20 12 20 C 11.6 20 11 19 10.5 17 L 8.5 17 C 8.7 17.9 8.9125 18.8 9.3125 19.5 C 7.9125 19 6.7125 18.1 5.8125 17 L 3.40625 17 z"/>
</svg>