<svg xmlns="http://www.w3.org/2000/svg" width="20" height="20" viewBox="0 0 20 20">
  <g>
    <polygon points="15 10 16.428 13.572 20 13.572 16.91 16.18 18.571 20 15 17.638 11.428 20 13.09 16.18 10 13.572 13.571 13.572"/>
    <path d="M9.16667,15 L1.66667,15 L1.66667,6.66667 L14.9992,6.66667 L14.9992,9.16667 L16.6667,9.16667 L16.6667,4.16667 C16.6667,3.24833 15.9192,2.5 15,2.5 L14.1667,2.5 L14.1667,0 L12.5,0 L12.5,4.16667 L11.6667,4.16667 L11.6667,2.5 L5.83333,2.5 L5.83333,0 L4.16667,0 L4.16667,4.16667 L3.33333,4.16667 L3.33333,2.5 L1.66667,2.5 C0.7475,2.5 0,3.2475 0,4.16667 L0,15 C0,15.9192 0.7475,16.6667 1.66667,16.6667 L9.16667,16.6667 L9.16667,15 Z"/>
  </g>
</svg>
