<svg width="20" height="20" viewBox="0 0 20 20" version="1.1" xmlns="http://www.w3.org/2000/svg" xmlns:xlink="http://www.w3.org/1999/xlink">
<title>field-json</title>
<desc>Created using Figma</desc>
<g id="Canvas" transform="translate(-6844 9114)">
<g id="field-json">
<g id="Shape">
<use xlink:href="#path0_fill" transform="translate(6844 -9114)" fill="#FFFFFF"/>
</g>
</g>
</g>
<defs>
<path id="path0_fill" fill-rule="evenodd" d="M 2.59375 0.59375C 2.89355 0.193359 3.5 0 4 0L 16 0C 16.5 0 17.1064 0.193359 17.4062 0.59375C 17.6558 0.780273 17.8252 1.08691 17.917 1.41211C 17.9727 1.6084 18 1.81152 18 2L 18 6C 19.1001 6 20 6.90039 20 8L 20 13C 20 14.0996 19.1001 15 18 15L 18 18C 18 18.2441 17.9541 18.4883 17.8604 18.7217C 17.8369 18.7803 17.8105 18.8389 17.7808 18.8955C 17.687 19.0771 17.5625 19.25 17.4062 19.4062C 17.1064 19.8066 16.5 20 16 20L 4 20C 3.5 20 2.89355 19.8066 2.59375 19.4062C 2.19385 19.1064 2 18.5 2 18L 2 15C 0.899902 15 0 14.0996 0 13L 0 8C 0 6.90039 0.899902 6 2 6L 2 2C 2 1.5 2.19385 0.893555 2.59375 0.59375ZM 16 2L 4 2L 4 6L 16 6L 16 2ZM 3.6875 8L 4.6875 8L 4.6875 11.4062L 4.6875 12.0938C 4.6875 12.1357 4.68848 12.1797 4.68262 12.2236C 4.67432 12.2852 4.65234 12.3486 4.59375 12.4062C 4.55859 12.4766 4.51172 12.5352 4.45654 12.5859C 4.354 12.6797 4.22412 12.748 4.09375 12.8125C 3.90479 13.001 3.64404 13.001 3.36328 13L 3.3125 13C 2.9126 13 2.5127 12.8877 2.3125 12.6875C 2.1123 12.4873 2 12.2129 2 11.8125L 2 11.3125L 2.90625 11.3125L 2.90625 11.9062C 2.90625 11.9521 2.90479 11.9941 2.91309 12.0361C 2.92285 12.085 2.9458 12.1338 3 12.1875C 3.1001 12.2871 3.1123 12.3125 3.3125 12.3125C 3.4126 12.3125 3.49365 12.2871 3.59375 12.1875C 3.59375 12.0879 3.6875 11.9873 3.6875 11.6875L 3.6875 11.5L 3.6875 8ZM 7.70508 8.02637L 7.64014 8.01758C 7.53662 8.00586 7.42773 8 7.3125 8C 6.9126 8 6.4873 8.10645 6.1875 8.40625C 5.8877 8.60645 5.8125 8.91211 5.8125 9.3125C 5.8125 9.6123 5.8999 9.7998 6 10C 6.05469 10.0547 6.17188 10.168 6.34863 10.292C 6.41748 10.3398 6.49512 10.3896 6.58154 10.4385C 6.64014 10.4717 6.70312 10.5039 6.77002 10.5352C 6.81348 10.5557 6.85889 10.5752 6.90625 10.5938L 7.40625 10.9062C 7.68799 11.0947 7.79346 11.1992 7.88818 11.2949L 7.90625 11.3125C 8.00635 11.4121 8 11.5879 8 11.6875C 8 11.8877 7.9126 11.9873 7.8125 12.1875C 7.7124 12.2871 7.5127 12.3125 7.3125 12.3125C 7.12451 12.3125 7.01953 12.207 6.92383 12.1113L 6.90625 12.0938C 6.81201 12 6.81201 11.8213 6.8125 11.5508L 6.8125 11.5L 6.8125 11.1875L 5.8125 11.1875L 5.8125 11.5C 5.8125 12 5.8877 12.3936 6.1875 12.5938C 6.3877 12.8936 6.90625 13 7.40625 13C 7.72656 13 8.00098 12.915 8.23584 12.8018C 8.36719 12.7383 8.48633 12.666 8.59375 12.5938C 8.89355 12.3936 9 11.9941 9 11.5938C 9 11.4385 8.97656 11.2891 8.94043 11.1523C 8.90625 11.0244 8.86084 10.9092 8.8125 10.8125C 8.7124 10.5127 8.3999 10.2939 8 10.0938L 7.40625 9.8125C 7.25439 9.69824 7.13232 9.59668 7.03906 9.50293C 6.94434 9.40723 6.87939 9.32031 6.84424 9.23828C 6.82275 9.18848 6.8125 9.14062 6.8125 9.09375C 6.8125 8.99414 6.80615 8.91211 6.90625 8.8125C 6.96143 8.75781 7.01855 8.72559 7.09229 8.70703C 7.15234 8.69238 7.22314 8.6875 7.3125 8.6875C 7.46338 8.6875 7.61377 8.69824 7.72168 8.78906C 7.75684 8.81836 7.7876 8.85645 7.8125 8.90625C 7.90674 9.09473 7.90674 9.18848 7.90625 9.44922L 7.90625 9.5L 7.90625 9.59375L 8.90625 9.59375L 8.90625 9.5L 8.90625 9.40625C 8.90625 9.22559 8.88477 9.04492 8.8335 8.88281C 8.81104 8.8125 8.7832 8.74512 8.74902 8.68359C 8.6875 8.57227 8.60596 8.47656 8.5 8.40625C 8.31152 8.21777 8.08838 8.10645 7.8252 8.04883C 7.78613 8.04004 7.74609 8.0332 7.70508 8.02637ZM 11.1875 8C 11.2764 7.99219 11.3755 7.99414 11.4888 7.99707L 11.6016 8L 11.6875 8C 12.0874 8 12.2939 7.99316 12.5938 8.09375C 12.7939 8.19336 12.9878 8.29297 13.1875 8.59375L 13.1963 8.61133C 13.2476 8.71289 13.3022 8.82129 13.3564 8.94336C 13.4053 9.05273 13.4541 9.17383 13.5 9.3125C 13.6001 9.6123 13.4062 10 13.4062 10.5L 13.4062 10.584C 13.4062 10.8135 13.4062 11.0176 13.395 11.2012C 13.3833 11.3848 13.3599 11.5459 13.3125 11.6875C 13.2124 11.9873 13.2002 12.2061 13 12.4062C 12.9463 12.46 12.9004 12.5137 12.8564 12.5654C 12.7354 12.7061 12.626 12.833 12.4062 12.9062C 12.3062 12.9062 11.9878 13 11.6875 13L 11.6245 13C 11.2686 13 11.0967 13 10.8125 12.9062C 10.6128 12.8057 10.3877 12.7061 10.1875 12.4062C 10.0874 12.2061 10 11.9873 10 11.6875C 9.8999 11.3867 9.90625 11 9.90625 10.5C 9.90625 10 9.8999 9.6123 10 9.3125C 10.1001 9.01172 10.1128 8.79297 10.3125 8.59375C 10.5127 8.39355 10.6064 8.19336 10.9062 8.09375C 10.9565 8.04297 11.0503 8.01172 11.1875 8ZM 15.5 8L 14.4062 8L 14.4062 13L 15.4062 13L 15.4062 9.5L 16.9062 13L 18 13L 18 8L 17 8L 17 11.5L 15.5 8ZM 11.6875 8.6875C 11.3877 8.6875 11.1938 8.7998 11.0938 9C 10.9937 9.2002 10.9062 9.7002 10.9062 10.5C 10.9062 10.9229 10.9307 11.2617 10.9683 11.5166C 10.9849 11.6279 11.0039 11.7236 11.0249 11.8027C 11.0464 11.8857 11.0693 11.9512 11.0938 12C 11.1938 12.2002 11.3877 12.3125 11.6875 12.3125C 11.8433 12.3125 11.979 12.2822 12.0874 12.2246C 12.1875 12.1719 12.2646 12.0957 12.3125 12C 12.4126 11.7998 12.5 11.2998 12.5 10.5C 12.5 10.3027 12.4946 10.124 12.4849 9.96289C 12.4785 9.85938 12.4707 9.76367 12.4614 9.6748C 12.4268 9.34375 12.3721 9.11914 12.3125 9C 12.1943 8.88184 12.0679 8.79395 11.9429 8.74219C 11.856 8.70605 11.7695 8.6875 11.6875 8.6875ZM 16 18L 16 15L 4 15L 4 18L 16 18Z"/>
</defs>
</svg>
