<svg fill="#000000" height="512" width="512" id="icon-gauge" viewBox="0 0 512 512">
  <path d="m480 285c0 63-27 120-70 160l-2 3l-37-37l11-11l26 25c16-17 28-36 38-57c10-23 17-47 18-72l-32 0l0-16l32 0c-1-26-6-51-16-75c-9-22-22-42-38-59l-28 28l-11-11l-1 0l28-28c-18-17-38-30-61-40c-23-10-48-14-73-15l0 37l-16 0l0-37c-25 1-50 5-73 15c-23 10-43 23-61 40l27 28l-11 11l-28-28c-16 17-29 37-38 59c-10 24-15 49-16 75l32 0l0 16l-32 0c1 25 8 49 18 72c9 21 22 40 38 57l25-25l12 11l-37 37l0-1c-44-40-72-97-72-161l0-1c0-122 100-221 224-221l1 0c124 0 223 99 223 221z m-240-30l110-68l10 11l-82 94l-1 1c-5 6-13 10-21 10c-15 0-27-11-27-26c0-8 4-15 9-20z"/>
</svg>