<svg fill="#000000" height="512" width="512" id="icon-gear-detailed" viewBox="0 0 512 512">
  <path d="m448 273l-33 8c-1 5-2 10-3 14l27 20l-12 30l-34-5c-2 4-5 7-8 11l17 29l-22 23l-30-17c-3 2-6 5-10 7l5 34l-29 12l-21-27c-4 1-9 2-14 3l-8 33l-32 0l-9-33c-4-1-9-2-13-3l-21 28l-29-12l4-34c-4-2-7-5-11-8l-30 18l-23-22l18-31c-3-4-5-7-7-11l-35 5l-12-29l28-22c-1-4-1-8-2-12l-35-9l0-32l35-9c1-4 1-8 2-12l-29-22l12-30l36 5c2-4 5-7 7-10l-19-32l22-22l32 19c4-3 8-6 12-8l-5-35l29-13l22 29c4-1 8-1 12-2l9-35l32 0l9 35c4 1 8 1 12 2l22-28l29 12l-5 35c4 2 7 5 11 8l30-18l22 23l-17 29c3 4 5 7 7 11l35-5l12 30l-28 21c1 4 2 9 3 13l33 9z m-63-10c0-4-1-8-1-12c-1-13-3-25-7-37c-1-4-3-8-5-12c-5-11-12-22-21-31l-9-9c-10-9-19-16-31-21c-4-2-8-3-11-4c0 0-7-2-11-3l-8-2c-6-1-13-3-19-3l-11 0c-13 1-26 4-38 8c-4 1-7 3-11 5c-11 5-22 12-31 20c-2 1-4 4-5 5c-1 1-3 2-4 4c-9 10-16 20-21 32c-2 3-4 7-5 11c-4 12-6 24-7 37l0 12c0 6 1 12 2 18c0 0 1 3 3 10c2 7 3 10 3 10c1 3 3 7 4 10c5 12 12 22 21 32c2 2 2 3 4 5c1 1 3 2 4 3c9 9 20 16 32 22c4 2 7 3 11 4c12 4 24 7 37 8l13 0c12-1 25-3 37-7c3-1 7-3 11-5c10-5 20-11 29-19c0 0 3-2 7-6c4-4 6-7 6-7c8-9 14-18 19-29c2-5 4-8 5-12c4-12 7-24 8-37z m-107-116l-28 103l-103 28c-1-5-2-11-2-16l0-10c0-11 3-22 7-33l3-9c5-10 11-19 19-28l8-8c8-8 17-13 27-18c3-2 7-3 10-4c11-4 22-7 33-7l10 0c5 0 11 1 16 2z m-127 147l103-28l76 76c-8 6-17 13-26 17c-3 1-7 2-10 3c-10 4-21 7-32 7l-11 0c-11 0-22-3-32-7c-3-1-8-2-11-4c-10-5-19-10-27-18c-1-1-2-3-3-4l-4-4c-8-8-14-18-19-28c-2-3-3-6-4-9z m211-75c4 10 6 21 7 32l0 11c-1 11-3 23-7 33c-1 4-2 7-4 11c-4 9-10 17-17 25l-76-76l28-104l1 1c3 1 7 2 10 3c10 5 20 11 28 19l7 7c8 8 14 18 19 28c2 3 3 7 4 10z"/>
</svg>