<svg width="22" height="15" viewBox="0 0 22 15" version="1.1" xmlns="http://www.w3.org/2000/svg" xmlns:xlink="http://www.w3.org/1999/xlink">
<title>keyboard</title>
<desc>Created using Figma</desc>
<g id="Canvas" transform="translate(-1907 -4409)">
<g id="keyboard">
<use xlink:href="#path0_fill" transform="translate(1907 4409)" fill="#5B6882"/>
</g>
</g>
<defs>
<path id="path0_fill" fill-rule="evenodd" d="M 2 0L 20 0C 21.103 0 22 0.895996 22 2L 22 13C 22 14.103 21.103 15 20 15L 2 15C 0.896973 15 0 14.103 0 13L 0 2C 0 0.895996 0.896973 0 2 0ZM 12 4C 12 3.44678 11.552 3 11 3C 10.448 3 10 3.44678 10 4C 10 4.55322 10.448 5 11 5C 11.552 5 12 4.55322 12 4ZM 11 7C 11.552 7 12 7.44678 12 8C 12 8.55322 11.552 9 11 9C 10.448 9 10 8.55322 10 8C 10 7.44678 10.448 7 11 7ZM 9 4C 9 3.44678 8.552 3 8 3C 7.448 3 7 3.44678 7 4C 7 4.55322 7.448 5 8 5C 8.552 5 9 4.55322 9 4ZM 8 7C 8.552 7 9 7.44678 9 8C 9 8.55322 8.552 9 8 9C 7.448 9 7 8.55322 7 8C 7 7.44678 7.448 7 8 7ZM 4 8C 4 8.55322 4.448 9 5 9C 5.552 9 6 8.55322 6 8C 6 7.44678 5.552 7 5 7C 4.448 7 4 7.44678 4 8ZM 5 5C 4.448 5 4 4.55322 4 4C 4 3.44678 4.448 3 5 3C 5.552 3 6 3.44678 6 4C 6 4.55322 5.552 5 5 5ZM 7 11L 7 13L 15 13L 15 11L 7 11ZM 14 9C 13.448 9 13 8.55322 13 8C 13 7.44678 13.448 7 14 7C 14.552 7 15 7.44678 15 8C 15 8.55322 14.552 9 14 9ZM 13 4C 13 4.55322 13.448 5 14 5C 14.552 5 15 4.55322 15 4C 15 3.44678 14.552 3 14 3C 13.448 3 13 3.44678 13 4ZM 17 5C 16.448 5 16 4.55322 16 4C 16 3.44678 16.448 3 17 3C 17.552 3 18 3.44678 18 4C 18 4.55322 17.552 5 17 5ZM 16 8C 16 8.55322 16.448 9 17 9C 17.552 9 18 8.55322 18 8C 18 7.44678 17.552 7 17 7C 16.448 7 16 7.44678 16 8Z"/>
</defs>
</svg>
