<svg fill="#000000" height="512" width="512" id="icon-icon-line-graph" viewBox="0 0 512 512">
  <path d="m447 82c-33 0-60 27-60 60 0 16 7 31 17 41l-38 49c-9-4-18-8-28-8-23 0-42 13-52 32l-35-17c0-33-27-60-60-60-33 0-60 27-60 60 0 14 4 25 11 35l-41 47c-10-8-22-13-36-13-33 0-60 28-60 61 0 33 27 60 60 60 33 0 60-27 60-60 0-12-3-22-9-31l42-48c9 6 21 9 32 9 25 0 47-16 56-37l32 16c0 2-2 4-2 6 0 33 28 61 61 61 33 0 60-28 60-61 0-14-6-27-14-38l39-50c8 3 16 5 25 5 33 0 60-27 60-60 0-33-27-59-60-59z m-382 325c-21 0-38-17-38-37 0-21 17-38 38-38 20 0 37 17 37 38 0 20-17 37-37 37z m125-129c-20 0-38-17-38-38 0-20 18-37 38-37 20 0 38 17 38 37 0 21-18 38-38 38z m147 45c-21 0-38-17-38-37 0-21 17-38 38-38 20 0 37 17 37 38 0 20-17 37-37 37z m110-143c-20 0-37-17-37-38 0-20 17-37 37-37 21 0 38 17 38 37 0 21-17 38-38 38z"/>
</svg>