<svg width="14" height="26" viewBox="0 0 14 26" version="1.1" xmlns="http://www.w3.org/2000/svg" xmlns:xlink="http://www.w3.org/1999/xlink">
  <path id="path0_fill" d="M 13.1538 2L 0 2L 0 0L 13.1538 0L 13.1538 2Z"/>
  <path id="path1_fill" d="M 5.57715 10.0557L 5.57715 14.042L 7.57715 14.042L 7.57715 10.0557L 5.57715 10.0557Z"/>
  <path id="path2_fill" fill-rule="evenodd" d="M 4.69775 25.999L 8.45605 25.999C 11.0869 25.999 13.1538 23.8066 13.1538 21.0166L 13.1538 9.05859C 13.1538 6.26855 11.0869 4.07617 8.45605 4.07617L 4.69775 4.07617C 2.06689 4.07617 0 6.26855 0 9.05859L 0 21.0166C 0 23.8066 2.06689 25.999 4.69775 25.999ZM 4.69775 23.999L 8.45605 23.999C 9.87305 23.999 11.1538 22.8145 11.1538 21.0166L 11.1538 9.05859C 11.1538 7.26074 9.87305 6.07617 8.45605 6.07617L 4.69775 6.07617C 3.28076 6.07617 2 7.26074 2 9.05859L 2 21.0166C 2 22.8145 3.28076 23.999 4.69775 23.999Z"/>
</svg>
