<?xml version="1.0" encoding="UTF-8"?>
<svg width="506px" height="506px" viewBox="0 0 506 506" version="1.1" xmlns="http://www.w3.org/2000/svg" xmlns:xlink="http://www.w3.org/1999/xlink">
    <!-- Generator: Sketch 42 (36781) - http://www.bohemiancoding.com/sketch -->
    <title>new-app</title>
    <desc>Created with Sketch.</desc>
    <defs></defs>
    <g id="Page-1" stroke="none" stroke-width="1" fill="none" fill-rule="evenodd">
        <g id="new-app" fill-rule="nonzero" fill="#000000">
            <polygon id="Shape" points="7.65714278 85.6857143 7.65714278 100.314286 434.342852 100.314286 434.342852 85.6857143 7.65714278 85.6857143"></polygon>
            <path d="M71.6571425,32.3428568 C61.811656,32.3428568 53.6857143,40.4973681 53.6857143,50.3428575 C53.6857143,60.1883454 61.8116546,68.3142857 71.6571425,68.3142857 C81.5026319,68.3142857 89.6571432,60.188344 89.6571432,50.3428575 C89.6571432,40.4973696 81.5026304,32.3428568 71.6571425,32.3428568 L71.6571425,32.3428568 Z M71.6571425,46.9714282 C73.587656,46.9714282 75.0285718,48.4123425 75.0285718,50.3428575 C75.0285718,52.2733696 73.5876546,53.6857143 71.6571425,53.6857143 C69.7266319,53.6857143 68.3142857,52.2733681 68.3142857,50.3428575 C68.3142857,48.4123454 69.7266304,46.9714282 71.6571425,46.9714282 Z" id="path18"></path>
            <path d="M114.342858,32.3428568 C104.49737,32.3428568 96.3428568,40.4973696 96.3428568,50.3428575 C96.3428568,60.188344 104.497368,68.3142857 114.342858,68.3142857 C124.188345,68.3142857 132.314286,60.1883454 132.314286,50.3428575 C132.314286,40.4973681 124.188344,32.3428568 114.342858,32.3428568 Z M114.342858,46.9714282 C116.27337,46.9714282 117.685714,48.4123454 117.685714,50.3428575 C117.685714,52.2733681 116.273368,53.6857143 114.342858,53.6857143 C112.412345,53.6857143 110.971428,52.2733696 110.971428,50.3428575 C110.971428,48.412344 112.412342,46.9714282 114.342858,46.9714282 L114.342858,46.9714282 Z" id="path20"></path>
            <path d="M157,32.3428568 C147.154518,32.3428568 139.028572,40.4973652 139.028572,50.3428575 C139.028572,60.1883498 147.154518,68.3142857 157,68.3142857 C166.845482,68.3142857 174.971434,60.1883498 174.971434,50.3428575 C174.971434,40.4973652 166.845482,32.3428568 157,32.3428568 L157,32.3428568 Z M157,46.9714282 C158.930518,46.9714282 160.342863,48.4123425 160.342863,50.3428575 C160.342863,52.2733652 158.930474,53.6857143 157,53.6857143 C155.069482,53.6857143 153.657137,52.2733696 153.657137,50.3428575 C153.657137,48.4123498 155.069526,46.9714282 157,46.9714282 Z" id="path22"></path>
            <path d="M50.3428575,0.34285707 C22.8333696,0.34285707 0.34285707,22.8333696 0.34285707,50.3428575 L0.34285707,306.342852 C0.34285707,333.852348 22.8333681,356.314286 50.3428575,356.314286 L178.342852,356.314286 L178.342852,341.685714 L50.3428575,341.685714 C30.7483454,341.685714 14.9714282,325.93737 14.9714282,306.342852 L14.9714282,50.3428575 C14.9714282,30.7483454 30.7483454,14.9714282 50.3428575,14.9714282 L391.657148,14.9714282 C411.251652,14.9714282 427.028566,30.7483425 427.028566,50.3428575 L427.028566,178.342852 L441.657137,178.342852 L441.657137,50.3428575 C441.657137,22.8333711 419.16663,0.34285707 391.657148,0.34285707 L50.3428575,0.34285707 L50.3428575,0.34285707 Z" id="path24"></path>
            <path d="M370.342852,235.028566 C295.697479,235.028566 235.028566,295.697479 235.028566,370.342852 C235.028566,444.988239 295.697479,505.657137 370.342852,505.657137 C444.988239,505.657137 505.657137,444.988239 505.657137,370.342852 C505.657137,295.697479 444.988239,235.028566 370.342852,235.028566 Z M370.342852,249.657137 C437.082373,249.657137 491.028566,303.603344 491.028566,370.342852 C491.028566,437.082373 437.082373,491.028566 370.342852,491.028566 C303.603344,491.028566 249.657137,437.082373 249.657137,370.342852 C249.657137,303.603344 303.603344,249.657137 370.342852,249.657137 Z" id="Oval"></path>
            <polygon id="path27" points="317 363.028566 317 377.657137 423.657148 377.657137 423.657148 363.028566"></polygon>
            <polygon id="path29" points="363.028566 317 363.028566 423.657148 377.657137 423.657148 377.657137 317"></polygon>
        </g>
    </g>
</svg>