<svg xmlns="http://www.w3.org/2000/svg" width="20" height="20" viewBox="0 0 20 20">
  <g>
    <path d="M10,20 C4.48667,20 0,15.5144 0,10 C0,4.48556 4.48667,0 10,0 C15.5133,0 20,4.48556 20,10 C20,15.5144 15.5133,20 10,20 Z M10,2.22222 C5.71111,2.22222 2.22222,5.71111 2.22222,10 C2.22222,14.2889 5.71111,17.7778 10,17.7778 C14.2889,17.7778 17.7778,14.2889 17.7778,10 C17.7778,5.71111 14.2889,2.22222 10,2.22222 Z"/>
    <path d="M14.66333,9.99667 C14.66333,12.574 12.574,14.66333 9.99667,14.66333 C7.41934,14.66333 5.33,12.574 5.33,9.99667 C5.33,7.41934 7.41934,5.33 9.99667,5.33 C12.574,5.33 14.66333,7.41934 14.66333,9.99667 Z"/>
  </g>
</svg>
