<svg xmlns="http://www.w3.org/2000/svg" width="15" height="15" viewBox="0 0 15 15">
  <g>
    <path d="M14.25,0 L12.375,1.86916 C11.0629,0.742116 9.36546,0.046729 7.5,0.046729 C3.3665,0.046729 0,3.40274 0,7.52336 C0,11.644 3.3665,15 7.5,15 C11.6335,15 15,11.644 15,7.52336 L13.5,7.52336 C13.5,10.836 10.823,13.5047 7.5,13.5047 C4.177,13.5047 1.5,10.836 1.5,7.52336 C1.5,4.21072 4.177,1.54206 7.5,1.54206 C8.9577,1.54206 10.2853,2.06232 11.3203,2.92056 L9.70312,4.53271 L14.25,4.53271 L14.25,0 Z"/>
    <polygon points="5.5 6 6.8 6 6.8 7.3 5.5 7.3"/>
    <polygon points="8.12 6 9.42 6 9.42 7.3 8.12 7.3"/>
    <polygon points="5.5 8.4 6.8 8.4 6.8 9.7 5.5 9.7"/>
    <polygon points="8.12 8.4 9.42 8.4 9.42 9.7 8.12 9.7"/>
  </g>
</svg>
