<svg xmlns="http://www.w3.org/2000/svg" viewBox="0 0 24 24" width="24" height="24">
    <path d="M 22 2 C 22 2 16 2 14 4 C 11.675 6.325 6 15 6 15 L 9 18 C 9 18 17.675 12.325 20 10 C 22 8 22 2 22 2 z M 9 18 L 10 22 C 13.536 19.879 13 17 13 16 L 9 18 z M 6 15 L 8 11 C 7 11 4.121 10.464 2 14 L 6 15 z M 16.875 5.125 C 17.38675 5.125 17.89075 5.32825 18.28125 5.71875 C 19.06225 6.49875 19.06225 7.75025 18.28125 8.53125 C 17.50025 9.31225 16.24975 9.31225 15.46875 8.53125 C 14.68775 7.75025 14.68775 6.49975 15.46875 5.71875 C 15.85925 5.32825 16.36325 5.125 16.875 5.125 z M 5 17 C 2 18 2.0625 21.9375 2.0625 21.9375 C 2.0625 21.9375 6 22 7 19 L 4 20 L 5 17 z"/>
</svg>