<svg fill="#000000" height="512" width="512" id="icon-save" viewBox="0 0 512 512">
  <path d="m271 87l53 0l0 110l-53 0z m170 11l0 0l-26-26c-2-3-6-4-9-4c0 0 0 0 0 0l-46 0c0 0 0 0 0 0l-1 0l0 0c-1 0-3 0-4 1c-1 2-2 3-2 4l0 0l0 130l0 0c0 7-5 12-12 12l-176 0l0 0c-7-1-12-6-12-12l0 0l0-130l0 0c-1-1-1-2-2-3c-2-2-4-3-6-2l0 0l-66 0c-7 0-12 5-12 12l0 352c0 7 5 12 12 12l39 0l0-168c0 0 0 0 0 0l0-1l0 0c0-5 4-10 9-11l0 0l1 0c1 0 1 0 2 0l253 0l0 0c6 0 11 5 11 11l0 0l0 169l39 0c7 0 12-5 12-12l0-324c0 0 0-1 0-1c0-3-1-6-4-9z"/>
</svg>