<svg fill="#000000" height="512" width="512" id="icon-shield" viewBox="0 0 512 512">
  <path d="m384 274l0-183l-128 0l0 325c23-12 43-25 61-39c45-35 67-69 67-103z m55-219l0 219c0 17-3 33-10 49c-6 16-14 30-23 43c-10 12-21 24-34 36c-13 12-25 22-36 30c-11 8-23 15-35 22c-12 7-20 12-25 14c-5 2-10 4-13 6c-2 1-4 1-7 1c-3 0-5 0-7-1c-3-2-8-4-13-6c-5-2-13-7-25-14c-12-7-24-14-35-22c-11-8-23-18-36-30c-13-12-24-24-34-36c-9-13-17-27-23-43c-7-16-10-32-10-49l0-219c0-5 2-9 6-13c3-4 7-5 12-5l330 0c5 0 9 1 12 5c4 4 6 8 6 13z"/>
</svg>