<svg width="12" height="20" viewBox="0 0 12 20" version="1.1" xmlns="http://www.w3.org/2000/svg" xmlns:xlink="http://www.w3.org/1999/xlink">
<g id="Canvas" transform="translate(-6858 10969)">
<g id="smartphone">
<g id="Group">
<g id="Filled_Icons_1_">
<g id="Filled_Icons">
<g id="Shape">
<use xlink:href="#path0_fill" transform="translate(6858 -10969)" fill="#FFFFFF"/>
</g>
</g>
</g>
</g>
</g>
</g>
<defs>
<path id="path0_fill" fill-rule="evenodd" d="M 2.0835 0L 9.58301 0C 10.7314 0 11.6665 0.93457 11.6665 2.08301L 11.6665 17.916C 11.6665 19.0645 10.7314 20 9.58301 20L 2.0835 20C 0.934082 20 0 19.0645 0 17.916L 0 2.08301C 0 0.93457 0.934082 0 2.0835 0ZM 7.91699 1.66699L 3.75 1.66699C 3.52002 1.66699 3.3335 1.85352 3.3335 2.08398C 3.3335 2.31348 3.52002 2.5 3.75 2.5L 7.91699 2.5C 8.14697 2.5 8.3335 2.31348 8.3335 2.08398C 8.3335 1.85352 8.14697 1.66699 7.91699 1.66699ZM 5.8335 18.75C 5.37354 18.75 5 18.376 5 17.916C 5 17.4551 5.37354 17.083 5.8335 17.083C 6.29395 17.083 6.6665 17.4551 6.6665 17.916C 6.6665 18.376 6.29395 18.75 5.8335 18.75ZM 0.833496 15.833L 10.8335 15.833L 10.8335 4.16602L 0.833496 4.16602L 0.833496 15.833Z"/>
</defs>
</svg>
