<svg xmlns="http://www.w3.org/2000/svg" viewBox="0 0 24 24" width="24" height="24">
    <path d="M 4 2 C 2.895 2 2 2.895 2 4 L 2 20 C 2 21.105 2.895 22 4 22 L 7 22 C 8.105 22 9 21.105 9 20 L 9 4 C 9 2.895 8.105 2 7 2 L 4 2 z M 10 4 L 10 6 L 20 6 L 20 16 L 10 16 L 10 18 L 20 18 C 20.52 18 21.0575 17.8075 21.4375 17.4375 C 21.8075 17.0575 22 16.52 22 16 L 22 6 C 22 5.48 21.8075 4.9425 21.4375 4.5625 C 21.0575 4.1925 20.52 4 20 4 L 10 4 z M 5.5 16 C 6.328 16 7 16.672 7 17.5 C 7 18.328 6.328 19 5.5 19 C 4.672 19 4 18.328 4 17.5 C 4 16.672 4.672 16 5.5 16 z M 11 19 L 11 20 L 10 20 L 10 22 L 18 22 L 18 20 L 15 20 L 15 19 L 11 19 z"/>
</svg>