<svg xmlns="http://www.w3.org/2000/svg" x="0" y="0" viewBox="0 0 32 32" enable-background="new 0 0 32 32" width="32" height="32"><title>app workspaces</title><g class="nc-icon-wrapper" fill="#111111"><path d="M12.8 17.6H6.4c-.9 0-1.6.7-1.6 1.6v6.4c0 .9.7 1.6 1.6 1.6h6.4c.9 0 1.6-.7 1.6-1.6v-6.4c0-.9-.7-1.6-1.6-1.6zm0 8H6.4v-6.4h6.4v6.4zm12.8-8h-6.4c-.9 0-1.6.7-1.6 1.6v6.4c0 .9.7 1.6 1.6 1.6h6.4c.9 0 1.6-.7 1.6-1.6v-6.4c0-.9-.7-1.6-1.6-1.6zm0 8h-6.4v-6.4h6.4v6.4zM28.8 0H3.2C1.4 0 0 1.4 0 3.2v25.6C0 30.6 1.4 32 3.2 32h25.6c1.8 0 3.2-1.4 3.2-3.2V3.2C32 1.4 30.6 0 28.8 0zm.8 28.8c0 .4-.4.8-.8.8H3.2c-.4 0-.8-.4-.8-.8V3.2c0-.4.4-.8.8-.8h25.6c.4 0 .8.4.8.8v25.6zm-4-24h-6.4c-.9 0-1.6.7-1.6 1.6v6.4c0 .9.7 1.6 1.6 1.6h6.4c.9 0 1.6-.7 1.6-1.6V6.4c0-.9-.7-1.6-1.6-1.6zm0 8h-6.4V6.4h6.4v6.4zm-12.8-8H6.4c-.9 0-1.6.7-1.6 1.6v6.4c0 .9.7 1.6 1.6 1.6h6.4c.9 0 1.6-.7 1.6-1.6V6.4c0-.9-.7-1.6-1.6-1.6zm0 8H6.4V6.4h6.4v6.4z"/></g></svg>