<svg width="32" height="32" viewBox="0 0 32 32" xmlns="http://www.w3.org/2000/svg"><g class="nc-icon-wrapper" fill="#444444"><g transform="translate(2369 -155)"><path d="M-2358.331 179.004h-8.002V165.67h24.004v-4.001a2.67 2.67 0 0 0-2.667-2.667h-1.333V155h-2.668v6.668h-1.333V159h-9.335V155h-2.667v6.668h-1.334V159h-2.667a2.67 2.67 0 0 0-2.667 2.667v17.336a2.67 2.67 0 0 0 2.667 2.667h8.002v-2.667z"></path><path d="M-2346.335 187c-5.148 0-9.335-4.187-9.335-9.335 0-5.147 4.188-9.335 9.335-9.335 5.148 0 9.335 4.187 9.335 9.335 0 5.148-4.187 9.335-9.335 9.335zm0-16.003a6.675 6.675 0 0 0-6.668 6.668 6.675 6.675 0 0 0 6.668 6.668 6.675 6.675 0 0 0 6.668-6.668 6.675 6.675 0 0 0-6.668-6.668z"></path><path d="M-2342.335 179h-5.334v-6.67h2.668v4.001h2.666V179z"></path></g></g></svg>