<svg width="32" height="32" viewBox="0 0 32 32" xmlns="http://www.w3.org/2000/svg"><g class="nc-icon-wrapper" fill="#444444"><path d="M12.35 25.257l8.422-2.468 5.053 2.605L32 22.446V18.33l-6.175 2.949-5.193-2.674-8.281 2.468-7.439-1.508L0 16.686v3.771l5.333 3.429 7.018 1.371zm13.475-9.12l-5.193-2.743-8.281 2.537-7.439-1.44L0 11.543v3.703l5.333 3.565 7.018 1.303 8.42-2.605 5.054 2.674L32 17.303v-4.114l-6.175 2.948zM12.35 9.76l8.42-2.469 5.054 2.675L32 6.949V4H0v.891l5.333 3.635 7.018 1.234zm13.474 1.234l-5.193-2.743-8.281 2.538-7.439-1.44L0 6.4v3.703l5.333 3.566 7.018 1.302 8.42-2.537 5.054 2.675L32 12.16V8.114l-6.175 2.88zm0 15.566l-5.193-2.811-8.281 2.468-7.439-1.508L0 21.829V28h32v-4.526l-6.175 3.086z"></path></g></svg>