<svg width="32" height="32" viewBox="0 0 32 32" xmlns="http://www.w3.org/2000/svg"><g class="nc-icon-wrapper" fill="#444444"><path d="M9.143 6.857c1.286 0 2.286 1 2.286 2.286s-1 2.286-2.286 2.286-2.286-1-2.286-2.286 1-2.286 2.286-2.286zM32 25.143A6.859 6.859 0 0 1 25.143 32h-16L16 25.143h2.929c.785 1.357 2.214 2.286 3.928 2.286 2.5 0 4.572-2.072 4.572-4.572s-2.072-4.571-4.572-4.571c-1.714 0-3.143.928-3.928 2.285h-5.215L3.286 31A6.778 6.778 0 0 1 0 25.143V6.857A6.859 6.859 0 0 1 6.857 0v5.214C5.5 6 4.571 7.43 4.571 9.143c0 2.5 2.072 4.571 4.572 4.571 1.714 0 3.143-.928 3.928-2.285h5.858c.785 1.357 2.214 2.285 3.928 2.285 2.5 0 4.572-2.071 4.572-4.571 0-2.5-2.072-4.572-4.572-4.572-1.714 0-3.143.929-3.928 2.286h-5.786c-.429-.714-1-1.286-1.714-1.643V0h13.714A6.859 6.859 0 0 1 32 6.857v18.286zm-11.429-2.286c0-1.286 1-2.286 2.286-2.286s2.286 1 2.286 2.286-1 2.286-2.286 2.286-2.286-1-2.286-2.286zm0-13.714c0-1.286 1-2.286 2.286-2.286s2.286 1 2.286 2.286-1 2.286-2.286 2.286-2.286-1-2.286-2.286z"></path></g></svg>