<svg width="32" height="32" viewBox="0 0 32 32" xmlns="http://www.w3.org/2000/svg"><g class="nc-icon-wrapper" fill="#444444"><path d="M16.06 4c-4.015 0-7.495 2.133-9.368 5.479C2.944 10.148 0 13.369 0 17.383c0 4.417 3.614 8.03 8.03 8.03h4.015v-2.676H8.03c-2.944 0-5.353-2.41-5.353-5.354 0-2.676 1.89-4.826 4.433-5.227l1.171-.251.67-1.088c1.471-2.543 4.165-4.14 7.11-4.14 3.746 0 6.975 2.534 7.778 6.148l.377 1.756 1.756.251c2.008.268 3.346 2.016 3.346 3.89 0 2.275-1.74 4.015-4.015 4.015H19.95v2.676h5.353c3.747 0 6.692-2.944 6.692-6.691.134-3.346-2.267-6.165-5.48-6.567C25.312 7.471 21.146 4 16.06 4zm0 7.612l-5.353 7.11h4.015v9.368h2.676v-9.368h4.015l-5.353-7.11z"></path></g></svg>