<svg width="32" height="32" viewBox="0 0 32 32" xmlns="http://www.w3.org/2000/svg"><g class="nc-icon-wrapper" fill="#444444"><path d="M28.2 17.6c0-.48.165-1.12.165-1.6s0-1.12-.164-1.6l3.455-2.4c.33-.16.494-.64.165-1.12l-3.291-5.6c-.165-.48-.658-.64-.987-.48l-3.95 1.76c-.822-.64-1.974-1.28-2.961-1.6L20.138.8c0-.48-.329-.8-.822-.8h-6.582c-.493 0-.822.32-.822.8l-.494 4c-1.152.48-2.14.96-2.962 1.6L4.507 4.8c-.329-.16-.822 0-.987.32l-3.29 5.6c-.33.48-.33.96.164 1.12l3.455 2.56c0 .48-.164 1.12-.164 1.6s0 1.12.164 1.6L.394 20c-.33.16-.494.64-.165 1.12l3.291 5.6c.165.48.658.64.987.48l3.95-1.76c.822.64 1.974 1.28 2.96 1.6l.495 4.16c0 .48.329.8.822.8h6.582c.493 0 .822-.32.822-.8l.494-4.16c1.152-.48 2.139-.96 2.962-1.6l3.949 1.76c.329.16.822 0 .987-.32l3.29-5.6c.165-.32.165-.8-.164-1.12l-3.455-2.56zm-12.175 4.8c-3.62 0-6.582-2.88-6.582-6.4 0-3.52 2.962-6.4 6.582-6.4 3.62 0 6.582 2.88 6.582 6.4 0 3.52-2.962 6.4-6.582 6.4z"></path></g></svg>