<svg fill="none" height="32" viewBox="0 0 32 32" width="32" xmlns="http://www.w3.org/2000/svg"><path clip-rule="evenodd" d="m23.5314 8.46863c.6248.62484.6248 1.63787 0 2.26277l-12.8 12.8c-.6249.6248-1.63793.6248-2.26277 0-.62484-.6249-.62484-1.6379 0-2.2628l12.79997-12.79997c.6249-.62484 1.6379-.62484 2.2628 0zm-7.5314 20.33137c7.0692 0 12.8-5.7308 12.8-12.8 0-7.06924-5.7308-12.8-12.8-12.8-7.06924 0-12.8 5.73076-12.8 12.8 0 7.0692 5.73076 12.8 12.8 12.8zm16-12.8c0 8.8366-7.1634 16-16 16-8.83656 0-16-7.1634-16-16 0-8.83656 7.16344-16 16-16 8.8366 0 16 7.16344 16 16z" fill="#000" fill-rule="evenodd"/></svg>