<svg width="32" height="32" viewBox="0 0 32 32" xmlns="http://www.w3.org/2000/svg"><g class="nc-icon-wrapper" fill="#444444"><path d="M16 2C11.2 2 6.808 4.667 4.542 8.667H7.75C8.95 7.2 10.517 6 12.25 5.333c-.4.934-.65 2.134-.917 3.334h2.792c.533-2.667 1.475-4 1.875-4 .4 0 1.333 1.333 2 4h2.792c-.267-1.2-.509-2.4-1.042-3.334 1.733.667 3.3 1.867 4.5 3.334h3.208C25.192 4.667 20.8 2 16 2zM0 11.333l1.75 8h1.833l1.209-4.666 1.083 4.666h1.708l1.75-8H7.458l-.791 5.084-1.209-5.084H3.875l-1.083 5.084-.917-5.084H0zm11.333 0l1.584 8h2L16 14.667l1.083 4.666h1.834l1.75-8h-1.875l-.917 5.084-1.083-5.084h-1.584l-1.083 5.084-.917-5.084h-1.875zm11.334 0l1.75 8h1.833l1.083-4.666 1.084 4.666h1.833l1.75-8h-1.875l-.917 5.084-1.083-5.084h-1.583l-1.084 5.084-.916-5.084h-1.875zM4.542 22C6.808 26 11.2 28.667 16 28.667S25.192 26 27.458 22H24.25c-1.2 1.467-2.767 2.667-4.5 3.333.4-.933.775-2.133 1.042-3.333H18c-.667 2.667-1.467 4-2 4-.533 0-1.333-1.333-2-4h-2.667c.267 1.2.55 2.4 1.084 3.333C10.55 24.667 8.95 23.467 7.75 22H4.542z"></path></g></svg>