<svg width="32" height="32" viewBox="0 0 32 32" xmlns="http://www.w3.org/2000/svg"><title>exclamation thin</title><g class="nc-icon-wrapper"><g id="exclamation-thin" fill="none"><path d="M15.085 5.384V7.59l.184 13.05h1.011l.214-15.256h-1.409z" fill="#000"/><path d="M14.871 24.121c-.265.249-.398.6-.398 1.056 0 .436.133.777.398 1.026.266.248.572.373.919.373.347 0 .643-.125.888-.373.266-.249.398-.59.398-1.026 0-.455-.132-.807-.398-1.056a1.202 1.202 0 0 0-.888-.373c-.347 0-.653.124-.919.373z" fill="#000"/><path fill-rule="evenodd" clip-rule="evenodd" d="M16 0C7.173 0 0 7.154 0 16s7.173 16 16 16 16-7.154 16-16S24.827 0 16 0zM1.371 16C1.371 7.942 7.911 1.391 16 1.391c8.089 0 14.629 6.55 14.629 14.609 0 8.058-6.54 14.609-14.629 14.609-8.089 0-14.629-6.55-14.629-14.609z" fill="#000"/></g></g></svg>