<svg width="32" height="32" viewBox="0 0 32 32" xmlns="http://www.w3.org/2000/svg"><g class="nc-icon-wrapper" fill="#444444"><g transform="translate(1217 613)"><path d="M-1193-597l2.285 5.715h5.715l-4.944 4.173 2.658 6.112-5.714-3.78-5.715 3.78 2.659-6.112-4.944-4.173h5.714L-1193-597z"></path><path d="M-1202.333-589h-12v-13.333h21.332v4h2.668v-8A2.67 2.67 0 0 0-1193-609h-1.333v-4H-1197v6.667h-1.333V-609h-9.334v-4h-2.666v6.667h-1.334V-609h-2.666a2.67 2.67 0 0 0-2.667 2.667V-589a2.67 2.67 0 0 0 2.667 2.667h12V-589z"></path></g></g></svg>