<svg width="32" height="32" viewBox="0 0 32 32" xmlns="http://www.w3.org/2000/svg"><g class="nc-icon-wrapper" fill="#444444"><path d="M0 1.6A1.595 1.595 0 0 1 1.6 0h28.8A1.6 1.6 0 0 1 32 1.6v4.8A1.6 1.6 0 0 1 30.4 8H1.6A1.6 1.6 0 0 1 0 6.4V1.6zm0 12A1.6 1.6 0 0 1 1.6 12h28.8a1.6 1.6 0 0 1 1.6 1.6v4.8a1.6 1.6 0 0 1-1.6 1.6H1.6a1.605 1.605 0 0 1-1.447-.916A1.591 1.591 0 0 1 0 18.4v-4.8zm1.6 0v4.8h28.8v-4.8H1.6zM0 25.6A1.6 1.6 0 0 1 1.6 24h28.8a1.6 1.6 0 0 1 1.6 1.6v4.8a1.6 1.6 0 0 1-1.6 1.6H1.6A1.6 1.6 0 0 1 0 30.4v-4.8zm1.6 0v4.8h28.8v-4.8H1.6z"></path></g></svg>