<svg width="32" height="32" viewBox="0 0 32 32" xmlns="http://www.w3.org/2000/svg"><g class="nc-icon-wrapper" fill="#444444"><path d="M32 17.54c0 4.429-1.929 8.437-5 11.25l-.143.21-2.643-2.602.786-.773 1.857 1.758c1.143-1.196 2-2.531 2.714-4.008.715-1.617 1.215-3.305 1.286-5.063h-2.286v-1.125h2.286c-.071-1.828-.428-3.585-1.143-5.273A13.525 13.525 0 0 0 27 7.766l-2 1.968-.786-.773h-.071l2-1.969a14.879 14.879 0 0 0-4.357-2.812c-1.643-.703-3.429-.985-5.215-1.055v2.602H15.43V3.125c-1.786.07-3.572.352-5.215 1.055a14.878 14.878 0 0 0-4.357 2.812l1.929 1.969L7 9.734 5 7.766a13.525 13.525 0 0 0-2.714 4.148c-.715 1.688-1.072 3.445-1.143 5.273h2.286v1.125H1.143c.071 1.758.571 3.446 1.286 5.063.642 1.477 1.571 2.813 2.714 4.008l1.786-1.758.857.773L5.143 29v-.07C2 26.117 0 22.11 0 17.61v-.07C0 8.96 7.143 2 16 2h.071C24.93 2 32 8.96 32 17.54zm-17.143-2.11l7.857-4.782.715.774-5.858 6.61-.071.07a2.023 2.023 0 0 1-1.5.703c-1.071 0-1.929-.774-1.929-1.828 0-.563.286-1.055.643-1.407l.143-.14z"></path></g></svg>