<svg width="32" height="32" viewBox="0 0 32 32" xmlns="http://www.w3.org/2000/svg"><g class="nc-icon-wrapper" fill="#444444"><g transform="translate(1121 805)"><path d="M-1105.005-784.739a4.267 4.267 0 1 0 0-8.533 4.267 4.267 0 0 0 0 8.533z"></path><path d="M-1117.445-805h24.89a3.556 3.556 0 0 1 3.555 3.556v24.888a3.557 3.557 0 0 1-3.555 3.556h-24.89a3.556 3.556 0 0 1-3.555-3.556v-24.888a3.555 3.555 0 0 1 3.555-3.556zm19.93 17.937h3.182v-3.878h-3.179a7.79 7.79 0 0 0-.766-1.871l2.01-2.008-2.91-2.91-2.01 2.01a7.496 7.496 0 0 0-1.872-.764v-3.185h-3.878v3.185c-.664.172-1.289.43-1.87.764l-2.01-2.01-2.91 2.91 2.01 2.008a7.817 7.817 0 0 0-.766 1.871h-3.182v3.88h3.182c.174.666.433 1.288.766 1.872l-2.01 2.01 2.906 2.906 2.011-2.01a7.509 7.509 0 0 0 1.87.766v3.183h3.877v-3.185a7.51 7.51 0 0 0 1.873-.765l2.01 2.009 2.908-2.906-2.008-2.01a7.716 7.716 0 0 0 .765-1.872z"></path></g></g></svg>