<svg xmlns="http://www.w3.org/2000/svg" x="0" y="0" viewBox="0 0 32 32" width="32" height="32"><g class="nc-icon-wrapper" fill="#444444"><path clip-path="url(#SVGID_2_)" d="M-76.5-175.9h-3.8l-6.5-10.8c.2-.2.3-.5.3-.9v-5.9c0-.8-.7-1.5-1.5-1.5h-6c-.8 0-1.5.7-1.5 1.5v5.9c0 .3.1.6.3.9l-6.5 10.8h-3.8c-.8 0-1.5.7-1.5 1.5v5.9c0 .8.7 1.5 1.5 1.5h6c.8 0 1.5-.7 1.5-1.5v-2.3h14v2.3c0 .8.7 1.5 1.5 1.5h6c.8 0 1.5-.7 1.5-1.5v-5.9c0-.8-.7-1.5-1.5-1.5zm-7.5 1.5v1.1h-14v-1.1c0-.6-.3-1.1-.8-1.3l6.2-10.4h3.2l6.2 10.4c-.4.2-.8.7-.8 1.3z" transform="translate(107 197)"></path></g></svg>