<svg width="32" height="32" viewBox="0 0 32 32" xmlns="http://www.w3.org/2000/svg"><g class="nc-icon-wrapper" fill="#444444"><path d="M18.286 2C10.714 2 4.57 8.143 4.57 15.714H0l5.929 5.929h10.928l-4.643-5.929H7.643c0-5.857 4.786-10.643 10.643-10.643C24.214 5.071 29 9.857 29 15.714c0 5.857-4.786 10.643-10.714 10.643-2.929 0-5.572-1.214-7.5-3.143L8.643 25.43c2.428 2.428 5.857 4 9.643 4C25.857 29.429 32 23.286 32 15.714 32 8.143 25.857 2 18.286 2zm-1.5 7.643v7.571l6.5 3.929 1.143-1.857-5.358-3.215V9.643h-2.285z"></path></g></svg>