<svg width="32" height="32" viewBox="0 0 32 32" xmlns="http://www.w3.org/2000/svg"><g class="nc-icon-wrapper" fill="#444444"><path d="M19.257 3c-.422 0-.871.282-1.012.704l-7.88 23.683c-.14.563.282.968.705.968h1.276c.423 0 .828-.281.969-.704l7.88-23.683c.14-.563-.282-.968-.705-.968h-1.233zM7.105 7.226a1.006 1.006 0 0 0-.528.264L.106 15.237a.97.97 0 0 0 0 .88l6.47 7.748c.282.282.722.414 1.145.132l.836-.704c.282-.282.414-.863.132-1.144l-5.458-6.471 5.326-6.471a.762.762 0 0 0-.132-1.145l-.704-.704a.814.814 0 0 0-.616-.132zm17.482 0a.864.864 0 0 0-.308.132l-.837.704c-.281.282-.413.863-.131 1.145l5.326 6.47-5.326 6.471a.762.762 0 0 0 .131 1.145l.837.704a.762.762 0 0 0 1.145-.132l6.47-7.747a.97.97 0 0 0 0-.88l-6.47-7.748a.927.927 0 0 0-.837-.264z"></path></g></svg>