<svg width="32" height="32" viewBox="0 0 32 32" xmlns="http://www.w3.org/2000/svg"><g class="nc-icon-wrapper" fill="#444444"><path d="M2.91 5h26.18A2.911 2.911 0 0 1 32 7.91v16a2.912 2.912 0 0 1-2.91 2.908H2.91A2.912 2.912 0 0 1 0 23.91v-16A2.911 2.911 0 0 1 2.91 5zm14.544 5.818a1.454 1.454 0 1 0-2.907-.001 1.454 1.454 0 0 0 2.907.001zM16 15.182a1.454 1.454 0 1 0-.001 2.908A1.454 1.454 0 0 0 16 15.182zm-2.91-4.364a1.454 1.454 0 1 0-2.907-.001 1.454 1.454 0 0 0 2.908.001zm-1.454 4.364a1.454 1.454 0 1 0 0 2.908 1.454 1.454 0 0 0 0-2.908zm-5.818 1.454a1.454 1.454 0 1 0 2.908.001 1.454 1.454 0 0 0-2.908 0zm1.455-4.363a1.454 1.454 0 1 0 0-2.908 1.454 1.454 0 0 0 0 2.908zM10.182 21v2.91h11.636V21H10.182zm10.182-2.91a1.454 1.454 0 1 0 0-2.907 1.454 1.454 0 0 0 0 2.908zm-1.455-7.272a1.454 1.454 0 1 0 2.908.001 1.454 1.454 0 0 0-2.908 0zm5.818 1.455a1.454 1.454 0 1 0 .001-2.908 1.454 1.454 0 0 0 0 2.908zm-1.454 4.363a1.454 1.454 0 1 0 2.908.001 1.454 1.454 0 0 0-2.908 0z"></path></g></svg>