<svg width="32" height="32" viewBox="0 0 32 32" xmlns="http://www.w3.org/2000/svg"><g class="nc-icon-wrapper" fill="#444444"><path d="M13.99 0v13.99H0c.447-3.646 2.01-6.846 4.614-9.45C7.219 1.935 10.344.372 13.991 0zm4.094 0c3.944.52 7.218 2.307 9.897 5.284C30.661 8.334 32 11.833 32 15.926c0 4.39-1.563 8.186-4.688 11.386C24.186 30.437 20.39 32 15.926 32c-4.093 0-7.591-1.34-10.568-4.019C2.307 25.302.521 22.028 0 18.01h16.149c.52 0 .967-.223 1.34-.595.371-.298.595-.744.595-1.34V0z"></path></g></svg>