<svg width="32" height="32" viewBox="0 0 32 32" xmlns="http://www.w3.org/2000/svg"><g class="nc-icon-wrapper" fill="#444444"><path d="M21.429 14c1.428.714 2.571 2.214 2.571 3.929 0 1.214-.214 1.5-1.071 1.5h-5.786L16.286 32h-.572l-.857-12.571H9.071c-.857 0-1.071-.358-1.071-1.5 0-1.715 1.143-3.215 2.571-3.929a.541.541 0 0 0 .286-.143c.5-.286.857-.786 1-1.357l1.286-8.429v-.357c0-.5-.286-.714-.714-.928-.072 0-.072-.072-.143-.072-.5-.214-.857-.643-.857-1.214 0-1.429.428-1.5 1.285-1.5h6.572c.857 0 1.285.071 1.285 1.5 0 .571-.357 1-.857 1.214-.071 0-.071.072-.143.072-.428.214-.714.428-.714.928v.357l1.286 8.429c.143.571.5 1.071 1 1.357a.54.54 0 0 0 .286.143z"></path></g></svg>