<svg width="32" height="32" viewBox="0 0 32 32" xmlns="http://www.w3.org/2000/svg"><g class="nc-icon-wrapper" fill="#444444"><g transform="translate(1121 325)"><path d="M-1105-293c-8.821 0-16-7.177-16-16s7.179-16 16-16 16 7.177 16 16-7.179 16-16 16zm0-28.444c-6.862 0-12.444 5.582-12.444 12.444 0 6.862 5.582 12.445 12.444 12.445 6.862 0 12.445-5.583 12.445-12.445s-5.583-12.444-12.445-12.444z"></path><path d="M-1097.539-309.005a7.467 7.467 0 1 1-14.933 0 7.467 7.467 0 0 1 14.933 0z"></path></g></g></svg>