<svg width="32" height="32" viewBox="0 0 32 32" xmlns="http://www.w3.org/2000/svg"><g class="nc-icon-wrapper" fill="#444444"><path d="M15.36 9.818h8.417a3.89 3.89 0 0 0 7.253-1.94A3.89 3.89 0 0 0 27.151 4c-1.435 0-2.676.776-3.374 1.94H11.21c1.706.814 3.064 2.25 4.15 3.878zm11.791-4.266a2.334 2.334 0 0 1 2.328 2.327 2.334 2.334 0 0 1-2.328 2.327 2.334 2.334 0 0 1-2.327-2.327 2.334 2.334 0 0 1 2.327-2.327zm-5.236 15.592c-1.706-.775-2.986-3.064-4.654-6.4-2.095-4.111-4.422-8.805-9.503-8.805h-.505A3.89 3.89 0 0 0 0 7.88a3.89 3.89 0 0 0 3.879 3.879c1.435 0 2.676-.776 3.374-1.94h.505c2.482 0 3.956 2.521 6.012 6.672 1.94 3.84 4.111 8.184 8.494 8.766l1.862-1.862-2.21-2.25zM3.88 10.206A2.334 2.334 0 0 1 1.552 7.88a2.334 2.334 0 0 1 2.327-2.327 2.334 2.334 0 0 1 2.327 2.327 2.334 2.334 0 0 1-2.327 2.327zM32 20.485l-1.9-1.9-2.949 2.908-2.909-2.909-1.9 1.9 2.909 2.91-2.91 2.909 1.901 1.9 2.91-2.909 2.909 2.91 1.9-1.901-2.909-2.91L32 20.486z"></path></g></svg>