<svg fill="none" height="32" viewBox="0 0 32 32" width="32" xmlns="http://www.w3.org/2000/svg"><path d="m9.6 1c-1.768 0-3.2 1.42803-3.2 3.19114v11.16896c0 1.7631 1.432 3.1911 3.2 3.1911h4.8v4.7868c0 1.744 1.4511 3.1911 3.2 3.1911h11.2c1.7489 0 3.2-1.4471 3.2-3.1911v-11.169c0-1.7441-1.4511-3.19116-3.2-3.19116h-4.8v-4.7867c0-1.76311-1.432-3.19114-3.2-3.19114zm14.4 11.169h4.8v11.169h-11.2v-4.7868h3.2c1.768 0 3.2-1.428 3.2-3.1911zm-24 6.3822v6.3823c0 1.7441 1.4511 3.1912 3.2 3.1912h4.8v3.1911l4.8-4.7867-4.8-4.7867v3.1911h-4.8v-6.3823z" fill="#000"/></svg>