<svg width="32" height="32" viewBox="0 0 32 32" xmlns="http://www.w3.org/2000/svg"><g class="nc-icon-wrapper" fill="#444444"><g transform="translate(2561 805)"><path fill-rule="evenodd" d="M-2557.8-805h25.6c1.766 0 3.2 1.436 3.2 3.2v25.6c0 1.764-1.434 3.2-3.2 3.2h-25.6a3.204 3.204 0 0 1-3.2-3.2v-25.6c0-1.764 1.435-3.2 3.2-3.2zm0 28.8h25.595l.005-25.6h-25.6v25.6z"></path><path d="M-2548.669-790.131l1.485 1.485 2.298-5.746c.235-.587.788-.98 1.42-1.006.62-.037 1.216.32 1.498.883l2.389 4.78 5.779-3.854v-6.611h-22.4v13.544l5.512-3.675a1.604 1.604 0 0 1 2.02.2z"></path><path d="M-2533.8-789.742l-5.512 3.676a1.602 1.602 0 0 1-2.318-.616l-1.607-3.215-1.877 4.693c-.2.5-.636.866-1.164.973a1.588 1.588 0 0 1-1.453-.437l-2.272-2.27-6.197 4.13v5.009h22.4v-11.943z"></path></g></g></svg>