<svg width="32" height="32" viewBox="0 0 32 32" xmlns="http://www.w3.org/2000/svg"><g class="nc-icon-wrapper" fill="#444444"><g transform="translate(1601 -251)"><path d="M-1585 265.933a3.738 3.738 0 0 0 3.733-3.733 3.738 3.738 0 0 0-3.733-3.733 3.738 3.738 0 0 0-3.733 3.733 3.738 3.738 0 0 0 3.733 3.733zm0 .934c-4.397 0-7.467 2.302-7.467 5.6v.933h14.934v-.933c0-3.298-3.07-5.6-7.467-5.6z"></path><path d="M-1569 267c0 8.837-7.163 16-16 16-8.836 0-16-7.163-16-16 0-8.838 7.164-16 16-16 8.837 0 16 7.162 16 16zm-2.133 0c0-7.658-6.209-13.867-13.867-13.867-7.658 0-13.867 6.209-13.867 13.867 0 7.658 6.209 13.867 13.867 13.867 7.658 0 13.867-6.209 13.867-13.867z"></path></g></g></svg>