<svg width="32" height="32" viewBox="0 0 32 32" xmlns="http://www.w3.org/2000/svg"><g class="nc-icon-wrapper" fill="#444444"><path d="M23.671 22.94c.073.366.073.731-.146 1.023a1.307 1.307 0 0 1-.73.658c-.366.146-.731.073-1.023-.073a1.053 1.053 0 0 1-.658-.804c-.365-1.096-1.023-2.045-1.972-2.703-.95-.657-1.973-1.023-3.142-1.023-1.169 0-2.192.366-3.142 1.023-.95.658-1.607 1.607-1.972 2.703a1.053 1.053 0 0 1-.658.804c-.292.146-.657.22-1.023.073a1.307 1.307 0 0 1-.73-.657c-.22-.293-.22-.658-.146-1.023.511-1.68 1.534-2.996 2.922-4.092 1.388-1.023 2.996-1.534 4.749-1.534 1.753 0 3.36.511 4.749 1.534 1.388 1.096 2.41 2.411 2.922 4.092zM13.297 10.668c0 .73-.22 1.388-.73 1.9-.512.51-1.17.73-1.9.73s-1.388-.22-1.9-.73a2.653 2.653 0 0 1-.804-1.9c0-.73.293-1.388.804-1.9a2.653 2.653 0 0 1 1.9-.804c.73 0 1.388.293 1.9.804.51.512.73 1.17.73 1.9zm10.74 0c0 .73-.293 1.388-.804 1.9-.512.51-1.17.73-1.9.73s-1.388-.22-1.9-.73c-.51-.512-.73-1.17-.73-1.9s.22-1.388.73-1.9a2.653 2.653 0 0 1 1.9-.804c.73 0 1.389.293 1.9.804.511.512.803 1.17.803 1.9zM29.37 16c0-1.826-.365-3.507-1.096-5.187a11.425 11.425 0 0 0-2.85-4.238 11.424 11.424 0 0 0-4.237-2.849c-1.68-.73-3.36-1.096-5.187-1.096-1.826 0-3.507.365-5.187 1.096a11.424 11.424 0 0 0-4.238 2.85 11.424 11.424 0 0 0-2.849 4.237c-.73 1.68-1.096 3.36-1.096 5.187 0 1.826.365 3.507 1.096 5.187a11.424 11.424 0 0 0 2.85 4.238 11.425 11.425 0 0 0 4.237 2.849c1.68.73 3.36 1.096 5.187 1.096 1.826 0 3.507-.365 5.187-1.096a11.425 11.425 0 0 0 4.238-2.85 11.425 11.425 0 0 0 2.849-4.237c.73-1.68 1.096-3.36 1.096-5.187zM32 16c0 2.922-.657 5.626-2.119 8.037-1.46 2.483-3.36 4.383-5.845 5.844C21.627 31.343 18.922 32 16 32c-2.922 0-5.626-.657-8.037-2.119-2.484-1.46-4.383-3.36-5.844-5.845C.658 21.627 0 18.922 0 16c0-2.922.658-5.626 2.119-8.037C3.579 5.48 5.479 3.58 7.963 2.12 10.374.658 13.078 0 16 0c2.922 0 5.626.658 8.037 2.119 2.483 1.46 4.383 3.36 5.844 5.844C31.343 10.374 32 13.078 32 16z"></path></g></svg>