<svg width="32" height="32" fill="none" xmlns="http://www.w3.org/2000/svg"><path fill-rule="evenodd" clip-rule="evenodd" d="M25.352 7.48l-1.646 2.06-6.294-5.036v19.809h-2.636V4.355l-6.48 5.183L6.65 7.481 16.001 0l9.351 7.48zM7.087 20.857c0 4.649 3.94 8.508 8.915 8.508s8.916-3.86 8.916-8.508c0-1.763-.56-3.4-1.526-4.762l2.15-1.524a10.828 10.828 0 012.012 6.286C27.553 27.06 22.33 32 16 32 9.673 32 4.45 27.06 4.45 20.856c0-2.334.745-4.5 2.012-6.286l2.15 1.524a8.193 8.193 0 00-1.526 4.762z" fill="#000"/></svg>