<svg width="32" height="32" viewBox="0 0 32 32" xmlns="http://www.w3.org/2000/svg"><g class="nc-icon-wrapper" fill="#444444"><path d="M22.7 11.35l5.744-5.743-2.12-2.051L20.65 9.23l2.05 2.12zm8.753-5.743c0 .342-.137.684-.342.889L5.95 31.658a1.132 1.132 0 0 1-.82.342c-.411 0-.685-.137-.89-.342L.342 27.761C.137 27.556 0 27.214 0 26.87c0-.341.137-.615.342-.888L25.504.889c.205-.274.479-.342.82-.342.411 0 .684.068.89.342l3.897 3.829c.205.273.342.547.342.889zM5.06 1.915l1.914.615-1.914.547-.616 1.914-.547-1.914-1.914-.547 1.914-.615L4.444 0l.616 1.915zm6.837 3.145l3.83 1.162-3.83 1.231-1.162 3.83-1.162-3.83-3.83-1.23 3.83-1.163 1.162-3.83 1.162 3.83zm18.188 9.367l1.915.547-1.915.616-.615 1.914-.547-1.914-1.914-.616 1.914-.547.547-1.914.616 1.914zM17.573 1.915l1.914.615-1.914.547-.616 1.914-.547-1.914-1.914-.547 1.914-.615L16.957 0l.616 1.915z"></path></g></svg>