<svg width="32" height="32" viewBox="0 0 32 32" xmlns="http://www.w3.org/2000/svg"><g class="nc-icon-wrapper" fill="#444444"><path fill-rule="evenodd" d="M22.998.906L23.902 0l.904.906 6.29 6.307.904.906-.904.906-5.937 5.95v4.533c2.86.59 5.032 3.153 5.032 6.187 0 3.468-2.83 6.305-6.29 6.305-3.458 0-6.29-2.837-6.29-6.305 0-3.034 2.173-5.597 5.033-6.187v-4.533L16.983 9.3h-4.521a6.373 6.373 0 0 1-4.914 4.927v5.162h5.032V32H0V19.389h5.032v-5.162C2.172 13.636 0 11.073 0 8.039c0-3.467 2.831-6.305 6.29-6.305 3.026 0 5.583 2.179 6.172 5.044h4.678L22.998.906zM10.063 8.04A3.759 3.759 0 0 0 6.29 4.256 3.76 3.76 0 0 0 2.516 8.04a3.76 3.76 0 0 0 3.774 3.784 3.76 3.76 0 0 0 3.773-3.784zM2.516 21.911h7.547v7.567H2.516v-7.567zm25.16 3.783a3.759 3.759 0 0 0-3.774-3.783 3.76 3.76 0 0 0-3.774 3.783 3.76 3.76 0 0 0 3.774 3.784 3.76 3.76 0 0 0 3.774-3.784z"></path></g></svg>