<svg xmlns="http://www.w3.org/2000/svg" width="24" height="24" viewBox="0 0 24 24"><circle cx="12.006" cy="11.699" r="2.6" fill="#5E5E5E"/><path d="M20.669,4.385,13.919.507a3.87,3.87,0,0,0-3.861.018l-8.7,5.023V6.5H17.2A3.9,3.9,0,0,0,20.669,4.385Z" fill="#5E5E5E"/><path d="M1.341,7.852s.017,7.772.017,7.786A3.866,3.866,0,0,0,3.3,18.972L12.007,24l.823-.475L4.9,9.8A3.9,3.9,0,0,0,1.341,7.852Z" fill="#5E5E5E"/><path d="M21.835,5.072,13.909,18.8a3.9,3.9,0,0,0,.1,4.057l6.734-3.908A3.864,3.864,0,0,0,22.657,15.6l0-10.051Z" fill="#5E5E5E"/></svg>