<svg xmlns="http://www.w3.org/2000/svg" width="20" height="19" viewBox="0 0 20 19">
  <g>
    <path d="M20 4.00195L0 4.00195 0 2C0 .896973.896973 0 2 0L18 0C19.104 0 20 .896973 20 2L20 4.00195zM6 1C5.44678 1 5 1.44678 5 2 5 2.37695 5.20703 2.7041 5.51416 2.87451 5.6582 2.95459 5.82373 3 6 3 6.55322 3 7 2.55322 7 2 7 1.74902 6.9082 1.52002 6.75586 1.34473 6.57275 1.1333 6.30225 1 6 1zM4 2C4 1.44678 3.55322 1 3 1 2.44678 1 2 1.44678 2 2 2 2.55322 2.44678 3 3 3 3.55322 3 4 2.55322 4 2zM0 6L20 6 20 17.001C20 18.104 19.104 19.001 18 19.001L2 19.001C.896973 19.001 0 18.104 0 17.001L0 6zM9 16.0039L9 13.00391 2 13.00391 2 16.0039 9 16.0039zM2 11.00391L9 11.00391 9 8.00391 2 8.00391 2 11.00391zM18 16.0039L18 13.00391 11 13.00391 11 16.0039 18 16.0039zM11 11.00391L18 11.00391 18 8.00391 11 8.00391 11 11.00391z"/>
  </g>
</svg>
