<svg fill="#000000" height="512" width="512" id="icon-assets" viewBox="0 0 512 512">
  <path d="m505 299c0 0-245 108-245 108-1 1-2 1-4 1-1 0-3 0-4-1 0 0-245-108-245-108-6-3-8-9-6-15 3-5 9-8 14-5 0 0 241 107 241 107 0 0 241-107 241-107 5-3 12 0 14 5 2 6 0 12-6 15z m0-66c0 0-245 109-245 109-1 1-2 1-4 1-1 0-3 0-4-1 0 0-245-109-245-109-6-2-8-8-6-14 3-6 9-8 14-6 0 0 241 107 241 107 0 0 241-107 241-107 5-2 12 0 14 6 2 6 0 12-6 14z m-245 44c-1 0-2 1-4 1-1 0-3-1-4-1 0 0-245-109-245-109-4-2-7-6-7-10 0-4 3-8 7-10 0 0 245-109 245-109 3-1 6-1 8 0 0 0 245 109 245 109 4 2 7 6 7 10 0 4-3 8-7 10 0 0-245 109-245 109z m-245 67c0 0 241 107 241 107 0 0 241-107 241-107 5-2 12 0 14 6 2 5 0 11-6 14 0 0-245 109-245 109-1 0-2 1-4 1-1 0-3-1-4-1 0 0-245-109-245-109-6-3-8-9-6-14 3-6 9-8 14-6z"/>
</svg>