<svg xmlns="http://www.w3.org/2000/svg" width="20" height="20" viewBox="0 0 20 20">
  <path d="M1.34326,0 L18.6567,0 C19.3984,0 20,0.598633 20,1.34375 L20,18.6562 C20,19.3984 19.4014,20 18.6567,20 L1.34326,20 C0.601562,20 0,19.4014 0,18.6562 L0,1.34375 C0,0.601562 0.598633,0 1.34326,0 Z M9.7334,3.60059 L8.66699,3.60059 C8.17285,3.60059 7.70312,3.75391 7.3335,4.02148 C6.96436,3.75391 6.49414,3.60059 6.00049,3.60059 L4.93359,3.60059 L4.93359,4.94629 L6.00049,4.94629 C6.35107,4.94629 6.6001,5.14941 6.6001,5.36426 L6.6001,10.6367 C6.6001,10.749 6.53223,10.8584 6.41748,10.9365 C6.3125,11.0088 6.16797,11.0547 6.00049,11.0547 L4.93359,11.0547 L4.93359,12.4004 L6.00049,12.4004 C6.49414,12.4004 6.96436,12.248 7.3335,11.9795 C7.70312,12.248 8.17285,12.4004 8.66699,12.4004 L9.7334,12.4004 L9.7334,11.0547 L8.66699,11.0547 C8.31592,11.0547 8.06689,10.8516 8.06689,10.6367 L8.06689,5.36426 C8.06689,5.14941 8.31592,4.94629 8.66699,4.94629 L9.7334,4.94629 L9.7334,3.60059 Z"/>
</svg>
