<svg width="32" height="32" viewBox="0 0 32 32" fill="none" xmlns="http://www.w3.org/2000/svg">
  <path d="M13.143 21.818h5.714c.786 0 1.429-.654 1.429-1.454V16c0-.8-.643-1.454-1.429-1.454V13.09c0-1.615-1.286-2.91-2.857-2.91-1.586 0-2.857 1.31-2.857 2.91v1.455c-.786 0-1.429.654-1.429 1.454v4.364c0 .8.643 1.454 1.429 1.454zm1.143-8.727c0-.96.771-1.745 1.714-1.745s1.714.785 1.714 1.745v1.455h-3.428V13.09zM23.143 0H8.857C7.286 0 6 1.31 6 2.91v26.18C6 30.69 7.286 32 8.857 32h14.286C24.714 32 26 30.69 26 29.09V2.91C26 1.31 24.714 0 23.143 0zm0 26.182H8.857V5.818h14.286v20.364z" fill="#000"/>
</svg>
