<svg xmlns="http://www.w3.org/2000/svg" version="1" viewBox="0 0 24 24" enable-background="new 0 0 24 24" width="24" height="24">
    <path style="text-indent:0;text-align:start;line-height:normal;text-transform:none;block-progression:tb;-inkscape-font-specification:Bitstream Vera Sans" d="M 12 2 C 10.3 2 9 3.3 9 5 L 9 12 C 9 13.7 10.3 15 12 15 C 13.7 15 15 13.7 15 12 L 15 5 C 15 3.3 13.7 2 12 2 z M 5 12 C 5 15.506094 7.6225843 18.416102 11 18.90625 L 11 22 L 13 22 L 13 18.90625 C 16.377416 18.416102 19 15.506094 19 12 L 17 12 C 17 14.754545 14.754545 17 12 17 C 9.2454545 17 7 14.754545 7 12 L 5 12 z" color="#000" overflow="visible" enable-background="accumulate" font-family="Bitstream Vera Sans"/>
</svg>