<svg enable-background="new 0 0 32 32" viewBox="0 0 32 32" xmlns="http://www.w3.org/2000/svg"><path d="m29.7 3.1v6.8h1.5v-9.4h-9.4v1.5h6.8l-17 16.9c-1.2-1-2.7-1.5-4.4-1.5-3.9 0-7.1 3.2-7.1 7 0 3.9 3.2 7 7.1 7s7.1-3.2 7.1-7c0-1.7-.6-3.2-1.6-4.4zm-17.1 21.4c0 3-2.5 5.5-5.5 5.5s-5.5-2.5-5.5-5.5 2.5-5.5 5.5-5.5 5.5 2.4 5.5 5.5zm-10.6-12.9 4.2-4.2 4.2 4.2 1.1-1.1-4.2-4.1 4.2-4.2-1.1-1.1-4.2 4.2-4.2-4.2-1 1.1 4.2 4.2-4.2 4.1zm30 8.6-1.1-1.1-4.2 4.2-4.2-4.2-1.1 1.1 4.2 4.2-4.2 4.2 1.1 1.1 4.2-4.2 4.2 4.2 1.1-1.1-4.2-4.2z"/></svg>