<svg xmlns="http://www.w3.org/2000/svg" viewBox="0 0 24 24" width="24" height="24">
    <path style="text-indent:0;text-align:start;line-height:normal;text-transform:none;block-progression:tb;-inkscape-font-specification:Sans" d="M 6 2 C 4.3549904 2 3 3.3549904 3 5 C 3 6.292018 3.8442552 7.3942821 5 7.8125 L 5 15 C 5 17.749516 7.2504839 20 10 20 L 11 20 L 11 22 L 14 19 L 11 16 L 11 18 L 10 18 C 8.3315161 18 7 16.668484 7 15 L 7 7.8125 C 8.1557448 7.3942821 9 6.292018 9 5 C 9 3.3549904 7.6450096 2 6 2 z M 13 2 L 10 5 L 13 8 L 13 6 L 14 6 C 15.668484 6 17 7.3315161 17 9 L 17 16.1875 C 15.844255 16.605718 15 17.707982 15 19 C 15 20.64501 16.35499 22 18 22 C 19.64501 22 21 20.64501 21 19 C 21 17.707982 20.155745 16.605718 19 16.1875 L 19 9 C 19 6.2504839 16.749516 4 14 4 L 13 4 L 13 2 z M 6 4 C 6.5641294 4 7 4.4358706 7 5 C 7 5.5641294 6.5641294 6 6 6 C 5.4358706 6 5 5.5641294 5 5 C 5 4.4358706 5.4358706 4 6 4 z M 18 18 C 18.564128 18 19 18.435872 19 19 C 19 19.564128 18.564128 20 18 20 C 17.435872 20 17 19.564128 17 19 C 17 18.435872 17.435872 18 18 18 z" color="#000" overflow="visible" font-family="Sans"/>
</svg>