<svg enable-background="new 0 0 33 32" viewBox="0 0 33 32" xmlns="http://www.w3.org/2000/svg"><path d="m23.2 10.3-3.3-3.3h8.3v7.4h1.5v-9h-9.8l3.3-3.3-1-1.1-5.2 5.2 5.1 5.1zm-9.8-4.1c0-3.4-2.8-6.2-6.2-6.2s-6.2 2.8-6.2 6.2 2.8 6.2 6.2 6.2 6.2-2.8 6.2-6.2zm-10.9 0c0-2.6 2.1-4.7 4.7-4.7s4.7 2.1 4.7 4.7-2.1 4.7-4.7 4.7-4.7-2.1-4.7-4.7zm23.7 12.8c-3.4 0-6.2 2.8-6.2 6.2s2.8 6.2 6.2 6.2 6.2-2.8 6.2-6.2-2.8-6.2-6.2-6.2zm0 10.9c-2.6 0-4.7-2.1-4.7-4.7s2.1-4.7 4.7-4.7 4.7 2.1 4.7 4.7-2.1 4.7-4.7 4.7zm-16-8.7 3.3 3.3h-8.3v-7.4h-1.5v8.9h9.8l-3.3 3.3 1.1 1.1 5.1-5.1-5.1-5.1z"/></svg>