<svg fill="#000000" height="512" width="512" id="icon-tree" viewBox="0 0 512 512">
  <path d="m459 379l0-59c0-36-23-88-88-88l-51 0c-36 0-39-18-40-27l0-72c22-9 37-31 37-56 0-34-27-62-61-62-34 0-61 28-61 62 0 25 15 47 37 56l0 72c0 6-2 27-40 27l-51 0c-65 0-89 52-89 88l0 59c-21 9-37 31-37 56 0 34 28 62 62 62 34 0 61-28 61-62 0-25-15-47-37-56l0-59c0-7 2-40 40-40l51 0c16 0 29-2 40-6l0 105c-22 9-37 31-37 56 0 34 27 62 61 62 34 0 61-28 61-62 0-25-15-47-37-56l0-105c11 4 24 6 40 6l51 0c36 0 40 31 40 40l0 59c-22 9-37 31-37 56 0 34 27 62 61 62 34 0 62-28 62-62 0-25-16-47-38-56z m-347 56c0 20-16 36-35 36-20 0-36-16-36-36 0-19 16-35 36-35 19 0 35 16 35 35z m109-358c0-20 15-36 35-36 20 0 35 16 35 36 0 19-15 35-35 35-20 0-35-16-35-35z m70 358c0 20-15 36-35 36-20 0-35-16-35-36 0-19 15-35 35-35 20 0 35 16 35 35z m144 36c-19 0-35-16-35-36 0-19 16-35 35-35 20 0 36 16 36 35 0 20-16 36-36 36z"/>
</svg>