<?xml version="1.0" encoding="utf-8"?>
<!-- Generator: Adobe Illustrator 17.1.0, SVG Export Plug-In . SVG Version: 6.00 Build 0)  -->
<!DOCTYPE svg PUBLIC "-//W3C//DTD SVG 1.1//EN" "http://www.w3.org/Graphics/SVG/1.1/DTD/svg11.dtd">
<svg version="1.1" id="Layer_1" xmlns="http://www.w3.org/2000/svg" xmlns:xlink="http://www.w3.org/1999/xlink" x="0px" y="0px"
	 viewBox="0 0 102 102" enable-background="new 0 0 102 102" xml:space="preserve">
<g>
	<path fill-rule="evenodd" clip-rule="evenodd" fill="#899C9D" d="M90,18.2c2.8,3.4,5.2,7,7,10.8L29,97c-3.8-1.8-7.5-4.2-10.8-7
		L90,18.2L90,18.2z M12,83.8L83.8,12c-3.4-2.8-7-5.2-10.8-7L5,73C6.8,76.8,9.1,80.4,12,83.8L12,83.8z M1.6,63.8L63.8,1.6
		c-16.9-4.4-35.6,0-48.9,13.3C1.7,28.2-2.8,46.9,1.6,63.8L1.6,63.8z M100.3,38.1l-62.2,62.2c16.9,4.4,35.6,0,48.9-13.3
		C100.3,73.8,104.7,55.1,100.3,38.1z"/>
</g>
</svg>
