<svg width="32" height="32" viewBox="0 0 32 32" xmlns="http://www.w3.org/2000/svg"><g class="nc-icon-wrapper" fill="#000000"><path fill-rule="evenodd" d="M0 1.334C0 .597.589 0 1.315 0h28.92c.726 0 1.315.597 1.315 1.334v29.332c0 .737-.589 1.334-1.315 1.334H1.315A1.325 1.325 0 0 1 0 30.666V1.334zM2.302 6.4V2.334h26.947V6.4H2.302zm0 1.75v21.516h8.08V8.15h-8.08zm9.806 0v21.516h17.14V8.15h-17.14zm2.405 3.05h12.62v4h-12.62v-4zm12.62 5.92h-12.62v4h12.62v-4zm-12.62 6.08h12.62v4h-12.62v-4zm-6.783-12H4.575v16H7.73v-16z"></path></g></svg>