<svg width="32" height="32" viewBox="0 0 32 32" xmlns="http://www.w3.org/2000/svg"><g class="nc-icon-wrapper" fill="#444444"><path d="M30.313 32H28.75a.688.688 0 0 1-.688-.677V13.785c0-.37.313-.677.688-.677h1.563c.375 0 .687.307.687.677v17.538c0 .37-.313.677-.688.677zm-6.75 0H22a.688.688 0 0 1-.688-.677V.677c0-.37.313-.677.688-.677h1.563c.375 0 .687.308.687.677v30.646c0 .37-.313.677-.688.677zm-6.75 0H15.25a.688.688 0 0 1-.688-.677V12.677c0-.37.313-.677.688-.677h1.563c.375 0 .687.308.687.677v18.646c0 .37-.313.677-.688.677zM10 32H8.437c-.374 0-.624-.308-.624-.677V10.031c0-.37.25-.677.625-.677H10c.375 0 .688.308.688.677v21.292c0 .37-.313.677-.688.677zm-6.75 0H1.687A.688.688 0 0 1 1 31.323v-6.646c0-.37.313-.677.688-.677H3.25c.375 0 .688.308.688.677v6.646c0 .37-.313.677-.688.677z"></path></g></svg>