<svg width="32" height="32" viewBox="0 0 32 32" xmlns="http://www.w3.org/2000/svg"><g class="nc-icon-wrapper" fill="#444444"><path d="M0 25.69h8.814V32H0v-6.31zm0-8.563h8.814v6.31H0v-6.31zm0-8.564h8.814v6.31H0v-6.31zM0 0h8.814v6.31H0V0zm11.17 25.69h8.813V32h-8.814v-6.31zm0-8.563h8.813v6.31h-8.814v-6.31zm0-8.564h8.813v6.31h-8.814v-6.31zm0-8.563h8.813v6.31h-8.814V0zm11.016 25.69H31V32h-8.814v-6.31zm0-8.563H31v6.31h-8.814v-6.31zm0-8.564H31v6.31h-8.814v-6.31zm0-8.563H31v6.31h-8.814V0z"></path></g></svg>