<svg width="32" height="32" viewBox="0 0 32 32" xmlns="http://www.w3.org/2000/svg"><g class="nc-icon-wrapper" fill="#444444"><g transform="translate(2369 613)"><path d="M-2345.667-598.333c4.78 0 8.667 3.888 8.667 8.666 0 4.779-3.888 8.667-8.667 8.667-4.778 0-8.666-3.888-8.666-8.667 0-4.778 3.888-8.666 8.666-8.666zm-3.95 3.619a1.1 1.1 0 0 0-1.097 1.097v7.131h1.097v-7.131h5.486v-1.097h-5.486zm2.194 3.291h4.937v6.583h-4.937v-6.583zm0-1.097a1.1 1.1 0 0 0-1.097 1.097v6.583a1.1 1.1 0 0 0 1.097 1.097h4.937a1.1 1.1 0 0 0 1.097-1.097v-6.583a1.1 1.1 0 0 0-1.097-1.097h-4.937z"></path><path d="M-2341-609.667v2h-28v-2a3.336 3.336 0 0 1 3.333-3.333h21.334a3.337 3.337 0 0 1 3.333 3.333zm-23.333.667a.668.668 0 1 0-.003-1.336.668.668 0 0 0 .003 1.336zm2.666 0a.668.668 0 1 0-.002-1.336.668.668 0 0 0 .002 1.336zm2.667 0a.668.668 0 1 0-.002-1.336A.668.668 0 0 0-2359-609z"></path><path d="M-2341-598.505v-7.828h-28v12.666a3.336 3.336 0 0 0 3.333 3.334h10.034c.477-7.195 8.236-11.559 14.633-8.172z"></path></g></g></svg>