<svg width="32" height="32" viewBox="0 0 32 32" xmlns="http://www.w3.org/2000/svg"><g class="nc-icon-wrapper" fill="#444444"><path d="M15.714 32C8.143 32 2 29.929 2 27.429v-4.572c0-.428.214-.786.5-1.143 1.5 2 6.857 3.429 13.214 3.429s11.715-1.429 13.215-3.429c.285.357.5.715.5 1.143v4.572c0 2.5-6.143 4.571-13.715 4.571zm0-9.143C8.143 22.857 2 20.786 2 18.286v-4.572c0-.214.071-.5.214-.714.072-.143.143-.286.286-.429C4 14.571 9.357 16 15.714 16s11.715-1.429 13.215-3.429c.142.143.214.286.285.429.143.214.215.5.215.714v4.572c0 2.5-6.143 4.571-13.715 4.571zm0-9.143C8.143 13.714 2 11.643 2 9.143V6.857 4.571C2 2.071 8.143 0 15.714 0 23.286 0 29.43 2.071 29.43 4.571v4.572c0 2.5-6.143 4.571-13.715 4.571zm0-11.428c-5.071 0-9.143 1-9.143 2.285 0 1.286 4.072 2.286 9.143 2.286 5.072 0 9.143-1 9.143-2.286 0-1.285-4.071-2.285-9.143-2.285z"></path></g></svg>