<svg width="32" height="32" viewBox="0 0 32 32" xmlns="http://www.w3.org/2000/svg"><g class="nc-icon-wrapper" fill="#444444"><path d="M32 28.196c0 .224-.112.56-.336.671l-1.678 1.678c-.112.224-.448.336-.671.336-.336 0-.56-.112-.784-.335L16 17.901 3.469 30.545c-.224.224-.448.336-.784.336-.223 0-.56-.112-.671-.335L.336 28.867C.112 28.755 0 28.42 0 28.196c0-.336.112-.56.336-.783l14.88-14.882c.225-.223.56-.335.784-.335.224 0 .56.112.783.335l14.881 14.882c.224.223.336.447.336.783zm0-12.308c0 .336-.112.56-.336.783l-1.678 1.567c-.112.224-.448.335-.671.335-.336 0-.56-.111-.784-.335L16 5.706 3.469 18.238c-.224.224-.448.335-.784.335-.223 0-.56-.111-.671-.335L.336 16.67C.112 16.448 0 16.224 0 15.888c0-.224.112-.56.336-.671L15.216.224C15.442.112 15.777 0 16 0c.224 0 .56.112.783.224l14.881 14.993c.224.112.336.447.336.671z"></path></g></svg>