<svg width="32" height="32" viewBox="0 0 32 32" xmlns="http://www.w3.org/2000/svg"><g class="nc-icon-wrapper" fill="#444444"><g transform="translate(1793 -59)"><path fill-rule="evenodd" d="M-1789.862 86.46l4.518-4.604c-4.311-2.613-7.143-6.322-7.33-6.598-.435-.572-.435-1.126 0-1.698.29-.428 6.976-9.159 15.674-9.159 2.543 0 4.913.746 7.003 1.813l4.135-4.214 1.638 1.564L-1788.249 88l-1.613-1.54zm7.292-7.432l2.567-2.617a3.524 3.524 0 0 1-.621-2.002c0-1.974 1.623-3.574 3.624-3.574.71 0 1.372.201 1.93.549l2.568-2.616c-1.229-.948-2.786-1.507-4.498-1.507-4.059 0-7.248 3.145-7.248 7.148 0 1.775.627 3.38 1.678 4.62z"></path><path d="M-1780.84 83.864c1.222.349 2.508.554 3.84.554 8.698 0 15.384-8.73 15.674-9.16.435-.572.435-1.126 0-1.698-.145-.215-1.898-2.516-4.706-4.757l-3.904 3.97c.12.524.184 1.072.184 1.636 0 4.004-3.19 7.149-7.248 7.149-.494 0-.975-.047-1.439-.136l-2.4 2.442z"></path></g></g></svg>