<svg width="32" height="32" viewBox="0 0 32 32" xmlns="http://www.w3.org/2000/svg"><g class="nc-icon-wrapper" fill="#444444"><path d="M22.714 15.214c1.5-1.643 2.429-3.785 2.429-6.071C25.143 4.143 21 0 16 0c-5 0-9.143 4.143-9.143 9.143 0 5 4.143 9.143 9.143 9.143 1.857 0 3.429-.572 4.786-1.357 5.071 1.785 8.357 6.357 8.785 11.642H2.286C2.643 25 4.214 21.714 7 19.286c.429-.429.571-1.143.071-1.572-.428-.428-1.142-.571-1.571-.143C1.929 20.714 0 25 0 29.714c0 .715.429 1.143 1.143 1.143h29.714c.714 0 1.143-.428 1.143-1.143 0-6.285-3.643-11.857-9.286-14.5zM9.143 9.143A6.859 6.859 0 0 1 16 2.286a6.859 6.859 0 0 1 6.857 6.857A6.859 6.859 0 0 1 16 16a6.859 6.859 0 0 1-6.857-6.857z"></path></g></svg>