<svg width="32" height="32" viewBox="0 0 32 32" xmlns="http://www.w3.org/2000/svg"><g class="nc-icon-wrapper" fill="#444444"><g transform="translate(1217 229)"><path d="M-1217-206.666a2.67 2.67 0 0 0 2.667 2.667h12v2.666h-5.334v2.667h13.334v-2.667h-5.334v-2.666h12a2.67 2.67 0 0 0 2.667-2.667v-1.333h-32v1.333z"></path><path d="M-1185-214.667v-10.666a2.67 2.67 0 0 0-2.667-2.667h-26.666a2.67 2.67 0 0 0-2.667 2.667v2.665h2.667v4h2.666v-4H-1201v1.333c0-.734.596-1.333 1.333-1.333.76 0 .444.06 2.667 3.29 2.223-3.23 1.907-3.29 2.667-3.29.737 0 1.333.599 1.333 1.333V-212h-2.667v-5.291l-.39.585c-.21.318-.563.507-.943.507-.379 0-.733-.19-.943-.505l-.39-.586V-212H-1201v-8h-2.667v8h-2.666v-8H-1209v8h-2.667v-4h-2.666v4H-1217v2.667h32V-212h-6.667v-10.667h2.667v8h4z"></path></g></g></svg>