<svg width="32" height="32" viewBox="0 0 32 32" xmlns="http://www.w3.org/2000/svg"><g class="nc-icon-wrapper" fill="#444444"><path d="M16 0C7.2 0 0 7.2 0 16s7.2 16 16 16 16-7.2 16-16S24.8 0 16 0zm0 2.55c1.763 0 3.45.318 5 .95-.038.425-.37.89-.5 1.15-.16.48-.52 1.13-1 1.45-.32.32-.77.78-1.25 1.1-.48.32-.97.78-1.45 1.1-.32.16-.49.35-.65.35H16c-.32-.32-.3-1.12-.3-1.6 0-.8.46-1.3.3-2.1 0-.16-.15-1.45-.15-1.45-.64-.16-1.31 0-1.15-.8.008-.023.04-.028.05-.05.417-.04.824-.1 1.25-.1zm-6.15 2.4c.485-.01.95.03 1.35.15.48.16.98.48 1.3.8.32.32.8.82.8 1.3 0 .16-.04.14-.2.3-.16.16-.29.2-.45.2-.48 0-.98-.04-1.3-.2l-.65-.6c-.96-.32-2.39 1.76-2.55 2.4-.16.48-.15 1.59.65 1.75.48 0 1.42-.98 1.9-1.3.32-.16.48-.29.8-.45 1.28-.16 2.28.93 2.6 2.05.48 1.28-1.94 2.23-2.9 2.55-.32.16-.48-.16-.8 0-.8.32-1.75 1.29-1.75 2.25-.16.8-.19 1.6-.35 2.4-.16 0-.3.01-.3-.15v-.3c0-.48-.17-1.14-.65-1.3-.16-.16-.14-.15-.3-.15-.48 0-.97-.47-1.45-.15-.32.32-.65.77-.65 1.25 0 .16-.01.34.15.5.32.16.68-.16 1 0 .32 0 .3.29.3.45.32.48.62 1.14 1.1 1.3H10.7c.48.16 1.28.33 1.6.65.16.32.19.63.35.95.8.8 1.74.78 2.7 1.1.32.16.5.33.5.65.16.48.01 1.13-.15 1.45-.16.48-.33 1.13-.65 1.45-.32.32-.63.49-.95.65-.48.32-.82.92-1.3 1.4 0 .08-.17.39-.35.65A13.576 13.576 0 0 1 9 27.45a5.113 5.113 0 0 1-.05-.55c-.16-.48-.29-1.12-.45-1.6-.32-.8-1-1.64-1-2.6 0-.8.18-1.56-.3-2.2-.64-.8-1.91-.82-2.55-1.3a7.893 7.893 0 0 1-2-1.95c-.04-.417-.1-.824-.1-1.25 0-4.345 2.15-8.235 5.4-10.7.629-.188 1.28-.337 1.9-.35zm14.6.65c3.024 2.475 5 6.235 5 10.4 0 4.446-2.221 8.446-5.6 10.9-.161-.515-.385-1.026-.5-1.6-.32-.64-.49-1.31-.65-1.95-.16-.48-.12-1.27-.6-1.75-.16-.32-.48-.34-.8-.5-1.12-.48-2.6.17-3.4-.95-.32-.48-.15-.96-.15-1.6.32-.48.48-.97.8-1.45.32-.8.79-1.4.95-2.2.16-.32.04-.83.2-1.15.16-.16.48-.29.8-.45.16-.16.3-.19.3-.35 0-.16-.15-.14-.15-.3 0-.16.14-.49.3-.65.8-.8 1.6-1.45 2.4-2.25.16 0 .15-.15.15-.15.16-.16.01-.3-.15-.3-.32-.16-.48-.19-.8-.35-.16 0-.3.01-.3-.15-.16-.16-.01-.49.15-.65l.95-1.45c.311-.311.641-.92 1.1-1.1z"></path></g></svg>