<svg width="32" height="32" viewBox="0 0 32 32" xmlns="http://www.w3.org/2000/svg"><g class="nc-icon-wrapper" fill="#000000"><path fill-rule="evenodd" d="M13.013 2h5.974c.825 0 1.493.665 1.493 1.485v5.94c0 .325-.105.627-.285.872L26.71 21.09h3.798c.825 0 1.493.665 1.493 1.485v5.94c0 .819-.668 1.484-1.493 1.484h-5.974a1.489 1.489 0 0 1-1.493-1.485v-2.333H8.96v2.333c0 .82-.668 1.485-1.493 1.485H1.493A1.489 1.489 0 0 1 0 28.515v-5.94c0-.819.668-1.484 1.493-1.484h3.798l6.514-10.794a1.473 1.473 0 0 1-.285-.873v-5.94c0-.819.668-1.484 1.493-1.484zM23.83 21.266c-.47.25-.79.743-.79 1.31v1.06H8.96v-1.06c0-.567-.319-1.06-.788-1.31l6.25-10.357h3.157l6.25 10.357z"></path></g></svg>