<svg width="32" height="32" viewBox="0 0 32 32" xmlns="http://www.w3.org/2000/svg"><g class="nc-icon-wrapper" fill="#444444"><path d="M16 0c8.857 0 16 7.143 16 16s-7.143 16-16 16S0 24.857 0 16 7.143 0 16 0zm12.714 10.857c-.714-1.714-1.643-3.214-3-4.571-1.357-1.357-2.928-2.286-4.643-3l-1.357 4.357A8.75 8.75 0 0 1 22.43 9.5c.785.786 1.5 1.714 1.928 2.714l4.357-1.357zM16 22.857A6.859 6.859 0 0 0 22.857 16 6.859 6.859 0 0 0 16 9.143 6.859 6.859 0 0 0 9.143 16 6.859 6.859 0 0 0 16 22.857zM6.286 6.286c-1.357 1.357-2.286 2.928-3 4.643l4.357 1.357A8.75 8.75 0 0 1 9.5 9.57c.786-.785 1.714-1.5 2.714-1.928l-1.357-4.357c-1.714.714-3.214 1.643-4.571 3zm-3 14.857c.714 1.714 1.643 3.214 3 4.571 1.357 1.357 2.928 2.286 4.643 3l1.357-4.357A8.748 8.748 0 0 1 9.57 22.5c-.785-.786-1.5-1.714-1.928-2.714l-4.357 1.357zm22.428 4.571c1.357-1.357 2.286-2.928 3-4.643l-4.357-1.357A8.748 8.748 0 0 1 22.5 22.43c-.786.785-1.714 1.5-2.714 1.928l1.357 4.357c1.714-.714 3.214-1.643 4.571-3z"></path></g></svg>