<svg width="32" height="32" viewBox="0 0 32 32" xmlns="http://www.w3.org/2000/svg"><g class="nc-icon-wrapper" fill="#444444"><path d="M4.28 0C2.475 0 1 1.447 1 3.215v24.113c0 1.768 1.476 3.215 3.28 3.215h15.422c-2.93 0-5.57-1.249-7.48-3.215H4.279V3.215h18.037v6.782c1.184.296 2.294.754 3.279 1.406V3.215c0-1.768-1.476-3.215-3.28-3.215H4.28zm3.279 6.43v3.215h11.477V6.43H7.56zm12.143 4.823c-4.897 0-8.864 3.889-8.864 8.69 0 4.802 3.967 8.741 8.865 8.741a8.975 8.975 0 0 0 5.021-1.557L29.694 32 32 29.74l-4.97-4.873c.983-1.402 1.588-3.098 1.588-4.924 0-4.801-4.018-8.69-8.915-8.69zM7.56 12.86v3.215h2.408c.5-1.202 1.253-2.289 2.152-3.215h-4.56zm12.143 1.859c2.939 0 5.33 2.342 5.33 5.225 0 2.882-2.39 5.224-5.33 5.224s-5.328-2.342-5.328-5.224c0-2.883 2.389-5.225 5.329-5.225zm-2.818 2.964c-.521.624-.87 1.392-.87 2.26 0 .99.414 1.908 1.075 2.563h5.227v-4.823h-5.432zM7.56 19.29v3.216h1.947c-.21-.82-.308-1.69-.308-2.563 0-.226.037-.43.052-.653H7.559z"></path></g></svg>