<svg width="32" height="32" viewBox="0 0 32 32" xmlns="http://www.w3.org/2000/svg"><g class="nc-icon-wrapper" fill="#444444"><path d="M32 13.85c0 .214 0 .428-.071.642-.286.571-1.071.857-1.642.5a1.357 1.357 0 0 1-.5-.786c0-.357-.071-.642-.143-1-.357-1.427-.856-2.855-1.57-4.14a13.027 13.027 0 0 0-3.356-3.997c-1.285-1.071-2.784-1.857-4.426-2.356-1.428-.5-2.998-.643-4.569-.643h-.285c-.214 0-.429 0-.643.072-.5 0-.928.071-1.428.142-.928.215-1.784.429-2.64.786-1.5.642-2.856 1.427-4.07 2.498a13.72 13.72 0 0 0-2.998 3.713c-.857 1.499-1.428 3.212-1.714 4.997-.142.785-.214 1.57-.142 2.427 0 .357 0 .785.071 1.142.071.428.143.928.214 1.357.357 1.713 1 3.355 1.999 4.783.928 1.427 2.07 2.712 3.427 3.712a15.005 15.005 0 0 0 4.64 2.356c1.785.5 3.64.713 5.497.5 1.785-.143 3.498-.572 5.14-1.357.785-.428 1.57-.857 2.284-1.428.714-.5 1.357-1.07 1.928-1.713.285-.357.57-.643.857-1 .214-.356.5-.713.713-1.07.429-.714.857-1.428 1.214-2.213.214-.572.5-1.214.785-1.785.072-.286.214-.643.286-.928.071-.286.071-.5.143-.785.07.642 0 1.213-.072 1.856-.071.357-.143.785-.285 1.142-.072.357-.215.714-.357 1.07-.214.643-.571 1.357-.928 2-.357.785-.857 1.499-1.428 2.141-.571.643-1.142 1.285-1.785 1.856-1.356 1.071-2.855 2-4.426 2.57-1.642.643-3.427 1-5.14 1.071a15.388 15.388 0 0 1-5.425-.785 15.002 15.002 0 0 1-4.64-2.356c-1.357-1-2.57-2.213-3.499-3.57-.5-.713-1-1.427-1.356-2.212-.357-.786-.714-1.571-.928-2.356a15.709 15.709 0 0 1-.714-3.998 13.408 13.408 0 0 1 .428-4.14c.357-1.714 1-3.356 1.928-4.855.785-1.285 1.856-2.499 2.998-3.57 1.214-1.07 2.499-1.927 3.926-2.57A16.648 16.648 0 0 1 14.581.072C15.295 0 16.01 0 16.651 0c.928 0 1.857.143 2.713.286 1.713.356 3.355.999 4.855 1.856 1.57.928 2.927 2.07 4.069 3.426 1.07 1.285 1.927 2.642 2.57 4.212.285.714.57 1.5.785 2.213.143.643.214 1.214.357 1.856z"></path></g></svg>