<svg width="32" height="32" viewBox="0 0 32 32" xmlns="http://www.w3.org/2000/svg"><g class="nc-icon-wrapper" fill="#444444"><path d="M16 10.213A5.782 5.782 0 0 0 10.213 16c0 3.2 2.587 5.787 5.787 5.787 3.2 0 5.787-2.587 5.787-5.787 0-3.2-2.587-5.787-5.787-5.787zm13.004 4.357C28.324 8.51 23.49 3.677 17.43 2.996V0h-2.86v2.996C8.51 3.676 3.677 8.51 2.996 14.57H0v2.86h2.996c.68 6.06 5.515 10.893 11.574 11.574V32h2.86v-2.996c6.06-.68 10.893-5.515 11.574-11.574H32v-2.86h-2.996zM16 26.145A10.083 10.083 0 0 1 5.855 16 10.083 10.083 0 0 1 16 5.855 10.083 10.083 0 0 1 26.145 16 10.083 10.083 0 0 1 16 26.145z"></path></g></svg>