<svg width="32" height="32" viewBox="0 0 32 32" xmlns="http://www.w3.org/2000/svg"><g class="nc-icon-wrapper" fill="#444444"><g transform="translate(1505 229)"><path d="M-1473-207.845v-10.318a.51.51 0 0 0-.365-.489l-4.774-1.416c.37-.904.6-1.801.6-2.634a6.305 6.305 0 0 0-6.298-6.298 6.305 6.305 0 0 0-6.298 6.298c0 .833.23 1.73.6 2.634l-4.628 1.373-10.181-3.02a.511.511 0 0 0-.656.489v20.652a.51.51 0 0 0 .365.489l10.319 3.062.007.002h.005a.492.492 0 0 0 .207.016l.015-.002a.51.51 0 0 0 .059-.013l.005-.001.005-.002 9.97-2.958a.507.507 0 0 0 .413 0l9.974 2.96a.512.512 0 0 0 .656-.49v-10.33-.004zm-1.021-9.936v9.26l-9.305-2.76v-1.453c.665-.686 3.28-3.472 4.757-6.397l4.548 1.35zm-9.816-10.198a5.283 5.283 0 0 1 5.277 5.277c0 .83-.278 1.753-.71 2.688a.512.512 0 0 0-.052.111c-1.23 2.598-3.61 5.26-4.515 6.223-.905-.962-3.283-3.62-4.514-6.217a.51.51 0 0 0-.056-.121c-.43-.934-.707-1.856-.707-2.684a5.283 5.283 0 0 1 5.277-5.277zm-.51 15.245v1.452l-9.306 2.761v-9.26l4.548-1.35c1.477 2.925 4.091 5.711 4.757 6.397zm-19.632 2.518l3.528 1.047a.51.51 0 1 0 .29-.98l-3.818-1.133v-9.26l9.305 2.76v9.261l-3.528-1.047a.51.51 0 1 0-.29.98l3.818 1.132v9.261l-9.305-2.76v-9.261zm20.653 9.26v-3.696a.51.51 0 0 0-1.022 0v3.696l-9.305 2.761v-9.26l9.305-2.761v3.521a.51.51 0 1 0 1.022 0v-3.521l9.305 2.76v9.261l-9.305-2.76z"></path><path d="M-1483.837-219.128a3.578 3.578 0 0 0 3.574-3.574 3.579 3.579 0 0 0-3.574-3.575 3.579 3.579 0 0 0-3.575 3.575 3.579 3.579 0 0 0 3.575 3.574zm0-6.127a2.556 2.556 0 0 1 2.553 2.553 2.556 2.556 0 0 1-2.553 2.553 2.556 2.556 0 0 1-2.553-2.553 2.556 2.556 0 0 1 2.553-2.553z"></path></g></g></svg>