<svg width="32" height="32" viewBox="0 0 32 32" xmlns="http://www.w3.org/2000/svg"><g class="nc-icon-wrapper" fill="#444444"><g transform="translate(2273 709)"><path d="M-2245.228-690.772a11.688 11.688 0 0 1-2.21 5.89l2.304 2.364a15.047 15.047 0 0 0 3.134-8.252h-3.228v-.002z"></path><path d="M-2254.86-680.348v3.347c2.795-.316 5.352-1.456 7.442-3.177l-2.302-2.36a11.085 11.085 0 0 1-5.14 2.19z"></path><path d="M-2242.13-694.086c-.42-2.805-1.6-5.443-3.45-7.596l-2.42 2.194a11.693 11.693 0 0 1 2.598 5.402h3.273z"></path><path d="M-2263.78-704.687c-4.31 2.592-7.22 7.384-7.22 12.871 0 7.662 5.66 13.988 12.912 14.816v-3.347c-5.467-.809-9.684-5.636-9.684-11.467 0-4.55 2.57-8.485 6.291-10.384l5.007 5.41V-709h-11.298l3.991 4.313z"></path></g></g></svg>