<svg width="32" height="32" viewBox="0 0 32 32" xmlns="http://www.w3.org/2000/svg"><g class="nc-icon-wrapper" fill="#444444"><path d="M0 3.556h3.556V0A3.566 3.566 0 0 0 0 3.556zm0 14.222h3.556v-3.556H0v3.556zM7.111 32h3.556v-3.556H7.11V32zM0 10.667h3.556V7.11H0v3.556zM17.778 0h-3.556v3.556h3.556V0zm10.666 0v3.556H32C32 1.6 30.4 0 28.444 0zM3.556 32v-3.556H0C0 30.4 1.6 32 3.556 32zM0 24.889h3.556v-3.556H0v3.556zM10.667 0H7.11v3.556h3.556V0zm3.555 32h3.556v-3.556h-3.556V32zm14.222-14.222H32v-3.556h-3.556v3.556zm0 14.222C30.4 32 32 30.4 32 28.444h-3.556V32zm0-21.333H32V7.11h-3.556v3.556zm0 14.222H32v-3.556h-3.556v3.556zM21.334 32h3.555v-3.556h-3.556V32zm0-28.444h3.555V0h-3.556v3.556zM7.11 24.889H24.89V7.11H7.11V24.89zm3.556-14.222h10.666v10.666H10.667V10.667z"></path></g></svg>