<svg width="32" height="32" viewBox="0 0 32 32" xmlns="http://www.w3.org/2000/svg"><g class="nc-icon-wrapper" fill="#000000"><path fill-rule="evenodd" d="M0 16C0 7.2 7.2 0 16 0s16 7.2 16 16-7.2 16-16 16S0 24.8 0 16zm14.473 3.156h3.214l.456-13.513h-4.125l.455 13.513zm3.174 2.692c-.392-.384-.915-.576-1.567-.576-.642 0-1.165.197-1.567.59-.393.384-.589.87-.589 1.46 0 .589.197 1.075.59 1.46.401.383.924.575 1.566.575.652 0 1.175-.192 1.567-.576.402-.384.603-.87.603-1.46 0-.598-.2-1.089-.603-1.473z"></path></g></svg>