<svg width="32" height="32" viewBox="0 0 32 32" xmlns="http://www.w3.org/2000/svg"><g class="nc-icon-wrapper" fill="#000000"><path fill-rule="evenodd" d="M16 5c5.471 0 10.013 4.033 10.735 9.48C29.73 14.953 32 17.625 32 20.715c0 3.248-2.477 5.972-5.626 6.286H6.71C2.942 26.686 0 23.49 0 19.667c0-3.51 2.374-6.443 5.729-7.177C7.226 7.986 11.303 5 16 5zm1.125 6.523h2.086v3.073h2.086v3.072c0 1.359-.55 2.661-1.527 3.622a5.263 5.263 0 0 1-3.688 1.5c-1.383 0-2.709-.54-3.687-1.5a5.076 5.076 0 0 1-1.527-3.621v-3.073h2.086v-3.073h2.085v3.073h2.086v-3.073z"></path></g></svg>