<svg width="32" height="32" viewBox="0 0 32 32" xmlns="http://www.w3.org/2000/svg"><g class="nc-icon-wrapper" fill="#000000"><path d="M32 14.625h-2.667V10.5c0-.76-.597-1.375-1.333-1.375h-1.333v-2.75c0-.76-.597-1.375-1.334-1.375H24c-.736 0-1.333.616-1.333 1.375v6.875H9.333V6.375C9.333 5.615 8.736 5 8 5H6.667c-.737 0-1.334.616-1.334 1.375v2.75H4c-.736 0-1.333.616-1.333 1.375v4.125H0v2.75h2.667V21.5c0 .76.597 1.375 1.333 1.375h1.333v2.75c0 .76.597 1.375 1.334 1.375H8c.736 0 1.333-.616 1.333-1.375V18.75h13.334v6.875c0 .76.597 1.375 1.333 1.375h1.333c.737 0 1.334-.616 1.334-1.375v-2.75H28c.736 0 1.333-.616 1.333-1.375v-4.125H32v-2.75z"></path></g></svg>