<svg width="32" height="32" viewBox="0 0 32 32" xmlns="http://www.w3.org/2000/svg"><g class="nc-icon-wrapper" fill="#444444"><path d="M29.815 18.688H1.685A.692.692 0 0 1 1 18V4.687C1 4.313 1.311 4 1.685 4h10.02v-.688c0-.374.31-.624.684-.624h2.676v-2c0-.375.312-.688.685-.688.373 0 .685.313.685.688v2h2.676c.373 0 .684.25.684.624V4h10.02c.374 0 .685.313.685.688V18a.692.692 0 0 1-.685.688zM18.426 4h-5.352v1.313h5.352V4zM2.992 20h25.516a2.01 2.01 0 0 1 1.992 2c0 1.125-.933 2-1.992 2H23.53l3.548 7.063c.187.312 0 .687-.311.875-.125.062-.187.062-.311.062-.25 0-.498-.125-.56-.375L22.035 24H15.75v7.313a.692.692 0 0 1-.685.687.692.692 0 0 1-.684-.688V24H9.464l-3.859 7.625c-.062.25-.31.375-.56.375-.124 0-.186 0-.31-.063-.312-.187-.499-.562-.312-.875L7.97 24H2.992A2.01 2.01 0 0 1 1 22c0-1.125.934-2 1.992-2z"></path></g></svg>