<svg xmlns="http://www.w3.org/2000/svg" x="0" y="0" viewBox="0 0 32 32" width="32" height="32"><g class="nc-icon-wrapper" fill="#444444"><path d="M32 14.4h-2.7v-4.1c0-.8-.6-1.4-1.3-1.4h-1.3V6.2c0-.8-.6-1.4-1.3-1.4H24c-.7 0-1.3.6-1.3 1.4v6.9H9.3V6.2c0-.8-.6-1.4-1.3-1.4H6.7c-.7 0-1.3.6-1.3 1.4V9H4c-.7 0-1.3.6-1.3 1.4v4.1H0v2.7h2.7v4.1c0 .8.6 1.4 1.3 1.4h1.3v2.8c0 .8.6 1.4 1.3 1.4H8c.7 0 1.3-.6 1.3-1.4v-6.9h13.3v6.9c0 .8.6 1.4 1.3 1.4h1.3c.7 0 1.3-.6 1.3-1.4v-2.8H28c.7 0 1.3-.6 1.3-1.4v-4.1H32v-2.8z"></path></g></svg>