<svg fill="#000000" height="512" width="512" id="icon-app-store" viewBox="0 0 512 512">
  <path d="m26 303l0-63c0-5 4-10 10-10l111 0l-49 83l-62 0c-6 0-10-4-10-10z m78 128l-35 24c-5 3-8 1-7-5l4-41c1-5 6-8 11-5l27 16c5 3 5 8 0 11z m9-23l-28-16c-5-3-6-9-3-14l126-219c3-5 9-7 14-4l28 16c5 3 6 9 3 14l-126 219c-3 5-9 7-14 4z m96-95l48-83l28 0l39 83z m157 25c-11-5-66-130-80-163c-14-33-56-119-42-126c10-5 44 63 71 104c26 41 80 147 87 159c6 12-7 22-14 25c-7 4-11 7-22 1z m35 58l-16-26c-3-6-2-12 4-15l16-8c5-3 12-1 15 5l13 25c3 5 1 13-5 16l-11 6c-5 4-12 2-16-3z m61 67c-4-11-30-11-42-28c-11-16-2-25 3-29c47-26 39 57 39 57z m24-160c0 6-4 10-10 10l-55 0c-1-3-2-6-4-9c-1-3-5-10-10-19c-7-14-18-34-29-55l98 0c6 0 10 5 10 10l0 63z"/>
</svg>