<svg enable-background="new 0 0 32 32" viewBox="0 0 32 32" xmlns="http://www.w3.org/2000/svg"><path clip-rule="evenodd" d="m19.6 8.5 3 6 9.4-1.9-.5-2.4-7.6 1.5-2.2-4.5 2.2-4.5 7.6 1.5.4-2.2-9.4-1.9-3 6h-10c-.4-2.2-2.3-3.8-4.7-3.8-2.6 0-4.8 2.1-4.8 4.8s2.2 4.8 4.8 4.8c.4 0 .8 0 1.1-.1l5.3 12h-8c-1.8 0-3.2 1.4-3.2 3.2v5h25.7v-5c0-1.8-1.4-3.2-3.2-3.2h-8.6l-5.8-13.1c.6-.6 1.1-1.3 1.4-2.2zm2.9 17.7c.4 0 .8.4.8.8v2.6h-20.9v-2.6c0-.4.4-.8.8-.8zm-17.7-16.7c-1.3 0-2.4-1.1-2.4-2.4s1.1-2.4 2.4-2.4 2.4 1.1 2.4 2.4-1 2.4-2.4 2.4z" fill-rule="evenodd"/></svg>