<svg enable-background="new 0 0 32 32" viewBox="0 0 32 32" xmlns="http://www.w3.org/2000/svg"><path clip-rule="evenodd" d="m30.4 9.5 1.2-2-8.2-4.9-4.9 4.6-8.8-2.5c-.1-2.6-2.2-4.7-4.9-4.7-2.6 0-4.8 2.2-4.8 4.8s2.2 4.8 4.8 4.8h.4l5.6 14.2h-7.6c-1.8 0-3.2 1.4-3.2 3.2v5h25.7v-5c0-1.8-1.4-3.2-3.2-3.2h-9l-6-15c.7-.4 1.2-1.1 1.6-1.8l8.7 2.4.8 6.5 9.4 1.4.4-2.4-7.6-1.1-.6-4.8 3.6-3.4zm-7.9 16.7c.4 0 .8.4.8.8v2.6h-20.9v-2.6c0-.4.4-.8.8-.8zm-17.7-19c-1.3 0-2.4-1.1-2.4-2.4s1.1-2.4 2.4-2.4 2.4 1.1 2.4 2.4-1 2.4-2.4 2.4z" fill-rule="evenodd"/></svg>