<svg width="32" height="32" viewBox="0 0 32 32" xmlns="http://www.w3.org/2000/svg"><g class="nc-icon-wrapper"><path d="M15.897 5.987h8.67c.723 1.239 1.962 1.961 3.51 1.961C30.245 8.052 32 6.194 32 4.026S30.245 0 28.077 0c-1.445 0-2.787.826-3.51 1.961H11.562c1.755.93 3.2 2.374 4.336 4.026zm12.18-4.335c1.342 0 2.375 1.032 2.375 2.374S29.419 6.4 28.077 6.4s-2.374-1.032-2.374-2.374c-.103-1.342 1.032-2.374 2.374-2.374zm-.103 14.451c-1.445 0-2.787.826-3.406 1.961h-.516c-2.168 0-3.613-1.858-5.265-5.057-.103-.104-.723-1.342-.929-1.755-.413-.93-2.065-3.717-2.065-3.717-.206-.31-.516-.825-.619-.929-1.548-2.58-3.82-4.541-7.122-4.541h-.62C6.812.825 5.471 0 4.026 0 1.755 0 0 1.755 0 4.026c0 2.27 1.755 4.026 4.026 4.026 1.445 0 2.684-.826 3.406-1.962h.62c1.754 0 2.993 1.136 4.232 3.2.103.207.206.31.31.516.516.93 1.032 1.962 1.651 3.2 1.239 2.375 2.478 4.955 4.336 6.813l.206.207c1.342 1.342 3.097 2.168 5.265 2.168h.516c.722 1.238 1.961 1.96 3.406 1.96C30.142 24.155 32 22.4 32 20.13c0-2.27-1.755-4.026-4.026-4.026zM4.026 6.4c-1.342 0-2.374-1.032-2.374-2.374s1.032-2.374 2.374-2.374S6.4 2.684 6.4 4.026 5.368 6.4 4.026 6.4zm23.948 16.103c-1.342 0-2.374-1.032-2.374-2.374s1.032-2.374 2.374-2.374 2.374 1.032 2.374 2.374-1.032 2.374-2.374 2.374z" transform="translate(0 4)" fill="#000" id="branch-node"></path></g></svg>