<svg width="20" height="20" viewBox="0 0 20 20" version="1.1" xmlns="http://www.w3.org/2000/svg" xmlns:xlink="http://www.w3.org/1999/xlink">
<g id="Canvas" transform="translate(-5770 11842)">
<g id="builder-icon">
<use xlink:href="#path0_fill" transform="translate(5770 -11842)" fill="#72819F"/>
</g>
</g>
<defs>
<path id="path0_fill" fill-rule="evenodd" d="M 0 6.43652L 6.43652 0L 10.6748 4.20703L 9.26221 5.62012L 8.47705 4.83496L 6.65625 6.625L 5.24316 5.21191L 7.0332 3.42188L 6.43652 2.82617L 2.82568 6.43652L 5.65137 9.23047L 4.23877 10.6436L 0 6.43652ZM 15.1963 1.12988C 15.377 0.949219 15.6294 0.847656 15.8555 0.847656C 16.0815 0.847656 16.3018 0.949219 16.4834 1.12988L 18.8066 3.48535C 19.1685 3.75586 19.1685 4.37891 18.8066 4.74121L 17.2998 6.2793L 13.6577 2.66895L 15.1963 1.12988ZM 12.7788 3.6416L 1.00488 15.3213L 1.00488 18.9316L 4.61572 18.9316L 16.2954 7.18945L 12.7788 3.6416ZM 14.3174 10.707L 15.73 9.29395L 20 13.5635L 13.5322 19.9375L 9.26221 15.668L 10.6753 14.2549L 13.5322 17.1123L 17.1431 13.5635L 16.4834 12.9043L 14.6938 14.6631L 13.2812 13.25L 15.0708 11.46L 14.3174 10.707Z"/>
</defs>
</svg>
