<svg xmlns="http://www.w3.org/2000/svg" width="21" height="21" viewBox="0 0 21 21">
  <g fill="#FFF">
    <path d="M6.66673,15.0002 L1.66668,15.0002 L1.66668,6.66673 L16.6668,6.66673 L16.6668,4.16671 C16.6668,3.24837 15.9193,2.50003 15.0002,2.50003 L14.1668,2.50003 L14.1668,0 L12.5001,0 L12.5001,4.16671 L11.6668,4.16671 L11.6668,2.50003 L5.83339,2.50003 L5.83339,0 L4.16671,0 L4.16671,4.16671 L3.33337,4.16671 L3.33337,2.50003 L1.66668,2.50003 C0.747508,2.50003 0,3.24753 0,4.16671 L0,15.0002 C0,15.9193 0.747508,16.6668 1.66668,16.6668 L6.66673,16.6668 L6.66673,15.0002 Z"/>
    <path d="M5.83339,11.6668 C2.61669,11.6668 0,9.05009 0,5.83339 C0,2.61669 2.61669,0 5.83339,0 C9.05009,0 11.6668,2.61669 11.6668,5.83339 C11.6668,9.05009 9.05009,11.6668 5.83339,11.6668 Z M5.83339,1.66668 C3.53587,1.66668 1.66668,3.53587 1.66668,5.83339 C1.66668,8.13092 3.53587,10.0001 5.83339,10.0001 C8.13092,10.0001 10.0001,8.13092 10.0001,5.83339 C10.0001,3.53587 8.13092,1.66668 5.83339,1.66668 Z" transform="translate(8.33 8.33)"/>
    <polygon points="3.333 4.167 0 4.167 0 0 1.667 0 1.667 2.5 3.333 2.5" transform="translate(13.33 10.83)"/>
  </g>
</svg>
