<svg width="32" height="32" fill="none" xmlns="http://www.w3.org/2000/svg"><path fill-rule="evenodd" clip-rule="evenodd" d="M22.886 26.273L16.34 32l-6.546-5.727.996-1.138 4.794 4.194V9.577h-4.536V8.065h10.584v1.512h-4.536V29.33l4.794-4.194.995 1.137zM16.34 1.512c-5.438 0-9.828 4.341-9.828 9.673 0 3.282 1.66 6.186 4.208 7.937a.756.756 0 11-.856 1.246C6.928 18.35 5 14.992 5 11.185 5 4.997 10.088 0 16.34 0s11.34 4.997 11.34 11.185c0 3.807-1.928 7.165-4.864 9.183a.756.756 0 11-.857-1.246c2.549-1.751 4.209-4.655 4.209-7.937 0-5.332-4.39-9.673-9.828-9.673z" fill="#000"/></svg>