<svg width="32" height="32" fill="none" xmlns="http://www.w3.org/2000/svg"><path fill-rule="evenodd" clip-rule="evenodd" d="M6.813 24.52l1.618-2.06 6.187 5.036V7.688h2.591v19.956l6.37-5.183 1.618 2.058L16.005 32l-9.192-7.48zm17.956-13.376c0-4.649-3.874-8.508-8.764-8.508-4.89 0-8.764 3.86-8.764 8.508 0 1.763.55 3.4 1.5 4.762L6.627 17.43a10.956 10.956 0 01-1.977-6.286C4.65 4.94 9.784 0 16.005 0c6.22 0 11.355 4.94 11.355 11.144 0 2.334-.732 4.5-1.978 6.286l-2.113-1.524a8.289 8.289 0 001.5-4.762z" fill="#000"/></svg>