<svg xmlns="http://www.w3.org/2000/svg" version="1" viewBox="0 0 24 24" enable-background="new 0 0 24 24" width="24" height="24">
    <path d="M 12 5 C 6 5 1.3875 11.10625 1.1875 11.40625 C 0.8875 11.80625 0.8875 12.19375 1.1875 12.59375 C 1.3875 12.89375 6 19 12 19 C 18 19 22.6125 12.89375 22.8125 12.59375 C 23.1125 12.19375 23.1125 11.80625 22.8125 11.40625 C 22.6125 11.10625 18 5 12 5 z M 12 7 C 14.8 7 17 9.2 17 12 C 17 14.8 14.8 17 12 17 C 9.2 17 7 14.8 7 12 C 7 9.2 9.2 7 12 7 z M 12 9.5 C 10.619288 9.5 9.5 10.619288 9.5 12 C 9.5 13.380712 10.619288 14.5 12 14.5 C 13.380712 14.5 14.5 13.380712 14.5 12 C 14.5 10.619288 13.380712 9.5 12 9.5 z"/>
</svg>