<svg xmlns="http://www.w3.org/2000/svg" width="20" height="20" viewBox="0 0 20 20">
  <path d="M0,1 C0,0.744141 0.0957031,0.510742 0.253418,0.333984 C0.436523,0.128906 0.703125,0 1,0 L19,0 C19.5522,0 20,0.447266 20,1 L20,4 C20,4.55273 19.5522,5 19,5 L1,5 C0.447754,5 0,4.55273 0,4 L0,1 Z M0,8.5 C0,7.94727 0.447754,7.5 1,7.5 L19,7.5 C19.5522,7.5 20,7.94727 20,8.5 L20,11.5 C20,12.0527 19.5522,12.5 19,12.5 L1,12.5 C0.842285,12.5 0.693359,12.4629 0.560547,12.3984 C0.51709,12.3779 0.475586,12.3535 0.436035,12.3262 C0.290039,12.2266 0.171875,12.0889 0.0957031,11.9277 C0.0341797,11.7979 0,11.6533 0,11.5 L0,8.5 Z M1,8.5 L1,11.5 L19,11.5 L19,8.5 L1,8.5 Z M0,16 C0,15.4473 0.447754,15 1,15 L19,15 C19.5522,15 20,15.4473 20,16 L20,19 C20,19.5527 19.5522,20 19,20 L1,20 C0.447754,20 0,19.5527 0,19 L0,16 Z M1,16 L1,19 L19,19 L19,16 L1,16 Z"/>
</svg>
