<svg xmlns="http://www.w3.org/2000/svg" xmlns:xlink="http://www.w3.org/1999/xlink" width="24px" height="24px" viewBox="0 0 24 24" version="1.1">
  <path d="M7.956 3.636C7.956 3.77733404 7.91133378 3.89199956 7.822 3.98 7.73266622 4.06800044 7.58400104 4.112 7.376 4.112L5.784 4.112 5.576 5.32C5.83733464 5.2666664 6.07599892 5.24 6.292 5.24 6.59600152 5.24 6.86333218 5.28533288 7.094 5.376 7.32466782 5.46666712 7.51866588 5.5919992 7.676 5.752 7.83333412 5.9120008 7.9519996 6.09933226 8.032 6.314 8.1120004 6.52866774 8.152 6.75999876 8.152 7.008 8.152 7.3146682 8.09800054 7.5946654 7.99 7.848 7.88199946 8.1013346 7.73200096 8.3179991 7.54 8.498 7.34799904 8.6780009 7.12066798 8.81733284 6.858 8.916 6.59533202 9.01466716 6.30933488 9.064 6 9.064 5.81866576 9.064 5.64666748 9.04533352 5.484 9.008 5.32133252 8.97066648 5.16866738 8.92066698 5.026 8.858 4.88333262 8.79533302 4.75133394 8.72333374 4.63 8.642 4.50866606 8.56066626 4.40000048 8.47466712 4.304 8.384L4.608 7.964C4.67200032 7.87333288 4.7573328 7.828 4.864 7.828 4.930667 7.828 4.99799966 7.84933312 5.066 7.892 5.13400034 7.93466688 5.21333288 7.98133308 5.304 8.032 5.39466712 8.08266692 5.4999994 8.12933312 5.62 8.172 5.7400006 8.21466688 5.88533248 8.236 6.056 8.236 6.23733424 8.236 6.39733264 8.20666696 6.536 8.148 6.67466736 8.08933304 6.78999954 8.00733386 6.882 7.902 6.97400046 7.79666614 7.0433331 7.67133406 7.09 7.526 7.1366669 7.38066594 7.16 7.22266752 7.16 7.052 7.16 6.73733176 7.06866758 6.49133422 6.886 6.314 6.70333242 6.13666578 6.43466844 6.048 6.08 6.048 5.7999986 6.048 5.51866808 6.09866616 5.236 6.2L4.62 6.024 5.1 3.216 7.956 3.216 7.956 3.636ZM13.08 6.108C13.08 6.61200252 13.0260005 7.04999814 12.918 7.422 12.8099995 7.79400186 12.6606676 8.10133212 12.47 8.344 12.2793324 8.58666788 12.0540013 8.76733274 11.794 8.886 11.5339987 9.00466726 11.2533348 9.064 10.952 9.064 10.6506652 9.064 10.3713346 9.00466726 10.114 8.886 9.85666538 8.76733274 9.63333428 8.58666788 9.444 8.344 9.25466572 8.10133212 9.1066672 7.79400186 9 7.422 8.8933328 7.04999814 8.84 6.61200252 8.84 6.108 8.84 5.6013308 8.8933328 5.16266852 9 4.792 9.1066672 4.42133148 9.25466572 4.11466788 9.444 3.872 9.63333428 3.62933212 9.85666538 3.44866726 10.114 3.33 10.3713346 3.21133274 10.6506652 3.152 10.952 3.152 11.2533348 3.152 11.5339987 3.21133274 11.794 3.33 12.0540013 3.44866726 12.2793324 3.62933212 12.47 3.872 12.6606676 4.11466788 12.8099995 4.42133148 12.918 4.792 13.0260005 5.16266852 13.08 5.6013308 13.08 6.108ZM12.06 6.108C12.06 5.68933124 12.0293336 5.34266804 11.968 5.068 11.9066664 4.79333196 11.8246672 4.57466748 11.722 4.412 11.6193328 4.24933252 11.501334 4.13533366 11.368 4.07 11.234666 4.00466634 11.0960007 3.972 10.952 3.972 10.810666 3.972 10.6740007 4.00466634 10.542 4.07 10.4099993 4.13533366 10.2933338 4.24933252 10.192 4.412 10.0906662 4.57466748 10.0100003 4.79333196 9.95 5.068 9.8899997 5.34266804 9.86 5.68933124 9.86 6.108 9.86 6.52666876 9.8899997 6.87333196 9.95 7.148 10.0100003 7.42266804 10.0906662 7.64133252 10.192 7.804 10.2933338 7.96666748 10.4099993 8.08066634 10.542 8.146 10.6740007 8.21133366 10.810666 8.244 10.952 8.244 11.0960007 8.244 11.234666 8.21133366 11.368 8.146 11.501334 8.08066634 11.6193328 7.96666748 11.722 7.804 11.8246672 7.64133252 11.9066664 7.42266804 11.968 7.148 12.0293336 6.87333196 12.06 6.52666876 12.06 6.108ZM16.196 4.616C16.196 4.83466776 16.1593337 5.03199912 16.086 5.208 16.0126663 5.38400088 15.9146673 5.53399938 15.792 5.658 15.6693327 5.78200062 15.5266675 5.877333 15.364 5.944 15.2013325 6.010667 15.0320009 6.044 14.856 6.044 14.663999 6.044 14.4866675 6.010667 14.324 5.944 14.1613325 5.877333 14.0206673 5.78200062 13.902 5.658 13.7833327 5.53399938 13.690667 5.38400088 13.624 5.208 13.557333 5.03199912 13.524 4.83466776 13.524 4.616 13.524 4.39199888 13.557333 4.18933424 13.624 4.008 13.690667 3.82666576 13.7833327 3.67333396 13.902 3.548 14.0206673 3.42266604 14.1613325 3.32600034 14.324 3.258 14.4866675 3.18999966 14.663999 3.156 14.856 3.156 15.048001 3.156 15.2259992 3.18999966 15.39 3.258 15.5540008 3.32600034 15.6959994 3.42266604 15.816 3.548 15.9360006 3.67333396 16.029333 3.82666576 16.096 4.008 16.162667 4.18933424 16.196 4.39199888 16.196 4.616ZM15.432 4.616C15.432 4.46133256 15.4173335 4.33200052 15.388 4.228 15.3586665 4.12399948 15.3180003 4.04000032 15.266 3.976 15.2139997 3.91199968 15.152667 3.86600014 15.082 3.838 15.011333 3.80999986 14.9360004 3.796 14.856 3.796 14.7759996 3.796 14.7013337 3.80999986 14.632 3.838 14.5626663 3.86600014 14.5026669 3.91199968 14.452 3.976 14.4013331 4.04000032 14.3620001 4.12399948 14.334 4.228 14.3059999 4.33200052 14.292 4.46133256 14.292 4.616 14.292 4.76533408 14.3059999 4.8899995 14.334 4.99 14.3620001 5.0900005 14.4013331 5.17066636 14.452 5.232 14.5026669 5.29333364 14.5626663 5.3373332 14.632 5.364 14.7013337 5.3906668 14.7759996 5.404 14.856 5.404 14.9360004 5.404 15.011333 5.3906668 15.082 5.364 15.152667 5.3373332 15.2139997 5.29333364 15.266 5.232 15.3180003 5.17066636 15.3586665 5.0900005 15.388 4.99 15.4173335 4.8899995 15.432 4.76533408 15.432 4.616ZM18.12 3.372C18.1520002 3.3319998 18.1919998 3.29600016 18.24 3.264 18.2880002 3.23199984 18.3546662 3.216 18.44 3.216L19.156 3.216 14.86 8.852C14.8279998 8.89466688 14.7873336 8.92999986 14.738 8.958 14.6886664 8.98600014 14.6293337 9 14.56 9L13.824 9 18.12 3.372ZM19.46 7.64C19.46 7.85866776 19.4233337 8.05599912 19.35 8.232 19.2766663 8.40800088 19.1786673 8.55799938 19.056 8.682 18.9333327 8.80600062 18.7906675 8.90199966 18.628 8.97 18.4653325 9.03800034 18.2960009 9.072 18.12 9.072 17.927999 9.072 17.7506675 9.03800034 17.588 8.97 17.4253325 8.90199966 17.2846673 8.80600062 17.166 8.682 17.0473327 8.55799938 16.954667 8.40800088 16.888 8.232 16.821333 8.05599912 16.788 7.85866776 16.788 7.64 16.788 7.41599888 16.821333 7.21333424 16.888 7.032 16.954667 6.85066576 17.0473327 6.69733396 17.166 6.572 17.2846673 6.44666604 17.4253325 6.35000034 17.588 6.282 17.7506675 6.21399966 17.927999 6.18 18.12 6.18 18.312001 6.18 18.4899992 6.21399966 18.654 6.282 18.8180008 6.35000034 18.9599994 6.44666604 19.08 6.572 19.2000006 6.69733396 19.293333 6.85066576 19.36 7.032 19.426667 7.21333424 19.46 7.41599888 19.46 7.64ZM18.7 7.64C18.7 7.48533256 18.6846668 7.35600052 18.654 7.252 18.6233332 7.14799948 18.5820003 7.06400032 18.53 7 18.4779997 6.93599968 18.416667 6.89000014 18.346 6.862 18.275333 6.83399986 18.2000004 6.82 18.12 6.82 18.0399996 6.82 17.9653337 6.83399986 17.896 6.862 17.8266663 6.89000014 17.7673336 6.93599968 17.718 7 17.6686664 7.06400032 17.6293335 7.14799948 17.6 7.252 17.5706665 7.35600052 17.556 7.48533256 17.556 7.64 17.556 7.78933408 17.5706665 7.91466616 17.6 8.016 17.6293335 8.11733384 17.6686664 8.19866636 17.718 8.26 17.7673336 8.32133364 17.8266663 8.3653332 17.896 8.392 17.9653337 8.4186668 18.0399996 8.432 18.12 8.432 18.2000004 8.432 18.275333 8.4186668 18.346 8.392 18.416667 8.3653332 18.4779997 8.32133364 18.53 8.26 18.5820003 8.19866636 18.6233332 8.11733384 18.654 8.016 18.6846668 7.91466616 18.7 7.78933408 18.7 7.64Z" id="50%" fill="#000000"/>
  <rect id="Rectangle" fill="#000000" x="11.5" y="11" width="1" height="3"/>
  <rect id="Rectangle-Copy" fill="#000000" x="11.5" y="18" width="1" height="3"/>
  <rect id="Rectangle-2" fill="#000000" x="2" y="15" width="20" height="2"/>
</svg>
