<?xml version="1.0" encoding="UTF-8"?>
<svg width="407px" height="415px" viewBox="0 0 407 415" version="1.1" xmlns="http://www.w3.org/2000/svg" xmlns:xlink="http://www.w3.org/1999/xlink">
    <defs></defs>
    <g id="Page-1" stroke="none" stroke-width="1" fill="none" fill-rule="evenodd">
        <g id="question" fill-rule="nonzero" fill="#000000">
            <path d="M237,206 C219.3289,218.11606 213.07653,240.53507 212.82337,259 C206.03515,257.43757 195.42297,264.572202 195.42297,251.45212 C195.53417,226.79062 211.10896,206.42073 228.97461,191.06836 C248.00852,173.23216 250.61165,136.72561 225.39648,123.01172 C201.54332,110.01177 161.43339,117.35989 155.31616,147.61475 C156.73254,161.33108 151.58493,165.34998 138.70387,163 C128.97143,154.96186 140.78602,127.96005 150.75851,118.23346 C172.75376,98.47429 207.62397,96.2121 234.0513,107.84613 C266.00266,121.84813 271.84744,167.3159 249.677,192.39893 C245.86737,197.30022 241.53203,201.7677 237,206 Z" id="path3571"></path>
            <path d="M203,321 C174.03111,320.80646 188.43712,273.84522 212.33398,290.00586 C226.48029,298.62315 219.10961,321.21843 203,321 Z" id="path3569"></path>
            <path d="M203.33984,0.517578 C91.28431,0.517578 0.449219,93.53186 0.449219,207.74609 C0.449219,321.96033 91.28431,414.97461 203.33984,414.97461 C315.39538,414.97461 406.22852,321.96033 406.22852,207.74609 C406.22852,93.53186 315.39538,0.517578 203.33984,0.517578 L203.33984,0.517578 Z M203.33984,20.294922 C304.46654,20.294922 386.45117,103.98538 386.45117,207.74609 C386.45117,311.50681 304.46654,395.19531 203.33984,395.19531 C102.21314,395.19531 20.226563,311.50681 20.226562,207.74609 C20.226562,103.98538 102.21314,20.294922 203.33984,20.294922 L203.33984,20.294922 Z" id="path3593"></path>
        </g>
    </g>
</svg>