<?xml version="1.0" encoding="utf-8"?>
<svg version="1.1" xmlns="http://www.w3.org/2000/svg" xmlns:xlink="http://www.w3.org/1999/xlink" x="0px" y="0px" width="24px"
	 height="24px" viewBox="0 0 24 24" enable-background="new 0 0 24 24" xml:space="preserve">
<g id="Frame_-_24px">
	<rect fill="none" width="24" height="24"/>
</g>
<g id="Filled_Icons">
	<g>
		<path fill="#757575" d="M18.968,13c-0.119,1.328-0.612,2.544-1.369,3.554l1.427,1.427c1.108-1.385,1.812-3.104,1.942-4.98H18.968z
			"/>
		<path fill="#757575" d="M13,19.29v2.02c1.732-0.191,3.316-0.879,4.611-1.917l-1.426-1.424C15.269,18.654,14.183,19.12,13,19.29z"
			/>
		<path fill="#757575" d="M20.888,11c-0.261-1.693-0.992-3.285-2.138-4.584L17.25,7.74c0.822,0.931,1.371,2.059,1.61,3.26H20.888z"
			/>
		<path fill="#757575" d="M7.473,4.603C4.803,6.167,3,9.059,3,12.37c0,4.624,3.507,8.441,8,8.941v-2.02c-3.387-0.488-6-3.401-6-6.92
			c0-2.745,1.592-5.12,3.898-6.266L12,9.37V2H5L7.473,4.603z"/>
	</g>
</g>
</svg>
