<svg enable-background="new 0 0 32 32" viewBox="0 0 32 32" xmlns="http://www.w3.org/2000/svg"><path d="m25.6 6.4c1.4 1.4 2.5 3.2 3.2 5.1l.4 1.1 2.3-.8-.4-1.1c-.8-2.2-2.1-4.3-3.8-6s-3.7-3-6-3.8l-1.1-.4-.8 2.3 1.1.4c1.9.7 3.7 1.8 5.1 3.2zm-13.5.3c-1.8.8-3.4 2.1-4.5 3.7-1.1 1.7-1.7 3.6-1.7 5.6v1.2h2.4v-1.2c0-1.5.5-3 1.3-4.3s2-2.2 3.4-2.8 2.9-.7 4.4-.4 2.9 1 3.9 2.1c1.1 1.1 1.8 2.4 2.1 3.9s.1 3-.4 4.4c-.6 1.4-1.6 2.6-2.8 3.4-1.3.8-2.7 1.3-4.3 1.3h-1.2v2.4h1.3c2 0 3.9-.6 5.6-1.7s2.9-2.7 3.7-4.5 1-3.9.6-5.8c-.4-2-1.3-3.8-2.8-5.2s-3.2-2.3-5.1-2.7c-2-.4-4-.2-5.9.6zm-2.5 13.6-.7-1-2 1.3.7 1c.7 1.1 1.7 2 2.8 2.8l1 .7 1.3-2-1-.7c-.8-.6-1.5-1.3-2.1-2.1zm6.4-.1c2.3 0 4.2-1.9 4.2-4.2s-1.9-4.2-4.2-4.2-4.2 1.9-4.2 4.2 1.9 4.2 4.2 4.2zm0-6c1 0 1.8.8 1.8 1.8s-.8 1.8-1.8 1.8-1.8-.8-1.8-1.8.8-1.8 1.8-1.8zm13.6.6v1.2c0 2.7-.8 5.3-2.3 7.6-1.5 2.2-3.6 4-6.1 5s-5.2 1.3-7.9.8c-2.6-.5-5.1-1.8-7-3.7s-3.2-4.3-3.7-7c-.5-2.6-.3-5.4.8-7.9 1-2.5 2.8-4.6 5-6.1s4.9-2.3 7.6-2.3h1.2v-2.4h-1.2c-3.2 0-6.3.9-8.9 2.7s-4.7 4.3-5.9 7.2-1.5 6.1-.9 9.2 2.1 6 4.4 8.2c2.2 2.2 5.1 3.8 8.2 4.4s6.3.3 9.2-.9 5.4-3.3 7.2-5.9 2.7-5.7 2.7-8.9v-1.2z"/></svg>