<svg width="17" height="13" viewBox="0 0 17 13" xmlns="http://www.w3.org/2000/svg">
<path d="M0.666667 0H8.66667C9.03467 0 9.33333 0.304523 9.33333 0.679739C9.33333 1.05495 9.03467 1.35948 8.66667 1.35948H0.666667C0.298667 1.35948 0 1.05495 0 0.679739C0 0.304523 0.298667 0 0.666667 0Z" transform="translate(7.26172 11.376)"/>
<path d="M8.66667 1.35948H0.666667C0.298667 1.35948 0 1.05495 0 0.679739C0 0.304523 0.298667 0 0.666667 0H8.66667C9.03467 0 9.33333 0.304523 9.33333 0.679739C9.33333 1.05495 9.03467 1.35948 8.66667 1.35948Z" transform="translate(7.26172 0.5)"/>
<path d="M0 4.07843L4.66667 0V3.39869H15.3333C15.7013 3.39869 16 3.70322 16 4.07843C16 4.45365 15.7013 4.75817 15.3333 4.75817H4.66667V8.15686L0 4.07843Z" transform="translate(0.599609 2.53906)"/>
</svg>
