<svg fill="#000000" height="512" width="512" id="icon-smiley-frown" viewBox="0 0 512 512">
  <path d="m361 351c1 5 1 10-2 14c-2 4-5 7-10 9c-5 2-10 1-14-1c-5-2-8-6-9-11c-5-15-14-28-27-37c-13-9-27-14-43-14c-16 0-30 5-43 14c-13 9-22 22-27 37c-1 5-4 9-9 11c-4 2-9 3-14 1c-5-2-8-5-10-9c-3-4-3-9-2-14c7-23 21-41 40-56c19-14 41-21 65-21c24 0 46 7 65 21c19 15 33 33 40 56z m-142-168c0 10-3 19-10 26c-7 7-16 10-26 10c-10 0-19-3-26-10c-7-7-11-16-11-26c0-10 4-19 11-26c7-7 16-11 26-11c10 0 19 4 26 11c7 7 10 16 10 26z m147 0c0 10-4 19-11 26c-7 7-16 10-26 10c-10 0-19-3-26-10c-7-7-10-16-10-26c0-10 3-19 10-26c7-7 16-11 26-11c10 0 19 4 26 11c7 7 11 16 11 26z m73 73c0-25-5-48-15-71c-9-23-22-42-39-58c-16-17-35-30-58-39c-23-10-46-15-71-15c-25 0-48 5-71 15c-23 9-42 22-58 39c-17 16-30 35-39 58c-10 23-15 46-15 71c0 25 5 48 15 71c9 23 22 42 39 58c16 17 35 30 58 39c23 10 46 15 71 15c25 0 48-5 71-15c23-9 42-22 58-39c17-16 30-35 39-58c10-23 15-46 15-71z m36 0c0 40-9 77-29 110c-20 34-46 60-80 80c-33 20-70 29-110 29c-40 0-77-9-110-29c-34-20-60-46-80-80c-20-33-29-70-29-110c0-40 9-77 29-110c20-34 46-60 80-80c33-20 70-29 110-29c40 0 77 9 110 29c34 20 60 46 80 80c20 33 29 70 29 110z"/>
</svg>