<svg xmlns="http://www.w3.org/2000/svg" width="16" height="13" viewBox="0 0 16 13">
  <path d="M1.71429,0 C0.77425,0 0,0.77425 0,1.71429 L0,10.8571 C0,11.7972 0.77425,12.5714 1.71429,12.5714 L14.2857,12.5714 C15.2257,12.5714 16,11.7972 16,10.8571 L16,1.71429 C16,0.77425 15.2257,0 14.2857,0 L1.71429,0 Z M1.71429,1.14286 L14.2857,1.14286 C14.6074,1.14286 14.8571,1.39261 14.8571,1.71429 L14.8571,10.8571 C14.8571,11.1788 14.6074,11.4286 14.2857,11.4286 L1.71429,11.4286 C1.39261,11.4286 1.14286,11.1788 1.14286,10.8571 L1.14286,1.71429 C1.14286,1.39261 1.39261,1.14286 1.71429,1.14286 Z M2.28571,5.85714 L2.28571,10.2857 L3.42857,10.2857 L3.42857,5.85714 L2.28571,5.85714 Z M4.57143,5.85714 L4.57143,10.2857 L5.71429,10.2857 L5.71429,5.85714 L4.57143,5.85714 Z M6.85714,5.85714 L6.85714,10.2857 L8,10.2857 L8,5.85714 L6.85714,5.85714 Z M9.14286,5.85714 L9.14286,10.2857 L10.2857,10.2857 L10.2857,5.85714 L9.14286,5.85714 Z"/>
</svg>
