<svg width="20" height="20" viewBox="0 0 20 20" version="1.1" xmlns="http://www.w3.org/2000/svg" xmlns:xlink="http://www.w3.org/1999/xlink">
<g id="Canvas" transform="translate(-6859 11710)">
<g id="user-groups">
<use xlink:href="#path0_fill" transform="translate(6859 -11710)" fill="#FFFFFF"/>
<use xlink:href="#path1_fill" transform="translate(6859 -11710)" fill="#FFFFFF"/>
<use xlink:href="#path2_fill" transform="translate(6859 -11710)" fill="#FFFFFF"/>
<use xlink:href="#path3_fill" transform="translate(6859 -11710)" fill="#FFFFFF"/>
<use xlink:href="#path4_fill" transform="translate(6859 -11710)" fill="#FFFFFF"/>
<use xlink:href="#path5_fill" transform="translate(6859 -11710)" fill="#FFFFFF"/>
<use xlink:href="#path6_fill" transform="translate(6859 -11710)" fill="#FFFFFF"/>
<use xlink:href="#path7_fill" transform="translate(6859 -11710)" fill="#FFFFFF"/>
<use xlink:href="#path8_fill" transform="translate(6859 -11710)" fill="#FFFFFF"/>
<use xlink:href="#path9_fill" transform="translate(6859 -11710)" fill="#FFFFFF"/>
<use xlink:href="#path10_fill" transform="translate(6859 -11710)" fill="#FFFFFF"/>
<use xlink:href="#path11_fill" transform="translate(6859 -11710)" fill="#FFFFFF"/>
<use xlink:href="#path12_fill" transform="translate(6859 -11710)" fill="#FFFFFF"/>
<use xlink:href="#path13_fill" transform="translate(6859 -11710)" fill="#FFFFFF"/>
<use xlink:href="#path14_fill" transform="translate(6859 -11710)" fill="#FFFFFF"/>
<use xlink:href="#path15_fill" transform="translate(6859 -11710)" fill="#FFFFFF"/>
<use xlink:href="#path16_fill" transform="translate(6859 -11710)" fill="#FFFFFF"/>
<use xlink:href="#path17_fill" transform="translate(6859 -11710)" fill="#FFFFFF"/>
<use xlink:href="#path18_fill" transform="translate(6859 -11710)" fill="#FFFFFF"/>
<use xlink:href="#path19_fill" transform="translate(6859 -11710)" fill="#FFFFFF"/>
<use xlink:href="#path20_fill" transform="translate(6859 -11710)" fill="#FFFFFF"/>
</g>
</g>
<defs>
<path id="path0_fill" d="M 10.8901 0C 11.5034 0.0537109 12.1133 0.166016 12.7041 0.332031L 12.2559 1.93555C 11.7632 1.79785 11.2539 1.70508 10.7441 1.66016L 10.8901 0Z"/>
<path id="path1_fill" d="M 5.51562 1.01953L 6.26514 2.50977C 5.80762 2.73926 5.36816 3.0127 4.96094 3.32324L 3.95166 1.99707C 4.44189 1.625 4.96729 1.29492 5.51562 1.01953Z"/>
<path id="path2_fill" d="M 18.4834 4.66309C 18.1572 4.14258 17.7817 3.64941 17.3657 3.19727L 16.1382 4.3252C 16.4858 4.70215 16.7983 5.11426 17.0698 5.54785L 18.4834 4.66309Z"/>
<path id="path3_fill" d="M 8.3335 9.12695C 9.71436 9.12695 10.8335 8.00781 10.8335 6.62695C 10.8335 5.24609 9.71436 4.12695 8.3335 4.12695C 6.95264 4.12695 5.8335 5.24609 5.8335 6.62695C 5.8335 8.00781 6.95264 9.12695 8.3335 9.12695Z"/>
<path id="path4_fill" d="M 13.333 8.29297C 12.5649 8.29297 11.8667 8.56348 11.3032 9C 12.4722 9.58496 13.4438 10.501 14.0981 11.626L 16.6665 11.626C 16.6665 9.78613 15.1738 8.29297 13.333 8.29297Z"/>
<path id="path5_fill" d="M 8.3335 9.95996C 11.0952 9.95996 13.3335 12.1992 13.3335 14.96L 5.60596 14.96C 4.88232 14.3252 4.29736 13.5381 3.90332 12.6475C 4.73828 11.0508 6.40771 9.95996 8.3335 9.95996Z"/>
<path id="path6_fill" d="M 13.333 7.45996C 14.2534 7.45996 15 6.71387 15 5.79395C 15 4.87305 14.2534 4.12695 13.333 4.12695C 12.4126 4.12695 11.6665 4.87305 11.6665 5.79395C 11.6665 6.71387 12.4126 7.45996 13.333 7.45996Z"/>
<path id="path7_fill" d="M 19.8242 8.08301L 18.1865 8.39551L 18.1597 8.26074L 18.1138 8.05273C 18.0864 7.93652 18.0566 7.82129 18.0244 7.70605C 17.9497 7.43848 17.8613 7.17578 17.7607 6.91992L 19.3135 6.31152C 19.3892 6.50488 19.459 6.70215 19.5225 6.90039L 19.6021 7.16211L 19.6646 7.38379L 19.7222 7.61035L 19.7749 7.84277L 19.8242 8.08301Z"/>
<path id="path8_fill" d="M 3.82764 4.3623L 2.59375 3.24121C 2.41406 3.43945 2.2417 3.64551 2.07764 3.8584C 2.01904 3.93457 1.96143 4.01074 1.90479 4.08887L 1.76318 4.28906C 1.6665 4.42871 1.57373 4.57129 1.48438 4.71582L 2.90283 5.59082C 3.17285 5.1543 3.4834 4.74121 3.82764 4.3623Z"/>
<path id="path9_fill" d="M 15.9995 1.95996C 15.5068 1.58984 14.9785 1.26465 14.4277 0.991211L 13.6885 2.48535C 14.147 2.71191 14.5874 2.98242 14.9976 3.29102L 15.9995 1.95996Z"/>
<path id="path10_fill" d="M 9.04736 0.00585938L 9.2041 1.66504C 8.84814 1.69824 8.49365 1.75586 8.146 1.83496C 7.99463 1.86914 7.84424 1.90723 7.6958 1.9502L 7.23486 0.348633C 7.82471 0.178711 8.43408 0.0625 9.04736 0.00585938Z"/>
<path id="path11_fill" d="M 12.2886 17.9775L 12.7451 19.5781C 13.3359 19.4102 13.9146 19.1846 14.4653 18.9102L 13.7212 17.4189C 13.2617 17.6494 12.7803 17.8359 12.2886 17.9775Z"/>
<path id="path12_fill" d="M 16.0317 17.9375L 15.0259 16.6084C 15.4341 16.2988 15.8159 15.9502 16.1606 15.5713L 17.3936 16.6943C 16.979 17.1484 16.52 17.5664 16.0317 17.9375Z"/>
<path id="path13_fill" d="M 17.0884 14.3457L 18.5049 15.2227C 18.8291 14.7002 19.106 14.1445 19.3276 13.5713L 17.7744 12.9697C 17.5894 13.4463 17.3584 13.9082 17.0884 14.3457Z"/>
<path id="path14_fill" d="M 18.1934 11.4922C 18.2261 11.3135 18.2534 11.1328 18.2749 10.9512C 18.3135 10.623 18.3335 10.292 18.3335 9.95996L 20 9.92285L 20 9.95996C 20 10.5781 19.9434 11.1953 19.8325 11.7959L 18.1934 11.4922Z"/>
<path id="path15_fill" d="M 9.23926 18.2607L 9.08936 19.9209C 9.39014 19.9473 9.69336 19.9609 10 19.9609C 10.3135 19.9609 10.6245 19.9463 10.9312 19.9189L 10.7778 18.2588C 10.5352 18.2822 10.2876 18.2939 10.04 18.2949C 9.77148 18.2959 9.50293 18.2842 9.23926 18.2607Z"/>
<path id="path16_fill" d="M 7.2749 19.585C 6.68262 19.417 6.10303 19.1924 5.55322 18.9189L 6.29492 17.4268C 6.75244 17.6553 7.23486 17.8418 7.72803 17.9805L 7.2749 19.585Z"/>
<path id="path17_fill" d="M 2.23291 12.9854L 0.680176 13.5908C 0.902832 14.1631 1.18115 14.7168 1.50586 15.2402L 2.92041 14.3594C 2.78467 14.1406 2.6582 13.915 2.54248 13.6846C 2.42822 13.4561 2.32471 13.2227 2.23291 12.9854Z"/>
<path id="path18_fill" d="M 0 9.98145L 1.6665 9.97754C 1.66748 10.2061 1.67725 10.4355 1.69629 10.6631C 1.71973 10.9482 1.75781 11.2314 1.81006 11.5098L 0.172363 11.8164L 0.135742 11.6084L 0.0991211 11.3711C 0.0703125 11.166 0.0478516 10.96 0.03125 10.7529C 0.0112305 10.4961 0.000488281 10.2393 0 9.98145Z"/>
<path id="path19_fill" d="M 2.21973 6.96875L 0.664062 6.36816C 0.547852 6.66992 0.445801 6.97949 0.359375 7.29297C 0.281738 7.57422 0.216309 7.8584 0.164062 8.14551L 1.80322 8.44531C 1.89551 7.94238 2.03564 7.44531 2.21973 6.96875Z"/>
<path id="path20_fill" d="M 3.98486 17.9492C 3.49463 17.5801 3.03564 17.1631 2.62061 16.709L 3.84961 15.583C 4.19629 15.9609 4.57959 16.3096 4.98828 16.6182L 3.98486 17.9492Z"/>
</defs>
</svg>
