<svg fill="#000000" height="512" width="512" id="icon-workspaces" viewBox="0 0 512 512">
  <path d="m482 299c0 0-452 0-452 0-6 0-11-5-11-11 0 0 0-213 0-213 0-6 5-11 11-11 0 0 161 0 161 0 0 0 0-11 0-11 0-6 5-10 11-10 0 0 43 0 43 0 0 0 0-32 0-32 0-6 5-11 11-11 6 0 11 5 11 11 0 0 0 32 0 32 0 0 43 0 43 0 6 0 11 4 11 10 0 0 0 11 0 11 0 0 161 0 161 0 6 0 11 5 11 11 0 0 0 213 0 213 0 6-5 11-11 11z m-183-235c0 0-86 0-86 0 0 0 0 21 0 21 0 0 86 0 86 0 0 0 0-21 0-21z m-248 256c0 0 410 0 410 0 17 0 32 14 32 32 0 18-15 32-32 32 0 0-80 0-80 0 0 0 57 113 57 113 3 5 0 11-5 14-2 1-3 1-5 1-4 0-8-2-9-6 0 0-62-122-62-122 0 0-101 0-101 0 0 0 0 117 0 117 0 6-5 11-11 11-6 0-11-5-11-11 0 0 0-117 0-117 0 0-79 0-79 0 0 0-62 122-62 122-1 4-5 6-9 6-2 0-3 0-5-1-5-3-8-9-5-14 0 0 57-113 57-113 0 0-80 0-80 0-17 0-32-14-32-32 0-18 15-32 32-32z"/>
</svg>