<svg xmlns="http://www.w3.org/2000/svg" viewBox="0 0 32 32" width="32" height="32"><title>add circle thin</title><g class="nc-icon-wrapper" fill="#111111"><path id="add-circle-thin" d="M24.4 15.2h-7.7V7.7c0-.4-.3-.7-.7-.7-.4 0-.7.3-.7.7v7.6H7.6c-.4 0-.7.3-.7.7 0 .4.3.7.7.7h7.6v7.7c0 .4.3.7.7.7.4 0 .7-.3.7-.7v-7.7h7.7c.4 0 .7-.3.7-.7 0-.5-.3-.8-.6-.8zM16 0C7.2 0 0 7.2 0 16s7.2 16 16 16 16-7.2 16-16S24.8 0 16 0zm0 30.6C7.9 30.6 1.4 24.1 1.4 16S7.9 1.4 16 1.4 30.6 7.9 30.6 16 24.1 30.6 16 30.6z"/></g></svg>