<svg width="32" height="32" viewBox="0 0 32 32" xmlns="http://www.w3.org/2000/svg"><g class="nc-icon-wrapper" fill="#444444"><path d="M30.25 31H1.75C.812 31 0 30.167 0 29.143V1.857C0 .833.813 0 1.75 0h28.5C31.188 0 32 .833 32 1.857v27.286C32 30.167 31.187 31 30.25 31zm-7.125-16.397h-6.25V8.198c0-.512-.375-.896-.875-.896s-.875.384-.875.896v6.405h-6.25c-.5 0-.875.385-.875.897s.375.897.875.897h6.25v6.405c0 .512.375.896.875.896s.875-.384.875-.896v-6.405h6.25c.5 0 .875-.385.875-.897s-.375-.897-.875-.897z"></path></g></svg>