<svg width="32" height="32" viewBox="0 0 32 32" xmlns="http://www.w3.org/2000/svg"><g class="nc-icon-wrapper" fill="#444444"><path d="M14.3 11.186C12.955 9.641 10.967 8.74 8.85 8.74a7.123 7.123 0 0 0-5.259 2.319L2.31 9.898C3.976 8.031 6.349 7 8.849 7c2.63 0 5.067 1.095 6.734 3.092l-1.282 1.094zm-3.975 13.462l-.257-1.675c3.463-.58 5.964-3.607 5.964-7.085 0-1.16-.256-2.19-.77-3.22l1.54-.773c.64 1.288.962 2.576.962 3.993a8.85 8.85 0 0 1-7.44 8.76zm-2.501.064C3.399 24.197 0 20.397 0 15.888c0-1.224.257-2.383.705-3.478l1.604.644a7.224 7.224 0 0 0-.578 2.834c0 3.607 2.694 6.698 6.285 7.085l-.192 1.739zM2.309 13.054L.705 12.41c.129-.257.193-.45.321-.644l1.54.773c-.13.193-.193.386-.257.515zM26.036 26l-2.244-4.25-4.81 2.06-.705-1.546 6.22-2.77 2.244 4.123 4.425-2.512.834 1.481L26.036 26zM23.471 7.193l1.731.129-.705 8.63-1.667-.128.64-8.63zm-2.244 1.74l9.234.064v1.739l-9.234-.065V8.932zm5.963-1.547l1.668.13-.642 8.694-1.731-.129.705-8.695zm-5.963 5.024l9.234.129v1.739l-9.234-.129V12.41z"></path></g></svg>