<svg width="32" height="32" viewBox="0 0 32 32" xmlns="http://www.w3.org/2000/svg"><g class="nc-icon-wrapper" fill="#444444"><path d="M23.734 2a8.817 8.817 0 0 0-5.96 2.405h-.05v.05l-9.618 9.617a5.007 5.007 0 0 0 0 7.063 5.007 5.007 0 0 0 7.063 0l8.365-8.365-2.304-2.254-8.315 8.365c-.621.62-1.934.62-2.555 0-.621-.622-.621-1.934 0-2.555l9.617-9.567c2.133-2.007 5.387-2.147 7.314-.1 1.984 2.108 1.977 5.486.05 7.413l-9.618 9.617c-3.215 3.35-8.614 3.22-12.021-.05-3.366-3.23-3.403-8.569 0-11.971l5.96-5.91-2.254-2.305-5.96 5.96c-4.612 4.612-4.6 12.067.05 16.53 4.59 4.407 11.996 4.611 16.48 0l.05-.05 9.567-9.567c3.202-3.202 3.195-8.53.05-11.871C28.043 2.753 25.89 1.982 23.735 2z"></path></g></svg>