<svg width="32" height="32" viewBox="0 0 32 32" xmlns="http://www.w3.org/2000/svg"><g class="nc-icon-wrapper" fill="#444444"><path d="M9.59 0c0 1.638.67 3.095 1.69 4.224a9.85 9.85 0 0 0-2.038 2.434c-.165.101-.336.19-.497.299L6.46 5.417V3.13H3.28v4.025l.695.497 2.236 1.49c-.102.118-.2.228-.298.349H3.776L1.79 8.149 0 10.832l2.385 1.59.398.249h1.292a11.538 11.538 0 0 0-.796 4.223c0 2.936.48 5.32 1.889 7.504l-4.621 4.62 2.285 2.286 4.423-4.422c3.735 3.529 8.298 4.82 8.298 4.82.312.08.642.062.944-.05 0 0 4.358-1.403 8.199-4.77l4.472 4.77 2.285-2.186-4.67-4.92c1.718-2.561 1.938-5.302 1.938-7.652 0-1.485-.284-2.909-.796-4.223h1.292l.398-.249L32 10.832 30.211 8.15l-1.987 1.342h-2.137c-.096-.12-.198-.232-.298-.348l2.236-1.49.696-.498V3.131h-3.18v2.285l-2.237 1.49c-.2-.134-.438-.224-.646-.347a10.129 10.129 0 0 0-1.987-2.335C21.7 3.095 22.36 1.637 22.36 0h-3.18c0 1.055-.514 1.96-1.293 2.534-.5-.593-1.14-.994-1.888-.994-.769 0-1.43.421-1.938 1.044C13.27 2.012 12.77 1.078 12.77 0H9.59zm.994 9.49h.795c-.069.258-.15.52-.15.796 0 1.722 1.342 3.174 3.18 3.726v13.764a18.514 18.514 0 0 1-2.484-1.341c.537-.434.895-1.08.895-1.839a2.36 2.36 0 0 0-2.385-2.385c-.895 0-1.629.482-2.037 1.193-1.625-1.88-1.938-3.406-1.938-6.51 0-3.052 1.621-5.773 4.124-7.403zm10.037 0h.795c2.503 1.631 4.124 4.352 4.124 7.404 0 2.528-.093 4.438-1.938 6.51-.408-.71-1.143-1.193-2.037-1.193a2.36 2.36 0 0 0-2.385 2.385c0 .734.34 1.355.845 1.79a22.2 22.2 0 0 1-2.435 1.34V14.013c1.839-.552 3.18-2.004 3.18-3.726 0-.275-.08-.538-.149-.795zm-10.186 4.77c-1.337 0-2.385 1.397-2.385 3.181s1.048 3.18 2.385 3.18c1.337 0 2.385-1.396 2.385-3.18 0-1.784-1.048-3.18-2.385-3.18zm11.13 0c-1.337 0-2.385 1.397-2.385 3.181s1.048 3.18 2.385 3.18c1.337 0 2.385-1.396 2.385-3.18 0-1.784-1.047-3.18-2.385-3.18z"></path></g></svg>