<svg width="32" height="32" viewBox="0 0 32 32" xmlns="http://www.w3.org/2000/svg"><g class="nc-icon-wrapper" fill="#444444"><path d="M25.23 29.373c-.079.16-.237.16-.396.16h-.238c-.238 0-.397-.32-.476-.399L17.93 16.796c-.08-.239-.08-.557.08-.796l9.362-10.11c.08-.159.397-.318.555-.318.159 0 .397.08.556.319 2.221 2.865 3.49 6.368 3.49 10.109.318 5.333-2.38 10.428-6.743 13.373zm-8.41-16.16c-.079.08-.317.08-.476.08-.238 0-.317 0-.476-.08L8.172 3.026c-.08-.08-.08-.319-.08-.557 0-.24.08-.319.318-.398C10.87.716 13.488 0 16.265 0c3.332 0 6.585.955 9.283 2.945.159.08.317.398.397.478 0 .239 0 .478-.238.557l-8.887 9.234zm4.92 17.115c.079.24.079.319 0 .558-.159.238-.318.318-.476.318-1.27.478-2.54.716-3.809.796h-2.618C6.506 31.284 0 24.438 0 15.92c0-4.378 1.746-8.437 4.84-11.542.08-.08.317-.239.555-.239.159 0 .318.08.397.24l9.124 12.178 6.824 13.771z"></path></g></svg>