<svg width="32" height="32" viewBox="0 0 32 32" xmlns="http://www.w3.org/2000/svg"><g class="nc-icon-wrapper" fill="#444444"><path d="M5.895 17.684a1.69 1.69 0 0 0-1.684 1.684 1.69 1.69 0 0 0 1.684 1.685 1.69 1.69 0 0 0 1.684-1.685 1.69 1.69 0 0 0-1.684-1.684zm0 6.737a1.69 1.69 0 0 0-1.684 1.684 1.69 1.69 0 0 0 1.684 1.684 1.69 1.69 0 0 0 1.684-1.684 1.69 1.69 0 0 0-1.684-1.684zm0-13.474a1.69 1.69 0 0 0-1.684 1.685 1.69 1.69 0 0 0 1.684 1.684 1.69 1.69 0 0 0 1.684-1.684 1.69 1.69 0 0 0-1.684-1.685zm-5.053.843a.834.834 0 0 0-.842.842c0 .471.37.842.842.842s.842-.37.842-.842a.834.834 0 0 0-.842-.842zm5.053-7.58A1.69 1.69 0 0 0 4.21 5.896a1.69 1.69 0 0 0 1.684 1.684 1.69 1.69 0 0 0 1.684-1.684A1.69 1.69 0 0 0 5.895 4.21zm25.263 9.264c.471 0 .842-.37.842-.842a.834.834 0 0 0-.842-.842.834.834 0 0 0-.842.842c0 .471.37.842.842.842zm-11.79-5.895a1.69 1.69 0 0 0 1.685-1.684 1.69 1.69 0 0 0-1.685-1.684 1.69 1.69 0 0 0-1.684 1.684 1.69 1.69 0 0 0 1.684 1.684zm0-5.895c.472 0 .843-.37.843-.842A.834.834 0 0 0 19.367 0a.834.834 0 0 0-.842.842c0 .472.37.842.842.842zM.842 18.526a.834.834 0 0 0-.842.842c0 .472.37.843.842.843s.842-.371.842-.843a.834.834 0 0 0-.842-.842zm11.79 11.79a.834.834 0 0 0-.842.842c0 .471.37.842.842.842.471 0 .842-.37.842-.842a.834.834 0 0 0-.842-.842zm0-28.632c.471 0 .842-.37.842-.842A.834.834 0 0 0 12.632 0a.834.834 0 0 0-.842.842c0 .472.37.842.842.842zm0 5.895a1.69 1.69 0 0 0 1.684-1.684 1.69 1.69 0 0 0-1.684-1.684 1.69 1.69 0 0 0-1.685 1.684 1.69 1.69 0 0 0 1.685 1.684zm0 9.263a2.523 2.523 0 0 0-2.527 2.526 2.523 2.523 0 0 0 2.527 2.527 2.523 2.523 0 0 0 2.526-2.527 2.523 2.523 0 0 0-2.526-2.526zm13.473.842a1.69 1.69 0 0 0-1.684 1.684 1.69 1.69 0 0 0 1.684 1.685 1.69 1.69 0 0 0 1.684-1.685 1.69 1.69 0 0 0-1.684-1.684zm0 6.737c-.926 0-1.684.758-1.684 1.684a1.69 1.69 0 0 0 1.684 1.684 1.69 1.69 0 0 0 1.684-1.684 1.69 1.69 0 0 0-1.684-1.684zm0-13.474a1.69 1.69 0 0 0-1.684 1.685 1.69 1.69 0 0 0 1.684 1.684 1.69 1.69 0 0 0 1.684-1.684 1.69 1.69 0 0 0-1.684-1.685zm0-6.736a1.69 1.69 0 0 0-1.684 1.684 1.69 1.69 0 0 0 1.684 1.684 1.69 1.69 0 0 0 1.684-1.684 1.69 1.69 0 0 0-1.684-1.684zm5.053 14.315a.834.834 0 0 0-.842.842c0 .472.37.843.842.843.471 0 .842-.371.842-.843a.834.834 0 0 0-.842-.842zm-11.79 5.895a1.69 1.69 0 0 0-1.684 1.684 1.69 1.69 0 0 0 1.684 1.684 1.69 1.69 0 0 0 1.685-1.684 1.69 1.69 0 0 0-1.685-1.684zm0 5.895a.834.834 0 0 0-.842.842c0 .471.37.842.842.842s.843-.37.843-.842a.834.834 0 0 0-.843-.842zm-6.736-20.21a2.523 2.523 0 0 0-2.527 2.526 2.523 2.523 0 0 0 2.527 2.526 2.523 2.523 0 0 0 2.526-2.526 2.523 2.523 0 0 0-2.526-2.527zm0 14.315a1.69 1.69 0 0 0-1.685 1.684 1.69 1.69 0 0 0 1.685 1.684 1.69 1.69 0 0 0 1.684-1.684 1.69 1.69 0 0 0-1.684-1.684zm6.736-7.579a2.523 2.523 0 0 0-2.526 2.526 2.523 2.523 0 0 0 2.526 2.527 2.523 2.523 0 0 0 2.527-2.527 2.523 2.523 0 0 0-2.527-2.526zm0-6.737a2.523 2.523 0 0 0-2.526 2.527 2.523 2.523 0 0 0 2.526 2.526 2.523 2.523 0 0 0 2.527-2.526 2.523 2.523 0 0 0-2.527-2.527z"></path></g></svg>