<svg width="32" height="32" viewBox="0 0 32 32" xmlns="http://www.w3.org/2000/svg"><g class="nc-icon-wrapper" fill="#444444"><path d="M31.313 30H.688A.694.694 0 0 1 0 29.312V2.688C0 2.313.313 2 .688 2h30.625c.375 0 .687.313.687.688v26.625a.694.694 0 0 1-.688.687zm-.625-26.688H1.313v25.375h29.375V3.313zM3.313 4.688h25.375c.375 0 .625.25.625.625v21.375c0 .375-.25.625-.625.625H3.313c-.376 0-.626-.25-.626-.625V5.313c0-.375.25-.625.626-.625zm14 10.625h5.375c.375 0 .625-.25.625-.626 0-.374-.25-.687-.625-.687h-5.375c-.375 0-.625.313-.625.688 0 .374.25.624.625.624zM9.5 16.875a.68.68 0 0 0 0 .938c.188.125.313.187.5.187.188 0 .313-.063.5-.188l3.313-3.312a.76.76 0 0 0 0-1L10.5 10.187a.76.76 0 0 0-1 0 .68.68 0 0 0 0 .938L12.375 14 9.5 16.875z"></path></g></svg>