<svg enable-background="new 0 0 32 32" viewBox="0 0 32 32" xmlns="http://www.w3.org/2000/svg"><path d="m7.8 19.7h-.1c-.1 0-.2.1-.4.2l-1.1.6c-.4.1-.6.5-.6.9s.2.8.5.9c.3.2.8.1 1.1-.1l1.1-.6c.4-.2.6-.7.5-1.2s-.5-.8-1-.7zm12.9-10.8c.4 0 .7-.2.9-.5l.6-1.1c.2-.3.2-.8 0-1.1s-.6-.5-1-.4c-.3.1-.5.2-.7.5l-.6 1.1c-.2.3-.2.7-.1 1s.5.5.9.5zm-12.3 1.6-1.1-.7c-.2-.1-.4-.1-.5-.1h-.1c-.4.1-.8.4-.8.8-.1.4.1.8.5 1l1.1.6c.3.2.7.2 1 .1.3-.2.5-.5.5-.9-.1-.3-.3-.7-.6-.8zm7.6-2.9c.6 0 1-.5 1-1v-1.2c0-.3-.1-.6-.3-.8s-.5-.3-.8-.2h-.1c-.5.1-.8.5-.8 1v1.2c0 .6.4 1 1 1zm-8.4 8.4c0-.6-.5-1-1-1h-1.2-.1-.1-.1c-.6.1-.9.6-.8 1.2s.6.9 1.2.8h1.2c.5 0 .9-.4.9-1zm19-1h-1.2-.1-.1-.1c-.6.1-.9.6-.8 1.2s.6.9 1.2.8h1.2c.6 0 1-.5 1-1s-.5-1-1.1-1zm-10.6-15c-8.8 0-16 7.2-16 16s7.2 16 16 16 16-7.2 16-16-7.2-16-16-16zm0 29.5c-7.5 0-13.5-6-13.5-13.5s6-13.5 13.5-13.5 13.5 6 13.5 13.5-6 13.5-13.5 13.5zm9.7-9.1-1.1-.6c-.2-.1-.4-.2-.6-.2h-.1c-.4.1-.8.4-.8.8-.1.4.1.8.5 1l1.1.6c.3.2.7.3 1.1.1.3-.2.6-.6.5-.9 0-.3-.3-.6-.6-.8zm-14.1-14.1c-.2-.3-.6-.5-.9-.5h-.1-.1c-.3.1-.6.3-.7.6-.2.3-.1.6 0 .9l.6 1.1c.2.3.5.5.9.5s.7-.2.9-.5.2-.7-.1-1zm14.8 3.5-9.6 4.1c-.3-.1-.6-.2-.9-.2-1.2 0-2.3 1-2.3 2.3s1 2.3 2.3 2.3c1.2 0 2.1-.9 2.2-2l8.3-6.2z"/></svg>