<svg fill="none" height="32" viewBox="0 0 32 32" width="32" xmlns="http://www.w3.org/2000/svg"><path clip-rule="evenodd" d="m23.4963.35377c.4717-.471712 1.2366-.471691 1.7083.000048l6.4416 6.441592c.4717.47174.4717 1.23657 0 1.70834l-20.1334 20.13565c-.1365.1366-.3039.2385-.488.297l-9.45052 3.0067c-.43037.1369-.90117.0224-1.220494-.297-.3193231-.3194-.4338301-.7902-.2968443-1.2206l3.0089583-9.4528c.05858-.184.16041-.3513.29696-.4878zm-2.5414 5.95763 4.8803 4.587 3.2485-3.24875-4.7333-4.7333zm3.1712 6.2963-4.8805-4.58719-13.32046 13.31899 4.73376 4.737zm-15.72451 14.628-3.63569-3.6383-1.69828 5.3353z" fill="#000" fill-rule="evenodd"/></svg>