<svg fill="none" height="32" viewBox="0 0 32 32" width="32" xmlns="http://www.w3.org/2000/svg"><path clip-rule="evenodd" d="m24.0635.223126c.2976-.2975133.7799-.2974996 1.0775.000031l6.6358 6.635863c.2976.29753.2976.77992.0001 1.07747l-20.7406 20.74291c-.0862.0862-.1917.1504-.3078.1874l-9.735585 3.0973c-.271438.0864-.568378.0141-.769779-.1873-.2013999-.2014-.2736206-.4984-.1872223-.7698l3.0997063-9.7379c.03695-.1161.10117-.2216.1873-.3077zm-3.6523 5.806794 5.7311 5.38668 4.0183-4.0188-5.5584-5.55843zm4.6531 6.46478-5.7312-5.38683-14.39413 14.39253 5.55873 5.5626zm-15.99031 15.2994-4.86616-4.8696-2.27306 7.1409z" fill="#000" fill-rule="evenodd"/></svg>