<svg width="32" height="32" viewBox="0 0 32 32" xmlns="http://www.w3.org/2000/svg"><g class="nc-icon-wrapper" fill="#444444"><g transform="translate(2369 709)"><path d="M-2341.471-694.692a.669.669 0 0 1 .47-.195v-7.446H-2369v12.666a3.336 3.336 0 0 0 3.333 3.334h15.839l8.357-8.36z"></path><path d="M-2341-705.667a3.337 3.337 0 0 0-3.334-3.333h-21.333a3.336 3.336 0 0 0-3.333 3.333v2h28v-2zm-23.333.667a.666.666 0 1 1-.002-1.332.666.666 0 0 1 .002 1.332zm2.666 0a.666.666 0 1 1-.001-1.332.666.666 0 0 1 .001 1.332zm2.667 0a.666.666 0 1 1-.001-1.332.666.666 0 0 1 0 1.332z"></path><path d="M-2351.003-683.274l6.393-6.392 4.275 4.275-6.392 6.392-4.276-4.275zm13.808-6.198c.26.261.26.684 0 .944l-2.196 2.195-4.276-4.276 2.196-2.196c.26-.26.683-.26.943 0l3.333 3.333zm-10.677 11.228l-4.299 1.22a.661.661 0 0 1-.644-.163.654.654 0 0 1-.161-.645l1.215-4.301 3.889 3.889z"></path></g></g></svg>