<svg xmlns="http://www.w3.org/2000/svg" viewBox="0 0 32 32" width="32" height="32"><title>eye disabled</title><g class="nc-icon-wrapper" fill="#111111"><path d="M27.6 9.1L23 13.7c.1.6.2 1.2.2 1.8 0 4-3.3 7.3-7.3 7.3-.6 0-1.1-.1-1.7-.2l-3.1 3.2c1.5.4 3.1.7 4.8.7 7.3 0 13.5-4.6 16-11-.9-2.4-2.4-4.6-4.3-6.4zM27.1 3l-3.3 3.4c-2.3-1.2-5-1.9-7.8-1.9-7.3 0-13.5 4.6-16 11 1.3 3.4 3.7 6.3 6.7 8.3l-3.6 3.7L4.7 29l24-24.5L27.1 3zm-8.7 8.9c-.7-.5-1.5-.7-2.4-.7-2.4 0-4.4 2-4.4 4.4 0 .9.3 1.8.8 2.5l-2.1 2.1c-1-1.3-1.6-2.9-1.6-4.6 0-4 3.3-7.3 7.3-7.3 1.7 0 3.3.6 4.5 1.6l-2.1 2z" fill="#111111"/></g></svg>