<svg width="32" height="32" viewBox="0 0 32 32" xmlns="http://www.w3.org/2000/svg"><g class="nc-icon-wrapper" fill="#444444"><g transform="translate(1217 805)"><path d="M-1193-805l2.285 5.715h5.715l-4.944 4.173 2.66 6.112-5.716-3.78-5.715 3.78 2.659-6.112-4.944-4.173h5.715L-1193-805z"></path><path fill-rule="evenodd" d="M-1206.339-783.661a5.34 5.34 0 0 0 5.334-5.334 5.34 5.34 0 0 0-5.334-5.333 5.34 5.34 0 0 0-5.333 5.333 5.34 5.34 0 0 0 5.333 5.334zm.006 1.333c-6.282 0-10.667 3.29-10.667 8v1.333h21.333v-1.333c0-4.71-4.385-8-10.666-8z"></path></g></g></svg>