<svg width="32" height="32" viewBox="0 0 32 32" xmlns="http://www.w3.org/2000/svg"><g class="nc-icon-wrapper" fill="#444444"><path d="M1.6 0A1.6 1.6 0 0 0 0 1.6v4.8A1.6 1.6 0 0 0 1.6 8h4.8A1.6 1.6 0 0 0 8 6.4V1.6A1.6 1.6 0 0 0 6.4 0H1.6zm12 0A1.6 1.6 0 0 0 12 1.6v4.8A1.6 1.6 0 0 0 13.6 8h4.8A1.6 1.6 0 0 0 20 6.4V1.6A1.6 1.6 0 0 0 18.4 0h-4.8zm12 0A1.6 1.6 0 0 0 24 1.6v4.8A1.6 1.6 0 0 0 25.6 8h4.8A1.6 1.6 0 0 0 32 6.4V1.6A1.6 1.6 0 0 0 30.4 0h-4.8zm-24 12A1.6 1.6 0 0 0 0 13.6v4.8A1.6 1.6 0 0 0 1.6 20h4.8A1.6 1.6 0 0 0 8 18.4v-4.8A1.6 1.6 0 0 0 6.4 12H1.6zm12 0a1.6 1.6 0 0 0-1.6 1.6v4.8a1.6 1.6 0 0 0 1.6 1.6h4.8a1.6 1.6 0 0 0 1.6-1.6v-4.8a1.6 1.6 0 0 0-1.6-1.6h-4.8zm12 0a1.6 1.6 0 0 0-1.6 1.6v4.8a1.6 1.6 0 0 0 1.6 1.6h4.8a1.6 1.6 0 0 0 1.6-1.6v-4.8a1.6 1.6 0 0 0-1.6-1.6h-4.8zm-24 12A1.6 1.6 0 0 0 0 25.6v4.8A1.6 1.6 0 0 0 1.6 32h4.8A1.6 1.6 0 0 0 8 30.4v-4.8A1.6 1.6 0 0 0 6.4 24H1.6zm12 0a1.6 1.6 0 0 0-1.6 1.6v4.8a1.6 1.6 0 0 0 1.6 1.6h4.8a1.6 1.6 0 0 0 1.6-1.6v-4.8a1.6 1.6 0 0 0-1.6-1.6h-4.8zm12 0a1.6 1.6 0 0 0-1.6 1.6v4.8a1.6 1.6 0 0 0 1.6 1.6h4.8a1.6 1.6 0 0 0 1.6-1.6v-4.8a1.6 1.6 0 0 0-1.6-1.6h-4.8z"></path></g></svg>