<svg xmlns="http://www.w3.org/2000/svg" x="0" y="0" viewBox="0 0 32 32" enable-background="new 0 0 32 32" width="32" height="32"><title>field number</title><g class="nc-icon-wrapper" fill="#111111"><path d="M28.8 9.6V3.2c0-.8-.3-1.8-1-2.2-.5-.6-1.4-1-2.2-1H6.4c-.8 0-1.8.3-2.2 1-.6.5-1 1.5-1 2.2v6.4C1.4 9.6 0 11 0 12.8v8C0 22.6 1.4 24 3.2 24v4.8c0 .8.3 1.8 1 2.2.5.6 1.4 1 2.2 1h19.2c.8 0 1.8-.3 2.2-1 .6-.6 1-1.5 1-2.2V24c1.8 0 3.2-1.4 3.2-3.2v-8c0-1.8-1.4-3.2-3.2-3.2zM6.4 3.2h19.2v6.4H6.4V3.2zm12.8 14.5v1.5h-1.3l-.3 1.8H16l.3-1.8h-1.7l-.3 1.8h-1.6l.3-1.8h-.9v-1.5h1.2l.3-1.8h-1.1v-1.5h1.3l.3-1.8h1.6l-.3 1.8h1.7l.3-1.8H19l-.3 1.8h.9v1.5h-1.2l-.3 1.8h1.1zM6 19.2L5.6 21H4.1l.3-1.8h-.9v-1.5h1.2l.3-1.8H3.9v-1.5h1.3l.3-1.8h1.6l-.3 1.8h1.7l.3-1.8h1.6l-.3 1.8h.9v1.5H9.8l-.3 1.8h1.1v1.5H9.3L9 21H7.4l.3-1.8H6zm19.6 9.6H6.4V24h19.2v4.8zm2.7-12.9h-1.2l-.3 1.8h1.1v1.5h-1.3l-.4 1.8h-1.6l.3-1.8h-1.7l-.3 1.8h-1.6l.3-1.8h-.9v-1.5h1.2l.3-1.8h-1.1v-1.5h1.3l.3-1.8h1.6l-.3 1.8h1.7l.3-1.8h1.6l-.3 1.8h.9v1.5zm-13.5 1.8h1.8l.3-1.9h-1.8l-.3 1.9zm8.7 0h1.8l.3-1.9h-1.8l-.3 1.9zM8.3 15.8H6.5l-.3 1.9H8l.3-1.9z"/></g></svg>