<svg width="32" height="32" viewBox="0 0 32 32" xmlns="http://www.w3.org/2000/svg"><g class="nc-icon-wrapper" fill="#444444"><path d="M28.69 28.169V9.615L19.075 0H6.23C4.427 0 3.075 1.427 3.075 3.155L3 28.845C3 30.573 4.427 32 6.23 32h19.23c.676 0 1.352-.225 1.878-.6l-7.061-7.137c-1.277.826-2.78 1.352-4.432 1.352-4.432 0-8.037-3.606-8.037-8.037 0-4.432 3.605-7.963 8.037-7.963s8.038 3.53 8.038 7.963c0 1.652-.526 3.154-1.352 4.431l6.16 6.16zM11.038 17.578a4.793 4.793 0 0 0 4.807 4.807 4.793 4.793 0 0 0 4.808-4.808c0-2.629-2.179-4.807-4.808-4.807s-4.807 2.178-4.807 4.808z"></path></g></svg>