<svg width="32" height="32" viewBox="0 0 32 32" xmlns="http://www.w3.org/2000/svg"><g class="nc-icon-wrapper" fill="#444444"><path d="M30.479 10.988c.686 0 1.123.125 1.31.375.188.25.25.686.188 1.186l-1.373 14.416c0 .5-.125.936-.375 1.186-.187.312-.624.436-1.31.436H3.144c-1.124 0-1.685-.561-1.748-1.622L.023 12.549c-.062-.5 0-.937.188-1.186.187-.25.624-.375 1.31-.375H30.48zm-1.061-3.495l.312 1.249H2.707l.437-4.182c.125-.437.312-.811.624-1.123.374-.25.749-.437 1.186-.437h5.242c1.123 0 1.997.374 2.746 1.123l.936.936c.687.75 1.623 1.124 2.746 1.124h10.86c.436 0 .873.125 1.247.437.375.25.624.499.687.873z"></path></g></svg>