<svg width="32" height="32" viewBox="0 0 32 32" xmlns="http://www.w3.org/2000/svg"><g class="nc-icon-wrapper" fill="#444444"><path d="M29.686 17.25c1.063 1.063 1.188 2.625.125 3.688 0 0-6.875 7.375-9 8.687-2 1.5-4.562 2.375-7.062 2.375-3.938 0-7.313-2.563-8.438-6.063v-.062c0-.063-.062-.188-.062-.25l-4.125-13.5c-.375-1.063.125-2.25 1.187-2.625 1.063-.375 2.188.188 2.563 1.25l2.375 6.375c.125.25.187.063.187-.125L5.811 5.5c-.187-1.063.563-2.188 1.625-2.375C8.5 2.937 9.561 3.75 9.75 4.813l1.812 9.812c0 .188.125.125.125 0L11.75 2c0-1.125.875-2 2-2s2 .875 2 2l.562 12.5c0 .313.188.313.25.063l1.688-9.626a2.038 2.038 0 0 1 2.25-1.812c1.125.125 1.812 1.188 1.687 2.313l-1.5 12.25c-.125.812-.25 2.125.125 2.562.563.625 1.5.625 2.25-.125l3-3c1.063-1.063 2.563-.938 3.625.125z"></path></g></svg>