<svg width="32" height="32" viewBox="0 0 32 32" xmlns="http://www.w3.org/2000/svg"><g class="nc-icon-wrapper" fill="#444444"><path d="M31.467 27H.533A.524.524 0 0 1 0 26.47v-2.12c0-.266.267-.53.533-.53h30.934c.333 0 .533.33.533.53v2.12c0 .331-.2.53-.533.53zm-6.334-6.229H.533c-.333 0-.533-.331-.533-.53v-2.12c0-.332.267-.53.533-.53h24.6c.267 0 .467.264.467.53v2.12c0 .199-.267.53-.467.53zm-9.666-6.428H.533c-.333 0-.533-.33-.533-.53v-2.12c0-.265.267-.53.533-.53h14.934c.333 0 .533.331.533.53v2.12c0 .398-.333.53-.533.53zm-5.334-6.162h-9.6C.2 8.18 0 7.849 0 7.65V5.53C0 5.198.267 5 .533 5h9.6c.334 0 .534.265.534.53v2.12c0 .266-.267.53-.534.53z"></path></g></svg>