<svg width="32" height="32" viewBox="0 0 32 32" xmlns="http://www.w3.org/2000/svg"><g class="nc-icon-wrapper" fill="#444444"><g transform="translate(1889 -251)"><path d="M-1859.888 255.173l-13.112 9.368-13.112-9.364A3.976 3.976 0 0 1-1885 255h24c.388 0 .756.073 1.112.173z"></path><path d="M-1873 268.998c.408 0 .814-.125 1.162-.373l14.73-10.519c.034.147.061.297.08.45.018.146.028.292.028.442v16c0 2.205-1.794 4-4 4h-24c-2.206 0-4-1.795-4-4v-16c0-.309.044-.606.108-.893l14.73 10.52a1.978 1.978 0 0 0 1.162.373z"></path></g></g></svg>