<svg width="32" height="32" viewBox="0 0 32 32" xmlns="http://www.w3.org/2000/svg"><g class="nc-icon-wrapper" fill="#444444"><g transform="translate(2369 805)"><path d="M-2345.667-790.333c-4.778 0-8.666 3.888-8.666 8.666 0 4.779 3.888 8.667 8.666 8.667 4.78 0 8.667-3.888 8.667-8.667 0-4.778-3.888-8.666-8.667-8.666zm3.638 9.333h-2.97v2.97a.667.667 0 0 1-1.334 0V-781h-2.97a.667.667 0 0 1 0-1.333h2.97v-2.97a.667.667 0 0 1 1.333 0v2.97h2.97a.667.667 0 0 1 0 1.333z"></path><path d="M-2341-801.667a3.337 3.337 0 0 0-3.333-3.333h-21.334a3.336 3.336 0 0 0-3.333 3.333v2h28v-2zm-23.333.667a.666.666 0 1 1-.002-1.332.666.666 0 0 1 .002 1.332zm2.666 0a.666.666 0 1 1 0-1.332.666.666 0 0 1 0 1.332zm2.667 0a.666.666 0 1 1-.001-1.332A.666.666 0 0 1-2359-801z"></path><path d="M-2341-790.505v-7.828h-28v12.666a3.336 3.336 0 0 0 3.333 3.334h10.034c.477-7.195 8.236-11.56 14.633-8.172z"></path></g></g></svg>