<svg xmlns="http://www.w3.org/2000/svg" viewBox="0 0 32 32">
  <path d="M28.3 29H3.7c-2 0-3.7-1.6-3.7-3.7V8.6c0-2 1.7-3.7 3.7-3.7h1.1c.6 0 1.2-.4 1.4-1v-.1l.3-.8c.2-.6.8-1 1.4-1H12c.6 0 1.2.4 1.4 1l.3.8c.2.6.8 1 1.5 1h13.1c2 0 3.7 1.7 3.7 3.7v16.7c0 2.2-1.7 3.8-3.7 3.8zM16.7 9.3c-4.4 0-7.9 3.5-7.9 7.9s3.6 7.9 7.9 7.9 7.9-3.5 7.9-7.9-3.5-7.9-7.9-7.9zm10.7-1.7c-.9 0-1.8.8-1.8 1.8s.8 1.8 1.8 1.8 1.8-.8 1.8-1.8c0-1.1-.8-1.8-1.8-1.8zM16.7 22.2c-2.8 0-5-2.3-5-5 0-2.8 2.2-5 5-5s5 2.2 5 5c0 2.7-2.3 5-5 5z"/>
</svg>
