<svg width="32" height="32" viewBox="0 0 32 32" xmlns="http://www.w3.org/2000/svg"><g class="nc-icon-wrapper" fill="#444444"><path d="M16 0c8.846 0 16 7.154 16 16s-7.154 16-16 16S0 24.846 0 16 7.154 0 16 0zm.308 24.462c.692 0 1.307-.616 1.307-1.308 0-.692-.615-1.308-1.307-1.308-.693 0-1.308.616-1.308 1.308 0 .692.615 1.308 1.308 1.308zm2.615-8.847c1.154-1.076 2-2.23 2-3.923 0-2.615-2.077-4.154-4.615-4.154-3.308 0-5.231 1.539-5.231 4.77h1.462C12.46 10 13.769 8.769 16.23 8.769c1.769 0 3.23 1.154 3.23 3 0 1.154-.615 2.231-1.461 3-1.77 1.616-2.23 2.77-2.308 4.923h1.462c.077-2 0-2.384 1.77-4.077z"></path></g></svg>