<svg width="32" height="32" viewBox="0 0 32 32" xmlns="http://www.w3.org/2000/svg"><g class="nc-icon-wrapper" fill="#444444"><g transform="translate(2177 133)"><path d="M-2146.6-133l-4 3.988c-2.8-2.405-6.42-3.888-10.4-3.888-8.818 0-16 7.16-16 15.95s7.182 15.95 16 15.95 16-7.16 16-15.95h-3.2c0 7.067-5.71 12.76-12.8 12.76-7.09 0-12.8-5.693-12.8-12.76s5.71-12.76 12.8-12.76c3.11 0 5.942 1.11 8.15 2.94l-3.45 3.44h9.7V-133z"></path><path d="M-2168.467-120.2h14.934v2.773h-14.934v-2.773z"></path><path d="M-2168.467-114.867h14.934v2.774h-14.934v-2.774z"></path></g></g></svg>