<svg width="32" height="32" viewBox="0 0 32 32" xmlns="http://www.w3.org/2000/svg"><g class="nc-icon-wrapper" fill="#444444"><path d="M19 8h8V0l-8 8zm-3 20C9.375 28 4 22.625 4 16S9.375 4 16 4c2.438 0 4.75.75 6.625 2l2.25-3.313C22.312 1 19.312 0 16 0 7.187 0 0 7.188 0 16c0 8.813 7.188 16 16 16 8.813 0 16-7.188 16-16h-4c0 6.625-5.375 12-12 12zm0-18c-3.313 0-6 2.688-6 6 0 3.313 2.688 6 6 6 3.313 0 6-2.688 6-6 0-3.313-2.688-6-6-6zm0 10c-2.188 0-4-1.813-4-4 0-2.188 1.813-4 4-4 2.188 0 4 1.813 4 4 0 2.188-1.813 4-4 4z"></path></g></svg>