<svg enable-background="new 0 0 32 32" viewBox="0 0 32 32" xmlns="http://www.w3.org/2000/svg"><path d="m26.2 5.8c1.5 1.5 2.7 3.4 3.4 5.4l.3.7 1.4-.5-.3-.7c-.8-2.2-2.1-4.3-3.8-6s-3.7-3-6-3.8l-.7-.3-.5 1.4.7.3c2.2.8 4 1.9 5.5 3.5zm-14 1.1c-1.8.7-3.4 2-4.4 3.6s-1.7 3.5-1.7 5.5v.8h1.5v-.8c0-1.7.5-3.3 1.4-4.7s2.2-2.5 3.8-3.1c1.5-.6 3.2-.8 4.8-.5s3.1 1.1 4.3 2.3 2 2.7 2.3 4.3.2 3.3-.5 4.8c-.6 1.5-1.7 2.8-3.1 3.8-1.4.9-3 1.4-4.7 1.4h-.8v1.5h.9c2 0 3.9-.6 5.5-1.7s2.9-2.6 3.6-4.4.9-3.8.6-5.7c-.4-1.9-1.3-3.7-2.7-5.1s-3.1-2.3-5.1-2.7c-1.9-.3-3.9-.1-5.7.7zm18.3 8.3v.8c0 2.9-.8 5.7-2.4 8-1.6 2.4-3.9 4.2-6.5 5.3s-5.6 1.4-8.4.8-5.4-1.9-7.4-4c-2-2-3.4-4.6-4-7.4s-.3-5.7.8-8.4c1.1-2.5 3-4.8 5.4-6.3 2.4-1.6 5.2-2.4 8-2.4h.8v-1.6h-.8c-3.2 0-6.3.9-8.9 2.7s-4.7 4.3-5.9 7.2-1.5 6.1-.9 9.2 2.1 6 4.4 8.2c2.2 2.2 5.1 3.8 8.2 4.4s6.3.3 9.2-.9 5.4-3.3 7.2-5.9 2.7-5.7 2.7-8.9v-.8zm-10.7.8c0-2.1-1.7-3.8-3.8-3.8s-3.8 1.7-3.8 3.8 1.7 3.8 3.8 3.8 3.8-1.7 3.8-3.8zm-6.1 0c0-1.3 1-2.3 2.3-2.3s2.3 1 2.3 2.3-1 2.3-2.3 2.3-2.3-1-2.3-2.3zm-4.7 4.7-.4-.7-1.3.8.4.6c.7 1.1 1.7 2 2.7 2.7l.6.4.8-1.3-.5-.2c-.9-.6-1.7-1.4-2.3-2.3z"/></svg>