<svg width="32" height="32" viewBox="0 0 32 32" xmlns="http://www.w3.org/2000/svg"><g class="nc-icon-wrapper" fill="#444444"><g transform="translate(107 261)"><path d="M-104.333-244.972l-2.667.006c.003.987.095 1.974.276 2.936l2.62-.492a13.55 13.55 0 0 1-.23-2.45z"></path><path d="M-103.448-249.787l-2.489-.96a15.858 15.858 0 0 0-.8 2.844l2.623.48c.148-.807.372-1.603.666-2.364z"></path><path d="M-100.876-253.957l-1.974-1.793a16.12 16.12 0 0 0-1.775 2.359l2.27 1.401c.431-.699.929-1.361 1.48-1.967z"></path><path d="M-96.976-256.923l-1.198-2.383c-.878.441-1.72.97-2.503 1.563l1.615 2.123a13.393 13.393 0 0 1 2.086-1.303z"></path><path d="M-77.902-247.504l2.62-.5c-.185-.968-.46-1.92-.817-2.835l-2.484.973c.298.762.528 1.556.681 2.362z"></path><path d="M-77.428-253.477a16.14 16.14 0 0 0-1.788-2.345l-1.964 1.805a13.341 13.341 0 0 1 1.491 1.956l2.261-1.416z"></path><path d="M-86.674-260.407a15.96 15.96 0 0 0-2.903-.531l-.233 2.657c.816.072 1.63.222 2.419.442l.717-2.568z"></path><path d="M-81.402-257.802a16.026 16.026 0 0 0-2.514-1.548l-1.183 2.39a13.31 13.31 0 0 1 2.095 1.29l1.602-2.132z"></path><path d="M-92.274-258.273l-.25-2.655a15.72 15.72 0 0 0-2.9.548l.737 2.563c.783-.225 1.596-.38 2.413-.456z"></path><path d="M-82.958-234.362l1.609 2.125a16.373 16.373 0 0 0 2.179-1.988l-1.972-1.797a13.568 13.568 0 0 1-1.816 1.66z"></path><path d="M-103.427-240.16l-2.484.967c.356.915.8 1.803 1.32 2.639l2.264-1.41a13.317 13.317 0 0 1-1.1-2.197z"></path><path d="M-92.218-231.722l-.24 2.658a16.17 16.17 0 0 0 2.947-.004l-.246-2.656c-.81.075-1.65.077-2.461.002z"></path><path d="M-79.659-237.985l2.267 1.404c.518-.836.961-1.725 1.316-2.642l-2.486-.963a13.397 13.397 0 0 1-1.097 2.201z"></path><path d="M-77.667-245c0 .825-.076 1.648-.224 2.45l2.623.487c.177-.961.268-1.95.268-2.937v-.062l-2.667.062z"></path><path d="M-87.338-232.174l.73 2.562c.946-.269 1.87-.629 2.752-1.068l-1.19-2.385a13.52 13.52 0 0 1-2.292.89z"></path><path d="M-98.115-230.667c.88.439 1.807.796 2.755 1.065l.725-2.568c-.789-.221-1.56-.52-2.293-.885l-1.187 2.388z"></path><path d="M-102.807-234.202a16.197 16.197 0 0 0 2.182 1.984l1.606-2.128a13.478 13.478 0 0 1-1.822-1.657l-1.966 1.801z"></path><path d="M-89-245.001h-4v6.4h4v-6.4z"></path><path d="M-83-251.4h-4v12.8h4v-12.8z"></path><path d="M-95-247.135h-4v8.534h4v-8.534z"></path></g></g></svg>