<svg fill="none" height="32" viewBox="0 0 32 32" width="32" xmlns="http://www.w3.org/2000/svg"><path clip-rule="evenodd" d="m18.086 5.4569v5.1794l-6.3018 7.1382v7.0735l2.2066.9961.028.0144c1.1913.6134 2.6333.9349 4.1026.9349h8.8225c.7774 0 1.2957-.5879 1.2957-1.1544v-.0808l1.2582-9.5009c-.0373-.5459-.5454-1.0903-1.2935-1.0903h-7.5268v-4.794c0-.78222-.2516-1.78065-.7306-2.71085-.4607-.89457-1.07-1.60745-1.7125-2.00173-.0358-.00866-.0691-.01142-.0984-.01018-.0201.00086-.0367.0035-.05.00666zm-1.1872-2.14962c.6988-.37284 1.5521-.40689 2.3122-.09942l.0744.03011.0699.03957c1.2163.68888 2.1482 1.85609 2.7697 3.06291.6238 1.21125 1.0025 2.59221 1.0025 3.83255v2.344h5.0768c1.9954 0 3.7457 1.5536 3.7457 3.6044v.0808l-1.2615 9.5259c-.0498 2.0065-1.7782 3.5153-3.7446 3.5153h-8.8225c-1.7966 0-3.6202-.3876-5.1951-1.1918l-3.59207-1.6216v-9.5822l6.30177-7.13821v-4.29541c0-.96448.5344-1.71828 1.2628-2.1069zm-16.8988 10.60602h7.49144v15.5367h-7.49144zm2.45 2.45v10.6367h2.59144v-10.6367z" fill="#000" fill-rule="evenodd"/></svg>