<svg width="32" height="32" viewBox="0 0 32 32" xmlns="http://www.w3.org/2000/svg"><g class="nc-icon-wrapper" fill="#444444"><path d="M29.477 24.166v-3.917c0-2.39-1.527-5.842-5.842-5.842h-3.386c-2.39 0-2.59-1.195-2.656-1.793v-4.78c1.46-.597 2.457-2.058 2.457-3.718C20.05 1.86 18.257 0 16 0c-2.257 0-4.05 1.859-4.05 4.116 0 1.66.996 3.12 2.457 3.718v4.78c0 .398-.133 1.793-2.656 1.793H8.365c-4.315 0-5.909 3.452-5.909 5.842v3.917C1.062 24.764 0 26.224 0 27.884 0 30.14 1.859 32 4.116 32c2.257 0 4.05-1.859 4.05-4.116 0-1.66-.996-3.12-2.456-3.718v-3.917c0-.465.132-2.656 2.655-2.656h3.386c1.062 0 1.925-.132 2.656-.398v6.971c-1.46.598-2.457 2.058-2.457 3.718C11.95 30.14 13.743 32 16 32c2.257 0 4.05-1.859 4.05-4.116 0-1.66-.996-3.12-2.457-3.718v-6.971c.73.266 1.594.398 2.656.398h3.386c2.39 0 2.655 2.058 2.655 2.656v3.917c-1.46.598-2.456 2.058-2.456 3.718 0 2.257 1.793 4.116 4.05 4.116C30.14 32 32 30.141 32 27.884c0-1.66-1.062-3.12-2.523-3.718zM6.44 27.884c0 1.328-1.062 2.39-2.324 2.39a2.38 2.38 0 0 1-2.39-2.39c0-1.262 1.062-2.324 2.39-2.324 1.262 0 2.324 1.062 2.324 2.324zm7.236-23.768c0-1.328.996-2.39 2.324-2.39 1.328 0 2.324 1.062 2.324 2.39A2.31 2.31 0 0 1 16 6.44a2.31 2.31 0 0 1-2.324-2.324zm4.648 23.768c0 1.328-.996 2.39-2.324 2.39-1.328 0-2.324-1.062-2.324-2.39A2.31 2.31 0 0 1 16 25.56a2.31 2.31 0 0 1 2.324 2.324zm9.56 2.39c-1.262 0-2.324-1.062-2.324-2.39 0-1.262 1.062-2.324 2.324-2.324 1.328 0 2.39 1.062 2.39 2.324a2.38 2.38 0 0 1-2.39 2.39z"></path></g></svg>