<svg width="32" height="32" viewBox="0 0 32 32" xmlns="http://www.w3.org/2000/svg"><g class="nc-icon-wrapper" fill="#444444"><path fill-rule="evenodd" d="M4.345 10.069C4.345 7.317 6.662 5 9.415 5c2.751 0 5.069 2.317 5.069 5.069 0 2.753-2.318 5.07-5.07 5.07-2.752 0-5.069-2.317-5.069-5.07zm13.036 0a5.07 5.07 0 1 1 10.139.001 5.07 5.07 0 0 1-10.14-.001zm-7.967 7.967C2.317 18.036 0 23.83 0 23.83v2.897h18.829V23.83s-2.317-5.794-9.415-5.794zm7.83 1.312c1.305-.723 3.033-1.312 5.206-1.312 6.209 0 8.752 4.434 9.388 5.544.092.159.144.25.162.25v2.897H20.413v-3.17l-.136-.316c-.029-.029-.086-.132-.175-.29-.358-.643-1.233-2.21-2.858-3.603z"></path></g></svg>