<svg width="32" height="32" viewBox="0 0 32 32" xmlns="http://www.w3.org/2000/svg"><g class="nc-icon-wrapper" fill="#444444"><path d="M28.741 32h-1.5a.693.693 0 0 1-.686-.686V.686c0-.374.312-.686.687-.686h1.5c.374 0 .687.312.687.686v30.628a.693.693 0 0 1-.688.686zm-6.81 0h-1.562a.693.693 0 0 1-.687-.686V13.786c0-.375.312-.624.687-.624h1.562c.312 0 .625.25.625.624v17.528c0 .374-.313.686-.625.686zm-10.996 0H9.373a.693.693 0 0 1-.688-.686V9.98c0-.312.313-.624.688-.624h1.562c.312 0 .624.312.624.624v21.333c0 .374-.312.686-.624.686zm-6.686 0H2.687A.693.693 0 0 1 2 31.314V16.78c0-.375.312-.686.687-.686H4.25c.375 0 .625.311.625.686v14.534c0 .374-.25.686-.625.686z"></path></g></svg>