<svg enable-background="new 0 0 32 32" viewBox="0 0 32 32" xmlns="http://www.w3.org/2000/svg"><path clip-rule="evenodd" d="m25.2 19.5v-4.5l6.8-6.9-8.1-8.1-6.8 6.8h-4.7c-.6-2.9-3.1-5-6.2-5-3.4-.1-6.2 2.8-6.2 6.2 0 3 2.2 5.6 5 6.2v5.2h-5v12.6h12.6v-12.6h-5v-5.2c2.5-.5 4.4-2.5 4.9-4.9h4.5l5.7 5.7v4.5c-2.9.6-5 3.2-5 6.2 0 3.5 2.8 6.3 6.3 6.3s6.3-2.8 6.3-6.3c-.1-3-2.3-5.6-5.1-6.2zm-15.1 2.4v7.6h-7.6v-7.6zm-3.8-10.1c-2.1 0-3.8-1.7-3.8-3.8s1.7-3.8 3.8-3.8 3.8 1.7 3.8 3.8-1.7 3.8-3.8 3.8zm13.1-3.7 4.5-4.5 4.5 4.5-4.5 4.5zm4.5 21.4c-2.1 0-3.8-1.7-3.8-3.8s1.7-3.8 3.8-3.8 3.8 1.7 3.8 3.8-1.7 3.8-3.8 3.8z" fill-rule="evenodd"/></svg>