<?xml version="1.0" encoding="utf-8"?>
<!-- Generator: Adobe Illustrator 18.1.1, SVG Export Plug-In . SVG Version: 6.00 Build 0)  -->
<svg version="1.1" id="Layer_1" xmlns="http://www.w3.org/2000/svg" xmlns:xlink="http://www.w3.org/1999/xlink" x="0px" y="0px"
	 viewBox="0 0 612 792" enable-background="new 0 0 612 792" xml:space="preserve">
<g>
	<path fill="#FFFFFF" d="M540,199.2c16.8,20.4,31.2,42,42,64.8L174,672c-22.8-10.8-45-25.2-64.8-42L540,199.2L540,199.2z M72,592.8
		L502.8,162c-20.4-16.8-42-31.2-64.8-42L30,528C40.8,550.8,54.6,572.4,72,592.8L72,592.8z M9.6,472.8L382.8,99.6
		c-101.4-26.4-213.6,0-293.4,79.8C10.2,259.2-16.8,371.4,9.6,472.8L9.6,472.8z M601.8,318.6L228.6,691.8
		c101.4,26.4,213.6,0,293.4-79.8C601.8,532.8,628.2,420.6,601.8,318.6z"/>
</g>
</svg>
