<svg fill="#000000" height="512" width="512" id="icon-advanced-pie" viewBox="0 0 512 512">
  <path d="m228 165c-21-24-52-38-85-38-31 0-61 13-82 36l-20-18c26-29 63-45 102-45 41 0 79 17 105 48z m-62 209l-4-26c54-9 93-56 93-110 0-18-4-34-12-50l24-12c10 20 15 40 15 62 0 68-49 125-116 136z m-39 1c-69-8-122-67-122-137 0-19 4-37 11-54l25 10c-6 14-9 29-9 44 0 56 42 104 98 110z m-86-181l-25-10c2-4 3-7 5-10l24 12c-2 3-3 6-4 8z m370 201l-35-66-75 32-11-24 97-43 35 64 69-39 13 23z m-40-292l27 2-11 134-26-2z m-35 27l144 1 0 27-144-1z m93-24l26 2-10 135-27-2z m-93 78l144 2 0 27-144-2z"/>
</svg>