<?xml version="1.0" encoding="UTF-8"?>
<svg width="51px" height="46px" viewBox="0 0 51 46" version="1.1" xmlns="http://www.w3.org/2000/svg" xmlns:xlink="http://www.w3.org/1999/xlink">
    <defs></defs>
    <g id="Page-1" stroke="none" stroke-width="1" fill="none" fill-rule="evenodd">
        <g id="Browser-Width-Msg" transform="translate(-815.000000, -403.000000)" fill-rule="nonzero" fill="#FF1900">
            <g id="Group-2" transform="translate(717.000000, 403.000000)">
                <g id="browser-size" transform="translate(98.000000, 0.000000)">
                    <path d="M51,10.2273333 L51,5.11111111 C51,2.29233333 48.7152,0 45.9,0 L5.1,0 C2.28735,0 0,2.29233333 0,5.11111111 L0,10.2273333 L51,10.2273333 Z M15.3,2.55555556 C16.71015,2.55555556 17.85,3.69788889 17.85,5.11111111 C17.85,6.52433333 16.71015,7.66666667 15.3,7.66666667 C13.88985,7.66666667 12.75,6.52433333 12.75,5.11111111 C12.75,3.69788889 13.88985,2.55555556 15.3,2.55555556 Z M7.65,2.55555556 C9.06015,2.55555556 10.2,3.69788889 10.2,5.11111111 C10.2,6.52433333 9.06015,7.66666667 7.65,7.66666667 C6.23985,7.66666667 5.1,6.52433333 5.1,5.11111111 C5.1,3.69788889 6.23985,2.55555556 7.65,2.55555556 Z" id="Shape"></path>
                    <path d="M0,12.7828889 L0,40.8888889 C0,43.7102222 2.28735,46 5.1,46 L45.9,46 C48.7152,46 51,43.7102222 51,40.8888889 L51,12.7828889 L0,12.7828889 Z M22.95,42.3301599 L12.75,42.3301599 L12.75,32.1079377 L16.04715,35.412271 L21.14715,30.3011599 L24.75285,33.9147154 L19.65285,39.0258266 L22.95,42.3301599 Z M21.14715,28.8036043 L16.04715,23.6924932 L12.75,26.9968266 L12.75,16.7746043 L22.95,16.7746043 L19.65285,20.0789377 L24.75285,25.1900488 L21.14715,28.8036043 Z M38.25,42.3301599 L28.05,42.3301599 L31.34715,39.0258266 L26.24715,33.9147154 L29.85285,30.3011599 L34.95285,35.412271 L38.25,32.1079377 L38.25,42.3301599 Z M38.25,26.9968266 L34.95285,23.6924932 L29.85285,28.8036043 L26.24715,25.1900488 L31.34715,20.0789377 L28.05,16.7746043 L38.25,16.7746043 L38.25,26.9968266 Z" id="Shape"></path>
                </g>
            </g>
        </g>
    </g>
</svg>