<svg fill="#000000" height="512" width="512" id="icon-chart-horz-full-stack-bar" viewBox="0 0 512 512">
  <path d="m23 422l0-33c0-4 4-8 8-8l165 0c4 0 8 5 8 8l0 33c0 5-5 8-8 8l-165 0c-3 1-8-3-8-8z m0-99l0-33c0-4 4-8 8-8l54 0c5 0 8 5 8 8l0 33c0 5-4 8-8 8l-54 0c-3 0-8-6-8-8z m0-99l0-35c0-5 4-8 8-8l123 0c4 0 8 4 8 8l0 36c0 3-3 6-6 6l-126 0c-2 0-7-3-7-7z m0-101l0-33c0-5 4-8 8-8l53 0c5 0 8 4 8 8l0 33c0 4-4 8-8 8l-53 0c-3 2-8-2-8-8z m210 299l0-33c0-4 5-8 8-8l166 0c5 0 8 5 8 8l0 33c0 5-4 8-8 8l-166 0c-2 1-8-3-8-8z m-112-99l0-33c0-4 4-8 8-8l166 0c4 0 8 5 8 8l0 33c0 5-5 8-8 8l-166 0c-5 0-8-6-8-8z m70-99l0-33c0-4 5-8 8-8l165 0c5 0 8 5 8 8l0 33c0 5-4 8-8 8l-165 0c-6-1-8-4-8-8z m-70-101l0-33c0-5 4-8 8-8l160 0c5 0 8 4 8 8l0 33c0 4-5 8-8 8l-160 0c-5 2-8-2-8-8z m203 200l0-33c0-4 5-8 8-8l148 0c5 0 8 5 8 8l0 33c0 5-4 8-8 8l-147 0c-4 0-9-6-9-8z m70-99l0-33c0-4 4-8 8-8l78 0c5 0 8 5 8 8l0 33c0 5-4 8-8 8l-78 0c-3-1-8-4-8-8z m-70-101l0-33c0-5 5-8 8-8l148 0c5 0 8 4 8 8l0 33c0 4-4 8-8 8l-147 0c-4 2-9-2-9-8z m119 299l0-33c0-4 4-8 8-8l29 0c5 0 8 5 8 8l0 33c0 5-4 8-8 8l-29 0c-3 1-8-3-8-8z"/>
</svg>