<svg xmlns="http://www.w3.org/2000/svg" version="1" viewBox="0 0 24 24" enable-background="new 0 0 24 24" width="24" height="24">
    <path d="M 2 2 L 2 21 L 2 22 L 3 22 L 22 22 L 22 20 L 4 20 L 4 2 L 2 2 z M 18 2 C 16.895431 2 16 2.8954305 16 4 C 16 5.1045695 16.895431 6 18 6 C 19.104569 6 20 5.1045695 20 4 C 20 2.8954305 19.104569 2 18 2 z M 16 7 C 14.895431 7 14 7.8954305 14 9 C 14 10.104569 14.895431 11 16 11 C 17.104569 11 18 10.104569 18 9 C 18 7.8954305 17.104569 7 16 7 z M 10 8 C 8.8954305 8 8 8.8954305 8 10 C 8 11.104569 8.8954305 12 10 12 C 11.104569 12 12 11.104569 12 10 C 12 8.8954305 11.104569 8 10 8 z M 20 11 C 18.895431 11 18 11.895431 18 13 C 18 14.104569 18.895431 15 20 15 C 21.104569 15 22 14.104569 22 13 C 22 11.895431 21.104569 11 20 11 z M 14 13 C 12.895431 13 12 13.895431 12 15 C 12 16.104569 12.895431 17 14 17 C 15.104569 17 16 16.104569 16 15 C 16 13.895431 15.104569 13 14 13 z M 8 14 C 6.8954305 14 6 14.895431 6 16 C 6 17.104569 6.8954305 18 8 18 C 9.1045695 18 10 17.104569 10 16 C 10 14.895431 9.1045695 14 8 14 z"/>
</svg>