<svg fill="#000000" height="512" width="512" id="icon-chart-pie" viewBox="0 0 512 512">
  <path d="m371 424c-1 2-3 2-5 2-1 0-1 0-3 0-3 0-5-4-6-5l-78-155c-1-3-1-7 1-10l118-127c1-2 5-4 7-4 2 0 5 1 7 4 28 36 44 80 44 127 4 67-30 131-85 168z m-106-203c-1 1-4 1-6 1-3 0-4 0-6-1l-97-128c-1-1-1-4-1-7 0-3 1-4 4-5 31-17 64-26 99-26 42 0 83 12 117 37 2 1 4 5 5 6 0 3 0 6-3 7z m62 215c1 3 1 4 0 7-2 3-4 4-6 4-16 6-32 9-48 10l-33 0c-105-9-187-95-187-202 0-55 22-106 61-145 1-1 4-3 7-3 2 0 4 1 5 3l115 153z"/>
</svg>