<svg fill="#000000" height="512" width="512" id="icon-circuit-board" viewBox="0 0 512 512">
  <path d="m160 128c18 0 32 14 32 32 0 18-14 32-32 32-18 0-32-14-32-32 0-18 14-32 32-32z m320 256c0 53-43 96-96 96l-224 0 96-96 41 0c11 19 31 32 55 32 35 0 64-29 64-64 0-35-29-64-64-64-24 0-44 13-55 32l-73 0-146 146c-28-17-46-47-46-82l0-256c0-53 43-96 96-96l0 73c-19 11-32 31-32 55 0 35 29 64 64 64 24 0 44-13 55-32l82 0c11 19 31 32 55 32 35 0 64-29 64-64 0-35-29-64-64-64-24 0-44 13-55 32l-81 0c-6-10-14-18-24-23l0-73 192 0c53 0 96 43 96 96z m-160-32c0-18 14-32 32-32 18 0 32 14 32 32 0 18-14 32-32 32-18 0-32-14-32-32z m0-192c0-18 14-32 32-32 18 0 32 14 32 32 0 18-14 32-32 32-18 0-32-14-32-32z"/>
</svg>