<svg fill="#000000" height="512" width="512" id="icon-clipboard" viewBox="0 0 512 512">
  <path d="m160 160c2-20 10-35 28-40l1-1c12-3 21-7 21-20l0-21c0-26 20-46 46-46c26 0 46 20 46 46l0 21c0 13 9 18 21 21l1 0c18 5 26 20 28 40z m96-96c-8 0-14 6-14 14c0 8 6 14 14 14c8 0 14-6 14-14c0-8-6-14-14-14z m149-1c15 0 27 13 27 29l0 360c0 16-12 28-27 28l-298 0c-15 0-27-12-27-28l0-360c0-16 12-29 27-29l74 0l0 15c0 11-9 18-19 18l-37 0c-7 0-13 5-13 12l0 328c0 6 6 12 12 12l264 0c6 0 12-6 12-12l0-328c0-7-6-12-13-12l-37 0c-10 0-19-7-19-18l0-15z m-261 145l0-16l112 0l0 16z m0 96l0-16l160 0l0 16z m0 96l0-16l129 0l0 16z m0-48l0-16l176 0l0 16z m0-96l0-16l208 0l0 16z"/>
</svg>