<svg fill="#000000" height="512" width="512" id="icon-clip" viewBox="0 0 512 512">
  <path d="m325 155c6 0 11 5 11 12l0 195c0 28-10 49-24 63c-15 15-36 23-56 23c-40 0-80-31-80-88l0-234c0-24 11-44 29-54c18-10 39-11 57 0c18 11 29 30 29 54l-1 225c0 13-3 24-9 32c-6 8-16 12-25 12c-17 0-34-15-34-44l0-173c0-6 6-12 12-12c6 0 11 6 11 12l0 173c0 14 5 21 11 21c2 0 5-2 7-4c3-4 5-10 5-17l0-225c0-15-6-28-17-34c-11-6-24-6-35 0c-11 6-17 19-17 34l0 234c0 44 29 64 57 64c28 0 57-19 57-63l0-195c0-6 6-11 12-11z"/>
</svg>