<svg xmlns="http://www.w3.org/2000/svg" viewBox="0 0 24 24" enable-background="new 0 0 24 24" width="24" height="24">
    <path style="text-indent:0;text-align:start;line-height:normal;text-transform:none;block-progression:tb;-inkscape-font-specification:Bitstream Vera Sans" d="M 12 4 C 9 4 6.4 5.59375 5 8.09375 C 2.2 8.59375 0 11 0 14 C 0 17.3 2.7 20 6 20 L 9 20 L 9 18 L 6 18 C 3.8 18 2 16.2 2 14 C 2 12 3.4125 10.39375 5.3125 10.09375 L 6.1875 9.90625 L 6.6875 9.09375 C 7.7875 7.19375 9.8 6 12 6 C 14.8 6 17.2125 7.89375 17.8125 10.59375 L 18.09375 11.90625 L 19.40625 12.09375 C 20.90625 12.29375 21.90625 13.6 21.90625 15 C 21.90625 16.7 20.60625 18 18.90625 18 L 14.90625 18 L 14.90625 20 L 18.90625 20 C 21.70625 20 23.90625 17.8 23.90625 15 C 24.00625 12.5 22.2125 10.39375 19.8125 10.09375 C 18.9125 6.59375 15.8 4 12 4 z M 12 9.6875 L 8 15 L 11 15 L 11 22 L 13 22 L 13 15 L 16 15 L 12 9.6875 z" color="#000" overflow="visible" enable-background="accumulate" font-family="Bitstream Vera Sans"/>
</svg>