<?xml version="1.0" encoding="UTF-8"?>
<svg width="35px" height="35px" viewBox="0 0 35 35" version="1.1" xmlns="http://www.w3.org/2000/svg" xmlns:xlink="http://www.w3.org/1999/xlink">
    <defs></defs>
    <g id="Page-1" stroke="none" stroke-width="1" fill="none" fill-rule="evenodd">
        <g id="copy-app" fill-rule="nonzero" fill="#5B6882">
            <g id="Page-1">
                <g id="Applications-&gt;-New-App-&gt;-General">
                    <g id="##new-app">
                        <g id="app-copy">
                            <g id="Group">
                                <g id="Filled_Icon">
                                    <g id="Group">
                                        <path d="M25.5208333,16.0416667 C30.7475,16.0416667 35,20.2941667 35,25.5208333 C35,30.7475 30.7475,35 25.5208333,35 C20.2941667,35 16.0416667,30.7475 16.0416667,25.5208333 C16.0416667,20.2941667 20.2941667,16.0416667 25.5208333,16.0416667 Z M21.2,20 C20.54,20 20,20.54 20,21.2 L20,29 L21.2,29 L21.2,21.2 L27.2,21.2 L27.2,20 L21.2,20 Z M23.6,23.6 L29,23.6 L29,30.8 L23.6,30.8 L23.6,23.6 Z M23.6,22.4 C22.94,22.4 22.4,22.94 22.4,23.6 L22.4,30.8 C22.4,31.46 22.94,32 23.6,32 L29,32 C29.66,32 30.2,31.46 30.2,30.8 L30.2,23.6 C30.2,22.94 29.66,22.4 29,22.4 L23.6,22.4 Z" id="Shape"></path>
                                        <g id="Shape">
                                            <path d="M30.625,3.64583333 L30.625,5.83333333 L0,5.83333333 L0,3.64583333 C0,1.63479167 1.63479167,0 3.64583333,0 L26.9791667,0 C28.98875,0 30.625,1.63479167 30.625,3.64583333 Z M5.10416667,4.375 C5.50520833,4.375 5.83333333,4.04833333 5.83333333,3.64583333 C5.83333333,3.24333333 5.50520833,2.91666667 5.10416667,2.91666667 C4.70020833,2.91666667 4.375,3.24333333 4.375,3.64583333 C4.375,4.04833333 4.70020833,4.375 5.10416667,4.375 Z M8.02083333,4.375 C8.421875,4.375 8.75,4.04833333 8.75,3.64583333 C8.75,3.24333333 8.421875,2.91666667 8.02083333,2.91666667 C7.616875,2.91666667 7.29166667,3.24333333 7.29166667,3.64583333 C7.29166667,4.04833333 7.616875,4.375 8.02083333,4.375 Z M10.9375,4.375 C11.3385417,4.375 11.6666667,4.04833333 11.6666667,3.64583333 C11.6666667,3.24333333 11.3385417,2.91666667 10.9375,2.91666667 C10.5335417,2.91666667 10.2083333,3.24333333 10.2083333,3.64583333 C10.2083333,4.04833333 10.5335417,4.375 10.9375,4.375 Z"></path>
                                            <path d="M30.625,15.8535417 L30.625,7.29166667 L0,7.29166667 L0,21.1458333 C0,23.156875 1.63479167,24.7916667 3.64583333,24.7916667 L14.6197917,24.7916667 C15.141875,16.9225 23.6279167,12.149375 30.625,15.8535417 Z"></path>
                                        </g>
                                    </g>
                                </g>
                            </g>
                        </g>
                    </g>
                </g>
            </g>
        </g>
    </g>
</svg>