<svg fill="#000000" height="512" width="512" id="icon-dashboard" viewBox="0 0 512 512">
  <path d="m256 0c-141 0-256 115-256 256 0 141 115 256 256 256 141 0 256-115 256-256 0-141-115-256-256-256z m144 185c0 0 39-16 39-16 6-3 12 0 14 5 2 6 0 12-6 14 0 0-39 17-39 17-1 0-3 0-4 0-4 0-8-2-10-6-2-6 0-12 6-14z m-93-81c0 0 17-39 17-39 2-6 8-8 14-6 5 2 8 8 5 14 0 0-16 39-16 39-2 4-6 7-10 7-1 0-3 0-4-1-5-2-8-8-6-14z m-133-45c6-2 12 0 14 6 0 0 17 39 17 39 2 6-1 12-6 14-1 1-3 1-4 1-4 0-8-3-10-7 0 0-16-39-16-39-3-6 0-12 5-14z m-62 268c0 0-39 16-39 16-2 1-3 1-4 1-4 0-8-2-10-6-2-6 0-12 6-14 0 0 39-17 39-17 6-2 12 1 14 6 2 6 0 12-6 14z m6-128c-2 4-6 6-10 6-1 0-3 0-4 0 0 0-39-17-39-17-6-2-8-8-6-14 2-5 8-8 14-5 0 0 39 16 39 16 6 2 8 8 6 14z m175 35c3 7 6 14 6 22 0 24-19 43-43 43-24 0-43-19-43-43 0-24 19-43 43-43 8 0 15 3 22 6 0 0 99-99 99-99 4-4 11-4 15 0 4 4 4 11 0 15 0 0-99 99-99 99z m160 104c-2 4-6 6-10 6-1 0-3 0-4-1 0 0-39-16-39-16-6-2-8-8-6-14 2-5 8-8 14-6 0 0 39 17 39 17 6 2 8 8 6 14z"/>
</svg>