<?xml version="1.0" encoding="UTF-8"?>
<svg width="35px" height="35px" viewBox="0 0 35 35" version="1.1" xmlns="http://www.w3.org/2000/svg" xmlns:xlink="http://www.w3.org/1999/xlink">
    <defs></defs>
    <g id="Page-1" stroke="none" stroke-width="1" fill="none" fill-rule="evenodd">
        <g id="edit-app" fill-rule="nonzero" fill="#5B6882">
            <path d="M30.1102083,15.649375 C30.2472917,15.5122917 30.4310417,15.4379167 30.625,15.4364583 L30.625,7.29166667 L0,7.29166667 L0,21.1458333 C0,23.156875 1.63479167,24.7916667 3.64583333,24.7916667 L20.969375,24.7916667 L30.1102083,15.649375 Z" id="Shape"></path>
            <path d="M30.625,3.64583333 C30.625,1.63479167 28.98875,0 26.9791667,0 L3.64583333,0 C1.63479167,0 0,1.63479167 0,3.64583333 L0,5.83333333 L30.625,5.83333333 L30.625,3.64583333 Z M5.10416667,4.375 C4.70020833,4.375 4.375,4.04833333 4.375,3.64583333 C4.375,3.24333333 4.70020833,2.91666667 5.10416667,2.91666667 C5.50520833,2.91666667 5.83333333,3.24333333 5.83333333,3.64583333 C5.83333333,4.04833333 5.50520833,4.375 5.10416667,4.375 Z M8.02083333,4.375 C7.616875,4.375 7.29166667,4.04833333 7.29166667,3.64583333 C7.29166667,3.24333333 7.616875,2.91666667 8.02083333,2.91666667 C8.421875,2.91666667 8.75,3.24333333 8.75,3.64583333 C8.75,4.04833333 8.421875,4.375 8.02083333,4.375 Z M10.9375,4.375 C10.5335417,4.375 10.2083333,4.04833333 10.2083333,3.64583333 C10.2083333,3.24333333 10.5335417,2.91666667 10.9375,2.91666667 C11.3385417,2.91666667 11.6666667,3.24333333 11.6666667,3.64583333 C11.6666667,4.04833333 11.3385417,4.375 10.9375,4.375 Z" id="Shape"></path>
            <path d="M19.6849269,28.1379399 L26.6763781,21.1464886 L31.3528134,25.8229239 L24.3613622,32.8143752 L19.6849269,28.1379399 Z M34.7870837,21.35875 C35.0714587,21.6445833 35.0714587,22.106875 34.7870837,22.39125 L32.3852087,24.7916667 L27.7083337,20.1147917 L30.1102087,17.7129167 C30.3945837,17.4285417 30.8568753,17.4285417 31.1412503,17.7129167 L34.7870837,21.35875 Z M23.1087503,33.639375 L18.4070837,34.97375 C18.1620837,35.0379167 17.8937503,34.986875 17.7027087,34.7958333 C17.5102087,34.6047917 17.459167,34.335 17.5262503,34.09 L18.854792,29.3854167 L23.1087503,33.639375 Z" id="Combined-Shape"></path>
        </g>
    </g>
</svg>