<svg width="20" height="20" viewBox="0 0 20 20" version="1.1" xmlns="http://www.w3.org/2000/svg" xmlns:xlink="http://www.w3.org/1999/xlink">
<title>field-richtext</title>
<desc>Created using Figma</desc>
<g id="Canvas" transform="translate(-6843 8933)">
<g id="field-richtext">
<use xlink:href="#path0_fill" transform="translate(6843 -8933)" fill="#FFFFFF"/>
</g>
</g>
<defs>
<path id="path0_fill" fill-rule="evenodd" d="M 0 1.34375C 0 0.601562 0.598633 0 1.34326 0L 18.6567 0C 19.3984 0 20 0.598633 20 1.34375L 20 18.6562C 20 19.3984 19.4014 20 18.6567 20L 1.34326 20C 0.601562 20 0 19.4014 0 18.6562L 0 1.34375ZM 2.6665 2.66699L 13.333 2.66699L 13.333 4L 2.6665 4L 2.6665 2.66699ZM 4 13.7334L 4 5.7334L 2.6665 5.7334L 2.6665 13.7334L 4 13.7334Z"/>
</defs>
</svg>
