<svg width="20" height="20" viewBox="0 0 20 20" version="1.1" xmlns="http://www.w3.org/2000/svg" xmlns:xlink="http://www.w3.org/1999/xlink">
<g id="Canvas" transform="translate(-6850 8314)">
<g id="field-grid">
<g id="Vector">
<use xlink:href="#path0_fill" transform="translate(6850 -8314)" fill="#FFFFFF"/>
</g>
</g>
</g>
<defs>
<path id="path0_fill" d="M 1 0C 0.447715 0 0 0.447715 0 1L 0 4C 0 4.55228 0.447715 5 1 5L 4 5C 4.55228 5 5 4.55228 5 4L 5 1C 5 0.447715 4.55228 0 4 0L 1 0ZM 8.5 0C 7.94772 0 7.5 0.447715 7.5 1L 7.5 4C 7.5 4.55228 7.94772 5 8.5 5L 11.5 5C 12.0523 5 12.5 4.55228 12.5 4L 12.5 1C 12.5 0.447715 12.0523 0 11.5 0L 8.5 0ZM 16 0C 15.4477 0 15 0.447715 15 1L 15 4C 15 4.55228 15.4477 5 16 5L 19 5C 19.5523 5 20 4.55228 20 4L 20 1C 20 0.447715 19.5523 0 19 0L 16 0ZM 1 7.5C 0.447715 7.5 0 7.94772 0 8.5L 0 11.5C 0 12.0523 0.447715 12.5 1 12.5L 4 12.5C 4.55228 12.5 5 12.0523 5 11.5L 5 8.5C 5 7.94772 4.55228 7.5 4 7.5L 1 7.5ZM 8.5 7.5C 7.94772 7.5 7.5 7.94772 7.5 8.5L 7.5 11.5C 7.5 12.0523 7.94772 12.5 8.5 12.5L 11.5 12.5C 12.0523 12.5 12.5 12.0523 12.5 11.5L 12.5 8.5C 12.5 7.94772 12.0523 7.5 11.5 7.5L 8.5 7.5ZM 16 7.5C 15.4477 7.5 15 7.94772 15 8.5L 15 11.5C 15 12.0523 15.4477 12.5 16 12.5L 19 12.5C 19.5523 12.5 20 12.0523 20 11.5L 20 8.5C 20 7.94772 19.5523 7.5 19 7.5L 16 7.5ZM 1 15C 0.447715 15 0 15.4477 0 16L 0 19C 0 19.5523 0.447715 20 1 20L 4 20C 4.55228 20 5 19.5523 5 19L 5 16C 5 15.4477 4.55228 15 4 15L 1 15ZM 8.5 15C 7.94772 15 7.5 15.4477 7.5 16L 7.5 19C 7.5 19.5523 7.94772 20 8.5 20L 11.5 20C 12.0523 20 12.5 19.5523 12.5 19L 12.5 16C 12.5 15.4477 12.0523 15 11.5 15L 8.5 15ZM 16 15C 15.4477 15 15 15.4477 15 16L 15 19C 15 19.5523 15.4477 20 16 20L 19 20C 19.5523 20 20 19.5523 20 19L 20 16C 20 15.4477 19.5523 15 19 15L 16 15Z"/>
</defs>
</svg>
