<svg xmlns="http://www.w3.org/2000/svg" width="16" height="17" viewBox="0 0 16 17">
  <path d="M2.0752,0.974609 C2.31494,0.655273 2.7998,0.5 3.2002,0.5 L12.7998,0.5 C13.2002,0.5 13.6851,0.655273 13.9248,0.974609 C14.2451,1.214844 14.3999,1.7002 14.3999,2.09961 L14.3999,5.2998 C15.2798,5.2998 16,6.01953 16,6.90039 L16,10.9004 C16,11.7803 15.2798,12.5 14.3999,12.5 L14.3999,14.9004 C14.3999,15.2998 14.2451,15.7051 13.9248,16.0254 C13.6851,16.3447 13.2002,16.5 12.7998,16.5 L3.2002,16.5 C2.7998,16.5 2.31494,16.3447 2.0752,16.0254 C1.75488,15.7852 1.6001,15.2998 1.6001,14.9004 L1.6001,12.5 C0.720215,12.5 0,11.7803 0,10.9004 L0,6.90039 C0,6.01953 0.720215,5.2998 1.6001,5.2998 L1.6001,2.09961 C1.6001,1.7002 1.75488,1.214844 2.0752,0.974609 Z M12.8003,2.09961 L3.2002,2.09961 L3.2002,5.2998 L12.8003,5.2998 L12.8003,2.09961 Z M6.36914,9.95703 C6.36914,10.30176 6.20605,10.47363 5.88037,10.47363 C5.64551,10.47363 5.47607,10.41406 5.37256,10.29297 C5.26855,10.17188 5.2168,9.97852 5.2168,9.71191 L4.28076,9.71191 C4.28076,10.02344 4.34912,10.29297 4.48682,10.5215 C4.62646,10.75 4.81885,10.9258 5.06445,11.0488 C5.31006,11.1709 5.58203,11.2324 5.88037,11.2324 C6.32031,11.2324 6.66846,11.1191 6.92432,10.8926 C7.18018,10.666 7.30859,10.35254 7.30859,9.9502 C7.30859,9.58398 7.20557,9.28223 7.00049,9.0459 C6.79736,8.80859 6.4707,8.6084 6.02002,8.44531 C5.76172,8.33594 5.58203,8.23047 5.48047,8.12891 C5.37891,8.02441 5.32812,7.90918 5.32812,7.78223 C5.32812,7.61914 5.37354,7.49023 5.46436,7.39551 C5.55518,7.29785 5.68213,7.24902 5.84521,7.24902 C6.01855,7.24902 6.15088,7.30664 6.24219,7.4209 C6.33496,7.5332 6.38184,7.69727 6.38184,7.91211 L7.31152,7.91211 C7.31152,7.63574 7.25146,7.3877 7.13086,7.16992 C7.01221,6.95215 6.8418,6.78418 6.61963,6.66504 C6.39746,6.54492 6.14453,6.48438 5.86133,6.48438 C5.43604,6.48438 5.08447,6.60254 4.80762,6.83984 C4.53223,7.07422 4.39502,7.38672 4.39502,7.77637 C4.39502,8.09766 4.49658,8.37695 4.69971,8.61426 C4.90283,8.84863 5.23584,9.05371 5.69922,9.22949 C5.95312,9.33301 6.12793,9.43359 6.22314,9.53125 C6.32031,9.62695 6.36914,9.76855 6.36914,9.95703 Z M2.9458,6.54785 L2.9458,9.70312 C2.9458,10.20605 2.81055,10.45801 2.53955,10.45801 C2.271,10.45801 2.13672,10.24023 2.13672,9.80469 L1.2002,9.80469 C1.2002,10.25293 1.31738,10.6025 1.55273,10.8545 C1.78711,11.1064 2.11621,11.2324 2.53955,11.2324 C2.93311,11.2324 3.25488,11.0967 3.50439,10.8262 C3.75391,10.5557 3.87891,10.19531 3.87891,9.74707 L3.87891,6.54785 L2.9458,6.54785 Z M10.5444,10.7188 C10.8384,10.375 10.9854,9.89453 10.9854,9.27441 L10.9854,8.48438 C10.9814,7.85156 10.8311,7.36035 10.5347,7.01172 C10.2388,6.66016 9.8335,6.48438 9.31934,6.48438 C8.79639,6.48438 8.38818,6.66309 8.09424,7.02051 C7.7998,7.37598 7.65283,7.87109 7.65283,8.50586 L7.65283,9.29688 C7.65723,9.9082 7.80762,10.38379 8.10352,10.7246 C8.3999,11.0635 8.80713,11.2324 9.32568,11.2324 C9.84619,11.2324 10.2524,11.0605 10.5444,10.7188 Z M9.87158,7.57031 C9.98975,7.77344 10.0493,8.08301 10.0493,8.5 L10.0493,9.30273 C10.0469,9.69629 9.98682,9.9873 9.86816,10.17578 C9.75,10.36133 9.56885,10.45508 9.32568,10.45508 C9.07373,10.45508 8.8877,10.35938 8.76709,10.16895 C8.64648,9.97656 8.58594,9.67871 8.58594,9.27441 L8.58594,8.45215 C8.59033,8.05273 8.65186,7.75488 8.77002,7.56055 C8.88867,7.36328 9.07178,7.26562 9.31934,7.26562 C9.56885,7.26562 9.75293,7.36719 9.87158,7.57031 Z M14.6909,11.1689 L14.6909,6.54785 L13.7612,6.54785 L13.7612,9.58203 L12.3931,6.54785 L11.46,6.54785 L11.46,11.1689 L12.3931,11.1689 L12.3931,8.1377 L13.7578,11.1689 L14.6909,11.1689 Z M12.8003,12.5 L3.2002,12.5 L3.2002,14.9004 L12.8003,14.9004 L12.8003,12.5 Z"/>
</svg>
