<svg xmlns="http://www.w3.org/2000/svg" width="20" height="19" viewBox="0 0 20 19">
  <g>
    <polygon points="6.935 12.27 8.863 14.165 6 15.141"/>
    <path d="M13.68455,9.43616 C14.21727,8.91384 14.21727,8.065625 13.68455,7.54241 C13.15182,7.019196 12.28818,7.019196 11.75546,7.54241 L8.22000017,11.01473 L10.14909,12.90937 L13.68455,9.43616 Z"/>
    <path d="M18.1818,1.78571 L15.4545,1.78571 L15.4545,0 L13.6364,0 L13.6364,5.35714 L15.4545,5.35714 L15.4545,3.57143 L18.1818,3.57143 L18.1818,16.9643 L1.81818,16.9643 L1.81818,3.57143 L3.63636,3.57143 L3.63636,1.78571 L1.81818,1.78571 C0.814546,1.78571 0,2.58571 0,3.57143 L0,16.9643 C0,17.95 0.814546,18.75 1.81818,18.75 L18.1818,18.75 C19.1855,18.75 20,17.95 20,16.9643 L20,3.57143 C20,2.58571 19.1855,1.78571 18.1818,1.78571 Z"/>
    <polygon points="12.732 1.786 6.368 1.786 6.368 0 4.55 0 4.55 5.357 6.368 5.357 6.368 3.571 12.732 3.571"/>
  </g>
</svg>
