<svg xmlns="http://www.w3.org/2000/svg" width="20" height="20" viewBox="0 0 20 20">
  <g fill="#FFF" fill-rule="evenodd">
    <polygon fill-rule="nonzero" points="15 0 16.428 3.572 20 3.572 16.91 6.18 18.572 10 15 7.638 11.428 10 13.09 6.18 10 3.572 13.572 3.572"/>
    <path d="M6.66333 13.33667C8.50083 13.33667 9.99667 11.84083 9.99667 10.00333 9.99667 8.16583 8.50083 6.66999964 6.66333 6.66999964 4.82583 6.66999964 3.32999988 8.16583 3.32999988 10.00333 3.32999988 11.84083 4.82583 13.33667 6.66333 13.33667zM6.66667 14.1700004C2.74083 14.1700004-1.77635684e-15 16.22583-1.77635684e-15 19.17L-1.77635684e-15 20.00333 13.3333 20.00333 13.3333 19.17C13.3333 16.22583 10.5925 14.1700004 6.66667 14.1700004z"/>
  </g>
</svg>
