<svg xmlns="http://www.w3.org/2000/svg" width="19" height="20" viewBox="0 0 19 20">
  <path fill="#FFF" d="M18.3414,0 L11.6753,0 L6.67574,0 L0.00962883,0 C0.00962883,0 -0.012036,0.972419 0.00962883,2.49979 L0.197946,4.64795 L0.3546,4.78877 L1.25453,4.78877 L1.39701,4.64795 C1.41618,4.12216 1.45951,4.44463 1.52617,3.94717 C1.58283,3.49721 1.65449,3.19723 1.74032,3.04641 C1.79698,2.96225 1.90197,2.89226 2.05446,2.8356 C2.33943,2.73227 3.30519,2.49979 5.00921,2.49979 L7.509,2.49979 C7.53734,2.7906 7.509,3.51554 7.509,5.83285 L7.509,14.1655 C7.509,16.3986 7.06154,17.4385 6.93738,18.1143 C6.88989,18.3868 6.72824,18.5601 6.45243,18.6351 C6.3091,18.6726 5.75248,18.7193 4.78173,18.7759 L4.63841,18.9168 L4.63841,19.8733 L4.76757,20 C5.66166,19.9433 7.1382,19.9983 9.17553,19.9983 C11.1654,19.9983 12.6211,19.9433 13.5635,20 L13.706,19.8592 L13.706,18.9168 L13.5635,18.7759 C12.5927,18.7193 12.0353,18.6726 11.8928,18.6351 C11.617,18.5601 11.4545,18.3868 11.407,18.1143 C11.2837,17.4385 10.8421,16.3986 10.8421,14.1655 L10.8421,5.83285 C10.8421,3.55304 10.8229,2.8281 10.8421,2.49979 L13.3419,2.49979 C14.9409,2.49979 15.6575,2.69478 15.8483,2.72311 C16.3433,2.78893 16.6482,3.00892 16.7624,3.38472 C16.8191,3.59053 16.8716,3.46138 16.9191,4.66211 L17.0765,4.78877 L17.9756,4.78877 L18.119,4.64795 L18.3414,2.49979 C18.3614,0.931589 18.3414,0 18.3414,0"/>
</svg>
