<svg xmlns="http://www.w3.org/2000/svg" width="18" height="16" viewBox="0 0 18 16">
  <g>
    <path d="M15.6667,3 L10.66667,3 L9.46083,1.421667 C9.17833,0.856667 8.60083,0.5 7.97,0.5 L4.833333,0.5 C4.373333,0.5 4,0.8725 4,1.333333 L4,10.5 C4,11.42 4.746667,12.1667 5.66667,12.1667 L15.6667,12.1667 C16.5867,12.1667 17.3333,11.42 17.3333,10.5 L17.3333,4.66667 C17.3333,3.74667 16.5867,3 15.6667,3 Z"/>
    <path d="M2.33667,3 L0.67,3 L0.67,13.8333 C0.67,14.7525 1.4175,15.5 2.33667,15.5 L14.8367,15.5 L14.8367,13.8333 L2.33667,13.8333 L2.33667,3 Z"/>
  </g>
</svg>
