<svg fill="#000000" height="512" width="512" id="icon-graph" viewBox="0 0 512 512">
  <path d="m92 7c-10 2-21 11-26 21-2 4-3 7-3 13 0 7 0 9 3 15 6 13 19 22 33 23l7 0 3 6c3 7 7 10 12 10 4 0 8-2 10-6 1-3 1-7-3-15l-4-6 3-2c1-1 3-5 5-8 9-16 3-35-14-46-8-6-17-8-26-5z m17 23c6 4 8 15 4 22-3 4-12 7-18 5-7-2-11-7-11-16 1-6 2-9 7-12 5-3 15-2 18 1z m283-22c-11 2-21 9-28 19-11 14-13 33-5 48l3 6-9 10c-5 5-11 11-14 14-2 3-10 11-16 18-7 7-14 14-16 16-2 2-9 10-16 18-8 7-17 17-22 22-5 5-11 12-15 16l-6 6-7-3c-3-2-9-4-12-5-9-3-23-3-33 0-3 1-3 1-7-6-5-9-12-12-19-6-3 4-3 4-3 9 0 3 1 5 1 5 0-1 2 1 3 4l3 5-3 3c-16 15-24 37-20 56 0 4 1 9 2 10 0 2-1 3-6 6-3 2-6 4-7 5-1 0-11 6-23 13-11 7-21 13-22 13-1 1-2 0-3 0-3-3-10-7-14-8-19-5-40 9-45 29-4 18 10 38 30 42 11 3 24-2 33-11 2-3 5-5 5-5 0 0 1-1 1-2 0-1 1-4 2-7 1-4 2-7 2-12l-1-7 4-2c3-1 13-8 24-14 10-7 19-12 20-12 0 0 2-1 3-2 7-6 8-6 13 0 12 11 27 18 41 18 4 0 8 0 8 1 0 0 3 12 7 27 4 15 8 29 8 32 1 3 2 7 2 8 1 1 2 5 3 8 0 3 1 7 2 8 0 1 1 6 2 10l2 7-4 2c-5 4-11 9-14 15-2 3-4 5-5 4 0 0 0 0 0 1 1 0 0 3-1 6-3 7-3 21-1 29 8 21 29 36 50 35 11-1 24-8 31-16 2-2 4-4 5-4 2-3 7-13 8-19 2-6 2-15 0-23-6-18-25-34-43-35l-5-1-6-22c-3-12-6-23-6-24-1-1-2-5-3-8 0-4-1-7-1-8-1-1-1-4-2-8-1-3-2-6-2-8 0-1-1-2-1-3-1-2-5-18-5-19 0 0 2-2 5-4 3-1 8-5 12-8l6-6 6 4c4 2 8 3 9 3 7 0 12-5 11-12-1-4-4-7-10-10l-6-3 2-6c4-14 2-32-6-46-2-4-4-8-4-8 0 0 6-7 13-14 18-19 20-21 31-33 6-6 11-11 11-10 1 0 1 0 1-1-1-1 2-4 24-27 8-8 15-16 17-18 2-2 6-6 10-10l6-7 6 3c15 6 27 6 40-1 14-7 26-22 28-35 4-28-18-55-46-56-4-1-10 0-13 1z m21 21c6 2 13 9 15 16 3 7 2 17-1 23-4 9-13 14-24 14-8 0-14-2-20-8-5-5-7-10-7-18-1-21 15-33 37-27z m-190 184c6 1 9 3 12 4 5 4 14 13 16 18 9 20 2 46-17 56-10 5-26 6-37 2-6-2-15-9-17-12-1-1-2-3-3-4-4-4-7-24-5-34 3-11 10-21 20-26 9-5 22-6 31-4z m-145 111c4 3 7 11 6 15-1 10-6 14-15 14-8-1-11-3-13-8-3-4-3-12-1-16 2-3 5-5 9-6 3-1 12 0 14 1z m202 113c9 4 14 14 13 26-1 7-1 9-3 12-6 11-20 16-34 12-11-3-17-12-17-26 0-9 2-15 7-20 8-7 23-9 34-4z m-145-327c-2 1-4 3-5 6l-1 4 5 10c11 21 17 32 19 33 6 3 11 1 15-3 2-4 2-8-1-13-1-3-4-7-5-10-2-2-5-9-7-13-3-5-6-10-7-11-3-5-8-5-13-3z m180 195c-7 3-9 11-3 17 1 2 3 3 3 3 1 0 4 2 9 5 4 2 7 4 8 4 0 0 2 1 4 3 7 4 14 8 19 10 4 2 5 2 9 1 5-2 8-7 6-13-1-4-1-4-29-20-10-6-19-11-20-11-2 0-4 0-6 1z m123 44c-5 1-12 4-16 7l-4 3-4-2c-9-5-11-6-14-5-5 0-9 5-9 10 0 5 2 8 10 12l6 3 0 8c0 7 0 9 2 14 5 10 17 20 26 22 3 1 11 1 16 0 8-2 19-10 24-18 3-6 5-15 5-20-2-17-18-33-35-34-3-1-6-1-7 0z m13 23c10 5 9 22 0 27-5 2-13 2-17 0-6-4-8-13-5-21 3-6 4-6 10-8 4-1 9 0 12 2z"/>
</svg>