<svg xmlns="http://www.w3.org/2000/svg" width="20" height="20" viewBox="0 0 20 20">
  <path fill="#FFF" d="M10,0 C4.47705,0 0,4.47754 0,10 C0,15.5225 4.47705,20 10,20 C15.5229,20 20,15.5225 20,10 C20,4.47754 15.5229,0 10,0 Z M10,1.54883 C14.665,1.54883 18.4512,5.33496 18.4512,10 C18.4512,14.665 14.665,18.4512 10,18.4512 C5.33496,18.4512 1.54883,14.665 1.54883,10 C1.54883,5.33496 5.33496,1.54883 10,1.54883 Z M9.5127,2.93848 C9.59814,2.83691 9.71582,2.7627 9.85352,2.73242 L9.88574,2.73145 L9.90332,2.73145 C9.91113,2.73047 9.91895,2.73145 9.92676,2.73242 C10.1079,2.70801 10.2905,2.76367 10.4268,2.88574 C10.5625,3.00781 10.6387,3.18359 10.6338,3.36621 L10.6338,4.14648 C10.6338,4.49707 10.3501,4.78125 10,4.78125 C9.64941,4.78125 9.36572,4.49707 9.36572,4.14648 L9.36572,3.36621 C9.36426,3.32324 9.3667,3.28027 9.37354,3.23926 L9.37939,3.20898 L9.39111,3.16309 L9.39844,3.13965 C9.4082,3.11133 9.41992,3.08398 9.43359,3.05762 C9.44287,3.03906 9.45312,3.02148 9.46436,3.00391 C9.479,2.98145 9.49512,2.95898 9.5127,2.93848 Z M6.58496,3.60938 L6.53662,3.63379 C6.47412,3.64844 6.41504,3.67285 6.36084,3.70508 C6.33105,3.72363 6.30273,3.74414 6.27637,3.7666 C6.20361,3.8291 6.14502,3.9082 6.10693,3.99902 C6.07715,4.06934 6.06104,4.14258 6.05859,4.21777 C6.05713,4.25195 6.05859,4.28613 6.06299,4.32031 C6.07373,4.4043 6.10156,4.48633 6.146,4.56055 L6.53662,5.24316 C6.64209,5.4502 6.854,5.58203 7.08594,5.58398 L7.1543,5.58105 C7.18896,5.57812 7.22266,5.57129 7.25586,5.5625 C7.30322,5.5498 7.34814,5.53125 7.39062,5.50781 L7.4126,5.49414 L7.44873,5.47266 L7.49658,5.43555 C7.55518,5.38574 7.60498,5.3252 7.64258,5.25488 C7.75244,5.05078 7.73975,4.80176 7.60938,4.60938 L7.21924,3.95117 C7.17822,3.87012 7.12061,3.80078 7.05225,3.74609 C6.94238,3.6582 6.80371,3.6084 6.6582,3.60938 L6.58496,3.60938 Z M12.9619,3.74121 C13.0308,3.69043 13.1099,3.6543 13.1948,3.63477 C13.4355,3.58789 13.6807,3.68652 13.8228,3.88574 C13.9644,4.08594 13.9766,4.34961 13.8535,4.56152 L13.4634,5.24414 C13.3579,5.45117 13.146,5.58203 12.9136,5.58496 C12.8242,5.58594 12.7378,5.56738 12.6587,5.5332 C12.5967,5.50586 12.5391,5.46875 12.4888,5.42383 C12.4629,5.40039 12.439,5.375 12.4175,5.34766 C12.395,5.32031 12.3745,5.28906 12.3569,5.25586 C12.2471,5.05078 12.2598,4.80273 12.3901,4.61035 L12.7803,3.95117 C12.8247,3.86719 12.8872,3.7959 12.9619,3.74121 Z M4.14648,6.04883 C4.0918,6.05762 4.03955,6.07324 3.99072,6.09473 C3.80029,6.17676 3.65967,6.35156 3.62451,6.56348 C3.58057,6.83008 3.71191,7.09473 3.95166,7.21973 L4.60986,7.61035 C4.80225,7.74023 5.05127,7.75293 5.25586,7.64258 C5.46045,7.5332 5.58691,7.31836 5.58447,7.08594 C5.5835,6.97949 5.55518,6.87793 5.50537,6.78906 C5.44629,6.68359 5.35645,6.59473 5.24414,6.53711 L4.56104,6.14648 C4.53662,6.13086 4.51172,6.11719 4.48535,6.10547 L4.42725,6.08203 C4.36084,6.05957 4.29102,6.04785 4.21973,6.04883 L4.14648,6.04883 Z M10.5366,8.70703 L16.5122,6.14648 L16.5854,6.29297 L11.3901,10.1709 C11.3638,10.3916 11.2881,10.5967 11.1748,10.7734 C10.9268,11.1602 10.4966,11.415 10,11.415 C9.21875,11.415 8.58545,10.7812 8.58545,10 C8.58545,9.21875 9.21875,8.58594 10,8.58594 C10.0498,8.58594 10.0991,8.58984 10.1484,8.59668 C10.2031,8.60449 10.2573,8.61621 10.3101,8.62988 C10.3687,8.64551 10.4258,8.66504 10.481,8.68652 L10.5366,8.70703 Z M3.146,9.36621 C2.7959,9.42676 2.56104,9.75977 2.62207,10.1104 C2.68262,10.46 3.01562,10.6953 3.36572,10.6348 L4.146,10.6348 C4.49658,10.6348 4.78027,10.3506 4.78027,10 C4.78027,9.65039 4.49658,9.36621 4.146,9.36621 L3.36572,9.36621 L3.29248,9.36621 L3.21924,9.36621 L3.146,9.36621 Z M15.2944,9.53906 C15.3149,9.51855 15.3369,9.5 15.3599,9.4834 C15.4385,9.4248 15.5312,9.38379 15.6338,9.36621 L15.707,9.36621 L15.7803,9.36621 L15.8535,9.36621 L16.6338,9.36621 C16.9844,9.36621 17.2681,9.65039 17.2681,10 C17.2681,10.1123 17.2388,10.2178 17.1875,10.3096 C17.1533,10.3711 17.1089,10.4258 17.0571,10.4727 C16.9448,10.5732 16.7964,10.6348 16.6338,10.6348 L15.8535,10.6348 C15.666,10.667 15.4834,10.6143 15.3452,10.5049 C15.2251,10.4102 15.1382,10.2725 15.1099,10.1104 C15.0781,9.92871 15.126,9.75195 15.228,9.61523 C15.248,9.58789 15.27,9.5625 15.2944,9.53906 Z M4.8291,12.292 C4.75049,12.3105 4.67578,12.3438 4.60986,12.3896 L3.95117,12.7803 C3.82715,12.8271 3.72461,12.9111 3.65381,13.0176 C3.59326,13.1084 3.55615,13.2148 3.5498,13.3281 C3.54102,13.4824 3.58984,13.6318 3.68164,13.749 C3.73584,13.8174 3.80469,13.876 3.88525,13.918 C4.10352,14.0312 4.36816,14.0059 4.56104,13.8535 L5.24365,13.4629 C5.50098,13.3223 5.62549,13.0215 5.54346,12.7402 C5.46143,12.459 5.19482,12.2734 4.90234,12.292 L4.8291,12.292 Z M14.4292,12.8076 C14.4736,12.541 14.6846,12.334 14.9512,12.293 L15.0244,12.293 C15.1533,12.2871 15.2812,12.3213 15.3901,12.3906 L16.0488,12.7812 C16.2788,12.8682 16.436,13.083 16.4502,13.3281 C16.4644,13.5742 16.333,13.8047 16.1147,13.9189 C15.8965,14.0322 15.6318,14.0068 15.439,13.8545 L14.7563,13.4639 C14.5166,13.3389 14.3853,13.0742 14.4292,12.8076 Z"/>
</svg>
