<svg fill="#000000" height="512" width="512" id="icon-icon-horz-stacked-bar" viewBox="0 0 512 512">
  <path d="m17 427l0-34c0-5 5-10 9-10l170 0c4 0 9 5 9 10l0 34c0 4-5 9-9 9l-170 0c-4 0-9-5-9-9z m0-102l0-34c0-4 5-9 9-9l56 0c4 0 9 5 9 9l0 34c0 5-5 10-9 10l-56 0c-4-2-9-7-9-10z m0-102l0-36c0-5 5-10 9-10l126 0c5 0 10 5 10 10l0 37c0 4-4 6-6 6l-130 0c-4 0-9-2-9-7z m0-104l0-34c0-4 5-9 9-9l55 0c4 0 9 5 9 9l0 34c0 5-5 10-9 10l-55 0c-4 1-9-4-9-10z m215 308l0-34c0-5 5-10 9-10l171 0c4 0 9 5 9 10l0 34c0 4-5 9-9 9l-171 0c-4 0-9-5-9-9z m-115-102l0-34c0-4 5-9 9-9l171 0c5 0 9 5 9 9l0 34c0 5-4 10-9 10l-171 0c-7-2-9-7-9-10z m72-102l0-34c0-5 4-9 9-9l98 0c4 0 9 4 9 9l0 34c0 5-5 9-9 9l-98 0c-7-2-9-4-9-9z m-72-104l0-34c0-4 5-9 9-9l79 0c4 0 9 5 9 9l0 34c0 5-5 10-9 10l-79 0c-7 1-9-4-9-10z m208 206l0-34c0-4 5-9 10-9l80 0c5 0 9 5 9 9l0 34c0 5-4 10-9 10l-80 0c-5-2-10-7-10-10z m122 102l0-34c0-5 5-10 9-10l30 0c4 0 9 5 9 10l0 34c0 4-5 9-9 9l-30 0c-4 0-9-5-9-9z"/>
</svg>