<?xml version="1.0" encoding="UTF-8"?>
<svg width="18px" height="25px" viewBox="0 0 18 25" version="1.1" xmlns="http://www.w3.org/2000/svg" xmlns:xlink="http://www.w3.org/1999/xlink">
    <!-- Generator: Sketch 42 (36781) - http://www.bohemiancoding.com/sketch -->
    <title>password-icon</title>
    <desc>Created with Sketch.</desc>
    <defs></defs>
    <g id="Page-1" stroke="none" stroke-width="1" fill="none" fill-rule="evenodd" opacity="0.400000006">
        <g id="Login-B" transform="translate(-903.000000, -441.000000)" fill-rule="nonzero" fill="#F0F1F6">
            <g id="login-content" transform="translate(349.500000, 280.500000)">
                <g id="Group-3" transform="translate(550.000000, 65.000000)">
                    <g id="password-icon" transform="translate(4.000000, 96.000000)">
                        <path d="M8.57142857,0 C5.10617829,0 2.28571429,2.82046383 2.28571429,6.28571429 L2.28571429,9.625 C0.873391429,11.1536274 0,13.1876926 0,15.4285714 C0,20.155672 3.844328,24 8.57142857,24 C13.2985291,24 17.1428571,20.155672 17.1428571,15.4285714 C17.1428571,13.1876926 16.2694657,11.1536274 14.8571429,9.625 L14.8571429,6.28571429 C14.8571429,2.82046383 12.0366789,0 8.57142857,0 Z M8.57142857,1.14285714 C11.4193211,1.14285714 13.7142857,3.43782171 13.7142857,6.28571429 L13.7142857,8.58928571 C12.2794537,7.50730857 10.5032714,6.85714286 8.57142857,6.85714286 C6.63958571,6.85714286 4.86340343,7.50730857 3.42857143,8.58928571 L3.42857143,6.28571429 C3.42857143,3.43782171 5.723536,1.14285714 8.57142857,1.14285714 Z M8.57142857,8 C12.6808834,8 16,11.3191166 16,15.4285714 C16,19.5380263 12.6808834,22.8571429 8.57142857,22.8571429 C4.46197371,22.8571429 1.14285714,19.5380263 1.14285714,15.4285714 C1.14285714,11.3191166 4.46197371,8 8.57142857,8 Z M8.57142857,13.7142857 C7.62465486,13.7142857 6.85714286,14.4817977 6.85714286,15.4285714 C6.85714286,16.1721834 7.33808686,16.7982794 8,17.0357143 L8,18.2857143 C8,18.6011429 8.256,18.8571429 8.57142857,18.8571429 C8.88685714,18.8571429 9.14285714,18.6011429 9.14285714,18.2857143 L9.14285714,17.0357143 C9.80477029,16.7982794 10.2857143,16.1721834 10.2857143,15.4285714 C10.2857143,14.4817977 9.51820229,13.7142857 8.57142857,13.7142857 Z" id="Shape"></path>
                    </g>
                </g>
            </g>
        </g>
    </g>
</svg>