<svg xmlns="http://www.w3.org/2000/svg" viewBox="0 0 24 24" width="24" height="24">
    <path d="M 5 2 C 3.9 2 3 2.9 3 4 L 3 19 C 3 20.1 3.9 21 5 21 L 14.40625 21 C 12.61925 21 11.00875 20.223 9.84375 19 L 5 19 L 5 4 L 16 4 L 16 8.21875 C 16.722 8.40275 17.399 8.68775 18 9.09375 L 18 4 C 18 2.9 17.1 2 16 2 L 5 2 z M 7 6 L 7 8 L 14 8 L 14 6 L 7 6 z M 14.40625 9 C 11.41925 9 9 11.41925 9 14.40625 C 9 17.39325 11.41925 19.84375 14.40625 19.84375 C 15.542085 19.84375 16.596803 19.474936 17.46875 18.875 L 20.5 21.90625 L 21.90625 20.5 L 18.875 17.46875 C 19.474936 16.596803 19.84375 15.542085 19.84375 14.40625 C 19.84375 11.41925 17.39325 9 14.40625 9 z M 7 10 L 7 12 L 8.46875 12 C 8.77375 11.252 9.23325 10.576 9.78125 10 L 7 10 z M 14.40625 11.15625 C 16.19825 11.15625 17.65625 12.61325 17.65625 14.40625 C 17.65625 16.19925 16.19925 17.65625 14.40625 17.65625 C 12.61325 17.65625 11.15625 16.19925 11.15625 14.40625 C 11.15625 12.61325 12.61325 11.15625 14.40625 11.15625 z M 12.6875 13 C 12.3695 13.388 12.15625 13.86625 12.15625 14.40625 C 12.15625 15.02225 12.4095 15.593 12.8125 16 L 16 16 L 16 13 L 12.6875 13 z M 7 14 L 7 16 L 8.1875 16 C 8.0595 15.49 8 14.94925 8 14.40625 C 8 14.26525 8.02225 14.139 8.03125 14 L 7 14 z"/>
</svg>