<?xml version='1.0' encoding='iso-8859-1'?>
<svg version="1.1" xmlns="http://www.w3.org/2000/svg" viewBox="0 0 470 470" xmlns:xlink="http://www.w3.org/1999/xlink" enable-background="new 0 0 470 470">
  <g>
    <path d="m470,310.715v-151.539c0-3.32-2.184-6.246-5.366-7.19l-70.113-20.802c5.427-13.275 8.81-26.451 8.81-38.684 0-51.004-41.495-92.5-92.5-92.5s-92.5,41.495-92.5,92.5c0,12.233 3.383,25.409 8.81,38.684l-67.979,20.169-149.529-44.368c-2.268-0.671-4.722-0.235-6.619,1.18s-3.014,3.644-3.014,6.011v151.728c0,0.018 0,0.037 0,0.055v151.541c0,3.32 2.183,6.246 5.367,7.19l151.549,44.967c0.044,0.013 0.113,0.033 0.113,0.033 0.024,0.007 0.049,0.009 0.073,0.016 0.279,0.08 0.565,0.141 0.857,0.188 0.078,0.013 0.156,0.026 0.235,0.036 0.314,0.041 0.632,0.068 0.956,0.069 0.348,0 0.667-0.028 0.982-0.069 0.078-0.01 0.155-0.023 0.233-0.036 0.292-0.047 0.579-0.109 0.859-0.188 0.024-0.007 0.049-0.009 0.073-0.016l.069-.021c0.044-0.013 146.427-43.445 146.427-43.445 0.93,0.413 1.956,0.647 3.039,0.647s2.11-0.234 3.039-0.647l146.496,43.465c0.701,0.208 1.419,0.31 2.134,0.31 1.598,0 3.175-0.511 4.486-1.49 1.896-1.416 3.014-3.644 3.014-6.01v-151.724c-0.001-0.02-0.001-0.04-0.001-0.06zm-15-145.941v136.016l-136.669-40.55v-21.332c9.78-10.071 48.188-50.995 69.876-93.951l66.793,19.817zm-144.169-149.774c42.733,0 77.5,34.766 77.5,77.5 0,12.181-4.075,25.748-10.412,39.485-0.314,0.502-0.572,1.047-0.765,1.633-18.072,38.149-53.029,77.25-66.325,91.396-13.288-14.131-48.213-53.178-66.292-91.314-0.203-0.642-0.486-1.237-0.833-1.78-6.314-13.712-10.373-27.254-10.373-39.421-8.52651e-14-42.733 34.767-77.499 77.5-77.499zm-7.5,223.907v21.332l-136.669,40.55v-136.015l66.793-19.817c21.689,42.956 60.096,83.88 69.876,93.95zm-288.331,36.979l51.818,15.375c0.712,0.211 1.43,0.312 2.136,0.312 3.235,0 6.22-2.109 7.187-5.369 1.179-3.971-1.085-8.145-5.057-9.323l-56.084-16.641v-136.016l136.662,40.55v136.016l-51.817-15.375c-3.97-1.18-8.145,1.085-9.323,5.057-1.179,3.971 1.085,8.145 5.057,9.323l56.084,16.641v136.016l-136.663-40.55v-136.016zm303.331,136.016v-54.297c0-4.142-3.357-7.5-7.5-7.5s-7.5,3.358-7.5,7.5v54.297l-136.669,40.549v-136.015l136.669-40.55v51.719c0,4.142 3.357,7.5 7.5,7.5s7.5-3.358 7.5-7.5v-51.719l136.669,40.55v136.016l-136.669-40.55z"/>
    <path d="m310.831,145c28.948,0 52.5-23.551 52.5-52.5 0-28.948-23.552-52.5-52.5-52.5s-52.5,23.551-52.5,52.5c0,28.948 23.552,52.5 52.5,52.5zm0-90c20.678,0 37.5,16.822 37.5,37.5 0,20.678-16.822,37.5-37.5,37.5s-37.5-16.822-37.5-37.5c0-20.678 16.822-37.5 37.5-37.5z"/>
  </g>
</svg>
