<svg fill="#000000" height="512" width="512" id="icon-multi-line" viewBox="0 0 512 512">
  <path d="m241 325l67 19-7 25-68-20z m189-69l19 17-69 76-19-17z m-260 93l19 17-42 48-19-17z m32 25c-27 0-48-23-48-50 0-28 21-50 48-50 27 0 49 23 49 50-1 28-22 50-49 50z m0-74c-13 0-23 11-23 24 0 13 10 24 23 24 13 0 23-11 23-24 0-13-11-24-23-24z m-92 177c-27 0-49-23-49-49 0-27 22-50 49-50 27 0 49 23 49 50 0 26-23 49-49 49z m0-74c-13 0-23 12-23 25 0 12 10 24 23 24 13 0 23-12 23-24 0-13-11-25-23-25z m236 16c-27 0-49-23-49-50 0-27 22-50 49-50 26 0 48 23 48 50 0 27-22 50-48 50z m0-76c-13 0-23 12-23 24 0 14 10 25 23 25 12 0 23-12 23-25 0-12-11-24-23-24z m117-55c-27 0-48-23-48-50 0-27 21-50 48-50 27 0 49 23 49 50 0 27-22 50-49 50z m0-74c-12 0-23 11-23 24 0 13 11 24 23 24 13 0 23-11 23-24 0-13-10-24-23-24z m-153 22c-27 0-49-24-49-50 0-29 22-50 49-50 27 0 48 23 48 50 0 28-21 50-48 50z m0-75c-13 0-23 12-23 25 0 12 10 24 23 24 13 0 23-12 23-24 0-13-10-25-23-25z m142-29c-27 0-49-23-49-50 0-27 22-50 49-50 27 0 48 23 48 50 0 27-21 50-48 50z m0-76c-13 0-23 12-23 25 0 12 10 24 23 24 13 0 23-12 23-24 0-13-10-25-23-25z m-403 244c-27 0-49-24-49-50 0-27 22-50 49-50 27 0 48 23 48 50 0 26-21 50-48 50z m0-75c-13 0-23 12-23 25 0 12 10 24 23 24 12 0 23-12 23-24 0-13-11-25-23-25z m222-37l5 25-187 37-5-25z m145-94l15 21-86 60-15-21z"/>
</svg>