<svg width="140" height="33" viewBox="0 0 140 33" fill="none" xmlns="http://www.w3.org/2000/svg">
<path d="M3.984 47V15.608H9.696L19.488 33.272L22.704 39.944H22.896C22.768 38.312 22.608 36.568 22.416 34.712C22.256 32.824 22.176 31 22.176 29.24V15.608H27.504V47H21.792L12 29.336L8.784 22.664H8.592C8.72 24.328 8.864 26.072 9.024 27.896C9.216 29.72 9.312 31.512 9.312 33.272V47H3.984ZM48.636 47.576C46.524 47.576 44.556 47.224 42.732 46.52C40.94 45.816 39.372 44.776 38.028 43.4C36.716 42.024 35.692 40.328 34.956 38.312C34.22 36.296 33.852 33.992 33.852 31.4C33.852 28.84 34.236 26.552 35.004 24.536C35.772 22.488 36.812 20.76 38.124 19.352C39.468 17.944 41.036 16.872 42.828 16.136C44.652 15.4 46.604 15.032 48.684 15.032C50.924 15.032 52.812 15.448 54.348 16.28C55.916 17.08 57.196 17.992 58.188 19.016L55.212 22.616C54.412 21.848 53.516 21.208 52.524 20.696C51.564 20.152 50.348 19.88 48.876 19.88C47.468 19.88 46.188 20.152 45.036 20.696C43.916 21.208 42.94 21.96 42.108 22.952C41.308 23.912 40.684 25.096 40.236 26.504C39.788 27.912 39.564 29.496 39.564 31.256C39.564 34.84 40.364 37.656 41.964 39.704C43.596 41.72 45.996 42.728 49.164 42.728C50.06 42.728 50.908 42.616 51.708 42.392C52.508 42.136 53.164 41.784 53.676 41.336V34.568H47.724V30.008H58.668V43.832C57.612 44.888 56.204 45.784 54.444 46.52C52.716 47.224 50.78 47.576 48.636 47.576ZM62.2646 47L71.1926 30.824L62.8406 15.608H69.0326L72.4886 22.568C72.8726 23.304 73.2406 24.056 73.5926 24.824C73.9766 25.592 74.4086 26.44 74.8886 27.368H75.0806C75.4646 26.44 75.8166 25.592 76.1366 24.824C76.4886 24.056 76.8406 23.304 77.1926 22.568L80.5046 15.608H86.4086L78.0566 31.064L86.9846 47H80.7926L76.9526 39.608C76.5366 38.776 76.1206 37.96 75.7046 37.16C75.3206 36.328 74.8886 35.432 74.4086 34.472H74.2166C73.8006 35.432 73.4006 36.328 73.0166 37.16C72.6646 37.96 72.2966 38.776 71.9126 39.608L68.1686 47H62.2646ZM88.0785 36.92V32.888H99.5025V36.92H88.0785ZM117.275 47.576C115.451 47.576 113.803 47.32 112.331 46.808C110.891 46.264 109.643 45.416 108.587 44.264C107.563 43.112 106.763 41.64 106.187 39.848C105.643 38.024 105.371 35.816 105.371 33.224V15.608H110.939V33.656C110.939 35.352 111.083 36.792 111.371 37.976C111.691 39.128 112.123 40.056 112.667 40.76C113.243 41.464 113.915 41.976 114.683 42.296C115.451 42.584 116.315 42.728 117.275 42.728C118.235 42.728 119.115 42.584 119.915 42.296C120.715 41.976 121.403 41.464 121.979 40.76C122.555 40.056 123.003 39.128 123.323 37.976C123.643 36.792 123.803 35.352 123.803 33.656V15.608H129.131V33.224C129.131 35.816 128.859 38.024 128.315 39.848C127.771 41.64 126.971 43.112 125.915 44.264C124.891 45.416 123.643 46.264 122.171 46.808C120.731 47.32 119.099 47.576 117.275 47.576ZM136.968 47V15.608H142.536V47H136.968Z" transform="translate(-3 -15)" fill="white"/>
</svg>
