<svg width="19" height="12" viewBox="0 0 19 12" version="1.1" xmlns="http://www.w3.org/2000/svg" xmlns:xlink="http://www.w3.org/1999/xlink">
<g id="Canvas" transform="translate(-6848 7982)">
<g id="remove-users">
<use xlink:href="#path0_fill" transform="translate(6848 -7982)" fill="#FFFFFF"/>
</g>
</g>
<defs>
<path id="path0_fill" d="M 9.43478 0C 7.95652 0 6.82609 1.13043 6.82609 2.6087C 6.82609 4.08696 7.95652 5.21739 9.43478 5.21739C 10.913 5.21739 12.0435 4.08696 12.0435 2.6087C 12.0435 1.13043 10.913 0 9.43478 0ZM 15.087 0C 13.8863 0 12.913 0.973294 12.913 2.17391C 12.913 3.37453 13.8863 4.34783 15.087 4.34783C 16.2876 4.34783 17.2609 3.37453 17.2609 2.17391C 17.2609 0.973294 16.2876 0 15.087 0ZM 1.6087 4.34783L 0 4.34783L 0 6.08696L 1.6087 6.08696L 3.34783 6.08696L 4.95652 6.08696L 4.95652 4.34783L 3.34783 4.34783L 1.6087 4.34783ZM 15.087 6.08696C 14.0435 6.08696 13.25 6.3587 12.6413 6.79348C 14.6413 7.75 15.4402 9.3913 15.4402 9.56522L 15.4402 9.64674L 19 9.64674L 19 8.53261C 19 8.44565 18.0435 6.08696 15.087 6.08696ZM 9.43478 6.95652C 5.43478 6.95652 4.21739 9.83696 4.21739 9.83696L 4.21739 11.3043L 14.6522 11.3043L 14.6522 9.83696C 14.6522 9.83696 13.4348 6.95652 9.43478 6.95652Z"/>
</defs>
</svg>
