<svg xmlns="http://www.w3.org/2000/svg" width="16" height="15" viewBox="0 0 16 15">
  <g>
    <path d="M8 7C8.96484 7 9.75 6.21484 9.75 5.25 9.75 4.28516 8.96484 3.5 8 3.5 7.03516 3.5 6.25 4.28516 6.25 5.25 6.25 6.21484 7.03516 7 8 7zM8 7.4375C5.93896 7.4375 4.5 8.5166 4.5 10.0625L4.5 10.5 11.5 10.5 11.5 10.0625C11.5 8.5166 10.06104 7.4375 8 7.4375z"/>
    <path d="M15.5,7.5 C15.5,11.6426 12.1421,15 8,15 C3.85791,15 0.5,11.6426 0.5,7.5 C0.5,3.35742 3.85791,0 8,0 C12.1421,0 15.5,3.35742 15.5,7.5 Z M14.5,7.5 C14.5,3.91016 11.5898,1 8,1 C4.41016,1 1.5,3.91016 1.5,7.5 C1.5,11.0898 4.41016,14 8,14 C11.5898,14 14.5,11.0898 14.5,7.5 Z"/>
  </g>
</svg>
