<svg xmlns="http://www.w3.org/2000/svg" width="15" height="15" viewBox="0 0 15 15">
  <g fill-rule="evenodd">
    <path d="M5.85352 4C5.16602 4 4.58643 4.63965 4.58643 5.40039 4.58643 6.16016 5.16602 6.7998 5.85352 6.7998 6.5415 6.7998 7.12109 6.16016 7.12109 5.40039 7.12109 4.63965 6.5415 4 5.85352 4zM9.1123 4C8.4126 4 7.84521 4.62695 7.84521 5.40039 7.84521 6.17285 8.4126 6.7998 9.1123 6.7998 9.8125 6.7998 10.3799 6.17285 10.3799 5.40039 10.3799 4.62695 9.8125 4 9.1123 4zM3.5 9.2002C3.5 9.2002 4.07959 7.60059 5.85352 7.60059 7.62793 7.60059 8.20703 9.2002 8.20703 9.2002L8.20703 10 3.5 10 3.5 9.2002zM9.1123 7.60059C8.56934 7.60059 8.13672 7.7627 7.81104 7.96289 8.2168 8.34766 8.43555 8.7793 8.52539 8.95703 8.54785 9.00195 8.56201 9.03027 8.56934 9.03809L8.60303 9.12598 8.60303 10 11.5 10 11.5 9.2002C11.4956 9.2002 11.4824 9.1748 11.46 9.13184 11.3013 8.8252 10.665 7.60059 9.1123 7.60059z"/>
    <path fill-rule="nonzero" d="M15,7.5 C15,11.6426 11.6421,15 7.5,15 C3.35791,15 0,11.6426 0,7.5 C0,3.35742 3.35791,0 7.5,0 C11.6421,0 15,3.35742 15,7.5 Z M14,7.5 C14,3.91016 11.0898,1 7.5,1 C3.91016,1 1,3.91016 1,7.5 C1,11.0898 3.91016,14 7.5,14 C11.0898,14 14,11.0898 14,7.5 Z"/>
  </g>
</svg>
