<svg fill="#000000" height="512" width="512" id="icon-snapshot" viewBox="0 0 512 512">
  <path d="m453 469c0 0-394 0-394 0-32 0-59-26-59-58 0 0 0-264 0-264 0-32 27-59 59-59 0 0 15 0 15 0 1 0 1 0 1 0 0 0 0 0 1 0 10 0 19-6 23-15 0 0 0 0 0 0 0-1 0-1 0-2 0 0 5-12 5-12 3-9 13-16 23-16 0 0 65 0 65 0 10 0 20 7 23 16 0 0 5 13 5 13 0 0 0 0 0 0 4 9 13 16 24 16 0 0 0 0 0 0 0 0 1 0 1 0 0 0 208 0 208 0 32 0 59 27 59 59 0 0 0 264 0 264 0 32-27 58-59 58z m-186-311c-70 0-127 56-127 125 0 69 57 125 127 125 70 0 127-56 127-125 0-69-57-125-127-125z m172-27c-15 0-28 12-28 28 0 15 13 28 28 28 16 0 29-13 29-28 0-16-13-28-29-28z m-172 231c-44 0-80-36-80-79 0-44 36-79 80-79 44 0 80 35 80 79 0 43-36 79-80 79z"/>
</svg>