<?xml version="1.0" encoding="UTF-8"?>
<svg width="11px" height="11px" viewBox="0 0 11 11" version="1.1" xmlns="http://www.w3.org/2000/svg" xmlns:xlink="http://www.w3.org/1999/xlink">
    <defs></defs>
    <g id="Page-1" stroke="none" stroke-width="1" fill="none" fill-rule="evenodd">
        <path d="M5.1000061,5.100023 L3.60000153,5.100037 L3.10000153,5.100041 L3.10001068,6.100041 L3.60001068,6.100037 L5.1000061,6.100023 L5.1000061,7.599976 L5.1000061,8.099976 L6.1000061,8.099976 L6.1000061,7.599976 L6.1000061,6.100014 L7.60001068,6.1 L8.10001068,6.099995 L8.10000153,5.099995 L7.60000153,5.1 L6.1000061,5.100014 L6.1000061,3.599976 L6.1000061,3.099976 L5.1000061,3.099976 L5.1000061,3.599976 L5.1000061,5.100023 Z M5.5,11 C2.46243388,11 0,8.537566 0,5.5 C0,2.462434 2.46243388,0 5.5,0 C8.53756612,0 11,2.462434 11,5.5 C11,8.537566 8.53756612,11 5.5,11 Z" id="col-circle" fill="#8A96A8" fill-rule="nonzero"></path>
    </g>
</svg>