<svg width="18" height="14" viewBox="0 0 18 14" version="1.1" xmlns="http://www.w3.org/2000/svg" xmlns:xlink="http://www.w3.org/1999/xlink">
<g id="Canvas" transform="translate(-6860 11788)">
<g id="user-add">
<use xlink:href="#path0_fill" transform="translate(6860 -11788)" fill="#FFFFFF"/>
</g>
</g>
<defs>
<path id="path0_fill" fill-rule="evenodd" d="M 5.88428 0C 4.16406 0 2.71582 1.44824 2.71582 3.16797C 2.71582 4.88867 4.16406 6.33691 5.88428 6.33691C 7.604 6.33691 9.05225 4.88867 9.05225 3.16797C 9.05225 1.44824 7.604 0 5.88428 0ZM 5.88379 8.14746C 1.44824 8.14746 0 11.7686 0 11.7686L 0 13.5791L 11.7681 13.5791L 11.7681 11.7686C 11.7681 11.7686 10.3198 8.14746 5.88379 8.14746ZM 17.1816 5.22461L 15.0664 5.22461L 15.0664 2.93359L 13.4551 2.93359L 13.4551 5.22461L 11.334 5.22461L 11.334 6.75391L 13.4551 6.75391L 13.4551 9.14453L 15.0664 9.14453L 15.0664 6.75391L 17.1816 6.75391L 17.1816 5.22461Z"/>
</defs>
</svg>
