<svg fill="#000000" height="512" width="512" id="icon-users-2" viewBox="0 0 512 512">
  <path d="m501 474c0 0-42 0-42 0-6 0-11-5-11-11 0-6 5-10 11-10 0 0 32 0 32 0-1-20-3-64-10-86-9-25-102-60-133-71-4-1-7-5-7-10 0 0 0-31 0-31 0-4 3-8 7-9 1-1 25-12 25-53 0-6 5-11 11-11 0 0 2-4 2-10 0-6-2-10-3-11-6 0-10-4-10-10 0-3 1-6 3-11 5-12 13-35 8-53-1-6-11-18-26-23-8-3-20-5-32 2-5 3-12 2-15-3-3-4-2-11 3-14 15-10 33-12 51-5 20 7 36 24 40 38 6 24-3 49-8 63 6 6 10 15 10 27 0 13-5 24-13 28-2 37-21 54-31 61 0 0 0 18 0 18 90 34 130 58 138 82 11 31 11 99 11 102 0 6-5 11-11 11z m-213-284c-3 37-22 54-32 61 0 0 0 39 0 39 10 3 20 7 30 10 56 20 100 35 109 61 10 31 10 99 10 102 0 6-4 11-10 11 0 0-384 0-384 0-6 0-11-5-11-11 0-3 0-71 11-102 8-26 56-43 111-62 9-3 18-6 27-9 0 0 0-39 0-39-10-7-29-24-31-61-8-5-13-15-13-28 0-7 1-14 4-20 2-3 4-5 6-7-6-20-11-43 0-57 4-6 13-12 28-11 12-21 47-29 76-29 32 0 72 10 79 38 6 23-2 46-8 59 7 6 11 15 11 27 0 13-5 23-13 28z"/>
</svg>