<svg width="20" height="14" viewBox="0 0 20 14" version="1.1" xmlns="http://www.w3.org/2000/svg" xmlns:xlink="http://www.w3.org/1999/xlink">
<g id="Canvas" transform="translate(-6859 11745)">
<g id="users">
<use xlink:href="#path0_fill" transform="translate(6859 -11745)" fill="#FFFFFF"/>
</g>
</g>
<defs>
<path id="path0_fill" fill-rule="evenodd" d="M 2.71582 3.16797C 2.71582 1.44824 4.16406 0 5.88428 0C 7.604 0 9.05225 1.44824 9.05225 3.16797C 9.05225 4.88867 7.604 6.33691 5.88428 6.33691C 4.16406 6.33691 2.71582 4.88867 2.71582 3.16797ZM 10.8628 3.16797C 10.8628 1.41895 12.2812 0 14.0312 0C 15.7808 0 17.1992 1.41895 17.1992 3.16797C 17.1992 4.91797 15.7808 6.33691 14.0312 6.33691C 12.2812 6.33691 10.8628 4.91797 10.8628 3.16797ZM 5.88379 8.14746C 1.44824 8.14746 0 11.7686 0 11.7686L 0 13.5791L 11.7681 13.5791L 11.7681 11.7686C 11.7681 11.7686 10.3198 8.14746 5.88379 8.14746ZM 10.7778 8.96777C 11.5928 8.51562 12.6733 8.14746 14.0312 8.14746C 17.9116 8.14746 19.501 10.9189 19.8989 11.6123C 19.9561 11.7119 19.9888 11.7686 20 11.7686L 20 13.5791L 12.7578 13.5791L 12.7578 11.5986L 12.6733 11.4004C 12.6553 11.3828 12.6196 11.3184 12.564 11.2188C 12.3398 10.8174 11.793 9.83789 10.7778 8.96777Z"/>
</defs>
</svg>
