<svg fill="#000000" height="512" width="512" id="icon-icon-vert-full-stack-bar" viewBox="0 0 512 512">
  <path d="m440 497l-37 0c-5 0-9-4-9-9l0-171c0-4 4-9 9-9l37 0c5 0 9 5 9 9l0 170c0 5-4 10-9 10z m-111 0l-38 0c-4 0-9-4-9-9l0-57c0-4 5-9 9-9l38 0c4 0 9 5 9 9l0 57c1 4-5 9-9 9z m-108 0l-39 0c-5 0-9-4-9-9l0-127c0-5 4-9 9-9l40 0c3 0 6 3 6 5l0 130c2 5-3 10-7 10z m-112 0l-37 0c-5 0-9-4-9-9l0-55c0-4 4-9 9-9l37 0c5 0 9 5 9 9l0 55c1 4-3 9-9 9z m331-217l-37 0c-5 0-9-5-9-9l0-172c0-5 4-9 9-9l37 0c5 0 9 4 9 9l0 171c0 4-4 10-9 10z m-111 116l-38 0c-4 0-9-5-9-9l0-172c0-5 5-9 9-9l38 0c4 0 9 4 9 9l0 171c1 7-5 10-9 10z m-108-73l-38 0c-4 0-9-4-9-9l0-171c0-4 5-9 9-9l38 0c4 0 9 5 9 9l0 170c0 8-5 10-9 10z m-112 73l-37 0c-5 0-9-5-9-9l0-166c0-5 4-9 9-9l37 0c5 0 9 4 9 9l0 165c1 7-3 10-9 10z m220-211l-38 0c-4 0-9-4-9-9l0-153c0-5 5-9 9-9l38 0c4 0 9 4 9 9l0 153c1 4-5 9-9 9z m-108-71l-38 0c-4 0-9-5-9-9l0-81c0-5 5-9 9-9l38 0c4 0 9 4 9 9l0 81c0 3-5 9-9 9z m-112 71l-37 0c-5 0-9-4-9-9l0-153c0-5 4-9 9-9l37 0c5 0 9 4 9 9l0 151c1 6-3 11-9 11z m331-122l-37 0c-5 0-9-5-9-10l0-30c0-5 4-9 9-9l37 0c5 0 9 4 9 9l0 30c0 4-4 10-9 10z"/>
</svg>