<svg width="20" height="20" viewBox="0 0 20 20" version="1.1" xmlns="http://www.w3.org/2000/svg" xmlns:xlink="http://www.w3.org/1999/xlink">
<g id="Canvas" transform="translate(-5822 11842)">
<g id="workflow-icon">
<g id="Shape">
<use xlink:href="#path0_fill" transform="translate(5822 -11842)" fill="#72809B"/>
</g>
</g>
</g>
<defs>
<path id="path0_fill" fill-rule="evenodd" d="M 14.3735 0.566406L 14.9385 0L 15.5039 0.566406L 19.4351 4.50781L 20 5.07422L 19.4351 5.64062L 15.7246 9.35938L 15.7246 12.1924C 17.5117 12.5615 18.8696 14.1631 18.8696 16.0596C 18.8696 18.2266 17.1006 20 14.9385 20C 12.7769 20 11.0073 18.2266 11.0073 16.0596C 11.0073 14.1631 12.3652 12.5615 14.1523 12.1924L 14.1523 9.35938L 10.6143 5.8125L 7.78857 5.8125C 7.47314 7.34863 6.24902 8.5752 4.71729 8.8916L 4.71729 12.1182L 7.07617 12.1182L 7.8623 12.1182L 7.8623 12.9062L 7.8623 19.2119L 7.8623 20L 7.07617 20L 0.786133 20L 0 20L 0 19.2119L 0 12.9062L 0 12.1182L 0.786133 12.1182L 3.14502 12.1182L 3.14502 8.8916C 1.35791 8.52246 0 6.9209 0 5.02441C 0 2.85742 1.76953 1.08398 3.93115 1.08398C 5.82275 1.08398 7.42041 2.44531 7.78857 4.23633L 10.7124 4.23633L 14.3735 0.566406ZM 6.28955 5.02441C 6.28955 3.70898 5.24316 2.66016 3.93115 2.66016C 2.61914 2.66016 1.57227 3.70898 1.57227 5.02441C 1.57227 6.33984 2.61914 7.38965 3.93115 7.38965C 5.24316 7.38965 6.28955 6.33984 6.28955 5.02441ZM 1.57227 13.6943L 6.28955 13.6943L 6.28955 18.4238L 1.57227 18.4238L 1.57227 13.6943ZM 17.2974 16.0586C 17.2974 14.7432 16.251 13.6943 14.939 13.6943C 13.627 13.6943 12.5801 14.7432 12.5801 16.0586C 12.5801 17.374 13.627 18.4238 14.939 18.4238C 16.251 18.4238 17.2974 17.374 17.2974 16.0586Z"/>
</defs>
</svg>
