<svg xmlns="http://www.w3.org/2000/svg" viewBox="0 0 24 24" width="24" height="24">
    <path d="M 7.96875 2.03125 C 7.96875 3.0611345 8.3899923 3.9778792 9.03125 4.6875 C 8.6297598 5.036799 8.1617793 5.5241763 7.75 6.21875 C 7.6461925 6.2823277 7.538261 6.3385116 7.4375 6.40625 L 6 5.4375 L 6 4 L 4 4 L 4 6 L 4 6.53125 L 4.4375 6.84375 L 5.84375 7.78125 C 5.7796156 7.8551593 5.7175213 7.9237868 5.65625 8 L 4.3125 8 L 3.0625 7.15625 L 1.9375 8.84375 L 3.4375 9.84375 L 3.6875 10 L 4 10 L 4.5 10 C 4.1759784 10.82897 4 11.718827 4 12.65625 C 4 14.50228 4.3012185 16.002126 5.1875 17.375 L 2.28125 20.28125 L 3.71875 21.71875 L 6.5 18.9375 C 8.8493826 21.156757 11.71875 21.96875 11.71875 21.96875 A 1.0001 1.0001 0 0 0 12.3125 21.9375 C 12.3125 21.9375 15.053451 21.05483 17.46875 18.9375 L 20.28125 21.9375 L 21.71875 20.5625 L 18.78125 17.46875 C 19.8621 15.857428 20 14.133775 20 12.65625 C 20 11.72204 19.821682 10.826758 19.5 10 L 20 10 L 20.3125 10 L 20.5625 9.84375 L 22.0625 8.84375 L 20.9375 7.15625 L 19.6875 8 L 18.34375 8 C 18.283296 7.9248791 18.219492 7.8541332 18.15625 7.78125 L 19.5625 6.84375 L 20 6.53125 L 20 6 L 20 4 L 18 4 L 18 5.4375 L 16.59375 6.375 C 16.468019 6.2904877 16.318279 6.233882 16.1875 6.15625 C 15.776354 5.4866482 15.322416 5.0274136 14.9375 4.6875 C 15.585967 3.9778119 16 3.0608191 16 2.03125 L 14 2.03125 C 14 2.6946125 13.677116 3.263554 13.1875 3.625 C 12.872646 3.251834 12.469875 3 12 3 C 11.51639 3 11.10025 3.2646086 10.78125 3.65625 C 10.282954 3.2967629 9.96875 2.7093648 9.96875 2.03125 L 7.96875 2.03125 z M 8.59375 8 L 9.09375 8 C 9.0506299 8.1619121 9 8.3270893 9 8.5 C 9 9.5832497 9.8436376 10.496611 11 10.84375 L 11 19.5 C 10.554192 19.301384 10.01697 19.02905 9.4375 18.65625 C 9.7749425 18.383396 10 17.977391 10 17.5 C 10 16.659 9.341 16 8.5 16 C 7.9375813 16 7.4757158 16.303218 7.21875 16.75 C 6.1968541 15.568289 6 14.608048 6 12.65625 C 6 10.736816 7.0198257 9.0255443 8.59375 8 z M 14.90625 8 L 15.40625 8 C 16.980175 9.0255443 18 10.736816 18 12.65625 C 18 14.24586 17.941502 15.446749 16.78125 16.75 C 16.524284 16.303218 16.062419 16 15.5 16 C 14.659 16 14 16.659 14 17.5 C 14 17.961313 14.21341 18.351935 14.53125 18.625 C 13.963746 18.988195 13.430275 19.263974 13 19.46875 L 13 10.84375 C 14.156362 10.496611 15 9.5832497 15 8.5 C 15 8.3270893 14.94937 8.1619121 14.90625 8 z M 8.5 11 C 7.659 11 7 11.878 7 13 C 7 14.122 7.659 15 8.5 15 C 9.341 15 10 14.122 10 13 C 10 11.878 9.341 11 8.5 11 z M 15.5 11 C 14.659 11 14 11.878 14 13 C 14 14.122 14.659 15 15.5 15 C 16.341 15 17 14.122 17 13 C 17 11.878 16.341 11 15.5 11 z"/>
</svg>