<svg fill="#000000" height="512" width="512" id="icon-chart-vert-stacked-bar" viewBox="0 0 512 512">
  <path d="m443 496l-38 0c-5 0-9-4-9-9l0-171c0-4 4-9 9-9l38 0c4 0 9 5 9 9l0 171c0 5-5 9-9 9z m-112 0l-37 0c-5 0-10-4-10-9l0-56c0-4 5-9 10-9l37 0c5 0 9 5 9 9l0 56c1 5-4 9-9 9z m-108 0l-39 0c-4 0-9-4-9-9l0-127c0-5 5-10 9-10l40 0c4 0 6 4 6 6l0 130c2 6-2 10-7 10z m-111 0l-38 0c-5 0-9-4-9-9l0-55c0-4 4-9 9-9l38 0c4 0 9 5 9 9l0 55c1 5-4 9-9 9z m331-216l-38 0c-5 0-9-5-9-9l0-172c0-5 4-9 9-9l38 0c4 0 9 4 9 9l0 172c0 4-5 9-9 9z m-112 115l-37 0c-5 0-10-5-10-9l0-172c0-5 5-9 10-9l37 0c5 0 9 4 9 9l0 172c1 7-4 9-9 9z m-108-72l-38 0c-4 0-9-4-9-9l0-171c0-4 5-9 9-9l38 0c5 0 9 5 9 9l0 171c0 6-4 9-9 9z m-111 72l-38 0c-5 0-9-5-9-9l0-55c0-4 4-9 9-9l38 0c4 0 9 5 9 9l0 55c1 7-4 9-9 9z m331-331l-38 0c-5 0-9-5-9-9l0-31c0-5 4-9 9-9l38 0c4 0 9 4 9 9l0 31c0 4-5 9-9 9z"/>
</svg>