<svg xmlns="http://www.w3.org/2000/svg" width="20" height="20" viewBox="0 0 20 20">
  <g>
    <path d="M0 19L0 16C0 15.447715.447715 15 1 15L19 15C19.5523 15 20 15.447715 20 16L20 19C20 19.55228 19.5523 20 19 20L1 20C.447715 20 0 19.55228 0 19zM0 11.5L0 8.5C0 7.947715.447715 7.5 1 7.5L19 7.5C19.5523 7.5 20 7.947715 20 8.5L20 11.5C20 12.05228 19.5523 12.5 19 12.5L1 12.5C.447715 12.5 0 12.05228 0 11.5zM0 4L0 1C0 .447715.447715 0 1 0L19 0C19.5523 0 20 .447715 20 1L20 4C20 4.55228 19.5523 5 19 5L1 5C.447715 5 0 4.55228 0 4z"/>
  </g>
</svg>
