<svg xmlns="http://www.w3.org/2000/svg" width="20" height="16" viewBox="0 0 20 16">
  <path fill-rule="evenodd" d="M10.7767142,2.66699 C10.7448902,1.78532927 10.0174412,1.09091 9.1111,1.09091 L8,1.09091 L8,0 L9.1111,0 C10.0181,0 10.8255,0.442417 11.3333,1.10795 C11.8411,0.442417 12.6486,0 13.5556,0 L14.6667,0 L14.6667,1.09091 L13.5556,1.09091 C12.649161,1.09091 11.9218055,1.78532927 11.8899857,2.66699 L19,2.66699 C19.5523,2.66699 20,3.11471 20,3.66699 L20,12.3337 C20,12.8859 19.5523,13.3337 19,13.3337 L11.8900118,13.3337 C11.9222008,14.2150389 12.6494073,14.9091 13.5556,14.9091 L14.6667,14.9091 L14.6667,16 L13.5556,16 C12.6486,16 11.8411,15.5576 11.3333,14.892 C10.8255,15.5576 10.0181,16 9.1111,16 L8,16 L8,14.9091 L9.1111,14.9091 C10.0171949,14.9091 10.7444948,14.2150389 10.7766881,13.3337 L1,13.3337 C0.447715,13.3337 0,12.8859 0,12.3337 L0,3.66699 C0,3.11471 0.447715,2.66699 1,2.66699 L10.7767142,2.66699 Z M10.7767142,2.66699 C10.777436,2.68698896 10.7778,2.70708427 10.7778,2.72727 L10.7778,13.2727 C10.7778,13.293128 10.7774273,13.3134634 10.7766881,13.3337 L11.8900118,13.3337 C11.8892727,13.3134634 11.8889,13.293128 11.8889,13.2727 L11.8889,2.72727 C11.8889,2.70708427 11.8892639,2.68698896 11.8899857,2.66699 L10.7767142,2.66699 Z"/>
</svg>
