<svg xmlns="http://www.w3.org/2000/svg" width="22" height="15" viewBox="0 0 22 15">
  <path fill="#5B6882" d="M2,0 L20,0 C21.103,0 22,0.895996 22,2 L22,13 C22,14.103 21.103,15 20,15 L2,15 C0.896973,15 0,14.103 0,13 L0,2 C0,0.895996 0.896973,0 2,0 Z M12,4 C12,3.44678 11.552,3 11,3 C10.448,3 10,3.44678 10,4 C10,4.55322 10.448,5 11,5 C11.552,5 12,4.55322 12,4 Z M11,7 C10.448,7 10,7.44678 10,8 C10,8.55322 10.448,9 11,9 C11.552,9 12,8.55322 12,8 C12,7.44678 11.552,7 11,7 Z M9,4 C9,3.44678 8.552,3 8,3 C7.448,3 7,3.44678 7,4 C7,4.55322 7.448,5 8,5 C8.552,5 9,4.55322 9,4 Z M8,7 C7.448,7 7,7.44678 7,8 C7,8.55322 7.448,9 8,9 C8.552,9 9,8.55322 9,8 C9,7.44678 8.552,7 8,7 Z M4,8 C4,8.55322 4.448,9 5,9 C5.552,9 6,8.55322 6,8 C6,7.44678 5.552,7 5,7 C4.448,7 4,7.44678 4,8 Z M5,5 C5.552,5 6,4.55322 6,4 C6,3.44678 5.552,3 5,3 C4.448,3 4,3.44678 4,4 C4,4.55322 4.448,5 5,5 Z M7,11 L7,13 L15,13 L15,11 L7,11 Z M14,9 C14.552,9 15,8.55322 15,8 C15,7.44678 14.552,7 14,7 C13.448,7 13,7.44678 13,8 C13,8.55322 13.448,9 14,9 Z M13,4 C13,4.55322 13.448,5 14,5 C14.552,5 15,4.55322 15,4 C15,3.44678 14.552,3 14,3 C13.448,3 13,3.44678 13,4 Z M17,5 C17.552,5 18,4.55322 18,4 C18,3.44678 17.552,3 17,3 C16.448,3 16,3.44678 16,4 C16,4.55322 16.448,5 17,5 Z M16,8 C16,8.55322 16.448,9 17,9 C17.552,9 18,8.55322 18,8 C18,7.44678 17.552,7 17,7 C16.448,7 16,7.44678 16,8 Z"/>
</svg>
