<svg xmlns="http://www.w3.org/2000/svg" xmlns:xlink="http://www.w3.org/1999/xlink" version="1.1" x="0px" y="0px" viewBox="0 0 100 100" enable-background="new 0 0 100 100" xml:space="preserve"><path d="M80,40c-5.5,0-10,4.5-10,10c0,5.5,4.5,10,10,10s10-4.5,10-10C90,44.5,85.5,40,80,40z M80,56  c-3.3,0-6-2.7-6-6s2.7-6,6-6s6,2.7,6,6S83.3,56,80,56z M37.2,45h-8.6c-1.7-3-5-5-8.7-5c-5.5,0-10,4.5-10,10c0,5.5,4.5,10,10,10  c3.7,0,6.9-2,8.7-5h8.6l5-5L37.2,45z M20,56c-3.3,0-6-2.7-6-6s2.7-6,6-6s6,2.7,6,6S23.3,56,20,56z M57.5,37.5L50,45.1l-7.5-7.5l-5,5  l7.5,7.5l-7.5,7.5l5,4.9l7.5-7.5l7.5,7.5l4.9-4.9L54.9,50l7.5-7.5L57.5,37.5z"></path></svg>