<svg fill="#000000" height="512" width="512" id="icon-cog" viewBox="0 0 512 512">
  <path d="m511 232c0 0 0 0 0 0-1-10-9-18-19-19 0 0-5 0-5 0 0 0-7 0-7 0 0 0 0 0 0 0-13 0-24-7-29-18-1-2-2-5-3-8-2-6-5-13-8-19 0 0 0 0 0 0-1-2-2-5-3-7 0 0 0 0 0 0-1-4-2-7-2-11 0-9 3-17 9-23 0 0 0 0 0 0 0 0 7-6 7-6 0 0 0 0 0 0 0 0 0-1 0-1 8-7 8-20 1-28 0 0 1 0 1 0-5-6-11-12-16-17-6-6-12-11-18-16 0 0 0 0 0 0-7-6-18-6-26-1 0 0-4 5-4 5 0 0-5 4-5 4 0 0 0 0 0 0-9 9-23 12-34 7-2 0-4-1-5-2-7-4-15-7-23-10-1 0-3 0-4-1 0 0 0 0 0 0-4-1-7-4-10-7-6-5-9-12-10-18 0-3 0-6 0-8 0 0 0-6 0-6 0-10-7-19-17-21-1 0-3 0-4 0-7-1-14-1-21-1-7 0-14 0-21 1 0 0 0 0 0 0-2 0-3 0-4 0-10 2-18 11-18 21 0 0 0 10 0 10 0 13-8 25-21 30 0 0-1 0-2 0-8 3-17 7-25 11 0 0 0 0 0 0 0 0-1 0-2 1-4 1-8 2-13 2-9 0-17-3-23-9 0 0 0 0 0 0 0 0-6-7-6-7-8-7-19-8-28-2 0 1-1 2-2 2 0 0 0 0 0 0-6 5-11 10-16 15-5 5-10 10-15 15 0 0 0 0 0 1 0 1-1 1-2 2-6 9-5 20 2 28 0 0 7 6 7 6 10 10 12 24 7 36-1 1-1 2-1 2-4 8-8 17-11 25 0 1 0 2-1 3 0 0 0 0 0 0-1 4-4 8-7 11-6 6-14 9-22 9 0 0 0 0 0 0 0 0-10 0-10 0-10 0-19 8-21 18 0 1 0 2 0 4-1 6-1 14-1 21 0 0 0 0 0 0 0 0 0 0 0 0 0 7 0 14 1 21 0 0 0 0 0 0 0 1 0 3 0 4 2 10 11 17 21 17 0 0 0 0 0 0 0 0 10 0 10 0 13 0 25 9 29 21 0 0 0 0 0 0 1 1 1 2 1 2 0 1 0 1 0 1 3 8 7 16 10 24 1 0 1 0 1 0 0 1 0 2 1 2 1 4 2 9 2 14 0 9-3 17-9 22 0 0 0 0 0 0 0 0-6 7-6 7 0 0-1 0-1 0 0 0 0 0 0 0-7 8-8 19-2 27 1 1 2 2 3 3 4 6 9 11 14 16 5 5 10 10 15 14 1 1 3 2 4 3 7 5 17 5 24 0 0 0 5-5 5-5 0 0 4-5 4-5 0 0 0 1 0 1 10-10 24-12 36-7 1 0 1 1 2 1 0 0 0 0 0 0 8 4 17 8 25 11 1 0 2 0 2 0 4 2 8 4 12 8 6 6 9 14 9 22 0 0 0 0 0 0 0 0 0 10 0 10 0 11 9 20 19 21 0 0 0 0 0 0 8 1 16 1 24 1 8 0 16 0 23-1 0 0 0 0 0 0 11-1 19-10 19-21 0 0 0-10 0-10 0-13 8-24 19-29 2-1 4-2 7-2 7-3 14-6 20-9 2-1 4-2 6-3 4-1 8-2 12-2 8 0 15 3 21 8 1 1 2 2 3 3 0 0 5 5 5 5 0 0 0 0 0 0 8 8 19 9 28 3 0 0 0 0 0-1 0 0 1-1 2-1 5-5 11-10 16-15 5-5 10-11 15-16 0-1 1-2 2-2 5-8 5-20-2-27 0 0 0 0 0 0 0 0-1-2-1-2 0 0-6-6-6-6 0 0 0 0 0 0-10-9-12-23-7-35 0-1 1-2 1-3 4-8 8-16 10-24 1-1 1-2 1-3 2-4 4-8 8-11 6-6 14-9 22-9 0 0 0-1 0-1 0 0 9 0 9 0 0 0 0 0 0 0 12 0 21-9 22-20 0 0 0 0 0 0 1-7 1-15 1-22 0-8 0-16-1-24z m-124 24c0 15-3 29-7 42-2 6-4 11-6 15-7 13-15 25-25 36-11 10-23 18-36 25-4 2-9 4-15 6-13 5-27 7-42 7 0 0 0 0-1 0-14 0-28-2-42-7-5-2-10-4-15-6-13-7-25-15-35-25-10-10-19-22-25-35-3-5-5-10-7-16-4-13-7-27-7-42 0-15 3-29 7-43 2-5 4-10 7-15 6-13 15-25 25-35 10-10 22-19 35-25 5-3 10-5 15-6 14-5 28-7 42-7 1 0 1 0 1 0 15 0 29 2 42 7 6 2 11 4 15 6 13 7 25 15 35 25 11 10 19 22 25 35 3 5 5 10 7 15 4 14 7 28 7 43 0 0 0 0 0 0z"/>
</svg>