<svg fill="#000000" height="512" width="512" id="icon-commandline" viewBox="0 0 512 512">
  <path d="m501 480c0 0-490 0-490 0-6 0-11-5-11-11 0 0 0-426 0-426 0-6 5-11 11-11 0 0 490 0 490 0 6 0 11 5 11 11 0 0 0 426 0 426 0 6-5 11-11 11z m-10-427c0 0-470 0-470 0 0 0 0 406 0 406 0 0 470 0 470 0 0 0 0-406 0-406z m-438 22c0 0 406 0 406 0 6 0 10 4 10 10 0 0 0 342 0 342 0 6-4 10-10 10 0 0-406 0-406 0-6 0-10-4-10-10 0 0 0-342 0-342 0-6 4-10 10-10z m224 170c0 0 86 0 86 0 6 0 10-4 10-10 0-6-4-11-10-11 0 0-86 0-86 0-6 0-10 5-10 11 0 6 4 10 10 10z m-125 25c-4 4-4 11 0 15 3 2 5 3 8 3 3 0 5-1 8-3 0 0 53-53 53-53 4-5 4-11 0-16 0 0-53-53-53-53-5-4-11-4-16 0-4 4-4 11 0 15 0 0 46 46 46 46 0 0-46 46-46 46z"/>
</svg>