<svg xmlns="http://www.w3.org/2000/svg" viewBox="0 0 24 24" width="24" height="24">
    <path style="text-indent:0;text-align:start;line-height:normal;text-transform:none;block-progression:tb;-inkscape-font-specification:Sans" d="M 4 3 C 2.9069372 3 2 3.9069372 2 5 L 2 19 C 2 20.093063 2.9069372 21 4 21 L 20 21 C 21.093063 21 22 20.093063 22 19 L 22 5 C 22 3.9069372 21.093063 3 20 3 L 4 3 z M 4 7 L 20 7 L 20 19 L 4 19 L 4 7 z M 12 9 L 10 17 L 12 17 L 14 9 L 12 9 z M 6.875 9.875 L 5.15625 12.4375 L 4.78125 13 L 5.1875 13.5625 L 6.96875 16.125 L 8.625 14.96875 L 7.21875 13 L 8.53125 11 L 6.875 9.875 z M 17.125 9.875 L 15.46875 11 L 16.78125 13 L 15.46875 15 L 17.125 16.09375 L 18.84375 13.5625 L 19.1875 13 L 18.84375 12.4375 L 17.125 9.875 z" color="#000" overflow="visible" font-family="Sans"/>
</svg>