<svg fill="#000000" height="512" width="512" id="icon-helper" viewBox="0 0 512 512">
  <path d="m256 32c124 0 224 100 224 224c0 124-100 224-224 224c-124 0-224-100-224-224c0-124 100-224 224-224z m178 152c-10-24-23-45-42-64c-19-19-41-32-65-42l-19 61c14 6 27 15 38 26c11 11 21 24 27 38z m-178 168c53 0 96-43 96-96c0-53-43-96-96-96c-53 0-96 43-96 96c0 53 43 96 96 96z m-136-232c-19 19-32 41-42 65l61 19c6-14 15-27 26-38c11-11 24-21 38-27l-19-61c-24 10-45 23-64 42z m-42 208c10 24 23 45 42 64c19 19 41 32 65 42l19-61c-14-6-27-15-38-26c-11-11-21-24-27-38z m314 64c19-19 32-41 42-65l-61-19c-6 14-15 27-26 38c-11 11-24 21-38 27l19 61c24-10 45-23 64-42z"/>
</svg>