<svg xmlns="http://www.w3.org/2000/svg" viewBox="0 0 24 24" width="24" height="24">
    <path d="M 12.8125 2 C 12.6855 2 12.5745 2.09175 12.5625 2.21875 L 12.4375 3.5 C 12.1135 3.631 11.80225 3.81925 11.53125 4.03125 L 10.375 3.5 C 10.259 3.448 10.09425 3.48375 10.03125 3.59375 L 9.03125 5.34375 C 8.96825 5.45375 8.99075 5.6125 9.09375 5.6875 L 10.15625 6.4375 C 10.13225 6.6065 10.125 6.7615 10.125 6.9375 C 10.125 7.1135 10.13225 7.29875 10.15625 7.46875 L 9.09375 8.21875 C 8.99075 8.29275 8.96825 8.42125 9.03125 8.53125 L 10.03125 10.3125 C 10.09525 10.4225 10.259 10.45825 10.375 10.40625 L 11.53125 9.875 C 11.80225 10.087 12.1135 10.244 12.4375 10.375 L 12.5625 11.6875 C 12.5755 11.8145 12.6855 11.90625 12.8125 11.90625 L 14.84375 11.90625 C 14.97075 11.90625 15.08175 11.8145 15.09375 11.6875 L 15.21875 10.375 C 15.54275 10.244 15.854 10.087 16.125 9.875 L 17.28125 10.40625 C 17.39725 10.45825 17.53075 10.4225 17.59375 10.3125 L 18.625 8.53125 C 18.688 8.42125 18.6655 8.29375 18.5625 8.21875 L 17.5 7.46875 C 17.524 7.29975 17.53125 7.1135 17.53125 6.9375 C 17.53125 6.7615 17.524 6.6075 17.5 6.4375 L 18.5625 5.6875 C 18.6655 5.6135 18.688 5.45475 18.625 5.34375 L 17.59375 3.59375 C 17.52975 3.48375 17.39725 3.448 17.28125 3.5 L 16.125 4.03125 C 15.854 3.81925 15.54275 3.631 15.21875 3.5 L 15.09375 2.21875 C 15.08175 2.09175 14.97075 2 14.84375 2 L 12.8125 2 z M 13.8125 4.96875 C 14.9055 4.96875 15.8125 5.8435 15.8125 6.9375 C 15.8125 8.0305 14.9065 8.9375 13.8125 8.9375 C 12.7185 8.9375 11.84375 8.0305 11.84375 6.9375 C 11.84375 5.8445 12.7185 4.96875 13.8125 4.96875 z M 5.8125 10.09375 C 5.6855 10.09375 5.5745 10.1855 5.5625 10.3125 L 5.4375 11.625 C 5.1135 11.756 4.80225 11.913 4.53125 12.125 L 3.375 11.59375 C 3.259 11.54175 3.1255 11.5775 3.0625 11.6875 L 2.03125 13.46875 C 1.96725 13.57875 1.99075 13.70625 2.09375 13.78125 L 3.15625 14.53125 C 3.13225 14.70025 3.125 14.8865 3.125 15.0625 C 3.125 15.2385 3.13225 15.3925 3.15625 15.5625 L 2.09375 16.3125 C 1.99075 16.3875 1.96825 16.54625 2.03125 16.65625 L 3.03125 18.40625 C 3.09525 18.51625 3.259 18.552 3.375 18.5 L 4.53125 17.96875 C 4.80225 18.18075 5.1135 18.369 5.4375 18.5 L 5.5625 19.78125 C 5.5755 19.90825 5.6855 20 5.8125 20 L 7.84375 20 C 7.97075 20 8.08175 19.90825 8.09375 19.78125 L 8.21875 18.5 C 8.54275 18.369 8.854 18.18075 9.125 17.96875 L 10.28125 18.5 C 10.39725 18.552 10.53075 18.51625 10.59375 18.40625 L 11.625 16.65625 C 11.688 16.54625 11.6655 16.3875 11.5625 16.3125 L 10.5 15.5625 C 10.524 15.3935 10.53125 15.2385 10.53125 15.0625 C 10.53125 14.8865 10.524 14.70125 10.5 14.53125 L 11.5625 13.78125 C 11.6655 13.70725 11.688 13.5485 11.625 13.4375 L 10.59375 11.6875 C 10.52975 11.5775 10.39725 11.54175 10.28125 11.59375 L 9.125 12.125 C 8.854 11.913 8.54275 11.756 8.21875 11.625 L 8.09375 10.3125 C 8.08075 10.1855 7.97075 10.09375 7.84375 10.09375 L 5.8125 10.09375 z M 16.15625 12.09375 C 16.02925 12.09375 15.91825 12.1855 15.90625 12.3125 L 15.78125 13.59375 C 15.45725 13.72475 15.146 13.913 14.875 14.125 L 13.71875 13.59375 C 13.60275 13.54175 13.46925 13.5775 13.40625 13.6875 L 12.375 15.4375 C 12.311 15.5475 12.3345 15.70625 12.4375 15.78125 L 13.5 16.53125 C 13.476 16.70025 13.46875 16.8865 13.46875 17.0625 C 13.46875 17.2385 13.476 17.3925 13.5 17.5625 L 12.4375 18.3125 C 12.3345 18.3865 12.312 18.54625 12.375 18.65625 L 13.40625 20.40625 C 13.47025 20.51625 13.60275 20.552 13.71875 20.5 L 14.875 19.96875 C 15.146 20.18075 15.45725 20.369 15.78125 20.5 L 15.90625 21.78125 C 15.91825 21.90825 16.02925 22 16.15625 22 L 18.1875 22 C 18.3145 22 18.4255 21.90825 18.4375 21.78125 L 18.5625 20.5 C 18.8865 20.369 19.19775 20.18075 19.46875 19.96875 L 20.625 20.5 C 20.741 20.552 20.90575 20.51625 20.96875 20.40625 L 21.96875 18.65625 C 22.03175 18.54625 22.00925 18.3875 21.90625 18.3125 L 20.84375 17.5625 C 20.86775 17.3935 20.875 17.2385 20.875 17.0625 C 20.875 16.8865 20.86775 16.70125 20.84375 16.53125 L 21.90625 15.78125 C 22.00925 15.70725 22.03175 15.5485 21.96875 15.4375 L 20.96875 13.6875 C 20.90475 13.5775 20.741 13.54175 20.625 13.59375 L 19.46875 14.125 C 19.19775 13.913 18.8865 13.72475 18.5625 13.59375 L 18.4375 12.3125 C 18.4245 12.1855 18.3145 12.09375 18.1875 12.09375 L 16.15625 12.09375 z M 6.8125 13.0625 C 7.9055 13.0625 8.8125 13.9685 8.8125 15.0625 C 8.8125 16.1555 7.9065 17.03125 6.8125 17.03125 C 5.7185 17.03125 4.84375 16.1555 4.84375 15.0625 C 4.84375 13.9695 5.7185 13.0625 6.8125 13.0625 z M 17.1875 15.0625 C 18.2805 15.0625 19.15625 15.9685 19.15625 17.0625 C 19.15625 18.1555 18.2815 19.03125 17.1875 19.03125 C 16.0935 19.03125 15.1875 18.1555 15.1875 17.0625 C 15.1875 15.9695 16.0935 15.0625 17.1875 15.0625 z"/>
</svg>