<svg fill="#000000" height="512" width="512" id="icon-link" viewBox="0 0 512 512">
  <path d="m477 37l-2-2c-47-47-124-47-171 0l-110 109c-47 47-47 124 0 172l2 2c4 3 9 7 13 10l40-40c-5-2-9-6-13-10l-2-2c-26-25-26-67 0-92l109-109c25-26 67-26 92 0l2 2c26 25 26 67 0 92l-49 50c9 21 13 43 12 66l77-77c47-47 47-124 0-171z m-161 157c-4-3-9-7-13-10l-40 40c5 2 9 6 13 10l2 2c26 25 26 67 0 92l-109 109c-25 26-67 26-92 0l-2-2c-26-25-26-67 0-92l49-50c-9-21-13-43-12-66l-77 77c-47 47-47 124 0 171l2 2c47 47 124 47 171 0l110-109c47-47 47-124 0-172z"/>
</svg>