<svg fill="#000000" height="512" width="512" id="icon-loading" viewBox="0 0 512 512">
  <path d="m480 226c0 3 0 6-1 9c-4 8-15 12-23 7c-4-3-6-7-7-11c0-5-1-9-2-14c-5-20-12-40-22-58c-12-22-28-41-47-56c-18-15-39-26-62-33c-20-7-42-9-64-9c-1 0-2 0-4 0c-3 0-6 0-9 1c-7 0-13 1-20 2c-13 3-25 6-37 11c-21 9-40 20-57 35c-17 15-31 32-42 52c-12 21-20 45-24 70c-2 11-3 22-2 34c0 5 0 11 1 16c1 6 2 13 3 19c5 24 14 47 28 67c13 20 29 38 48 52c20 15 42 26 65 33c25 7 51 10 77 7c25-2 49-8 72-19c11-6 22-12 32-20c10-7 19-15 27-24c4-5 8-9 12-14c3-5 7-10 10-15c6-10 12-20 17-31c3-8 7-17 11-25c1-4 3-9 4-13c1-4 1-7 2-11c1 9 0 17-1 26c-1 5-2 11-4 16c-1 5-3 10-5 15c-3 9-8 19-13 28c-5 11-12 21-20 30c-8 9-16 18-25 26c-19 15-40 28-62 36c-23 9-48 14-72 15c-26 1-52-3-76-11c-23-7-45-18-65-33c-19-14-36-31-49-50c-7-10-14-20-19-31c-5-11-10-22-13-33c-6-19-9-37-10-56c-1-20 1-39 6-58c5-24 14-47 27-68c11-18 26-35 42-50c17-15 35-27 55-36c23-11 48-18 74-21c10-1 20-1 29-1c13 0 26 2 38 4c24 5 47 14 68 26c22 13 41 29 57 48c15 18 27 37 36 59c4 10 8 21 11 31c2 9 3 17 5 26z"/>
</svg>