<svg fill="#000000" height="512" width="512" id="icon-refresh" viewBox="0 0 512 512">
  <path d="m416 352l-104-112l74 0c-7-65-64-112-130-112c-71 0-128 57-128 128c0 71 57 128 128 128c28 0 53-8 75-24l6-5l43 46l-7 6c-34 27-74 41-117 41c-91 0-167-64-187-149l0 0c0-1-1-2-1-3c0 0 0-1 0-1c0-1 0-2 0-2c-1-1-1-2-1-3c0 0 0-1 0-1c0-1-1-2-1-4l0 0c-1-6-1-12-2-19l0-1c0-1 0-3 0-4c0-2 0-3 0-5c0-2 0-3 0-5c0-1 0-3 0-4l0-1c1-6 1-13 2-19l0 0c0-1 1-3 1-4c0 0 0 0 0-1c0-1 0-2 1-2c0-1 0-2 0-3c0 0 0 0 0-1c0-1 1-2 1-3l0 0c20-85 96-149 187-149l0 0c11 0 21 1 31 3c1 0 1 0 2 0c0 0 1 0 2 0c57 11 105 47 133 96c13 23 21 49 23 77l65 0z"/>
</svg>