<svg fill="#000000" height="512" width="512" id="icon-reports" viewBox="0 0 512 512">
  <path d="m495 131c0 0-125-128-125-128-2-2-5-3-8-3 0 0-338 0-338 0-6 0-11 5-11 11 0 0 0 490 0 490 0 6 5 11 11 11 0 0 464 0 464 0 6 0 11-5 11-11 0 0 0-362 0-362 0-3-2-6-4-8z m-81 296c0 0-317 0-317 0-6 0-11-5-11-11 0 0 0-245 0-245 0-6 5-11 11-11 6 0 10 5 10 11 0 0 0 155 0 155 0 0 93-67 93-67 4-3 9-4 14-1 0 0 82 37 82 37 0 0 78-57 78-57 4-4 11-4 15 0 4 4 5 10 1 15 0 0-85 64-85 64-3 3-9 4-13 1 0 0-83-38-83-38 0 0-102 76-102 76 0 0 0 49 0 49 0 0 307 0 307 0 6 0 11 5 11 11 0 6-5 11-11 11z m-52-288c0 0 0-128 0-128 0 0 126 128 126 128 0 0-126 0-126 0z"/>
</svg>