<svg fill="#000000" height="512" width="512" id="icon-stopwatch" viewBox="0 0 512 512">
  <path d="m272 65c116 8 208 105 208 223c0 124-100 224-224 224c-124 0-224-100-224-224c0-118 92-215 208-223l0-17l-32 0l0-48l96 0l0 48l-32 0z m120 359c36-36 56-85 56-136c0-51-20-100-56-136c-36-36-85-56-136-56c-51 0-100 20-136 56c-36 36-56 85-56 136c0 51 20 100 56 136c36 36 85 56 136 56c51 0 100-20 136-56z m-23-249c3 3 3 8 0 11l-74 74c6 8 9 18 9 28c0 26-22 48-48 48c-26 0-48-22-48-48c0-26 22-48 48-48c10 0 20 3 28 9l74-74c3-3 8-3 11 0z m-113 145c18 0 32-14 32-32c0-18-14-32-32-32c-18 0-32 14-32 32c0 18 14 32 32 32z"/>
</svg>