<svg fill="#000000" height="512" width="512" id="icon-switch" viewBox="0 0 512 512">
  <path d="m510 306c0 0 0 0 0 0 1 3 2 6 2 9 0 0 0 0 0 0 0 3-1 6-2 9 0 0 0 0 0 0-1 3-3 6-5 8 0 0-95 94-95 94-4 5-10 7-16 7-6 0-12-2-17-7-9-9-9-24 0-33 0 0 54-54 54-54 0 0-195 0-195 0-13 0-23-11-23-24 0-13 10-24 23-24 0 0 195 0 195 0 0 0-54-54-54-54-9-9-9-24 0-33 9-9 24-9 33 0 0 0 95 94 95 94 2 3 4 5 5 8z m-234-85c0 0-195 0-195 0 0 0 54 54 54 54 9 9 9 24 0 33-5 5-11 7-17 7-6 0-12-2-17-7 0 0-94-94-94-94-2-3-4-5-5-8 0 0 0 0 0 0-1-3-2-6-2-9 0-3 1-6 2-9 0 0 0 0 0 0 1-3 3-6 5-8 0 0 94-94 94-94 10-10 25-10 34 0 9 9 9 24 0 33 0 0-54 54-54 54 0 0 195 0 195 0 13 0 23 11 23 24 0 13-10 24-23 24z"/>
</svg>