<svg fill="#000000" height="512" width="512" id="icon-users" viewBox="0 0 512 512">
  <path d="m425 325c42 16 52 26 53 33c2 9 2 90 2 90l-98 0c0-18 0-71-1-77c-1-10-1-29-55-50c-8-3-14-5-19-7c18-8 15-15 15-28c0-19-9-11-15-47c-2-14-4-5-9-28c-3-12 1-12 1-18c0-6-1-10-2-22c-1-14 11-52 57-52c46 0 59 38 58 52c-1 12-2 16-2 22c-1 6 4 6 1 18c-5 23-7 14-9 28c-6 36-16 28-16 47c0 29-2 23 39 39z m-68 123l-325 0c0 0 0-65 2-77c2-10 15-22 69-43c54-20 50-17 50-55c0-24-12-8-20-54c-3-18-5-7-11-36c-3-15 2-16 1-23c-1-7-2-14-3-29c-2-19 15-67 74-67c59 0 77 49 75 67c-1 15-2 22-3 29c-1 7 5 8 2 23c-6 29-9 18-12 36c-8 46-20 30-20 54c0 32-2 36 31 48c6 2 11 4 19 7c54 21 67 33 69 43c1 6 2 28 2 47z"/>
</svg>