<svg fill="#000000" height="512" width="512" id="icon-chart-vert-bar" viewBox="0 0 512 512">
  <path d="m487 520l-25 0c-6 0-11-5-11-11l0-285c0-6 5-11 11-11l25 0c6 0 11 5 11 11l0 285c0 6-5 11-11 11z m-108 0l-25 0c-6 0-11-5-11-11l0-498c0-6 5-11 11-11l25 0c6 0 11 5 11 11l0 498c0 6-5 11-11 11z m-108 0l-25 0c-6 0-11-5-11-11l0-303c0-6 5-11 11-11l25 0c6 0 11 5 11 11l0 303c0 6-5 11-11 11z m-109 0l-25 0c-6 0-10-5-10-11l0-346c0-6 4-11 10-11l25 0c6 0 11 5 11 11l0 346c0 6-5 11-11 11z m-108 0l-25 0c-6 0-11-5-11-11l0-108c0-6 5-11 11-11l25 0c6 0 11 5 11 11l0 108c0 6-5 11-11 11z"/>
</svg>