<svg xmlns="http://www.w3.org/2000/svg" viewBox="0 0 24 24" width="24" height="24">
    <path d="M21,11c0,6.708-4.282,6.437-4.826,6.437c-0.616,0-1.147-0.133-1.595-0.397c-0.448-0.265-0.786-0.645-1.016-1.139 c-0.358,0.501-0.775,0.877-1.252,1.128c-0.476,0.251-0.993,0.376-1.552,0.376c-0.522,0-0.99-0.114-1.401-0.344 c-0.412-0.229-0.754-0.553-1.026-0.973c-0.272-0.418-0.466-0.924-0.58-1.514c-0.114-0.592-0.136-1.252-0.064-1.982 c0.101-0.917,0.299-1.746,0.597-2.487C8.581,9.364,8.95,8.732,9.39,8.209C9.831,7.687,10.332,7.284,10.893,7 c0.563-0.283,1.159-0.424,1.789-0.424c2.026,0,3.083,1.021,3.298,1.171l-0.548,6.209c-0.043,0.358-0.203,1.751,1.128,1.751 C16.911,15.707,19,15.25,19,11c0-0.133,0.917-7-6.575-7C6.271,4,5,9.896,5,12c0,8.388,5.312,8,7,8c2.021,0,3.053-0.426,3.282-0.533 l0.447,1.825C15.478,21.457,14.479,22,12,22c-3.063,0-9-0.146-9-10c0-1.362,0.75-10,9.468-10C20.812,2,21,9.563,21,11z M10.072,12.592c-0.079,0.945,0.004,1.663,0.247,2.154c0.243,0.49,0.638,0.735,1.182,0.735c1.103,0,1.654-1.436,1.783-1.794 l0.451-5.081c-0.129-0.043-0.702-0.14-0.859-0.14c-0.823,0-1.463,0.351-1.918,1.053C10.504,10.222,10.208,11.246,10.072,12.592z"/>
</svg>