<svg width="20" height="20" viewBox="0 0 20 20" version="1.1" xmlns="http://www.w3.org/2000/svg" xmlns:xlink="http://www.w3.org/1999/xlink">
<title>field-textarea</title>
<desc>Created using Figma</desc>
<g id="Canvas" transform="translate(-6843 9048)">
<g id="field-textarea">
<use xlink:href="#path0_fill" transform="translate(6843 -9048)" fill="#FFFFFF"/>
</g>
</g>
<defs>
<path id="path0_fill" fill-rule="evenodd" d="M 1.34326 0C 0.598633 0 0 0.601562 0 1.34375L 0 18.6562C 0 19.4014 0.601562 20 1.34326 20L 18.6567 20C 19.4014 20 20 19.3984 20 18.6562L 20 1.34375C 20 0.598633 19.3984 0 18.6567 0L 1.34326 0ZM 9.7334 3.60059L 8.66699 3.60059C 8.17285 3.60059 7.70312 3.75391 7.3335 4.02148C 6.96436 3.75391 6.49414 3.60059 6.00049 3.60059L 4.93359 3.60059L 4.93359 4.94629L 6.00049 4.94629C 6.35107 4.94629 6.6001 5.14941 6.6001 5.36426L 6.6001 10.6367C 6.6001 10.749 6.53223 10.8584 6.41748 10.9365C 6.3125 11.0088 6.16797 11.0547 6.00049 11.0547L 4.93359 11.0547L 4.93359 12.4004L 6.00049 12.4004C 6.49414 12.4004 6.96436 12.248 7.3335 11.9795C 7.70312 12.248 8.17285 12.4004 8.66699 12.4004L 9.7334 12.4004L 9.7334 11.0547L 8.66699 11.0547C 8.31592 11.0547 8.06689 10.8516 8.06689 10.6367L 8.06689 5.36426C 8.06689 5.14941 8.31592 4.94629 8.66699 4.94629L 9.7334 4.94629L 9.7334 3.60059Z"/>
</defs>
</svg>
