<svg width="19" height="20" viewBox="0 0 19 20" version="1.1" xmlns="http://www.w3.org/2000/svg" xmlns:xlink="http://www.w3.org/1999/xlink">
<title>integrations-icon</title>
<desc>Created using Figma</desc>
<g id="Canvas" transform="translate(-5875 11842)">
<g id="integrations-icon">
<g id="Vector">
<use xlink:href="#path0_fill" transform="translate(5875 -11842)" fill="#72809B"/>
<use xlink:href="#path1_fill" transform="translate(5875 -11842)" fill="#72809B"/>
<use xlink:href="#path2_fill" transform="translate(5875 -11842)" fill="#72809B"/>
<use xlink:href="#path3_fill" transform="translate(5875 -11842)" fill="#72809B"/>
<use xlink:href="#path4_fill" transform="translate(5875 -11842)" fill="#72809B"/>
<use xlink:href="#path5_fill" transform="translate(5875 -11842)" fill="#72809B"/>
<use xlink:href="#path6_fill" transform="translate(5875 -11842)" fill="#72809B"/>
<use xlink:href="#path7_fill" transform="translate(5875 -11842)" fill="#72809B"/>
<use xlink:href="#path8_fill" transform="translate(5875 -11842)" fill="#72809B"/>
</g>
</g>
</g>
<defs>
<path id="path0_fill" d="M 14.8697 7.08336L 14.8697 2.06836L 10.7393 3.23169L 10.7393 9.03169L 14.6095 7.46919C 14.7664 7.40669 14.8697 7.25336 14.8697 7.08336Z"/>
<path id="path1_fill" d="M 10.3261 2.46917L 14.5994 1.27917L 10.4442 0.0175C 10.3674 -0.00583333 10.2856 -0.00583333 10.208 0.0175L 6.05273 1.27917L 10.3261 2.46917Z"/>
<path id="path2_fill" d="M 6.04211 7.47003L 9.91315 9.03253L 9.91315 3.23253L 5.78271 2.06836L 5.78271 7.08336C 5.78271 7.25336 5.88515 7.40669 6.04211 7.47003Z"/>
<path id="path3_fill" d="M 11.5654 14.1671C 11.5654 14.3246 11.653 14.4696 11.7926 14.5396L 14.8698 16.0913L 14.8698 11.9655L 11.5654 10.8271L 11.5654 14.1671Z"/>
<path id="path4_fill" d="M 15.4282 8.7759C 15.3348 8.74006 15.2316 8.74006 15.1374 8.7759C 15.1374 8.7759 11.824 10.0309 11.8198 10.0334C 11.8198 10.0334 15.2778 11.2192 15.282 11.2192C 15.2861 11.2192 18.7441 10.0334 18.7441 10.0334C 18.74 10.0317 15.4282 8.7759 15.4282 8.7759Z"/>
<path id="path5_fill" d="M 15.6958 11.9655L 15.6958 16.0913L 18.7721 14.5396C 18.9118 14.4688 19.0001 14.3246 19.0001 14.1671L 19.0001 10.8271L 15.6958 11.9655Z"/>
<path id="path6_fill" d="M 5.49987 9.18727C 5.41561 9.15893 5.32226 9.15893 5.23882 9.18727L 0.813477 10.6748L 5.36935 12.4689L 9.92522 10.6756L 5.49987 9.18727Z"/>
<path id="path7_fill" d="M 0 17.9167C 0 18.0958 0.114 18.255 0.282522 18.3125L 4.95652 19.8833L 4.95652 13.2017L 0 11.25L 0 17.9167Z"/>
<path id="path8_fill" d="M 5.78271 19.8833L 10.4567 18.3125C 10.6252 18.255 10.7392 18.0958 10.7392 17.9167L 10.7392 11.25L 5.78271 13.2017L 5.78271 19.8833Z"/>
</defs>
</svg>
