<svg fill="#000000" height="512" width="512" id="icon-line-chart" viewBox="0 0 512 512">
  <path d="m17 290c-14-4-20-13-16-29c3-14 12-20 27-16c0 0 50 12 50 12c0 0-26 41-26 41c0 0-35-8-35-8m455 6c4-4 10-6 16-6c7 1 12 3 16 8c11 11 11 22-1 33c0 0-128 115-128 115c-5 4-10 6-16 6c-5 0-9-2-14-5c0 0-146-112-146-112c0 0-28-8-28-8c0 0 26-40 26-40c0 0 18 4 18 4c4 1 7 2 8 4c0 0 135 104 135 104c0 0 114-103 114-103m-251-112c0 0-178 280-178 280c-4 8-11 12-20 12c-4 0-8-2-12-5c-5-3-9-8-10-14c-1-7 0-12 3-17c0 0 191-300 191-300c3-6 7-9 14-11c6-2 12-1 19 3c0 0 125 80 125 80c0 0 115-166 115-166c4-6 9-9 15-10c6-1 12 1 17 5c13 8 15 18 6 31c0 0-128 185-128 185c-9 12-19 14-32 6c0 0-125-79-125-79"/>
</svg>