<svg fill="#000000" height="512" width="512" id="icon-list-1" viewBox="0 0 512 512">
  <path d="m501 491c0 0-320 0-320 0-6 0-10-5-10-11 0 0 0-107 0-107 0-6 4-10 10-10 0 0 320 0 320 0 6 0 11 4 11 10 0 0 0 107 0 107 0 6-5 11-11 11z m0-171c0 0-320 0-320 0-6 0-10-5-10-11 0 0 0-106 0-106 0-6 4-11 10-11 0 0 320 0 320 0 6 0 11 5 11 11 0 0 0 106 0 106 0 6-5 11-11 11z m0-171c0 0-320 0-320 0-6 0-10-4-10-10 0 0 0-107 0-107 0-6 4-11 10-11 0 0 320 0 320 0 6 0 11 5 11 11 0 0 0 107 0 107 0 6-5 10-11 10z m-384 342c0 0-106 0-106 0-6 0-11-5-11-11 0 0 0-107 0-107 0-6 5-10 11-10 0 0 106 0 106 0 6 0 11 4 11 10 0 0 0 107 0 107 0 6-5 11-11 11z m0-171c0 0-106 0-106 0-6 0-11-5-11-11 0 0 0-106 0-106 0-6 5-11 11-11 0 0 106 0 106 0 6 0 11 5 11 11 0 0 0 106 0 106 0 6-5 11-11 11z m0-171c0 0-106 0-106 0-6 0-11-4-11-10 0 0 0-107 0-107 0-6 5-11 11-11 0 0 106 0 106 0 6 0 11 5 11 11 0 0 0 107 0 107 0 6-5 10-11 10z"/>
</svg>