<svg xmlns="http://www.w3.org/2000/svg" viewBox="0 0 24 24" enable-background="new 0 0 24 24" width="24" height="24">
    <path style="text-indent:0;text-align:start;line-height:normal;text-transform:none;block-progression:tb;-inkscape-font-specification:Bitstream Vera Sans" d="M 7 2 C 6.4777778 2 5.9395305 2.1854695 5.5625 2.5625 C 5.1854695 2.9395305 5 3.4777778 5 4 L 5 20 C 5 20.522222 5.1854695 21.060469 5.5625 21.4375 C 5.9395305 21.814531 6.4777778 22 7 22 L 17 22 C 17.522222 22 18.060469 21.814531 18.4375 21.4375 C 18.814531 21.060469 19 20.522222 19 20 L 19 4 C 19 3.4777778 18.814531 2.9395305 18.4375 2.5625 C 18.060469 2.1854695 17.522222 2 17 2 L 7 2 z M 7 4 L 17 4 L 17 11 L 7 11 L 7 4 z M 8 5 L 8 7 L 16 7 L 16 5 L 8 5 z M 8 8 L 8 10 L 16 10 L 16 8 L 8 8 z M 12 15.5 C 12.8 15.5 13.5 16.2 13.5 17 C 13.5 17.8 12.8 18.5 12 18.5 C 11.2 18.5 10.5 17.8 10.5 17 C 10.5 16.2 11.2 15.5 12 15.5 z" color="#000" overflow="visible" enable-background="accumulate" font-family="Bitstream Vera Sans"/>
</svg>